<svg width="20" height="25" viewBox="0 0 20 25" fill="none" xmlns="http://www.w3.org/2000/svg">
<path d="M9.54257 9.54217C10.8079 9.54217 12.0215 9.0395 12.9162 8.14475C13.811 7.25 14.3137 6.03645 14.3137 4.77108C14.3137 3.50571 13.811 2.29217 12.9162 1.39742C12.0215 0.502666 10.8079 0 9.54257 0C8.2772 0 7.06365 0.502666 6.1689 1.39742C5.27415 2.29217 4.77148 3.50571 4.77148 4.77108C4.77148 6.03645 5.27415 7.25 6.1689 8.14475C7.06365 9.0395 8.2772 9.54217 9.54257 9.54217Z" fill="white"/>
<path fill-rule="evenodd" clip-rule="evenodd" d="M14.9101 16.4006C14.3345 16.4005 13.7691 16.5519 13.2705 16.8396C12.772 17.1272 12.3579 17.541 12.0699 18.0393C11.7818 18.5377 11.63 19.103 11.6296 19.6786C11.6293 20.2542 11.7804 20.8197 12.0677 21.3184L16.5478 16.8384C16.0499 16.5509 15.485 16.3999 14.9101 16.4006ZM17.7966 18.1206L13.35 22.5672C13.9715 22.904 14.6852 23.031 15.3847 22.9293C16.0842 22.8275 16.7322 22.5025 17.2321 22.0027C17.7319 21.5028 18.0569 20.8549 18.1586 20.1553C18.2604 19.4558 18.1334 18.7421 17.7966 18.1206ZM9.84082 19.6807C9.84082 19.015 9.97194 18.3558 10.2267 17.7408C10.4815 17.1258 10.8549 16.5669 11.3256 16.0962C11.7963 15.6255 12.3551 15.2521 12.9702 14.9973C13.5852 14.7426 14.2444 14.6115 14.9101 14.6115C15.5758 14.6115 16.235 14.7426 16.85 14.9973C17.4651 15.2521 18.0239 15.6255 18.4946 16.0962C18.9653 16.5669 19.3387 17.1258 19.5935 17.7408C19.8483 18.3558 19.9794 19.015 19.9794 19.6807C19.9794 21.0252 19.4453 22.3146 18.4946 23.2652C17.5439 24.2159 16.2546 24.75 14.9101 24.75C13.5656 24.75 12.2763 24.2159 11.3256 23.2652C10.3749 22.3146 9.84082 21.0252 9.84082 19.6807Z" fill="white"/>
<path opacity="0.4" d="M16.694 14.9347C15.5433 14.5002 14.2739 14.499 13.1223 14.9312C11.9707 15.3634 11.0155 16.1995 10.4348 17.2838C9.85406 18.3681 9.68736 19.6265 9.96575 20.8246C10.2441 22.0227 10.9487 23.0787 11.948 23.7958C11.2244 23.8355 10.4224 23.8554 9.54217 23.8554C0 23.8554 0 21.452 0 18.488C0 15.5239 4.27251 13.1205 9.54217 13.1205C12.3893 13.1205 14.9454 13.8218 16.694 14.9347Z" fill="white"/>
</svg>
