<svg width="1728" height="1117" viewBox="0 0 1728 1117" fill="none" xmlns="http://www.w3.org/2000/svg">
<rect x="-8" y="78" width="1885" height="1039" fill="#6101EF"/>
<path d="M1677.24 702.445C1706.46 678.111 1711.92 656.459 1754.14 651.151L1921.79 636.661L-90.5761 546.725L-693.961 522.099C-701.41 554.122 -697.177 612.599 -620.658 590.319C-525.009 562.468 -293.385 631.858 -269.966 666.685C-246.548 701.512 -135.494 756.189 20.0299 763.066C175.554 769.942 248.533 653.975 411.845 655.877C575.157 657.779 585.483 703.186 775.955 715.061C966.428 726.936 918.227 684.879 1049.96 677.289C1181.68 669.699 1175.58 704.247 1287.51 741.231C1399.43 778.215 1646.8 727.788 1677.24 702.445Z" fill="#5116C4"/>
<path d="M-16.9302 603.031C-25.7516 580.439 -130.667 539.536 -182.022 521.909L36.9388 -123.942L1508.48 -70.7794L1902.22 -56.5546C1906.86 -21.1402 2231.84 660.758 2156.86 630.352C2063.12 592.344 1823.94 649.052 1797.28 685.018C1770.62 720.985 1685.11 736.047 1528.05 730.95C1370.99 725.853 1276.84 629.286 1112.39 618.152C947.943 607.018 933.508 655.544 740.849 653.055C548.189 650.567 600.423 608.744 468.591 589.844C336.758 570.945 339.822 608.995 223.934 640.151C108.046 671.307 -5.90361 631.271 -16.9302 603.031Z" fill="#300488"/>
</svg>
