<svg width="884" height="710" viewBox="0 0 884 710" fill="none" xmlns="http://www.w3.org/2000/svg">
<g clip-path="url(#clip0_1288_338)">
<path d="M846.704 97.0517C855.403 89.1184 860.635 77.4604 860.635 62.7091C860.635 24.8312 826.134 -4.96611 786.905 3.11451C758.519 8.96454 738.348 33.1433 738.978 62.1619C739.293 76.5766 744.735 88.7606 753.581 97.0517H846.725H846.704Z" fill="#FF45A7" stroke="white" stroke-width="1.7" stroke-miterlimit="10"/>
<path d="M861.098 73.7989C861.098 35.921 826.597 6.12374 787.368 14.2044C758.981 20.0544 738.81 44.2331 739.44 73.2518C739.924 96.1469 753.392 113.444 772.828 118.369C781.884 120.662 788.313 128.743 788.313 138.107V160.687C788.313 160.687 788.313 165.905 800.269 165.905C812.225 165.905 812.225 160.687 812.225 160.687V138.107C812.225 128.722 818.654 120.662 827.731 118.348C847.524 113.339 861.098 97.5357 861.098 73.7989Z" fill="#FFBA00" stroke="white" stroke-width="1.42" stroke-linecap="round" stroke-linejoin="round"/>
<path d="M847.188 108.142C855.886 100.208 861.118 88.5502 861.118 73.7989C861.118 35.921 826.617 6.12374 787.389 14.2044C759.002 20.0544 738.831 44.2331 739.461 73.2518C739.776 87.6664 745.218 99.8505 754.064 108.142H847.209H847.188Z" fill="#FF45A7" stroke="white" stroke-width="1.7" stroke-miterlimit="10"/>
<g style="mix-blend-mode:multiply" opacity="0.31">
<path d="M799.786 279.307C823.83 279.307 843.322 271.62 843.322 262.136C843.322 252.653 823.83 244.965 799.786 244.965C775.741 244.965 756.25 252.653 756.25 262.136C756.25 271.62 775.741 279.307 799.786 279.307Z" fill="#B0B0B0"/>
</g>
<g style="mix-blend-mode:multiply" opacity="0.31">
<path d="M356.903 703.35L28.3447 509.479C16.4521 502.408 10.863 481.365 19.5198 476.23L518.692 182.908C527.223 177.837 538.59 178.889 550.315 185.854L871.918 389.995C883.811 397.066 889.4 418.109 877.024 425.453L384.827 708.506C380.016 711.368 368.649 710.316 356.924 703.35H356.903Z" fill="#B0B0B0"/>
</g>
<path d="M355.579 675.973L72.1537 507.669C66.1654 504.113 61.4378 495.338 61.5849 488.057L62.0892 462.7L845.801 369.941L845.255 397.444C845.149 403.126 843.153 407.461 839.75 409.481L372.872 677.635C368.186 680.392 361.988 679.803 355.558 675.994L355.579 675.973Z" fill="#636B82" stroke="white" stroke-width="0.71" stroke-linecap="round" stroke-linejoin="round"/>
<path d="M346.061 644.703L74.444 483.385C63.1817 476.693 57.9078 456.786 66.1024 451.904L531.908 184.045C539.977 179.247 550.735 180.236 561.829 186.843L833.446 348.161C844.708 354.853 849.982 374.76 841.787 379.642L375.981 647.523C367.913 652.32 357.155 651.331 346.061 644.724V644.703Z" fill="#B6BCCC" stroke="white" stroke-width="0.71" stroke-linecap="round" stroke-linejoin="round"/>
<path d="M393.127 616.736C390.038 616.736 386.613 615.663 383.188 613.622L111.13 452.073C108.147 450.305 106.298 446.096 106.319 443.214C106.319 442.351 106.508 440.815 107.642 440.141L539.62 193.409C541.343 192.42 543.276 191.915 545.419 191.915C548.508 191.915 551.932 192.988 555.357 195.029L827.416 356.599C830.399 358.388 832.248 362.597 832.227 365.48C832.227 366.342 832.038 367.879 830.904 368.552L398.926 615.284C397.203 616.273 395.27 616.778 393.127 616.778V616.736Z" fill="url(#paint0_radial_1288_338)"/>
<path d="M545.419 192.651C548.361 192.651 551.68 193.682 554.979 195.661L827.037 357.231C829.811 358.872 831.492 362.786 831.471 365.459C831.471 366.153 831.345 367.416 830.525 367.879L398.527 614.611C396.93 615.537 395.102 616 393.106 616C390.164 616 386.844 614.969 383.546 612.991L111.508 451.42C108.735 449.779 107.054 445.865 107.075 443.193C107.075 442.498 107.201 441.235 108.021 440.773L540.019 194.04C541.616 193.114 543.444 192.651 545.44 192.651M545.44 191.157C543.192 191.157 541.112 191.683 539.263 192.757L107.264 439.489C103.797 441.509 106.003 449.905 110.731 452.725L382.789 614.295C386.382 616.421 389.912 617.515 393.106 617.515C395.354 617.515 397.434 616.989 399.283 615.916L831.261 369.183C834.728 367.163 832.521 358.767 827.794 355.947L555.736 194.377C552.143 192.251 548.613 191.157 545.419 191.157H545.44Z" fill="white"/>
<path d="M234.489 600.912L183.746 570.778C181.288 569.326 179.355 565.727 179.418 562.76L179.565 554.953C179.628 551.986 181.666 550.745 184.104 552.197L234.847 582.331C237.305 583.783 239.238 587.381 239.175 590.348L239.028 598.155C238.965 601.122 236.927 602.364 234.489 600.912Z" fill="#B6BCCC" stroke="white" stroke-width="0.71" stroke-linecap="round" stroke-linejoin="round"/>
<path d="M234.49 600.912L189.441 574.166C186.982 572.714 185.049 569.115 185.112 566.148L185.259 558.341C185.322 555.374 187.361 554.133 189.798 555.585L234.847 582.331C237.305 583.783 239.238 587.381 239.175 590.348L239.028 598.155C238.965 601.122 236.927 602.364 234.49 600.912Z" fill="#636B82" stroke="white" stroke-width="0.71" stroke-linecap="round" stroke-linejoin="round"/>
<path d="M88.6478 504.891C88.6057 507.311 86.9458 508.321 84.9497 507.122C82.9536 505.944 81.3778 503.019 81.4408 500.599C81.4828 498.179 83.1427 497.168 85.1388 498.368C87.1349 499.546 88.7108 502.471 88.6478 504.891Z" fill="#636B82" stroke="white" stroke-width="0.71" stroke-linecap="round" stroke-linejoin="round"/>
<path d="M102.809 513.309C102.767 515.729 101.107 516.739 99.1113 515.539C97.1152 514.361 95.5394 511.436 95.6024 509.016C95.6444 506.596 97.3043 505.586 99.3005 506.785C101.297 507.985 102.872 510.889 102.809 513.309Z" fill="#636B82" stroke="white" stroke-width="0.71" stroke-linecap="round" stroke-linejoin="round"/>
<path d="M116.951 521.705C116.908 524.125 115.249 525.135 113.252 523.936C111.256 522.757 109.68 519.832 109.744 517.412C109.786 514.992 111.445 513.982 113.442 515.182C115.438 516.36 117.014 519.285 116.951 521.705Z" fill="#636B82" stroke="white" stroke-width="0.71" stroke-linecap="round" stroke-linejoin="round"/>
<path d="M131.112 530.122C131.07 532.542 129.41 533.552 127.414 532.353C125.418 531.174 123.842 528.249 123.905 525.829C123.968 523.41 125.607 522.399 127.603 523.599C129.599 524.777 131.175 527.702 131.112 530.122Z" fill="#636B82" stroke="white" stroke-width="0.71" stroke-linecap="round" stroke-linejoin="round"/>
<path d="M145.274 538.519C145.232 540.939 143.572 541.949 141.576 540.749C139.58 539.571 138.004 536.646 138.067 534.226C138.109 531.806 139.769 530.796 141.765 531.995C143.761 533.174 145.337 536.099 145.274 538.519Z" fill="#636B82" stroke="white" stroke-width="0.71" stroke-linecap="round" stroke-linejoin="round"/>
<path d="M159.415 546.915C159.373 549.335 157.713 550.345 155.717 549.145C153.721 547.967 152.145 545.042 152.208 542.622C152.25 540.202 153.91 539.192 155.906 540.391C157.902 541.57 159.478 544.495 159.415 546.915Z" fill="#636B82" stroke="white" stroke-width="0.71" stroke-linecap="round" stroke-linejoin="round"/>
<path d="M260.355 606.867C260.313 609.287 258.653 610.297 256.657 609.098C254.66 607.919 253.085 604.994 253.148 602.574C253.211 600.154 254.85 599.144 256.846 600.344C258.842 601.543 260.418 604.447 260.355 606.867Z" fill="#636B82" stroke="white" stroke-width="0.71" stroke-linecap="round" stroke-linejoin="round"/>
<path d="M274.516 615.284C274.474 617.704 272.814 618.715 270.818 617.515C268.822 616.337 267.246 613.412 267.309 610.992C267.351 608.572 269.011 607.562 271.007 608.761C273.004 609.939 274.579 612.864 274.516 615.284Z" fill="#636B82" stroke="white" stroke-width="0.71" stroke-linecap="round" stroke-linejoin="round"/>
<path d="M288.657 623.681C288.615 626.101 286.955 627.111 284.959 625.911C282.963 624.733 281.387 621.808 281.45 619.388C281.492 616.968 283.152 615.958 285.148 617.157C287.144 618.336 288.72 621.261 288.657 623.681Z" fill="#636B82" stroke="white" stroke-width="0.71" stroke-linecap="round" stroke-linejoin="round"/>
<path d="M302.819 632.077C302.777 634.497 301.117 635.507 299.121 634.308C297.125 633.108 295.549 630.204 295.612 627.784C295.654 625.364 297.314 624.354 299.31 625.554C301.306 626.732 302.882 629.657 302.819 632.077Z" fill="#636B82" stroke="white" stroke-width="0.71" stroke-linecap="round" stroke-linejoin="round"/>
<path d="M316.981 640.494C316.939 642.914 315.279 643.924 313.283 642.725C311.287 641.525 309.711 638.621 309.774 636.201C309.837 633.781 311.476 632.771 313.472 633.971C315.468 635.17 317.044 638.074 316.981 640.494Z" fill="#636B82" stroke="white" stroke-width="0.71" stroke-linecap="round" stroke-linejoin="round"/>
<path d="M331.122 648.89C331.08 651.31 329.42 652.321 327.424 651.121C325.428 649.943 323.852 647.018 323.915 644.598C323.957 642.178 325.617 641.168 327.613 642.367C329.609 643.567 331.185 646.47 331.122 648.89Z" fill="#636B82" stroke="white" stroke-width="0.71" stroke-linecap="round" stroke-linejoin="round"/>
<path d="M190.47 518.338L183.81 522.82C180.994 524.44 182.78 531.216 186.625 533.51L240.877 565.727C245.815 568.652 250.585 569.115 254.199 567.032L260.859 562.55C263.675 560.929 261.889 554.154 258.044 551.86L203.792 519.643C198.854 516.718 194.084 516.255 190.47 518.338Z" fill="#636B82" stroke="white" stroke-width="0.71" stroke-linecap="round" stroke-linejoin="round"/>
<path d="M187.844 520.674L181.919 524.251C179.103 525.871 180.889 532.647 184.734 534.941L238.986 567.158C243.924 570.083 248.693 570.546 252.307 568.463L258.233 564.886C261.048 563.265 259.262 556.489 255.417 554.196L201.165 521.978C196.227 519.053 191.458 518.59 187.844 520.674Z" fill="#B6BCCC" stroke="white" stroke-width="0.71" stroke-linecap="round" stroke-linejoin="round"/>
<path opacity="0.22" d="M394.955 598.008L139.622 446.349L544.39 214.768L799.554 374.423L394.955 598.008Z" fill="#1A2135"/>
<path d="M386.676 582.162L377.599 576.775L379.785 467.161L388.841 472.548L386.676 582.162Z" fill="#636B82" stroke="white" stroke-width="0.71" stroke-linecap="round" stroke-linejoin="round"/>
<path d="M392.077 579.342L386.677 582.162L388.841 472.548L394.136 475.683L392.077 579.342Z" fill="#636B82" stroke="white" stroke-width="0.71" stroke-linecap="round" stroke-linejoin="round"/>
<path d="M774.404 368.762L765.327 363.375L767.512 253.761L776.568 259.148L774.404 368.762Z" fill="#636B82" stroke="white" stroke-width="0.71" stroke-linecap="round" stroke-linejoin="round"/>
<path d="M680.86 346.835L680.608 359.146L773.143 305.969L773.374 293.659L680.86 346.835Z" fill="#636B82" stroke="white" stroke-width="0.71" stroke-linecap="round" stroke-linejoin="round"/>
<path d="M680.86 346.835L773.374 293.659L768.857 290.965L681.007 339.702L680.86 346.835Z" fill="#636B82" stroke="white" stroke-width="0.71" stroke-linecap="round" stroke-linejoin="round"/>
<path d="M779.804 365.943L774.404 368.762L776.568 259.148L781.863 262.284L779.804 365.943Z" fill="#636B82" stroke="white" stroke-width="0.71" stroke-linecap="round" stroke-linejoin="round"/>
<path d="M674.157 429.557L665.101 424.169L667.266 314.555L676.343 319.942L674.157 429.557Z" fill="#636B82" stroke="white" stroke-width="0.71" stroke-linecap="round" stroke-linejoin="round"/>
<path d="M393.316 517.391L393.547 505.081L671.132 351.423L670.879 363.733L393.316 517.391Z" fill="#636B82" stroke="white" stroke-width="0.71" stroke-linecap="round" stroke-linejoin="round"/>
<path d="M393.694 497.442L393.547 505.081L671.132 351.423L666.593 348.729L393.694 497.442Z" fill="#636B82" stroke="white" stroke-width="0.71" stroke-linecap="round" stroke-linejoin="round"/>
<path d="M679.578 426.758L674.157 429.557L676.342 319.942L681.637 323.078L679.578 426.758Z" fill="#636B82" stroke="white" stroke-width="0.71" stroke-linecap="round" stroke-linejoin="round"/>
<path d="M171.623 454.451L162.567 449.064L164.731 339.449L173.808 344.836L171.623 454.451Z" fill="#636B82" stroke="white" stroke-width="0.71" stroke-linecap="round" stroke-linejoin="round"/>
<path d="M177.044 451.631L171.623 454.451L173.808 344.836L179.103 347.972L177.044 451.631Z" fill="#636B82" stroke="white" stroke-width="0.71" stroke-linecap="round" stroke-linejoin="round"/>
<path d="M378.882 512.13L175.552 391.363L175.804 378.926L379.134 499.673L378.882 512.13Z" fill="#636B82" stroke="white" stroke-width="0.71" stroke-linecap="round" stroke-linejoin="round"/>
<path d="M379.26 492.981L178.578 373.792L175.804 378.926L379.133 499.673L379.26 492.981Z" fill="#636B82" stroke="white" stroke-width="0.71" stroke-linecap="round" stroke-linejoin="round"/>
<path d="M139.874 329.264L139.769 334.42L395.984 486.584L799.638 266.85L799.827 257.338L139.874 329.264Z" fill="#70E359" stroke="white" stroke-width="0.91" stroke-linecap="round" stroke-linejoin="round"/>
<path d="M395.207 480.902L139.874 329.264L546.701 103.239L799.827 257.338L395.207 480.902Z" fill="url(#paint1_radial_1288_338)" stroke="white" stroke-width="0.71" stroke-linecap="round" stroke-linejoin="round"/>
<g opacity="0.39">
<path d="M390.101 454.198L153.027 313.398L545.44 88.3188L782.514 229.098L390.101 454.198Z" stroke="#1A2135" stroke-width="0.71" stroke-linecap="round" stroke-linejoin="round"/>
<path d="M585.761 342.143L348.687 201.342" stroke="#1A2135" stroke-width="0.71" stroke-linecap="round" stroke-linejoin="round"/>
<path d="M265.355 380.126L658.104 155.215" stroke="#1A2135" stroke-width="0.71" stroke-linecap="round" stroke-linejoin="round"/>
</g>
<path d="M389.597 446.054L152.523 305.275L544.957 80.175L782.031 220.976L389.597 446.054Z" stroke="white" stroke-width="0.71" stroke-linecap="round" stroke-linejoin="round"/>
<path d="M585.278 333.999L348.205 193.198" stroke="white" stroke-width="0.71" stroke-linecap="round" stroke-linejoin="round"/>
<path d="M264.873 371.982L657.621 147.093" stroke="white" stroke-width="0.71" stroke-linecap="round" stroke-linejoin="round"/>
<path d="M599.083 275.246L362.009 134.446L361.063 182.024L598.137 322.825L599.083 275.246Z" stroke="white" stroke-width="0.71" stroke-linecap="round" stroke-linejoin="round"/>
<path d="M354.129 129.774L392.349 200.606" stroke="white" stroke-width="0.71" stroke-linecap="round" stroke-linejoin="round"/>
<path d="M367.724 137.833L405.944 208.686" stroke="white" stroke-width="0.71" stroke-linecap="round" stroke-linejoin="round"/>
<path d="M381.318 145.914L419.517 216.746" stroke="white" stroke-width="0.71" stroke-linecap="round" stroke-linejoin="round"/>
<path d="M394.892 153.974L433.112 224.826" stroke="white" stroke-width="0.71" stroke-linecap="round" stroke-linejoin="round"/>
<path d="M408.486 162.054L446.706 232.886" stroke="white" stroke-width="0.71" stroke-linecap="round" stroke-linejoin="round"/>
<path d="M422.081 170.114L460.28 240.966" stroke="white" stroke-width="0.71" stroke-linecap="round" stroke-linejoin="round"/>
<path d="M435.654 178.195L473.874 249.026" stroke="white" stroke-width="0.71" stroke-linecap="round" stroke-linejoin="round"/>
<path d="M449.249 186.254L487.469 257.107" stroke="white" stroke-width="0.71" stroke-linecap="round" stroke-linejoin="round"/>
<path d="M462.823 194.314L501.043 265.166" stroke="white" stroke-width="0.71" stroke-linecap="round" stroke-linejoin="round"/>
<path d="M476.417 202.394L514.637 273.247" stroke="white" stroke-width="0.71" stroke-linecap="round" stroke-linejoin="round"/>
<path d="M490.011 210.454L528.232 281.307" stroke="white" stroke-width="0.71" stroke-linecap="round" stroke-linejoin="round"/>
<path d="M503.585 218.534L541.805 289.366" stroke="white" stroke-width="0.71" stroke-linecap="round" stroke-linejoin="round"/>
<path d="M517.179 226.594L555.4 297.447" stroke="white" stroke-width="0.71" stroke-linecap="round" stroke-linejoin="round"/>
<path d="M530.774 234.675L568.973 305.506" stroke="white" stroke-width="0.71" stroke-linecap="round" stroke-linejoin="round"/>
<path d="M544.347 242.734L582.568 313.587" stroke="white" stroke-width="0.71" stroke-linecap="round" stroke-linejoin="round"/>
<path d="M557.942 250.815L596.162 321.646" stroke="white" stroke-width="0.71" stroke-linecap="round" stroke-linejoin="round"/>
<path d="M571.536 258.874L604.041 319.163" stroke="white" stroke-width="0.71" stroke-linecap="round" stroke-linejoin="round"/>
<path d="M585.11 266.934L605.05 303.907" stroke="white" stroke-width="0.71" stroke-linecap="round" stroke-linejoin="round"/>
<path d="M361.483 160.918L378.44 192.357" stroke="white" stroke-width="0.71" stroke-linecap="round" stroke-linejoin="round"/>
<path d="M605.554 279.076L565.443 303.402" stroke="white" stroke-width="0.71" stroke-linecap="round" stroke-linejoin="round"/>
<path d="M591.96 271.016L551.849 295.343" stroke="white" stroke-width="0.71" stroke-linecap="round" stroke-linejoin="round"/>
<path d="M578.386 262.936L538.275 287.283" stroke="white" stroke-width="0.71" stroke-linecap="round" stroke-linejoin="round"/>
<path d="M564.792 254.876L524.681 279.202" stroke="white" stroke-width="0.71" stroke-linecap="round" stroke-linejoin="round"/>
<path d="M551.197 246.796L511.086 271.143" stroke="white" stroke-width="0.71" stroke-linecap="round" stroke-linejoin="round"/>
<path d="M537.624 238.736L497.513 263.062" stroke="white" stroke-width="0.71" stroke-linecap="round" stroke-linejoin="round"/>
<path d="M524.029 230.677L483.918 255.003" stroke="white" stroke-width="0.71" stroke-linecap="round" stroke-linejoin="round"/>
<path d="M510.435 222.596L470.324 246.922" stroke="white" stroke-width="0.71" stroke-linecap="round" stroke-linejoin="round"/>
<path d="M496.861 214.536L456.75 238.862" stroke="white" stroke-width="0.71" stroke-linecap="round" stroke-linejoin="round"/>
<path d="M483.267 206.456L443.156 230.782" stroke="white" stroke-width="0.71" stroke-linecap="round" stroke-linejoin="round"/>
<path d="M469.672 198.396L429.582 222.722" stroke="white" stroke-width="0.71" stroke-linecap="round" stroke-linejoin="round"/>
<path d="M456.099 190.315L415.988 214.641" stroke="white" stroke-width="0.71" stroke-linecap="round" stroke-linejoin="round"/>
<path d="M442.504 182.256L402.393 206.582" stroke="white" stroke-width="0.71" stroke-linecap="round" stroke-linejoin="round"/>
<path d="M428.931 174.175L388.82 198.522" stroke="white" stroke-width="0.71" stroke-linecap="round" stroke-linejoin="round"/>
<path d="M415.336 166.116L375.225 190.442" stroke="white" stroke-width="0.71" stroke-linecap="round" stroke-linejoin="round"/>
<path d="M401.742 158.035L361.631 182.382" stroke="white" stroke-width="0.71" stroke-linecap="round" stroke-linejoin="round"/>
<path d="M388.168 149.976L354.024 170.682" stroke="white" stroke-width="0.71" stroke-linecap="round" stroke-linejoin="round"/>
<path d="M374.574 141.916L353.646 154.605" stroke="white" stroke-width="0.71" stroke-linecap="round" stroke-linejoin="round"/>
<path d="M597.171 300.877L579.374 311.672" stroke="white" stroke-width="0.71" stroke-linecap="round" stroke-linejoin="round"/>
<path d="M353.037 185.454L360.895 190.126L362.009 134.446L354.129 129.774L353.037 185.454Z" fill="white" stroke="white" stroke-width="0.71" stroke-linecap="round" stroke-linejoin="round"/>
<path d="M597.969 330.927L605.827 335.598L606.941 279.918L599.083 275.246L597.969 330.927Z" fill="white" stroke="white" stroke-width="0.71" stroke-linecap="round" stroke-linejoin="round"/>
<path d="M289.126 184.731C299.3 180.481 304.108 168.775 299.865 158.585C295.621 148.395 283.933 143.579 273.758 147.83C263.583 152.08 258.775 163.786 263.019 173.976C267.263 184.166 278.951 188.981 289.126 184.731Z" fill="#FFBA00"/>
<g style="mix-blend-mode:multiply" opacity="0.31">
<path d="M281.45 327.917C292.474 327.917 301.411 322.802 301.411 316.491C301.411 310.18 292.474 305.064 281.45 305.064C270.426 305.064 261.489 310.18 261.489 316.491C261.489 322.802 270.426 327.917 281.45 327.917Z" fill="#B0B0B0"/>
</g>
<g style="mix-blend-mode:multiply" opacity="0.31">
<path d="M113.904 680.813C113.904 688.957 97.1785 695.543 76.5452 695.543C55.9118 695.543 39.1865 688.957 39.1865 680.813C39.1865 672.669 55.9118 666.083 76.5452 666.083C97.1785 666.083 113.904 672.669 113.904 680.813Z" fill="#B0B0B0"/>
</g>
<path d="M125.986 468.571C136.008 459.417 142.038 445.97 142.038 428.967C142.038 385.303 102.263 350.918 57.0045 360.24C24.2684 366.995 1.0086 394.877 1.74401 428.336C2.1012 444.96 8.38367 459.017 18.5953 468.571H125.986Z" fill="#70E359" stroke="white" stroke-width="1.64" stroke-linecap="round" stroke-linejoin="round"/>
<path d="M142.606 441.762C142.606 398.097 102.831 363.712 57.572 373.034C24.8149 379.768 1.57605 407.65 2.29044 441.13C2.85776 467.54 18.3853 487.489 40.8047 493.149C51.2685 495.801 58.6435 505.123 58.6435 515.918V541.97C58.6435 541.97 58.6436 547.988 72.4482 547.988C86.2528 547.988 86.2528 541.97 86.2528 541.97V515.918C86.2528 505.102 93.6699 495.78 104.155 493.128C126.973 487.341 142.627 469.139 142.627 441.741L142.606 441.762Z" fill="#FFBA00" stroke="white" stroke-width="1.64" stroke-linecap="round" stroke-linejoin="round"/>
<path d="M126.553 481.365C136.576 472.211 142.606 458.765 142.606 441.762C142.606 398.097 102.831 363.712 57.572 373.034C24.8149 379.768 1.57605 407.65 2.29044 441.13C2.64764 457.755 8.93011 471.811 19.1417 481.365H126.553Z" fill="#70E359" stroke="white" stroke-width="1.64" stroke-linecap="round" stroke-linejoin="round"/>
</g>
<defs>
<radialGradient id="paint0_radial_1288_338" cx="0" cy="0" r="1" gradientUnits="userSpaceOnUse" gradientTransform="translate(1391.54 1093.28) rotate(30.7079) scale(691.99 628.812)">
<stop stop-color="#1A4883"/>
<stop offset="1" stop-color="#1A2135"/>
</radialGradient>
<radialGradient id="paint1_radial_1288_338" cx="0" cy="0" r="1" gradientUnits="userSpaceOnUse" gradientTransform="translate(588.811 -42.3868) scale(488.031 488.766)">
<stop stop-color="#70E359"/>
<stop offset="1" stop-color="#34C253"/>
</radialGradient>
<clipPath id="clip0_1288_338">
<rect width="884" height="710" fill="white"/>
</clipPath>
</defs>
</svg>
