<svg width="313" height="226" viewBox="0 0 313 226" fill="none" xmlns="http://www.w3.org/2000/svg">
<path d="M9.65516 34.47C4.9679 17.7359 18.362 1.4426 35.6867 2.8037L286.675 22.5225C300.975 23.646 311.4 36.5457 309.496 50.7628L288.94 204.317C287.278 216.731 276.686 226 264.161 226H82.263C71.0528 226 61.2132 218.538 58.1895 207.743L9.65516 34.47Z" fill="white"/>
<g filter="url(#filter0_d_3994_89)">
<circle cx="135" cy="124" r="72" fill="#2BBDB6"/>
</g>
<path d="M198.792 49.6572L198.282 55.6328C198.008 55.5573 197.739 55.5054 197.475 55.4771C197.21 55.4487 196.941 55.4346 196.667 55.4346C195.997 55.4346 195.355 55.5195 194.742 55.6895C194.138 55.8594 193.599 56.119 193.127 56.4683C192.665 56.8175 192.292 57.2612 192.009 57.7993C191.735 58.328 191.598 58.9557 191.598 59.6826C191.598 60.2113 191.674 60.6738 191.825 61.0703C191.985 61.4574 192.207 61.783 192.49 62.0474C192.783 62.3022 193.132 62.4958 193.538 62.6279C193.953 62.7601 194.411 62.8262 194.912 62.8262C195.261 62.8262 195.62 62.7931 195.988 62.7271C196.356 62.6515 196.724 62.5524 197.092 62.4297C197.46 62.307 197.814 62.1654 198.154 62.0049C198.494 61.8444 198.81 61.6745 199.103 61.4951L198.876 68.1504C198.508 68.3392 198.112 68.5091 197.687 68.6602C197.262 68.8018 196.823 68.9245 196.37 69.0283C195.926 69.1416 195.478 69.2266 195.025 69.2832C194.581 69.3398 194.156 69.3682 193.75 69.3682C192.41 69.3682 191.188 69.118 190.083 68.6177C188.988 68.1174 188.044 67.4377 187.251 66.5786C186.467 65.7101 185.859 64.7048 185.424 63.5625C184.99 62.4202 184.773 61.2025 184.773 59.9092C184.773 58.361 184.99 56.9167 185.424 55.5762C185.868 54.2357 186.515 53.0745 187.364 52.0928C188.223 51.1016 189.281 50.3275 190.536 49.7705C191.801 49.2041 193.25 48.9209 194.883 48.9209C195.535 48.9209 196.195 48.9728 196.866 49.0767C197.536 49.1805 198.178 49.374 198.792 49.6572ZM217.61 49.8271L210.955 60.7021L211.153 68.7168H203.875L204.045 60.7588L198.862 50.252L206.084 49.3457L208.35 55.4629L210.813 49.3457L217.61 49.8271ZM233.187 67.7822L226.163 68.6885L225.313 65.4883H222.085L221.377 68.6885L214.155 67.9805L219.791 49.1191L227.664 48.7227L233.187 67.7822ZM224.804 61.1553L223.728 56.2275L222.68 61.1553H224.804ZM251.057 61.835C251.057 62.9017 251.042 63.959 251.014 65.0068C250.995 66.0452 250.962 67.0931 250.915 68.1504L242.759 68.0088C243.042 66.3379 243.287 64.6717 243.495 63.0103C243.703 61.3394 243.807 59.6543 243.807 57.9551C243.807 57.8324 243.802 57.6341 243.792 57.3604C243.783 57.0866 243.764 56.7798 243.736 56.4399C243.708 56.0907 243.665 55.7367 243.608 55.3779C243.561 55.0098 243.49 54.6746 243.396 54.3726C243.311 54.0705 243.202 53.825 243.07 53.6362C242.948 53.438 242.797 53.3389 242.617 53.3389C242.296 53.3389 242.022 53.4333 241.796 53.6221C241.579 53.8109 241.395 54.0563 241.244 54.3584C241.102 54.651 240.989 54.9814 240.904 55.3496C240.819 55.7178 240.753 56.0859 240.706 56.4541C240.668 56.8223 240.639 57.1715 240.621 57.502C240.611 57.8229 240.606 58.0872 240.606 58.2949C240.559 59.9658 240.521 61.6273 240.493 63.2793C240.465 64.9219 240.427 66.5833 240.38 68.2637L233.158 68.5752C233.347 65.2428 233.526 61.9294 233.696 58.6348C233.876 55.3402 234.017 52.0267 234.121 48.6943L240.805 48.3545L240.748 50.6201C241.012 50.2992 241.296 49.9971 241.598 49.7139C241.909 49.4307 242.24 49.1899 242.589 48.9917C242.938 48.784 243.306 48.6235 243.693 48.5103C244.09 48.3875 244.505 48.3262 244.939 48.3262C245.742 48.3262 246.445 48.4583 247.049 48.7227C247.653 48.987 248.173 49.3457 248.607 49.7988C249.041 50.252 249.405 50.79 249.697 51.4131C249.99 52.0267 250.226 52.6828 250.405 53.3813C250.585 54.0799 250.722 54.8115 250.816 55.5762C250.91 56.3314 250.972 57.0771 251 57.8135C251.038 58.5498 251.057 59.2625 251.057 59.9517C251.057 60.6408 251.057 61.2686 251.057 61.835ZM235.636 92.959C235.636 93.7425 235.49 94.4175 235.197 94.9839C234.914 95.5503 234.532 96.0317 234.05 96.4282C233.569 96.8247 233.012 97.1504 232.379 97.4053C231.756 97.6507 231.105 97.8442 230.425 97.9858C229.746 98.1274 229.061 98.2218 228.372 98.269C227.692 98.3162 227.055 98.3398 226.46 98.3398C225.875 98.3398 225.266 98.3162 224.634 98.269C224.011 98.2313 223.388 98.1605 222.765 98.0566C222.142 97.9528 221.528 97.8159 220.924 97.646C220.32 97.4666 219.749 97.2448 219.21 96.9805L219.182 78.7422C219.711 78.5251 220.272 78.3315 220.867 78.1616C221.462 77.9823 222.066 77.8359 222.68 77.7227C223.303 77.5999 223.921 77.5103 224.535 77.4536C225.148 77.3875 225.743 77.3545 226.319 77.3545C226.989 77.3545 227.664 77.397 228.344 77.4819C229.033 77.5669 229.694 77.7085 230.326 77.9067C230.959 78.105 231.549 78.3646 232.096 78.6855C232.644 78.9971 233.12 79.3841 233.526 79.8467C233.942 80.3092 234.263 80.8473 234.489 81.4609C234.725 82.0745 234.843 82.7826 234.843 83.585C234.843 84.1136 234.768 84.6092 234.617 85.0718C234.466 85.5343 234.249 85.9497 233.965 86.3179C233.682 86.686 233.338 87.0023 232.932 87.2666C232.526 87.5215 232.068 87.7103 231.558 87.833C232.172 87.9935 232.729 88.2295 233.229 88.541C233.739 88.8525 234.168 89.2301 234.518 89.6738C234.876 90.1175 235.15 90.6178 235.339 91.1748C235.537 91.7318 235.636 92.3265 235.636 92.959ZM228.443 84.8877C228.443 84.6139 228.386 84.3826 228.273 84.1938C228.16 83.9956 228.018 83.8351 227.848 83.7124C227.688 83.5897 227.508 83.5 227.31 83.4434C227.121 83.3867 226.951 83.3584 226.8 83.3584C226.611 83.3584 226.427 83.3867 226.248 83.4434C226.069 83.5 225.894 83.5661 225.724 83.6416L225.639 86.7852C225.856 86.7852 226.125 86.7663 226.446 86.7285C226.767 86.6908 227.074 86.6105 227.367 86.4878C227.669 86.3556 227.924 86.1668 228.131 85.9214C228.339 85.6665 228.443 85.3219 228.443 84.8877ZM226.432 89.5039C226.158 89.5039 225.894 89.5322 225.639 89.5889L225.583 92.8174C225.724 92.8457 225.861 92.874 225.993 92.9023C226.135 92.9212 226.272 92.9307 226.404 92.9307C226.602 92.9307 226.819 92.9118 227.055 92.874C227.291 92.8268 227.513 92.7419 227.721 92.6191C227.928 92.487 228.098 92.3123 228.23 92.0952C228.372 91.8781 228.443 91.5902 228.443 91.2314C228.443 90.8727 228.372 90.5801 228.23 90.3535C228.098 90.127 227.933 89.9523 227.735 89.8296C227.537 89.6974 227.319 89.6125 227.083 89.5747C226.847 89.5275 226.63 89.5039 226.432 89.5039ZM254.257 96.7822L247.233 97.6885L246.384 94.4883H243.155L242.447 97.6885L235.226 96.9805L240.861 78.1191L248.734 77.7227L254.257 96.7822ZM245.874 90.1553L244.798 85.2275L243.75 90.1553H245.874ZM266.973 90.4951L266.378 96.7822L254.455 97.7168L254.908 77.4961H262.271L261.224 90.4951H266.973ZM280.057 90.4951L279.462 96.7822L267.539 97.7168L267.992 77.4961H275.355L274.308 90.4951H280.057Z" fill="black"/>
<defs>
<filter id="filter0_d_3994_89" x="30.9" y="49.9" width="176.1" height="170.2" filterUnits="userSpaceOnUse" color-interpolation-filters="sRGB">
<feFlood flood-opacity="0" result="BackgroundImageFix"/>
<feColorMatrix in="SourceAlpha" type="matrix" values="0 0 0 0 0 0 0 0 0 0 0 0 0 0 0 0 0 0 127 0" result="hardAlpha"/>
<feOffset dx="-19" dy="11"/>
<feGaussianBlur stdDeviation="6.55"/>
<feComposite in2="hardAlpha" operator="out"/>
<feColorMatrix type="matrix" values="0 0 0 0 0 0 0 0 0 0 0 0 0 0 0 0 0 0 0.28 0"/>
<feBlend mode="normal" in2="BackgroundImageFix" result="effect1_dropShadow_3994_89"/>
<feBlend mode="normal" in="SourceGraphic" in2="effect1_dropShadow_3994_89" result="shape"/>
</filter>
</defs>
</svg>
