<svg width="313" height="226" viewBox="0 0 313 226" fill="none" xmlns="http://www.w3.org/2000/svg">
<path d="M9.65516 34.47C4.9679 17.7359 18.362 1.4426 35.6867 2.8037L286.675 22.5225C300.975 23.646 311.4 36.5457 309.496 50.7628L288.94 204.317C287.278 216.731 276.686 226 264.161 226H82.263C71.0528 226 61.2132 218.538 58.1895 207.743L9.65516 34.47Z" fill="white"/>
<g filter="url(#filter0_d_3995_110)">
<circle cx="135" cy="124" r="72" fill="#24BA26"/>
</g>
<path d="M118.475 48.8643C118.418 49.7516 118.367 50.6296 118.319 51.498C118.272 52.3665 118.211 53.2445 118.135 54.1318L112.131 54.4434V56.2275H117.342L117.059 60.6172L112.103 60.7588L112.131 68.5752L104.966 68.7168L105.419 48.8643H118.475ZM135.835 55.3496C135.835 56.0859 135.769 56.7562 135.637 57.3604C135.514 57.9551 135.316 58.5026 135.042 59.0029C134.769 59.5033 134.415 59.9658 133.98 60.3906C133.546 60.8154 133.022 61.2214 132.409 61.6084L135.779 67.6123L129.407 68.8584L127.226 62.8262L125.47 62.8828L125.215 68.7734H119.126C119.174 66.6211 119.216 64.4782 119.254 62.3447C119.301 60.2113 119.353 58.0684 119.41 55.916C119.429 54.8304 119.447 53.7542 119.466 52.6875C119.485 51.6208 119.523 50.5446 119.58 49.459C120.24 49.2135 120.892 49.0106 121.534 48.8501C122.176 48.6896 122.818 48.5669 123.459 48.4819C124.111 48.3875 124.767 48.3262 125.428 48.2979C126.098 48.2601 126.782 48.2412 127.481 48.2412C128.557 48.2412 129.596 48.3923 130.596 48.6943C131.606 48.987 132.498 49.4307 133.272 50.0254C134.047 50.6201 134.665 51.3612 135.127 52.2485C135.599 53.1359 135.835 54.1696 135.835 55.3496ZM129.492 55.8027C129.492 55.4062 129.435 55.0428 129.322 54.7124C129.218 54.382 129.057 54.0988 128.84 53.8628C128.633 53.6174 128.368 53.4285 128.047 53.2964C127.736 53.1548 127.368 53.084 126.943 53.084C126.754 53.084 126.57 53.0981 126.391 53.1265C126.211 53.1453 126.037 53.1784 125.867 53.2256L125.64 58.4932H125.98C126.386 58.4932 126.797 58.4412 127.212 58.3374C127.637 58.2336 128.014 58.0731 128.345 57.856C128.685 57.6388 128.958 57.3604 129.166 57.0205C129.383 56.6807 129.492 56.2747 129.492 55.8027ZM152.488 57.5586C152.488 58.3799 152.431 59.2012 152.318 60.0225C150.704 60.1263 149.099 60.2962 147.503 60.5322C145.908 60.7588 144.313 60.9854 142.717 61.2119C142.963 61.8916 143.345 62.4344 143.864 62.8403C144.393 63.2463 145.021 63.4492 145.748 63.4492C146.125 63.4492 146.536 63.3784 146.979 63.2368C147.433 63.0952 147.881 62.9206 148.325 62.7129C148.768 62.4958 149.193 62.2645 149.599 62.019C150.005 61.7736 150.354 61.5518 150.647 61.3535L149.967 67.7822C149.599 68.0654 149.198 68.3062 148.764 68.5044C148.339 68.7026 147.895 68.8631 147.433 68.9858C146.97 69.1086 146.503 69.1982 146.031 69.2549C145.559 69.3115 145.096 69.3398 144.643 69.3398C143.708 69.3398 142.854 69.2124 142.08 68.9575C141.306 68.7026 140.603 68.3486 139.97 67.8955C139.347 67.4329 138.8 66.8901 138.328 66.2671C137.856 65.644 137.464 64.9644 137.152 64.228C136.841 63.4917 136.605 62.7129 136.444 61.8916C136.284 61.0703 136.204 60.2396 136.204 59.3994C136.204 58.5215 136.284 57.6436 136.444 56.7656C136.605 55.8877 136.846 55.0428 137.167 54.231C137.497 53.4191 137.908 52.6686 138.398 51.9795C138.899 51.2809 139.479 50.672 140.14 50.1528C140.801 49.6336 141.547 49.2277 142.377 48.9351C143.218 48.6424 144.143 48.4961 145.153 48.4961C145.993 48.4961 146.758 48.6141 147.447 48.8501C148.145 49.0767 148.764 49.3976 149.302 49.813C149.849 50.2189 150.321 50.7051 150.718 51.2715C151.124 51.8379 151.454 52.4609 151.709 53.1406C151.973 53.8109 152.167 54.5236 152.29 55.2788C152.422 56.0246 152.488 56.7845 152.488 57.5586ZM146.824 56.8223C146.824 56.5579 146.795 56.2889 146.739 56.0151C146.682 55.7319 146.588 55.4771 146.456 55.2505C146.333 55.0239 146.168 54.8398 145.96 54.6982C145.752 54.5472 145.493 54.4717 145.181 54.4717C144.804 54.4717 144.468 54.5755 144.176 54.7832C143.893 54.9814 143.647 55.2363 143.439 55.5479C143.232 55.8499 143.062 56.1803 142.93 56.5391C142.798 56.8978 142.698 57.2282 142.632 57.5303L146.824 57.1338V56.8223ZM167.937 61.75C167.937 63.0433 167.71 64.1619 167.257 65.106C166.813 66.0405 166.2 66.8146 165.416 67.4282C164.642 68.0324 163.731 68.4808 162.683 68.7734C161.645 69.0566 160.526 69.1982 159.327 69.1982C158.865 69.1982 158.355 69.1369 157.798 69.0142C157.25 68.8914 156.693 68.7404 156.127 68.561C155.561 68.3722 155.013 68.174 154.484 67.9663C153.965 67.7492 153.503 67.5462 153.097 67.3574L153.72 61.8066C154.522 62.2881 155.41 62.6562 156.382 62.9111C157.364 63.1566 158.326 63.2793 159.271 63.2793C159.45 63.2793 159.667 63.2746 159.922 63.2651C160.177 63.2463 160.417 63.2038 160.644 63.1377C160.88 63.0622 161.078 62.9536 161.239 62.812C161.399 62.6704 161.479 62.4674 161.479 62.2031C161.479 62.0238 161.423 61.8727 161.31 61.75C161.196 61.6178 161.05 61.514 160.871 61.4385C160.691 61.3535 160.488 61.2922 160.262 61.2544C160.035 61.2072 159.813 61.1742 159.596 61.1553C159.379 61.1364 159.176 61.127 158.987 61.127C158.799 61.127 158.647 61.127 158.534 61.127C157.722 61.127 156.981 60.9995 156.311 60.7446C155.65 60.4897 155.079 60.131 154.598 59.6685C154.126 59.1965 153.757 58.63 153.493 57.9692C153.229 57.299 153.097 56.5579 153.097 55.7461C153.097 54.6322 153.319 53.6362 153.762 52.7583C154.215 51.8709 154.815 51.1204 155.561 50.5068C156.316 49.8838 157.18 49.4071 158.152 49.0767C159.124 48.7463 160.13 48.5811 161.168 48.5811C161.631 48.5811 162.107 48.5999 162.598 48.6377C163.089 48.666 163.575 48.7227 164.057 48.8076C164.548 48.8926 165.024 49.0011 165.487 49.1333C165.949 49.2655 166.388 49.4307 166.804 49.6289L166.266 55.3779C165.624 55.1608 164.949 54.9814 164.241 54.8398C163.542 54.6888 162.858 54.6133 162.188 54.6133C162.065 54.6133 161.904 54.618 161.706 54.6274C161.517 54.6274 161.314 54.6416 161.097 54.6699C160.889 54.6888 160.677 54.7218 160.46 54.769C160.243 54.8162 160.049 54.8823 159.879 54.9673C159.709 55.0428 159.573 55.1466 159.469 55.2788C159.365 55.411 159.318 55.5667 159.327 55.7461C159.337 55.9538 159.412 56.1143 159.554 56.2275C159.705 56.3408 159.894 56.4258 160.12 56.4824C160.356 56.5296 160.611 56.5532 160.885 56.5532C161.168 56.5532 161.446 56.5485 161.72 56.5391C161.994 56.5202 162.249 56.506 162.485 56.4966C162.721 56.4777 162.914 56.473 163.065 56.4824C163.821 56.5296 164.5 56.6901 165.104 56.9639C165.709 57.2376 166.218 57.6011 166.634 58.0542C167.059 58.5073 167.38 59.0501 167.597 59.6826C167.823 60.3057 167.937 60.9948 167.937 61.75ZM185.665 68.4336L178.585 68.7734L178.528 62.7979H175.271L175.073 69H168.729L169.268 49.0908L176.008 49.4023L175.583 59.5693H178.727L178.755 48.9209L185.212 49.0908L185.665 68.4336ZM209.794 65.8281C209.35 66.3851 208.803 66.8713 208.151 67.2866C207.5 67.702 206.801 68.0465 206.056 68.3203C205.31 68.5941 204.545 68.8018 203.762 68.9434C202.978 69.0755 202.232 69.1416 201.524 69.1416C200.156 69.1416 198.895 68.9103 197.744 68.4478C196.592 67.9852 195.596 67.3433 194.756 66.522C193.925 65.6912 193.274 64.7048 192.802 63.5625C192.33 62.4202 192.094 61.1742 192.094 59.8242C192.094 58.7952 192.212 57.7946 192.448 56.8223C192.684 55.8499 193.019 54.939 193.453 54.0894C193.897 53.2397 194.435 52.4609 195.067 51.7529C195.7 51.0449 196.417 50.436 197.22 49.9263C198.022 49.4165 198.9 49.0247 199.854 48.751C200.816 48.4678 201.836 48.3262 202.912 48.3262C203.318 48.3262 203.752 48.3451 204.215 48.3828C204.677 48.4111 205.135 48.4678 205.588 48.5527C206.051 48.6283 206.499 48.7368 206.934 48.8784C207.368 49.02 207.764 49.1947 208.123 49.4023L207.727 54.8115C207.198 54.6133 206.65 54.4811 206.084 54.415C205.527 54.3395 204.979 54.3018 204.441 54.3018C203.686 54.3018 202.978 54.4056 202.317 54.6133C201.666 54.8115 201.095 55.1089 200.604 55.5054C200.123 55.9019 199.74 56.3975 199.457 56.9922C199.174 57.5869 199.032 58.276 199.032 59.0596C199.032 59.5505 199.098 60.0272 199.23 60.4897C199.363 60.9429 199.561 61.3488 199.825 61.7075C200.099 62.0568 200.434 62.34 200.831 62.5571C201.236 62.7743 201.704 62.8828 202.232 62.8828C202.591 62.8828 202.959 62.8356 203.337 62.7412C203.724 62.6468 204.054 62.4863 204.328 62.2598L204.385 61.1553L200.986 61.0986L201.156 56.8506C202.563 56.8034 203.969 56.7656 205.376 56.7373C206.783 56.6995 208.199 56.6523 209.624 56.5957L209.794 65.8281ZM227.48 55.3496C227.48 56.0859 227.414 56.7562 227.282 57.3604C227.159 57.9551 226.961 58.5026 226.687 59.0029C226.413 59.5033 226.059 59.9658 225.625 60.3906C225.191 60.8154 224.667 61.2214 224.053 61.6084L227.423 67.6123L221.051 68.8584L218.871 62.8262L217.115 62.8828L216.86 68.7734H210.771C210.818 66.6211 210.861 64.4782 210.898 62.3447C210.946 60.2113 210.998 58.0684 211.054 55.916C211.073 54.8304 211.092 53.7542 211.111 52.6875C211.13 51.6208 211.167 50.5446 211.224 49.459C211.885 49.2135 212.536 49.0106 213.178 48.8501C213.82 48.6896 214.462 48.5669 215.104 48.4819C215.755 48.3875 216.411 48.3262 217.072 48.2979C217.743 48.2601 218.427 48.2412 219.125 48.2412C220.202 48.2412 221.24 48.3923 222.241 48.6943C223.251 48.987 224.143 49.4307 224.917 50.0254C225.691 50.6201 226.309 51.3612 226.772 52.2485C227.244 53.1359 227.48 54.1696 227.48 55.3496ZM221.136 55.8027C221.136 55.4062 221.08 55.0428 220.966 54.7124C220.862 54.382 220.702 54.0988 220.485 53.8628C220.277 53.6174 220.013 53.4285 219.692 53.2964C219.38 53.1548 219.012 53.084 218.587 53.084C218.399 53.084 218.215 53.0981 218.035 53.1265C217.856 53.1453 217.681 53.1784 217.511 53.2256L217.285 58.4932H217.625C218.03 58.4932 218.441 58.4412 218.856 58.3374C219.281 58.2336 219.659 58.0731 219.989 57.856C220.329 57.6388 220.603 57.3604 220.811 57.0205C221.028 56.6807 221.136 56.2747 221.136 55.8027ZM244.132 57.5586C244.132 58.3799 244.076 59.2012 243.962 60.0225C242.348 60.1263 240.743 60.2962 239.148 60.5322C237.553 60.7588 235.957 60.9854 234.362 61.2119C234.607 61.8916 234.99 62.4344 235.509 62.8403C236.037 63.2463 236.665 63.4492 237.392 63.4492C237.77 63.4492 238.18 63.3784 238.624 63.2368C239.077 63.0952 239.526 62.9206 239.969 62.7129C240.413 62.4958 240.838 62.2645 241.244 62.019C241.65 61.7736 241.999 61.5518 242.292 61.3535L241.612 67.7822C241.244 68.0654 240.842 68.3062 240.408 68.5044C239.983 68.7026 239.54 68.8631 239.077 68.9858C238.615 69.1086 238.147 69.1982 237.675 69.2549C237.203 69.3115 236.741 69.3398 236.288 69.3398C235.353 69.3398 234.499 69.2124 233.725 68.9575C232.951 68.7026 232.247 68.3486 231.615 67.8955C230.992 67.4329 230.444 66.8901 229.972 66.2671C229.5 65.644 229.108 64.9644 228.797 64.228C228.485 63.4917 228.249 62.7129 228.089 61.8916C227.928 61.0703 227.848 60.2396 227.848 59.3994C227.848 58.5215 227.928 57.6436 228.089 56.7656C228.249 55.8877 228.49 55.0428 228.811 54.231C229.141 53.4191 229.552 52.6686 230.043 51.9795C230.543 51.2809 231.124 50.672 231.785 50.1528C232.445 49.6336 233.191 49.2277 234.022 48.9351C234.862 48.6424 235.787 48.4961 236.797 48.4961C237.638 48.4961 238.402 48.6141 239.091 48.8501C239.79 49.0767 240.408 49.3976 240.946 49.813C241.494 50.2189 241.966 50.7051 242.362 51.2715C242.768 51.8379 243.099 52.4609 243.354 53.1406C243.618 53.8109 243.811 54.5236 243.934 55.2788C244.066 56.0246 244.132 56.7845 244.132 57.5586ZM238.468 56.8223C238.468 56.5579 238.44 56.2889 238.383 56.0151C238.327 55.7319 238.232 55.4771 238.1 55.2505C237.977 55.0239 237.812 54.8398 237.604 54.6982C237.397 54.5472 237.137 54.4717 236.826 54.4717C236.448 54.4717 236.113 54.5755 235.82 54.7832C235.537 54.9814 235.292 55.2363 235.084 55.5479C234.876 55.8499 234.706 56.1803 234.574 56.5391C234.442 56.8978 234.343 57.2282 234.277 57.5303L238.468 57.1338V56.8223ZM260.87 57.5586C260.87 58.3799 260.813 59.2012 260.7 60.0225C259.085 60.1263 257.481 60.2962 255.885 60.5322C254.29 60.7588 252.694 60.9854 251.099 61.2119C251.345 61.8916 251.727 62.4344 252.246 62.8403C252.775 63.2463 253.403 63.4492 254.129 63.4492C254.507 63.4492 254.918 63.3784 255.361 63.2368C255.814 63.0952 256.263 62.9206 256.707 62.7129C257.15 62.4958 257.575 62.2645 257.981 62.019C258.387 61.7736 258.736 61.5518 259.029 61.3535L258.349 67.7822C257.981 68.0654 257.58 68.3062 257.146 68.5044C256.721 68.7026 256.277 68.8631 255.814 68.9858C255.352 69.1086 254.885 69.1982 254.413 69.2549C253.941 69.3115 253.478 69.3398 253.025 69.3398C252.09 69.3398 251.236 69.2124 250.462 68.9575C249.688 68.7026 248.985 68.3486 248.352 67.8955C247.729 67.4329 247.181 66.8901 246.709 66.2671C246.237 65.644 245.846 64.9644 245.534 64.228C245.223 63.4917 244.987 62.7129 244.826 61.8916C244.666 61.0703 244.585 60.2396 244.585 59.3994C244.585 58.5215 244.666 57.6436 244.826 56.7656C244.987 55.8877 245.227 55.0428 245.548 54.231C245.879 53.4191 246.289 52.6686 246.78 51.9795C247.281 51.2809 247.861 50.672 248.522 50.1528C249.183 49.6336 249.929 49.2277 250.759 48.9351C251.599 48.6424 252.525 48.4961 253.535 48.4961C254.375 48.4961 255.139 48.6141 255.829 48.8501C256.527 49.0767 257.146 49.3976 257.684 49.813C258.231 50.2189 258.703 50.7051 259.1 51.2715C259.506 51.8379 259.836 52.4609 260.091 53.1406C260.355 53.8109 260.549 54.5236 260.671 55.2788C260.804 56.0246 260.87 56.7845 260.87 57.5586ZM255.206 56.8223C255.206 56.5579 255.177 56.2889 255.121 56.0151C255.064 55.7319 254.97 55.4771 254.837 55.2505C254.715 55.0239 254.549 54.8398 254.342 54.6982C254.134 54.5472 253.875 54.4717 253.563 54.4717C253.185 54.4717 252.85 54.5755 252.558 54.7832C252.274 54.9814 252.029 55.2363 251.821 55.5479C251.614 55.8499 251.444 56.1803 251.312 56.5391C251.179 56.8978 251.08 57.2282 251.014 57.5303L255.206 57.1338V56.8223ZM279.377 61.835C279.377 62.9017 279.363 63.959 279.334 65.0068C279.316 66.0452 279.283 67.0931 279.235 68.1504L271.079 68.0088C271.362 66.3379 271.608 64.6717 271.815 63.0103C272.023 61.3394 272.127 59.6543 272.127 57.9551C272.127 57.8324 272.122 57.6341 272.113 57.3604C272.103 57.0866 272.084 56.7798 272.056 56.4399C272.028 56.0907 271.985 55.7367 271.929 55.3779C271.882 55.0098 271.811 54.6746 271.716 54.3726C271.631 54.0705 271.523 53.825 271.391 53.6362C271.268 53.438 271.117 53.3389 270.938 53.3389C270.617 53.3389 270.343 53.4333 270.116 53.6221C269.899 53.8109 269.715 54.0563 269.564 54.3584C269.422 54.651 269.309 54.9814 269.224 55.3496C269.139 55.7178 269.073 56.0859 269.026 56.4541C268.988 56.8223 268.96 57.1715 268.941 57.502C268.931 57.8229 268.927 58.0872 268.927 58.2949C268.88 59.9658 268.842 61.6273 268.813 63.2793C268.785 64.9219 268.747 66.5833 268.7 68.2637L261.479 68.5752C261.667 65.2428 261.847 61.9294 262.017 58.6348C262.196 55.3402 262.338 52.0267 262.441 48.6943L269.125 48.3545L269.068 50.6201C269.333 50.2992 269.616 49.9971 269.918 49.7139C270.229 49.4307 270.56 49.1899 270.909 48.9917C271.258 48.784 271.627 48.6235 272.014 48.5103C272.41 48.3875 272.826 48.3262 273.26 48.3262C274.062 48.3262 274.765 48.4583 275.37 48.7227C275.974 48.987 276.493 49.3457 276.927 49.7988C277.361 50.252 277.725 50.79 278.018 51.4131C278.31 52.0267 278.546 52.6828 278.726 53.3813C278.905 54.0799 279.042 54.8115 279.136 55.5762C279.231 56.3314 279.292 57.0771 279.32 57.8135C279.358 58.5498 279.377 59.2625 279.377 59.9517C279.377 60.6408 279.377 61.2686 279.377 61.835ZM235.636 92.959C235.636 93.7425 235.49 94.4175 235.197 94.9839C234.914 95.5503 234.532 96.0317 234.05 96.4282C233.569 96.8247 233.012 97.1504 232.379 97.4053C231.756 97.6507 231.105 97.8442 230.425 97.9858C229.746 98.1274 229.061 98.2218 228.372 98.269C227.692 98.3162 227.055 98.3398 226.46 98.3398C225.875 98.3398 225.266 98.3162 224.634 98.269C224.011 98.2313 223.388 98.1605 222.765 98.0566C222.142 97.9528 221.528 97.8159 220.924 97.646C220.32 97.4666 219.749 97.2448 219.21 96.9805L219.182 78.7422C219.711 78.5251 220.272 78.3315 220.867 78.1616C221.462 77.9823 222.066 77.8359 222.68 77.7227C223.303 77.5999 223.921 77.5103 224.535 77.4536C225.148 77.3875 225.743 77.3545 226.319 77.3545C226.989 77.3545 227.664 77.397 228.344 77.4819C229.033 77.5669 229.694 77.7085 230.326 77.9067C230.959 78.105 231.549 78.3646 232.096 78.6855C232.644 78.9971 233.12 79.3841 233.526 79.8467C233.942 80.3092 234.263 80.8473 234.489 81.4609C234.725 82.0745 234.843 82.7826 234.843 83.585C234.843 84.1136 234.768 84.6092 234.617 85.0718C234.466 85.5343 234.249 85.9497 233.965 86.3179C233.682 86.686 233.338 87.0023 232.932 87.2666C232.526 87.5215 232.068 87.7103 231.558 87.833C232.172 87.9935 232.729 88.2295 233.229 88.541C233.739 88.8525 234.168 89.2301 234.518 89.6738C234.876 90.1175 235.15 90.6178 235.339 91.1748C235.537 91.7318 235.636 92.3265 235.636 92.959ZM228.443 84.8877C228.443 84.6139 228.386 84.3826 228.273 84.1938C228.16 83.9956 228.018 83.8351 227.848 83.7124C227.688 83.5897 227.508 83.5 227.31 83.4434C227.121 83.3867 226.951 83.3584 226.8 83.3584C226.611 83.3584 226.427 83.3867 226.248 83.4434C226.069 83.5 225.894 83.5661 225.724 83.6416L225.639 86.7852C225.856 86.7852 226.125 86.7663 226.446 86.7285C226.767 86.6908 227.074 86.6105 227.367 86.4878C227.669 86.3556 227.924 86.1668 228.131 85.9214C228.339 85.6665 228.443 85.3219 228.443 84.8877ZM226.432 89.5039C226.158 89.5039 225.894 89.5322 225.639 89.5889L225.583 92.8174C225.724 92.8457 225.861 92.874 225.993 92.9023C226.135 92.9212 226.272 92.9307 226.404 92.9307C226.602 92.9307 226.819 92.9118 227.055 92.874C227.291 92.8268 227.513 92.7419 227.721 92.6191C227.928 92.487 228.098 92.3123 228.23 92.0952C228.372 91.8781 228.443 91.5902 228.443 91.2314C228.443 90.8727 228.372 90.5801 228.23 90.3535C228.098 90.127 227.933 89.9523 227.735 89.8296C227.537 89.6974 227.319 89.6125 227.083 89.5747C226.847 89.5275 226.63 89.5039 226.432 89.5039ZM254.257 96.7822L247.233 97.6885L246.384 94.4883H243.155L242.447 97.6885L235.226 96.9805L240.861 78.1191L248.734 77.7227L254.257 96.7822ZM245.874 90.1553L244.798 85.2275L243.75 90.1553H245.874ZM266.973 90.4951L266.378 96.7822L254.455 97.7168L254.908 77.4961H262.271L261.224 90.4951H266.973ZM280.057 90.4951L279.462 96.7822L267.539 97.7168L267.992 77.4961H275.355L274.308 90.4951H280.057Z" fill="black"/>
<defs>
<filter id="filter0_d_3995_110" x="30.9" y="49.9" width="176.1" height="170.2" filterUnits="userSpaceOnUse" color-interpolation-filters="sRGB">
<feFlood flood-opacity="0" result="BackgroundImageFix"/>
<feColorMatrix in="SourceAlpha" type="matrix" values="0 0 0 0 0 0 0 0 0 0 0 0 0 0 0 0 0 0 127 0" result="hardAlpha"/>
<feOffset dx="-19" dy="11"/>
<feGaussianBlur stdDeviation="6.55"/>
<feComposite in2="hardAlpha" operator="out"/>
<feColorMatrix type="matrix" values="0 0 0 0 0 0 0 0 0 0 0 0 0 0 0 0 0 0 0.28 0"/>
<feBlend mode="normal" in2="BackgroundImageFix" result="effect1_dropShadow_3995_110"/>
<feBlend mode="normal" in="SourceGraphic" in2="effect1_dropShadow_3995_110" result="shape"/>
</filter>
</defs>
</svg>
