<svg width="313" height="226" viewBox="0 0 313 226" fill="none" xmlns="http://www.w3.org/2000/svg">
<path d="M9.65516 34.47C4.9679 17.7359 18.362 1.4426 35.6867 2.8037L286.675 22.5225C300.975 23.646 311.4 36.5457 309.496 50.7628L288.94 204.317C287.278 216.731 276.686 226 264.161 226H82.263C71.0528 226 61.2132 218.538 58.1895 207.743L9.65516 34.47Z" fill="white"/>
<g filter="url(#filter0_d_3995_118)">
<circle cx="135" cy="124" r="72" fill="#FB2F98"/>
</g>
<path d="M144.615 48.6943L143.595 67.8955L136.175 68.5752L132.21 58.2949L131.587 68.7734H125.215L125.725 48.6943L132.805 48.3545L137.705 58.5498L137.931 48.9209L144.615 48.6943ZM146.031 61.1836L145.974 56.9355L155.122 56.5107L155.178 61.3535L146.031 61.1836ZM173.36 63.959C173.36 64.7425 173.214 65.4175 172.921 65.9839C172.638 66.5503 172.255 67.0317 171.774 67.4282C171.292 67.8247 170.736 68.1504 170.103 68.4053C169.48 68.6507 168.829 68.8442 168.149 68.9858C167.469 69.1274 166.785 69.2218 166.096 69.269C165.416 69.3162 164.779 69.3398 164.184 69.3398C163.599 69.3398 162.99 69.3162 162.357 69.269C161.734 69.2313 161.111 69.1605 160.488 69.0566C159.865 68.9528 159.252 68.8159 158.647 68.646C158.043 68.4666 157.472 68.2448 156.934 67.9805L156.906 49.7422C157.434 49.5251 157.996 49.3315 158.591 49.1616C159.186 48.9823 159.79 48.8359 160.403 48.7227C161.026 48.5999 161.645 48.5103 162.258 48.4536C162.872 48.3875 163.467 48.3545 164.042 48.3545C164.713 48.3545 165.388 48.397 166.067 48.4819C166.757 48.5669 167.417 48.7085 168.05 48.9067C168.682 49.105 169.272 49.3646 169.82 49.6855C170.367 49.9971 170.844 50.3841 171.25 50.8467C171.665 51.3092 171.986 51.8473 172.213 52.4609C172.449 53.0745 172.567 53.7826 172.567 54.585C172.567 55.1136 172.491 55.6092 172.34 56.0718C172.189 56.5343 171.972 56.9497 171.689 57.3179C171.406 57.686 171.061 58.0023 170.655 58.2666C170.249 58.5215 169.792 58.7103 169.282 58.833C169.895 58.9935 170.452 59.2295 170.953 59.541C171.462 59.8525 171.892 60.2301 172.241 60.6738C172.6 61.1175 172.874 61.6178 173.062 62.1748C173.261 62.7318 173.36 63.3265 173.36 63.959ZM166.167 55.8877C166.167 55.6139 166.11 55.3826 165.997 55.1938C165.883 54.9956 165.742 54.8351 165.572 54.7124C165.411 54.5897 165.232 54.5 165.034 54.4434C164.845 54.3867 164.675 54.3584 164.524 54.3584C164.335 54.3584 164.151 54.3867 163.972 54.4434C163.792 54.5 163.618 54.5661 163.448 54.6416L163.363 57.7852C163.58 57.7852 163.849 57.7663 164.17 57.7285C164.491 57.6908 164.798 57.6105 165.09 57.4878C165.392 57.3556 165.647 57.1668 165.855 56.9214C166.063 56.6665 166.167 56.3219 166.167 55.8877ZM164.156 60.5039C163.882 60.5039 163.618 60.5322 163.363 60.5889L163.306 63.8174C163.448 63.8457 163.585 63.874 163.717 63.9023C163.858 63.9212 163.995 63.9307 164.127 63.9307C164.326 63.9307 164.543 63.9118 164.779 63.874C165.015 63.8268 165.237 63.7419 165.444 63.6191C165.652 63.487 165.822 63.3123 165.954 63.0952C166.096 62.8781 166.167 62.5902 166.167 62.2314C166.167 61.8727 166.096 61.5801 165.954 61.3535C165.822 61.127 165.657 60.9523 165.458 60.8296C165.26 60.6974 165.043 60.6125 164.807 60.5747C164.571 60.5275 164.354 60.5039 164.156 60.5039ZM186.543 61.4951L185.948 67.7822L174.025 68.7168L174.479 48.4961H181.842L180.794 61.4951H186.543ZM204.71 58.1533C204.71 59.0124 204.611 59.8431 204.413 60.6455C204.215 61.4385 203.927 62.1842 203.549 62.8828C203.181 63.5814 202.728 64.2233 202.19 64.8086C201.661 65.3844 201.062 65.88 200.392 66.2954C199.731 66.7108 199.009 67.0365 198.225 67.2725C197.442 67.499 196.611 67.6123 195.733 67.6123C194.883 67.6123 194.071 67.5037 193.297 67.2866C192.533 67.0695 191.815 66.7674 191.145 66.3804C190.475 65.9839 189.866 65.5119 189.318 64.9644C188.78 64.4074 188.318 63.7938 187.931 63.1235C187.553 62.4438 187.256 61.717 187.039 60.9429C186.831 60.1688 186.727 59.3617 186.727 58.5215C186.727 57.7002 186.826 56.8978 187.024 56.1143C187.223 55.3213 187.506 54.5755 187.874 53.877C188.252 53.1784 188.705 52.5365 189.233 51.9512C189.762 51.3659 190.352 50.8608 191.003 50.436C191.664 50.0112 192.377 49.6808 193.142 49.4448C193.906 49.2088 194.713 49.0908 195.563 49.0908C196.932 49.0908 198.178 49.3032 199.301 49.728C200.434 50.1528 201.397 50.7617 202.19 51.5547C202.992 52.3382 203.611 53.2917 204.045 54.415C204.489 55.529 204.71 56.7751 204.71 58.1533ZM198.423 58.5215C198.423 58.1156 198.362 57.7238 198.239 57.3462C198.126 56.9591 197.956 56.6193 197.729 56.3267C197.503 56.0246 197.22 55.7839 196.88 55.6045C196.549 55.4157 196.167 55.3213 195.733 55.3213C195.289 55.3213 194.893 55.4015 194.543 55.562C194.194 55.7225 193.892 55.9443 193.637 56.2275C193.392 56.5013 193.203 56.827 193.071 57.2046C192.939 57.5728 192.873 57.9645 192.873 58.3799C192.873 58.7764 192.929 59.1729 193.042 59.5693C193.156 59.9658 193.326 60.3245 193.552 60.6455C193.779 60.9665 194.057 61.2261 194.388 61.4243C194.728 61.6226 195.119 61.7217 195.563 61.7217C196.007 61.7217 196.403 61.6367 196.752 61.4668C197.111 61.2874 197.413 61.0514 197.659 60.7588C197.904 60.4567 198.093 60.1121 198.225 59.7251C198.357 59.3381 198.423 58.9368 198.423 58.5215ZM220.216 61.75C220.216 63.0433 219.989 64.1619 219.536 65.106C219.092 66.0405 218.479 66.8146 217.695 67.4282C216.921 68.0324 216.01 68.4808 214.962 68.7734C213.924 69.0566 212.805 69.1982 211.606 69.1982C211.144 69.1982 210.634 69.1369 210.077 69.0142C209.53 68.8914 208.973 68.7404 208.406 68.561C207.84 68.3722 207.292 68.174 206.764 67.9663C206.244 67.7492 205.782 67.5462 205.376 67.3574L205.999 61.8066C206.801 62.2881 207.689 62.6562 208.661 62.9111C209.643 63.1566 210.606 63.2793 211.55 63.2793C211.729 63.2793 211.946 63.2746 212.201 63.2651C212.456 63.2463 212.697 63.2038 212.923 63.1377C213.159 63.0622 213.358 62.9536 213.518 62.812C213.679 62.6704 213.759 62.4674 213.759 62.2031C213.759 62.0238 213.702 61.8727 213.589 61.75C213.476 61.6178 213.329 61.514 213.15 61.4385C212.971 61.3535 212.768 61.2922 212.541 61.2544C212.314 61.2072 212.093 61.1742 211.875 61.1553C211.658 61.1364 211.455 61.127 211.267 61.127C211.078 61.127 210.927 61.127 210.813 61.127C210.002 61.127 209.261 60.9995 208.59 60.7446C207.93 60.4897 207.358 60.131 206.877 59.6685C206.405 59.1965 206.037 58.63 205.772 57.9692C205.508 57.299 205.376 56.5579 205.376 55.7461C205.376 54.6322 205.598 53.6362 206.042 52.7583C206.495 51.8709 207.094 51.1204 207.84 50.5068C208.595 49.8838 209.459 49.4071 210.431 49.0767C211.403 48.7463 212.409 48.5811 213.447 48.5811C213.91 48.5811 214.387 48.5999 214.877 48.6377C215.368 48.666 215.854 48.7227 216.336 48.8076C216.827 48.8926 217.304 49.0011 217.766 49.1333C218.229 49.2655 218.668 49.4307 219.083 49.6289L218.545 55.3779C217.903 55.1608 217.228 54.9814 216.52 54.8398C215.821 54.6888 215.137 54.6133 214.467 54.6133C214.344 54.6133 214.184 54.618 213.985 54.6274C213.797 54.6274 213.594 54.6416 213.376 54.6699C213.169 54.6888 212.956 54.7218 212.739 54.769C212.522 54.8162 212.329 54.8823 212.159 54.9673C211.989 55.0428 211.852 55.1466 211.748 55.2788C211.644 55.411 211.597 55.5667 211.606 55.7461C211.616 55.9538 211.691 56.1143 211.833 56.2275C211.984 56.3408 212.173 56.4258 212.399 56.4824C212.635 56.5296 212.89 56.5532 213.164 56.5532C213.447 56.5532 213.726 56.5485 214 56.5391C214.273 56.5202 214.528 56.506 214.764 56.4966C215 56.4777 215.194 56.473 215.345 56.4824C216.1 56.5296 216.78 56.6901 217.384 56.9639C217.988 57.2376 218.498 57.6011 218.913 58.0542C219.338 58.5073 219.659 59.0501 219.876 59.6826C220.103 60.3057 220.216 60.9948 220.216 61.75ZM235.509 61.75C235.509 63.0433 235.282 64.1619 234.829 65.106C234.385 66.0405 233.772 66.8146 232.988 67.4282C232.214 68.0324 231.303 68.4808 230.255 68.7734C229.217 69.0566 228.098 69.1982 226.899 69.1982C226.437 69.1982 225.927 69.1369 225.37 69.0142C224.823 68.8914 224.266 68.7404 223.699 68.561C223.133 68.3722 222.585 68.174 222.057 67.9663C221.537 67.7492 221.075 67.5462 220.669 67.3574L221.292 61.8066C222.094 62.2881 222.982 62.6562 223.954 62.9111C224.936 63.1566 225.899 63.2793 226.843 63.2793C227.022 63.2793 227.239 63.2746 227.494 63.2651C227.749 63.2463 227.99 63.2038 228.216 63.1377C228.452 63.0622 228.651 62.9536 228.811 62.812C228.972 62.6704 229.052 62.4674 229.052 62.2031C229.052 62.0238 228.995 61.8727 228.882 61.75C228.769 61.6178 228.622 61.514 228.443 61.4385C228.264 61.3535 228.061 61.2922 227.834 61.2544C227.607 61.2072 227.386 61.1742 227.168 61.1553C226.951 61.1364 226.748 61.127 226.56 61.127C226.371 61.127 226.22 61.127 226.106 61.127C225.295 61.127 224.554 60.9995 223.883 60.7446C223.222 60.4897 222.651 60.131 222.17 59.6685C221.698 59.1965 221.33 58.63 221.065 57.9692C220.801 57.299 220.669 56.5579 220.669 55.7461C220.669 54.6322 220.891 53.6362 221.334 52.7583C221.788 51.8709 222.387 51.1204 223.133 50.5068C223.888 49.8838 224.752 49.4071 225.724 49.0767C226.696 48.7463 227.702 48.5811 228.74 48.5811C229.203 48.5811 229.68 48.5999 230.17 48.6377C230.661 48.666 231.147 48.7227 231.629 48.8076C232.12 48.8926 232.597 49.0011 233.059 49.1333C233.522 49.2655 233.961 49.4307 234.376 49.6289L233.838 55.3779C233.196 55.1608 232.521 54.9814 231.813 54.8398C231.114 54.6888 230.43 54.6133 229.76 54.6133C229.637 54.6133 229.477 54.618 229.278 54.6274C229.09 54.6274 228.887 54.6416 228.669 54.6699C228.462 54.6888 228.249 54.7218 228.032 54.769C227.815 54.8162 227.622 54.8823 227.452 54.9673C227.282 55.0428 227.145 55.1466 227.041 55.2788C226.937 55.411 226.89 55.5667 226.899 55.7461C226.909 55.9538 226.984 56.1143 227.126 56.2275C227.277 56.3408 227.466 56.4258 227.692 56.4824C227.928 56.5296 228.183 56.5532 228.457 56.5532C228.74 56.5532 229.019 56.5485 229.292 56.5391C229.566 56.5202 229.821 56.506 230.057 56.4966C230.293 56.4777 230.487 56.473 230.638 56.4824C231.393 56.5296 232.073 56.6901 232.677 56.9639C233.281 57.2376 233.791 57.6011 234.206 58.0542C234.631 58.5073 234.952 59.0501 235.169 59.6826C235.396 60.3057 235.509 60.9948 235.509 61.75ZM253.931 58.1533C253.931 59.0124 253.832 59.8431 253.634 60.6455C253.436 61.4385 253.148 62.1842 252.77 62.8828C252.402 63.5814 251.949 64.2233 251.411 64.8086C250.882 65.3844 250.283 65.88 249.612 66.2954C248.951 66.7108 248.229 67.0365 247.446 67.2725C246.662 67.499 245.832 67.6123 244.954 67.6123C244.104 67.6123 243.292 67.5037 242.518 67.2866C241.753 67.0695 241.036 66.7674 240.366 66.3804C239.695 65.9839 239.087 65.5119 238.539 64.9644C238.001 64.4074 237.538 63.7938 237.151 63.1235C236.774 62.4438 236.476 61.717 236.259 60.9429C236.052 60.1688 235.948 59.3617 235.948 58.5215C235.948 57.7002 236.047 56.8978 236.245 56.1143C236.443 55.3213 236.727 54.5755 237.095 53.877C237.472 53.1784 237.925 52.5365 238.454 51.9512C238.983 51.3659 239.573 50.8608 240.224 50.436C240.885 50.0112 241.598 49.6808 242.362 49.4448C243.127 49.2088 243.934 49.0908 244.784 49.0908C246.153 49.0908 247.399 49.3032 248.522 49.728C249.655 50.1528 250.618 50.7617 251.411 51.5547C252.213 52.3382 252.831 53.2917 253.266 54.415C253.709 55.529 253.931 56.7751 253.931 58.1533ZM247.644 58.5215C247.644 58.1156 247.583 57.7238 247.46 57.3462C247.347 56.9591 247.177 56.6193 246.95 56.3267C246.724 56.0246 246.44 55.7839 246.101 55.6045C245.77 55.4157 245.388 55.3213 244.954 55.3213C244.51 55.3213 244.113 55.4015 243.764 55.562C243.415 55.7225 243.113 55.9443 242.858 56.2275C242.612 56.5013 242.424 56.827 242.292 57.2046C242.159 57.5728 242.093 57.9645 242.093 58.3799C242.093 58.7764 242.15 59.1729 242.263 59.5693C242.376 59.9658 242.546 60.3245 242.773 60.6455C243 60.9665 243.278 61.2261 243.608 61.4243C243.948 61.6226 244.34 61.7217 244.784 61.7217C245.227 61.7217 245.624 61.6367 245.973 61.4668C246.332 61.2874 246.634 61.0514 246.879 60.7588C247.125 60.4567 247.314 60.1121 247.446 59.7251C247.578 59.3381 247.644 58.9368 247.644 58.5215ZM279.419 59.3994C279.419 60.7493 279.377 62.0946 279.292 63.4351C279.207 64.7756 279.108 66.1208 278.995 67.4707L271.716 67.8105C271.933 66.168 272.127 64.5254 272.297 62.8828C272.476 61.2308 272.566 59.5788 272.566 57.9268C272.566 57.8229 272.561 57.6436 272.552 57.3887C272.542 57.1243 272.523 56.827 272.495 56.4966C272.476 56.1662 272.443 55.8263 272.396 55.4771C272.358 55.1183 272.302 54.7926 272.226 54.5C272.16 54.1979 272.075 53.9525 271.971 53.7637C271.867 53.5749 271.745 53.4805 271.603 53.4805C271.273 53.4805 271.013 53.6079 270.824 53.8628C270.635 54.1082 270.494 54.4056 270.399 54.7549C270.314 55.1042 270.263 55.4629 270.244 55.8311C270.225 56.1898 270.215 56.4824 270.215 56.709C270.215 57.1055 270.225 57.502 270.244 57.8984C270.263 58.2949 270.272 58.7008 270.272 59.1162C270.272 60.5794 270.234 62.0379 270.159 63.4917C270.093 64.9455 270.008 66.404 269.904 67.8672L263.192 68.1221C263.409 66.4795 263.598 64.8416 263.758 63.2085C263.928 61.5659 264.013 59.9186 264.013 58.2666C264.013 58.1628 264.008 57.974 263.999 57.7002C263.99 57.4264 263.971 57.1196 263.942 56.7798C263.924 56.4399 263.89 56.0859 263.843 55.7178C263.796 55.3496 263.735 55.0145 263.659 54.7124C263.593 54.4009 263.508 54.146 263.404 53.9478C263.3 53.7495 263.173 53.6504 263.022 53.6504C262.786 53.6504 262.588 53.7448 262.427 53.9336C262.267 54.113 262.135 54.349 262.031 54.6416C261.936 54.9342 261.861 55.2599 261.804 55.6187C261.757 55.9679 261.719 56.3125 261.691 56.6523C261.672 56.9922 261.658 57.3084 261.648 57.6011C261.648 57.8843 261.644 58.0967 261.634 58.2383L261.323 68.5752H254.186C254.337 66.9798 254.488 65.3797 254.639 63.7749C254.8 62.1701 254.937 60.57 255.05 58.9746C255.173 57.3698 255.272 55.765 255.347 54.1602C255.423 52.5553 255.46 50.9505 255.46 49.3457L262.201 49.0625L262.172 50.7051C262.38 50.4408 262.616 50.1764 262.88 49.9121C263.145 49.6383 263.423 49.3976 263.716 49.1899C264.018 48.9728 264.334 48.7982 264.665 48.666C265.004 48.5339 265.354 48.4678 265.712 48.4678C266.175 48.4678 266.59 48.5055 266.958 48.5811C267.327 48.6471 267.657 48.7651 267.95 48.9351C268.252 49.105 268.516 49.341 268.743 49.6431C268.969 49.9357 269.167 50.3086 269.337 50.7617C269.639 50.4313 269.942 50.1245 270.244 49.8413C270.555 49.5581 270.881 49.3174 271.221 49.1191C271.561 48.9115 271.929 48.751 272.325 48.6377C272.722 48.5244 273.161 48.4678 273.642 48.4678C274.558 48.4678 275.337 48.6471 275.979 49.0059C276.62 49.3551 277.154 49.8224 277.579 50.4077C278.013 50.993 278.348 51.6632 278.584 52.4185C278.829 53.1737 279.014 53.9572 279.136 54.769C279.259 55.5809 279.334 56.388 279.363 57.1904C279.401 57.9928 279.419 58.7292 279.419 59.3994ZM235.636 92.959C235.636 93.7425 235.49 94.4175 235.197 94.9839C234.914 95.5503 234.532 96.0317 234.05 96.4282C233.569 96.8247 233.012 97.1504 232.379 97.4053C231.756 97.6507 231.105 97.8442 230.425 97.9858C229.746 98.1274 229.061 98.2218 228.372 98.269C227.692 98.3162 227.055 98.3398 226.46 98.3398C225.875 98.3398 225.266 98.3162 224.634 98.269C224.011 98.2313 223.388 98.1605 222.765 98.0566C222.142 97.9528 221.528 97.8159 220.924 97.646C220.32 97.4666 219.749 97.2448 219.21 96.9805L219.182 78.7422C219.711 78.5251 220.272 78.3315 220.867 78.1616C221.462 77.9823 222.066 77.8359 222.68 77.7227C223.303 77.5999 223.921 77.5103 224.535 77.4536C225.148 77.3875 225.743 77.3545 226.319 77.3545C226.989 77.3545 227.664 77.397 228.344 77.4819C229.033 77.5669 229.694 77.7085 230.326 77.9067C230.959 78.105 231.549 78.3646 232.096 78.6855C232.644 78.9971 233.12 79.3841 233.526 79.8467C233.942 80.3092 234.263 80.8473 234.489 81.4609C234.725 82.0745 234.843 82.7826 234.843 83.585C234.843 84.1136 234.768 84.6092 234.617 85.0718C234.466 85.5343 234.249 85.9497 233.965 86.3179C233.682 86.686 233.338 87.0023 232.932 87.2666C232.526 87.5215 232.068 87.7103 231.558 87.833C232.172 87.9935 232.729 88.2295 233.229 88.541C233.739 88.8525 234.168 89.2301 234.518 89.6738C234.876 90.1175 235.15 90.6178 235.339 91.1748C235.537 91.7318 235.636 92.3265 235.636 92.959ZM228.443 84.8877C228.443 84.6139 228.386 84.3826 228.273 84.1938C228.16 83.9956 228.018 83.8351 227.848 83.7124C227.688 83.5897 227.508 83.5 227.31 83.4434C227.121 83.3867 226.951 83.3584 226.8 83.3584C226.611 83.3584 226.427 83.3867 226.248 83.4434C226.069 83.5 225.894 83.5661 225.724 83.6416L225.639 86.7852C225.856 86.7852 226.125 86.7663 226.446 86.7285C226.767 86.6908 227.074 86.6105 227.367 86.4878C227.669 86.3556 227.924 86.1668 228.131 85.9214C228.339 85.6665 228.443 85.3219 228.443 84.8877ZM226.432 89.5039C226.158 89.5039 225.894 89.5322 225.639 89.5889L225.583 92.8174C225.724 92.8457 225.861 92.874 225.993 92.9023C226.135 92.9212 226.272 92.9307 226.404 92.9307C226.602 92.9307 226.819 92.9118 227.055 92.874C227.291 92.8268 227.513 92.7419 227.721 92.6191C227.928 92.487 228.098 92.3123 228.23 92.0952C228.372 91.8781 228.443 91.5902 228.443 91.2314C228.443 90.8727 228.372 90.5801 228.23 90.3535C228.098 90.127 227.933 89.9523 227.735 89.8296C227.537 89.6974 227.319 89.6125 227.083 89.5747C226.847 89.5275 226.63 89.5039 226.432 89.5039ZM254.257 96.7822L247.233 97.6885L246.384 94.4883H243.155L242.447 97.6885L235.226 96.9805L240.861 78.1191L248.734 77.7227L254.257 96.7822ZM245.874 90.1553L244.798 85.2275L243.75 90.1553H245.874ZM266.973 90.4951L266.378 96.7822L254.455 97.7168L254.908 77.4961H262.271L261.224 90.4951H266.973ZM280.057 90.4951L279.462 96.7822L267.539 97.7168L267.992 77.4961H275.355L274.308 90.4951H280.057Z" fill="black"/>
<defs>
<filter id="filter0_d_3995_118" x="30.9" y="49.9" width="176.1" height="170.2" filterUnits="userSpaceOnUse" color-interpolation-filters="sRGB">
<feFlood flood-opacity="0" result="BackgroundImageFix"/>
<feColorMatrix in="SourceAlpha" type="matrix" values="0 0 0 0 0 0 0 0 0 0 0 0 0 0 0 0 0 0 127 0" result="hardAlpha"/>
<feOffset dx="-19" dy="11"/>
<feGaussianBlur stdDeviation="6.55"/>
<feComposite in2="hardAlpha" operator="out"/>
<feColorMatrix type="matrix" values="0 0 0 0 0 0 0 0 0 0 0 0 0 0 0 0 0 0 0.28 0"/>
<feBlend mode="normal" in2="BackgroundImageFix" result="effect1_dropShadow_3995_118"/>
<feBlend mode="normal" in="SourceGraphic" in2="effect1_dropShadow_3995_118" result="shape"/>
</filter>
</defs>
</svg>
