<svg width="313" height="226" viewBox="0 0 313 226" fill="none" xmlns="http://www.w3.org/2000/svg">
<path d="M9.65516 34.47C4.9679 17.7359 18.362 1.4426 35.6867 2.8037L286.675 22.5225C300.975 23.646 311.4 36.5457 309.496 50.7628L288.94 204.317C287.278 216.731 276.686 226 264.161 226H82.263C71.0528 226 61.2132 218.538 58.1895 207.743L9.65516 34.47Z" fill="white"/>
<g filter="url(#filter0_d_3995_127)">
<circle cx="135" cy="124" r="72" fill="#7F00FF"/>
</g>
<path d="M196.427 49.1475L191.244 68.292L184.221 68.6885L177.849 50.1953L184.561 49.5723L187.279 60.334L189.913 48.7227L196.427 49.1475ZM204.257 49.0625L203.266 68.3486L197.291 68.6602L196.724 49.459L204.257 49.0625ZM222.779 58.1533C222.779 59.0124 222.68 59.8431 222.481 60.6455C222.283 61.4385 221.995 62.1842 221.618 62.8828C221.25 63.5814 220.796 64.2233 220.258 64.8086C219.73 65.3844 219.13 65.88 218.46 66.2954C217.799 66.7108 217.077 67.0365 216.293 67.2725C215.51 67.499 214.679 67.6123 213.801 67.6123C212.952 67.6123 212.14 67.5037 211.366 67.2866C210.601 67.0695 209.884 66.7674 209.213 66.3804C208.543 65.9839 207.934 65.5119 207.387 64.9644C206.849 64.4074 206.386 63.7938 205.999 63.1235C205.621 62.4438 205.324 61.717 205.107 60.9429C204.899 60.1688 204.795 59.3617 204.795 58.5215C204.795 57.7002 204.895 56.8978 205.093 56.1143C205.291 55.3213 205.574 54.5755 205.942 53.877C206.32 53.1784 206.773 52.5365 207.302 51.9512C207.83 51.3659 208.42 50.8608 209.072 50.436C209.733 50.0112 210.445 49.6808 211.21 49.4448C211.975 49.2088 212.782 49.0908 213.631 49.0908C215 49.0908 216.246 49.3032 217.37 49.728C218.502 50.1528 219.465 50.7617 220.258 51.5547C221.061 52.3382 221.679 53.2917 222.113 54.415C222.557 55.529 222.779 56.7751 222.779 58.1533ZM216.492 58.5215C216.492 58.1156 216.43 57.7238 216.308 57.3462C216.194 56.9591 216.024 56.6193 215.798 56.3267C215.571 56.0246 215.288 55.7839 214.948 55.6045C214.618 55.4157 214.236 55.3213 213.801 55.3213C213.358 55.3213 212.961 55.4015 212.612 55.562C212.263 55.7225 211.96 55.9443 211.706 56.2275C211.46 56.5013 211.271 56.827 211.139 57.2046C211.007 57.5728 210.941 57.9645 210.941 58.3799C210.941 58.7764 210.998 59.1729 211.111 59.5693C211.224 59.9658 211.394 60.3245 211.621 60.6455C211.847 60.9665 212.126 61.2261 212.456 61.4243C212.796 61.6226 213.188 61.7217 213.631 61.7217C214.075 61.7217 214.472 61.6367 214.821 61.4668C215.18 61.2874 215.482 61.0514 215.727 60.7588C215.972 60.4567 216.161 60.1121 216.293 59.7251C216.426 59.3381 216.492 58.9368 216.492 58.5215ZM236.188 61.4951L235.594 67.7822L223.671 68.7168L224.124 48.4961H231.487L230.439 61.4951H236.188ZM252.657 57.5586C252.657 58.3799 252.6 59.2012 252.487 60.0225C250.873 60.1263 249.268 60.2962 247.672 60.5322C246.077 60.7588 244.482 60.9854 242.886 61.2119C243.132 61.8916 243.514 62.4344 244.033 62.8403C244.562 63.2463 245.19 63.4492 245.917 63.4492C246.294 63.4492 246.705 63.3784 247.148 63.2368C247.602 63.0952 248.05 62.9206 248.494 62.7129C248.937 62.4958 249.362 62.2645 249.768 62.019C250.174 61.7736 250.523 61.5518 250.816 61.3535L250.136 67.7822C249.768 68.0654 249.367 68.3062 248.933 68.5044C248.508 68.7026 248.064 68.8631 247.602 68.9858C247.139 69.1086 246.672 69.1982 246.2 69.2549C245.728 69.3115 245.265 69.3398 244.812 69.3398C243.877 69.3398 243.023 69.2124 242.249 68.9575C241.475 68.7026 240.772 68.3486 240.139 67.8955C239.516 67.4329 238.969 66.8901 238.497 66.2671C238.025 65.644 237.633 64.9644 237.321 64.228C237.01 63.4917 236.774 62.7129 236.613 61.8916C236.453 61.0703 236.373 60.2396 236.373 59.3994C236.373 58.5215 236.453 57.6436 236.613 56.7656C236.774 55.8877 237.014 55.0428 237.335 54.231C237.666 53.4191 238.076 52.6686 238.567 51.9795C239.068 51.2809 239.648 50.672 240.309 50.1528C240.97 49.6336 241.716 49.2277 242.546 48.9351C243.387 48.6424 244.312 48.4961 245.322 48.4961C246.162 48.4961 246.927 48.6141 247.616 48.8501C248.314 49.0767 248.933 49.3976 249.471 49.813C250.018 50.2189 250.49 50.7051 250.887 51.2715C251.293 51.8379 251.623 52.4609 251.878 53.1406C252.142 53.8109 252.336 54.5236 252.458 55.2788C252.591 56.0246 252.657 56.7845 252.657 57.5586ZM246.993 56.8223C246.993 56.5579 246.964 56.2889 246.908 56.0151C246.851 55.7319 246.757 55.4771 246.625 55.2505C246.502 55.0239 246.337 54.8398 246.129 54.6982C245.921 54.5472 245.662 54.4717 245.35 54.4717C244.972 54.4717 244.637 54.5755 244.345 54.7832C244.062 54.9814 243.816 55.2363 243.608 55.5479C243.401 55.8499 243.231 56.1803 243.099 56.5391C242.966 56.8978 242.867 57.2282 242.801 57.5303L246.993 57.1338V56.8223ZM268.587 49.0342L268.445 55.0381L264.226 55.208L263.716 68.3486L257.74 68.6602L257.202 55.5195L252.982 55.7461L253.152 49.0625L268.587 49.0342ZM235.636 92.959C235.636 93.7425 235.49 94.4175 235.197 94.9839C234.914 95.5503 234.532 96.0317 234.05 96.4282C233.569 96.8247 233.012 97.1504 232.379 97.4053C231.756 97.6507 231.105 97.8442 230.425 97.9858C229.746 98.1274 229.061 98.2218 228.372 98.269C227.692 98.3162 227.055 98.3398 226.46 98.3398C225.875 98.3398 225.266 98.3162 224.634 98.269C224.011 98.2313 223.388 98.1605 222.765 98.0566C222.142 97.9528 221.528 97.8159 220.924 97.646C220.32 97.4666 219.749 97.2448 219.21 96.9805L219.182 78.7422C219.711 78.5251 220.272 78.3315 220.867 78.1616C221.462 77.9823 222.066 77.8359 222.68 77.7227C223.303 77.5999 223.921 77.5103 224.535 77.4536C225.148 77.3875 225.743 77.3545 226.319 77.3545C226.989 77.3545 227.664 77.397 228.344 77.4819C229.033 77.5669 229.694 77.7085 230.326 77.9067C230.959 78.105 231.549 78.3646 232.096 78.6855C232.644 78.9971 233.12 79.3841 233.526 79.8467C233.942 80.3092 234.263 80.8473 234.489 81.4609C234.725 82.0745 234.843 82.7826 234.843 83.585C234.843 84.1136 234.768 84.6092 234.617 85.0718C234.466 85.5343 234.249 85.9497 233.965 86.3179C233.682 86.686 233.338 87.0023 232.932 87.2666C232.526 87.5215 232.068 87.7103 231.558 87.833C232.172 87.9935 232.729 88.2295 233.229 88.541C233.739 88.8525 234.168 89.2301 234.518 89.6738C234.876 90.1175 235.15 90.6178 235.339 91.1748C235.537 91.7318 235.636 92.3265 235.636 92.959ZM228.443 84.8877C228.443 84.6139 228.386 84.3826 228.273 84.1938C228.16 83.9956 228.018 83.8351 227.848 83.7124C227.688 83.5897 227.508 83.5 227.31 83.4434C227.121 83.3867 226.951 83.3584 226.8 83.3584C226.611 83.3584 226.427 83.3867 226.248 83.4434C226.069 83.5 225.894 83.5661 225.724 83.6416L225.639 86.7852C225.856 86.7852 226.125 86.7663 226.446 86.7285C226.767 86.6908 227.074 86.6105 227.367 86.4878C227.669 86.3556 227.924 86.1668 228.131 85.9214C228.339 85.6665 228.443 85.3219 228.443 84.8877ZM226.432 89.5039C226.158 89.5039 225.894 89.5322 225.639 89.5889L225.583 92.8174C225.724 92.8457 225.861 92.874 225.993 92.9023C226.135 92.9212 226.272 92.9307 226.404 92.9307C226.602 92.9307 226.819 92.9118 227.055 92.874C227.291 92.8268 227.513 92.7419 227.721 92.6191C227.928 92.487 228.098 92.3123 228.23 92.0952C228.372 91.8781 228.443 91.5902 228.443 91.2314C228.443 90.8727 228.372 90.5801 228.23 90.3535C228.098 90.127 227.933 89.9523 227.735 89.8296C227.537 89.6974 227.319 89.6125 227.083 89.5747C226.847 89.5275 226.63 89.5039 226.432 89.5039ZM254.257 96.7822L247.233 97.6885L246.384 94.4883H243.155L242.447 97.6885L235.226 96.9805L240.861 78.1191L248.734 77.7227L254.257 96.7822ZM245.874 90.1553L244.798 85.2275L243.75 90.1553H245.874ZM266.973 90.4951L266.378 96.7822L254.455 97.7168L254.908 77.4961H262.271L261.224 90.4951H266.973ZM280.057 90.4951L279.462 96.7822L267.539 97.7168L267.992 77.4961H275.355L274.308 90.4951H280.057Z" fill="black"/>
<defs>
<filter id="filter0_d_3995_127" x="30.9" y="49.9" width="176.1" height="170.2" filterUnits="userSpaceOnUse" color-interpolation-filters="sRGB">
<feFlood flood-opacity="0" result="BackgroundImageFix"/>
<feColorMatrix in="SourceAlpha" type="matrix" values="0 0 0 0 0 0 0 0 0 0 0 0 0 0 0 0 0 0 127 0" result="hardAlpha"/>
<feOffset dx="-19" dy="11"/>
<feGaussianBlur stdDeviation="6.55"/>
<feComposite in2="hardAlpha" operator="out"/>
<feColorMatrix type="matrix" values="0 0 0 0 0 0 0 0 0 0 0 0 0 0 0 0 0 0 0.28 0"/>
<feBlend mode="normal" in2="BackgroundImageFix" result="effect1_dropShadow_3995_127"/>
<feBlend mode="normal" in="SourceGraphic" in2="effect1_dropShadow_3995_127" result="shape"/>
</filter>
</defs>
</svg>
