<svg width="360" height="233" viewBox="0 0 360 233" fill="none" xmlns="http://www.w3.org/2000/svg">
<path d="M56.6552 34.47C51.9679 17.7359 65.362 1.4426 82.6867 2.8037L333.675 22.5225C347.975 23.646 358.4 36.5457 356.496 50.7628L335.94 204.317C334.278 216.731 323.686 226 311.161 226H129.263C118.053 226 108.213 218.538 105.19 207.743L56.6552 34.47Z" fill="white"/>
<path d="M281.872 57.959C281.872 58.7425 281.725 59.4175 281.433 59.9839C281.149 60.5503 280.767 61.0317 280.286 61.4282C279.804 61.8247 279.247 62.1504 278.615 62.4053C277.992 62.6507 277.34 62.8442 276.661 62.9858C275.981 63.1274 275.297 63.2218 274.607 63.269C273.928 63.3162 273.291 63.3398 272.696 63.3398C272.111 63.3398 271.502 63.3162 270.869 63.269C270.246 63.2313 269.623 63.1605 269 63.0566C268.377 62.9528 267.763 62.8159 267.159 62.646C266.555 62.4666 265.984 62.2448 265.446 61.9805L265.417 43.7422C265.946 43.5251 266.508 43.3315 267.103 43.1616C267.697 42.9823 268.301 42.8359 268.915 42.7227C269.538 42.5999 270.156 42.5103 270.77 42.4536C271.384 42.3875 271.978 42.3545 272.554 42.3545C273.224 42.3545 273.899 42.397 274.579 42.4819C275.268 42.5669 275.929 42.7085 276.562 42.9067C277.194 43.105 277.784 43.3646 278.332 43.6855C278.879 43.9971 279.356 44.3841 279.762 44.8467C280.177 45.3092 280.498 45.8473 280.725 46.4609C280.961 47.0745 281.079 47.7826 281.079 48.585C281.079 49.1136 281.003 49.6092 280.852 50.0718C280.701 50.5343 280.484 50.9497 280.201 51.3179C279.917 51.686 279.573 52.0023 279.167 52.2666C278.761 52.5215 278.303 52.7103 277.793 52.833C278.407 52.9935 278.964 53.2295 279.464 53.541C279.974 53.8525 280.404 54.2301 280.753 54.6738C281.112 55.1175 281.385 55.6178 281.574 56.1748C281.772 56.7318 281.872 57.3265 281.872 57.959ZM274.678 49.8877C274.678 49.6139 274.622 49.3826 274.508 49.1938C274.395 48.9956 274.253 48.8351 274.083 48.7124C273.923 48.5897 273.744 48.5 273.545 48.4434C273.357 48.3867 273.187 48.3584 273.036 48.3584C272.847 48.3584 272.663 48.3867 272.483 48.4434C272.304 48.5 272.129 48.5661 271.959 48.6416L271.875 51.7852C272.092 51.7852 272.361 51.7663 272.682 51.7285C273.003 51.6908 273.309 51.6105 273.602 51.4878C273.904 51.3556 274.159 51.1668 274.367 50.9214C274.574 50.6665 274.678 50.3219 274.678 49.8877ZM272.667 54.5039C272.394 54.5039 272.129 54.5322 271.875 54.5889L271.818 57.8174C271.959 57.8457 272.096 57.874 272.229 57.9023C272.37 57.9212 272.507 57.9307 272.639 57.9307C272.837 57.9307 273.055 57.9118 273.291 57.874C273.527 57.8268 273.748 57.7419 273.956 57.6191C274.164 57.487 274.334 57.3123 274.466 57.0952C274.607 56.8781 274.678 56.5902 274.678 56.2314C274.678 55.8727 274.607 55.5801 274.466 55.3535C274.334 55.127 274.168 54.9523 273.97 54.8296C273.772 54.6974 273.555 54.6125 273.319 54.5747C273.083 54.5275 272.866 54.5039 272.667 54.5039ZM295.083 54.9287L294.488 61.2158L282.565 62.1504C282.622 58.8558 282.683 55.5801 282.75 52.3232C282.825 49.0664 282.915 45.7907 283.019 42.4961H290.382C290.165 44.5635 289.957 46.6309 289.759 48.6982C289.561 50.7562 289.419 52.833 289.334 54.9287C289.778 54.9476 290.217 54.957 290.651 54.957C291.085 54.957 291.524 54.957 291.968 54.957C292.496 54.957 293.016 54.9523 293.525 54.9429C294.035 54.9334 294.554 54.9287 295.083 54.9287ZM312.684 47.2539C312.684 47.9525 312.651 48.7218 312.585 49.562C312.519 50.4022 312.41 51.2707 312.259 52.1675C312.108 53.0643 311.91 53.9753 311.665 54.9004C311.429 55.8161 311.131 56.6987 310.772 57.5483C310.414 58.3979 309.994 59.1956 309.512 59.9414C309.04 60.6777 308.493 61.3244 307.87 61.8813C307.256 62.4289 306.567 62.8584 305.802 63.1699C305.038 63.4909 304.188 63.6514 303.253 63.6514C302.158 63.6514 301.205 63.472 300.393 63.1133C299.591 62.764 298.902 62.292 298.326 61.6973C297.75 61.0931 297.278 60.3945 296.91 59.6016C296.542 58.7992 296.254 57.9543 296.046 57.0669C295.838 56.1701 295.692 55.2591 295.607 54.334C295.531 53.3994 295.494 52.5026 295.494 51.6436C295.494 50.3219 295.56 49.005 295.692 47.6929C295.824 46.3713 296.013 45.0544 296.258 43.7422L302.885 43.9971C302.63 45.4792 302.409 46.9707 302.22 48.4717C302.04 49.9632 301.951 51.4642 301.951 52.9746C301.951 53.1351 301.955 53.3758 301.965 53.6968C301.984 54.0083 302.012 54.3623 302.05 54.7588C302.088 55.1458 302.139 55.547 302.206 55.9624C302.281 56.3683 302.38 56.7412 302.503 57.0811C302.626 57.4209 302.772 57.6994 302.942 57.9165C303.121 58.1336 303.329 58.2422 303.565 58.2422C303.839 58.2422 304.084 58.1147 304.301 57.8599C304.518 57.5955 304.707 57.2463 304.868 56.812C305.038 56.3778 305.184 55.8774 305.307 55.311C305.429 54.7446 305.533 54.1546 305.618 53.541C305.703 52.9274 305.769 52.3138 305.816 51.7002C305.873 51.0866 305.916 50.5155 305.944 49.9868C305.982 49.4582 306.005 48.9909 306.015 48.585C306.024 48.179 306.029 47.877 306.029 47.6787C306.029 46.9424 306.015 46.2108 305.986 45.4839C305.967 44.7476 305.934 44.016 305.887 43.2891H312.514C312.627 44.5918 312.684 45.9134 312.684 47.2539ZM327.227 42.5811C327.17 43.4684 327.118 44.3464 327.071 45.2148C327.024 46.0833 326.962 46.9613 326.887 47.8486L320.883 48.1602L320.741 49.9443H324.961L324.649 54.334L320.401 54.4756L320.26 56.543H323.771H326.264C326.207 57.5814 326.146 58.6151 326.08 59.644C326.023 60.6636 325.971 61.6878 325.924 62.7168L313.718 63L314.171 42.5811H327.227ZM256.723 86.959C256.723 87.7425 256.577 88.4175 256.284 88.9839C256.001 89.5503 255.619 90.0317 255.137 90.4282C254.656 90.8247 254.099 91.1504 253.466 91.4053C252.843 91.6507 252.192 91.8442 251.512 91.9858C250.833 92.1274 250.148 92.2218 249.459 92.269C248.779 92.3162 248.142 92.3398 247.547 92.3398C246.962 92.3398 246.353 92.3162 245.721 92.269C245.098 92.2313 244.475 92.1605 243.852 92.0566C243.229 91.9528 242.615 91.8159 242.011 91.646C241.407 91.4666 240.835 91.2448 240.297 90.9805L240.269 72.7422C240.798 72.5251 241.359 72.3315 241.954 72.1616C242.549 71.9823 243.153 71.8359 243.767 71.7227C244.39 71.5999 245.008 71.5103 245.622 71.4536C246.235 71.3875 246.83 71.3545 247.406 71.3545C248.076 71.3545 248.751 71.397 249.431 71.4819C250.12 71.5669 250.781 71.7085 251.413 71.9067C252.046 72.105 252.636 72.3646 253.183 72.6855C253.731 72.9971 254.207 73.3841 254.613 73.8467C255.029 74.3092 255.35 74.8473 255.576 75.4609C255.812 76.0745 255.93 76.7826 255.93 77.585C255.93 78.1136 255.855 78.6092 255.704 79.0718C255.553 79.5343 255.335 79.9497 255.052 80.3179C254.769 80.686 254.424 81.0023 254.019 81.2666C253.613 81.5215 253.155 81.7103 252.645 81.833C253.259 81.9935 253.816 82.2295 254.316 82.541C254.826 82.8525 255.255 83.2301 255.604 83.6738C255.963 84.1175 256.237 84.6178 256.426 85.1748C256.624 85.7318 256.723 86.3265 256.723 86.959ZM249.53 78.8877C249.53 78.6139 249.473 78.3826 249.36 78.1938C249.247 77.9956 249.105 77.8351 248.935 77.7124C248.775 77.5897 248.595 77.5 248.397 77.4434C248.208 77.3867 248.038 77.3584 247.887 77.3584C247.698 77.3584 247.514 77.3867 247.335 77.4434C247.156 77.5 246.981 77.5661 246.811 77.6416L246.726 80.7852C246.943 80.7852 247.212 80.7663 247.533 80.7285C247.854 80.6908 248.161 80.6105 248.454 80.4878C248.756 80.3556 249.011 80.1668 249.218 79.9214C249.426 79.6665 249.53 79.3219 249.53 78.8877ZM247.519 83.5039C247.245 83.5039 246.981 83.5322 246.726 83.5889L246.669 86.8174C246.811 86.8457 246.948 86.874 247.08 86.9023C247.222 86.9212 247.359 86.9307 247.491 86.9307C247.689 86.9307 247.906 86.9118 248.142 86.874C248.378 86.8268 248.6 86.7419 248.808 86.6191C249.015 86.487 249.185 86.3123 249.317 86.0952C249.459 85.8781 249.53 85.5902 249.53 85.2314C249.53 84.8727 249.459 84.5801 249.317 84.3535C249.185 84.127 249.02 83.9523 248.822 83.8296C248.624 83.6974 248.406 83.6125 248.17 83.5747C247.934 83.5275 247.717 83.5039 247.519 83.5039ZM274.707 82.0029C274.707 82.862 274.607 83.6927 274.409 84.4951C274.211 85.2881 273.923 86.0339 273.545 86.7324C273.177 87.431 272.724 88.0729 272.186 88.6582C271.657 89.234 271.058 89.7297 270.388 90.145C269.727 90.5604 269.005 90.8861 268.221 91.1221C267.438 91.3486 266.607 91.4619 265.729 91.4619C264.879 91.4619 264.068 91.3534 263.293 91.1362C262.529 90.9191 261.811 90.617 261.141 90.23C260.471 89.8335 259.862 89.3615 259.314 88.814C258.776 88.257 258.314 87.6434 257.927 86.9731C257.549 86.2935 257.252 85.5666 257.035 84.7925C256.827 84.0184 256.723 83.2113 256.723 82.3711C256.723 81.5498 256.822 80.7474 257.021 79.9639C257.219 79.1709 257.502 78.4251 257.87 77.7266C258.248 77.028 258.701 76.3861 259.229 75.8008C259.758 75.2155 260.348 74.7104 261 74.2856C261.66 73.8608 262.373 73.5304 263.138 73.2944C263.902 73.0584 264.709 72.9404 265.559 72.9404C266.928 72.9404 268.174 73.1528 269.297 73.5776C270.43 74.0024 271.393 74.6113 272.186 75.4043C272.988 76.1878 273.607 77.1413 274.041 78.2646C274.485 79.3786 274.707 80.6247 274.707 82.0029ZM268.419 82.3711C268.419 81.9652 268.358 81.5734 268.235 81.1958C268.122 80.8088 267.952 80.4689 267.726 80.1763C267.499 79.8742 267.216 79.6335 266.876 79.4541C266.546 79.2653 266.163 79.1709 265.729 79.1709C265.285 79.1709 264.889 79.2511 264.54 79.4116C264.19 79.5721 263.888 79.7939 263.633 80.0771C263.388 80.3509 263.199 80.6766 263.067 81.0542C262.935 81.4224 262.869 81.8141 262.869 82.2295C262.869 82.626 262.925 83.0225 263.039 83.4189C263.152 83.8154 263.322 84.1742 263.548 84.4951C263.775 84.8161 264.053 85.0757 264.384 85.2739C264.724 85.4722 265.115 85.5713 265.559 85.5713C266.003 85.5713 266.399 85.4863 266.749 85.3164C267.107 85.137 267.409 84.901 267.655 84.6084C267.9 84.3063 268.089 83.9618 268.221 83.5747C268.353 83.1877 268.419 82.7865 268.419 82.3711ZM292.931 90.7822L285.907 91.6885L285.058 88.4883H281.829L281.121 91.6885L273.899 90.9805L279.535 72.1191L287.408 71.7227L292.931 90.7822ZM284.548 84.1553L283.472 79.2275L282.424 84.1553H284.548ZM309.824 78.3496C309.824 79.0859 309.758 79.7562 309.625 80.3604C309.503 80.9551 309.305 81.5026 309.031 82.0029C308.757 82.5033 308.403 82.9658 307.969 83.3906C307.535 83.8154 307.011 84.2214 306.397 84.6084L309.767 90.6123L303.395 91.8584L301.214 85.8262L299.458 85.8828L299.204 91.7734H293.115C293.162 89.6211 293.204 87.4782 293.242 85.3447C293.289 83.2113 293.341 81.0684 293.398 78.916C293.417 77.8304 293.436 76.7542 293.455 75.6875C293.473 74.6208 293.511 73.5446 293.568 72.459C294.229 72.2135 294.88 72.0106 295.522 71.8501C296.164 71.6896 296.806 71.5669 297.448 71.4819C298.099 71.3875 298.755 71.3262 299.416 71.2979C300.086 71.2601 300.771 71.2412 301.469 71.2412C302.545 71.2412 303.584 71.3923 304.584 71.6943C305.595 71.987 306.487 72.4307 307.261 73.0254C308.035 73.6201 308.653 74.3612 309.116 75.2485C309.588 76.1359 309.824 77.1696 309.824 78.3496ZM303.48 78.8027C303.48 78.4062 303.423 78.0428 303.31 77.7124C303.206 77.382 303.046 77.0988 302.829 76.8628C302.621 76.6174 302.357 76.4285 302.036 76.2964C301.724 76.1548 301.356 76.084 300.931 76.084C300.742 76.084 300.558 76.0981 300.379 76.1265C300.2 76.1453 300.025 76.1784 299.855 76.2256L299.628 81.4932H299.968C300.374 81.4932 300.785 81.4412 301.2 81.3374C301.625 81.2336 302.003 81.0731 302.333 80.856C302.673 80.6388 302.947 80.3604 303.154 80.0205C303.371 79.6807 303.48 79.2747 303.48 78.8027ZM326.858 80.7568C326.858 82.0785 326.688 83.2726 326.349 84.3394C326.009 85.3966 325.532 86.3407 324.918 87.1714C324.314 87.9927 323.592 88.7007 322.752 89.2954C321.912 89.8901 320.991 90.381 319.991 90.7681C318.99 91.1457 317.923 91.4289 316.791 91.6177C315.667 91.797 314.511 91.8867 313.321 91.8867C312.878 91.8867 312.443 91.8773 312.019 91.8584C311.594 91.8301 311.16 91.7923 310.716 91.7451L311.112 72.7422C312.151 72.4118 313.217 72.1805 314.312 72.0483C315.417 71.9067 316.512 71.8359 317.598 71.8359C318.948 71.8359 320.189 72.0389 321.322 72.4448C322.455 72.8507 323.432 73.436 324.253 74.2007C325.074 74.9653 325.711 75.8999 326.165 77.0044C326.627 78.1089 326.858 79.3597 326.858 80.7568ZM321.053 81.6631C321.062 81.1533 321.006 80.6624 320.883 80.1904C320.77 79.7184 320.576 79.3031 320.302 78.9443C320.038 78.5762 319.698 78.2835 319.283 78.0664C318.867 77.8398 318.372 77.7171 317.796 77.6982L317.229 86.4775C317.796 86.3926 318.31 86.2085 318.773 85.9253C319.236 85.6326 319.632 85.2786 319.962 84.8633C320.302 84.4385 320.562 83.9712 320.741 83.4614C320.93 82.9422 321.034 82.4089 321.053 81.8613V81.6631Z" fill="black"/>
<rect x="0.60712" y="45.5607" width="133.033" height="192.669" rx="10.5" transform="rotate(-14.1594 0.60712 45.5607)" fill="#0070A0" stroke="#DCD3C2"/>
<line x1="24.1365" y1="138.461" x2="152.952" y2="105.963" stroke="white" stroke-opacity="0.8"/>
<path d="M107.775 117.572C110.448 128.165 104.027 138.918 93.4347 141.59C82.8423 144.262 72.0891 137.842 69.4168 127.25C66.7445 116.657 73.165 105.904 83.7574 103.232C94.3498 100.559 105.103 106.98 107.775 117.572ZM70.2885 127.03C72.8393 137.141 83.1038 143.269 93.2148 140.718C103.326 138.168 109.454 127.903 106.904 117.792C104.353 107.681 94.0883 101.553 83.9773 104.103C73.8663 106.654 67.7376 116.919 70.2885 127.03Z" fill="white" fill-opacity="0.8"/>
</svg>
