<svg width="367" height="240" viewBox="0 0 367 240" fill="none" xmlns="http://www.w3.org/2000/svg">
<path d="M63.6552 34.47C58.9679 17.7359 72.362 1.4426 89.6867 2.8037L340.675 22.5225C354.975 23.646 365.4 36.5457 363.496 50.7628L342.94 204.317C341.278 216.731 330.686 226 318.161 226H136.263C125.053 226 115.213 218.538 112.19 207.743L63.6552 34.47Z" fill="white"/>
<g filter="url(#filter0_d_3582_64)">
<rect x="0.603541" y="0.366561" width="131.106" height="190.894" rx="10.5" transform="matrix(0.971109 -0.238637 0.235974 0.971759 8.1243 44.7266)" fill="#018E3A" stroke="#DCD3C2"/>
<rect width="130.942" height="23.4018" transform="matrix(0.971109 -0.238637 0.235974 0.971759 18.6992 85.3662)" fill="#016B2D"/>
<rect width="130.942" height="22.8167" transform="matrix(0.971109 -0.238637 0.235974 0.971759 28.6387 126.3)" fill="#016B2D"/>
<rect width="130.942" height="23.4018" transform="matrix(0.971109 -0.238637 0.235974 0.971759 38.4395 166.665)" fill="#016B2D"/>
<path d="M48.3809 207.599L175.54 176.351L178.564 188.806C179.867 194.173 176.576 199.592 171.213 200.91L63.4761 227.385C58.1128 228.703 52.7085 225.42 51.4053 220.053L48.3809 207.599Z" fill="#016B2D"/>
<path d="M14.2803 67.1738L141.439 35.9262L138.415 23.4714C137.112 18.1045 131.707 14.8222 126.344 16.1402L18.6072 42.6151C13.2439 43.9331 9.95262 49.3522 11.2559 54.7191L14.2803 67.1738Z" fill="#016B2D"/>
<line y1="-0.5" x2="130.942" y2="-0.5" transform="matrix(0.971109 -0.238637 0.235974 0.971759 31.4004 137.671)" stroke="white" stroke-opacity="0.8"/>
<ellipse cx="1.74589" cy="1.75513" rx="1.74589" ry="1.75513" transform="matrix(0.971109 -0.238637 0.235974 0.971759 83.2119 79.7549)" fill="#D9D9D9"/>
<ellipse cx="1.74589" cy="1.75513" rx="1.74589" ry="1.75513" transform="matrix(0.971109 -0.238637 0.235974 0.971759 102.954 161.054)" fill="#D9D9D9"/>
<path d="M171.722 202.006C171.163 200.729 170.926 199.333 171.031 197.942C171.136 196.551 171.581 195.208 172.325 194.031C173.07 192.854 174.091 191.88 175.299 191.194C176.507 190.509 177.865 190.134 179.251 190.103L179.264 190.662C177.969 190.692 176.701 191.042 175.573 191.682C174.445 192.322 173.49 193.232 172.795 194.332C172.1 195.431 171.685 196.686 171.586 197.985C171.488 199.284 171.71 200.588 172.232 201.78L171.722 202.006Z" fill="#DCD3C2"/>
<path d="M35.9281 38.2718L108.983 20.3194C112.341 35.2759 103.108 50.2535 88.1629 53.9259L69.806 58.4369C54.8613 62.1094 39.8036 53.1009 35.9281 38.2718Z" fill="#018E3A" stroke="#DCD3C2"/>
<path d="M80.9743 223.775L154.03 205.822C150.154 190.993 135.096 181.985 120.152 185.657L101.795 190.168C86.8501 193.841 77.6169 208.818 80.9743 223.775Z" fill="#018E3A" stroke="#DCD3C2"/>
<path d="M57.9946 32.8488L86.919 25.741C87.1682 27.8144 85.8344 29.7973 83.7566 30.3079L62.8939 35.4346C60.8162 35.9452 58.7237 34.8043 57.9946 32.8488Z" fill="#018E3A" stroke="#DCD3C2"/>
<path d="M103.04 218.353L131.964 211.245C131.235 209.289 129.143 208.148 127.065 208.659L106.202 213.786C104.125 214.296 102.791 216.279 103.04 218.353Z" fill="#018E3A" stroke="#DCD3C2"/>
<path d="M126.432 15.4998C126.521 16.892 126.95 18.2405 127.681 19.4261C128.412 20.6117 129.422 21.5977 130.622 22.2969C131.822 22.9961 133.175 23.3868 134.561 23.4346C135.947 23.4824 137.324 23.1857 138.568 22.5708L138.323 22.068C137.16 22.6423 135.875 22.9195 134.58 22.8748C133.286 22.8302 132.022 22.4652 130.901 21.8122C129.781 21.1592 128.837 20.2382 128.154 19.1309C127.472 18.0236 127.071 16.764 126.988 15.4638L126.432 15.4998Z" fill="#DCD3C2"/>
<path d="M63.527 228.594C63.4378 227.202 63.0087 225.853 62.2778 224.668C61.5469 223.482 60.5367 222.496 59.3367 221.797C58.1366 221.098 56.7837 220.707 55.3977 220.659C54.0118 220.611 52.6355 220.908 51.3906 221.523L51.6361 222.026C52.7987 221.451 54.0842 221.174 55.3787 221.219C56.6732 221.264 57.9368 221.629 59.0576 222.282C60.1784 222.935 61.122 223.856 61.8046 224.963C62.4873 226.07 62.888 227.33 62.9714 228.63L63.527 228.594Z" fill="#DCD3C2"/>
<path d="M18.2378 42.0878C18.7966 43.3646 19.0339 44.7603 18.9287 46.1513C18.8235 47.5424 18.379 48.8858 17.6345 50.0629C16.8901 51.2399 15.8687 52.2141 14.6607 52.8993C13.4527 53.5845 12.0954 53.9596 10.709 53.9912L10.6963 53.4313C11.9912 53.4017 13.2589 53.0514 14.3872 52.4114C15.5155 51.7714 16.4695 50.8615 17.1648 49.7622C17.8601 48.6629 18.2753 47.408 18.3735 46.1088C18.4718 44.8096 18.2501 43.506 17.7282 42.3135L18.2378 42.0878Z" fill="#DCD3C2"/>
<ellipse cx="18.9139" cy="19.0139" rx="18.9139" ry="19.0139" transform="matrix(0.971109 -0.238637 0.235974 0.971759 72.0557 107.799)" fill="#018E3A"/>
<path d="M114.521 117.11C117.09 127.628 110.646 138.238 100.128 140.808C89.6092 143.377 78.9992 136.933 76.4298 126.415C73.8603 115.896 80.3043 105.286 90.8228 102.717C101.341 100.147 111.951 106.591 114.521 117.11ZM77.2954 126.203C79.7481 136.244 89.8758 142.395 99.9162 139.942C109.957 137.489 116.108 127.362 113.655 117.321C111.202 107.281 101.075 101.13 91.0343 103.582C80.9938 106.035 74.8427 116.163 77.2954 126.203Z" fill="white" fill-opacity="0.8"/>
</g>
<path d="M220.209 42.5811C220.152 43.4684 220.1 44.3464 220.053 45.2148C220.006 46.0833 219.945 46.9613 219.869 47.8486L213.865 48.1602V49.9443H219.076L218.793 54.334L213.837 54.4756L213.865 62.8584L206.7 63L207.153 42.5811H220.209ZM238.065 53.0029C238.065 53.862 237.966 54.6927 237.768 55.4951C237.569 56.2881 237.281 57.0339 236.904 57.7324C236.536 58.431 236.083 59.0729 235.544 59.6582C235.016 60.234 234.416 60.7297 233.746 61.145C233.085 61.5604 232.363 61.8861 231.58 62.1221C230.796 62.3486 229.965 62.4619 229.087 62.4619C228.238 62.4619 227.426 62.3534 226.652 62.1362C225.887 61.9191 225.17 61.617 224.5 61.23C223.829 60.8335 223.22 60.3615 222.673 59.814C222.135 59.257 221.672 58.6434 221.285 57.9731C220.908 57.2935 220.61 56.5666 220.393 55.7925C220.185 55.0184 220.082 54.2113 220.082 53.3711C220.082 52.5498 220.181 51.7474 220.379 50.9639C220.577 50.1709 220.86 49.4251 221.229 48.7266C221.606 48.028 222.059 47.3861 222.588 46.8008C223.117 46.2155 223.707 45.7104 224.358 45.2856C225.019 44.8608 225.731 44.5304 226.496 44.2944C227.261 44.0584 228.068 43.9404 228.917 43.9404C230.286 43.9404 231.532 44.1528 232.656 44.5776C233.789 45.0024 234.751 45.6113 235.544 46.4043C236.347 47.1878 236.965 48.1413 237.399 49.2646C237.843 50.3786 238.065 51.6247 238.065 53.0029ZM231.778 53.3711C231.778 52.9652 231.716 52.5734 231.594 52.1958C231.48 51.8088 231.311 51.4689 231.084 51.1763C230.857 50.8742 230.574 50.6335 230.234 50.4541C229.904 50.2653 229.522 50.1709 229.087 50.1709C228.644 50.1709 228.247 50.2511 227.898 50.4116C227.549 50.5721 227.247 50.7939 226.992 51.0771C226.746 51.3509 226.557 51.6766 226.425 52.0542C226.293 52.4224 226.227 52.8141 226.227 53.2295C226.227 53.626 226.284 54.0225 226.397 54.4189C226.51 54.8154 226.68 55.1742 226.907 55.4951C227.133 55.8161 227.412 56.0757 227.742 56.2739C228.082 56.4722 228.474 56.5713 228.917 56.5713C229.361 56.5713 229.758 56.4863 230.107 56.3164C230.466 56.137 230.768 55.901 231.013 55.6084C231.259 55.3063 231.447 54.9618 231.58 54.5747C231.712 54.1877 231.778 53.7865 231.778 53.3711ZM256.558 53.0029C256.558 53.862 256.459 54.6927 256.261 55.4951C256.062 56.2881 255.775 57.0339 255.397 57.7324C255.029 58.431 254.576 59.0729 254.038 59.6582C253.509 60.234 252.91 60.7297 252.239 61.145C251.578 61.5604 250.856 61.8861 250.073 62.1221C249.289 62.3486 248.458 62.4619 247.581 62.4619C246.731 62.4619 245.919 62.3534 245.145 62.1362C244.38 61.9191 243.663 61.617 242.993 61.23C242.322 60.8335 241.714 60.3615 241.166 59.814C240.628 59.257 240.165 58.6434 239.778 57.9731C239.401 57.2935 239.103 56.5666 238.886 55.7925C238.679 55.0184 238.575 54.2113 238.575 53.3711C238.575 52.5498 238.674 51.7474 238.872 50.9639C239.07 50.1709 239.354 49.4251 239.722 48.7266C240.099 48.028 240.552 47.3861 241.081 46.8008C241.61 46.2155 242.2 45.7104 242.851 45.2856C243.512 44.8608 244.225 44.5304 244.989 44.2944C245.754 44.0584 246.561 43.9404 247.411 43.9404C248.779 43.9404 250.026 44.1528 251.149 44.5776C252.282 45.0024 253.245 45.6113 254.038 46.4043C254.84 47.1878 255.458 48.1413 255.893 49.2646C256.336 50.3786 256.558 51.6247 256.558 53.0029ZM250.271 53.3711C250.271 52.9652 250.21 52.5734 250.087 52.1958C249.974 51.8088 249.804 51.4689 249.577 51.1763C249.351 50.8742 249.067 50.6335 248.728 50.4541C248.397 50.2653 248.015 50.1709 247.581 50.1709C247.137 50.1709 246.74 50.2511 246.391 50.4116C246.042 50.5721 245.74 50.7939 245.485 51.0771C245.239 51.3509 245.051 51.6766 244.918 52.0542C244.786 52.4224 244.72 52.8141 244.72 53.2295C244.72 53.626 244.777 54.0225 244.89 54.4189C245.003 54.8154 245.173 55.1742 245.4 55.4951C245.626 55.8161 245.905 56.0757 246.235 56.2739C246.575 56.4722 246.967 56.5713 247.411 56.5713C247.854 56.5713 248.251 56.4863 248.6 56.3164C248.959 56.137 249.261 55.901 249.506 55.6084C249.752 55.3063 249.941 54.9618 250.073 54.5747C250.205 54.1877 250.271 53.7865 250.271 53.3711ZM272.318 42.751L272.177 48.7549L267.957 48.9248L266.881 62.3486L260.905 62.6602L260.934 49.2363L256.714 49.4629L256.884 42.7793L272.318 42.751ZM289.58 57.959C289.58 58.7425 289.433 59.4175 289.141 59.9839C288.857 60.5503 288.475 61.0317 287.994 61.4282C287.512 61.8247 286.955 62.1504 286.323 62.4053C285.7 62.6507 285.048 62.8442 284.369 62.9858C283.689 63.1274 283.005 63.2218 282.315 63.269C281.636 63.3162 280.999 63.3398 280.404 63.3398C279.819 63.3398 279.21 63.3162 278.577 63.269C277.954 63.2313 277.331 63.1605 276.708 63.0566C276.085 62.9528 275.471 62.8159 274.867 62.646C274.263 62.4666 273.692 62.2448 273.154 61.9805L273.125 43.7422C273.654 43.5251 274.216 43.3315 274.811 43.1616C275.405 42.9823 276.009 42.8359 276.623 42.7227C277.246 42.5999 277.864 42.5103 278.478 42.4536C279.092 42.3875 279.686 42.3545 280.262 42.3545C280.932 42.3545 281.607 42.397 282.287 42.4819C282.976 42.5669 283.637 42.7085 284.27 42.9067C284.902 43.105 285.492 43.3646 286.04 43.6855C286.587 43.9971 287.064 44.3841 287.47 44.8467C287.885 45.3092 288.206 45.8473 288.433 46.4609C288.669 47.0745 288.787 47.7826 288.787 48.585C288.787 49.1136 288.711 49.6092 288.56 50.0718C288.409 50.5343 288.192 50.9497 287.909 51.3179C287.625 51.686 287.281 52.0023 286.875 52.2666C286.469 52.5215 286.011 52.7103 285.501 52.833C286.115 52.9935 286.672 53.2295 287.172 53.541C287.682 53.8525 288.112 54.2301 288.461 54.6738C288.82 55.1175 289.093 55.6178 289.282 56.1748C289.48 56.7318 289.58 57.3265 289.58 57.959ZM282.386 49.8877C282.386 49.6139 282.33 49.3826 282.216 49.1938C282.103 48.9956 281.961 48.8351 281.792 48.7124C281.631 48.5897 281.452 48.5 281.253 48.4434C281.065 48.3867 280.895 48.3584 280.744 48.3584C280.555 48.3584 280.371 48.3867 280.191 48.4434C280.012 48.5 279.837 48.5661 279.667 48.6416L279.583 51.7852C279.8 51.7852 280.069 51.7663 280.39 51.7285C280.711 51.6908 281.017 51.6105 281.31 51.4878C281.612 51.3556 281.867 51.1668 282.075 50.9214C282.282 50.6665 282.386 50.3219 282.386 49.8877ZM280.375 54.5039C280.102 54.5039 279.837 54.5322 279.583 54.5889L279.526 57.8174C279.667 57.8457 279.804 57.874 279.937 57.9023C280.078 57.9212 280.215 57.9307 280.347 57.9307C280.545 57.9307 280.763 57.9118 280.999 57.874C281.235 57.8268 281.456 57.7419 281.664 57.6191C281.872 57.487 282.042 57.3123 282.174 57.0952C282.315 56.8781 282.386 56.5902 282.386 56.2314C282.386 55.8727 282.315 55.5801 282.174 55.3535C282.042 55.127 281.876 54.9523 281.678 54.8296C281.48 54.6974 281.263 54.6125 281.027 54.5747C280.791 54.5275 280.574 54.5039 280.375 54.5039ZM308.2 61.7822L301.177 62.6885L300.327 59.4883H297.099L296.391 62.6885L289.169 61.9805L294.805 43.1191L302.678 42.7227L308.2 61.7822ZM299.817 55.1553L298.741 50.2275L297.693 55.1553H299.817ZM320.944 54.9287L320.35 61.2158L308.427 62.1504C308.483 58.8558 308.545 55.5801 308.611 52.3232C308.686 49.0664 308.776 45.7907 308.88 42.4961H316.243C316.026 44.5635 315.818 46.6309 315.62 48.6982C315.422 50.7562 315.28 52.833 315.195 54.9287C315.639 54.9476 316.078 54.957 316.512 54.957C316.946 54.957 317.385 54.957 317.829 54.957C318.358 54.957 318.877 54.9523 319.387 54.9429C319.896 54.9334 320.416 54.9287 320.944 54.9287ZM334.057 54.9287L333.462 61.2158L321.539 62.1504C321.596 58.8558 321.657 55.5801 321.723 52.3232C321.799 49.0664 321.888 45.7907 321.992 42.4961H329.355C329.138 44.5635 328.931 46.6309 328.732 48.6982C328.534 50.7562 328.393 52.833 328.308 54.9287C328.751 54.9476 329.19 54.957 329.625 54.957C330.059 54.957 330.498 54.957 330.941 54.957C331.47 54.957 331.989 54.9523 332.499 54.9429C333.009 54.9334 333.528 54.9287 334.057 54.9287ZM263.723 86.959C263.723 87.7425 263.577 88.4175 263.284 88.9839C263.001 89.5503 262.619 90.0317 262.137 90.4282C261.656 90.8247 261.099 91.1504 260.466 91.4053C259.843 91.6507 259.192 91.8442 258.512 91.9858C257.833 92.1274 257.148 92.2218 256.459 92.269C255.779 92.3162 255.142 92.3398 254.547 92.3398C253.962 92.3398 253.353 92.3162 252.721 92.269C252.098 92.2313 251.475 92.1605 250.852 92.0566C250.229 91.9528 249.615 91.8159 249.011 91.646C248.407 91.4666 247.835 91.2448 247.297 90.9805L247.269 72.7422C247.798 72.5251 248.359 72.3315 248.954 72.1616C249.549 71.9823 250.153 71.8359 250.767 71.7227C251.39 71.5999 252.008 71.5103 252.622 71.4536C253.235 71.3875 253.83 71.3545 254.406 71.3545C255.076 71.3545 255.751 71.397 256.431 71.4819C257.12 71.5669 257.781 71.7085 258.413 71.9067C259.046 72.105 259.636 72.3646 260.183 72.6855C260.731 72.9971 261.207 73.3841 261.613 73.8467C262.029 74.3092 262.35 74.8473 262.576 75.4609C262.812 76.0745 262.93 76.7826 262.93 77.585C262.93 78.1136 262.855 78.6092 262.704 79.0718C262.553 79.5343 262.335 79.9497 262.052 80.3179C261.769 80.686 261.424 81.0023 261.019 81.2666C260.613 81.5215 260.155 81.7103 259.645 81.833C260.259 81.9935 260.816 82.2295 261.316 82.541C261.826 82.8525 262.255 83.2301 262.604 83.6738C262.963 84.1175 263.237 84.6178 263.426 85.1748C263.624 85.7318 263.723 86.3265 263.723 86.959ZM256.53 78.8877C256.53 78.6139 256.473 78.3826 256.36 78.1938C256.247 77.9956 256.105 77.8351 255.935 77.7124C255.775 77.5897 255.595 77.5 255.397 77.4434C255.208 77.3867 255.038 77.3584 254.887 77.3584C254.698 77.3584 254.514 77.3867 254.335 77.4434C254.156 77.5 253.981 77.5661 253.811 77.6416L253.726 80.7852C253.943 80.7852 254.212 80.7663 254.533 80.7285C254.854 80.6908 255.161 80.6105 255.454 80.4878C255.756 80.3556 256.011 80.1668 256.218 79.9214C256.426 79.6665 256.53 79.3219 256.53 78.8877ZM254.519 83.5039C254.245 83.5039 253.981 83.5322 253.726 83.5889L253.669 86.8174C253.811 86.8457 253.948 86.874 254.08 86.9023C254.222 86.9212 254.359 86.9307 254.491 86.9307C254.689 86.9307 254.906 86.9118 255.142 86.874C255.378 86.8268 255.6 86.7419 255.808 86.6191C256.015 86.487 256.185 86.3123 256.317 86.0952C256.459 85.8781 256.53 85.5902 256.53 85.2314C256.53 84.8727 256.459 84.5801 256.317 84.3535C256.185 84.127 256.02 83.9523 255.822 83.8296C255.624 83.6974 255.406 83.6125 255.17 83.5747C254.934 83.5275 254.717 83.5039 254.519 83.5039ZM281.707 82.0029C281.707 82.862 281.607 83.6927 281.409 84.4951C281.211 85.2881 280.923 86.0339 280.545 86.7324C280.177 87.431 279.724 88.0729 279.186 88.6582C278.657 89.234 278.058 89.7297 277.388 90.145C276.727 90.5604 276.005 90.8861 275.221 91.1221C274.438 91.3486 273.607 91.4619 272.729 91.4619C271.879 91.4619 271.068 91.3534 270.293 91.1362C269.529 90.9191 268.811 90.617 268.141 90.23C267.471 89.8335 266.862 89.3615 266.314 88.814C265.776 88.257 265.314 87.6434 264.927 86.9731C264.549 86.2935 264.252 85.5666 264.035 84.7925C263.827 84.0184 263.723 83.2113 263.723 82.3711C263.723 81.5498 263.822 80.7474 264.021 79.9639C264.219 79.1709 264.502 78.4251 264.87 77.7266C265.248 77.028 265.701 76.3861 266.229 75.8008C266.758 75.2155 267.348 74.7104 268 74.2856C268.66 73.8608 269.373 73.5304 270.138 73.2944C270.902 73.0584 271.709 72.9404 272.559 72.9404C273.928 72.9404 275.174 73.1528 276.297 73.5776C277.43 74.0024 278.393 74.6113 279.186 75.4043C279.988 76.1878 280.607 77.1413 281.041 78.2646C281.485 79.3786 281.707 80.6247 281.707 82.0029ZM275.419 82.3711C275.419 81.9652 275.358 81.5734 275.235 81.1958C275.122 80.8088 274.952 80.4689 274.726 80.1763C274.499 79.8742 274.216 79.6335 273.876 79.4541C273.546 79.2653 273.163 79.1709 272.729 79.1709C272.285 79.1709 271.889 79.2511 271.54 79.4116C271.19 79.5721 270.888 79.7939 270.633 80.0771C270.388 80.3509 270.199 80.6766 270.067 81.0542C269.935 81.4224 269.869 81.8141 269.869 82.2295C269.869 82.626 269.925 83.0225 270.039 83.4189C270.152 83.8154 270.322 84.1742 270.548 84.4951C270.775 84.8161 271.053 85.0757 271.384 85.2739C271.724 85.4722 272.115 85.5713 272.559 85.5713C273.003 85.5713 273.399 85.4863 273.749 85.3164C274.107 85.137 274.409 84.901 274.655 84.6084C274.9 84.3063 275.089 83.9618 275.221 83.5747C275.353 83.1877 275.419 82.7865 275.419 82.3711ZM299.931 90.7822L292.907 91.6885L292.058 88.4883H288.829L288.121 91.6885L280.899 90.9805L286.535 72.1191L294.408 71.7227L299.931 90.7822ZM291.548 84.1553L290.472 79.2275L289.424 84.1553H291.548ZM316.824 78.3496C316.824 79.0859 316.758 79.7562 316.625 80.3604C316.503 80.9551 316.305 81.5026 316.031 82.0029C315.757 82.5033 315.403 82.9658 314.969 83.3906C314.535 83.8154 314.011 84.2214 313.397 84.6084L316.767 90.6123L310.395 91.8584L308.214 85.8262L306.458 85.8828L306.204 91.7734H300.115C300.162 89.6211 300.204 87.4782 300.242 85.3447C300.289 83.2113 300.341 81.0684 300.398 78.916C300.417 77.8304 300.436 76.7542 300.455 75.6875C300.473 74.6208 300.511 73.5446 300.568 72.459C301.229 72.2135 301.88 72.0106 302.522 71.8501C303.164 71.6896 303.806 71.5669 304.448 71.4819C305.099 71.3875 305.755 71.3262 306.416 71.2979C307.086 71.2601 307.771 71.2412 308.469 71.2412C309.545 71.2412 310.584 71.3923 311.584 71.6943C312.595 71.987 313.487 72.4307 314.261 73.0254C315.035 73.6201 315.653 74.3612 316.116 75.2485C316.588 76.1359 316.824 77.1696 316.824 78.3496ZM310.48 78.8027C310.48 78.4062 310.423 78.0428 310.31 77.7124C310.206 77.382 310.046 77.0988 309.829 76.8628C309.621 76.6174 309.357 76.4285 309.036 76.2964C308.724 76.1548 308.356 76.084 307.931 76.084C307.742 76.084 307.558 76.0981 307.379 76.1265C307.2 76.1453 307.025 76.1784 306.855 76.2256L306.628 81.4932H306.968C307.374 81.4932 307.785 81.4412 308.2 81.3374C308.625 81.2336 309.003 81.0731 309.333 80.856C309.673 80.6388 309.947 80.3604 310.154 80.0205C310.371 79.6807 310.48 79.2747 310.48 78.8027ZM333.858 80.7568C333.858 82.0785 333.688 83.2726 333.349 84.3394C333.009 85.3966 332.532 86.3407 331.918 87.1714C331.314 87.9927 330.592 88.7007 329.752 89.2954C328.912 89.8901 327.991 90.381 326.991 90.7681C325.99 91.1457 324.923 91.4289 323.791 91.6177C322.667 91.797 321.511 91.8867 320.321 91.8867C319.878 91.8867 319.443 91.8773 319.019 91.8584C318.594 91.8301 318.16 91.7923 317.716 91.7451L318.112 72.7422C319.151 72.4118 320.217 72.1805 321.312 72.0483C322.417 71.9067 323.512 71.8359 324.598 71.8359C325.948 71.8359 327.189 72.0389 328.322 72.4448C329.455 72.8507 330.432 73.436 331.253 74.2007C332.074 74.9653 332.711 75.8999 333.165 77.0044C333.627 78.1089 333.858 79.3597 333.858 80.7568ZM328.053 81.6631C328.062 81.1533 328.006 80.6624 327.883 80.1904C327.77 79.7184 327.576 79.3031 327.302 78.9443C327.038 78.5762 326.698 78.2835 326.283 78.0664C325.867 77.8398 325.372 77.7171 324.796 77.6982L324.229 86.4775C324.796 86.3926 325.31 86.2085 325.773 85.9253C326.236 85.6326 326.632 85.2786 326.962 84.8633C327.302 84.4385 327.562 83.9712 327.741 83.4614C327.93 82.9422 328.034 82.4089 328.053 81.8613V81.6631Z" fill="black"/>
<defs>
<filter id="filter0_d_3582_64" x="6.47559" y="11.3516" width="177.007" height="221.391" filterUnits="userSpaceOnUse" color-interpolation-filters="sRGB">
<feFlood flood-opacity="0" result="BackgroundImageFix"/>
<feColorMatrix in="SourceAlpha" type="matrix" values="0 0 0 0 0 0 0 0 0 0 0 0 0 0 0 0 0 0 127 0" result="hardAlpha"/>
<feOffset/>
<feGaussianBlur stdDeviation="2"/>
<feComposite in2="hardAlpha" operator="out"/>
<feColorMatrix type="matrix" values="0 0 0 0 0 0 0 0 0 0 0 0 0 0 0 0 0 0 0.5 0"/>
<feBlend mode="normal" in2="BackgroundImageFix" result="effect1_dropShadow_3582_64"/>
<feBlend mode="normal" in="SourceGraphic" in2="effect1_dropShadow_3582_64" result="shape"/>
</filter>
</defs>
</svg>
