<svg width="362" height="235" viewBox="0 0 362 235" fill="none" xmlns="http://www.w3.org/2000/svg">
<path d="M58.6552 34.47C53.9679 17.7359 67.362 1.4426 84.6867 2.8037L335.675 22.5225C349.975 23.646 360.4 36.5457 358.496 50.7628L337.94 204.317C336.278 216.731 325.686 226 313.161 226H131.263C120.053 226 110.213 218.538 107.19 207.743L58.6552 34.47Z" fill="white"/>
<path d="M262.815 60.1113C262.372 60.6683 261.824 61.1545 261.173 61.5698C260.521 61.9852 259.823 62.3298 259.077 62.6035C258.331 62.8773 257.567 63.0802 256.783 63.2124C256 63.354 255.254 63.4248 254.546 63.4248C253.177 63.4248 251.917 63.1794 250.765 62.6885C249.613 62.1976 248.618 61.5226 247.777 60.6636C246.947 59.7951 246.295 58.7756 245.823 57.605C245.351 56.4344 245.115 55.1742 245.115 53.8242C245.115 52.7952 245.233 51.7899 245.469 50.8081C245.705 49.8169 246.04 48.887 246.475 48.0186C246.918 47.1406 247.456 46.3382 248.089 45.6113C248.721 44.875 249.439 44.2425 250.241 43.7139C251.044 43.1852 251.922 42.7746 252.875 42.4819C253.828 42.1893 254.848 42.043 255.934 42.043C256.34 42.043 256.774 42.0618 257.236 42.0996C257.699 42.1279 258.157 42.1846 258.61 42.2695C259.072 42.3451 259.521 42.4536 259.955 42.5952C260.389 42.7368 260.786 42.9115 261.145 43.1191L260.748 48.5283C260.219 48.3301 259.672 48.1979 259.105 48.1318C258.549 48.0563 258.001 48.0186 257.463 48.0186C256.708 48.0186 256 48.1366 255.339 48.3726C254.688 48.5991 254.116 48.9295 253.625 49.3638C253.144 49.798 252.762 50.3267 252.479 50.9497C252.195 51.5728 252.054 52.276 252.054 53.0596C252.054 53.5505 252.12 54.0272 252.252 54.4897C252.384 54.9429 252.582 55.3488 252.847 55.7075C253.12 56.0568 253.456 56.34 253.852 56.5571C254.258 56.7743 254.725 56.8828 255.254 56.8828C255.613 56.8828 255.981 56.8356 256.358 56.7412C256.745 56.6468 257.076 56.4863 257.35 56.2598L257.406 55.1553L254.008 55.0986L254.178 50.8506C255.584 50.8034 256.991 50.7656 258.397 50.7373C259.804 50.6995 261.22 50.6523 262.646 50.5957L262.815 60.1113ZM280.501 49.3496C280.501 50.0859 280.435 50.7562 280.303 51.3604C280.181 51.9551 279.982 52.5026 279.708 53.0029C279.435 53.5033 279.081 53.9658 278.646 54.3906C278.212 54.8154 277.688 55.2214 277.075 55.6084L280.445 61.6123L274.073 62.8584L271.892 56.8262L270.136 56.8828L269.881 62.7734H263.792C263.84 60.6211 263.882 58.4782 263.92 56.3447C263.967 54.2113 264.019 52.0684 264.076 49.916C264.095 48.8304 264.113 47.7542 264.132 46.6875C264.151 45.6208 264.189 44.5446 264.246 43.459C264.906 43.2135 265.558 43.0106 266.2 42.8501C266.842 42.6896 267.484 42.5669 268.125 42.4819C268.777 42.3875 269.433 42.3262 270.094 42.2979C270.764 42.2601 271.448 42.2412 272.147 42.2412C273.223 42.2412 274.262 42.3923 275.262 42.6943C276.272 42.987 277.164 43.4307 277.938 44.0254C278.713 44.6201 279.331 45.3612 279.793 46.2485C280.265 47.1359 280.501 48.1696 280.501 49.3496ZM274.158 49.8027C274.158 49.4062 274.101 49.0428 273.988 48.7124C273.884 48.382 273.723 48.0988 273.506 47.8628C273.299 47.6174 273.034 47.4285 272.713 47.2964C272.402 47.1548 272.034 47.084 271.609 47.084C271.42 47.084 271.236 47.0981 271.057 47.1265C270.877 47.1453 270.703 47.1784 270.533 47.2256L270.306 52.4932H270.646C271.052 52.4932 271.463 52.4412 271.878 52.3374C272.303 52.2336 272.68 52.0731 273.011 51.856C273.351 51.6388 273.624 51.3604 273.832 51.0205C274.049 50.6807 274.158 50.2747 274.158 49.8027ZM294.902 42.5811C294.846 43.4684 294.794 44.3464 294.747 45.2148C294.699 46.0833 294.638 46.9613 294.562 47.8486L288.559 48.1602L288.417 49.9443H292.637L292.325 54.334L288.077 54.4756L287.936 56.543H291.447H293.939C293.883 57.5814 293.821 58.6151 293.755 59.644C293.699 60.6636 293.647 61.6878 293.6 62.7168L281.394 63L281.847 42.5811H294.902ZM308.808 42.5811C308.751 43.4684 308.699 44.3464 308.652 45.2148C308.605 46.0833 308.543 46.9613 308.468 47.8486L302.464 48.1602L302.322 49.9443H306.542L306.23 54.334L301.982 54.4756L301.841 56.543H305.353H307.845C307.788 57.5814 307.727 58.6151 307.661 59.644C307.604 60.6636 307.552 61.6878 307.505 62.7168L295.299 63L295.752 42.5811H308.808ZM328.561 42.6943L327.542 61.8955L320.122 62.5752L316.157 52.2949L315.534 62.7734H309.162L309.671 42.6943L316.751 42.3545L321.651 52.5498L321.877 42.9209L328.561 42.6943ZM258.723 86.959C258.723 87.7425 258.577 88.4175 258.284 88.9839C258.001 89.5503 257.619 90.0317 257.137 90.4282C256.656 90.8247 256.099 91.1504 255.466 91.4053C254.843 91.6507 254.192 91.8442 253.512 91.9858C252.833 92.1274 252.148 92.2218 251.459 92.269C250.779 92.3162 250.142 92.3398 249.547 92.3398C248.962 92.3398 248.353 92.3162 247.721 92.269C247.098 92.2313 246.475 92.1605 245.852 92.0566C245.229 91.9528 244.615 91.8159 244.011 91.646C243.407 91.4666 242.835 91.2448 242.297 90.9805L242.269 72.7422C242.798 72.5251 243.359 72.3315 243.954 72.1616C244.549 71.9823 245.153 71.8359 245.767 71.7227C246.39 71.5999 247.008 71.5103 247.622 71.4536C248.235 71.3875 248.83 71.3545 249.406 71.3545C250.076 71.3545 250.751 71.397 251.431 71.4819C252.12 71.5669 252.781 71.7085 253.413 71.9067C254.046 72.105 254.636 72.3646 255.183 72.6855C255.731 72.9971 256.207 73.3841 256.613 73.8467C257.029 74.3092 257.35 74.8473 257.576 75.4609C257.812 76.0745 257.93 76.7826 257.93 77.585C257.93 78.1136 257.855 78.6092 257.704 79.0718C257.553 79.5343 257.335 79.9497 257.052 80.3179C256.769 80.686 256.424 81.0023 256.019 81.2666C255.613 81.5215 255.155 81.7103 254.645 81.833C255.259 81.9935 255.816 82.2295 256.316 82.541C256.826 82.8525 257.255 83.2301 257.604 83.6738C257.963 84.1175 258.237 84.6178 258.426 85.1748C258.624 85.7318 258.723 86.3265 258.723 86.959ZM251.53 78.8877C251.53 78.6139 251.473 78.3826 251.36 78.1938C251.247 77.9956 251.105 77.8351 250.935 77.7124C250.775 77.5897 250.595 77.5 250.397 77.4434C250.208 77.3867 250.038 77.3584 249.887 77.3584C249.698 77.3584 249.514 77.3867 249.335 77.4434C249.156 77.5 248.981 77.5661 248.811 77.6416L248.726 80.7852C248.943 80.7852 249.212 80.7663 249.533 80.7285C249.854 80.6908 250.161 80.6105 250.454 80.4878C250.756 80.3556 251.011 80.1668 251.218 79.9214C251.426 79.6665 251.53 79.3219 251.53 78.8877ZM249.519 83.5039C249.245 83.5039 248.981 83.5322 248.726 83.5889L248.669 86.8174C248.811 86.8457 248.948 86.874 249.08 86.9023C249.222 86.9212 249.359 86.9307 249.491 86.9307C249.689 86.9307 249.906 86.9118 250.142 86.874C250.378 86.8268 250.6 86.7419 250.808 86.6191C251.015 86.487 251.185 86.3123 251.317 86.0952C251.459 85.8781 251.53 85.5902 251.53 85.2314C251.53 84.8727 251.459 84.5801 251.317 84.3535C251.185 84.127 251.02 83.9523 250.822 83.8296C250.624 83.6974 250.406 83.6125 250.17 83.5747C249.934 83.5275 249.717 83.5039 249.519 83.5039ZM276.707 82.0029C276.707 82.862 276.607 83.6927 276.409 84.4951C276.211 85.2881 275.923 86.0339 275.545 86.7324C275.177 87.431 274.724 88.0729 274.186 88.6582C273.657 89.234 273.058 89.7297 272.388 90.145C271.727 90.5604 271.005 90.8861 270.221 91.1221C269.438 91.3486 268.607 91.4619 267.729 91.4619C266.879 91.4619 266.068 91.3534 265.293 91.1362C264.529 90.9191 263.811 90.617 263.141 90.23C262.471 89.8335 261.862 89.3615 261.314 88.814C260.776 88.257 260.314 87.6434 259.927 86.9731C259.549 86.2935 259.252 85.5666 259.035 84.7925C258.827 84.0184 258.723 83.2113 258.723 82.3711C258.723 81.5498 258.822 80.7474 259.021 79.9639C259.219 79.1709 259.502 78.4251 259.87 77.7266C260.248 77.028 260.701 76.3861 261.229 75.8008C261.758 75.2155 262.348 74.7104 263 74.2856C263.66 73.8608 264.373 73.5304 265.138 73.2944C265.902 73.0584 266.709 72.9404 267.559 72.9404C268.928 72.9404 270.174 73.1528 271.297 73.5776C272.43 74.0024 273.393 74.6113 274.186 75.4043C274.988 76.1878 275.607 77.1413 276.041 78.2646C276.485 79.3786 276.707 80.6247 276.707 82.0029ZM270.419 82.3711C270.419 81.9652 270.358 81.5734 270.235 81.1958C270.122 80.8088 269.952 80.4689 269.726 80.1763C269.499 79.8742 269.216 79.6335 268.876 79.4541C268.546 79.2653 268.163 79.1709 267.729 79.1709C267.285 79.1709 266.889 79.2511 266.54 79.4116C266.19 79.5721 265.888 79.7939 265.633 80.0771C265.388 80.3509 265.199 80.6766 265.067 81.0542C264.935 81.4224 264.869 81.8141 264.869 82.2295C264.869 82.626 264.925 83.0225 265.039 83.4189C265.152 83.8154 265.322 84.1742 265.548 84.4951C265.775 84.8161 266.053 85.0757 266.384 85.2739C266.724 85.4722 267.115 85.5713 267.559 85.5713C268.003 85.5713 268.399 85.4863 268.749 85.3164C269.107 85.137 269.409 84.901 269.655 84.6084C269.9 84.3063 270.089 83.9618 270.221 83.5747C270.353 83.1877 270.419 82.7865 270.419 82.3711ZM294.931 90.7822L287.907 91.6885L287.058 88.4883H283.829L283.121 91.6885L275.899 90.9805L281.535 72.1191L289.408 71.7227L294.931 90.7822ZM286.548 84.1553L285.472 79.2275L284.424 84.1553H286.548ZM311.824 78.3496C311.824 79.0859 311.758 79.7562 311.625 80.3604C311.503 80.9551 311.305 81.5026 311.031 82.0029C310.757 82.5033 310.403 82.9658 309.969 83.3906C309.535 83.8154 309.011 84.2214 308.397 84.6084L311.767 90.6123L305.395 91.8584L303.214 85.8262L301.458 85.8828L301.204 91.7734H295.115C295.162 89.6211 295.204 87.4782 295.242 85.3447C295.289 83.2113 295.341 81.0684 295.398 78.916C295.417 77.8304 295.436 76.7542 295.455 75.6875C295.473 74.6208 295.511 73.5446 295.568 72.459C296.229 72.2135 296.88 72.0106 297.522 71.8501C298.164 71.6896 298.806 71.5669 299.448 71.4819C300.099 71.3875 300.755 71.3262 301.416 71.2979C302.086 71.2601 302.771 71.2412 303.469 71.2412C304.545 71.2412 305.584 71.3923 306.584 71.6943C307.595 71.987 308.487 72.4307 309.261 73.0254C310.035 73.6201 310.653 74.3612 311.116 75.2485C311.588 76.1359 311.824 77.1696 311.824 78.3496ZM305.48 78.8027C305.48 78.4062 305.423 78.0428 305.31 77.7124C305.206 77.382 305.046 77.0988 304.829 76.8628C304.621 76.6174 304.357 76.4285 304.036 76.2964C303.724 76.1548 303.356 76.084 302.931 76.084C302.742 76.084 302.558 76.0981 302.379 76.1265C302.2 76.1453 302.025 76.1784 301.855 76.2256L301.628 81.4932H301.968C302.374 81.4932 302.785 81.4412 303.2 81.3374C303.625 81.2336 304.003 81.0731 304.333 80.856C304.673 80.6388 304.947 80.3604 305.154 80.0205C305.371 79.6807 305.48 79.2747 305.48 78.8027ZM328.858 80.7568C328.858 82.0785 328.688 83.2726 328.349 84.3394C328.009 85.3966 327.532 86.3407 326.918 87.1714C326.314 87.9927 325.592 88.7007 324.752 89.2954C323.912 89.8901 322.991 90.381 321.991 90.7681C320.99 91.1457 319.923 91.4289 318.791 91.6177C317.667 91.797 316.511 91.8867 315.321 91.8867C314.878 91.8867 314.443 91.8773 314.019 91.8584C313.594 91.8301 313.16 91.7923 312.716 91.7451L313.112 72.7422C314.151 72.4118 315.217 72.1805 316.312 72.0483C317.417 71.9067 318.512 71.8359 319.598 71.8359C320.948 71.8359 322.189 72.0389 323.322 72.4448C324.455 72.8507 325.432 73.436 326.253 74.2007C327.074 74.9653 327.711 75.8999 328.165 77.0044C328.627 78.1089 328.858 79.3597 328.858 80.7568ZM323.053 81.6631C323.062 81.1533 323.006 80.6624 322.883 80.1904C322.77 79.7184 322.576 79.3031 322.302 78.9443C322.038 78.5762 321.698 78.2835 321.283 78.0664C320.867 77.8398 320.372 77.7171 319.796 77.6982L319.229 86.4775C319.796 86.3926 320.31 86.2085 320.773 85.9253C321.236 85.6326 321.632 85.2786 321.962 84.8633C322.302 84.4385 322.562 83.9712 322.741 83.4614C322.93 82.9422 323.034 82.4089 323.053 81.8613V81.6631Z" fill="black"/>
<g filter="url(#filter0_d_3582_98)">
<rect x="2.60659" y="45.0343" width="133.338" height="193.109" rx="10.5" transform="rotate(-14.0756 2.60659 45.0343)" fill="#3F7F59" stroke="#DCD3C2"/>
<line x1="26.0571" y1="138.182" x2="155.213" y2="105.799" stroke="white" stroke-opacity="0.8"/>
<path d="M109.915 117.367C112.578 127.988 106.127 138.756 95.5068 141.419C84.8864 144.081 74.1182 137.631 71.4553 127.01C68.7925 116.39 75.2433 105.622 85.8637 102.959C96.4841 100.296 107.252 106.747 109.915 117.367ZM72.3293 126.791C74.8712 136.929 85.1499 143.086 95.2876 140.545C105.425 138.003 111.583 127.724 109.041 117.586C106.499 107.449 96.2205 101.291 86.0828 103.833C75.9452 106.375 69.7875 116.653 72.3293 126.791Z" fill="white" fill-opacity="0.8"/>
</g>
<defs>
<filter id="filter0_d_3582_98" x="0.342773" y="10.3418" width="180.827" height="224.268" filterUnits="userSpaceOnUse" color-interpolation-filters="sRGB">
<feFlood flood-opacity="0" result="BackgroundImageFix"/>
<feColorMatrix in="SourceAlpha" type="matrix" values="0 0 0 0 0 0 0 0 0 0 0 0 0 0 0 0 0 0 127 0" result="hardAlpha"/>
<feOffset/>
<feGaussianBlur stdDeviation="2"/>
<feComposite in2="hardAlpha" operator="out"/>
<feColorMatrix type="matrix" values="0 0 0 0 0 0 0 0 0 0 0 0 0 0 0 0 0 0 0.5 0"/>
<feBlend mode="normal" in2="BackgroundImageFix" result="effect1_dropShadow_3582_98"/>
<feBlend mode="normal" in="SourceGraphic" in2="effect1_dropShadow_3582_98" result="shape"/>
</filter>
</defs>
</svg>
