<svg width="391" height="320" viewBox="0 0 391 320" fill="none" xmlns="http://www.w3.org/2000/svg">
<path d="M325.26 43.0225C321.184 41.2091 316.716 41.4163 313.294 43.5802L313.202 43.6416C307.112 47.6788 300.743 53.6802 293.611 60.7028C295.266 57.1768 295.91 54.0312 295.535 51.2622C294.213 41.5483 287.743 35.1866 281.912 33.1919C278.575 32.0502 275.513 32.3744 273.4 34.0726C267.353 38.1879 256.24 47.2145 239.443 61.6614L238.279 62.6922C223.044 75.7496 205.693 91.1796 190.581 104.743C191.808 101.661 192.978 98.0476 193.852 94.4919C196.42 84.0546 196.199 76.1218 193.184 70.9251C188.235 62.4014 180.068 56.0655 175.028 54.8642C172.303 54.2196 170.415 54.9373 169.313 55.6484C167.784 56.6415 166.466 57.4947 155.161 81.2783L155.142 81.3728C152.933 85.9698 146.353 99.6554 141.949 104.479C141.684 104.761 141.406 105.061 141.11 105.368L140.916 105.569C140.668 105.824 140.42 106.079 140.162 106.344L139.933 106.579C139.651 106.867 139.356 107.16 139.046 107.465L138.894 107.617C136.747 109.745 134.098 112.278 131.297 114.963C125.126 120.863 117.447 128.206 110.926 135.308L110.865 135.379C110.42 135.863 109.986 136.343 109.547 136.825L109.428 136.957C108.991 137.445 108.566 137.928 108.116 138.434C105.218 141.741 102.867 144.688 100.966 147.397L100.913 147.471C98.9149 150.318 97.4459 152.831 96.4045 155.19C96.2762 155.494 96.1368 155.823 96.0056 156.209C95.8861 156.537 95.7748 156.869 95.668 157.212L95.6503 157.273C95.553 157.606 95.458 157.944 95.3792 158.291C95.2974 158.611 95.2245 158.955 95.1495 159.347C95.0582 159.786 94.9957 160.193 94.9605 160.476C94.7628 161.85 94.6657 163.349 94.6765 164.901C94.6776 165.298 94.6845 165.692 94.7018 166.097C94.7275 166.828 94.7709 167.553 94.8246 168.233C95.0208 170.618 95.4203 173.256 96.0047 176.027L96.0395 176.209C96.1441 176.702 96.2545 177.192 96.3695 177.695L96.4228 177.944L96.4273 177.956L96.4414 178.011C96.7898 179.51 97.1966 181.075 97.6789 182.786L97.7522 183.035C98.1093 184.288 98.4982 185.59 98.9152 186.894L98.9751 187.054C99.1285 187.568 99.2936 188.079 99.4624 188.581L99.4935 188.664C99.5195 188.768 99.555 188.863 99.5824 188.954L99.7194 189.353C99.8586 189.759 99.9941 190.173 100.133 190.578L100.236 190.85C100.327 191.146 100.432 191.443 100.547 191.783C100.631 192.008 100.707 192.228 100.783 192.449L100.981 192.974C101.042 193.153 101.103 193.332 101.163 193.511L101.259 193.765C101.381 194.09 101.497 194.416 101.631 194.79L101.787 195.203C102.144 196.153 102.501 197.083 102.857 197.993L102.893 198.088L103.56 199.77C103.615 199.917 103.674 200.057 103.728 200.198L104.357 201.726C104.524 202.135 104.689 202.537 104.854 202.92L105.223 203.812C105.33 204.061 105.438 204.31 105.545 204.559L105.672 204.862C105.714 204.974 105.763 205.084 105.804 205.176L106.561 206.918C107.227 208.419 107.91 209.927 108.61 211.428L108.795 211.83C108.864 211.979 108.932 212.122 108.997 212.259C108.778 212.503 108.56 212.747 108.339 212.985L108.063 213.291C107.977 213.384 107.892 213.483 107.806 213.576C107.378 214.034 106.931 214.478 106.479 214.925L106.132 215.277C105.554 215.839 104.956 216.4 104.35 216.939L104.293 216.987C104.164 217.11 104.021 217.231 103.88 217.358L103.768 217.454C103.667 217.546 103.561 217.64 103.447 217.73L103.307 217.843C103.185 217.95 103.057 218.058 102.922 218.163L101.896 218.987C101.704 219.14 101.506 219.296 101.265 219.481C100.836 219.811 100.396 220.145 99.9312 220.488C99.6513 220.695 99.3656 220.903 99.0702 221.122L97.7596 222.067C97.4716 222.27 97.174 222.483 96.8897 222.677L96.7457 222.779C96.4208 223.009 96.0841 223.243 95.7415 223.48L95.5642 223.601C94.5733 224.283 93.5432 224.988 92.4872 225.695L92.2672 225.845C91.9496 226.059 91.6299 226.267 91.2695 226.511C91.0436 226.663 90.8235 226.813 90.5835 226.964L90.492 227.026C90.0127 227.347 89.5313 227.663 89.0321 227.986L88.9774 228.02C88.2272 228.518 87.4607 229.009 86.6787 229.512L86.4719 229.644C85.7755 230.088 85.0733 230.534 84.3732 230.986L84.1487 231.124C83.6473 231.441 75.6265 236.872 57.4427 249.194C55.4386 250.554 53.368 251.954 51.282 253.365L55.091 263.484C57.629 261.767 60.3693 259.907 63.3415 257.892C75.883 249.399 88.8431 240.62 89.7942 239.992L90.0069 239.858C90.7129 239.404 91.421 238.956 92.1757 238.469L92.3648 238.344C93.1645 237.834 93.9561 237.321 94.7396 236.804C95.2779 236.46 95.7963 236.116 96.3088 235.775C96.5857 235.597 96.8545 235.415 97.0864 235.26C97.4334 235.035 97.7665 234.809 98.1017 234.588L98.3277 234.436C99.4383 233.694 100.511 232.96 101.545 232.248L101.728 232.125C102.098 231.871 102.466 231.612 102.775 231.394L102.91 231.303C103.225 231.083 103.538 230.858 103.859 230.636L105.281 229.609C105.597 229.375 105.91 229.15 106.215 228.92C106.721 228.541 107.204 228.178 107.717 227.783C107.951 227.6 108.186 227.417 108.396 227.257L109.173 226.635C109.261 226.561 109.35 226.494 109.437 226.421C109.675 226.23 109.906 226.036 110.13 225.843C110.363 225.655 110.581 225.465 110.748 225.315L110.807 225.258C111.004 225.083 111.202 224.908 111.389 224.743C112.085 224.117 112.773 223.474 113.442 222.832C113.552 222.73 113.654 222.624 113.762 222.516L113.864 222.41C114.399 221.879 114.934 221.347 115.455 220.794C115.61 220.635 115.756 220.465 115.904 220.302L116.099 220.087C116.525 219.623 116.943 219.156 117.353 218.685C117.595 218.399 117.826 218.116 118.061 217.826L118.426 217.379C118.758 216.971 119.09 216.563 119.404 216.142L119.855 210.549L119.673 210.173C119.414 209.645 118.952 208.687 118.315 207.337L118.139 206.958C117.483 205.555 116.831 204.11 116.208 202.707L115.221 200.425C115.109 200.164 115 199.909 114.886 199.642L114.571 198.878C114.415 198.499 114.251 198.116 114.092 197.731L113.516 196.325C113.449 196.148 113.38 195.965 113.304 195.798L112.663 194.167C112.324 193.304 111.985 192.422 111.639 191.501L111.51 191.159C111.381 190.817 111.25 190.469 111.117 190.115L111.106 190.085C111.027 189.859 110.947 189.626 110.86 189.396L110.658 188.859C110.597 188.68 110.537 188.501 110.488 188.371C110.38 188.048 110.261 187.716 110.147 187.395L110.06 187.165C109.936 186.78 109.806 186.398 109.678 186.022L109.443 185.309C109.285 184.836 109.131 184.355 108.977 183.874L108.926 183.739L108.932 183.737C108.553 182.532 108.187 181.329 107.872 180.222L107.802 179.965C107.359 178.394 106.99 176.984 106.682 175.645L106.662 175.558L106.625 175.404C106.524 174.957 106.425 174.516 106.338 174.104L106.304 173.942C105.799 171.545 105.462 169.341 105.303 167.36C105.256 166.839 105.227 166.297 105.21 165.751L105.205 165.666C105.192 165.415 105.189 165.173 105.188 164.884C105.183 163.815 105.24 162.837 105.366 161.988L105.377 161.91C105.395 161.761 105.416 161.619 105.444 161.48L105.485 161.283C105.51 161.152 105.529 161.024 105.562 160.897L105.578 160.777L105.602 160.734C105.642 160.571 105.684 160.413 105.728 160.262C105.774 160.117 105.821 159.971 105.869 159.832L105.916 159.686L105.927 159.662C105.961 159.555 106.007 159.463 106.031 159.4C106.767 157.736 107.939 155.759 109.474 153.564L109.527 153.49C111.223 151.08 113.399 148.348 116.029 145.351C116.431 144.896 116.833 144.442 117.213 144.016L117.36 143.852C117.769 143.396 118.179 142.945 118.611 142.479L118.659 142.427C124.952 135.579 132.174 128.67 138.547 122.573C141.389 119.853 144.072 117.287 146.302 115.073L146.454 114.922C146.777 114.598 147.091 114.285 147.389 113.984L147.628 113.739C147.92 113.44 148.199 113.16 148.46 112.887L148.683 112.654C149.018 112.306 149.34 111.963 149.673 111.608C153.474 107.443 158.088 99.5018 164.64 85.8672L164.656 85.7668C170.113 74.2957 173.008 68.7262 174.493 66.0587C177.031 67.6564 181.107 71.1538 184.043 76.2119C185.195 78.1965 185.7 83.3208 183.662 91.7403C181.939 98.8486 179.425 104.248 178.634 105.354C176.683 107.159 166.175 112.078 157.464 115.586L155.088 117.498L147.246 128.944L147.358 135.046L154.102 144.126L158.653 141.342L161.869 144.867L170.988 136.564L171.005 136.557C173.489 134.302 176.407 131.661 179.66 128.725C182.096 126.522 184.713 124.156 187.475 121.654L187.514 121.613C204.527 106.289 226.444 86.6619 245.115 70.6539L246.288 69.6128C261.965 56.1332 272.838 47.2575 278.642 43.2135C280.411 43.9151 284.241 46.7436 285.054 52.7021C285.351 54.8874 282.017 62.555 267.272 75.9466C255.65 86.5054 244.811 93.4284 242.526 94.0257L242.127 96.3179L241.196 94.6679C239.917 95.3919 239.178 95.8316 239.178 95.8316L238.159 96.6193L203.301 131.311L202.846 131.34L202.691 131.5L202.635 138.897L205.653 141.984L212.734 142.39C213.003 142.174 239.975 120.347 268.479 98.1856L268.53 98.1397C278.977 89.9969 288.48 80.5657 296.865 72.2494C305.279 63.902 312.547 56.6865 318.907 52.4533C319.261 52.246 320.009 52.227 320.924 52.6305C321.775 53.0105 324.633 54.6696 325.529 60.0442C325.668 60.8609 325.756 61.6496 325.802 62.3801L325.856 62.8649C325.877 62.9918 325.875 63.0597 325.877 63.0656L325.883 63.0634L325.836 63.3306C325.843 67.0596 324.478 68.4693 322.221 70.8075C321.6 71.4521 320.954 72.1197 320.311 72.8669L320.57 73.8944L320.166 73.6627L320.194 73.6117L320.102 73.7609L322.362 81.074L322.402 81.1802C323.503 81.7022 326.033 84.178 326.693 86.503C327.006 87.6042 326.719 88.0423 326.564 88.2758L326.417 88.513C326.369 88.5987 321.206 97.3927 311.095 108.023C310.977 108.141 310.868 108.263 310.763 108.397L310.744 108.417C310.744 108.417 310.75 108.415 310.754 108.407L310.586 108.571C307.527 111.717 304.641 114.426 301.774 116.846C301.521 117.016 301.284 117.212 301.063 117.43L301.052 117.455C300.819 117.643 300.587 117.832 300.354 118.021L300.199 118.146L300.354 118.378C295.864 121.954 291.27 124.909 286.677 127.171L285.313 128.135L241.929 170.771L241.504 170.77L241.178 171.088L241.163 178.591L248.599 185.908L255.823 186.065C255.823 186.065 271.283 172.135 287.271 157.744L299.969 146.315L300.026 146.307C304.52 142.258 308.71 138.498 312.215 135.353L314.877 132.963C316.082 133.816 318.08 136.129 319.184 139.243C320.072 141.745 320.086 143.969 319.226 145.196L318.904 145.721L318.942 145.66C317.863 147.399 310.167 155.342 301.848 162.973C295.557 168.77 286.618 171.798 286.535 171.829L284.659 172.92L251.897 202.41L251.791 202.504C251.706 202.583 242.987 210.856 231.794 220.708C231.563 220.902 231.329 221.105 231.094 221.322C230.953 221.449 230.802 221.586 230.649 221.718L230.574 221.787C211.134 238.872 196.361 250.146 188.628 253.798L158.224 249.158L154.389 250.063C151.787 251.898 97.0457 290.544 72.1803 308.951L76.0338 319.187C97.3253 303.311 148.632 267.009 158.723 259.875L188.535 264.428L191.296 264.11C199.926 260.639 215.466 249.07 237.49 229.712C237.721 229.517 237.943 229.319 238.153 229.125C238.294 228.998 238.43 228.873 238.563 228.762L238.691 228.653C249.612 219.046 258.233 210.89 258.985 210.182L290.926 181.432C293.93 180.308 302.368 176.809 308.967 170.72C309.128 170.573 324.896 156.082 327.97 151.058C333.625 142.712 328.273 130.682 322.35 125.502C317.912 121.616 313.682 121.598 310.729 123.02C313.132 120.889 315.555 118.563 318.074 115.971C318.166 115.875 318.26 115.786 318.35 115.685C318.491 115.538 318.629 115.385 318.761 115.234C329.231 104.213 334.738 95.1142 335.451 93.9093C337.39 90.8691 337.863 87.323 336.818 83.6343C335.959 80.6167 334.141 77.8119 332.06 75.6179C334.245 72.9633 336.311 69.3295 336.356 63.5533L336.396 63.3562C336.413 62.7569 336.38 62.1297 336.292 61.5026C336.221 60.4717 336.092 59.3953 335.909 58.299C334.703 51.0807 330.804 45.5093 325.212 43.0204L325.26 43.0225ZM172.637 120.928C169.38 123.872 166.45 126.518 163.959 128.789L163.941 128.796L159.121 133.177L158.083 131.782L162.913 124.737C166.076 123.445 169.89 121.821 173.561 120.102C173.254 120.38 172.946 120.657 172.645 120.932L172.637 120.928ZM293.048 138.486L292.991 138.495L280.296 149.915L280.256 149.951C270.728 158.529 261.382 166.944 255.391 172.338L292.141 136.221C295.681 134.424 299.206 132.282 302.679 129.823C299.763 132.436 296.498 135.376 293.052 138.478L293.048 138.486ZM309.286 123.934C309.088 124.089 308.898 124.248 308.716 124.411L308.425 124.675L310.048 121.013C310.093 122.047 309.822 123.065 309.288 123.94L309.286 123.934Z" fill="white"/>
<path d="M315.794 132.187L315.768 132.21C315.768 132.21 315.784 132.197 315.794 132.187Z" fill="white"/>
<path d="M318.732 115.319L318.589 115.46C318.64 115.415 318.682 115.365 318.732 115.319Z" fill="white"/>
<path d="M318.907 115.118L318.851 115.186C318.851 115.186 318.89 115.144 318.907 115.118Z" fill="white"/>
<path d="M310.766 108.456C310.718 108.508 310.683 108.541 310.651 108.581L310.766 108.456Z" fill="white"/>
<path d="M310.779 108.438C310.779 108.438 310.767 108.442 310.769 108.449L310.782 108.444L310.779 108.438Z" fill="white"/>
<path d="M280.267 42.0291L279.724 42.4692C279.907 42.3464 280.09 42.2036 280.267 42.0291Z" fill="white"/>
<path d="M317.633 51.451C304.087 60.4303 285.835 78.0183 265.319 94.0001L265.293 94.023C236.418 116.472 209.464 138.293 209.464 138.293L206.447 135.205L241.521 100.298C241.521 100.298 242.22 99.8798 243.433 99.1943C248.515 96.1899 262.334 87.8285 266.556 82.3593C271.752 75.6072 287.334 55.872 288.968 51.9696C291.365 46.2579 278.693 36.2158 276.595 38.2585C270.098 42.6307 257.498 53.0658 242.872 65.6447C242.872 65.6447 242.673 65.834 242.277 66.1786C242.135 66.3198 241.957 66.4942 241.734 66.6526C222.776 82.9031 200.707 102.682 184.007 117.726L183.981 117.749C177.529 123.6 171.845 128.717 167.5 132.676L158.366 140.992L151.62 131.905L159.461 120.459C159.461 120.459 179.808 112.254 182.693 108.736C185.625 105.214 193.905 82.6775 188.628 73.5698C183.33 64.4431 174.214 58.7406 172.177 60.0667C171.029 60.8155 165.892 70.9674 159.913 83.5442L159.913 83.5981C155.15 93.5079 149.912 103.57 145.805 108.073C136.395 118.217 107.809 142.403 101.234 157.285C101.137 157.511 101.04 157.736 100.957 157.983C100.945 157.987 100.94 158.009 100.939 158.023C100.854 158.264 100.775 158.502 100.695 158.755C100.626 159.003 100.554 159.259 100.49 159.519C100.484 159.521 100.483 159.535 100.487 159.547C100.419 159.815 100.36 160.087 100.31 160.368C100.247 160.648 100.206 160.933 100.167 161.224C99.9949 162.38 99.922 163.62 99.9333 164.922C99.9358 165.251 99.9383 165.58 99.957 165.917C99.9745 166.537 100.013 167.176 100.067 167.822C100.162 168.952 100.304 170.118 100.485 171.316C100.573 171.909 100.684 172.507 100.793 173.12C100.914 173.781 101.047 174.459 101.185 175.148C101.298 175.698 101.425 176.25 101.554 176.807C101.556 176.813 101.564 176.817 101.561 176.825C101.708 177.45 101.864 178.078 102.022 178.713C102.105 179.025 102.185 179.345 102.271 179.663C102.351 179.983 102.429 180.297 102.529 180.617C102.615 180.934 102.707 181.25 102.793 181.568C103.151 182.841 103.534 184.111 103.936 185.375C104.034 185.688 104.139 186.005 104.245 186.322C104.345 186.642 104.45 186.973 104.558 187.296C104.769 187.91 104.976 188.533 105.185 189.141C105.295 189.45 105.407 189.765 105.508 190.071C105.618 190.38 105.733 190.686 105.84 190.99C105.947 191.273 106.056 191.562 106.147 191.858C106.287 192.229 106.427 192.601 106.559 192.969C106.974 194.072 107.383 195.158 107.802 196.219C108.002 196.75 108.212 197.271 108.425 197.783C108.492 197.96 108.56 198.123 108.63 198.292C108.819 198.76 109.007 199.221 109.198 199.675C109.488 200.374 109.771 201.055 110.046 201.713C110.181 202.019 110.311 202.327 110.438 202.63C110.5 202.775 110.563 202.926 110.625 203.071C110.883 203.668 111.132 204.241 111.375 204.796C113.023 208.527 114.347 211.275 114.908 212.405C114.936 212.482 114.969 212.55 114.999 212.613C115.118 212.858 115.189 212.993 115.189 212.993C113.052 215.845 110.534 218.457 107.856 220.859C107.69 221.009 107.514 221.17 107.325 221.329C107.149 221.489 106.955 221.656 106.754 221.82C106.554 221.989 106.357 222.164 106.138 222.335C105.737 222.667 105.313 223.009 104.853 223.364C104.294 223.797 103.701 224.249 103.074 224.714C102.689 225 102.287 225.293 101.881 225.594C101.223 226.071 100.539 226.564 99.8226 227.063C99.2098 227.496 98.5791 227.935 97.9249 228.384C96.7353 229.202 95.4984 230.038 94.2099 230.88C93.9566 231.049 93.7033 231.219 93.4382 231.393C92.9316 231.732 92.4169 232.067 91.8845 232.409C91.0796 232.941 90.2666 233.469 89.4454 233.994C88.6944 234.472 87.9397 234.958 87.1791 235.447C87.1186 235.483 87.058 235.519 86.9915 235.558C86.4163 235.929 69.253 247.557 53.1959 258.431L74.1401 314.067C98.7721 295.775 157.462 254.355 157.462 254.355L189.371 259.23C199.326 255.227 218.828 239.148 234.084 225.733C234.508 225.371 234.88 225.016 235.255 224.706C246.689 214.649 255.453 206.318 255.453 206.318L288.215 176.828C288.215 176.828 298.189 173.539 305.451 166.844C312.706 160.186 322.228 150.714 323.576 148.219C326.547 142.743 314.983 125.985 312.23 128.315C308.212 131.923 302.657 136.897 296.549 142.409L296.516 142.394C277.246 159.733 252.343 182.162 252.343 182.162L244.906 174.844L245.049 174.703L288.644 131.859C294.518 128.968 299.929 125.26 304.783 121.237C304.783 121.201 304.8 121.186 304.833 121.191C308.297 118.297 311.511 115.221 314.405 112.246L314.43 112.223C314.528 112.126 314.629 112.034 314.696 111.908C314.802 111.867 314.844 111.764 314.923 111.687C325.674 100.392 331.01 91.1622 331.01 91.1622C334.912 85.2006 327.692 77.579 324.341 76.2942C327.725 72.3459 331.175 63.2133 331.175 63.2133C331.343 57.3704 322.262 48.516 317.627 51.4532L317.633 51.451Z" fill="url(#paint0_linear_4115_240)"/>
<path d="M159.914 83.5443L159.914 83.5982C155.151 93.508 149.912 103.57 145.806 108.073C137.728 116.792 115.492 135.86 105.225 150.502C124.213 140.801 158.369 140.998 158.369 140.998L151.622 131.911L159.463 120.465C159.463 120.465 179.811 112.26 182.696 108.742C185.627 105.22 193.907 82.6835 188.63 73.5758C183.333 64.4491 174.217 58.7466 172.18 60.0727C171.031 60.8215 165.894 70.9734 159.916 83.5502L159.914 83.5443Z" fill="url(#paint1_linear_4115_240)"/>
<path d="M252.339 182.17L255.453 206.318L288.215 176.828C288.215 176.828 298.189 173.539 305.451 166.844C312.706 160.186 321.955 150.527 323.576 148.22C329.435 139.877 317.638 123.343 312.23 128.315C308.255 131.967 302.657 136.897 296.549 142.409L296.516 142.395C277.246 159.733 252.343 182.162 252.343 182.162L252.339 182.17Z" fill="url(#paint2_linear_4115_240)"/>
<path d="M304.835 121.197C308.3 118.303 311.513 115.227 314.407 112.252L314.432 112.229C314.531 112.131 314.631 112.04 314.698 111.913C314.804 111.873 314.846 111.77 314.925 111.693C325.677 100.398 331.013 91.168 331.013 91.168C334.914 85.2064 327.694 77.5848 324.343 76.3C327.727 72.3517 332.529 69.7493 330.763 59.1787C329.022 48.7667 320.744 45.0929 316.109 48.0302C302.563 57.0095 285.831 78.0264 265.317 94.014L265.292 94.0369C236.417 116.486 209.463 138.307 209.463 138.307L245.05 174.722L288.645 131.879C294.519 128.987 299.93 125.28 304.784 121.257C304.784 121.221 304.8 121.205 304.834 121.211L304.835 121.197Z" fill="url(#paint3_linear_4115_240)"/>
<path d="M243.429 99.2023C250.484 98.2105 292.192 65.7839 290.315 51.9811C288.761 40.5423 278.689 36.2238 276.591 38.2665C270.095 42.6387 257.495 53.0739 242.869 65.6527C242.869 65.6527 242.67 65.842 242.273 66.1866C242.131 66.3278 241.954 66.5023 241.73 66.6606L241.593 66.7796C222.66 83.0073 200.657 102.728 184.001 117.728L183.976 117.751L206.441 135.207L241.515 100.3C241.515 100.3 242.004 99.3952 243.427 99.1964L243.429 99.2023Z" fill="url(#paint4_linear_4115_240)"/>
<g style="mix-blend-mode:multiply" opacity="0.6">
<path fill-rule="evenodd" clip-rule="evenodd" d="M171.83 201.431C171.83 201.431 172.744 165.582 158.365 140.986L167.487 132.675C167.487 132.675 221.937 172.66 225.956 198.192C225.956 198.192 208.083 212.451 198.642 213.499C189.201 214.547 171.836 201.429 171.836 201.429L171.83 201.431Z" fill="#F3BAC0"/>
</g>
<path style="mix-blend-mode:multiply" opacity="0.6" fill-rule="evenodd" clip-rule="evenodd" d="M242.279 66.1848C242.676 65.8402 242.874 65.6509 242.874 65.6509L241.736 66.6588C241.957 66.4945 242.137 66.326 242.279 66.1848Z" fill="url(#paint5_linear_4115_240)"/>
<g style="mix-blend-mode:multiply" opacity="0.2">
<path fill-rule="evenodd" clip-rule="evenodd" d="M184.404 117.759L184.378 117.782L203.503 132.636L203.522 132.649L206.85 135.235L235.3 106.924L241.93 100.326C241.93 100.326 242.629 99.908 243.842 99.2225C243.018 98.7177 232.689 92.1584 229.042 86.8426C225.904 82.2712 237.952 70.5485 242.013 66.8035L184.421 117.752L184.404 117.759Z" fill="#F3BAC0"/>
</g>
<g style="mix-blend-mode:multiply" opacity="0.2">
<path fill-rule="evenodd" clip-rule="evenodd" d="M209.863 138.331L245.448 174.741L287.541 133.372L289.043 131.897C294.917 129.006 300.328 125.298 305.182 121.275C301.493 123.627 296.981 125.582 291.71 125.882L284.586 113.354C284.586 113.354 319.994 84.5318 324.737 76.3267C324.737 76.3267 299.527 99.9289 281.921 110.632C281.921 110.632 262.52 108.627 265.681 94.0658C259.814 98.6251 254.033 103.159 248.533 107.493C226.964 124.477 209.857 138.333 209.857 138.333L209.863 138.331Z" fill="#D87290"/>
</g>
<path style="mix-blend-mode:multiply" opacity="0.6" fill-rule="evenodd" clip-rule="evenodd" d="M314.923 111.687C314.775 111.884 314.601 112.051 314.43 112.223C314.794 111.756 315.037 111.415 315.135 111.264L314.923 111.687Z" fill="url(#paint6_linear_4115_240)"/>
<g style="mix-blend-mode:multiply" opacity="0.2">
<path fill-rule="evenodd" clip-rule="evenodd" d="M252.34 182.169L252.997 187.23L252.991 187.232L255.456 206.324L288.218 176.834L280.45 168.798L296.546 142.417L296.513 142.402C292.435 146.066 288.11 149.971 283.815 153.831L283.796 153.851C267.808 168.243 252.342 182.175 252.342 182.175L252.34 182.169Z" fill="#F3BAC0"/>
</g>
<g style="mix-blend-mode:multiply" opacity="0.3">
<path fill-rule="evenodd" clip-rule="evenodd" d="M158.364 140.986C158.364 140.986 174.936 167.714 171.678 193.789C171.678 193.789 182.636 167.004 167.486 132.675L158.364 140.986Z" fill="#D87290"/>
</g>
<g style="mix-blend-mode:multiply" opacity="0.6">
<path d="M120.227 211.07C115.062 206.453 106.361 185.115 100.073 167.82C101.571 185.922 115.201 212.989 115.201 212.989C115.07 213.159 114.937 213.344 114.8 213.517C112.757 216.172 110.382 218.609 107.87 220.861C103.744 224.65 78.1756 241.941 53.2097 258.433L54.0582 260.687C82.0019 243.808 112.28 224.852 118.285 218.671C120.463 216.43 121.606 214.41 121.261 212.762C121.132 212.15 120.797 211.582 120.229 211.076L120.227 211.07Z" fill="#F3BAC0"/>
</g>
<g style="mix-blend-mode:multiply" opacity="0.5">
<path d="M100.067 167.822C101.565 185.924 115.195 212.991 115.195 212.991C115.064 213.161 121.247 212.76 121.247 212.76L121.253 212.758C121.122 212.14 120.789 211.579 120.22 211.072C115.055 206.455 106.355 185.117 100.067 167.822Z" fill="#D87290"/>
</g>
<path style="mix-blend-mode:screen" d="M163.254 223.649C160.279 228.81 128.046 195.658 121.249 173.462C116.519 158.012 121.248 155.343 123.701 153.49C126.154 151.637 144.244 147.023 153.61 157.245C162.977 167.467 171.746 208.879 163.248 223.651L163.254 223.649Z" fill="url(#paint7_linear_4115_240)"/>
<path style="mix-blend-mode:screen" d="M206.544 142.686C207.561 139.885 234.404 166.336 244.749 181.471C250.231 189.491 248.211 213.013 241.815 205.896C232.609 195.653 203.627 150.689 206.542 142.68L206.544 142.686Z" fill="url(#paint8_linear_4115_240)"/>
<g style="mix-blend-mode:soft-light" opacity="0.97">
<path d="M115.303 194.602C115.303 194.602 107.304 178.139 106.446 174.535C105.589 170.931 102.016 161.727 104.352 158.093C106.687 154.459 127.232 130.255 127.232 130.255C127.232 130.255 108.438 154.952 106.379 161.095C104.32 167.239 115.303 194.602 115.303 194.602Z" fill="#F5FFFF"/>
</g>
<g style="mix-blend-mode:soft-light" opacity="0.97">
<path d="M71.7298 307.646L72.918 310.802C105.953 286.841 148.487 254.851 148.487 254.851C148.487 254.851 105.219 285.319 71.7298 307.646Z" fill="#F5FFFF"/>
</g>
<g style="mix-blend-mode:soft-light" opacity="0.97">
<path d="M221.878 227.088C221.878 227.088 203.239 247.017 194.814 251.374C186.389 255.732 171.433 251.359 171.433 251.359C171.433 251.359 183.447 253.006 194.864 246.829C206.28 240.652 221.884 227.085 221.884 227.085L221.878 227.088Z" fill="#F5FFFF"/>
</g>
<g style="mix-blend-mode:soft-light" opacity="0.97">
<path d="M276.809 40.2793C276.809 40.2793 283.627 52.1007 284.723 60.4785C284.723 60.4785 288.269 53.9839 286.367 48.6982C284.464 43.4125 276.809 40.2793 276.809 40.2793Z" fill="#F5EE8F"/>
</g>
<g style="mix-blend-mode:soft-light" opacity="0.97">
<path d="M282.208 63.4392C282.208 63.4392 258.83 85.9947 242.445 93.0588C242.445 93.0588 257.765 88.147 269.145 78.8446C280.525 69.5422 282.208 63.4392 282.208 63.4392Z" fill="#F5FFFF"/>
</g>
<g style="mix-blend-mode:soft-light" opacity="0.97">
<path d="M314.331 130.542C314.331 130.542 319.682 139.811 320.536 146.38C320.536 146.38 323.127 141.329 321.822 137.146C320.014 131.34 314.037 129.009 314.325 130.544L314.331 130.542Z" fill="#F5EE8F"/>
</g>
<g style="mix-blend-mode:soft-light" opacity="0.97">
<path d="M318.569 148.703C318.569 148.703 300.235 166.396 287.384 171.934C287.384 171.934 299.4 168.084 308.323 160.785C317.246 153.485 318.569 148.703 318.569 148.703Z" fill="#F5FFFF"/>
</g>
<g style="mix-blend-mode:soft-light" opacity="0.97">
<path d="M318.402 49.8545C318.402 49.8545 324.875 62.3178 326.292 70.5076C326.292 70.5076 329.519 64.3486 327.428 59.1341C325.342 53.9173 318.402 49.8545 318.402 49.8545Z" fill="#F5EE8F"/>
</g>
<g style="mix-blend-mode:soft-light" opacity="0.97">
<path d="M324.965 77.7559C325.971 78.563 326.913 79.4542 327.641 80.4197C330.725 84.5262 329.575 89.7686 329.575 89.7686C328.111 86.8304 325.573 83.2594 323.218 80.212C323.891 79.4537 324.471 78.6291 324.963 77.75L324.965 77.7559Z" fill="#F5EE8F"/>
</g>
<g style="mix-blend-mode:soft-light" opacity="0.97">
<path d="M327.539 91.2767C327.539 91.2767 308.942 114.275 295.025 124.115C295.025 124.115 308.004 116.461 317.763 105.593C327.527 94.723 327.539 91.2767 327.539 91.2767Z" fill="#F5FFFF"/>
</g>
<g style="mix-blend-mode:soft-light" opacity="0.97">
<path d="M174.188 64.2402C174.188 64.2402 183.07 70.9733 187.081 76.5025C187.081 76.5025 185.033 70.0392 181.768 66.7957C178.502 63.5522 174.193 64.238 174.193 64.238L174.188 64.2402Z" fill="#F5EE8F"/>
</g>
<g style="mix-blend-mode:soft-light" opacity="0.97">
<path d="M173.041 66.6461C173.041 66.6461 163.336 90.0225 163.863 104.61C163.863 104.61 161.955 91.3171 165.277 80.2859C168.599 69.2546 173.041 66.6461 173.041 66.6461Z" fill="#F5FFFF"/>
</g>
<g style="mix-blend-mode:soft-light" opacity="0.97">
<path d="M54.59 262.116L55.2829 263.957C81.004 247.679 108.48 229.165 119.497 217.911C119.497 217.911 86.1512 240.851 54.59 262.116Z" fill="#F5FFFF"/>
</g>
<path fill-rule="evenodd" clip-rule="evenodd" d="M266.993 123.5L226.377 155.603L229.007 158.291C237.22 146.577 251.935 136.706 266.993 123.5Z" fill="#B24D61"/>
<g style="mix-blend-mode:multiply" opacity="0.3">
<path fill-rule="evenodd" clip-rule="evenodd" d="M266.992 123.499L226.376 155.602L236.044 165.496C237.882 162.87 236.291 155.595 236.291 155.595L285.465 110.315L266.99 123.494L266.992 123.499Z" fill="#D87290"/>
</g>
<g style="mix-blend-mode:multiply" opacity="0.3">
<path fill-rule="evenodd" clip-rule="evenodd" d="M196.199 127.248L203.115 132.627L206.443 135.213L241.515 100.3C223.802 114.088 205.482 128.987 196.199 127.248Z" fill="#D87290"/>
</g>
<g style="mix-blend-mode:multiply" opacity="0.3">
<path fill-rule="evenodd" clip-rule="evenodd" d="M283.793 153.846C267.805 168.238 252.339 182.17 252.339 182.17L252.997 187.231C260.285 177.865 271.513 166.169 283.793 153.846Z" fill="#D87290"/>
</g>
<g style="mix-blend-mode:multiply" opacity="0.3">
<path fill-rule="evenodd" clip-rule="evenodd" d="M240.169 169.716L245.051 174.709L287.144 133.34C271.214 147.366 255.535 159.621 240.169 169.716Z" fill="#D87290"/>
</g>
<g style="mix-blend-mode:multiply" opacity="0.31">
<path d="M198.649 249.54C198.649 249.54 176.068 245.02 151.27 221.477C126.462 197.924 113.32 160.522 113.32 160.522C126.785 140.075 158.368 140.998 158.368 140.998L151.621 131.911L159.462 120.465C159.462 120.465 179.809 112.26 182.695 108.742C175.809 112.082 162.779 108.041 161.013 106.126C159.294 104.268 159.871 84.8327 159.92 83.6017C155.158 93.5115 149.919 103.574 145.813 108.077C136.402 118.22 107.816 142.406 101.242 157.289C101.144 157.514 101.047 157.74 100.964 157.986C100.953 157.991 100.947 158.013 100.946 158.027C100.861 158.268 100.782 158.506 100.702 158.759C100.633 159.007 100.561 159.263 100.497 159.523C100.491 159.525 100.49 159.539 100.494 159.551C100.427 159.819 100.367 160.09 100.318 160.372C100.254 160.652 100.213 160.936 100.174 161.227C100.002 162.383 99.9293 163.623 99.9406 164.926C99.9431 165.255 99.9456 165.584 99.9643 165.92C99.9818 166.54 100.02 167.179 100.074 167.826C100.169 168.955 100.311 170.121 100.492 171.319C100.581 171.912 100.691 172.511 100.8 173.123C100.921 173.785 101.055 174.462 101.193 175.151C101.309 175.693 101.432 176.253 101.561 176.811C101.563 176.817 101.572 176.82 101.568 176.829C101.715 177.453 101.871 178.082 102.029 178.716C102.113 179.028 102.193 179.348 102.279 179.666C102.359 179.986 102.436 180.301 102.536 180.62C102.622 180.938 102.714 181.254 102.8 181.572C103.158 182.845 103.542 184.115 103.943 185.378C104.041 185.692 104.147 186.009 104.253 186.326C104.353 186.645 104.457 186.977 104.565 187.3C104.776 187.914 104.984 188.536 105.192 189.145C105.302 189.454 105.414 189.769 105.515 190.074C105.625 190.383 105.74 190.69 105.848 190.993C105.954 191.276 106.063 191.565 106.154 191.861C106.294 192.233 106.434 192.605 106.566 192.973C106.981 194.076 107.39 195.161 107.81 196.223C108.01 196.754 108.219 197.274 108.432 197.787C108.499 197.964 108.567 198.127 108.637 198.296C108.827 198.763 109.014 199.225 109.205 199.678C109.495 200.377 109.779 201.059 110.053 201.717C110.189 202.023 110.318 202.331 110.446 202.633C110.507 202.778 110.571 202.93 110.632 203.075C110.89 203.672 111.14 204.244 111.383 204.8C113.03 208.531 114.355 211.279 114.915 212.409C114.944 212.485 114.976 212.554 115.007 212.617C115.126 212.861 115.197 212.996 115.197 212.996C113.059 215.849 110.541 218.46 107.863 220.863C107.697 221.013 107.522 221.173 107.332 221.332C107.156 221.493 106.963 221.66 106.761 221.823C106.562 221.993 106.365 222.168 106.145 222.338C105.744 222.671 105.32 223.013 104.86 223.368C104.301 223.8 103.709 224.252 103.081 224.718C102.696 225.004 102.294 225.297 101.888 225.598C101.231 226.074 100.546 226.568 99.8299 227.066C99.217 227.499 98.5724 227.937 97.9322 228.387C96.7426 229.205 95.5057 230.042 94.2171 230.884C93.9639 231.053 93.7024 231.219 93.4455 231.396C92.9308 231.732 92.4124 232.075 91.8918 232.412C91.0869 232.944 90.2739 233.473 89.4527 233.997C88.7017 234.476 87.947 234.962 87.1864 235.45C87.1259 235.486 87.0653 235.523 86.9988 235.561C86.4236 235.933 69.2603 247.56 53.2032 258.435L74.1474 314.071C98.7794 295.778 157.469 254.359 157.469 254.359L189.379 259.234C199.333 255.23 218.835 239.152 234.091 225.737C222.852 235.289 198.649 249.54 198.649 249.54Z" fill="#D87290"/>
</g>
<g style="mix-blend-mode:multiply" opacity="0.3">
<path fill-rule="evenodd" clip-rule="evenodd" d="M209.863 138.331L223.92 152.715C224.26 151.469 219.327 142.36 219.327 142.36L227.832 129.041L248.539 107.491C226.97 124.475 209.863 138.331 209.863 138.331Z" fill="#D87290"/>
</g>
<defs>
<linearGradient id="paint0_linear_4115_240" x1="-25.0651" y1="371.415" x2="313.165" y2="40.8789" gradientUnits="userSpaceOnUse">
<stop offset="0.02" stop-color="#FFB880"/>
<stop offset="1" stop-color="#FF8777"/>
</linearGradient>
<linearGradient id="paint1_linear_4115_240" x1="147.098" y1="184.651" x2="148.243" y2="85.1654" gradientUnits="userSpaceOnUse">
<stop stop-color="#FF8777"/>
<stop offset="0.98" stop-color="#FFB880"/>
</linearGradient>
<linearGradient id="paint2_linear_4115_240" x1="251.167" y1="202.168" x2="322.083" y2="132.865" gradientUnits="userSpaceOnUse">
<stop stop-color="#FF8777"/>
<stop offset="0.98" stop-color="#FFB880"/>
</linearGradient>
<linearGradient id="paint3_linear_4115_240" x1="228.735" y1="158.243" x2="332.629" y2="56.7132" gradientUnits="userSpaceOnUse">
<stop stop-color="#FF8777"/>
<stop offset="0.98" stop-color="#FFB880"/>
</linearGradient>
<linearGradient id="paint4_linear_4115_240" x1="195.89" y1="130.161" x2="285.83" y2="42.2675" gradientUnits="userSpaceOnUse">
<stop stop-color="#FF8777"/>
<stop offset="0.98" stop-color="#FFB880"/>
</linearGradient>
<linearGradient id="paint5_linear_4115_240" x1="241.929" y1="67.0835" x2="243.017" y2="66.0203" gradientUnits="userSpaceOnUse">
<stop stop-color="#B060F4"/>
<stop offset="1" stop-color="#FFEADB"/>
</linearGradient>
<linearGradient id="paint6_linear_4115_240" x1="314.669" y1="112.499" x2="315.509" y2="111.678" gradientUnits="userSpaceOnUse">
<stop stop-color="#FFEADB"/>
<stop offset="0.99" stop-color="#B060F4"/>
</linearGradient>
<linearGradient id="paint7_linear_4115_240" x1="177.041" y1="207.688" x2="119.025" y2="158.56" gradientUnits="userSpaceOnUse">
<stop/>
<stop offset="0.04" stop-color="#0B0300"/>
<stop offset="0.4" stop-color="#6A1E00"/>
<stop offset="0.69" stop-color="#B03200"/>
<stop offset="0.89" stop-color="#DB3F00"/>
<stop offset="1" stop-color="#EC4400"/>
</linearGradient>
<linearGradient id="paint8_linear_4115_240" x1="236.177" y1="107.803" x2="290.358" y2="153.683" gradientUnits="userSpaceOnUse">
<stop/>
<stop offset="0.04" stop-color="#0B0300"/>
<stop offset="0.4" stop-color="#6A1E00"/>
<stop offset="0.69" stop-color="#B03200"/>
<stop offset="0.89" stop-color="#DB3F00"/>
<stop offset="1" stop-color="#EC4400"/>
</linearGradient>
</defs>
</svg>
