<svg width="413" height="370" viewBox="0 0 413 370" fill="none" xmlns="http://www.w3.org/2000/svg">
<path d="M62.2644 284.641L64.8739 276.765C110.265 248.844 159.86 216.678 165.796 210.238C169.326 201.162 166.62 163.451 163.486 138.852C159.125 120.783 163.174 102.578 169.463 96.0196C171.933 93.4349 178.475 88.5871 188.944 80.8859L192.369 78.3671C197.982 74.234 204.931 69.0459 208.881 65.6258C213.754 61.4221 219.025 55.2713 223.259 50.3367C228.301 44.4621 231.049 41.3267 233.637 39.8024C235.284 38.8276 237.361 38.096 239.801 37.6308C244.799 36.3749 249.102 36.3781 252.614 37.6454C253.694 37.8702 254.678 38.1449 255.535 38.4792C257.75 39.3293 261.118 41.645 270.142 48.0418C274.58 51.186 279.483 54.6604 284.292 57.8935C286.377 56.496 287.964 55.4954 289.104 54.8592C299.47 49.0584 321.095 48.2475 329.002 53.3556C337.034 58.5499 344.986 77.1137 343.924 88.2059C343.78 89.6977 343.433 91.1241 342.972 92.4392C345.523 93.8074 348.451 95.7596 351.51 98.5456C353.647 100.494 355.551 102.975 357.171 105.911C364.745 118.458 361.524 129.028 360.592 131.493C360.297 132.398 359.952 133.253 359.555 134.067C362.434 139.128 366.754 148.276 367.418 158.462C368.329 167.058 366.233 172.157 365.019 174.296C364.986 174.389 364.942 174.479 364.908 174.572L364.165 175.898C363.896 176.271 361.882 178.965 357.545 182.198C364.254 204.168 357.516 215.113 355.738 217.499C355.339 218.088 354.955 218.613 354.557 219.101C353.506 220.399 352.266 221.712 350.881 222.997L350.809 222.923L350.926 223.114C350.045 223.863 349.152 224.592 348.27 225.278C347.684 225.755 347.138 226.163 346.617 226.555L346.353 226.744C345.869 227.105 345.338 227.494 344.799 227.87L344.674 227.947C344.024 228.409 343.374 228.854 342.715 229.285C342.331 229.53 341.964 229.773 341.615 229.987L341.365 230.14C340.184 230.901 338.973 231.627 337.658 232.362C329.934 236.803 323.146 239.302 320.95 240.062C320.869 240.093 320.789 240.124 320.708 240.155C315.165 243.34 273.285 267.258 258.283 272.146C256.66 272.689 255.232 273.031 253.969 273.172C248.206 273.875 241.364 273.275 235.328 272.75C231.568 272.423 225.968 271.929 224.103 272.313C220.957 274.299 207.407 285.33 194.302 296.009C170.309 315.55 140.45 339.86 123.456 351.122L117.784 351.942C117.015 351.707 106.261 348.201 92.9967 334.718L62.2644 284.641ZM163.848 138.439L163.4 136.957C163.355 137.474 163.372 137.988 163.444 138.488L163.848 138.439ZM164.829 141.704L164.805 141.637L163.559 139.133C163.785 140.062 164.215 140.94 164.829 141.704Z" fill="white"/>
<path d="M243.758 95.7646C243.758 95.7646 283.95 65.3935 292.372 60.687C300.793 55.9805 319.922 55.4421 325.37 58.9627C330.818 62.4832 338.128 78.4525 337.263 87.5493C336.849 91.9056 333.331 95.9118 333.331 95.9118C333.331 95.9118 339.536 96.6676 347.009 103.473C354.492 110.281 358.357 126.907 351.594 133.919C351.594 133.919 366.094 154.359 358.719 171.969C358.719 171.969 356.091 175.611 349.541 179.441C349.541 179.441 358.707 203.362 349.358 214.85C340.009 226.337 317.895 234.023 317.895 234.023C317.895 234.023 290.69 219.632 262.202 171.456C233.714 123.28 243.754 95.758 243.754 95.758L243.758 95.7646Z" fill="url(#paint0_linear_4115_330)"/>
<path d="M171.443 213.908C171.443 213.908 171.489 213.879 171.528 213.765C178.018 204.186 174.232 154.651 170.077 137.641C170.065 137.621 170.081 137.603 170.062 137.587C170.066 137.549 170.053 137.529 170.053 137.529C165.86 120.516 170.113 105.002 174.293 100.644C176.792 98.0328 186.679 90.8602 196.34 83.7455C202.894 78.9174 209.332 74.0785 213.267 70.6771C223.021 62.255 233.257 47.787 237.031 45.5705C240.827 43.3312 249.344 43.2658 253.119 44.725C256.188 45.9028 271.287 57.4631 284.336 65.9625C287.291 67.9157 290.127 69.6888 292.717 71.1506C306.721 79.1097 324.837 85.8033 326.782 87.8963C327.422 88.5994 327.531 90.4884 327.102 92.8435C327.098 92.8819 327.091 92.9588 327.08 93.0291C326.656 95.4807 325.704 98.4009 324.324 101.095C324.304 101.107 324.279 101.168 324.259 101.18C322.955 103.674 321.257 105.939 319.212 107.402C319.212 107.402 318.916 107.584 318.37 107.919C310.518 112.239 282.839 113.986 262.417 96.2751L256.766 86.0337L256.512 85.5915C256.512 85.5915 244.841 93.1619 243.746 95.7897C243.723 95.8402 243.697 95.9013 243.712 95.9555C243.271 99.7217 260.289 135.45 262.197 171.477C262.197 171.477 292.433 213.736 310.505 229.077C310.552 229.139 310.586 229.181 310.644 229.2C312.161 230.478 313.57 231.579 314.909 232.432C315.068 232.543 315.23 232.616 315.388 232.727C316.197 233.263 316.978 233.68 317.72 233.958C317.793 234.004 317.844 234.027 317.894 234.05C317.894 234.05 271.443 260.819 256.191 265.787C254.99 266.19 253.969 266.445 253.19 266.533C242.631 267.816 226.673 264.063 221.472 266.123C216.289 268.199 148.234 326.663 119.735 345.547C119.735 345.547 89.8705 336.338 68.3606 282.476C68.3606 282.476 164.774 223.18 171.424 213.92L171.443 213.908Z" fill="url(#paint1_linear_4115_330)"/>
<g style="mix-blend-mode:multiply" opacity="0.31">
<path d="M346.557 218.017C345.758 218.707 344.916 219.386 344.098 220.015C343.567 220.449 343.056 220.827 342.529 221.222C341.434 222.049 340.303 222.833 339.196 223.567C338.792 223.824 338.393 224.087 338.015 224.328C336.766 225.14 335.55 225.859 334.338 226.539C327.082 230.711 320.668 233.081 318.592 233.785C318.161 233.968 317.91 234.032 317.91 234.032C317.859 234.008 317.798 233.982 317.735 233.939C316.981 233.596 316.2 233.179 315.404 232.708C315.245 232.597 315.083 232.524 314.925 232.414C295.173 220.621 262.666 180.208 262.666 180.208L259.05 198.337C259.05 198.337 256.232 174.151 250.968 149.166C248.625 137.971 245.769 126.648 242.464 117.249C239.233 108.104 235.57 100.807 231.508 97.2423C213.953 81.8283 196.346 83.7413 196.346 83.7413C202.9 78.9132 209.339 74.0743 213.273 70.6729C223.027 62.2508 233.264 47.7828 237.038 45.5663C235.27 53.678 258.995 82.673 263.135 85.3754C282.474 98.0012 318.849 98.488 323.077 95.2411C327.066 92.1951 326.83 88.4013 326.785 87.9305C327.171 89.6222 327.251 91.2575 327.108 92.8393C327.105 92.8777 327.098 92.9546 327.086 93.0248C326.773 96.0697 325.647 98.8249 324.331 101.091C324.311 101.103 324.285 101.164 324.265 101.176C321.996 105.032 319.218 107.398 319.218 107.398C319.218 107.398 318.922 107.579 318.376 107.914C317.957 108.19 317.353 108.578 316.646 109.049C308.243 114.568 282.119 132.067 281.641 138.002C281.091 145.059 300.442 170.408 305.603 168.799C310.737 167.205 351.585 133.933 351.585 133.933C340.384 145.471 307.114 171.276 305.584 173.166C304.061 175.051 316.156 195.836 321.021 195.249C325.577 194.735 346.626 181.301 349.257 179.642C336.944 188.719 317.204 201.395 317.204 201.395C317.208 206.536 328.059 220.16 330.607 220.77C332.95 221.342 344.455 218.546 346.297 218.095C346.47 218.052 346.548 218.032 346.548 218.032L346.557 218.017Z" fill="#D87290"/>
</g>
<g style="mix-blend-mode:soft-light" opacity="0.97">
<path d="M292.72 71.1396C292.72 71.1396 290.705 71.5886 289.996 73.3549C289.287 75.1211 300.636 89.3636 309.566 92.893C318.496 96.4224 325.122 86.7689 325.122 86.7689L292.716 71.133L292.72 71.1396Z" fill="#F5AF8F"/>
</g>
<g style="mix-blend-mode:multiply" opacity="0.5">
<path d="M249.24 72.2793L256.78 86.0252L253.758 88.2872C253.758 88.2872 252.836 84.6154 249.24 72.2793Z" fill="#D87290"/>
</g>
<g style="mix-blend-mode:multiply" opacity="0.3">
<path d="M317.466 228.78L317.907 234.042C317.907 234.042 283.293 209.511 262.663 180.219C262.663 180.219 243.667 112.599 243.759 95.7817L256.525 85.5835C256.525 85.5835 261.231 94.2407 262.432 96.2565C263.633 98.2722 269.197 102.011 269.197 102.011C269.197 102.011 264.621 110.814 266.696 115.997C267.55 118.126 269.591 120.758 271.816 123.159C275.026 126.604 278.684 129.584 279.966 129.902C282.156 130.505 296.947 121.039 296.947 121.039C296.947 121.039 267.838 143.014 266.109 146.158C264.342 149.298 273.352 180.668 283.497 179.921C283.497 179.921 290.928 197.282 296.503 200.272C302.067 203.26 308.12 201.157 308.12 201.157C308.12 201.157 301.269 207.788 304.594 214.549C307.942 221.287 313.86 224.836 317.854 225.265C318.221 225.302 318.672 225.315 319.2 225.289C324.113 225.136 335.269 222.952 336.787 222.637L323.234 226.934L317.476 228.765L317.466 228.78Z" fill="#D87290"/>
</g>
<g style="mix-blend-mode:multiply" opacity="0.3">
<path d="M68.3801 282.463C68.3801 282.463 164.793 223.167 171.443 213.907C178.055 204.642 174.258 154.634 170.068 137.582C170.989 139.761 200.49 209.373 199.031 216.897C197.528 224.584 115.713 283.025 68.3801 282.463Z" fill="#D87290"/>
</g>
<g style="mix-blend-mode:multiply" opacity="0.6">
<path d="M171.444 213.908C171.444 213.908 171.49 213.879 171.529 213.765C171.578 213.698 171.618 213.601 171.664 213.528C172.973 211.131 179.205 196.114 170.084 137.637C170.83 139.516 194.629 200.53 210.91 229.14C227.508 258.208 256.201 265.773 256.201 265.773C254.999 266.175 253.979 266.43 253.2 266.519C242.641 267.801 226.683 264.048 221.482 266.108C216.299 268.184 148.243 326.648 119.745 345.532C119.745 345.532 89.8803 336.323 68.3704 282.462C68.3704 282.462 164.783 223.166 171.433 213.905L171.444 213.908Z" fill="#F3BAC0"/>
</g>
<path d="M292.719 71.1394C292.719 71.1394 289.435 73.3272 294.641 80.7629C300.967 89.8022 310.764 93.2978 310.764 93.2978C310.764 93.2978 299.616 90.876 291.352 77.3663C283.088 63.8566 292.719 71.1394 292.719 71.1394Z" fill="#E86C7C"/>
<g style="mix-blend-mode:soft-light" opacity="0.97">
<path d="M321.137 84.8492C321.137 84.8492 319.701 90.448 310.771 93.2933C310.771 93.2933 317.85 96.5646 325.132 86.7708L321.144 84.8452L321.137 84.8492Z" fill="#F5D3D2"/>
</g>
<g style="mix-blend-mode:soft-light" opacity="0.97">
<path d="M297.801 73.5905C297.801 73.5905 295.49 76.0227 291.876 75.135C291.876 75.135 291.327 72.4111 292.731 71.1423L297.801 73.5905Z" fill="#F5D3D2"/>
</g>
<g style="mix-blend-mode:multiply" opacity="0.5">
<path d="M346.557 218.016C345.757 218.706 344.916 219.385 344.097 220.014C343.567 220.449 343.056 220.826 342.529 221.221C341.434 222.048 340.303 222.832 339.196 223.566C338.792 223.823 338.392 224.086 338.015 224.327C336.766 225.139 335.55 225.858 334.337 226.538C327.082 230.71 320.668 233.08 318.591 233.784C318.16 233.967 317.909 234.031 317.909 234.031C317.859 234.007 317.798 233.982 317.735 233.938C316.981 233.595 316.2 233.178 315.404 232.707C315.245 232.596 315.083 232.524 314.924 232.413C295.173 220.62 262.665 180.208 262.665 180.208L243.761 95.7699L256.528 85.5718C256.528 85.5718 260.957 94.3535 264.016 97.8186C267.076 101.284 286.294 114.599 316.655 109.033C308.252 114.552 282.128 132.052 281.65 137.987C281.1 145.043 300.451 170.393 305.612 168.783C310.746 167.19 351.594 133.917 351.594 133.917C340.392 145.455 307.123 171.26 305.593 173.15C304.07 175.036 316.165 195.82 321.03 195.234C325.586 194.72 346.635 181.286 349.265 179.626C336.953 188.704 317.213 201.379 317.213 201.379C317.217 206.52 328.068 220.145 330.616 220.754C332.959 221.327 344.464 218.531 346.306 218.08C346.479 218.037 346.557 218.016 346.557 218.016Z" fill="#D87290"/>
</g>
<g style="mix-blend-mode:multiply" opacity="0.5">
<path d="M294.195 71.846L306.157 60.2039L296.423 66.1956L293.177 63.2526L285.8 66.9016L294.195 71.846Z" fill="#D87290"/>
</g>
<g style="mix-blend-mode:multiply" opacity="0.5">
<path d="M279.017 178.522C279.017 178.522 295.584 173.897 305.609 168.794C315.635 163.692 332.492 150.938 332.492 150.938C332.492 150.938 310.186 169.907 305.595 173.168C301.007 176.418 283.494 179.93 283.494 179.93C283.494 179.93 281.155 179.365 279.017 178.522Z" fill="#D87290"/>
</g>
<g style="mix-blend-mode:multiply" opacity="0.5">
<path d="M308.103 201.158C308.103 201.158 316.076 198.139 323.218 194.58C330.361 191.021 349.538 179.451 349.538 179.451C349.538 179.451 321.738 198.232 317.813 200.025C313.887 201.818 308.101 201.168 308.101 201.168L308.103 201.158Z" fill="#D87290"/>
</g>
<g style="mix-blend-mode:multiply" opacity="0.5">
<path d="M269.201 102.017C269.201 102.017 289.786 114.992 316.652 109.045C316.652 109.045 286.502 119.217 266.541 109.355L269.207 102.013L269.201 102.017Z" fill="#D87290"/>
</g>
<g style="mix-blend-mode:multiply" opacity="0.5">
<path d="M316.653 109.045C316.653 109.045 323.633 101.474 322.16 95.6949C322.16 95.6949 325.918 94.0133 326.781 87.9238C326.781 87.9238 329.755 100.117 316.653 109.045Z" fill="#D87290"/>
</g>
<g style="mix-blend-mode:soft-light" opacity="0.97">
<path d="M325.363 58.9662C325.363 58.9662 326.653 69.2578 329.891 77.7205C333.129 86.1832 337.256 87.5529 337.256 87.5529C337.256 87.5529 337.338 70.497 325.363 58.9662Z" fill="#F5EE8F"/>
</g>
<g style="mix-blend-mode:soft-light" opacity="0.97">
<path d="M352.414 135.18C352.414 135.18 351.309 142.424 353.133 153.837C354.958 165.249 358.973 171.306 358.973 171.306C358.973 171.306 366.386 161.414 352.41 135.174L352.414 135.18Z" fill="#F5EE8F"/>
</g>
<g style="mix-blend-mode:soft-light" opacity="0.97">
<path d="M346.995 103.48C346.995 103.48 348.823 112.789 350.744 120.095C352.665 127.401 354.26 129.247 354.26 129.247C354.26 129.247 359.597 117.243 346.995 103.48Z" fill="#F5EE8F"/>
</g>
<g style="mix-blend-mode:soft-light" opacity="0.97">
<path d="M349.537 179.45C349.537 179.45 350.934 186.743 351.85 197.074C352.454 203.857 350.285 213.573 350.285 213.573C350.285 213.573 358.582 203.691 349.537 179.45Z" fill="#F5EE8F"/>
</g>
<path style="mix-blend-mode:screen" d="M209.054 85.1337C209.054 85.1337 189.954 93.0524 185.345 116.69C180.736 140.327 246.141 237.872 254.262 240.938C262.378 243.998 255.799 136.367 239.284 109.249C222.769 82.1319 209.058 85.1402 209.058 85.1402L209.054 85.1337Z" fill="url(#paint2_linear_4115_330)"/>
<g style="mix-blend-mode:multiply" opacity="0.5">
<path d="M171.667 213.534C171.667 213.534 183.115 224.266 199.031 216.898L170.083 137.637C170.083 137.637 178.06 199.858 171.662 213.528L171.667 213.534Z" fill="#D87290"/>
</g>
<path d="M243.755 95.7749C243.755 95.7749 255.629 96.6196 259.303 98.3578C262.982 100.103 267.815 105.838 267.815 105.838L269.208 102.014C269.208 102.014 264.305 98.82 262.432 96.2563C260.56 93.6926 256.525 85.5834 256.525 85.5834C256.525 85.5834 245.039 93.1307 243.759 95.7815L243.755 95.7749Z" fill="#AB3D52"/>
<path d="M317.847 225.268C317.847 225.268 310.895 227.56 295.409 208.006C279.884 188.448 264.506 156.648 263.985 150.738C263.535 145.799 269.674 129.598 271.816 123.158C275.026 126.603 278.684 129.583 279.966 129.902C282.156 130.504 296.947 121.038 296.947 121.038C296.947 121.038 267.838 143.013 266.109 146.157C264.341 149.297 273.352 180.667 283.497 179.92C283.497 179.92 290.928 197.282 296.503 200.271C302.067 203.259 308.12 201.156 308.12 201.156C308.12 201.156 301.269 207.787 304.594 214.548C307.942 221.286 313.859 224.835 317.853 225.264L317.847 225.268Z" fill="#AB3D52"/>
<path d="M336.784 222.647L323.231 226.944L319.193 225.293C324.106 225.139 335.263 222.956 336.78 222.64L336.784 222.647Z" fill="#AB3D52"/>
<g style="mix-blend-mode:soft-light" opacity="0.97">
<path d="M262.048 261.016C262.048 261.016 291.646 247.732 314.217 235.184C314.217 235.184 284.884 242.718 262.048 261.016Z" fill="#F5FFFF"/>
</g>
<g style="mix-blend-mode:soft-light" opacity="0.97">
<path d="M118.3 335.552C118.3 335.552 174.739 298.498 203.876 276.17C203.876 276.17 151.177 323.389 122.09 340.208L118.3 335.552Z" fill="#F5FFFF"/>
</g>
<g style="mix-blend-mode:soft-light" opacity="0.97">
<path d="M175.177 105.67C175.177 105.67 166.322 118.421 171.352 134.096C176.385 149.779 191.863 184.251 191.863 184.251C191.863 184.251 167.752 130.474 175.177 105.67Z" fill="#F5FFFF"/>
</g>
<g style="mix-blend-mode:soft-light" opacity="0.97">
<path d="M352.997 172.338C352.997 172.338 335.043 186.743 322.604 192.575C322.604 192.575 337.603 189.6 352.997 172.338Z" fill="#F5FFFF"/>
</g>
<g style="mix-blend-mode:soft-light" opacity="0.97">
<path d="M348.083 209.466C348.083 209.466 338.873 217.816 330.123 219.346C330.123 219.346 342.907 220.14 348.083 209.466Z" fill="#F5FFFF"/>
</g>
<g style="mix-blend-mode:soft-light" opacity="0.97">
<path d="M348.508 130.144C348.508 130.144 328.902 151.005 307.214 163.781C307.214 163.781 334.393 153.195 348.508 130.144Z" fill="#F5FFFF"/>
</g>
<g style="mix-blend-mode:soft-light" opacity="0.97">
<path d="M233.636 51.3396C233.636 51.3396 229.622 61.5454 221.906 68.9516C214.195 76.3645 193.927 87.7073 193.927 87.7073C193.927 87.7073 225.05 63.9525 233.632 51.333L233.636 51.3396Z" fill="#F5FFFF"/>
</g>
<g style="mix-blend-mode:soft-light" opacity="0.97">
<path d="M71.779 282.396C71.779 282.396 142.719 250.188 170.247 222.745C170.247 222.745 130.653 244.87 71.779 282.396Z" fill="#F5FFFF"/>
</g>
<g style="mix-blend-mode:soft-light" opacity="0.97">
<path d="M272.23 143.396C269.391 146.914 269.445 164.339 278.283 170.198C278.283 170.198 274.482 157.173 272.844 151.405C271.217 145.64 272.224 143.401 272.224 143.401L272.23 143.396Z" fill="#F5A995"/>
</g>
<g style="mix-blend-mode:soft-light" opacity="0.97">
<path d="M287.5 182.398C287.5 182.398 295.512 202.61 306.945 199.741C306.945 199.741 292.486 192.677 287.5 182.398Z" fill="#F5A995"/>
</g>
<g style="mix-blend-mode:soft-light" opacity="0.97">
<path d="M309.286 219.493C309.286 219.493 318.445 222.303 320.427 224.292C320.427 224.292 314.103 225.556 309.286 219.493Z" fill="#F5A995"/>
</g>
<g style="mix-blend-mode:multiply" opacity="0.3">
<path d="M281.858 139.86C281.858 139.86 282.467 149.293 290.049 159.39C297.632 169.488 305.616 168.79 305.616 168.79C305.616 168.79 289.115 159.683 281.858 139.86Z" fill="#D87290"/>
</g>
<g style="mix-blend-mode:multiply" opacity="0.3">
<path d="M305.906 175.576C305.906 175.576 304.137 181.443 307.553 188.012C310.969 194.582 319.677 194.96 319.677 194.96C319.677 194.96 309.877 188.243 305.906 175.576Z" fill="#D87290"/>
</g>
<g style="mix-blend-mode:multiply" opacity="0.3">
<path d="M316.882 203.097C316.882 203.097 316.062 208.327 319.046 212.997C322.026 217.661 329.337 219.983 329.337 219.983C329.337 219.983 323.315 216.19 316.882 203.097Z" fill="#D87290"/>
</g>
<defs>
<linearGradient id="paint0_linear_4115_330" x1="266.084" y1="181.003" x2="361.791" y2="103.037" gradientUnits="userSpaceOnUse">
<stop stop-color="#FF8777"/>
<stop offset="0.98" stop-color="#FFB880"/>
</linearGradient>
<linearGradient id="paint1_linear_4115_330" x1="76.1066" y1="304.24" x2="332.675" y2="95.2297" gradientUnits="userSpaceOnUse">
<stop offset="0.02" stop-color="#FFB880"/>
<stop offset="1" stop-color="#FF8777"/>
</linearGradient>
<linearGradient id="paint2_linear_4115_330" x1="187.107" y1="102.007" x2="282.427" y2="219.015" gradientUnits="userSpaceOnUse">
<stop stop-color="#EC4400"/>
<stop offset="0.11" stop-color="#DB3F00"/>
<stop offset="0.31" stop-color="#B03200"/>
<stop offset="0.6" stop-color="#6A1E00"/>
<stop offset="0.96" stop-color="#0B0300"/>
<stop offset="1"/>
</linearGradient>
</defs>
</svg>
