<svg width="428" height="330" viewBox="0 0 428 330" fill="none" xmlns="http://www.w3.org/2000/svg">
<path d="M45.2195 255.257C49.3196 253.317 55.433 250.399 62.4483 246.984L62.7585 246.827C72.8676 241.901 82.0198 237.303 89.9583 233.168L90.2214 232.992L90.4822 232.893L90.7041 232.778C98.3817 228.763 104.819 225.232 109.864 222.263L110.737 221.743C119.952 216.258 121.695 214.234 121.897 213.977C125.123 208.828 126.23 182.931 126.765 170.473C127.162 161.224 127.415 155.861 127.964 153.22L127.975 153.169C129.709 145.029 135.3 134.442 140.173 130.061C142.19 128.227 145.587 126.991 152.268 125.647C156.05 124.877 160.459 124.16 164.725 123.47C170.73 122.5 176.936 121.497 180.635 120.434C187.137 118.569 198.877 113.678 205.895 110.748L207.271 110.178C236.19 84.4625 246.281 74.1391 249.659 69.9917C251.004 68.3528 252.421 66.4578 254.153 64.0078C255.427 62.2149 256.698 60.3748 258.041 58.422C267.115 45.2648 277.394 30.337 296.097 21.0657C312.131 13.105 321.768 17.8216 326.091 21.3404C332.612 26.6546 334.707 34.9315 333.356 40.0491C332.856 41.908 331.581 44.4804 325.921 50.5346L325.775 51.2726L324.32 52.2034C318.293 58.4882 310.081 66.0812 303.455 72.2082C299.185 76.158 295.495 79.5681 294.095 81.0611C292.587 82.679 290.798 84.7309 288.91 86.8973C287.959 87.9897 286.98 89.1189 285.979 90.2481L285.58 90.6941C282.048 94.7077 277.545 99.5675 273.293 102.644C269.575 105.325 253.491 120.713 241.456 133.031C241.76 133.559 242.068 134.099 242.386 134.65C243.251 136.154 244.167 137.75 245.128 139.421C254.298 135.187 267.451 128.908 283.589 121.056L283.85 120.936C283.957 120.887 284.06 120.846 284.152 120.795L284.263 120.738C284.849 120.442 285.379 120.186 285.851 119.961C286.215 119.78 286.545 119.623 286.823 119.491L287.047 119.383C287.437 119.179 287.727 119.042 287.881 118.971C294.697 115.656 299.822 113.139 301.266 112.423C302.463 111.557 303.698 110.685 304.929 109.842C316.476 101.798 331.322 93.0951 344.64 86.5496C368.199 74.9794 373.182 76.6685 375.328 77.3951C385.368 80.8514 391.216 97.4595 391.241 101.468C391.245 102.702 391.259 105.58 384.704 112.627C382.434 115.063 377.745 119.69 371.862 123.264C365.972 126.86 357.102 131.214 349.271 135.054C345.197 137.054 341.351 138.937 338.763 140.324L338.467 140.483C337.618 140.934 336.753 141.397 335.886 141.833C333.739 142.945 331.543 144.052 329.421 145.114C325.918 146.877 321.119 149.287 320.143 150.033C318.354 151.463 315.296 152.65 309.102 154.993C307.924 155.437 306.685 155.907 305.424 156.391L305.283 156.479L304.919 156.599L283.01 166.833C285.263 167.763 287.31 169.02 288.956 170.697C293.363 175.192 295.207 181.961 295.975 186.837C296.817 192.058 297.08 199.689 295.04 204.044C293.461 207.351 289.241 212.22 286.127 215.577C287.657 218.31 289.227 222.197 289.354 226.766C290.987 238.979 284.889 249.939 277.995 253.532C271.782 256.79 243.941 264.118 238.096 265.636C237.347 265.87 232.884 267.247 227.442 269.015L227.011 269.157C220.346 271.356 211.205 274.454 206.752 276.463C201.278 278.938 193.809 281.102 186.56 282.318L185.376 282.518C182.396 282.988 179.745 283.235 177.706 283.224C173.27 283.213 167.398 280.218 159.582 275.987C158.259 275.27 156.621 274.382 155.418 273.782C146.31 279.382 106.735 306.708 81.9606 323.993L78.7127 326.26L75.5633 323.856C75.0414 323.455 70.4883 319.944 64.6662 314.201L45.2174 255.251L45.2195 255.257Z" fill="white"/>
<path d="M258.575 67.1596C257.011 69.3762 255.458 71.4801 253.862 73.434C245.386 83.8465 211.695 113.649 194.512 128.663C188.364 134.024 184.333 137.499 184.333 137.499C184.333 137.499 153.656 175.877 152.549 188.544C151.862 196.42 180.717 223.449 205.02 242.042C219.744 253.297 232.791 261.458 236.618 260.428C236.618 260.428 269.455 251.889 275.477 248.734C281.527 245.584 289.622 231.137 279.176 215.001L279.277 214.914C280.275 213.901 288.238 205.741 290.154 201.715C291.248 199.38 291.582 193.6 290.634 187.704C289.835 182.654 288.093 177.56 285.097 174.504C280.124 169.451 268.762 169.546 263.683 169.883C262.289 169.967 261.383 170.054 261.163 170.092C262.391 169.51 287.87 157.88 296.226 154.262C298.358 153.334 300.551 152.467 302.711 151.624C302.767 151.585 302.814 151.583 302.865 151.573C302.921 151.534 302.97 151.539 302.991 151.518C303.058 151.496 303.093 151.478 303.093 151.478C309.46 149.015 315.23 147.023 316.77 145.791C318.6 144.319 326.449 140.616 333.413 137.007C334.377 136.512 335.318 136.01 336.236 135.523C343.711 131.533 360.242 124.003 369.054 118.623C377.856 113.274 385.84 103.81 385.836 101.482C385.823 99.1842 380.812 85.0114 373.596 82.536C366.774 80.2239 331.509 97.965 308.061 114.3C306.696 115.236 305.376 116.163 304.11 117.086C304.11 117.086 298.419 119.899 290.225 123.88C290.225 123.88 289.964 124 289.51 124.239C289.192 124.392 288.748 124.6 288.232 124.859C287.788 125.066 287.289 125.313 286.739 125.59C286.507 125.715 286.256 125.825 285.993 125.939C265.44 135.937 234.403 150.842 231.578 151.016C227.312 151.275 223.204 147.973 224.214 144.327C225.202 140.695 263.543 103.005 270.153 98.2359C273.874 95.5398 278.051 91.081 281.923 86.6685L281.942 86.6624C284.957 83.2359 287.821 79.8663 290.161 77.3526C293.974 73.2599 310.885 58.4735 320.818 48.045C320.857 48.0184 320.9 47.9632 320.935 47.9448C320.939 47.9161 320.962 47.9018 320.978 47.8896L321.017 47.863C321.044 47.82 321.06 47.8078 321.06 47.8078C324.929 43.7583 327.68 40.3782 328.155 38.63C329.813 32.3317 321.898 14.3225 298.544 25.9138C278.422 35.8926 268.366 53.4446 258.614 67.1535L258.575 67.1596Z" fill="url(#paint0_linear_4105_394)"/>
<g style="mix-blend-mode:multiply" opacity="0.5">
<path d="M230.452 124.893L183.845 152.065L194.806 226.239L205.012 242.038C219.735 253.293 232.782 261.454 236.609 260.424C236.609 260.424 269.446 251.885 275.468 248.73L266.99 242.764L276.45 238.912L267.231 237.965C267.231 237.965 260.363 238.1 259.254 237.161C258.145 236.222 247.522 218.225 256.256 210.747C256.256 210.747 273.429 212.096 279.169 215.004L279.27 214.916C280.268 213.903 288.231 205.744 290.147 201.717C290.147 201.717 274.244 202.62 266.909 203.865C259.59 205.098 247.983 179.127 251.816 172.009L263.676 169.885L302.861 151.582C302.814 151.584 302.762 151.594 302.707 151.632C298.873 152.931 267.566 163.438 263.213 162.996C258.581 162.495 251.854 148.254 255.224 143.686C257.831 140.162 277.258 130.289 285.974 125.945C265.421 135.943 234.384 150.848 231.559 151.022C227.294 151.282 223.185 147.979 224.195 144.333C225.183 140.701 263.525 103.011 270.134 98.2423C273.855 95.5461 278.032 91.0873 281.904 86.6748L230.466 124.895L230.452 124.893Z" fill="#D87290"/>
</g>
<g style="mix-blend-mode:multiply" opacity="0.31">
<path d="M258.574 67.1593C257.01 69.376 255.457 71.4798 253.862 73.4338C245.385 83.8463 211.695 113.649 194.511 128.662L219.389 172.891C219.389 172.891 268.757 169.533 263.674 169.878C262.28 169.962 261.374 170.05 261.154 170.088C262.382 169.505 287.861 157.875 296.217 154.258C298.349 153.329 300.542 152.462 302.702 151.62C302.758 151.581 302.805 151.579 302.856 151.569C302.912 151.53 302.961 151.534 302.982 151.514C303.049 151.492 303.084 151.473 303.084 151.473C309.451 149.011 315.221 147.018 316.761 145.786C318.591 144.315 326.44 140.612 333.404 137.003L333.555 136.591C333.555 136.591 317.758 142.411 312.544 139.507C307.36 136.607 299.059 125.815 307.874 114.566C307.945 114.468 307.992 114.384 308.046 114.298C306.681 115.233 305.361 116.161 304.095 117.084C304.095 117.084 298.404 119.897 290.21 123.878C290.21 123.878 289.949 123.998 289.495 124.237C289.176 124.389 288.733 124.597 288.217 124.856C287.773 125.064 287.274 125.311 286.724 125.588C286.491 125.712 286.241 125.822 285.978 125.937C265.425 135.934 234.388 150.839 231.563 151.013C227.297 151.273 223.189 147.97 224.199 144.324C225.186 140.693 263.528 103.003 270.138 98.2336C273.858 95.5374 278.036 91.0787 281.908 86.6661L281.926 86.66C284.942 83.2336 287.806 79.864 290.146 77.3503C293.959 73.2576 310.869 58.4712 320.803 48.0427C317.128 51.0446 276.65 84.3711 271.101 85.0884C266.209 85.7256 257.743 76.4426 258.593 67.1532L258.574 67.1593Z" fill="#D87290"/>
</g>
<path d="M46.9329 260.45C51.0741 258.489 57.5736 255.396 65.1169 251.718L65.1354 251.712C88.776 240.183 122.643 222.924 126.454 216.92C132.355 207.644 131.75 161.65 133.272 154.338L133.276 154.309C134.81 147.096 139.875 137.625 143.81 134.086C145.118 132.896 148.749 131.896 153.347 130.967C162.439 129.108 175.395 127.593 182.127 125.659C192.275 122.755 213.22 113.365 214.688 113.072C216.172 112.767 224.569 116.294 226.924 119.417C229.286 122.538 234.506 131.922 243.028 146.657C251.539 161.376 261.657 171.425 262.655 174.593C262.845 175.254 262.72 176.074 262.323 176.963L262.329 176.982L262.317 176.986L262.315 177.021C262.288 177.064 262.241 177.148 262.183 177.263C260.542 180.611 255.606 184.924 251.729 186.797C246.682 189.221 223.84 176.464 219.406 170.372C214.973 164.287 208.86 149.174 208.86 149.174C208.86 149.174 198.998 155.201 198.017 155.995C197.61 156.335 198.303 164.398 198.978 174.83C199.001 174.898 198.98 174.96 199.002 175.027C199.167 177.678 199.316 180.47 199.451 183.322C200.081 195.914 200.289 209.69 198.474 217.399C198.474 217.399 226.097 255.764 236.607 260.417C236.607 260.417 231.807 261.892 225.756 263.861L225.709 263.863C218.375 266.289 209.229 269.395 204.507 271.52C198.534 274.222 190.678 276.206 184.542 277.151L184.523 277.157C181.831 277.588 179.459 277.81 177.721 277.803C172.095 277.788 157.218 267.765 155.012 267.85C152.803 267.965 78.8607 319.544 78.8607 319.544C78.8607 319.544 69.742 312.588 60.5878 301.817L46.937 260.442L46.9329 260.45Z" fill="url(#paint1_linear_4105_394)"/>
<g style="mix-blend-mode:multiply" opacity="0.31">
<path d="M262.338 176.966L262.333 176.994L262.352 176.988L262.344 176.964L262.338 176.966Z" fill="#D87290"/>
</g>
<g style="mix-blend-mode:multiply" opacity="0.31">
<path d="M198.471 217.414C200.292 209.703 200.078 195.928 199.448 183.336C199.446 203.971 191.559 223.376 191.559 223.376C195.516 248.722 189.011 267.739 184.543 277.157C190.679 276.212 198.537 274.234 204.508 271.526C209.222 269.397 218.376 266.295 225.71 263.869L225.757 263.867C231.808 261.898 236.608 260.424 236.608 260.424C226.092 255.772 198.476 217.406 198.476 217.406L198.471 217.414Z" fill="#D87290"/>
</g>
<g style="mix-blend-mode:multiply" opacity="0.31">
<path d="M199.452 183.328C199.457 180.567 199.315 177.799 199.004 175.033C199.168 177.684 199.317 180.476 199.452 183.328Z" fill="#D87290"/>
</g>
<g style="mix-blend-mode:multiply" opacity="0.31">
<path d="M153.361 130.969C164.648 143.317 193.606 157.054 193.606 157.054C196.594 162.53 198.249 168.623 198.983 174.842C198.307 164.41 197.616 156.353 198.021 156.007C199.002 155.213 208.864 149.186 208.864 149.186C208.864 149.186 214.975 164.293 219.41 170.384C223.842 176.47 246.678 189.228 251.733 186.809C255.616 184.934 260.544 180.617 262.187 177.275C261.284 178.802 256.647 185.762 247.56 183.207C237.385 180.335 212.503 148.415 211.498 141.083C210.499 133.77 214.698 113.082 214.698 113.082C213.23 113.375 192.284 122.758 182.138 125.669C175.406 127.603 162.446 129.126 153.357 130.977L153.361 130.969Z" fill="#D87290"/>
</g>
<g style="mix-blend-mode:multiply" opacity="0.5">
<path d="M208.87 149.184L204.801 136.477L205.391 151.247L208.87 149.184Z" fill="#D87290"/>
</g>
<g style="mix-blend-mode:multiply" opacity="0.5">
<path d="M208.87 149.184L198.027 156.006C198.027 156.006 210.901 179.544 198.478 217.412C198.478 217.412 212.359 237.811 222.826 248.066L236.666 249.688L267.004 242.766L276.464 238.914L262.434 239.513C262.434 239.513 249.703 242.518 245.524 242.975C241.346 243.438 231.619 238.779 229.952 236.002C228.284 233.226 227.672 223.046 228.95 220.978C230.228 218.911 256.274 210.741 256.274 210.741C256.274 210.741 273.136 212.555 279.188 214.998C279.188 214.998 265.251 207.103 261.809 206.586C258.369 206.075 233.463 213.335 228.862 210.837C224.261 208.339 220.81 198.378 221.125 194.818C221.439 191.258 233.404 180.713 233.404 180.713C233.404 180.713 221.806 173.406 219.434 170.377C217.062 167.348 208.888 149.178 208.888 149.178L208.87 149.184Z" fill="#D87290"/>
</g>
<g style="mix-blend-mode:soft-light" opacity="0.97">
<path d="M261.643 172.728C262.839 174.492 256.271 180.545 252.622 178.552C248.975 176.566 237.413 156.55 238.413 149.437C239.413 142.325 248.423 153.279 261.641 172.722L261.643 172.728Z" fill="#F5AF8F"/>
</g>
<path d="M251.861 177.984C251.861 177.984 246.854 174.049 241.755 163.935C236.647 153.817 236.471 145.167 237.924 143.67C239.383 142.171 246.492 152.27 246.492 152.27C246.492 152.27 241.185 146.391 239.221 147.995C237.257 149.6 242.254 168.449 251.863 177.99L251.861 177.984Z" fill="#E86C7C"/>
<g style="mix-blend-mode:soft-light" opacity="0.97">
<path d="M260.217 170.5C260.217 170.5 256.054 174.941 250.705 176.76C250.705 176.76 251.698 178.051 253.021 178.728C254.344 179.405 261.222 177.436 261.648 172.726L260.224 170.498L260.217 170.5Z" fill="#F5D3D2"/>
</g>
<g style="mix-blend-mode:soft-light" opacity="0.97">
<path d="M246.489 152.264C246.489 152.264 246.422 154.711 244.88 155.212C243.338 155.714 238.814 150.24 238.814 150.24C238.814 150.24 238.316 148.13 239.952 147.727C241.588 147.324 246.483 152.266 246.483 152.266L246.489 152.264Z" fill="#F5D3D2"/>
</g>
<g style="mix-blend-mode:soft-light" opacity="0.97">
<path d="M230.2 221.535C230.2 221.535 226.22 224.918 230.079 234.874C230.258 235.313 230.893 235.479 231.825 235.425C234.758 235.29 240.431 233.064 243.313 230.289L243.626 229.954C243.786 229.798 243.947 229.643 244.076 229.477C244.103 229.434 244.136 229.41 244.146 229.379C246.031 226.851 244.511 222.264 240.549 220.443C238.372 219.433 235.456 219.269 231.958 220.716C231.94 220.722 231.919 220.743 231.89 220.739C231.348 220.958 230.785 221.219 230.202 221.542L230.2 221.535Z" fill="#F5AF8F"/>
</g>
<g style="mix-blend-mode:soft-light" opacity="0.97">
<path d="M222.595 193.185C222.274 193.578 222.041 193.907 221.929 194.19C221.123 196.157 221.312 204.038 227.678 207.723C227.848 207.824 228.022 207.896 228.219 207.954C229.088 208.207 230.241 208.039 231.514 207.612L231.57 207.573C235.689 206.146 241.228 201.757 243.706 197.633C244.492 196.288 244.98 194.973 244.992 193.808C245.018 188.772 240.886 185.668 236.873 185.346C236.813 185.332 236.762 185.342 236.715 185.344C236.022 185.292 235.332 185.315 234.674 185.43C234.505 185.458 234.343 185.484 234.173 185.547C230.188 186.575 224.592 190.791 222.595 193.185Z" fill="#F5AF8F"/>
</g>
<g style="mix-blend-mode:multiply" opacity="0.5">
<path d="M236.881 185.35L235.554 185.447C239.054 185.788 245.62 189.892 243.264 196.003C240.756 202.479 232.868 206.892 231.576 207.571C237.024 205.678 244.969 198.603 244.998 193.806C245.024 188.77 240.892 185.666 236.879 185.344L236.881 185.35Z" fill="#D87290"/>
</g>
<g style="mix-blend-mode:multiply" opacity="0.5">
<path d="M234.172 185.548L235.553 185.447C235.229 185.397 234.942 185.396 234.681 185.434C234.513 185.463 234.351 185.489 234.18 185.552L234.172 185.548Z" fill="#D87290"/>
</g>
<g style="mix-blend-mode:multiply" opacity="0.5">
<path d="M231.958 220.716C233.645 220.283 241.345 218.589 242.95 225.3C244.72 232.714 232.264 235.328 231.824 235.425C235.031 235.269 241.576 232.645 244.076 229.477C247.142 225.604 241.909 216.573 231.958 220.716Z" fill="#D87290"/>
</g>
<g style="mix-blend-mode:soft-light" opacity="0.97">
<path d="M230.199 221.536C230.199 221.536 226.22 224.919 230.078 234.875C230.257 235.314 230.893 235.48 231.824 235.426C231.824 235.426 228.146 228.19 230.199 221.536Z" fill="#F5D3D2"/>
</g>
<g style="mix-blend-mode:soft-light" opacity="0.97">
<path d="M222.595 193.185C222.274 193.578 222.041 193.908 221.929 194.191C221.123 196.157 221.312 204.039 227.678 207.724C227.848 207.825 228.022 207.897 228.219 207.955C226.82 206.074 222.519 199.747 222.589 193.187L222.595 193.185Z" fill="#F5D3D2"/>
</g>
<path d="M233.385 180.719C233.385 180.719 220.17 174.368 217.241 171.121C214.311 167.873 208.525 151.203 198.026 156.006L208.869 149.184C208.869 149.184 215.834 165.553 219.415 170.383C222.996 175.212 233.385 180.719 233.385 180.719Z" fill="#AB3D52"/>
<path d="M221.219 194.315C221.219 194.315 219.776 195.843 222.653 208.247C225.53 220.652 227.367 234.273 229.089 237.195C230.811 240.117 244.041 242.952 244.041 242.952C244.041 242.952 230.811 238.71 229.931 236.002C229.052 233.294 227.822 223.563 228.929 220.978C230.039 218.399 248.608 213.215 248.608 213.215C248.608 213.215 237.283 213.919 231.088 211.332C224.9 208.743 219.861 198.896 221.213 194.317L221.219 194.315Z" fill="#AB3D52"/>
<path d="M251.731 186.803C251.731 186.803 245.227 188.724 231.146 182.748L227.543 177.168C227.543 177.168 238.918 185.457 251.729 186.797L251.731 186.803Z" fill="#AB3D52"/>
<g style="mix-blend-mode:multiply" opacity="0.6">
<path d="M65.2189 251.678C68.5815 250.794 139.906 231.196 141.749 216.491C143.581 201.652 133.716 155.707 133.277 154.336C131.755 161.648 132.355 207.644 126.46 216.918C122.649 222.922 88.8493 240.138 65.2251 251.676L65.2189 251.678Z" fill="#F3BAC0"/>
</g>
<g style="mix-blend-mode:multiply" opacity="0.6">
<path d="M46.9327 260.45C51.074 258.489 57.5735 255.395 65.1168 251.718L65.1352 251.712C88.7759 240.183 122.643 222.924 126.454 216.919C132.355 207.644 131.75 161.65 133.272 154.338C133.272 154.338 145.874 223.012 156.773 245.528C167.672 268.045 177.711 277.813 177.711 277.813C172.085 277.798 157.207 267.775 155.002 267.86C152.792 267.975 78.8503 319.554 78.8503 319.554C78.8503 319.554 69.7315 312.598 60.5773 301.827L46.9266 260.452L46.9327 260.45Z" fill="#F3BAC0"/>
</g>
<g style="mix-blend-mode:multiply" opacity="0.5">
<path d="M133.277 154.336C131.755 161.648 132.355 207.644 126.46 216.918L141.749 216.491C143.581 201.652 133.716 155.707 133.277 154.336Z" fill="#D87290"/>
</g>
<path style="mix-blend-mode:screen" d="M176.098 243.982C169.773 249.572 142.958 197.465 144.431 167.254C145.458 146.226 152.629 140.759 156.72 139.184C160.811 137.609 185.196 149.433 192.718 165.318C200.241 181.203 194.181 227.989 176.098 243.982Z" fill="url(#paint2_linear_4105_394)"/>
<path d="M186.151 231.827C186.151 231.827 206.952 207.943 198.021 156.008C198.021 156.008 217.172 202.338 186.151 231.827Z" fill="#B24D61"/>
<g style="mix-blend-mode:soft-light" opacity="0.97">
<path d="M289.794 197.975C289.794 197.975 282.663 182.8 283.085 174.888C283.085 174.888 292.565 183.809 289.794 197.975Z" fill="#F5EE8F"/>
</g>
<g style="mix-blend-mode:soft-light" opacity="0.97">
<path d="M281.539 235.621C281.539 235.621 275.383 224.148 279.161 214.999C279.161 214.999 288.072 224.948 281.539 235.621Z" fill="#F5EE8F"/>
</g>
<g style="mix-blend-mode:soft-light" opacity="0.97">
<path d="M384.305 101.481C384.305 101.481 374.876 91.4706 373.57 82.5438C373.57 82.5438 384.113 90.6908 384.305 101.481Z" fill="#F5EE8F"/>
</g>
<g style="mix-blend-mode:soft-light" opacity="0.97">
<path d="M328.115 38.6359C328.115 38.6359 315.029 28.0156 305.19 25.087C305.19 25.087 313.472 21.9515 319.498 25.2909C325.525 28.6304 328.12 38.6277 328.12 38.6277L328.115 38.6359Z" fill="#F5EE8F"/>
</g>
<g style="mix-blend-mode:multiply" opacity="0.3">
<path d="M258.359 235.919C258.359 235.919 253.171 231.353 250.32 223.476C247.466 215.593 255.408 211.572 255.408 211.572C255.408 211.572 249.193 220.166 258.359 235.919Z" fill="#D87290"/>
</g>
<g style="mix-blend-mode:multiply" opacity="0.3">
<path d="M262.416 201.946C262.416 201.946 252.942 193.603 249.512 187.078C249.512 187.078 251.489 186.815 253.106 185.92C253.106 185.92 254.117 190.019 262.418 201.952L262.416 201.946Z" fill="#D87290"/>
</g>
<g style="mix-blend-mode:soft-light" opacity="0.97">
<path d="M256.017 238.591L238.347 239.729C238.347 239.729 244.554 242.23 245.86 241.778C247.172 241.325 256.017 238.591 256.017 238.591Z" fill="#F5A995"/>
</g>
<g style="mix-blend-mode:soft-light" opacity="0.97">
<path d="M141.517 173.864C141.517 173.864 136.027 159.501 136.837 155.497C137.647 151.494 140.798 137.648 145.069 134.756C149.346 131.863 177.311 127.603 177.311 127.603C177.311 127.603 152.87 133.228 147.686 138.797C142.504 144.373 138.494 159.773 141.515 173.858L141.517 173.864Z" fill="#F5FFFF"/>
</g>
<g style="mix-blend-mode:soft-light" opacity="0.97">
<path d="M64.6756 302.491C64.6756 302.491 76.576 313.386 80.8993 314.255C85.2226 315.124 149.892 267.443 149.892 267.443C149.892 267.443 87.8309 308.041 80.3576 307.644C72.8904 307.246 64.6776 302.497 64.6776 302.497L64.6756 302.491Z" fill="#F5FFFF"/>
</g>
<g style="mix-blend-mode:soft-light" opacity="0.97">
<path d="M226.187 260.304C226.187 260.304 196.468 274.091 185.282 275.547C174.097 277.004 160.07 267.158 160.07 267.158C160.07 267.158 172.232 273.153 187.526 270.9C202.821 268.648 226.187 260.304 226.187 260.304Z" fill="#F5FFFF"/>
</g>
<g style="mix-blend-mode:soft-light" opacity="0.97">
<path d="M382.264 103.965C382.264 103.965 378.099 110.305 365.734 117.628C353.37 124.952 314.951 144.273 314.951 144.273C314.951 144.273 378.71 106.442 382.258 103.967L382.264 103.965Z" fill="#F5FFFF"/>
</g>
<g style="mix-blend-mode:soft-light" opacity="0.97">
<path d="M301.272 27.6222C301.272 27.6222 270.825 52.1 259.935 70.9108C259.935 70.9108 268.102 52.9982 280.919 40.7715C293.735 28.5447 301.272 27.6222 301.272 27.6222Z" fill="#F5FFFF"/>
</g>
<g style="mix-blend-mode:soft-light" opacity="0.97">
<path d="M47.7171 262.828C67.9789 254.142 122.231 224.638 122.231 224.638C95.1213 245.836 57.2833 259.692 47.7679 262.982L47.7171 262.828Z" fill="#F5FFFF"/>
</g>
<g style="mix-blend-mode:soft-light" opacity="0.97">
<path d="M239.792 141.899C239.792 141.899 231.455 132.984 228.84 127.398C226.226 121.813 226.939 119.419 226.939 119.419L239.792 141.899Z" fill="#F5FFFF"/>
</g>
<g style="mix-blend-mode:soft-light" opacity="0.97">
<path d="M214.701 113.075C214.701 113.075 216.459 118.567 220.065 121.216C223.669 123.859 226.94 119.426 226.94 119.426C226.94 119.426 222.734 115.52 214.703 113.081L214.701 113.075Z" fill="#F5AF8F"/>
</g>
<g style="mix-blend-mode:multiply" opacity="0.5">
<path d="M251.731 186.804L253.664 183.864C253.664 183.864 261.67 179.31 262.669 174.596C262.669 174.596 263.957 180.072 251.731 186.804Z" fill="#D87290"/>
</g>
<defs>
<linearGradient id="paint0_linear_4105_394" x1="167.828" y1="214.284" x2="375.18" y2="80.3014" gradientUnits="userSpaceOnUse">
<stop stop-color="#FF8777"/>
<stop offset="0.98" stop-color="#FFB880"/>
</linearGradient>
<linearGradient id="paint1_linear_4105_394" x1="50.5183" y1="287.69" x2="252.014" y2="157.492" gradientUnits="userSpaceOnUse">
<stop offset="0.02" stop-color="#FFB880"/>
<stop offset="1" stop-color="#FF8777"/>
</linearGradient>
<linearGradient id="paint2_linear_4105_394" x1="198.663" y1="229.629" x2="145.038" y2="146.639" gradientUnits="userSpaceOnUse">
<stop/>
<stop offset="0.04" stop-color="#0B0300"/>
<stop offset="0.4" stop-color="#6A1E00"/>
<stop offset="0.69" stop-color="#B03200"/>
<stop offset="0.89" stop-color="#DB3F00"/>
<stop offset="1" stop-color="#EC4400"/>
</linearGradient>
</defs>
</svg>
