<svg width="390" height="320" viewBox="0 0 390 320" fill="none" xmlns="http://www.w3.org/2000/svg">
<path d="M64.8714 43.0225C68.9473 41.2091 73.4163 41.4163 76.8383 43.5802L76.9298 43.6416C83.0197 47.6788 89.3888 53.6802 96.5204 60.7028C94.8659 57.1768 94.2219 54.0312 94.5964 51.2622C95.919 41.5483 102.389 35.1866 108.219 33.1919C111.557 32.0502 114.619 32.3744 116.732 34.0726C122.779 38.1879 133.892 47.2145 150.689 61.6614L151.852 62.6922C167.088 75.7496 184.439 91.1796 199.551 104.743C198.323 101.661 197.154 98.0476 196.279 94.4919C193.712 84.0546 193.932 76.1218 196.948 70.9251C201.897 62.4014 210.064 56.0655 215.103 54.8642C217.829 54.2196 219.717 54.9373 220.819 55.6484C222.348 56.6415 223.666 57.4947 234.971 81.2783L234.99 81.3728C237.199 85.9698 243.778 99.6554 248.182 104.479C248.447 104.761 248.726 105.061 249.022 105.368L249.216 105.569C249.464 105.824 249.712 106.079 249.97 106.344L250.199 106.579C250.481 106.867 250.776 107.16 251.086 107.465L251.238 107.617C253.385 109.745 256.034 112.278 258.835 114.963C265.006 120.863 272.685 128.206 279.206 135.308L279.267 135.379C279.712 135.863 280.146 136.343 280.585 136.825L280.704 136.957C281.141 137.445 281.566 137.928 282.016 138.434C284.913 141.741 287.265 144.688 289.166 147.397L289.219 147.471C291.217 150.318 292.686 152.831 293.727 155.19C293.856 155.494 293.995 155.823 294.126 156.209C294.246 156.537 294.357 156.869 294.464 157.212L294.482 157.273C294.579 157.606 294.674 157.944 294.753 158.291C294.834 158.611 294.907 158.955 294.982 159.347C295.074 159.786 295.136 160.193 295.171 160.476C295.369 161.85 295.466 163.349 295.455 164.901C295.454 165.298 295.447 165.692 295.43 166.097C295.404 166.828 295.361 167.553 295.307 168.233C295.111 170.618 294.712 173.256 294.127 176.027L294.092 176.209C293.988 176.702 293.877 177.192 293.762 177.695L293.709 177.944L293.705 177.956L293.69 178.011C293.342 179.51 292.935 181.075 292.453 182.786L292.38 183.035C292.023 184.288 291.634 185.59 291.217 186.894L291.157 187.054C291.003 187.568 290.838 188.079 290.669 188.581L290.638 188.664C290.612 188.768 290.577 188.863 290.549 188.954L290.412 189.353C290.273 189.759 290.138 190.173 289.998 190.578L289.896 190.85C289.805 191.146 289.7 191.443 289.585 191.783C289.501 192.008 289.425 192.228 289.348 192.449L289.151 192.974C289.09 193.153 289.029 193.332 288.969 193.511L288.873 193.765C288.751 194.09 288.635 194.416 288.501 194.79L288.345 195.203C287.988 196.153 287.631 197.083 287.275 197.993L287.239 198.088L286.572 199.77C286.517 199.917 286.457 200.057 286.404 200.198L285.775 201.726C285.608 202.135 285.443 202.537 285.278 202.92L284.909 203.812C284.802 204.061 284.694 204.31 284.587 204.559L284.46 204.862C284.417 204.974 284.369 205.084 284.328 205.176L283.571 206.918C282.905 208.419 282.222 209.927 281.522 211.428L281.337 211.83C281.268 211.979 281.2 212.122 281.135 212.259C281.354 212.503 281.572 212.747 281.793 212.985L282.069 213.291C282.155 213.384 282.239 213.483 282.326 213.576C282.754 214.034 283.201 214.478 283.653 214.925L283.999 215.277C284.577 215.839 285.175 216.4 285.782 216.939L285.838 216.987C285.968 217.11 286.111 217.231 286.252 217.358L286.364 217.454C286.465 217.546 286.571 217.64 286.685 217.73L286.825 217.843C286.947 217.95 287.074 218.058 287.21 218.163L288.236 218.987C288.428 219.14 288.626 219.296 288.866 219.481C289.295 219.811 289.736 220.145 290.201 220.488C290.48 220.695 290.766 220.903 291.062 221.122L292.372 222.067C292.66 222.27 292.958 222.483 293.242 222.677L293.386 222.779C293.711 223.009 294.048 223.243 294.39 223.48L294.568 223.601C295.559 224.283 296.589 224.988 297.645 225.695L297.865 225.845C298.182 226.059 298.502 226.267 298.862 226.511C299.088 226.663 299.308 226.813 299.548 226.964L299.64 227.026C300.119 227.347 300.601 227.663 301.1 227.986L301.154 228.02C301.905 228.518 302.671 229.009 303.453 229.512L303.66 229.644C304.356 230.088 305.059 230.534 305.759 230.986L305.983 231.124C306.485 231.441 314.505 236.872 332.689 249.194C334.693 250.554 336.764 251.954 338.85 253.365L335.041 263.484C332.503 261.767 329.763 259.907 326.79 257.892C314.249 249.399 301.289 240.62 300.338 239.992L300.125 239.858C299.419 239.404 298.711 238.956 297.956 238.469L297.767 238.344C296.967 237.834 296.176 237.321 295.392 236.804C294.854 236.46 294.336 236.116 293.823 235.775C293.546 235.597 293.277 235.415 293.045 235.26C292.698 235.035 292.365 234.809 292.03 234.588L291.804 234.436C290.694 233.694 289.621 232.96 288.587 232.248L288.404 232.125C288.034 231.871 287.666 231.612 287.357 231.394L287.222 231.303C286.907 231.083 286.594 230.858 286.273 230.636L284.851 229.609C284.534 229.375 284.221 229.15 283.916 228.92C283.411 228.541 282.928 228.178 282.415 227.783C282.18 227.6 281.946 227.417 281.736 227.257L280.958 226.635C280.871 226.561 280.782 226.494 280.695 226.421C280.456 226.23 280.226 226.036 280.002 225.843C279.769 225.655 279.55 225.465 279.384 225.315L279.325 225.258C279.127 225.083 278.93 224.908 278.743 224.743C278.047 224.117 277.358 223.474 276.69 222.832C276.58 222.73 276.478 222.624 276.37 222.516L276.268 222.41C275.733 221.879 275.198 221.347 274.677 220.794C274.521 220.635 274.376 220.465 274.228 220.302L274.033 220.087C273.607 219.623 273.189 219.156 272.779 218.685C272.536 218.399 272.305 218.116 272.071 217.826L271.706 217.379C271.374 216.971 271.042 216.563 270.728 216.142L270.277 210.549L270.459 210.173C270.718 209.645 271.18 208.687 271.817 207.337L271.993 206.958C272.649 205.555 273.301 204.11 273.924 202.707L274.911 200.425C275.023 200.164 275.132 199.909 275.246 199.642L275.561 198.878C275.717 198.499 275.881 198.116 276.04 197.731L276.616 196.325C276.683 196.148 276.752 195.965 276.828 195.798L277.469 194.167C277.807 193.304 278.146 192.422 278.493 191.501L278.622 191.159C278.751 190.817 278.882 190.469 279.015 190.115L279.026 190.085C279.104 189.859 279.185 189.626 279.272 189.396L279.474 188.859C279.535 188.68 279.595 188.501 279.644 188.371C279.752 188.048 279.871 187.716 279.985 187.395L280.071 187.165C280.196 186.78 280.326 186.398 280.454 186.022L280.689 185.309C280.847 184.836 281.001 184.355 281.155 183.874L281.206 183.739L281.2 183.737C281.579 182.532 281.944 181.329 282.26 180.222L282.33 179.965C282.773 178.394 283.142 176.984 283.45 175.645L283.469 175.558L283.507 175.404C283.608 174.957 283.707 174.516 283.794 174.104L283.828 173.942C284.332 171.545 284.67 169.341 284.828 167.36C284.876 166.839 284.905 166.297 284.921 165.751L284.927 165.666C284.94 165.415 284.943 165.173 284.944 164.884C284.949 163.815 284.892 162.837 284.766 161.988L284.755 161.91C284.737 161.761 284.716 161.619 284.688 161.48L284.647 161.283C284.622 161.152 284.603 161.024 284.57 160.897L284.554 160.777L284.53 160.734C284.49 160.571 284.448 160.413 284.404 160.262C284.358 160.117 284.311 159.971 284.262 159.832L284.216 159.686L284.205 159.662C284.171 159.555 284.125 159.463 284.101 159.4C283.365 157.736 282.193 155.759 280.658 153.564L280.605 153.49C278.908 151.08 276.733 148.348 274.103 145.351C273.701 144.896 273.299 144.442 272.919 144.016L272.771 143.852C272.363 143.396 271.953 142.945 271.521 142.479L271.473 142.427C265.18 135.579 257.958 128.67 251.585 122.573C248.743 119.853 246.059 117.287 243.83 115.073L243.678 114.922C243.355 114.598 243.041 114.285 242.743 113.984L242.504 113.739C242.212 113.44 241.933 113.16 241.671 112.887L241.448 112.654C241.114 112.306 240.791 111.963 240.459 111.608C236.658 107.443 232.044 99.5018 225.492 85.8672L225.476 85.7668C220.019 74.2957 217.124 68.7262 215.639 66.0587C213.101 67.6564 209.025 71.1538 206.089 76.2119C204.937 78.1965 204.431 83.3208 206.47 91.7403C208.192 98.8486 210.707 104.248 211.498 105.354C213.449 107.159 223.957 112.078 232.668 115.586L235.044 117.498L242.885 128.944L242.774 135.046L236.03 144.126L231.479 141.342L228.263 144.867L219.144 136.564L219.127 136.557C216.643 134.302 213.724 131.661 210.471 128.725C208.036 126.522 205.419 124.156 202.657 121.654L202.618 121.613C185.605 106.289 163.688 86.6619 145.017 70.6539L143.844 69.6128C128.167 56.1332 117.294 47.2575 111.49 43.2135C109.721 43.9151 105.89 46.7436 105.078 52.7021C104.781 54.8874 108.115 62.555 122.86 75.9466C134.482 86.5054 145.321 93.4284 147.606 94.0257L148.005 96.3179L148.936 94.6679C150.215 95.3919 150.954 95.8316 150.954 95.8316L151.972 96.6193L186.831 131.311L187.285 131.34L187.441 131.5L187.497 138.897L184.479 141.984L177.398 142.39C177.129 142.174 150.157 120.347 121.652 98.1856L121.602 98.1397C111.155 89.9969 101.652 80.5657 93.2665 72.2494C84.8527 63.902 77.5847 56.6865 71.2245 52.4533C70.8708 52.246 70.1224 52.227 69.2081 52.6305C68.3567 53.0105 65.4992 54.6696 64.6025 60.0442C64.4637 60.8609 64.376 61.6496 64.3303 62.3801L64.276 62.8649C64.2552 62.9918 64.2566 63.0597 64.2544 63.0656L64.2485 63.0634L64.2963 63.3306C64.289 67.0596 65.654 68.4693 67.9107 70.8075C68.5316 71.4521 69.1775 72.1197 69.8205 72.8669L69.5618 73.8944L69.9661 73.6627L69.9381 73.6117L70.0303 73.7609L67.7698 81.074L67.7298 81.1802C66.6293 81.7022 64.0984 84.178 63.4391 86.503C63.1257 87.6042 63.4128 88.0423 63.5677 88.2758L63.7146 88.513C63.7633 88.5987 68.926 97.3927 79.0373 108.023C79.1547 108.141 79.2639 108.263 79.3687 108.397L79.3879 108.417C79.3879 108.417 79.382 108.415 79.3783 108.407L79.5459 108.571C82.6051 111.717 85.4911 114.426 88.358 116.846C88.6113 117.016 88.8476 117.212 89.069 117.43L89.0801 117.455C89.3127 117.643 89.5453 117.832 89.7779 118.021L89.9329 118.146L89.7783 118.378C94.2675 121.954 98.8622 124.909 103.455 127.171L104.819 128.135L148.202 170.771L148.628 170.77L148.954 171.088L148.969 178.591L141.533 185.908L134.309 186.065C134.309 186.065 118.849 172.135 102.861 157.744L90.163 146.315L90.1054 146.307C85.6121 142.258 81.4215 138.498 77.9168 135.353L75.2544 132.963C74.0495 133.816 72.0522 136.129 70.9474 139.243C70.0597 141.745 70.0454 143.969 70.9059 145.196L71.2276 145.721L71.19 145.66C72.2688 147.399 79.9648 155.342 88.2839 162.973C94.5748 168.77 103.514 171.798 103.596 171.829L105.473 172.92L138.235 202.41L138.341 202.504C138.426 202.583 147.144 210.856 158.338 220.708C158.568 220.902 158.802 221.105 159.038 221.322C159.179 221.449 159.33 221.586 159.482 221.718L159.558 221.787C178.998 238.872 193.771 250.146 201.504 253.798L231.908 249.158L235.743 250.063C238.345 251.898 293.086 290.544 317.951 308.951L314.098 319.187C292.807 303.311 241.5 267.009 231.408 259.875L201.597 264.428L198.836 264.11C190.205 260.639 174.666 249.07 152.641 229.712C152.411 229.517 152.189 229.319 151.978 229.125C151.837 228.998 151.702 228.873 151.569 228.762L151.441 228.653C140.52 219.046 131.899 210.89 131.147 210.182L99.2055 181.432C96.2016 180.308 87.7641 176.809 81.1645 170.72C81.0043 170.573 65.2359 156.082 62.1619 151.058C56.5068 142.712 61.8585 130.682 67.7819 125.502C72.22 121.616 76.4498 121.598 79.4025 123.02C77 120.889 74.577 118.563 72.0582 115.971C71.9659 115.875 71.8714 115.786 71.7813 115.685C71.6411 115.538 71.5031 115.385 71.3709 115.234C60.9008 104.213 55.3941 95.1142 54.6806 93.9093C52.7421 90.8691 52.269 87.323 53.3136 83.6343C54.173 80.6167 55.9912 77.8119 58.0719 75.6179C55.8871 72.9633 53.8212 69.3295 53.7762 63.5533L53.7357 63.3562C53.7184 62.7569 53.7521 62.1297 53.8398 61.5026C53.9108 60.4717 54.0394 59.3953 54.2228 58.299C55.4289 51.0807 59.3276 45.5093 64.9194 43.0204L64.8714 43.0225ZM217.495 120.928C220.751 123.872 223.682 126.518 226.173 128.789L226.19 128.796L231.011 133.177L232.048 131.782L227.219 124.737C224.056 123.445 220.242 121.821 216.571 120.102C216.878 120.38 217.185 120.657 217.487 120.932L217.495 120.928ZM97.0837 138.486L97.1413 138.495L109.836 149.915L109.876 149.951C119.404 158.529 128.75 166.944 134.741 172.338L97.9905 136.221C94.4507 134.424 90.926 132.282 87.4532 129.823C90.3688 132.436 93.6336 135.376 97.08 138.478L97.0837 138.486ZM80.8462 123.934C81.044 124.089 81.2338 124.248 81.4154 124.411L81.707 124.675L80.0837 121.013C80.0386 122.047 80.3097 123.065 80.8439 123.94L80.8462 123.934Z" fill="white"/>
<path d="M74.3375 132.187L74.3636 132.21C74.3636 132.21 74.3475 132.197 74.3375 132.187Z" fill="white"/>
<path d="M71.3999 115.319L71.5424 115.46C71.4922 115.415 71.4502 115.365 71.3999 115.319Z" fill="white"/>
<path d="M71.225 115.118L71.2804 115.186C71.2804 115.186 71.242 115.144 71.225 115.118Z" fill="white"/>
<path d="M79.366 108.456C79.414 108.508 79.4487 108.541 79.4812 108.581L79.366 108.456Z" fill="white"/>
<path d="M79.3526 108.438C79.3526 108.438 79.3652 108.442 79.3629 108.449L79.3502 108.444L79.3526 108.438Z" fill="white"/>
<path d="M109.865 42.0291L110.408 42.4692C110.224 42.3464 110.042 42.2036 109.865 42.0291Z" fill="white"/>
<path d="M72.4989 51.451C86.0447 60.4303 104.297 78.0183 124.813 94.0001L124.838 94.023C153.714 116.472 180.667 138.293 180.667 138.293L183.685 135.205L148.611 100.298C148.611 100.298 147.911 99.8798 146.699 99.1943C141.617 96.1899 127.798 87.8285 123.576 82.3593C118.38 75.6072 102.798 55.872 101.164 51.9696C98.7671 46.2579 111.439 36.2158 113.537 38.2585C120.034 42.6307 132.634 53.0658 147.26 65.6447C147.26 65.6447 147.458 65.834 147.855 66.1786C147.997 66.3198 148.174 66.4942 148.398 66.6526C167.356 82.9031 189.425 102.682 206.125 117.726L206.15 117.749C212.603 123.6 218.287 128.717 222.631 132.676L231.766 140.992L238.512 131.905L230.671 120.459C230.671 120.459 210.324 112.254 207.438 108.736C204.507 105.214 196.227 82.6775 201.504 73.5698C206.802 64.4431 215.917 58.7406 217.955 60.0667C219.103 60.8155 224.24 70.9674 230.219 83.5442L230.219 83.5981C234.982 93.5079 240.22 103.57 244.327 108.073C253.737 118.217 282.323 142.403 288.897 157.285C288.995 157.511 289.092 157.736 289.175 157.983C289.187 157.987 289.192 158.009 289.193 158.023C289.278 158.264 289.357 158.502 289.437 158.755C289.506 159.003 289.578 159.259 289.642 159.519C289.648 159.521 289.649 159.535 289.645 159.547C289.713 159.815 289.772 160.087 289.822 160.368C289.885 160.648 289.926 160.933 289.965 161.224C290.137 162.38 290.21 163.62 290.199 164.922C290.196 165.251 290.194 165.58 290.175 165.917C290.157 166.537 290.119 167.176 290.065 167.822C289.97 168.952 289.828 170.118 289.647 171.316C289.558 171.909 289.448 172.507 289.339 173.12C289.218 173.781 289.084 174.459 288.946 175.148C288.834 175.698 288.707 176.25 288.578 176.807C288.576 176.813 288.568 176.817 288.571 176.825C288.424 177.45 288.268 178.078 288.11 178.713C288.027 179.025 287.946 179.345 287.861 179.663C287.781 179.983 287.703 180.297 287.603 180.617C287.517 180.934 287.425 181.25 287.339 181.568C286.981 182.841 286.597 184.111 286.196 185.375C286.098 185.688 285.992 186.005 285.886 186.322C285.786 186.642 285.682 186.973 285.574 187.296C285.363 187.91 285.156 188.533 284.947 189.141C284.837 189.45 284.725 189.765 284.624 190.071C284.514 190.38 284.399 190.686 284.291 190.99C284.185 191.273 284.076 191.562 283.985 191.858C283.845 192.229 283.705 192.601 283.573 192.969C283.158 194.072 282.749 195.158 282.329 196.219C282.13 196.75 281.92 197.271 281.707 197.783C281.64 197.96 281.572 198.123 281.502 198.292C281.312 198.76 281.125 199.221 280.934 199.675C280.644 200.374 280.361 201.055 280.086 201.713C279.95 202.019 279.821 202.327 279.694 202.63C279.632 202.775 279.569 202.926 279.507 203.071C279.249 203.668 278.999 204.241 278.757 204.796C277.109 208.527 275.784 211.275 275.224 212.405C275.195 212.482 275.163 212.55 275.133 212.613C275.013 212.858 274.942 212.993 274.942 212.993C277.08 215.845 279.598 218.457 282.276 220.859C282.442 221.009 282.618 221.17 282.807 221.329C282.983 221.489 283.176 221.656 283.378 221.82C283.577 221.989 283.774 222.164 283.994 222.335C284.395 222.667 284.819 223.009 285.279 223.364C285.838 223.797 286.43 224.249 287.058 224.714C287.443 225 287.845 225.293 288.251 225.594C288.908 226.071 289.593 226.564 290.309 227.063C290.922 227.496 291.553 227.935 292.207 228.384C293.397 229.202 294.633 230.038 295.922 230.88C296.175 231.049 296.429 231.219 296.694 231.393C297.2 231.732 297.715 232.067 298.247 232.409C299.052 232.941 299.865 233.469 300.686 233.994C301.437 234.472 302.192 234.958 302.953 235.447C303.013 235.483 303.074 235.519 303.14 235.558C303.716 235.929 320.879 247.557 336.936 258.431L315.992 314.067C291.36 295.775 232.67 254.355 232.67 254.355L200.76 259.23C190.806 255.227 171.304 239.148 156.048 225.733C155.624 225.371 155.252 225.016 154.876 224.706C143.443 214.649 134.679 206.318 134.679 206.318L101.917 176.828C101.917 176.828 91.943 173.539 84.6812 166.844C77.426 160.186 67.9041 150.714 66.5562 148.219C63.5852 142.743 75.1489 125.985 77.9014 128.315C81.92 131.923 87.475 136.897 93.5829 142.409L93.6154 142.394C112.886 159.733 137.789 182.162 137.789 182.162L145.225 174.844L145.083 174.703L101.488 131.859C95.614 128.968 90.2028 125.26 85.349 121.237C85.349 121.201 85.3323 121.186 85.2988 121.191C81.8345 118.297 78.6208 115.221 75.7269 112.246L75.7018 112.223C75.6036 112.126 75.5032 112.034 75.4361 111.908C75.3297 111.867 75.2877 111.764 75.2087 111.687C64.4573 100.392 59.1214 91.1622 59.1214 91.1622C55.2199 85.2006 62.4403 77.579 65.7911 76.2942C62.4067 72.3459 58.9569 63.2133 58.9569 63.2133C58.7885 57.3704 67.8695 48.516 72.5048 51.4532L72.4989 51.451Z" fill="url(#paint0_linear_4069_674)"/>
<path d="M230.218 83.5443L230.218 83.5982C234.981 93.508 240.22 103.57 244.326 108.073C252.404 116.792 274.64 135.86 284.907 150.502C265.919 140.801 231.763 140.998 231.763 140.998L238.509 131.911L230.668 120.465C230.668 120.465 210.321 112.26 207.436 108.742C204.505 105.22 196.224 82.6835 201.502 73.5758C206.799 64.4491 215.915 58.7466 217.952 60.0727C219.1 60.8215 224.238 70.9734 230.216 83.5502L230.218 83.5443Z" fill="url(#paint1_linear_4069_674)"/>
<path d="M137.792 182.17L134.679 206.318L101.917 176.828C101.917 176.828 91.943 173.539 84.6812 166.844C77.426 160.186 68.1769 150.527 66.5562 148.22C60.6972 139.877 72.4942 123.343 77.9014 128.315C81.8763 131.967 87.475 136.897 93.5829 142.409L93.6154 142.395C112.886 159.733 137.789 182.162 137.789 182.162L137.792 182.17Z" fill="url(#paint2_linear_4069_674)"/>
<path d="M85.2964 121.197C81.8322 118.303 78.6185 115.227 75.7246 112.252L75.6995 112.229C75.6013 112.131 75.5009 112.04 75.4338 111.913C75.3274 111.873 75.2854 111.77 75.2064 111.693C64.455 100.398 59.1191 91.168 59.1191 91.168C55.2175 85.2064 62.438 77.5848 65.7888 76.3C62.4044 72.3517 57.6026 69.7493 59.3692 59.1787C61.1098 48.7667 69.3874 45.0929 74.0226 48.0302C87.5685 57.0095 104.3 78.0264 124.815 94.014L124.84 94.0369C153.715 116.486 180.669 138.307 180.669 138.307L145.082 174.722L101.487 131.879C95.6131 128.987 90.202 125.28 85.3481 121.257C85.3481 121.221 85.3314 121.205 85.2979 121.211L85.2964 121.197Z" fill="url(#paint3_linear_4069_674)"/>
<path d="M146.702 99.2023C139.648 98.2105 97.9398 65.7839 99.8168 51.9811C101.371 40.5423 111.442 36.2238 113.541 38.2665C120.037 42.6387 132.637 53.0739 147.263 65.6527C147.263 65.6527 147.462 65.842 147.858 66.1866C148.001 66.3278 148.178 66.5023 148.402 66.6606L148.539 66.7796C167.472 83.0073 189.475 102.728 206.131 117.728L206.156 117.751L183.691 135.207L148.617 100.3C148.617 100.3 148.127 99.3952 146.705 99.1964L146.702 99.2023Z" fill="url(#paint4_linear_4069_674)"/>
<g style="mix-blend-mode:multiply" opacity="0.6">
<path fill-rule="evenodd" clip-rule="evenodd" d="M218.302 201.431C218.302 201.431 217.388 165.582 231.767 140.986L222.645 132.675C222.645 132.675 168.195 172.66 164.176 198.192C164.176 198.192 182.049 212.451 191.49 213.499C200.931 214.547 218.296 201.429 218.296 201.429L218.302 201.431Z" fill="#F3BAC0"/>
</g>
<path style="mix-blend-mode:multiply" opacity="0.6" fill-rule="evenodd" clip-rule="evenodd" d="M147.853 66.1848C147.456 65.8402 147.257 65.6509 147.257 65.6509L148.396 66.6588C148.174 66.4945 147.995 66.326 147.853 66.1848Z" fill="url(#paint5_linear_4069_674)"/>
<g style="mix-blend-mode:multiply" opacity="0.2">
<path fill-rule="evenodd" clip-rule="evenodd" d="M205.728 117.759L205.753 117.782L186.629 132.636L186.61 132.649L183.282 135.235L154.832 106.924L148.202 100.326C148.202 100.326 147.503 99.908 146.29 99.2225C147.114 98.7177 157.443 92.1584 161.09 86.8426C164.228 82.2712 152.18 70.5485 148.119 66.8035L205.711 117.752L205.728 117.759Z" fill="#F3BAC0"/>
</g>
<g style="mix-blend-mode:multiply" opacity="0.2">
<path fill-rule="evenodd" clip-rule="evenodd" d="M180.269 138.331L144.684 174.741L102.591 133.372L101.089 131.897C95.2151 129.006 89.8039 125.298 84.9501 121.275C88.6386 123.627 93.1513 125.582 98.4218 125.882L105.546 113.354C105.546 113.354 70.1379 84.5318 65.3944 76.3267C65.3944 76.3267 90.6045 99.9289 108.21 110.632C108.21 110.632 127.612 108.627 124.451 94.0658C130.318 98.6251 136.099 103.159 141.598 107.493C163.168 124.477 180.274 138.333 180.274 138.333L180.269 138.331Z" fill="#D87290"/>
</g>
<path style="mix-blend-mode:multiply" opacity="0.6" fill-rule="evenodd" clip-rule="evenodd" d="M75.2088 111.687C75.3571 111.884 75.5306 112.051 75.7019 112.223C75.338 111.756 75.0952 111.415 74.9971 111.264L75.2088 111.687Z" fill="url(#paint6_linear_4069_674)"/>
<g style="mix-blend-mode:multiply" opacity="0.2">
<path fill-rule="evenodd" clip-rule="evenodd" d="M137.792 182.169L137.135 187.23L137.141 187.232L134.676 206.324L101.914 176.834L109.681 168.798L93.586 142.417L93.6185 142.402C97.6969 146.066 102.022 149.971 106.317 153.831L106.336 153.851C122.324 168.243 137.79 182.175 137.79 182.175L137.792 182.169Z" fill="#F3BAC0"/>
</g>
<g style="mix-blend-mode:multiply" opacity="0.3">
<path fill-rule="evenodd" clip-rule="evenodd" d="M231.768 140.986C231.768 140.986 215.196 167.714 218.454 193.789C218.454 193.789 207.496 167.004 222.645 132.675L231.768 140.986Z" fill="#D87290"/>
</g>
<g style="mix-blend-mode:multiply" opacity="0.6">
<path d="M269.905 211.07C275.07 206.453 283.771 185.115 290.059 167.82C288.561 185.922 274.931 212.989 274.931 212.989C275.062 213.159 275.195 213.344 275.332 213.517C277.375 216.172 279.75 218.609 282.262 220.861C286.387 224.65 311.956 241.941 336.922 258.433L336.074 260.687C308.13 243.808 277.852 224.852 271.847 218.671C269.668 216.43 268.526 214.41 268.87 212.762C268.999 212.15 269.335 211.582 269.903 211.076L269.905 211.07Z" fill="#F3BAC0"/>
</g>
<g style="mix-blend-mode:multiply" opacity="0.5">
<path d="M290.065 167.822C288.567 185.924 274.937 212.991 274.937 212.991C275.068 213.161 268.885 212.76 268.885 212.76L268.879 212.758C269.01 212.14 269.343 211.579 269.912 211.072C275.076 206.455 283.777 185.117 290.065 167.822Z" fill="#D87290"/>
</g>
<path style="mix-blend-mode:screen" d="M226.878 223.649C229.853 228.81 262.086 195.658 268.883 173.462C273.613 158.012 268.884 155.343 266.431 153.49C263.978 151.637 245.888 147.023 236.521 157.245C227.155 167.467 218.386 208.879 226.884 223.651L226.878 223.649Z" fill="url(#paint7_linear_4069_674)"/>
<path style="mix-blend-mode:screen" d="M183.588 142.686C182.571 139.885 155.728 166.336 145.382 181.471C139.901 189.491 141.921 213.013 148.317 205.896C157.523 195.653 186.505 150.689 183.59 142.68L183.588 142.686Z" fill="url(#paint8_linear_4069_674)"/>
<g style="mix-blend-mode:soft-light" opacity="0.97">
<path d="M274.829 194.602C274.829 194.602 282.828 178.139 283.685 174.535C284.543 170.931 288.116 161.727 285.78 158.093C283.445 154.459 262.9 130.255 262.9 130.255C262.9 130.255 281.694 154.952 283.753 161.095C285.812 167.239 274.829 194.602 274.829 194.602Z" fill="#F5FFFF"/>
</g>
<g style="mix-blend-mode:soft-light" opacity="0.97">
<path d="M318.402 307.646L317.214 310.802C284.178 286.841 241.644 254.851 241.644 254.851C241.644 254.851 284.913 285.319 318.402 307.646Z" fill="#F5FFFF"/>
</g>
<g style="mix-blend-mode:soft-light" opacity="0.97">
<path d="M168.254 227.088C168.254 227.088 186.893 247.017 195.318 251.374C203.743 255.732 218.699 251.359 218.699 251.359C218.699 251.359 206.685 253.006 195.268 246.829C183.852 240.652 168.248 227.085 168.248 227.085L168.254 227.088Z" fill="#F5FFFF"/>
</g>
<g style="mix-blend-mode:soft-light" opacity="0.97">
<path d="M113.323 40.2793C113.323 40.2793 106.505 52.1007 105.409 60.4785C105.409 60.4785 101.863 53.9839 103.765 48.6982C105.667 43.4125 113.323 40.2793 113.323 40.2793Z" fill="#F5EE8F"/>
</g>
<g style="mix-blend-mode:soft-light" opacity="0.97">
<path d="M107.924 63.4392C107.924 63.4392 131.302 85.9947 147.687 93.0588C147.687 93.0588 132.367 88.147 120.987 78.8446C109.607 69.5422 107.924 63.4392 107.924 63.4392Z" fill="#F5FFFF"/>
</g>
<g style="mix-blend-mode:soft-light" opacity="0.97">
<path d="M75.8012 130.542C75.8012 130.542 70.4502 139.811 69.5962 146.38C69.5962 146.38 67.0046 141.329 68.3097 137.146C70.1176 131.34 76.095 129.009 75.8071 130.544L75.8012 130.542Z" fill="#F5EE8F"/>
</g>
<g style="mix-blend-mode:soft-light" opacity="0.97">
<path d="M71.5629 148.703C71.5629 148.703 89.8969 166.396 102.748 171.934C102.748 171.934 90.732 168.084 81.809 160.785C72.8861 153.485 71.5629 148.703 71.5629 148.703Z" fill="#F5FFFF"/>
</g>
<g style="mix-blend-mode:soft-light" opacity="0.97">
<path d="M71.7295 49.8545C71.7295 49.8545 65.2567 62.3178 63.8399 70.5076C63.8399 70.5076 60.6131 64.3486 62.7043 59.1341C64.7896 53.9173 71.7295 49.8545 71.7295 49.8545Z" fill="#F5EE8F"/>
</g>
<g style="mix-blend-mode:soft-light" opacity="0.97">
<path d="M65.1667 77.7559C64.1613 78.563 63.2186 79.4542 62.4908 80.4197C59.4068 84.5262 60.5568 89.7686 60.5568 89.7686C62.0204 86.8304 64.5588 83.2594 66.9136 80.212C66.2411 79.4537 65.661 78.6291 65.1689 77.75L65.1667 77.7559Z" fill="#F5EE8F"/>
</g>
<g style="mix-blend-mode:soft-light" opacity="0.97">
<path d="M62.5931 91.2767C62.5931 91.2767 81.1897 114.275 95.1066 124.115C95.1066 124.115 82.1278 116.461 72.3691 105.593C62.6044 94.723 62.5931 91.2767 62.5931 91.2767Z" fill="#F5FFFF"/>
</g>
<g style="mix-blend-mode:soft-light" opacity="0.97">
<path d="M215.944 64.2402C215.944 64.2402 207.062 70.9733 203.051 76.5025C203.051 76.5025 205.099 70.0392 208.364 66.7957C211.629 63.5522 215.938 64.238 215.938 64.238L215.944 64.2402Z" fill="#F5EE8F"/>
</g>
<g style="mix-blend-mode:soft-light" opacity="0.97">
<path d="M217.091 66.6461C217.091 66.6461 226.795 90.0225 226.269 104.61C226.269 104.61 228.177 91.3171 224.855 80.2859C221.533 69.2546 217.091 66.6461 217.091 66.6461Z" fill="#F5FFFF"/>
</g>
<g style="mix-blend-mode:soft-light" opacity="0.97">
<path d="M335.542 262.116L334.849 263.957C309.128 247.679 281.652 229.165 270.635 217.911C270.635 217.911 303.981 240.851 335.542 262.116Z" fill="#F5FFFF"/>
</g>
<path fill-rule="evenodd" clip-rule="evenodd" d="M123.139 123.5L163.755 155.603L161.124 158.291C152.912 146.577 138.197 136.706 123.139 123.5Z" fill="#B24D61"/>
<g style="mix-blend-mode:multiply" opacity="0.3">
<path fill-rule="evenodd" clip-rule="evenodd" d="M123.139 123.499L163.755 155.602L154.088 165.496C152.249 162.87 153.841 155.595 153.841 155.595L104.667 110.315L123.142 123.494L123.139 123.499Z" fill="#D87290"/>
</g>
<g style="mix-blend-mode:multiply" opacity="0.3">
<path fill-rule="evenodd" clip-rule="evenodd" d="M193.933 127.248L187.017 132.627L183.689 135.213L148.617 100.3C166.33 114.088 184.65 128.987 193.933 127.248Z" fill="#D87290"/>
</g>
<g style="mix-blend-mode:multiply" opacity="0.3">
<path fill-rule="evenodd" clip-rule="evenodd" d="M106.339 153.846C122.326 168.238 137.792 182.17 137.792 182.17L137.135 187.231C129.847 177.865 118.619 166.169 106.339 153.846Z" fill="#D87290"/>
</g>
<g style="mix-blend-mode:multiply" opacity="0.3">
<path fill-rule="evenodd" clip-rule="evenodd" d="M149.963 169.716L145.081 174.709L102.988 133.34C118.918 147.366 134.597 159.621 149.963 169.716Z" fill="#D87290"/>
</g>
<g style="mix-blend-mode:multiply" opacity="0.31">
<path d="M191.483 249.54C191.483 249.54 214.064 245.02 238.862 221.477C263.669 197.924 276.812 160.522 276.812 160.522C263.346 140.075 231.764 140.998 231.764 140.998L238.511 131.911L230.67 120.465C230.67 120.465 210.322 112.26 207.437 108.742C214.322 112.082 227.352 108.041 229.119 106.126C230.837 104.268 230.261 84.8327 230.211 83.6017C234.974 93.5115 240.213 103.574 244.319 108.077C253.73 118.22 282.316 142.406 288.89 157.289C288.988 157.514 289.085 157.74 289.167 157.986C289.179 157.991 289.184 158.013 289.186 158.027C289.271 158.268 289.349 158.506 289.43 158.759C289.498 159.007 289.571 159.263 289.635 159.523C289.641 159.525 289.642 159.539 289.638 159.551C289.705 159.819 289.765 160.09 289.814 160.372C289.878 160.652 289.919 160.936 289.958 161.227C290.13 162.383 290.203 163.623 290.191 164.926C290.189 165.255 290.186 165.584 290.168 165.92C290.15 166.54 290.112 167.179 290.057 167.826C289.963 168.955 289.821 170.121 289.64 171.319C289.551 171.912 289.441 172.511 289.332 173.123C289.211 173.785 289.077 174.462 288.939 175.151C288.823 175.693 288.7 176.253 288.571 176.811C288.568 176.817 288.56 176.82 288.564 176.829C288.416 177.453 288.261 178.082 288.103 178.716C288.019 179.028 287.939 179.348 287.853 179.666C287.773 179.986 287.695 180.301 287.595 180.62C287.509 180.938 287.418 181.254 287.332 181.572C286.974 182.845 286.59 184.115 286.189 185.378C286.091 185.692 285.985 186.009 285.879 186.326C285.779 186.645 285.675 186.977 285.567 187.3C285.356 187.914 285.148 188.536 284.939 189.145C284.83 189.454 284.718 189.769 284.617 190.074C284.507 190.383 284.391 190.69 284.284 190.993C284.178 191.276 284.069 191.565 283.978 191.861C283.838 192.233 283.698 192.605 283.566 192.973C283.151 194.076 282.742 195.161 282.322 196.223C282.122 196.754 281.913 197.274 281.7 197.787C281.633 197.964 281.565 198.127 281.495 198.296C281.305 198.763 281.118 199.225 280.927 199.678C280.637 200.377 280.353 201.059 280.079 201.717C279.943 202.023 279.814 202.331 279.686 202.633C279.625 202.778 279.561 202.93 279.5 203.075C279.241 203.672 278.992 204.244 278.749 204.8C277.102 208.531 275.777 211.279 275.217 212.409C275.188 212.485 275.156 212.554 275.125 212.617C275.006 212.861 274.935 212.996 274.935 212.996C277.072 215.849 279.591 218.46 282.268 220.863C282.435 221.013 282.61 221.173 282.8 221.332C282.976 221.493 283.169 221.66 283.371 221.823C283.57 221.993 283.767 222.168 283.986 222.338C284.387 222.671 284.812 223.013 285.272 223.368C285.831 223.8 286.423 224.252 287.051 224.718C287.435 225.004 287.838 225.297 288.244 225.598C288.901 226.074 289.586 226.568 290.302 227.066C290.915 227.499 291.559 227.937 292.2 228.387C293.389 229.205 294.626 230.042 295.915 230.884C296.168 231.053 296.429 231.219 296.686 231.396C297.201 231.732 297.719 232.075 298.24 232.412C299.045 232.944 299.858 233.473 300.679 233.997C301.43 234.476 302.185 234.962 302.945 235.45C303.006 235.486 303.067 235.523 303.133 235.561C303.708 235.933 320.872 247.56 336.929 258.435L315.984 314.071C291.352 295.778 232.663 254.359 232.663 254.359L200.753 259.234C190.798 255.23 171.297 239.152 156.041 225.737C167.28 235.289 191.483 249.54 191.483 249.54Z" fill="#D87290"/>
</g>
<g style="mix-blend-mode:multiply" opacity="0.3">
<path fill-rule="evenodd" clip-rule="evenodd" d="M180.269 138.331L166.212 152.715C165.871 151.469 170.805 142.36 170.805 142.36L162.3 129.041L141.592 107.491C163.162 124.475 180.269 138.331 180.269 138.331Z" fill="#D87290"/>
</g>
<defs>
<linearGradient id="paint0_linear_4069_674" x1="415.197" y1="371.415" x2="76.9668" y2="40.8789" gradientUnits="userSpaceOnUse">
<stop offset="0.02" stop-color="#FFB880"/>
<stop offset="1" stop-color="#FF8777"/>
</linearGradient>
<linearGradient id="paint1_linear_4069_674" x1="243.034" y1="184.651" x2="241.889" y2="85.1654" gradientUnits="userSpaceOnUse">
<stop stop-color="#FF8777"/>
<stop offset="0.98" stop-color="#FFB880"/>
</linearGradient>
<linearGradient id="paint2_linear_4069_674" x1="138.965" y1="202.168" x2="68.0488" y2="132.865" gradientUnits="userSpaceOnUse">
<stop stop-color="#FF8777"/>
<stop offset="0.98" stop-color="#FFB880"/>
</linearGradient>
<linearGradient id="paint3_linear_4069_674" x1="161.397" y1="158.243" x2="57.5033" y2="56.7132" gradientUnits="userSpaceOnUse">
<stop stop-color="#FF8777"/>
<stop offset="0.98" stop-color="#FFB880"/>
</linearGradient>
<linearGradient id="paint4_linear_4069_674" x1="194.242" y1="130.161" x2="104.302" y2="42.2675" gradientUnits="userSpaceOnUse">
<stop stop-color="#FF8777"/>
<stop offset="0.98" stop-color="#FFB880"/>
</linearGradient>
<linearGradient id="paint5_linear_4069_674" x1="148.203" y1="67.0835" x2="147.115" y2="66.0203" gradientUnits="userSpaceOnUse">
<stop stop-color="#B060F4"/>
<stop offset="1" stop-color="#FFEADB"/>
</linearGradient>
<linearGradient id="paint6_linear_4069_674" x1="75.4629" y1="112.499" x2="74.6232" y2="111.678" gradientUnits="userSpaceOnUse">
<stop stop-color="#FFEADB"/>
<stop offset="0.99" stop-color="#B060F4"/>
</linearGradient>
<linearGradient id="paint7_linear_4069_674" x1="213.091" y1="207.688" x2="271.107" y2="158.56" gradientUnits="userSpaceOnUse">
<stop/>
<stop offset="0.04" stop-color="#0B0300"/>
<stop offset="0.4" stop-color="#6A1E00"/>
<stop offset="0.69" stop-color="#B03200"/>
<stop offset="0.89" stop-color="#DB3F00"/>
<stop offset="1" stop-color="#EC4400"/>
</linearGradient>
<linearGradient id="paint8_linear_4069_674" x1="153.954" y1="107.803" x2="99.7737" y2="153.683" gradientUnits="userSpaceOnUse">
<stop/>
<stop offset="0.04" stop-color="#0B0300"/>
<stop offset="0.4" stop-color="#6A1E00"/>
<stop offset="0.69" stop-color="#B03200"/>
<stop offset="0.89" stop-color="#DB3F00"/>
<stop offset="1" stop-color="#EC4400"/>
</linearGradient>
</defs>
</svg>
