<svg width="413" height="370" viewBox="0 0 413 370" fill="none" xmlns="http://www.w3.org/2000/svg">
<path d="M350.561 284.641L347.951 276.765C302.56 248.844 252.965 216.678 247.03 210.238C243.499 201.162 246.205 163.451 249.34 138.852C253.701 120.783 249.651 102.578 243.362 96.0196C240.892 93.4349 234.35 88.5871 223.882 80.8859L220.456 78.3671C214.843 74.234 207.894 69.0459 203.944 65.6258C199.072 61.4221 193.8 55.2713 189.566 50.3367C184.524 44.4621 181.776 41.3267 179.189 39.8024C177.541 38.8276 175.464 38.096 173.024 37.6308C168.026 36.3749 163.723 36.3781 160.211 37.6454C159.131 37.8702 158.147 38.1449 157.29 38.4792C155.075 39.3293 151.707 41.645 142.684 48.0418C138.246 51.186 133.342 54.6604 128.533 57.8935C126.448 56.496 124.861 55.4954 123.722 54.8592C113.355 49.0584 91.7306 48.2475 83.8236 53.3556C75.7913 58.5499 67.8396 77.1137 68.9012 88.2059C69.0451 89.6977 69.3922 91.1241 69.8529 92.4392C67.3018 93.8074 64.3742 95.7596 61.3151 98.5456C59.1778 100.494 57.2747 102.975 55.6543 105.911C48.0805 118.458 51.3009 129.028 52.2332 131.493C52.5286 132.398 52.8734 133.253 53.2703 134.067C50.391 139.128 46.0716 148.276 45.4071 158.462C44.4963 167.058 46.5922 172.157 47.8057 174.296C47.8392 174.389 47.8833 174.479 47.9168 174.572L48.6607 175.898C48.9296 176.271 50.9437 178.965 55.2806 182.198C48.5708 204.168 55.3096 215.113 57.0872 217.499C57.4863 218.088 57.8702 218.613 58.2677 219.101C59.3189 220.399 60.5593 221.712 61.9442 222.997L62.0164 222.923L61.8993 223.114C62.78 223.863 63.6728 224.592 64.5554 225.278C65.1409 225.755 65.6875 226.163 66.2077 226.555L66.4719 226.744C66.9567 227.105 67.4875 227.494 68.0265 227.87L68.1514 227.947C68.8007 228.409 69.4514 228.854 70.1103 229.285C70.4943 229.53 70.8612 229.773 71.2098 229.987L71.4597 230.14C72.6408 230.901 73.8526 231.627 75.1675 232.362C82.8915 236.803 89.6792 239.302 91.8755 240.062C91.9559 240.093 92.0363 240.124 92.1168 240.155C97.6601 243.34 139.54 267.258 154.542 272.146C156.165 272.689 157.594 273.031 158.856 273.172C164.619 273.875 171.462 273.275 177.497 272.75C181.257 272.423 186.857 271.929 188.722 272.313C191.868 274.299 205.418 285.33 218.524 296.009C242.516 315.55 272.375 339.86 289.369 351.122L295.042 351.942C295.81 351.707 306.564 348.201 319.829 334.718L350.561 284.641ZM248.977 138.439L249.425 136.957C249.47 137.474 249.453 137.988 249.382 138.488L248.977 138.439ZM247.997 141.704L248.02 141.637L249.267 139.133C249.04 140.062 248.611 140.94 247.997 141.704Z" fill="white"/>
<path d="M169.068 95.7646C169.068 95.7646 128.875 65.3935 120.454 60.687C112.032 55.9805 92.9029 55.4421 87.4552 58.9627C82.0076 62.4832 74.6973 78.4525 75.5619 87.5493C75.9762 91.9056 79.494 95.9118 79.494 95.9118C79.494 95.9118 73.2892 96.6676 65.8166 103.473C58.3334 110.281 54.4686 126.907 61.231 133.919C61.231 133.919 46.7309 154.359 54.1059 171.969C54.1059 171.969 56.7339 175.611 63.2846 179.441C63.2846 179.441 54.1184 203.362 63.4673 214.85C72.8163 226.337 94.9302 234.023 94.9302 234.023C94.9302 234.023 122.135 219.632 150.623 171.456C179.111 123.28 169.072 95.758 169.072 95.758L169.068 95.7646Z" fill="url(#paint0_linear_4115_155)"/>
<path d="M241.382 213.908C241.382 213.908 241.336 213.879 241.297 213.765C234.807 204.186 238.594 154.651 242.748 137.641C242.76 137.621 242.745 137.603 242.763 137.587C242.76 137.549 242.772 137.529 242.772 137.529C246.965 120.516 242.712 105.002 238.532 100.644C236.033 98.0328 226.146 90.8602 216.486 83.7455C209.932 78.9174 203.493 74.0785 199.559 70.6771C189.804 62.255 179.568 47.787 175.794 45.5705C171.998 43.3312 163.481 43.2658 159.706 44.725C156.638 45.9028 141.538 57.4631 128.489 65.9625C125.534 67.9157 122.698 69.6888 120.108 71.1506C106.105 79.1097 87.9884 85.8033 86.0429 87.8963C85.4031 88.5994 85.2942 90.4884 85.7233 92.8435C85.7269 92.8819 85.734 92.9588 85.7452 93.0291C86.1694 95.4807 87.121 98.4009 88.501 101.095C88.5207 101.107 88.5466 101.168 88.5663 101.18C89.8703 103.674 91.5684 105.939 93.6133 107.402C93.6133 107.402 93.9093 107.584 94.4552 107.919C102.307 112.239 129.986 113.986 150.408 96.2751L156.06 86.0337L156.313 85.5915C156.313 85.5915 167.984 93.1619 169.079 95.7897C169.102 95.8402 169.128 95.9013 169.113 95.9555C169.555 99.7217 152.536 135.45 150.628 171.477C150.628 171.477 120.392 213.736 102.321 229.077C102.274 229.139 102.239 229.181 102.182 229.2C100.664 230.478 99.2551 231.579 97.9162 232.432C97.7576 232.543 97.5954 232.616 97.4368 232.727C96.628 233.263 95.8468 233.68 95.1054 233.958C95.0322 234.004 94.9816 234.027 94.9311 234.05C94.9311 234.05 141.382 260.819 156.634 265.787C157.836 266.19 158.856 266.445 159.635 266.533C170.194 267.816 186.152 264.063 191.353 266.123C196.536 268.199 264.592 326.663 293.09 345.547C293.09 345.547 322.955 336.338 344.465 282.476C344.465 282.476 248.052 223.18 241.402 213.92L241.382 213.908Z" fill="url(#paint1_linear_4115_155)"/>
<g style="mix-blend-mode:multiply" opacity="0.31">
<path d="M66.2682 218.017C67.0674 218.707 67.909 219.386 68.7274 220.015C69.2578 220.449 69.7689 220.827 70.2957 221.222C71.3913 222.049 72.5218 222.833 73.629 223.567C74.0328 223.824 74.4325 224.087 74.81 224.328C76.0593 225.14 77.2752 225.859 78.4874 226.539C85.7429 230.711 92.1573 233.081 94.2337 233.785C94.6647 233.968 94.9155 234.032 94.9155 234.032C94.966 234.008 95.0272 233.982 95.0898 233.939C95.8438 233.596 96.6249 233.179 97.4212 232.708C97.5798 232.597 97.742 232.524 97.9007 232.414C117.652 220.621 150.159 180.208 150.159 180.208L153.775 198.337C153.775 198.337 156.593 174.151 161.858 149.166C164.2 137.971 167.056 126.648 170.361 117.249C173.593 108.104 177.255 100.807 181.318 97.2423C198.873 81.8283 216.479 83.7413 216.479 83.7413C209.925 78.9132 203.486 74.0743 199.552 70.6729C189.798 62.2508 179.562 47.7828 175.788 45.5663C177.555 53.678 153.83 82.673 149.69 85.3754C130.351 98.0012 93.9767 98.488 89.7484 95.2411C85.759 92.1951 85.9956 88.4013 86.04 87.9305C85.6537 89.6222 85.5738 91.2575 85.7168 92.8393C85.7204 92.8777 85.7276 92.9546 85.7388 93.0248C86.0524 96.0697 87.1777 98.8249 88.4946 101.091C88.5143 101.103 88.5401 101.164 88.5599 101.176C90.8297 105.032 93.6068 107.398 93.6068 107.398C93.6068 107.398 93.9028 107.579 94.4488 107.914C94.8683 108.19 95.4719 108.578 96.1793 109.049C104.582 114.568 130.706 132.067 131.184 138.002C131.734 145.059 112.383 170.408 107.222 168.799C102.088 167.205 61.2401 133.933 61.2401 133.933C72.4416 145.471 105.711 171.276 107.241 173.166C108.764 175.051 96.6694 195.836 91.8043 195.249C87.2482 194.735 66.1992 181.301 63.5685 179.642C75.8814 188.719 95.621 201.395 95.621 201.395C95.6171 206.536 84.7658 220.16 82.2183 220.77C79.875 221.342 68.3701 218.546 66.5282 218.095C66.3552 218.052 66.2773 218.032 66.2773 218.032L66.2682 218.017Z" fill="#D87290"/>
</g>
<g style="mix-blend-mode:soft-light" opacity="0.97">
<path d="M120.105 71.1396C120.105 71.1396 122.12 71.5886 122.829 73.3549C123.538 75.1211 112.19 89.3636 103.259 92.893C94.3292 96.4224 87.7031 86.7689 87.7031 86.7689L120.109 71.133L120.105 71.1396Z" fill="#F5AF8F"/>
</g>
<g style="mix-blend-mode:multiply" opacity="0.5">
<path d="M163.585 72.2793L156.045 86.0252L159.067 88.2872C159.067 88.2872 159.989 84.6154 163.585 72.2793Z" fill="#D87290"/>
</g>
<g style="mix-blend-mode:multiply" opacity="0.3">
<path d="M95.3587 228.78L94.9182 234.042C94.9182 234.042 129.532 209.511 150.162 180.219C150.162 180.219 169.159 112.599 169.066 95.7817L156.3 85.5835C156.3 85.5835 151.594 94.2407 150.393 96.2565C149.192 98.2722 143.628 102.011 143.628 102.011C143.628 102.011 148.205 110.814 146.129 115.997C145.275 118.126 143.234 120.758 141.009 123.159C137.799 126.604 134.141 129.584 132.859 129.902C130.669 130.505 115.878 121.039 115.878 121.039C115.878 121.039 144.987 143.014 146.716 146.158C148.484 149.298 139.473 180.668 129.328 179.921C129.328 179.921 121.897 197.282 116.322 200.272C110.758 203.26 104.705 201.157 104.705 201.157C104.705 201.157 111.556 207.788 108.231 214.549C104.883 221.287 98.9654 224.836 94.9717 225.265C94.6047 225.302 94.1532 225.315 93.6253 225.289C88.7121 225.136 77.5559 222.952 76.0382 222.637L89.5916 226.934L95.3496 228.765L95.3587 228.78Z" fill="#D87290"/>
</g>
<g style="mix-blend-mode:multiply" opacity="0.3">
<path d="M344.445 282.463C344.445 282.463 248.032 223.167 241.382 213.907C234.771 204.642 238.567 154.634 242.757 137.582C241.836 139.761 212.335 209.373 213.794 216.897C215.297 224.584 297.113 283.025 344.445 282.463Z" fill="#D87290"/>
</g>
<g style="mix-blend-mode:multiply" opacity="0.6">
<path d="M241.381 213.908C241.381 213.908 241.335 213.879 241.297 213.765C241.247 213.698 241.207 213.601 241.161 213.528C239.852 211.131 233.62 196.114 242.741 137.637C241.995 139.516 218.197 200.53 201.915 229.14C185.317 258.208 156.624 265.773 156.624 265.773C157.826 266.175 158.846 266.43 159.625 266.519C170.184 267.801 186.143 264.048 191.344 266.108C196.526 268.184 264.582 326.648 293.08 345.532C293.08 345.532 322.945 336.323 344.455 282.462C344.455 282.462 248.042 223.166 241.392 213.905L241.381 213.908Z" fill="#F3BAC0"/>
</g>
<path d="M120.106 71.1394C120.106 71.1394 123.39 73.3272 118.184 80.7629C111.858 89.8022 102.061 93.2978 102.061 93.2978C102.061 93.2978 113.209 90.876 121.473 77.3663C129.737 63.8566 120.106 71.1394 120.106 71.1394Z" fill="#E86C7C"/>
<g style="mix-blend-mode:soft-light" opacity="0.97">
<path d="M91.6883 84.8492C91.6883 84.8492 93.1239 90.448 102.054 93.2933C102.054 93.2933 94.9753 96.5646 87.6928 86.7708L91.6817 84.8452L91.6883 84.8492Z" fill="#F5D3D2"/>
</g>
<g style="mix-blend-mode:soft-light" opacity="0.97">
<path d="M115.024 73.5905C115.024 73.5905 117.335 76.0227 120.949 75.135C120.949 75.135 121.498 72.4111 120.095 71.1423L115.024 73.5905Z" fill="#F5D3D2"/>
</g>
<g style="mix-blend-mode:multiply" opacity="0.5">
<path d="M66.2686 218.016C67.0677 218.706 67.9094 219.385 68.7277 220.014C69.2581 220.449 69.7692 220.826 70.296 221.221C71.3917 222.048 72.5222 222.832 73.6293 223.566C74.0331 223.823 74.4328 224.086 74.8103 224.327C76.0596 225.139 77.2755 225.858 78.4878 226.538C85.7432 230.71 92.1576 233.08 94.234 233.784C94.665 233.967 94.9158 234.031 94.9158 234.031C94.9664 234.007 95.0275 233.982 95.0902 233.938C95.8441 233.595 96.6253 233.178 97.4215 232.707C97.5802 232.596 97.7424 232.524 97.901 232.413C117.653 220.62 150.16 180.208 150.16 180.208L169.064 95.7699L156.298 85.5718C156.298 85.5718 151.868 94.3535 148.809 97.8186C145.75 101.284 126.531 114.599 96.1705 109.033C104.573 114.552 130.697 132.052 131.175 137.987C131.726 145.043 112.374 170.393 107.213 168.783C102.079 167.19 61.2313 133.917 61.2313 133.917C72.4329 145.455 105.702 171.26 107.232 173.15C108.755 175.036 96.6606 195.82 91.7955 195.234C87.2394 194.72 66.1904 181.286 63.5597 179.626C75.8726 188.704 95.6122 201.379 95.6122 201.379C95.6084 206.52 84.757 220.145 82.2095 220.754C79.8662 221.327 68.3614 218.531 66.5194 218.08C66.3464 218.037 66.2686 218.016 66.2686 218.016Z" fill="#D87290"/>
</g>
<g style="mix-blend-mode:multiply" opacity="0.5">
<path d="M118.63 71.846L106.668 60.2039L116.402 66.1956L119.648 63.2526L127.025 66.9016L118.63 71.846Z" fill="#D87290"/>
</g>
<g style="mix-blend-mode:multiply" opacity="0.5">
<path d="M133.808 178.522C133.808 178.522 117.241 173.897 107.216 168.794C97.1899 163.692 80.3327 150.938 80.3327 150.938C80.3327 150.938 102.639 169.907 107.23 173.168C111.818 176.418 129.331 179.93 129.331 179.93C129.331 179.93 131.67 179.365 133.808 178.522Z" fill="#D87290"/>
</g>
<g style="mix-blend-mode:multiply" opacity="0.5">
<path d="M104.722 201.158C104.722 201.158 96.7496 198.139 89.6071 194.58C82.4647 191.021 63.2872 179.451 63.2872 179.451C63.2872 179.451 91.0874 198.232 95.0126 200.025C98.9377 201.818 104.725 201.168 104.725 201.168L104.722 201.158Z" fill="#D87290"/>
</g>
<g style="mix-blend-mode:multiply" opacity="0.5">
<path d="M143.625 102.017C143.625 102.017 123.039 114.992 96.1731 109.045C96.1731 109.045 126.323 119.217 146.284 109.355L143.618 102.013L143.625 102.017Z" fill="#D87290"/>
</g>
<g style="mix-blend-mode:multiply" opacity="0.5">
<path d="M96.1727 109.045C96.1727 109.045 89.1922 101.474 90.665 95.6949C90.665 95.6949 86.9069 94.0133 86.0439 87.9238C86.0439 87.9238 83.0707 100.117 96.1727 109.045Z" fill="#D87290"/>
</g>
<g style="mix-blend-mode:soft-light" opacity="0.97">
<path d="M87.4622 58.9662C87.4622 58.9662 86.1718 69.2578 82.9341 77.7205C79.6964 86.1832 75.5689 87.5529 75.5689 87.5529C75.5689 87.5529 75.4869 70.497 87.4622 58.9662Z" fill="#F5EE8F"/>
</g>
<g style="mix-blend-mode:soft-light" opacity="0.97">
<path d="M60.411 135.18C60.411 135.18 61.5165 142.424 59.692 153.837C57.8676 165.249 53.8519 171.306 53.8519 171.306C53.8519 171.306 46.4393 161.414 60.415 135.174L60.411 135.18Z" fill="#F5EE8F"/>
</g>
<g style="mix-blend-mode:soft-light" opacity="0.97">
<path d="M65.8305 103.48C65.8305 103.48 64.0019 112.789 62.0809 120.095C60.16 127.401 58.565 129.247 58.565 129.247C58.565 129.247 53.2279 117.243 65.8305 103.48Z" fill="#F5EE8F"/>
</g>
<g style="mix-blend-mode:soft-light" opacity="0.97">
<path d="M63.2881 179.45C63.2881 179.45 61.8914 186.743 60.9752 197.074C60.3712 203.857 62.5399 213.573 62.5399 213.573C62.5399 213.573 54.2431 203.691 63.2881 179.45Z" fill="#F5EE8F"/>
</g>
<path style="mix-blend-mode:screen" d="M203.771 85.1337C203.771 85.1337 222.871 93.0524 227.481 116.69C232.09 140.327 166.684 237.872 158.564 240.938C150.447 243.998 157.026 136.367 173.541 109.249C190.057 82.1319 203.767 85.1402 203.767 85.1402L203.771 85.1337Z" fill="url(#paint2_linear_4115_155)"/>
<g style="mix-blend-mode:multiply" opacity="0.5">
<path d="M241.159 213.534C241.159 213.534 229.71 224.266 213.794 216.898L242.742 137.637C242.742 137.637 234.765 199.858 241.163 213.528L241.159 213.534Z" fill="#D87290"/>
</g>
<path d="M169.07 95.7749C169.07 95.7749 157.197 96.6196 153.522 98.3578C149.843 100.103 145.01 105.838 145.01 105.838L143.618 102.014C143.618 102.014 148.521 98.82 150.393 96.2563C152.265 93.6926 156.3 85.5834 156.3 85.5834C156.3 85.5834 167.786 93.1307 169.066 95.7815L169.07 95.7749Z" fill="#AB3D52"/>
<path d="M94.9786 225.268C94.9786 225.268 101.93 227.56 117.416 208.006C132.941 188.448 148.319 156.648 148.84 150.738C149.291 145.799 143.151 129.598 141.009 123.158C137.799 126.603 134.141 129.583 132.859 129.902C130.669 130.504 115.879 121.038 115.879 121.038C115.879 121.038 144.988 143.013 146.717 146.157C148.484 149.297 139.473 180.667 129.329 179.92C129.329 179.92 121.897 197.282 116.322 200.271C110.758 203.259 104.705 201.156 104.705 201.156C104.705 201.156 111.556 207.787 108.231 214.548C104.884 221.286 98.9657 224.835 94.972 225.264L94.9786 225.268Z" fill="#AB3D52"/>
<path d="M76.0407 222.647L89.5941 226.944L93.6319 225.293C88.7187 225.139 77.5624 222.956 76.0447 222.64L76.0407 222.647Z" fill="#AB3D52"/>
<g style="mix-blend-mode:soft-light" opacity="0.97">
<path d="M150.778 261.016C150.778 261.016 121.179 247.732 98.6082 235.184C98.6082 235.184 127.941 242.718 150.778 261.016Z" fill="#F5FFFF"/>
</g>
<g style="mix-blend-mode:soft-light" opacity="0.97">
<path d="M294.525 335.552C294.525 335.552 238.087 298.498 208.949 276.17C208.949 276.17 261.648 323.389 290.735 340.208L294.525 335.552Z" fill="#F5FFFF"/>
</g>
<g style="mix-blend-mode:soft-light" opacity="0.97">
<path d="M237.648 105.67C237.648 105.67 246.503 118.421 241.474 134.096C236.44 149.779 220.962 184.251 220.962 184.251C220.962 184.251 245.073 130.474 237.648 105.67Z" fill="#F5FFFF"/>
</g>
<g style="mix-blend-mode:soft-light" opacity="0.97">
<path d="M59.8281 172.338C59.8281 172.338 77.782 186.743 90.2214 192.575C90.2214 192.575 75.2226 189.6 59.8281 172.338Z" fill="#F5FFFF"/>
</g>
<g style="mix-blend-mode:soft-light" opacity="0.97">
<path d="M64.7423 209.466C64.7423 209.466 73.952 217.816 82.7018 219.346C82.7018 219.346 69.9181 220.14 64.7423 209.466Z" fill="#F5FFFF"/>
</g>
<g style="mix-blend-mode:soft-light" opacity="0.97">
<path d="M64.3174 130.144C64.3174 130.144 83.9233 151.005 105.612 163.781C105.612 163.781 78.4321 153.195 64.3174 130.144Z" fill="#F5FFFF"/>
</g>
<g style="mix-blend-mode:soft-light" opacity="0.97">
<path d="M179.189 51.3396C179.189 51.3396 183.204 61.5454 190.919 68.9516C198.63 76.3645 218.898 87.7073 218.898 87.7073C218.898 87.7073 187.775 63.9525 179.193 51.333L179.189 51.3396Z" fill="#F5FFFF"/>
</g>
<g style="mix-blend-mode:soft-light" opacity="0.97">
<path d="M341.046 282.396C341.046 282.396 270.107 250.188 242.578 222.745C242.578 222.745 282.172 244.87 341.046 282.396Z" fill="#F5FFFF"/>
</g>
<g style="mix-blend-mode:soft-light" opacity="0.97">
<path d="M140.595 143.396C143.434 146.914 143.38 164.339 134.542 170.198C134.542 170.198 138.343 157.173 139.981 151.405C141.609 145.64 140.601 143.401 140.601 143.401L140.595 143.396Z" fill="#F5A995"/>
</g>
<g style="mix-blend-mode:soft-light" opacity="0.97">
<path d="M125.325 182.398C125.325 182.398 117.313 202.61 105.881 199.741C105.881 199.741 120.339 192.677 125.325 182.398Z" fill="#F5A995"/>
</g>
<g style="mix-blend-mode:soft-light" opacity="0.97">
<path d="M103.539 219.493C103.539 219.493 94.3802 222.303 92.3986 224.292C92.3986 224.292 98.7222 225.556 103.539 219.493Z" fill="#F5A995"/>
</g>
<g style="mix-blend-mode:multiply" opacity="0.3">
<path d="M130.968 139.86C130.968 139.86 130.358 149.293 122.776 159.39C115.193 169.488 107.21 168.79 107.21 168.79C107.21 168.79 123.71 159.683 130.968 139.86Z" fill="#D87290"/>
</g>
<g style="mix-blend-mode:multiply" opacity="0.3">
<path d="M106.919 175.576C106.919 175.576 108.688 181.443 105.272 188.012C101.857 194.582 93.1485 194.96 93.1485 194.96C93.1485 194.96 102.948 188.243 106.919 175.576Z" fill="#D87290"/>
</g>
<g style="mix-blend-mode:multiply" opacity="0.3">
<path d="M95.9433 203.097C95.9433 203.097 96.7632 208.327 93.7792 212.997C90.7993 217.661 83.4881 219.983 83.4881 219.983C83.4881 219.983 89.5103 216.19 95.9433 203.097Z" fill="#D87290"/>
</g>
<defs>
<linearGradient id="paint0_linear_4115_155" x1="146.741" y1="181.003" x2="51.0346" y2="103.037" gradientUnits="userSpaceOnUse">
<stop stop-color="#FF8777"/>
<stop offset="0.98" stop-color="#FFB880"/>
</linearGradient>
<linearGradient id="paint1_linear_4115_155" x1="336.719" y1="304.24" x2="80.1502" y2="95.2297" gradientUnits="userSpaceOnUse">
<stop offset="0.02" stop-color="#FFB880"/>
<stop offset="1" stop-color="#FF8777"/>
</linearGradient>
<linearGradient id="paint2_linear_4115_155" x1="225.718" y1="102.007" x2="130.398" y2="219.015" gradientUnits="userSpaceOnUse">
<stop stop-color="#EC4400"/>
<stop offset="0.11" stop-color="#DB3F00"/>
<stop offset="0.31" stop-color="#B03200"/>
<stop offset="0.6" stop-color="#6A1E00"/>
<stop offset="0.96" stop-color="#0B0300"/>
<stop offset="1"/>
</linearGradient>
</defs>
</svg>
