<svg width="429" height="330" viewBox="0 0 429 330" fill="none" xmlns="http://www.w3.org/2000/svg">
<path d="M383.341 255.257C379.241 253.317 373.128 250.399 366.112 246.984L365.802 246.827C355.693 241.901 346.541 237.303 338.602 233.168L338.339 232.992L338.078 232.893L337.856 232.778C330.179 228.763 323.742 225.232 318.697 222.263L317.823 221.743C308.609 216.258 306.865 214.235 306.664 213.977C303.438 208.828 302.33 182.931 301.796 170.473C301.398 161.224 301.146 155.861 300.596 153.22L300.586 153.169C298.852 145.029 293.261 134.442 288.388 130.061C286.37 128.227 282.974 126.991 276.293 125.647C272.51 124.877 268.102 124.16 263.835 123.47C257.831 122.5 251.625 121.497 247.925 120.434C241.423 118.569 229.684 113.678 222.666 110.748L221.29 110.178C192.371 84.4625 182.28 74.1391 178.901 69.9917C177.557 68.3528 176.14 66.4578 174.407 64.0078C173.134 62.2149 171.863 60.3748 170.519 58.422C161.445 45.2648 151.166 30.337 132.463 21.0657C116.429 13.105 106.793 17.8216 102.47 21.3404C95.9488 26.6546 93.8533 34.9315 95.2044 40.0491C95.7044 41.908 96.98 44.4804 102.639 50.5346L102.785 51.2726L104.24 52.2034C110.268 58.4882 118.479 66.0812 125.105 72.2082C129.375 76.158 133.066 79.5681 134.465 81.0611C135.974 82.679 137.763 84.7309 139.65 86.8973C140.601 87.9897 141.581 89.1189 142.581 90.2481L142.981 90.6941C146.513 94.7077 151.016 99.5675 155.267 102.644C158.986 105.325 175.07 120.713 187.105 133.031C186.801 133.559 186.493 134.099 186.174 134.65C185.309 136.154 184.393 137.75 183.432 139.421C174.263 135.187 161.11 128.908 144.971 121.056L144.71 120.936C144.604 120.887 144.501 120.846 144.408 120.795L144.298 120.738C143.712 120.442 143.182 120.186 142.71 119.961C142.346 119.78 142.015 119.623 141.738 119.491L141.514 119.383C141.124 119.179 140.834 119.042 140.68 118.971C133.864 115.656 128.738 113.139 127.294 112.423C126.098 111.557 124.862 110.685 123.631 109.842C112.085 101.798 97.2381 93.0951 83.9201 86.5496C60.3614 74.9794 55.3781 76.6685 53.2327 77.3951C43.1925 80.8514 37.3442 97.4595 37.3196 101.468C37.3152 102.702 37.3015 105.58 43.8562 112.627C46.1262 115.063 50.8151 119.69 56.6987 123.264C62.5884 126.86 71.4589 131.214 79.2899 135.054C83.3635 137.054 87.2092 138.937 89.7979 140.324L90.0938 140.483C90.9423 140.934 91.8073 141.397 92.6742 141.833C94.8212 142.945 97.0173 144.052 99.1394 145.114C102.642 146.877 107.441 149.287 108.418 150.033C110.207 151.463 113.265 152.65 119.458 154.993C120.637 155.437 121.875 155.907 123.136 156.391L123.278 156.479L123.641 156.599L145.551 166.833C143.297 167.763 141.25 169.02 139.604 170.697C135.198 175.192 133.354 181.961 132.585 186.837C131.744 192.058 131.48 199.689 133.52 204.044C135.099 207.351 139.319 212.22 142.433 215.577C140.903 218.31 139.334 222.197 139.206 226.766C137.574 238.979 143.671 249.939 150.566 253.532C156.779 256.79 184.62 264.118 190.464 265.636C191.213 265.87 195.677 267.247 201.118 269.015L201.549 269.157C208.214 271.356 217.356 274.454 221.809 276.463C227.283 278.938 234.752 281.102 242 282.318L243.185 282.518C246.164 282.988 248.815 283.235 250.854 283.224C255.291 283.213 261.162 280.218 268.979 275.987C270.302 275.27 271.94 274.382 273.142 273.782C282.25 279.382 321.826 306.708 346.6 323.993L349.848 326.26L352.997 323.856C353.519 323.455 358.072 319.944 363.894 314.201L383.343 255.251L383.341 255.257Z" fill="white"/>
<path d="M169.986 67.1596C171.549 69.3762 173.102 71.4801 174.698 73.434C183.175 83.8465 216.865 113.649 234.049 128.663C240.197 134.024 244.228 137.499 244.228 137.499C244.228 137.499 274.904 175.877 276.012 188.544C276.699 196.42 247.843 223.449 223.54 242.042C208.817 253.297 195.769 261.458 191.943 260.428C191.943 260.428 159.106 251.889 153.084 248.734C147.033 245.584 138.938 231.137 149.385 215.001L149.284 214.913C148.286 213.901 140.323 205.741 138.407 201.715C137.312 199.38 136.979 193.6 137.927 187.704C138.726 182.654 140.468 177.56 143.463 174.504C148.436 169.451 159.798 169.546 164.878 169.883C166.271 169.967 167.178 170.054 167.398 170.092C166.169 169.51 140.69 157.88 132.335 154.262C130.203 153.334 128.01 152.467 125.849 151.624C125.794 151.585 125.746 151.583 125.695 151.573C125.64 151.534 125.59 151.539 125.57 151.518C125.502 151.496 125.467 151.478 125.467 151.478C119.101 149.015 113.331 147.023 111.791 145.791C109.961 144.319 102.112 140.616 95.1471 137.007C94.1835 136.512 93.2425 136.01 92.3241 135.523C84.8496 131.533 68.3185 124.003 59.5064 118.623C50.7047 113.274 42.721 103.81 42.7241 101.482C42.7376 99.1842 47.7482 85.0114 54.9649 82.536C61.7862 80.2239 97.0516 97.965 120.5 114.3C121.865 115.236 123.184 116.163 124.451 117.086C124.451 117.086 130.141 119.899 138.336 123.88C138.336 123.88 138.597 124 139.051 124.239C139.369 124.392 139.813 124.6 140.328 124.859C140.772 125.066 141.271 125.313 141.822 125.59C142.054 125.715 142.305 125.825 142.567 125.939C163.12 135.937 194.158 150.842 196.983 151.016C201.248 151.275 205.357 147.973 204.347 144.327C203.359 140.695 165.017 103.005 158.408 98.2359C154.687 95.5398 150.509 91.081 146.637 86.6685L146.619 86.6624C143.603 83.2359 140.74 79.8663 138.4 77.3526C134.586 73.2599 117.676 58.4735 107.743 48.045C107.704 48.0184 107.661 47.9632 107.626 47.9448C107.621 47.9161 107.599 47.9018 107.582 47.8896L107.543 47.863C107.517 47.82 107.5 47.8078 107.5 47.8078C103.631 43.7583 100.881 40.3782 100.406 38.63C98.7472 32.3317 106.663 14.3225 130.016 25.9138C150.139 35.8926 160.194 53.4446 169.947 67.1535L169.986 67.1596Z" fill="url(#paint0_linear_4115_64)"/>
<g style="mix-blend-mode:multiply" opacity="0.5">
<path d="M198.109 124.893L244.716 152.065L233.754 226.239L223.549 242.038C208.825 253.293 195.778 261.454 191.951 260.424C191.951 260.424 159.114 251.885 153.093 248.73L161.57 242.764L152.111 238.912L161.33 237.965C161.33 237.965 168.198 238.1 169.307 237.161C170.415 236.222 181.039 218.225 172.304 210.747C172.304 210.747 155.132 212.096 149.391 215.004L149.29 214.916C148.292 213.903 140.329 205.744 138.413 201.717C138.413 201.717 154.317 202.62 161.652 203.865C168.97 205.098 180.578 179.127 176.745 172.009L164.885 169.885L125.7 151.582C125.747 151.584 125.798 151.594 125.854 151.632C129.687 152.931 160.994 163.438 165.347 162.996C169.98 162.495 176.707 148.254 173.337 143.686C170.729 140.162 151.303 130.289 142.586 125.945C163.139 135.943 194.177 150.848 197.002 151.022C201.267 151.282 205.376 147.979 204.365 144.333C203.378 140.701 165.036 103.011 158.427 98.2423C154.706 95.5461 150.528 91.0873 146.656 86.6748L198.095 124.895L198.109 124.893Z" fill="#D87290"/>
</g>
<g style="mix-blend-mode:multiply" opacity="0.31">
<path d="M169.987 67.1593C171.55 69.376 173.103 71.4798 174.699 73.4338C183.176 83.8463 216.866 113.649 234.05 128.662L209.171 172.891C209.171 172.891 159.803 169.533 164.887 169.878C166.28 169.962 167.187 170.05 167.407 170.088C166.178 169.505 140.699 157.875 132.344 154.258C130.212 153.329 128.019 152.462 125.858 151.62C125.803 151.581 125.756 151.579 125.704 151.569C125.649 151.53 125.599 151.534 125.579 151.514C125.511 151.492 125.476 151.473 125.476 151.473C119.11 149.011 113.34 147.018 111.8 145.786C109.97 144.315 102.121 140.612 95.1561 137.003L95.0051 136.591C95.0051 136.591 110.803 142.411 116.016 139.507C121.201 136.607 129.502 125.815 120.686 114.566C120.616 114.468 120.569 114.384 120.515 114.298C121.88 115.233 123.2 116.161 124.466 117.084C124.466 117.084 130.156 119.897 138.351 123.878C138.351 123.878 138.612 123.998 139.066 124.237C139.384 124.389 139.828 124.597 140.344 124.856C140.787 125.064 141.286 125.311 141.837 125.588C142.069 125.712 142.32 125.822 142.583 125.937C163.136 135.934 194.173 150.839 196.998 151.013C201.263 151.273 205.372 147.97 204.362 144.324C203.374 140.693 165.032 103.003 158.423 98.2336C154.702 95.5374 150.524 91.0787 146.653 86.6661L146.634 86.66C143.619 83.2336 140.755 79.864 138.415 77.3503C134.602 73.2576 117.691 58.4712 107.758 48.0427C111.433 51.0446 151.911 84.3711 157.46 85.0884C162.352 85.7256 170.817 76.4426 169.968 67.1532L169.987 67.1593Z" fill="#D87290"/>
</g>
<path d="M381.628 260.45C377.486 258.489 370.987 255.396 363.444 251.718L363.425 251.712C339.785 240.183 305.917 222.924 302.106 216.92C296.205 207.644 296.811 161.65 295.289 154.338L295.284 154.309C293.751 147.096 288.686 137.625 284.751 134.086C283.443 132.896 279.811 131.896 275.214 130.967C266.121 129.108 253.165 127.593 246.433 125.659C236.285 122.755 215.34 113.365 213.873 113.072C212.389 112.767 203.992 116.294 201.637 119.417C199.275 122.538 194.055 131.922 185.532 146.657C177.022 161.376 166.903 171.425 165.906 174.593C165.715 175.254 165.841 176.074 166.237 176.963L166.231 176.982L166.244 176.986L166.246 177.021C166.273 177.064 166.32 177.148 166.378 177.263C168.019 180.611 172.955 184.924 176.831 186.797C181.879 189.221 204.72 176.464 209.155 170.372C213.587 164.287 219.701 149.174 219.701 149.174C219.701 149.174 229.563 155.201 230.544 155.995C230.951 156.335 230.258 164.398 229.582 174.83C229.56 174.898 229.58 174.96 229.558 175.027C229.394 177.678 229.245 180.47 229.11 183.322C228.48 195.914 228.272 209.69 230.086 217.399C230.086 217.399 202.464 255.764 191.953 260.417C191.953 260.417 196.754 261.892 202.804 263.861L202.852 263.863C210.186 266.289 219.332 269.395 224.054 271.52C230.027 274.222 237.883 276.206 244.019 277.151L244.038 277.157C246.73 277.588 249.102 277.81 250.839 277.803C256.466 277.788 271.343 267.765 273.548 267.85C275.758 267.965 349.7 319.545 349.7 319.545C349.7 319.545 358.819 312.588 367.973 301.817L381.624 260.442L381.628 260.45Z" fill="url(#paint1_linear_4115_64)"/>
<g style="mix-blend-mode:multiply" opacity="0.31">
<path d="M166.223 176.966L166.227 176.994L166.209 176.988L166.217 176.964L166.223 176.966Z" fill="#D87290"/>
</g>
<g style="mix-blend-mode:multiply" opacity="0.31">
<path d="M230.089 217.414C228.269 209.703 228.483 195.928 229.113 183.336C229.114 203.971 237.001 223.376 237.001 223.376C233.045 248.722 239.55 267.739 244.018 277.157C237.882 276.212 230.024 274.234 224.053 271.526C219.339 269.397 210.185 266.295 202.85 263.869L202.803 263.867C196.752 261.898 191.952 260.424 191.952 260.424C202.469 255.772 230.085 217.406 230.085 217.406L230.089 217.414Z" fill="#D87290"/>
</g>
<g style="mix-blend-mode:multiply" opacity="0.31">
<path d="M229.108 183.328C229.104 180.567 229.245 177.799 229.557 175.033C229.392 177.684 229.243 180.476 229.108 183.328Z" fill="#D87290"/>
</g>
<g style="mix-blend-mode:multiply" opacity="0.31">
<path d="M275.199 130.969C263.912 143.317 234.955 157.054 234.955 157.054C231.967 162.53 230.312 168.623 229.578 174.842C230.254 164.41 230.945 156.353 230.539 156.007C229.559 155.213 219.696 149.186 219.696 149.186C219.696 149.186 213.585 164.293 209.151 170.384C204.718 176.47 181.883 189.228 176.827 186.809C172.945 184.934 168.017 180.617 166.374 177.275C167.277 178.802 171.913 185.762 181 183.207C191.176 180.335 216.057 148.415 217.062 141.083C218.061 133.77 213.863 113.082 213.863 113.082C215.33 113.375 236.277 122.758 246.423 125.669C253.155 127.603 266.115 129.126 275.203 130.977L275.199 130.969Z" fill="#D87290"/>
</g>
<g style="mix-blend-mode:multiply" opacity="0.5">
<path d="M219.69 149.184L223.76 136.477L223.169 151.247L219.69 149.184Z" fill="#D87290"/>
</g>
<g style="mix-blend-mode:multiply" opacity="0.5">
<path d="M219.691 149.184L230.534 156.006C230.534 156.006 217.659 179.544 230.083 217.412C230.083 217.412 216.201 237.811 205.735 248.066L191.894 249.688L161.556 242.766L152.097 238.914L166.127 239.513C166.127 239.513 178.857 242.518 183.037 242.975C187.215 243.438 196.941 238.779 198.609 236.002C200.276 233.226 200.889 223.046 199.611 220.978C198.333 218.911 172.286 210.741 172.286 210.741C172.286 210.741 155.425 212.555 149.373 214.998C149.373 214.998 163.309 207.103 166.751 206.586C170.192 206.075 195.097 213.335 199.699 210.837C204.3 208.339 207.75 198.378 207.436 194.818C207.121 191.258 195.157 180.713 195.157 180.713C195.157 180.713 206.755 173.406 209.127 170.377C211.499 167.348 219.672 149.178 219.672 149.178L219.691 149.184Z" fill="#D87290"/>
</g>
<g style="mix-blend-mode:soft-light" opacity="0.97">
<path d="M166.918 172.728C165.721 174.492 172.289 180.545 175.938 178.552C179.585 176.566 191.148 156.55 190.148 149.437C189.147 142.325 180.137 153.279 166.92 172.722L166.918 172.728Z" fill="#F5AF8F"/>
</g>
<path d="M176.7 177.984C176.7 177.984 181.707 174.049 186.806 163.935C191.913 153.817 192.09 145.167 190.637 143.67C189.178 142.171 182.069 152.27 182.069 152.27C182.069 152.27 187.376 146.391 189.339 147.995C191.303 149.6 186.307 168.449 176.698 177.99L176.7 177.984Z" fill="#E86C7C"/>
<g style="mix-blend-mode:soft-light" opacity="0.97">
<path d="M168.343 170.5C168.343 170.5 172.506 174.941 177.855 176.76C177.855 176.76 176.862 178.051 175.539 178.728C174.216 179.405 167.339 177.436 166.912 172.726L168.337 170.498L168.343 170.5Z" fill="#F5D3D2"/>
</g>
<g style="mix-blend-mode:soft-light" opacity="0.97">
<path d="M182.071 152.264C182.071 152.264 182.138 154.711 183.68 155.212C185.222 155.714 189.747 150.24 189.747 150.24C189.747 150.24 190.245 148.13 188.609 147.727C186.973 147.324 182.077 152.266 182.077 152.266L182.071 152.264Z" fill="#F5D3D2"/>
</g>
<g style="mix-blend-mode:soft-light" opacity="0.97">
<path d="M198.361 221.535C198.361 221.535 202.34 224.918 198.482 234.874C198.303 235.313 197.667 235.479 196.736 235.425C193.802 235.29 188.13 233.064 185.248 230.289L184.935 229.954C184.774 229.798 184.614 229.643 184.484 229.477C184.457 229.434 184.424 229.41 184.414 229.379C182.53 226.851 184.05 222.264 188.011 220.443C190.188 219.433 193.105 219.269 196.602 220.716C196.621 220.722 196.641 220.743 196.67 220.739C197.212 220.958 197.775 221.219 198.359 221.542L198.361 221.535Z" fill="#F5AF8F"/>
</g>
<g style="mix-blend-mode:soft-light" opacity="0.97">
<path d="M205.966 193.185C206.287 193.578 206.52 193.907 206.631 194.19C207.437 196.157 207.248 204.038 200.882 207.723C200.712 207.824 200.538 207.896 200.342 207.954C199.473 208.207 198.319 208.039 197.046 207.612L196.991 207.573C192.872 206.146 187.332 201.757 184.854 197.633C184.068 196.288 183.58 194.973 183.569 193.808C183.543 188.772 187.675 185.668 191.688 185.346C191.747 185.332 191.799 185.342 191.846 185.344C192.539 185.292 193.228 185.315 193.887 185.43C194.055 185.458 194.217 185.484 194.388 185.547C198.372 186.575 203.969 190.791 205.966 193.185Z" fill="#F5AF8F"/>
</g>
<g style="mix-blend-mode:multiply" opacity="0.5">
<path d="M191.679 185.35L193.007 185.447C189.507 185.788 182.941 189.892 185.296 196.003C187.804 202.479 195.692 206.892 196.984 207.571C191.537 205.678 183.591 198.603 183.562 193.806C183.536 188.77 187.668 185.666 191.682 185.344L191.679 185.35Z" fill="#D87290"/>
</g>
<g style="mix-blend-mode:multiply" opacity="0.5">
<path d="M194.388 185.548L193.008 185.447C193.332 185.397 193.619 185.396 193.879 185.434C194.048 185.463 194.21 185.489 194.38 185.552L194.388 185.548Z" fill="#D87290"/>
</g>
<g style="mix-blend-mode:multiply" opacity="0.5">
<path d="M196.603 220.716C194.915 220.283 187.216 218.589 185.61 225.3C183.84 232.714 196.297 235.328 196.736 235.425C193.53 235.269 186.984 232.645 184.484 229.477C181.418 225.604 186.652 216.573 196.603 220.716Z" fill="#D87290"/>
</g>
<g style="mix-blend-mode:soft-light" opacity="0.97">
<path d="M198.361 221.536C198.361 221.536 202.341 224.919 198.482 234.875C198.303 235.314 197.668 235.48 196.736 235.426C196.736 235.426 200.415 228.19 198.361 221.536Z" fill="#F5D3D2"/>
</g>
<g style="mix-blend-mode:soft-light" opacity="0.97">
<path d="M205.966 193.185C206.287 193.578 206.52 193.908 206.631 194.191C207.437 196.157 207.248 204.039 200.882 207.724C200.712 207.825 200.538 207.897 200.342 207.955C201.741 206.074 206.041 199.747 205.972 193.187L205.966 193.185Z" fill="#F5D3D2"/>
</g>
<path d="M195.176 180.719C195.176 180.719 208.39 174.368 211.32 171.121C214.249 167.873 220.036 151.203 230.534 156.006L219.691 149.184C219.691 149.184 212.726 165.553 209.145 170.383C205.564 175.212 195.176 180.719 195.176 180.719Z" fill="#AB3D52"/>
<path d="M207.342 194.315C207.342 194.315 208.784 195.843 205.908 208.247C203.031 220.652 201.194 234.273 199.472 237.195C197.75 240.117 184.52 242.952 184.52 242.952C184.52 242.952 197.749 238.71 198.629 236.002C199.509 233.294 200.739 223.563 199.631 220.978C198.522 218.399 179.953 213.215 179.953 213.215C179.953 213.215 191.277 213.919 197.472 211.332C203.661 208.743 208.699 198.896 207.348 194.317L207.342 194.315Z" fill="#AB3D52"/>
<path d="M176.829 186.803C176.829 186.803 183.333 188.724 197.415 182.748L201.018 177.168C201.018 177.168 189.643 185.457 176.831 186.797L176.829 186.803Z" fill="#AB3D52"/>
<g style="mix-blend-mode:multiply" opacity="0.6">
<path d="M363.342 251.678C359.979 250.794 288.654 231.196 286.812 216.491C284.98 201.652 294.844 155.707 295.283 154.336C296.805 161.648 296.206 207.644 302.101 216.918C305.912 222.922 339.711 240.138 363.335 251.676L363.342 251.678Z" fill="#F3BAC0"/>
</g>
<g style="mix-blend-mode:multiply" opacity="0.6">
<path d="M381.628 260.45C377.487 258.489 370.987 255.395 363.444 251.718L363.425 251.712C339.785 240.183 305.918 222.924 302.107 216.919C296.205 207.644 296.811 161.65 295.289 154.338C295.289 154.338 282.686 223.012 271.788 245.528C260.889 268.045 250.85 277.813 250.85 277.813C256.476 277.798 271.353 267.775 273.559 267.86C275.768 267.975 349.71 319.554 349.71 319.554C349.71 319.554 358.829 312.598 367.983 301.827L381.634 260.452L381.628 260.45Z" fill="#F3BAC0"/>
</g>
<g style="mix-blend-mode:multiply" opacity="0.5">
<path d="M295.283 154.336C296.805 161.648 296.206 207.644 302.101 216.918L286.812 216.491C284.98 201.652 294.844 155.707 295.283 154.336Z" fill="#D87290"/>
</g>
<path style="mix-blend-mode:screen" d="M252.463 243.982C258.787 249.572 285.602 197.465 284.129 167.254C283.103 146.226 275.931 140.759 271.84 139.184C267.75 137.609 243.364 149.433 235.842 165.318C228.32 181.203 234.379 227.989 252.463 243.982Z" fill="url(#paint2_linear_4115_64)"/>
<path d="M242.409 231.827C242.409 231.827 221.609 207.943 230.54 156.008C230.54 156.008 211.389 202.338 242.409 231.827Z" fill="#B24D61"/>
<g style="mix-blend-mode:soft-light" opacity="0.97">
<path d="M138.767 197.975C138.767 197.975 145.897 182.8 145.475 174.888C145.475 174.888 135.995 183.809 138.767 197.975Z" fill="#F5EE8F"/>
</g>
<g style="mix-blend-mode:soft-light" opacity="0.97">
<path d="M147.022 235.621C147.022 235.621 153.177 224.148 149.4 214.999C149.4 214.999 140.489 224.948 147.022 235.621Z" fill="#F5EE8F"/>
</g>
<g style="mix-blend-mode:soft-light" opacity="0.97">
<path d="M44.2551 101.481C44.2551 101.481 53.6844 91.4706 54.9903 82.5438C54.9903 82.5438 44.4475 90.6908 44.2551 101.481Z" fill="#F5EE8F"/>
</g>
<g style="mix-blend-mode:soft-light" opacity="0.97">
<path d="M100.445 38.6359C100.445 38.6359 113.532 28.0156 123.371 25.087C123.371 25.087 115.089 21.9515 109.062 25.2909C103.036 28.6304 100.441 38.6277 100.441 38.6277L100.445 38.6359Z" fill="#F5EE8F"/>
</g>
<g style="mix-blend-mode:multiply" opacity="0.3">
<path d="M170.202 235.919C170.202 235.919 175.389 231.353 178.241 223.476C181.095 215.593 173.152 211.572 173.152 211.572C173.152 211.572 179.367 220.166 170.202 235.919Z" fill="#D87290"/>
</g>
<g style="mix-blend-mode:multiply" opacity="0.3">
<path d="M166.145 201.946C166.145 201.946 175.618 193.603 179.048 187.078C179.048 187.078 177.072 186.815 175.455 185.92C175.455 185.92 174.444 190.019 166.143 201.952L166.145 201.946Z" fill="#D87290"/>
</g>
<g style="mix-blend-mode:soft-light" opacity="0.97">
<path d="M172.543 238.591L190.214 239.729C190.214 239.729 184.006 242.23 182.7 241.778C181.388 241.325 172.543 238.591 172.543 238.591Z" fill="#F5A995"/>
</g>
<g style="mix-blend-mode:soft-light" opacity="0.97">
<path d="M287.044 173.864C287.044 173.864 292.534 159.501 291.723 155.497C290.913 151.494 287.763 137.648 283.492 134.756C279.214 131.863 251.25 127.603 251.25 127.603C251.25 127.603 275.69 133.228 280.874 138.797C286.057 144.373 290.067 159.773 287.046 173.858L287.044 173.864Z" fill="#F5FFFF"/>
</g>
<g style="mix-blend-mode:soft-light" opacity="0.97">
<path d="M363.885 302.491C363.885 302.491 351.985 313.386 347.661 314.255C343.338 315.124 278.669 267.443 278.669 267.443C278.669 267.443 340.73 308.041 348.203 307.644C355.67 307.246 363.883 302.497 363.883 302.497L363.885 302.491Z" fill="#F5FFFF"/>
</g>
<g style="mix-blend-mode:soft-light" opacity="0.97">
<path d="M202.374 260.304C202.374 260.304 232.093 274.091 243.278 275.547C254.464 277.004 268.49 267.158 268.49 267.158C268.49 267.158 256.329 273.153 241.034 270.9C225.74 268.648 202.374 260.304 202.374 260.304Z" fill="#F5FFFF"/>
</g>
<g style="mix-blend-mode:soft-light" opacity="0.97">
<path d="M46.2969 103.965C46.2969 103.965 50.4618 110.305 62.8264 117.628C75.191 124.952 113.61 144.273 113.61 144.273C113.61 144.273 49.851 106.442 46.303 103.967L46.2969 103.965Z" fill="#F5FFFF"/>
</g>
<g style="mix-blend-mode:soft-light" opacity="0.97">
<path d="M127.288 27.6222C127.288 27.6222 157.736 52.1 168.626 70.9108C168.626 70.9108 160.458 52.9982 147.642 40.7715C134.825 28.5447 127.288 27.6222 127.288 27.6222Z" fill="#F5FFFF"/>
</g>
<g style="mix-blend-mode:soft-light" opacity="0.97">
<path d="M380.843 262.828C360.582 254.142 306.329 224.638 306.329 224.638C333.439 245.836 371.277 259.692 380.793 262.982L380.843 262.828Z" fill="#F5FFFF"/>
</g>
<g style="mix-blend-mode:soft-light" opacity="0.97">
<path d="M188.769 141.899C188.769 141.899 197.106 132.984 199.72 127.398C202.335 121.813 201.622 119.419 201.622 119.419L188.769 141.899Z" fill="#F5FFFF"/>
</g>
<g style="mix-blend-mode:soft-light" opacity="0.97">
<path d="M213.859 113.075C213.859 113.075 212.102 118.567 208.496 121.216C204.892 123.859 201.621 119.426 201.621 119.426C201.621 119.426 205.826 115.52 213.857 113.081L213.859 113.075Z" fill="#F5AF8F"/>
</g>
<g style="mix-blend-mode:multiply" opacity="0.5">
<path d="M176.829 186.804L174.896 183.864C174.896 183.864 166.891 179.31 165.892 174.596C165.892 174.596 164.604 180.072 176.829 186.804Z" fill="#D87290"/>
</g>
<defs>
<linearGradient id="paint0_linear_4115_64" x1="260.733" y1="214.284" x2="53.3804" y2="80.3014" gradientUnits="userSpaceOnUse">
<stop stop-color="#FF8777"/>
<stop offset="0.98" stop-color="#FFB880"/>
</linearGradient>
<linearGradient id="paint1_linear_4115_64" x1="378.042" y1="287.69" x2="176.546" y2="157.492" gradientUnits="userSpaceOnUse">
<stop offset="0.02" stop-color="#FFB880"/>
<stop offset="1" stop-color="#FF8777"/>
</linearGradient>
<linearGradient id="paint2_linear_4115_64" x1="229.898" y1="229.629" x2="283.522" y2="146.639" gradientUnits="userSpaceOnUse">
<stop/>
<stop offset="0.04" stop-color="#0B0300"/>
<stop offset="0.4" stop-color="#6A1E00"/>
<stop offset="0.69" stop-color="#B03200"/>
<stop offset="0.89" stop-color="#DB3F00"/>
<stop offset="1" stop-color="#EC4400"/>
</linearGradient>
</defs>
</svg>
