<svg width="151" height="167" viewBox="0 0 151 167" fill="none" xmlns="http://www.w3.org/2000/svg">
<path d="M92.197 56.7203L61.0634 5.54678C59.0356 2.0875 55.3974 0 51.4013 0H12.0966C3.44843 0 -1.97907 9.30429 2.25558 16.8193C10.1263 30.7442 21.2348 42.5688 34.6416 51.2928C39.1745 54.8118 44.7809 56.7203 50.5663 56.7203H92.197Z" fill="#0074BA"/>
<path d="M139.255 0H99.95C95.9539 0 92.3157 2.0875 90.2879 5.54678L59.1543 56.7203H100.845C106.63 56.7203 112.177 54.8118 116.769 51.2928C130.189 42.585 141.283 30.7757 149.155 16.8193C153.33 9.30429 147.903 0 139.255 0Z" fill="#00A6ED"/>
<path d="M75.6275 167C108.699 167 135.509 139.523 135.509 105.627C135.509 71.7325 108.699 44.255 75.6275 44.255C42.5556 44.255 15.7461 71.7325 15.7461 105.627C15.7461 139.523 42.5556 167 75.6275 167Z" fill="#FFB02E"/>
<path d="M64.2129 83.7447C64.2129 82.1629 64.8413 80.6458 65.9598 79.5273C67.0783 78.4088 68.5953 77.7804 70.1772 77.7804H75.6882C77.27 77.7804 78.787 78.4088 79.9056 79.5273C81.0241 80.6458 81.6525 82.1629 81.6525 83.7447V125.25C81.6525 126.832 81.0241 128.349 79.9056 129.468C78.787 130.586 77.27 131.214 75.6882 131.214C74.1063 131.214 72.5893 130.586 71.4708 129.468C70.3523 128.349 69.7239 126.832 69.7239 125.25V89.6911C68.225 89.5768 66.8245 88.9008 65.8027 87.7982C64.7809 86.6957 64.2131 85.2479 64.2129 83.7447Z" fill="#6D4534"/>
<path d="M75.6886 159.604C61.6129 159.604 48.3722 153.998 38.4715 143.799C28.508 133.598 22.959 119.886 23.024 105.627C23.024 91.1938 28.5111 77.6549 38.4715 67.4559C43.3043 62.4615 49.0922 58.49 55.491 55.7776C61.8897 53.0653 68.7686 51.6676 75.7184 51.6676C82.6683 51.6676 89.5472 53.0653 95.946 55.7776C102.345 58.49 108.133 62.4615 112.965 67.4559C133.483 88.5099 133.483 122.745 112.965 143.799C102.945 153.998 89.7047 159.604 75.6886 159.604ZM75.629 58.9867C63.9986 58.9867 52.3086 63.5195 43.4815 72.6449C34.8936 81.469 30.1169 93.3142 30.1811 105.627C30.1811 118.093 34.8929 129.783 43.4815 138.61C47.6458 142.932 52.6392 146.369 58.163 148.716C63.6868 151.063 69.6273 152.271 75.629 152.268C87.7961 152.268 99.1879 147.437 107.776 138.61C125.49 120.419 125.49 90.8359 107.776 72.6449C103.616 68.3175 98.6238 64.8766 93.099 62.5293C87.5743 60.1821 81.6317 58.977 75.629 58.9867Z" fill="#FCD53F"/>
</svg>
