<svg width="25" height="25" viewBox="0 0 25 25" fill="none" xmlns="http://www.w3.org/2000/svg">
<g clip-path="url(#clip0_1630_705)">
<path d="M18.4441 6.34766C18.211 5.94297 17.8267 5.64745 17.3757 5.52612C16.9247 5.40479 16.444 5.46758 16.0393 5.70068C15.6346 5.93378 15.3391 6.3181 15.2178 6.76908C15.0964 7.22007 15.1592 7.70078 15.3923 8.10547L13.0232 4.00391C12.7901 3.59961 12.4059 3.30446 11.9552 3.18341C11.5045 3.06235 11.0241 3.1253 10.6199 3.3584C10.2156 3.5915 9.92041 3.97566 9.79935 4.42637C9.6783 4.87708 9.74124 5.35742 9.97434 5.76172L9.4138 4.78516C9.1807 4.38086 8.79653 4.08571 8.34582 3.96466C7.89511 3.8436 7.41477 3.90655 7.01048 4.13965C6.60618 4.37275 6.31103 4.75691 6.18998 5.20762C6.06892 5.65833 6.13187 6.13867 6.36497 6.54297L6.69114 7.10644C6.20769 6.98651 5.69964 7.01142 5.23025 7.17808C4.76085 7.34473 4.35084 7.64577 4.05126 8.04372C3.75168 8.44166 3.57577 8.91894 3.54542 9.41611C3.51508 9.91329 3.63164 10.4084 3.88059 10.8398L4.17356 11.3477C3.75827 11.4003 3.36244 11.5549 3.02133 11.7976C2.68022 12.0402 2.40439 12.3635 2.21842 12.7385C2.03244 13.1136 1.94208 13.5288 1.95538 13.9472C1.96868 14.3656 2.08523 14.7742 2.29466 15.1367L5.73899 21.0938C6.59877 22.5811 7.92405 23.7442 9.5104 24.4037C11.0968 25.0631 12.856 25.1823 14.5168 24.7427C16.1776 24.3032 17.6476 23.3294 18.7001 21.9716C19.7526 20.6138 20.329 18.9474 20.3406 17.2295C21.0368 16.1439 21.4207 14.8875 21.4502 13.5982C21.4797 12.3088 21.1535 11.0362 20.5075 9.91992L18.4441 6.34766ZM18.5613 18.8047C18.2396 19.9996 17.5712 21.0724 16.6404 21.8877C15.7095 22.703 14.5579 23.2242 13.3311 23.3855C12.1042 23.5468 10.8571 23.341 9.74708 22.7941C8.63709 22.2472 7.71404 21.3836 7.09446 20.3125L3.65012 14.3555C3.586 14.2443 3.54441 14.1216 3.52772 13.9943C3.51103 13.867 3.51956 13.7377 3.55284 13.6138C3.58612 13.4898 3.64349 13.3736 3.72168 13.2718C3.79987 13.17 3.89733 13.0846 4.00852 13.0205C4.23308 12.891 4.49988 12.856 4.75023 12.9232C4.87419 12.9565 4.99039 13.0139 5.09218 13.0921C5.19397 13.1702 5.27936 13.2677 5.34348 13.3789L7.32395 16.7969C7.42755 16.9765 7.59826 17.1076 7.79853 17.1613C7.99879 17.2151 8.21221 17.1871 8.39182 17.0835C8.57144 16.9799 8.70255 16.8092 8.7563 16.6089C8.81005 16.4087 8.78204 16.1952 8.67844 16.0156L5.23606 10.0586C5.17194 9.94715 5.1304 9.82417 5.1138 9.69667C5.09721 9.56917 5.10589 9.43965 5.13935 9.31551C5.20693 9.06479 5.37134 8.85118 5.59641 8.72168C5.82148 8.59218 6.08878 8.55739 6.3395 8.62497C6.59022 8.69255 6.80383 8.85696 6.93333 9.08203L10.0398 14.4531C10.1434 14.6327 10.3141 14.7638 10.5143 14.8176C10.7146 14.8714 10.928 14.8433 11.1076 14.7397C11.2873 14.6361 11.4184 14.4654 11.4721 14.2652C11.5259 14.0649 11.4979 13.8515 11.3943 13.6719L8.8552 9.27734C8.7257 9.05266 8.69076 8.78574 8.75806 8.53529C8.82537 8.28485 8.98941 8.07139 9.21409 7.94189C9.43877 7.81239 9.7057 7.77745 9.95614 7.84476C10.2066 7.91206 10.42 8.0761 10.5495 8.30078L14.114 14.4531C14.2176 14.6327 14.3883 14.7638 14.5886 14.8176C14.7888 14.8714 15.0022 14.8433 15.1819 14.7397C15.3615 14.6361 15.4926 14.4654 15.5463 14.2652C15.6001 14.0649 15.5721 13.8515 15.4685 13.6719L14.238 11.5479C14.1448 11.3227 14.1392 11.0708 14.2222 10.8416C14.3053 10.6125 14.471 10.4227 14.6868 10.3095C14.9027 10.1963 15.153 10.1679 15.3887 10.2299C15.6244 10.2919 15.8284 10.4398 15.9607 10.6445L17.9353 14.0625C18.3484 14.7723 18.6165 15.5571 18.7239 16.3713C18.8314 17.1855 18.7761 18.013 18.5613 18.8057V18.8047ZM15.6462 2.34375V0.78125C15.6462 0.57405 15.7285 0.375336 15.875 0.228823C16.0216 0.08231 16.2203 0 16.4275 0C16.6347 0 16.8334 0.08231 16.9799 0.228823C17.1264 0.375336 17.2087 0.57405 17.2087 0.78125V2.34375C17.2087 2.55095 17.1264 2.74966 16.9799 2.89618C16.8334 3.04269 16.6347 3.125 16.4275 3.125C16.2203 3.125 16.0216 3.04269 15.875 2.89618C15.7285 2.74966 15.6462 2.55095 15.6462 2.34375ZM18.8904 2.92969L19.6716 1.65039C19.725 1.56267 19.7952 1.48633 19.8781 1.42573C19.961 1.36513 20.0551 1.32145 20.1549 1.2972C20.2547 1.27294 20.3583 1.26858 20.4597 1.28435C20.5612 1.30013 20.6586 1.33575 20.7463 1.38916C20.834 1.44257 20.9104 1.51274 20.971 1.59566C21.0316 1.67857 21.0753 1.77262 21.0995 1.87241C21.1238 1.97221 21.1281 2.0758 21.1124 2.17729C21.0966 2.27877 21.061 2.37615 21.0075 2.46387L20.2263 3.74414C20.1564 3.85856 20.0583 3.95307 19.9413 4.01858C19.8243 4.08408 19.6924 4.11838 19.5583 4.11816C19.4194 4.11839 19.283 4.08158 19.1631 4.01154C19.0432 3.9415 18.9441 3.84076 18.876 3.71969C18.808 3.59862 18.7734 3.4616 18.776 3.32274C18.7785 3.18389 18.818 3.04821 18.8904 2.92969ZM23.2849 6.2168L21.8152 6.69043C21.7375 6.71528 21.6565 6.72813 21.5749 6.72852C21.3884 6.72907 21.2078 6.66287 21.0658 6.54187C20.9239 6.42087 20.8299 6.25307 20.8009 6.06881C20.7718 5.88455 20.8097 5.69598 20.9076 5.53721C21.0055 5.37843 21.157 5.25993 21.3347 5.20312L22.8054 4.72949C23.0026 4.66591 23.217 4.68328 23.4015 4.77778C23.5859 4.87228 23.7252 5.03617 23.7888 5.2334C23.8524 5.43063 23.835 5.64504 23.7405 5.82946C23.646 6.01388 23.4821 6.15321 23.2849 6.2168Z" fill="white"/>
</g>
<defs>
<clipPath id="clip0_1630_705">
<rect width="25" height="25" fill="white"/>
</clipPath>
</defs>
</svg>
