<svg width="49" height="56" viewBox="0 0 49 56" fill="none" xmlns="http://www.w3.org/2000/svg">
<path d="M5.28645 0.5C2.36685 0.5 0 2.89403 0 5.84722V50.1528C0 53.106 2.36685 55.5 5.28645 55.5H15.8594C18.779 55.5 21.1459 53.106 21.1459 50.1528V5.84722C21.1459 2.89403 18.779 0.5 15.8594 0.5H5.28645ZM32.474 0.5C29.5543 0.5 27.1875 2.89403 27.1875 5.84722V50.1528C27.1875 53.106 29.5543 55.5 32.474 55.5H43.0469C45.9665 55.5 48.3333 53.106 48.3333 50.1528V5.84722C48.3333 2.89403 45.9665 0.5 43.0469 0.5H32.474Z" fill="white"/>
</svg>
