<svg width="900" height="1000" viewBox="0 0 724 921" fill="none" xmlns="http://www.w3.org/2000/svg">
<g filter="url(#filter0_d_2683_5)">
<path d="M685.19 93.8208V55.9253L687.92 53.6236V26.8529L692.204 23.2086V11.3714H31.0928V23.2086L35.4113 26.8529V53.6236L38.106 55.9253V93.8208L43.1846 89.5462V60.1999L47.6758 64.0086V117.44L31.0928 131.442V131.853H692.204V131.442L675.655 117.44V64.0086L680.146 60.1999V89.5462L685.19 93.8208Z" fill="#1A1B28"/>
<path d="M71.2721 38.7723L51.6143 25.0719V47.9516L63.8788 58.3092V70.6944H71.2721V38.7723Z" fill="#9C50B9"/>
<path d="M71.2722 70.6944H63.8789V91.9576H71.2722V70.6944Z" fill="#DCD3C2"/>
<path d="M71.2722 105.055H63.8789V118.153H71.2722V105.055Z" fill="#3F37C9"/>
<path d="M659.452 58.3092L671.716 47.9516V25.0719L652.059 38.7723V70.6944H659.452V58.3092Z" fill="#9C50B9"/>
<path d="M659.452 70.6944H652.059V91.9576H659.452V70.6944Z" fill="#DCD3C2"/>
<path d="M659.452 105.055H652.059V118.153H659.452V105.055Z" fill="#3F37C9"/>
</g>
<path d="M41.4415 460.062V668.61L31.6299 676.392V724.508L101.451 854.306L288.909 807.451H435.496L621.399 853.923L622.954 854.306L692.741 724.508V676.392L682.929 668.61V460.062L657.64 480.064V648.525L645.134 638.606V468.529L675.398 444.498V379.53L692.741 365.775V131.853H31.6299V365.775L48.973 379.53V444.498L79.2716 468.529V638.606L66.7652 648.525V480.064L41.4415 460.062Z" fill="#1A1B28"/>
<path d="M699.977 729.002L628.083 864.143L626.528 863.759L436.549 817.287H286.749L95.2491 864.143L24.3911 731.66V481.023H16.6178L16.0996 921H707.233L707.751 481.023H699.977V729.002Z" fill="#1A1B28"/>
<path d="M662.977 819.151L633.507 876.282L431.989 826.111H291.344L90.6197 874.227L62.5322 819.151H24.2184L23.7002 914.424H700.116L700.634 819.151H662.977Z" fill="#3F37C9"/>
<path d="M700.634 806.245V743.442L668.021 806.245H700.634Z" fill="#9C50B9"/>
<path d="M56.8666 806.245L24.2188 743.442V806.245H56.8666Z" fill="#9C50B9"/>
<path d="M654.996 389.696V373.009L672.374 359.254V145.746H638.137V389.696H654.996Z" fill="#DCD3C2"/>
<path d="M68.3011 389.696H85.1605V145.746H50.958V359.254L68.3011 373.009V389.696Z" fill="#DCD3C2"/>
<path d="M624.732 534.894V462.007L654.996 437.976V407.452H638.136V428.222H611.983V534.894H624.732Z" fill="#3F37C9"/>
<path d="M111.314 687.051V571.94H98.5655V645.127L50.9238 682.913V734.92C84.2627 734.92 111.279 713.493 111.279 687.051H111.314Z" fill="#9C50B9"/>
<path d="M672.373 734.92V682.913L624.732 645.127V571.94H611.983V687.051C611.983 713.493 639 734.92 672.339 734.92H672.373Z" fill="#9C50B9"/>
<path d="M98.5658 534.894H111.314V428.222H85.1612V407.452H68.3018V437.976L98.5658 462.007V534.894Z" fill="#3F37C9"/>
<defs>
<filter id="filter0_d_2683_5" x="25.0928" y="10.3714" width="673.11" height="132.482" filterUnits="userSpaceOnUse" color-interpolation-filters="sRGB">
<feFlood flood-opacity="0" result="BackgroundImageFix"/>
<feColorMatrix in="SourceAlpha" type="matrix" values="0 0 0 0 0 0 0 0 0 0 0 0 0 0 0 0 0 0 127 0" result="hardAlpha"/>
<feOffset dy="5"/>
<feGaussianBlur stdDeviation="3"/>
<feColorMatrix type="matrix" values="0 0 0 0 0 0 0 0 0 0 0 0 0 0 0 0 0 0 0.5 0"/>
<feBlend mode="normal" in2="BackgroundImageFix" result="effect1_dropShadow_2683_5"/>
<feBlend mode="normal" in="SourceGraphic" in2="effect1_dropShadow_2683_5" result="shape"/>
</filter>
</defs>
</svg>
