<svg width="700" height="740" viewBox="0 0 227 328" fill="none" xmlns="http://www.w3.org/2000/svg">
<rect x="0.5" y="0.5" width="226" height="327" rx="10.5" fill="#0070A0" stroke="#DCD3C2"/>
<line x1="1" y1="163.5" x2="226" y2="163.5" stroke="white" stroke-opacity="0.8"/>
<path d="M147 163.5C147 182.002 132.002 197 113.5 197C94.9985 197 80 182.002 80 163.5C80 144.998 94.9985 130 113.5 130C132.002 130 147 144.998 147 163.5ZM81.5226 163.5C81.5226 181.161 95.8394 195.477 113.5 195.477C131.161 195.477 145.477 181.161 145.477 163.5C145.477 145.839 131.161 131.523 113.5 131.523C95.8394 131.523 81.5226 145.839 81.5226 163.5Z" fill="white" fill-opacity="0.8"/>
</svg>
