<svg width="29" height="25" viewBox="0 0 29 25" fill="none" xmlns="http://www.w3.org/2000/svg">
<path d="M5.52381 5.26316C5.52381 2.35526 7.99571 0 11.0476 0C14.0995 0 16.5714 2.35526 16.5714 5.26316C16.5714 8.17105 14.0995 10.5263 11.0476 10.5263C7.99571 10.5263 5.52381 8.17105 5.52381 5.26316ZM9.86 20.7237L9.45952 19.7368L9.86 18.75C10.8267 16.4474 12.539 14.6579 14.6519 13.4474C13.5195 13.2632 12.3181 13.1579 11.0476 13.1579C4.94381 13.1579 0 15.5132 0 18.4211V21.0526H10.0395C9.98429 20.9342 9.91524 20.8289 9.86 20.7237ZM20.7143 18.4211C19.941 18.4211 19.3333 19 19.3333 19.7368C19.3333 20.4737 19.941 21.0526 20.7143 21.0526C21.4876 21.0526 22.0952 20.4737 22.0952 19.7368C22.0952 19 21.4876 18.4211 20.7143 18.4211ZM29 19.7368C27.7019 22.8158 24.4843 25 20.7143 25C16.9443 25 13.7267 22.8158 12.4286 19.7368C13.7267 16.6579 16.9443 14.4737 20.7143 14.4737C24.4843 14.4737 27.7019 16.6579 29 19.7368ZM24.1667 19.7368C24.1667 18.8644 23.8029 18.0277 23.1555 17.4108C22.508 16.7939 21.6299 16.4474 20.7143 16.4474C19.7987 16.4474 18.9205 16.7939 18.2731 17.4108C17.6256 18.0277 17.2619 18.8644 17.2619 19.7368C17.2619 20.6093 17.6256 21.446 18.2731 22.0629C18.9205 22.6797 19.7987 23.0263 20.7143 23.0263C21.6299 23.0263 22.508 22.6797 23.1555 22.0629C23.8029 21.446 24.1667 20.6093 24.1667 19.7368Z" fill="white"/>
</svg>
