<svg width="313" height="272" viewBox="0 0 313 272" fill="none" xmlns="http://www.w3.org/2000/svg">
<path d="M9.65516 60.47C4.9679 43.7359 18.362 27.4426 35.6867 28.8037L286.675 48.5225C300.975 49.646 311.4 62.5457 309.496 76.7628L288.94 230.317C287.278 242.731 276.686 252 264.161 252H82.263C71.0528 252 61.2132 244.538 58.1895 233.743L9.65516 60.47Z" fill="white"/>
<path d="M161.833 83.959C161.833 84.7425 161.687 85.4175 161.395 85.9839C161.111 86.5503 160.729 87.0317 160.248 87.4282C159.766 87.8247 159.209 88.1504 158.577 88.4053C157.954 88.6507 157.302 88.8442 156.623 88.9858C155.943 89.1274 155.258 89.2218 154.569 89.269C153.89 89.3162 153.252 89.3398 152.658 89.3398C152.072 89.3398 151.464 89.3162 150.831 89.269C150.208 89.2313 149.585 89.1605 148.962 89.0566C148.339 88.9528 147.725 88.8159 147.121 88.646C146.517 88.4666 145.946 88.2448 145.408 87.9805L145.379 69.7422C145.908 69.5251 146.47 69.3315 147.064 69.1616C147.659 68.9823 148.263 68.8359 148.877 68.7227C149.5 68.5999 150.118 68.5103 150.732 68.4536C151.346 68.3875 151.94 68.3545 152.516 68.3545C153.186 68.3545 153.861 68.397 154.541 68.4819C155.23 68.5669 155.891 68.7085 156.523 68.9067C157.156 69.105 157.746 69.3646 158.293 69.6855C158.841 69.9971 159.318 70.3841 159.724 70.8467C160.139 71.3092 160.46 71.8473 160.687 72.4609C160.923 73.0745 161.041 73.7826 161.041 74.585C161.041 75.1136 160.965 75.6092 160.814 76.0718C160.663 76.5343 160.446 76.9497 160.163 77.3179C159.879 77.686 159.535 78.0023 159.129 78.2666C158.723 78.5215 158.265 78.7103 157.755 78.833C158.369 78.9935 158.926 79.2295 159.426 79.541C159.936 79.8525 160.366 80.2301 160.715 80.6738C161.074 81.1175 161.347 81.6178 161.536 82.1748C161.734 82.7318 161.833 83.3265 161.833 83.959ZM154.64 75.8877C154.64 75.6139 154.583 75.3826 154.47 75.1938C154.357 74.9956 154.215 74.8351 154.045 74.7124C153.885 74.5897 153.706 74.5 153.507 74.4434C153.319 74.3867 153.149 74.3584 152.998 74.3584C152.809 74.3584 152.625 74.3867 152.445 74.4434C152.266 74.5 152.091 74.5661 151.921 74.6416L151.836 77.7852C152.054 77.7852 152.323 77.7663 152.644 77.7285C152.965 77.6908 153.271 77.6105 153.564 77.4878C153.866 77.3556 154.121 77.1668 154.329 76.9214C154.536 76.6665 154.64 76.3219 154.64 75.8877ZM152.629 80.5039C152.356 80.5039 152.091 80.5322 151.836 80.5889L151.78 83.8174C151.921 83.8457 152.058 83.874 152.19 83.9023C152.332 83.9212 152.469 83.9307 152.601 83.9307C152.799 83.9307 153.016 83.9118 153.252 83.874C153.488 83.8268 153.71 83.7419 153.918 83.6191C154.126 83.487 154.296 83.3123 154.428 83.0952C154.569 82.8781 154.64 82.5902 154.64 82.2314C154.64 81.8727 154.569 81.5801 154.428 81.3535C154.296 81.127 154.13 80.9523 153.932 80.8296C153.734 80.6974 153.517 80.6125 153.281 80.5747C153.045 80.5275 152.828 80.5039 152.629 80.5039ZM175.045 80.9287L174.45 87.2158L162.527 88.1504C162.584 84.8558 162.645 81.5801 162.711 78.3232C162.787 75.0664 162.877 71.7907 162.98 68.4961H170.344C170.127 70.5635 169.919 72.6309 169.721 74.6982C169.522 76.7562 169.381 78.833 169.296 80.9287C169.74 80.9476 170.179 80.957 170.613 80.957C171.047 80.957 171.486 80.957 171.93 80.957C172.458 80.957 172.978 80.9523 173.487 80.9429C173.997 80.9334 174.516 80.9287 175.045 80.9287ZM192.646 73.2539C192.646 73.9525 192.613 74.7218 192.547 75.562C192.481 76.4022 192.372 77.2707 192.221 78.1675C192.07 79.0643 191.872 79.9753 191.626 80.9004C191.39 81.8161 191.093 82.6987 190.734 83.5483C190.376 84.3979 189.956 85.1956 189.474 85.9414C189.002 86.6777 188.455 87.3244 187.832 87.8813C187.218 88.4289 186.529 88.8584 185.764 89.1699C185 89.4909 184.15 89.6514 183.215 89.6514C182.12 89.6514 181.167 89.472 180.355 89.1133C179.553 88.764 178.863 88.292 178.288 87.6973C177.712 87.0931 177.24 86.3945 176.872 85.6016C176.503 84.7992 176.215 83.9543 176.008 83.0669C175.8 82.1701 175.654 81.2591 175.569 80.334C175.493 79.3994 175.456 78.5026 175.456 77.6436C175.456 76.3219 175.522 75.005 175.654 73.6929C175.786 72.3713 175.975 71.0544 176.22 69.7422L182.847 69.9971C182.592 71.4792 182.37 72.9707 182.182 74.4717C182.002 75.9632 181.913 77.4642 181.913 78.9746C181.913 79.1351 181.917 79.3758 181.927 79.6968C181.946 80.0083 181.974 80.3623 182.012 80.7588C182.049 81.1458 182.101 81.547 182.167 81.9624C182.243 82.3683 182.342 82.7412 182.465 83.0811C182.588 83.4209 182.734 83.6994 182.904 83.9165C183.083 84.1336 183.291 84.2422 183.527 84.2422C183.801 84.2422 184.046 84.1147 184.263 83.8599C184.48 83.5955 184.669 83.2463 184.83 82.812C185 82.3778 185.146 81.8774 185.269 81.311C185.391 80.7446 185.495 80.1546 185.58 79.541C185.665 78.9274 185.731 78.3138 185.778 77.7002C185.835 77.0866 185.877 76.5155 185.906 75.9868C185.944 75.4582 185.967 74.9909 185.977 74.585C185.986 74.179 185.991 73.877 185.991 73.6787C185.991 72.9424 185.977 72.2108 185.948 71.4839C185.929 70.7476 185.896 70.016 185.849 69.2891H192.476C192.589 70.5918 192.646 71.9134 192.646 73.2539ZM207.188 68.5811C207.132 69.4684 207.08 70.3464 207.033 71.2148C206.986 72.0833 206.924 72.9613 206.849 73.8486L200.845 74.1602L200.703 75.9443H204.923L204.611 80.334L200.363 80.4756L200.222 82.543H203.733H206.226C206.169 83.5814 206.108 84.6151 206.042 85.644C205.985 86.6636 205.933 87.6878 205.886 88.7168L193.68 89L194.133 68.5811H207.188ZM229.845 75.3779C229.845 76.2936 229.708 77.1055 229.434 77.8135C229.16 78.5215 228.783 79.1398 228.301 79.6685C227.829 80.1971 227.272 80.6455 226.63 81.0137C225.988 81.3818 225.299 81.6839 224.563 81.9199C223.836 82.1465 223.081 82.3164 222.297 82.4297C221.514 82.5335 220.744 82.5902 219.989 82.5996V89.1982H213.391C213.391 87.0365 213.395 84.8841 213.405 82.7412C213.414 80.5983 213.428 78.4365 213.447 76.2559C213.466 75.1042 213.471 73.9525 213.461 72.8008C213.452 71.6491 213.476 70.488 213.532 69.3174C214.741 68.9587 215.949 68.6896 217.157 68.5103C218.366 68.3309 219.612 68.2412 220.896 68.2412C221.622 68.2412 222.349 68.3026 223.076 68.4253C223.803 68.5386 224.497 68.7227 225.158 68.9775C225.828 69.2324 226.446 69.5534 227.013 69.9404C227.589 70.318 228.084 70.7712 228.5 71.2998C228.915 71.8285 229.241 72.4326 229.477 73.1123C229.722 73.7826 229.845 74.5378 229.845 75.3779ZM223.558 75.8594C223.558 75.2458 223.369 74.769 222.991 74.4292C222.623 74.0799 222.142 73.9053 221.547 73.9053C221.349 73.9053 221.141 73.9242 220.924 73.9619C220.716 73.9902 220.518 74.028 220.329 74.0752L220.159 78.21C220.291 78.2288 220.419 78.2383 220.542 78.2383C220.664 78.2383 220.792 78.2383 220.924 78.2383C221.264 78.2383 221.589 78.1816 221.901 78.0684C222.222 77.9551 222.505 77.7946 222.75 77.5869C222.996 77.3698 223.189 77.1196 223.331 76.8364C223.482 76.5438 223.558 76.2181 223.558 75.8594ZM248.125 79.0029C248.125 79.862 248.026 80.6927 247.828 81.4951C247.63 82.2881 247.342 83.0339 246.964 83.7324C246.596 84.431 246.143 85.0729 245.605 85.6582C245.076 86.234 244.477 86.7297 243.807 87.145C243.146 87.5604 242.424 87.8861 241.64 88.1221C240.857 88.3486 240.026 88.4619 239.148 88.4619C238.298 88.4619 237.486 88.3534 236.712 88.1362C235.948 87.9191 235.23 87.617 234.56 87.23C233.89 86.8335 233.281 86.3615 232.733 85.814C232.195 85.257 231.733 84.6434 231.346 83.9731C230.968 83.2935 230.671 82.5666 230.454 81.7925C230.246 81.0184 230.142 80.2113 230.142 79.3711C230.142 78.5498 230.241 77.7474 230.439 76.9639C230.638 76.1709 230.921 75.4251 231.289 74.7266C231.667 74.028 232.12 73.3861 232.648 72.8008C233.177 72.2155 233.767 71.7104 234.418 71.2856C235.079 70.8608 235.792 70.5304 236.557 70.2944C237.321 70.0584 238.128 69.9404 238.978 69.9404C240.347 69.9404 241.593 70.1528 242.716 70.5776C243.849 71.0024 244.812 71.6113 245.605 72.4043C246.407 73.1878 247.026 74.1413 247.46 75.2646C247.904 76.3786 248.125 77.6247 248.125 79.0029ZM241.838 79.3711C241.838 78.9652 241.777 78.5734 241.654 78.1958C241.541 77.8088 241.371 77.4689 241.145 77.1763C240.918 76.8742 240.635 76.6335 240.295 76.4541C239.965 76.2653 239.582 76.1709 239.148 76.1709C238.704 76.1709 238.308 76.2511 237.958 76.4116C237.609 76.5721 237.307 76.7939 237.052 77.0771C236.807 77.3509 236.618 77.6766 236.486 78.0542C236.354 78.4224 236.288 78.8141 236.288 79.2295C236.288 79.626 236.344 80.0225 236.458 80.4189C236.571 80.8154 236.741 81.1742 236.967 81.4951C237.194 81.8161 237.472 82.0757 237.803 82.2739C238.143 82.4722 238.534 82.5713 238.978 82.5713C239.422 82.5713 239.818 82.4863 240.167 82.3164C240.526 82.137 240.828 81.901 241.074 81.6084C241.319 81.3063 241.508 80.9618 241.64 80.5747C241.772 80.1877 241.838 79.7865 241.838 79.3711ZM266.619 79.0029C266.619 79.862 266.52 80.6927 266.321 81.4951C266.123 82.2881 265.835 83.0339 265.458 83.7324C265.089 84.431 264.636 85.0729 264.098 85.6582C263.569 86.234 262.97 86.7297 262.3 87.145C261.639 87.5604 260.917 87.8861 260.133 88.1221C259.35 88.3486 258.519 88.4619 257.641 88.4619C256.792 88.4619 255.98 88.3534 255.206 88.1362C254.441 87.9191 253.723 87.617 253.053 87.23C252.383 86.8335 251.774 86.3615 251.227 85.814C250.688 85.257 250.226 84.6434 249.839 83.9731C249.461 83.2935 249.164 82.5666 248.947 81.7925C248.739 81.0184 248.635 80.2113 248.635 79.3711C248.635 78.5498 248.734 77.7474 248.933 76.9639C249.131 76.1709 249.414 75.4251 249.782 74.7266C250.16 74.028 250.613 73.3861 251.142 72.8008C251.67 72.2155 252.26 71.7104 252.912 71.2856C253.572 70.8608 254.285 70.5304 255.05 70.2944C255.814 70.0584 256.622 69.9404 257.471 69.9404C258.84 69.9404 260.086 70.1528 261.209 70.5776C262.342 71.0024 263.305 71.6113 264.098 72.4043C264.901 73.1878 265.519 74.1413 265.953 75.2646C266.397 76.3786 266.619 77.6247 266.619 79.0029ZM260.332 79.3711C260.332 78.9652 260.27 78.5734 260.147 78.1958C260.034 77.8088 259.864 77.4689 259.638 77.1763C259.411 76.8742 259.128 76.6335 258.788 76.4541C258.458 76.2653 258.075 76.1709 257.641 76.1709C257.197 76.1709 256.801 76.2511 256.452 76.4116C256.102 76.5721 255.8 76.7939 255.545 77.0771C255.3 77.3509 255.111 77.6766 254.979 78.0542C254.847 78.4224 254.781 78.8141 254.781 79.2295C254.781 79.626 254.837 80.0225 254.951 80.4189C255.064 80.8154 255.234 81.1742 255.46 81.4951C255.687 81.8161 255.965 82.0757 256.296 82.2739C256.636 82.4722 257.028 82.5713 257.471 82.5713C257.915 82.5713 258.311 82.4863 258.661 82.3164C259.019 82.137 259.321 81.901 259.567 81.6084C259.812 81.3063 260.001 80.9618 260.133 80.5747C260.265 80.1877 260.332 79.7865 260.332 79.3711ZM280.057 80.9287L279.462 87.2158L267.539 88.1504C267.596 84.8558 267.657 81.5801 267.723 78.3232C267.799 75.0664 267.888 71.7907 267.992 68.4961H275.355C275.138 70.5635 274.931 72.6309 274.732 74.6982C274.534 76.7562 274.393 78.833 274.308 80.9287C274.751 80.9476 275.19 80.957 275.625 80.957C276.059 80.957 276.498 80.957 276.941 80.957C277.47 80.957 277.989 80.9523 278.499 80.9429C279.009 80.9334 279.528 80.9287 280.057 80.9287ZM247.856 98.0908L247.063 104.066C246.79 103.991 246.516 103.939 246.242 103.911C245.968 103.882 245.695 103.868 245.421 103.868C244.722 103.868 244.057 103.963 243.424 104.151C242.792 104.331 242.23 104.609 241.739 104.987C241.258 105.364 240.871 105.836 240.578 106.403C240.295 106.969 240.153 107.635 240.153 108.399C240.153 108.89 240.229 109.315 240.38 109.674C240.54 110.033 240.762 110.33 241.045 110.566C241.329 110.802 241.664 110.977 242.051 111.09C242.438 111.203 242.863 111.26 243.325 111.26C243.674 111.26 244.038 111.222 244.416 111.146C244.793 111.071 245.166 110.972 245.534 110.849C245.902 110.726 246.261 110.585 246.61 110.424C246.96 110.264 247.281 110.099 247.573 109.929L247.007 116.584C246.639 116.773 246.237 116.943 245.803 117.094C245.378 117.235 244.939 117.363 244.486 117.476C244.033 117.58 243.58 117.66 243.127 117.717C242.674 117.773 242.24 117.802 241.824 117.802C240.625 117.802 239.507 117.58 238.468 117.136C237.43 116.693 236.528 116.084 235.764 115.31C234.999 114.535 234.395 113.625 233.951 112.577C233.517 111.519 233.3 110.382 233.3 109.164C233.3 107.55 233.531 106.03 233.994 104.604C234.456 103.17 235.136 101.914 236.033 100.838C236.93 99.7617 238.039 98.9121 239.36 98.2891C240.691 97.666 242.221 97.3545 243.948 97.3545C244.6 97.3545 245.265 97.4064 245.945 97.5103C246.634 97.6141 247.271 97.8076 247.856 98.0908ZM265.684 102.254C265.684 102.952 265.651 103.722 265.585 104.562C265.519 105.402 265.41 106.271 265.259 107.167C265.108 108.064 264.91 108.975 264.665 109.9C264.429 110.816 264.131 111.699 263.772 112.548C263.414 113.398 262.994 114.196 262.512 114.941C262.04 115.678 261.493 116.324 260.87 116.881C260.256 117.429 259.567 117.858 258.802 118.17C258.038 118.491 257.188 118.651 256.253 118.651C255.158 118.651 254.205 118.472 253.393 118.113C252.591 117.764 251.902 117.292 251.326 116.697C250.75 116.093 250.278 115.395 249.91 114.602C249.542 113.799 249.254 112.954 249.046 112.067C248.838 111.17 248.692 110.259 248.607 109.334C248.531 108.399 248.494 107.503 248.494 106.644C248.494 105.322 248.56 104.005 248.692 102.693C248.824 101.371 249.013 100.054 249.258 98.7422L255.885 98.9971C255.63 100.479 255.409 101.971 255.22 103.472C255.04 104.963 254.951 106.464 254.951 107.975C254.951 108.135 254.955 108.376 254.965 108.697C254.984 109.008 255.012 109.362 255.05 109.759C255.088 110.146 255.139 110.547 255.206 110.962C255.281 111.368 255.38 111.741 255.503 112.081C255.626 112.421 255.772 112.699 255.942 112.917C256.121 113.134 256.329 113.242 256.565 113.242C256.839 113.242 257.084 113.115 257.301 112.86C257.518 112.596 257.707 112.246 257.868 111.812C258.038 111.378 258.184 110.877 258.307 110.311C258.429 109.745 258.533 109.155 258.618 108.541C258.703 107.927 258.769 107.314 258.816 106.7C258.873 106.087 258.916 105.515 258.944 104.987C258.982 104.458 259.005 103.991 259.015 103.585C259.024 103.179 259.029 102.877 259.029 102.679C259.029 101.942 259.015 101.211 258.986 100.484C258.967 99.7476 258.934 99.016 258.887 98.2891H265.514C265.627 99.5918 265.684 100.913 265.684 102.254ZM280.227 97.5811C280.17 98.4684 280.118 99.3464 280.071 100.215C280.024 101.083 279.962 101.961 279.887 102.849L273.883 103.16L273.741 104.944H277.961L277.649 109.334L273.401 109.476L273.26 111.543H276.771H279.264C279.207 112.581 279.146 113.615 279.08 114.644C279.023 115.664 278.971 116.688 278.924 117.717L266.718 118L267.171 97.5811H280.227Z" fill="black"/>
<g filter="url(#filter0_d_3432_137)">
<rect width="188.532" height="8.02264" rx="4.01132" transform="matrix(0.255041 -0.96693 -0.96693 -0.255041 51.9558 189.245)" fill="#A5BDA3"/>
<rect width="12.034" height="8.02264" rx="4.01132" transform="matrix(0.255041 -0.96693 -0.96693 -0.255041 97.9954 14.7051)" fill="#300FB4"/>
<rect width="76.2151" height="16.0453" rx="8.02264" transform="matrix(0.255041 -0.96693 -0.96693 -0.255041 41.5146 244.57)" fill="#0026EB"/>
</g>
<defs>
<filter id="filter0_d_3432_137" x="15.9788" y="1.11235" width="101.996" height="270.478" filterUnits="userSpaceOnUse" color-interpolation-filters="sRGB">
<feFlood flood-opacity="0" result="BackgroundImageFix"/>
<feColorMatrix in="SourceAlpha" type="matrix" values="0 0 0 0 0 0 0 0 0 0 0 0 0 0 0 0 0 0 127 0" result="hardAlpha"/>
<feOffset dx="3" dy="14"/>
<feGaussianBlur stdDeviation="7.4"/>
<feComposite in2="hardAlpha" operator="out"/>
<feColorMatrix type="matrix" values="0 0 0 0 0 0 0 0 0 0 0 0 0 0 0 0 0 0 0.53 0"/>
<feBlend mode="normal" in2="BackgroundImageFix" result="effect1_dropShadow_3432_137"/>
<feBlend mode="normal" in="SourceGraphic" in2="effect1_dropShadow_3432_137" result="shape"/>
</filter>
</defs>
</svg>
