<svg width="313" height="265" viewBox="0 0 313 265" fill="none" xmlns="http://www.w3.org/2000/svg">
<path d="M9.65516 57.1533C4.9679 40.4193 18.362 24.1259 35.6867 25.4871L286.675 45.2059C300.975 46.3293 311.4 59.229 309.496 73.4462L288.94 227.001C287.278 239.415 276.686 248.683 264.161 248.683H82.263C71.0528 248.683 61.2132 241.221 58.1895 230.426L9.65516 57.1533Z" fill="white"/>
<path d="M124.932 80.6423C124.932 81.4259 124.786 82.1008 124.493 82.6672C124.21 83.2336 123.828 83.7151 123.346 84.1116C122.865 84.5081 122.308 84.8337 121.675 85.0886C121.052 85.3341 120.401 85.5276 119.721 85.6692C119.042 85.8108 118.357 85.9052 117.668 85.9524C116.988 85.9996 116.351 86.0232 115.756 86.0232C115.171 86.0232 114.562 85.9996 113.93 85.9524C113.307 85.9146 112.684 85.8438 112.061 85.74C111.438 85.6361 110.824 85.4993 110.22 85.3293C109.616 85.15 109.044 84.9281 108.506 84.6638L108.478 66.4255C109.007 66.2084 109.568 66.0149 110.163 65.845C110.758 65.6656 111.362 65.5193 111.976 65.406C112.599 65.2833 113.217 65.1936 113.831 65.137C114.444 65.0709 115.039 65.0378 115.615 65.0378C116.285 65.0378 116.96 65.0803 117.64 65.1653C118.329 65.2502 118.99 65.3918 119.622 65.5901C120.255 65.7883 120.845 66.0479 121.392 66.3689C121.94 66.6804 122.416 67.0675 122.822 67.53C123.238 67.9926 123.559 68.5307 123.785 69.1443C124.021 69.7579 124.139 70.4659 124.139 71.2683C124.139 71.797 124.064 72.2926 123.913 72.7551C123.762 73.2177 123.544 73.6331 123.261 74.0012C122.978 74.3694 122.633 74.6856 122.228 74.95C121.822 75.2048 121.364 75.3936 120.854 75.5164C121.468 75.6768 122.025 75.9128 122.525 76.2244C123.035 76.5359 123.464 76.9135 123.813 77.3572C124.172 77.8009 124.446 78.3012 124.635 78.8582C124.833 79.4151 124.932 80.0098 124.932 80.6423ZM117.739 72.571C117.739 72.2973 117.682 72.066 117.569 71.8772C117.456 71.679 117.314 71.5185 117.144 71.3958C116.984 71.273 116.804 71.1833 116.606 71.1267C116.417 71.0701 116.247 71.0417 116.096 71.0417C115.907 71.0417 115.723 71.0701 115.544 71.1267C115.365 71.1833 115.19 71.2494 115.02 71.325L114.935 74.4685C115.152 74.4685 115.421 74.4496 115.742 74.4119C116.063 74.3741 116.37 74.2939 116.663 74.1711C116.965 74.039 117.22 73.8502 117.427 73.6047C117.635 73.3499 117.739 73.0053 117.739 72.571ZM115.728 77.1873C115.454 77.1873 115.19 77.2156 114.935 77.2722L114.878 80.5007C115.02 80.5291 115.157 80.5574 115.289 80.5857C115.431 80.6046 115.568 80.614 115.7 80.614C115.898 80.614 116.115 80.5951 116.351 80.5574C116.587 80.5102 116.809 80.4252 117.017 80.3025C117.224 80.1703 117.394 79.9957 117.526 79.7786C117.668 79.5614 117.739 79.2735 117.739 78.9148C117.739 78.5561 117.668 78.2634 117.526 78.0369C117.394 77.8103 117.229 77.6357 117.031 77.5129C116.833 77.3808 116.615 77.2958 116.379 77.2581C116.143 77.2109 115.926 77.1873 115.728 77.1873ZM142.292 72.033C142.292 72.7693 142.226 73.4395 142.094 74.0437C141.972 74.6384 141.773 75.186 141.5 75.6863C141.226 76.1866 140.872 76.6492 140.438 77.074C140.003 77.4988 139.479 77.9047 138.866 78.2917L142.236 84.2957L135.864 85.5417L133.683 79.5095L131.927 79.5662L131.672 85.4568H125.583C125.631 83.3044 125.673 81.1615 125.711 79.0281C125.758 76.8946 125.81 74.7517 125.867 72.5994C125.886 71.5138 125.904 70.4376 125.923 69.3708C125.942 68.3041 125.98 67.2279 126.037 66.1423C126.697 65.8969 127.349 65.6939 127.991 65.5334C128.633 65.373 129.275 65.2502 129.917 65.1653C130.568 65.0709 131.224 65.0095 131.885 64.9812C132.555 64.9434 133.239 64.9246 133.938 64.9246C135.014 64.9246 136.053 65.0756 137.053 65.3777C138.063 65.6703 138.955 66.114 139.729 66.7087C140.504 67.3035 141.122 68.0445 141.584 68.9319C142.056 69.8193 142.292 70.8529 142.292 72.033ZM135.949 72.4861C135.949 72.0896 135.892 71.7262 135.779 71.3958C135.675 71.0653 135.514 70.7821 135.297 70.5461C135.09 70.3007 134.825 70.1119 134.504 69.9797C134.193 69.8381 133.825 69.7673 133.4 69.7673C133.211 69.7673 133.027 69.7815 132.848 69.8098C132.668 69.8287 132.494 69.8617 132.324 69.9089L132.097 75.1765H132.437C132.843 75.1765 133.254 75.1246 133.669 75.0208C134.094 74.9169 134.471 74.7564 134.802 74.5393C135.142 74.3222 135.415 74.0437 135.623 73.7039C135.84 73.364 135.949 72.9581 135.949 72.4861ZM160.587 75.6863C160.587 76.5453 160.488 77.3761 160.29 78.1785C160.092 78.9714 159.804 79.7172 159.426 80.4158C159.058 81.1143 158.605 81.7563 158.067 82.3416C157.538 82.9174 156.939 83.413 156.269 83.8284C155.608 84.2437 154.886 84.5694 154.102 84.8054C153.319 85.032 152.488 85.1453 151.61 85.1453C150.76 85.1453 149.948 85.0367 149.174 84.8196C148.41 84.6025 147.692 84.3004 147.022 83.9133C146.352 83.5168 145.743 83.0448 145.195 82.4973C144.657 81.9403 144.195 81.3267 143.808 80.6565C143.43 79.9768 143.133 79.2499 142.916 78.4758C142.708 77.7017 142.604 76.8946 142.604 76.0544C142.604 75.2332 142.703 74.4307 142.901 73.6472C143.1 72.8542 143.383 72.1085 143.751 71.4099C144.129 70.7113 144.582 70.0694 145.11 69.4841C145.639 68.8988 146.229 68.3938 146.88 67.969C147.541 67.5442 148.254 67.2138 149.019 66.9778C149.783 66.7418 150.59 66.6238 151.44 66.6238C152.809 66.6238 154.055 66.8362 155.178 67.261C156.311 67.6858 157.274 68.2947 158.067 69.0876C158.869 69.8712 159.488 70.8246 159.922 71.948C160.366 73.0619 160.587 74.308 160.587 75.6863ZM154.3 76.0544C154.3 75.6485 154.239 75.2568 154.116 74.8792C154.003 74.4921 153.833 74.1523 153.606 73.8596C153.38 73.5575 153.097 73.3168 152.757 73.1375C152.426 72.9486 152.044 72.8542 151.61 72.8542C151.166 72.8542 150.77 72.9345 150.42 73.095C150.071 73.2555 149.769 73.4773 149.514 73.7605C149.269 74.0343 149.08 74.3599 148.948 74.7375C148.816 75.1057 148.75 75.4975 148.75 75.9128C148.75 76.3093 148.806 76.7058 148.919 77.1023C149.033 77.4988 149.203 77.8575 149.429 78.1785C149.656 78.4994 149.934 78.759 150.265 78.9573C150.604 79.1555 150.996 79.2546 151.44 79.2546C151.884 79.2546 152.28 79.1697 152.629 78.9998C152.988 78.8204 153.29 78.5844 153.536 78.2917C153.781 77.9897 153.97 77.6451 154.102 77.2581C154.234 76.871 154.3 76.4698 154.3 76.0544ZM186.614 66.0291L183.3 85.655L175.257 85.825L173.53 75.658L171.802 85.0886L163.759 85.3718L160.417 66.0291L167.441 65.406L168.857 77.1589L170.754 65.406H176.277L178.486 77.3005L179.619 65.406L186.614 66.0291ZM206.523 65.3777L205.503 84.5789L198.083 85.2585L194.119 74.9783L193.496 85.4568H187.124L187.633 65.3777L194.713 65.0378L199.613 75.2332L199.839 65.6042L206.523 65.3777ZM229.845 72.0613C229.845 72.977 229.708 73.7888 229.434 74.4968C229.16 75.2048 228.783 75.8232 228.301 76.3518C227.829 76.8805 227.272 77.3289 226.63 77.697C225.988 78.0652 225.299 78.3673 224.563 78.6033C223.836 78.8298 223.081 78.9998 222.297 79.113C221.514 79.2169 220.744 79.2735 219.989 79.283V85.8816H213.391C213.391 83.7198 213.395 81.5675 213.405 79.4246C213.414 77.2817 213.428 75.1199 213.447 72.9392C213.466 71.7875 213.471 70.6358 213.461 69.4841C213.452 68.3324 213.476 67.1713 213.532 66.0007C214.741 65.642 215.949 65.373 217.157 65.1936C218.366 65.0142 219.612 64.9246 220.896 64.9246C221.622 64.9246 222.349 64.9859 223.076 65.1086C223.803 65.2219 224.497 65.406 225.158 65.6609C225.828 65.9158 226.446 66.2367 227.013 66.6238C227.589 67.0014 228.084 67.4545 228.5 67.9832C228.915 68.5118 229.241 69.116 229.477 69.7957C229.722 70.4659 229.845 71.2211 229.845 72.0613ZM223.558 72.5427C223.558 71.9291 223.369 71.4524 222.991 71.1125C222.623 70.7633 222.142 70.5886 221.547 70.5886C221.349 70.5886 221.141 70.6075 220.924 70.6453C220.716 70.6736 220.518 70.7113 220.329 70.7585L220.159 74.8933C220.291 74.9122 220.419 74.9216 220.542 74.9216C220.664 74.9216 220.792 74.9216 220.924 74.9216C221.264 74.9216 221.589 74.865 221.901 74.7517C222.222 74.6384 222.505 74.4779 222.75 74.2703C222.996 74.0531 223.189 73.803 223.331 73.5198C223.482 73.2271 223.558 72.9014 223.558 72.5427ZM248.125 75.6863C248.125 76.5453 248.026 77.3761 247.828 78.1785C247.63 78.9714 247.342 79.7172 246.964 80.4158C246.596 81.1143 246.143 81.7563 245.605 82.3416C245.076 82.9174 244.477 83.413 243.807 83.8284C243.146 84.2437 242.424 84.5694 241.64 84.8054C240.857 85.032 240.026 85.1453 239.148 85.1453C238.298 85.1453 237.486 85.0367 236.712 84.8196C235.948 84.6025 235.23 84.3004 234.56 83.9133C233.89 83.5168 233.281 83.0448 232.733 82.4973C232.195 81.9403 231.733 81.3267 231.346 80.6565C230.968 79.9768 230.671 79.2499 230.454 78.4758C230.246 77.7017 230.142 76.8946 230.142 76.0544C230.142 75.2332 230.241 74.4307 230.439 73.6472C230.638 72.8542 230.921 72.1085 231.289 71.4099C231.667 70.7113 232.12 70.0694 232.648 69.4841C233.177 68.8988 233.767 68.3938 234.418 67.969C235.079 67.5442 235.792 67.2138 236.557 66.9778C237.321 66.7418 238.128 66.6238 238.978 66.6238C240.347 66.6238 241.593 66.8362 242.716 67.261C243.849 67.6858 244.812 68.2947 245.605 69.0876C246.407 69.8712 247.026 70.8246 247.46 71.948C247.904 73.0619 248.125 74.308 248.125 75.6863ZM241.838 76.0544C241.838 75.6485 241.777 75.2568 241.654 74.8792C241.541 74.4921 241.371 74.1523 241.145 73.8596C240.918 73.5575 240.635 73.3168 240.295 73.1375C239.965 72.9486 239.582 72.8542 239.148 72.8542C238.704 72.8542 238.308 72.9345 237.958 73.095C237.609 73.2555 237.307 73.4773 237.052 73.7605C236.807 74.0343 236.618 74.3599 236.486 74.7375C236.354 75.1057 236.288 75.4975 236.288 75.9128C236.288 76.3093 236.344 76.7058 236.458 77.1023C236.571 77.4988 236.741 77.8575 236.967 78.1785C237.194 78.4994 237.472 78.759 237.803 78.9573C238.143 79.1555 238.534 79.2546 238.978 79.2546C239.422 79.2546 239.818 79.1697 240.167 78.9998C240.526 78.8204 240.828 78.5844 241.074 78.2917C241.319 77.9897 241.508 77.6451 241.64 77.2581C241.772 76.871 241.838 76.4698 241.838 76.0544ZM266.619 75.6863C266.619 76.5453 266.52 77.3761 266.321 78.1785C266.123 78.9714 265.835 79.7172 265.458 80.4158C265.089 81.1143 264.636 81.7563 264.098 82.3416C263.569 82.9174 262.97 83.413 262.3 83.8284C261.639 84.2437 260.917 84.5694 260.133 84.8054C259.35 85.032 258.519 85.1453 257.641 85.1453C256.792 85.1453 255.98 85.0367 255.206 84.8196C254.441 84.6025 253.723 84.3004 253.053 83.9133C252.383 83.5168 251.774 83.0448 251.227 82.4973C250.688 81.9403 250.226 81.3267 249.839 80.6565C249.461 79.9768 249.164 79.2499 248.947 78.4758C248.739 77.7017 248.635 76.8946 248.635 76.0544C248.635 75.2332 248.734 74.4307 248.933 73.6472C249.131 72.8542 249.414 72.1085 249.782 71.4099C250.16 70.7113 250.613 70.0694 251.142 69.4841C251.67 68.8988 252.26 68.3938 252.912 67.969C253.572 67.5442 254.285 67.2138 255.05 66.9778C255.814 66.7418 256.622 66.6238 257.471 66.6238C258.84 66.6238 260.086 66.8362 261.209 67.261C262.342 67.6858 263.305 68.2947 264.098 69.0876C264.901 69.8712 265.519 70.8246 265.953 71.948C266.397 73.0619 266.619 74.308 266.619 75.6863ZM260.332 76.0544C260.332 75.6485 260.27 75.2568 260.147 74.8792C260.034 74.4921 259.864 74.1523 259.638 73.8596C259.411 73.5575 259.128 73.3168 258.788 73.1375C258.458 72.9486 258.075 72.8542 257.641 72.8542C257.197 72.8542 256.801 72.9345 256.452 73.095C256.102 73.2555 255.8 73.4773 255.545 73.7605C255.3 74.0343 255.111 74.3599 254.979 74.7375C254.847 75.1057 254.781 75.4975 254.781 75.9128C254.781 76.3093 254.837 76.7058 254.951 77.1023C255.064 77.4988 255.234 77.8575 255.46 78.1785C255.687 78.4994 255.965 78.759 256.296 78.9573C256.636 79.1555 257.028 79.2546 257.471 79.2546C257.915 79.2546 258.311 79.1697 258.661 78.9998C259.019 78.8204 259.321 78.5844 259.567 78.2917C259.812 77.9897 260.001 77.6451 260.133 77.2581C260.265 76.871 260.332 76.4698 260.332 76.0544ZM280.057 77.6121L279.462 83.8992L267.539 84.8337C267.596 81.5391 267.657 78.2634 267.723 75.0066C267.799 71.7498 267.888 68.474 267.992 65.1794H275.355C275.138 67.2468 274.931 69.3142 274.732 71.3816C274.534 73.4395 274.393 75.5164 274.308 77.6121C274.751 77.6309 275.19 77.6404 275.625 77.6404C276.059 77.6404 276.498 77.6404 276.941 77.6404C277.47 77.6404 277.989 77.6357 278.499 77.6262C279.009 77.6168 279.528 77.6121 280.057 77.6121ZM247.856 94.7742L247.063 100.75C246.79 100.674 246.516 100.622 246.242 100.594C245.968 100.566 245.695 100.552 245.421 100.552C244.722 100.552 244.057 100.646 243.424 100.835C242.792 101.014 242.23 101.293 241.739 101.67C241.258 102.048 240.871 102.52 240.578 103.086C240.295 103.653 240.153 104.318 240.153 105.083C240.153 105.574 240.229 105.998 240.38 106.357C240.54 106.716 240.762 107.013 241.045 107.249C241.329 107.485 241.664 107.66 242.051 107.773C242.438 107.886 242.863 107.943 243.325 107.943C243.674 107.943 244.038 107.905 244.416 107.83C244.793 107.754 245.166 107.655 245.534 107.532C245.902 107.41 246.261 107.268 246.61 107.108C246.96 106.947 247.281 106.782 247.573 106.612L247.007 113.267C246.639 113.456 246.237 113.626 245.803 113.777C245.378 113.919 244.939 114.046 244.486 114.159C244.033 114.263 243.58 114.344 243.127 114.4C242.674 114.457 242.24 114.485 241.824 114.485C240.625 114.485 239.507 114.263 238.468 113.82C237.43 113.376 236.528 112.767 235.764 111.993C234.999 111.219 234.395 110.308 233.951 109.26C233.517 108.203 233.3 107.065 233.3 105.847C233.3 104.233 233.531 102.713 233.994 101.288C234.456 99.8529 235.136 98.5974 236.033 97.5212C236.93 96.4451 238.039 95.5955 239.36 94.9724C240.691 94.3494 242.221 94.0378 243.948 94.0378C244.6 94.0378 245.265 94.0898 245.945 94.1936C246.634 94.2974 247.271 94.491 247.856 94.7742ZM265.684 98.9373C265.684 99.6358 265.651 100.405 265.585 101.245C265.519 102.086 265.41 102.954 265.259 103.851C265.108 104.748 264.91 105.659 264.665 106.584C264.429 107.499 264.131 108.382 263.772 109.232C263.414 110.081 262.994 110.879 262.512 111.625C262.04 112.361 261.493 113.008 260.87 113.565C260.256 114.112 259.567 114.542 258.802 114.853C258.038 115.174 257.188 115.335 256.253 115.335C255.158 115.335 254.205 115.155 253.393 114.797C252.591 114.447 251.902 113.975 251.326 113.381C250.75 112.776 250.278 112.078 249.91 111.285C249.542 110.483 249.254 109.638 249.046 108.75C248.838 107.853 248.692 106.942 248.607 106.017C248.531 105.083 248.494 104.186 248.494 103.327C248.494 102.005 248.56 100.688 248.692 99.3762C248.824 98.0546 249.013 96.7377 249.258 95.4255L255.885 95.6804C255.63 97.1625 255.409 98.6541 255.22 100.155C255.04 101.647 254.951 103.148 254.951 104.658C254.951 104.818 254.955 105.059 254.965 105.38C254.984 105.692 255.012 106.046 255.05 106.442C255.088 106.829 255.139 107.23 255.206 107.646C255.281 108.052 255.38 108.425 255.503 108.764C255.626 109.104 255.772 109.383 255.942 109.6C256.121 109.817 256.329 109.926 256.565 109.926C256.839 109.926 257.084 109.798 257.301 109.543C257.518 109.279 257.707 108.93 257.868 108.495C258.038 108.061 258.184 107.561 258.307 106.994C258.429 106.428 258.533 105.838 258.618 105.224C258.703 104.611 258.769 103.997 258.816 103.384C258.873 102.77 258.916 102.199 258.944 101.67C258.982 101.142 259.005 100.674 259.015 100.268C259.024 99.8624 259.029 99.5603 259.029 99.3621C259.029 98.6257 259.015 97.8941 258.986 97.1672C258.967 96.4309 258.934 95.6993 258.887 94.9724H265.514C265.627 96.2751 265.684 97.5968 265.684 98.9373ZM280.227 94.2644C280.17 95.1518 280.118 96.0297 280.071 96.8982C280.024 97.7667 279.962 98.6446 279.887 99.532L273.883 99.8435L273.741 101.628H277.961L277.649 106.017L273.401 106.159L273.26 108.226H276.771H279.264C279.207 109.265 279.146 110.298 279.08 111.327C279.023 112.347 278.971 113.371 278.924 114.4L266.718 114.683L267.171 94.2644H280.227Z" fill="black"/>
<g filter="url(#filter0_d_3432_148)">
<rect x="45.6792" y="181.915" width="183.718" height="7.81778" rx="3.90889" transform="rotate(-74.5839 45.6792 181.915)" fill="#BDACA3"/>
<rect x="92.4377" y="12.3435" width="11.7267" height="7.81778" rx="3.90889" transform="rotate(-74.5839 92.4377 12.3435)" fill="#300FB4"/>
<rect x="27.3647" y="233.632" width="74.2689" height="15.6356" rx="7.81778" transform="rotate(-74.5839 27.3647 233.632)" fill="#542810"/>
</g>
<defs>
<filter id="filter0_d_3432_148" x="17.3597" y="1.13628" width="102.634" height="263.657" filterUnits="userSpaceOnUse" color-interpolation-filters="sRGB">
<feFlood flood-opacity="0" result="BackgroundImageFix"/>
<feColorMatrix in="SourceAlpha" type="matrix" values="0 0 0 0 0 0 0 0 0 0 0 0 0 0 0 0 0 0 127 0" result="hardAlpha"/>
<feOffset dx="3" dy="14"/>
<feGaussianBlur stdDeviation="7.4"/>
<feComposite in2="hardAlpha" operator="out"/>
<feColorMatrix type="matrix" values="0 0 0 0 0 0 0 0 0 0 0 0 0 0 0 0 0 0 0.53 0"/>
<feBlend mode="normal" in2="BackgroundImageFix" result="effect1_dropShadow_3432_148"/>
<feBlend mode="normal" in="SourceGraphic" in2="effect1_dropShadow_3432_148" result="shape"/>
</filter>
</defs>
</svg>
