<svg width="313" height="262" viewBox="0 0 313 262" fill="none" xmlns="http://www.w3.org/2000/svg">
<path d="M9.6554 48.47C4.96814 31.7359 18.3622 15.4426 35.6869 16.8037L286.676 36.5225C300.976 37.646 311.4 50.5457 309.497 64.7628L288.94 218.317C287.278 230.731 276.686 240 264.161 240H82.2633C71.0531 240 61.2134 232.538 58.1898 221.743L9.6554 48.47Z" fill="white"/>
<path d="M135.425 74.1113C134.981 74.6683 134.434 75.1545 133.782 75.5698C133.131 75.9852 132.433 76.3298 131.687 76.6035C130.941 76.8773 130.176 77.0802 129.393 77.2124C128.609 77.354 127.864 77.4248 127.156 77.4248C125.787 77.4248 124.526 77.1794 123.375 76.6885C122.223 76.1976 121.227 75.5226 120.387 74.6636C119.556 73.7951 118.905 72.7756 118.433 71.605C117.961 70.4344 117.725 69.1742 117.725 67.8242C117.725 66.7952 117.843 65.7899 118.079 64.8081C118.315 63.8169 118.65 62.887 119.084 62.0186C119.528 61.1406 120.066 60.3382 120.698 59.6113C121.331 58.875 122.048 58.2425 122.851 57.7139C123.653 57.1852 124.531 56.7746 125.485 56.4819C126.438 56.1893 127.458 56.043 128.543 56.043C128.949 56.043 129.383 56.0618 129.846 56.0996C130.309 56.1279 130.766 56.1846 131.219 56.2695C131.682 56.3451 132.13 56.4536 132.565 56.5952C132.999 56.7368 133.395 56.9115 133.754 57.1191L133.358 62.5283C132.829 62.3301 132.281 62.1979 131.715 62.1318C131.158 62.0563 130.611 62.0186 130.073 62.0186C129.317 62.0186 128.609 62.1366 127.948 62.3726C127.297 62.5991 126.726 62.9295 126.235 63.3638C125.754 63.798 125.371 64.3267 125.088 64.9497C124.805 65.5728 124.663 66.276 124.663 67.0596C124.663 67.5505 124.729 68.0272 124.862 68.4897C124.994 68.9429 125.192 69.3488 125.456 69.7075C125.73 70.0568 126.065 70.34 126.462 70.5571C126.868 70.7743 127.335 70.8828 127.864 70.8828C128.222 70.8828 128.59 70.8356 128.968 70.7412C129.355 70.6468 129.685 70.4863 129.959 70.2598L130.016 69.1553L126.617 69.0986L126.787 64.8506C128.194 64.8034 129.601 64.7656 131.007 64.7373C132.414 64.6995 133.83 64.6523 135.255 64.5957L135.425 74.1113ZM153.111 63.3496C153.111 64.0859 153.045 64.7562 152.913 65.3604C152.79 65.9551 152.592 66.5026 152.318 67.0029C152.044 67.5033 151.69 67.9658 151.256 68.3906C150.822 68.8154 150.298 69.2214 149.684 69.6084L153.054 75.6123L146.682 76.8584L144.502 70.8262L142.746 70.8828L142.491 76.7734H136.402C136.449 74.6211 136.492 72.4782 136.53 70.3447C136.577 68.2113 136.629 66.0684 136.685 63.916C136.704 62.8304 136.723 61.7542 136.742 60.6875C136.761 59.6208 136.799 58.5446 136.855 57.459C137.516 57.2135 138.167 57.0106 138.809 56.8501C139.451 56.6896 140.093 56.5669 140.735 56.4819C141.386 56.3875 142.043 56.3262 142.703 56.2979C143.374 56.2601 144.058 56.2412 144.757 56.2412C145.833 56.2412 146.871 56.3923 147.872 56.6943C148.882 56.987 149.774 57.4307 150.548 58.0254C151.322 58.6201 151.941 59.3612 152.403 60.2485C152.875 61.1359 153.111 62.1696 153.111 63.3496ZM146.767 63.8027C146.767 63.4062 146.711 63.0428 146.597 62.7124C146.494 62.382 146.333 62.0988 146.116 61.8628C145.908 61.6174 145.644 61.4285 145.323 61.2964C145.011 61.1548 144.643 61.084 144.219 61.084C144.03 61.084 143.846 61.0981 143.666 61.1265C143.487 61.1453 143.312 61.1784 143.142 61.2256L142.916 66.4932H143.256C143.662 66.4932 144.072 66.4412 144.488 66.3374C144.912 66.2336 145.29 66.0731 145.62 65.856C145.96 65.6388 146.234 65.3604 146.442 65.0205C146.659 64.6807 146.767 64.2747 146.767 63.8027ZM167.512 56.5811C167.455 57.4684 167.403 58.3464 167.356 59.2148C167.309 60.0833 167.248 60.9613 167.172 61.8486L161.168 62.1602L161.027 63.9443H165.246L164.935 68.334L160.687 68.4756L160.545 70.543H164.057H166.549C166.492 71.5814 166.431 72.6151 166.365 73.644C166.308 74.6636 166.256 75.6878 166.209 76.7168L154.003 77L154.456 56.5811H167.512ZM181.417 56.5811C181.361 57.4684 181.309 58.3464 181.261 59.2148C181.214 60.0833 181.153 60.9613 181.077 61.8486L175.073 62.1602L174.932 63.9443H179.152L178.84 68.334L174.592 68.4756L174.45 70.543H177.962H180.454C180.398 71.5814 180.336 72.6151 180.27 73.644C180.214 74.6636 180.162 75.6878 180.115 76.7168L167.908 77L168.362 56.5811H181.417ZM201.171 56.6943L200.151 75.8955L192.731 76.5752L188.766 66.2949L188.143 76.7734H181.771L182.281 56.6943L189.361 56.3545L194.26 66.5498L194.487 56.9209L201.171 56.6943ZM227.254 56.6943L226.234 75.8955L218.814 76.5752L214.849 66.2949L214.226 76.7734H207.854L208.364 56.6943L215.444 56.3545L220.344 66.5498L220.57 56.9209L227.254 56.6943ZM241.824 56.5811C241.768 57.4684 241.716 58.3464 241.669 59.2148C241.622 60.0833 241.56 60.9613 241.485 61.8486L235.481 62.1602L235.339 63.9443H239.559L239.247 68.334L234.999 68.4756L234.858 70.543H238.369H240.862C240.805 71.5814 240.744 72.6151 240.677 73.644C240.621 74.6636 240.569 75.6878 240.522 76.7168L228.316 77L228.769 56.5811H241.824ZM259.312 67.0029C259.312 67.862 259.213 68.6927 259.015 69.4951C258.817 70.2881 258.529 71.0339 258.151 71.7324C257.783 72.431 257.33 73.0729 256.792 73.6582C256.263 74.234 255.664 74.7297 254.993 75.145C254.333 75.5604 253.61 75.8861 252.827 76.1221C252.043 76.3486 251.213 76.4619 250.335 76.4619C249.485 76.4619 248.673 76.3534 247.899 76.1362C247.135 75.9191 246.417 75.617 245.747 75.23C245.077 74.8335 244.468 74.3615 243.92 73.814C243.382 73.257 242.92 72.6434 242.532 71.9731C242.155 71.2935 241.858 70.5666 241.64 69.7925C241.433 69.0184 241.329 68.2113 241.329 67.3711C241.329 66.5498 241.428 65.7474 241.626 64.9639C241.824 64.1709 242.108 63.4251 242.476 62.7266C242.853 62.028 243.307 61.3861 243.835 60.8008C244.364 60.2155 244.954 59.7104 245.605 59.2856C246.266 58.8608 246.979 58.5304 247.743 58.2944C248.508 58.0584 249.315 57.9404 250.165 57.9404C251.534 57.9404 252.78 58.1528 253.903 58.5776C255.036 59.0024 255.999 59.6113 256.792 60.4043C257.594 61.1878 258.212 62.1413 258.647 63.2646C259.09 64.3786 259.312 65.6247 259.312 67.0029ZM253.025 67.3711C253.025 66.9652 252.964 66.5734 252.841 66.1958C252.728 65.8088 252.558 65.4689 252.331 65.1763C252.105 64.8742 251.822 64.6335 251.482 64.4541C251.151 64.2653 250.769 64.1709 250.335 64.1709C249.891 64.1709 249.495 64.2511 249.145 64.4116C248.796 64.5721 248.494 64.7939 248.239 65.0771C247.994 65.3509 247.805 65.6766 247.673 66.0542C247.54 66.4224 247.474 66.8141 247.474 67.2295C247.474 67.626 247.531 68.0225 247.644 68.4189C247.758 68.8154 247.927 69.1742 248.154 69.4951C248.381 69.8161 248.659 70.0757 248.99 70.2739C249.329 70.4722 249.721 70.5713 250.165 70.5713C250.608 70.5713 251.005 70.4863 251.354 70.3164C251.713 70.137 252.015 69.901 252.26 69.6084C252.506 69.3063 252.695 68.9618 252.827 68.5747C252.959 68.1877 253.025 67.7865 253.025 67.3711ZM279.561 56.6943L278.542 75.8955L271.122 76.5752L267.157 66.2949L266.534 76.7734H260.162L260.672 56.6943L267.752 56.3545L272.651 66.5498L272.878 56.9209L279.561 56.6943ZM247.857 86.0908L247.064 92.0664C246.79 91.9909 246.516 91.939 246.242 91.9106C245.969 91.8823 245.695 91.8682 245.421 91.8682C244.723 91.8682 244.057 91.9626 243.425 92.1514C242.792 92.3307 242.23 92.6092 241.74 92.9868C241.258 93.3644 240.871 93.8364 240.578 94.4028C240.295 94.9692 240.154 95.6348 240.154 96.3994C240.154 96.8903 240.229 97.3151 240.38 97.6738C240.541 98.0326 240.762 98.3299 241.046 98.5659C241.329 98.8019 241.664 98.9766 242.051 99.0898C242.438 99.2031 242.863 99.2598 243.325 99.2598C243.675 99.2598 244.038 99.222 244.416 99.1465C244.793 99.071 245.166 98.9718 245.534 98.8491C245.903 98.7264 246.261 98.5848 246.611 98.4243C246.96 98.2638 247.281 98.0986 247.573 97.9287L247.007 104.584C246.639 104.773 246.238 104.943 245.803 105.094C245.379 105.235 244.94 105.363 244.487 105.476C244.033 105.58 243.58 105.66 243.127 105.717C242.674 105.773 242.24 105.802 241.824 105.802C240.626 105.802 239.507 105.58 238.469 105.136C237.43 104.693 236.529 104.084 235.764 103.31C234.999 102.535 234.395 101.625 233.951 100.577C233.517 99.5194 233.3 98.3818 233.3 97.1641C233.3 95.5498 233.531 94.0299 233.994 92.6045C234.456 91.1696 235.136 89.9141 236.033 88.8379C236.93 87.7617 238.039 86.9121 239.361 86.2891C240.692 85.666 242.221 85.3545 243.948 85.3545C244.6 85.3545 245.265 85.4064 245.945 85.5103C246.634 85.6141 247.271 85.8076 247.857 86.0908ZM265.684 90.2539C265.684 90.9525 265.651 91.7218 265.585 92.562C265.519 93.4022 265.411 94.2707 265.26 95.1675C265.108 96.0643 264.91 96.9753 264.665 97.9004C264.429 98.8161 264.131 99.6987 263.773 100.548C263.414 101.398 262.994 102.196 262.512 102.941C262.04 103.678 261.493 104.324 260.87 104.881C260.256 105.429 259.567 105.858 258.802 106.17C258.038 106.491 257.188 106.651 256.254 106.651C255.159 106.651 254.205 106.472 253.393 106.113C252.591 105.764 251.902 105.292 251.326 104.697C250.75 104.093 250.278 103.395 249.91 102.602C249.542 101.799 249.254 100.954 249.046 100.067C248.838 99.1701 248.692 98.2591 248.607 97.334C248.532 96.3994 248.494 95.5026 248.494 94.6436C248.494 93.3219 248.56 92.005 248.692 90.6929C248.824 89.3713 249.013 88.0544 249.259 86.7422L255.885 86.9971C255.631 88.4792 255.409 89.9707 255.22 91.4717C255.041 92.9632 254.951 94.4642 254.951 95.9746C254.951 96.1351 254.956 96.3758 254.965 96.6968C254.984 97.0083 255.012 97.3623 255.05 97.7588C255.088 98.1458 255.14 98.547 255.206 98.9624C255.281 99.3683 255.38 99.7412 255.503 100.081C255.626 100.421 255.772 100.699 255.942 100.917C256.122 101.134 256.329 101.242 256.565 101.242C256.839 101.242 257.084 101.115 257.302 100.86C257.519 100.596 257.707 100.246 257.868 99.812C258.038 99.3778 258.184 98.8774 258.307 98.311C258.43 97.7446 258.533 97.1546 258.618 96.541C258.703 95.9274 258.769 95.3138 258.817 94.7002C258.873 94.0866 258.916 93.5155 258.944 92.9868C258.982 92.4582 259.005 91.9909 259.015 91.585C259.024 91.179 259.029 90.877 259.029 90.6787C259.029 89.9424 259.015 89.2108 258.987 88.4839C258.968 87.7476 258.935 87.016 258.887 86.2891H265.514C265.628 87.5918 265.684 88.9134 265.684 90.2539ZM280.227 85.5811C280.17 86.4684 280.118 87.3464 280.071 88.2148C280.024 89.0833 279.962 89.9613 279.887 90.8486L273.883 91.1602L273.741 92.9443H277.961L277.65 97.334L273.402 97.4756L273.26 99.543H276.772H279.264C279.207 100.581 279.146 101.615 279.08 102.644C279.023 103.664 278.971 104.688 278.924 105.717L266.718 106L267.171 85.5811H280.227Z" fill="black"/>
<g filter="url(#filter0_d_3432_159)">
<rect x="116.863" y="6.67578" width="239.063" height="22.7679" rx="11" transform="rotate(107.05 116.863 6.67578)" fill="#00D823"/>
</g>
<defs>
<filter id="filter0_d_3432_159" x="15.939" y="1.93901" width="115.985" height="259.353" filterUnits="userSpaceOnUse" color-interpolation-filters="sRGB">
<feFlood flood-opacity="0" result="BackgroundImageFix"/>
<feColorMatrix in="SourceAlpha" type="matrix" values="0 0 0 0 0 0 0 0 0 0 0 0 0 0 0 0 0 0 127 0" result="hardAlpha"/>
<feOffset dx="3" dy="14"/>
<feGaussianBlur stdDeviation="7.4"/>
<feComposite in2="hardAlpha" operator="out"/>
<feColorMatrix type="matrix" values="0 0 0 0 0 0 0 0 0 0 0 0 0 0 0 0 0 0 0.53 0"/>
<feBlend mode="normal" in2="BackgroundImageFix" result="effect1_dropShadow_3432_159"/>
<feBlend mode="normal" in="SourceGraphic" in2="effect1_dropShadow_3432_159" result="shape"/>
</filter>
</defs>
</svg>
