<svg width="313" height="262" viewBox="0 0 313 262" fill="none" xmlns="http://www.w3.org/2000/svg">
<path d="M9.6554 48.47C4.96814 31.7359 18.3622 15.4426 35.6869 16.8037L286.676 36.5225C300.976 37.646 311.4 50.5457 309.497 64.7628L288.94 218.317C287.278 230.731 276.686 240 264.161 240H82.2633C71.0531 240 61.2134 232.538 58.1898 221.743L9.6554 48.47Z" fill="white"/>
<path d="M154.683 63.3779C154.683 64.2936 154.546 65.1055 154.272 65.8135C153.998 66.5215 153.621 67.1398 153.139 67.6685C152.667 68.1971 152.11 68.6455 151.469 69.0137C150.827 69.3818 150.137 69.6839 149.401 69.9199C148.674 70.1465 147.919 70.3164 147.135 70.4297C146.352 70.5335 145.583 70.5902 144.827 70.5996V77.1982H138.229C138.229 75.0365 138.233 72.8841 138.243 70.7412C138.252 68.5983 138.267 66.4365 138.285 64.2559C138.304 63.1042 138.309 61.9525 138.3 60.8008C138.29 59.6491 138.314 58.488 138.37 57.3174C139.579 56.9587 140.787 56.6896 141.995 56.5103C143.204 56.3309 144.45 56.2412 145.734 56.2412C146.461 56.2412 147.187 56.3026 147.914 56.4253C148.641 56.5386 149.335 56.7227 149.996 56.9775C150.666 57.2324 151.284 57.5534 151.851 57.9404C152.427 58.318 152.922 58.7712 153.338 59.2998C153.753 59.8285 154.079 60.4326 154.315 61.1123C154.56 61.7826 154.683 62.5378 154.683 63.3779ZM148.396 63.8594C148.396 63.2458 148.207 62.769 147.829 62.4292C147.461 62.0799 146.98 61.9053 146.385 61.9053C146.187 61.9053 145.979 61.9242 145.762 61.9619C145.554 61.9902 145.356 62.028 145.167 62.0752L144.997 66.21C145.129 66.2288 145.257 66.2383 145.38 66.2383C145.502 66.2383 145.63 66.2383 145.762 66.2383C146.102 66.2383 146.427 66.1816 146.739 66.0684C147.06 65.9551 147.343 65.7946 147.589 65.5869C147.834 65.3698 148.028 65.1196 148.169 64.8364C148.32 64.5438 148.396 64.2181 148.396 63.8594ZM163.108 57.0625L161.551 76.3486L155.575 76.6602V57.459L163.108 57.0625ZM183.357 56.6943L182.338 75.8955L174.918 76.5752L170.953 66.2949L170.33 76.7734H163.958L164.468 56.6943L171.548 56.3545L176.447 66.5498L176.674 56.9209L183.357 56.6943ZM202.473 56.7227L195.648 66.1533L201.397 76.1787L194.827 77.3398L190.522 71.2227L190.296 77.623L184.405 77.8496L184.858 56.1562L191.457 56.5244L190.947 62.9248L195.337 56.1562L202.473 56.7227ZM227.254 56.6943L226.234 75.8955L218.814 76.5752L214.849 66.2949L214.226 76.7734H207.854L208.364 56.6943L215.444 56.3545L220.344 66.5498L220.57 56.9209L227.254 56.6943ZM241.824 56.5811C241.768 57.4684 241.716 58.3464 241.669 59.2148C241.622 60.0833 241.56 60.9613 241.485 61.8486L235.481 62.1602L235.339 63.9443H239.559L239.247 68.334L234.999 68.4756L234.858 70.543H238.369H240.862C240.805 71.5814 240.744 72.6151 240.677 73.644C240.621 74.6636 240.569 75.6878 240.522 76.7168L228.316 77L228.769 56.5811H241.824ZM259.312 67.0029C259.312 67.862 259.213 68.6927 259.015 69.4951C258.817 70.2881 258.529 71.0339 258.151 71.7324C257.783 72.431 257.33 73.0729 256.792 73.6582C256.263 74.234 255.664 74.7297 254.993 75.145C254.333 75.5604 253.61 75.8861 252.827 76.1221C252.043 76.3486 251.213 76.4619 250.335 76.4619C249.485 76.4619 248.673 76.3534 247.899 76.1362C247.135 75.9191 246.417 75.617 245.747 75.23C245.077 74.8335 244.468 74.3615 243.92 73.814C243.382 73.257 242.92 72.6434 242.532 71.9731C242.155 71.2935 241.858 70.5666 241.64 69.7925C241.433 69.0184 241.329 68.2113 241.329 67.3711C241.329 66.5498 241.428 65.7474 241.626 64.9639C241.824 64.1709 242.108 63.4251 242.476 62.7266C242.853 62.028 243.307 61.3861 243.835 60.8008C244.364 60.2155 244.954 59.7104 245.605 59.2856C246.266 58.8608 246.979 58.5304 247.743 58.2944C248.508 58.0584 249.315 57.9404 250.165 57.9404C251.534 57.9404 252.78 58.1528 253.903 58.5776C255.036 59.0024 255.999 59.6113 256.792 60.4043C257.594 61.1878 258.212 62.1413 258.647 63.2646C259.09 64.3786 259.312 65.6247 259.312 67.0029ZM253.025 67.3711C253.025 66.9652 252.964 66.5734 252.841 66.1958C252.728 65.8088 252.558 65.4689 252.331 65.1763C252.105 64.8742 251.822 64.6335 251.482 64.4541C251.151 64.2653 250.769 64.1709 250.335 64.1709C249.891 64.1709 249.495 64.2511 249.145 64.4116C248.796 64.5721 248.494 64.7939 248.239 65.0771C247.994 65.3509 247.805 65.6766 247.673 66.0542C247.54 66.4224 247.474 66.8141 247.474 67.2295C247.474 67.626 247.531 68.0225 247.644 68.4189C247.758 68.8154 247.927 69.1742 248.154 69.4951C248.381 69.8161 248.659 70.0757 248.99 70.2739C249.329 70.4722 249.721 70.5713 250.165 70.5713C250.608 70.5713 251.005 70.4863 251.354 70.3164C251.713 70.137 252.015 69.901 252.26 69.6084C252.506 69.3063 252.695 68.9618 252.827 68.5747C252.959 68.1877 253.025 67.7865 253.025 67.3711ZM279.561 56.6943L278.542 75.8955L271.122 76.5752L267.157 66.2949L266.534 76.7734H260.162L260.672 56.6943L267.752 56.3545L272.651 66.5498L272.878 56.9209L279.561 56.6943ZM247.857 86.0908L247.064 92.0664C246.79 91.9909 246.516 91.939 246.242 91.9106C245.969 91.8823 245.695 91.8682 245.421 91.8682C244.723 91.8682 244.057 91.9626 243.425 92.1514C242.792 92.3307 242.23 92.6092 241.74 92.9868C241.258 93.3644 240.871 93.8364 240.578 94.4028C240.295 94.9692 240.154 95.6348 240.154 96.3994C240.154 96.8903 240.229 97.3151 240.38 97.6738C240.541 98.0326 240.762 98.3299 241.046 98.5659C241.329 98.8019 241.664 98.9766 242.051 99.0898C242.438 99.2031 242.863 99.2598 243.325 99.2598C243.675 99.2598 244.038 99.222 244.416 99.1465C244.793 99.071 245.166 98.9718 245.534 98.8491C245.903 98.7264 246.261 98.5848 246.611 98.4243C246.96 98.2638 247.281 98.0986 247.573 97.9287L247.007 104.584C246.639 104.773 246.238 104.943 245.803 105.094C245.379 105.235 244.94 105.363 244.487 105.476C244.033 105.58 243.58 105.66 243.127 105.717C242.674 105.773 242.24 105.802 241.824 105.802C240.626 105.802 239.507 105.58 238.469 105.136C237.43 104.693 236.529 104.084 235.764 103.31C234.999 102.535 234.395 101.625 233.951 100.577C233.517 99.5194 233.3 98.3818 233.3 97.1641C233.3 95.5498 233.531 94.0299 233.994 92.6045C234.456 91.1696 235.136 89.9141 236.033 88.8379C236.93 87.7617 238.039 86.9121 239.361 86.2891C240.692 85.666 242.221 85.3545 243.948 85.3545C244.6 85.3545 245.265 85.4064 245.945 85.5103C246.634 85.6141 247.271 85.8076 247.857 86.0908ZM265.684 90.2539C265.684 90.9525 265.651 91.7218 265.585 92.562C265.519 93.4022 265.411 94.2707 265.26 95.1675C265.108 96.0643 264.91 96.9753 264.665 97.9004C264.429 98.8161 264.131 99.6987 263.773 100.548C263.414 101.398 262.994 102.196 262.512 102.941C262.04 103.678 261.493 104.324 260.87 104.881C260.256 105.429 259.567 105.858 258.802 106.17C258.038 106.491 257.188 106.651 256.254 106.651C255.159 106.651 254.205 106.472 253.393 106.113C252.591 105.764 251.902 105.292 251.326 104.697C250.75 104.093 250.278 103.395 249.91 102.602C249.542 101.799 249.254 100.954 249.046 100.067C248.838 99.1701 248.692 98.2591 248.607 97.334C248.532 96.3994 248.494 95.5026 248.494 94.6436C248.494 93.3219 248.56 92.005 248.692 90.6929C248.824 89.3713 249.013 88.0544 249.259 86.7422L255.885 86.9971C255.631 88.4792 255.409 89.9707 255.22 91.4717C255.041 92.9632 254.951 94.4642 254.951 95.9746C254.951 96.1351 254.956 96.3758 254.965 96.6968C254.984 97.0083 255.012 97.3623 255.05 97.7588C255.088 98.1458 255.14 98.547 255.206 98.9624C255.281 99.3683 255.38 99.7412 255.503 100.081C255.626 100.421 255.772 100.699 255.942 100.917C256.122 101.134 256.329 101.242 256.565 101.242C256.839 101.242 257.084 101.115 257.302 100.86C257.519 100.596 257.707 100.246 257.868 99.812C258.038 99.3778 258.184 98.8774 258.307 98.311C258.43 97.7446 258.533 97.1546 258.618 96.541C258.703 95.9274 258.769 95.3138 258.817 94.7002C258.873 94.0866 258.916 93.5155 258.944 92.9868C258.982 92.4582 259.005 91.9909 259.015 91.585C259.024 91.179 259.029 90.877 259.029 90.6787C259.029 89.9424 259.015 89.2108 258.987 88.4839C258.968 87.7476 258.935 87.016 258.887 86.2891H265.514C265.628 87.5918 265.684 88.9134 265.684 90.2539ZM280.227 85.5811C280.17 86.4684 280.118 87.3464 280.071 88.2148C280.024 89.0833 279.962 89.9613 279.887 90.8486L273.883 91.1602L273.741 92.9443H277.961L277.65 97.334L273.402 97.4756L273.26 99.543H276.772H279.264C279.207 100.581 279.146 101.615 279.08 102.644C279.023 103.664 278.971 104.688 278.924 105.717L266.718 106L267.171 85.5811H280.227Z" fill="black"/>
<g filter="url(#filter0_d_3432_166)">
<rect x="116.863" y="6.67578" width="239.063" height="22.7679" rx="11" transform="rotate(107.05 116.863 6.67578)" fill="#EB00B8"/>
</g>
<defs>
<filter id="filter0_d_3432_166" x="15.939" y="1.93901" width="115.985" height="259.353" filterUnits="userSpaceOnUse" color-interpolation-filters="sRGB">
<feFlood flood-opacity="0" result="BackgroundImageFix"/>
<feColorMatrix in="SourceAlpha" type="matrix" values="0 0 0 0 0 0 0 0 0 0 0 0 0 0 0 0 0 0 127 0" result="hardAlpha"/>
<feOffset dx="3" dy="14"/>
<feGaussianBlur stdDeviation="7.4"/>
<feComposite in2="hardAlpha" operator="out"/>
<feColorMatrix type="matrix" values="0 0 0 0 0 0 0 0 0 0 0 0 0 0 0 0 0 0 0.53 0"/>
<feBlend mode="normal" in2="BackgroundImageFix" result="effect1_dropShadow_3432_166"/>
<feBlend mode="normal" in="SourceGraphic" in2="effect1_dropShadow_3432_166" result="shape"/>
</filter>
</defs>
</svg>
