<svg width="697" height="477" viewBox="0 0 697 477" fill="none" xmlns="http://www.w3.org/2000/svg">
<g filter="url(#filter0_d_3200_1138)">
<path d="M35 155C35 125.729 58.7289 102 88 102H632C661.271 102 685 125.729 685 155V408.111C685 437.382 661.271 461.111 632 461.111H88C58.7289 461.111 35 437.382 35 408.111V155Z" fill="url(#paint0_linear_3200_1138)"/>
</g>
<g filter="url(#filter1_d_3200_1138)">
<path fill-rule="evenodd" clip-rule="evenodd" d="M260.144 79.1974L250.148 79.1621L245.521 83.1535L245.909 106.819L237.785 107.137L231.145 109.15L233.723 144.649L223.268 149.276L223.127 182.019L211.082 188.554L215.003 209.712L211.082 218.295L230.933 289.327L333.72 295.968L343.186 291.729L323.158 218.26L311.502 173.507L298.186 148.994L284.163 106.289L275.933 103.287L260.144 79.1974Z" fill="url(#paint1_linear_3200_1138)"/>
<path style="mix-blend-mode:multiply" opacity="0.5" fill-rule="evenodd" clip-rule="evenodd" d="M250.148 79.1621L268.127 108.621L279.147 113.778L294.83 156.376L299.033 171.423L297.515 159.237L307.193 178.099L317.224 230.446L333.719 295.968L343.186 291.729L311.502 173.507L297.479 146.874L284.163 106.289L275.933 103.287L260.144 79.1974L250.148 79.1621Z" fill="url(#paint2_linear_3200_1138)"/>
<path style="mix-blend-mode:multiply" opacity="0.5" fill-rule="evenodd" clip-rule="evenodd" d="M314.576 293.99L308.183 294.308L291.687 215.822L283.599 203.495L278.795 151.537L256.401 130.52L251.244 110.175L231.146 109.15L237.786 107.137L255.094 106.466L263.218 130.485L284.764 149.311L287.237 199.292L296.915 214.657L314.576 293.99Z" fill="url(#paint3_linear_3200_1138)"/>
<path style="mix-blend-mode:multiply" opacity="0.5" fill-rule="evenodd" clip-rule="evenodd" d="M211.082 188.553L260.144 188.023L265.16 192.368L288.296 293.035L304.402 294.06L269.999 190.001L263.888 186.01L223.127 182.019L211.082 188.553Z" fill="url(#paint4_linear_3200_1138)"/>
<g style="mix-blend-mode:soft-light" opacity="0.5">
<path fill-rule="evenodd" clip-rule="evenodd" d="M235.348 150.83C236.266 165.136 235.948 178.028 239.41 179.688C242.836 181.348 257.777 184.775 257.777 177.887C257.777 147.792 247.746 117.416 246.933 115.897C245.697 113.566 233.899 112.93 233.476 114.343C232.804 116.78 234.5 137.055 235.348 150.83Z" fill="#E05D6C"/>
</g>
<g style="mix-blend-mode:soft-light" opacity="0.5">
<path fill-rule="evenodd" clip-rule="evenodd" d="M214.083 194.664C215.637 200.528 216.203 206.391 218.958 207.839C221.748 209.288 241.493 224.617 243.683 225.076C245.873 225.536 250.253 203.848 246.897 199.15C243.542 194.452 229.024 190.108 221.289 189.966C213.518 189.86 213.165 191.273 214.048 194.629L214.083 194.664Z" fill="#E05D6C"/>
</g>
<g style="mix-blend-mode:soft-light" opacity="0.5">
<path fill-rule="evenodd" clip-rule="evenodd" d="M216.168 215.327C217.369 221.12 222.032 242.666 223.798 244.079C225.564 245.492 246.686 249.059 245.768 245.28C244.885 241.5 234.182 224.934 228.919 222.144C223.656 219.354 215.568 212.395 216.168 215.291V215.327Z" fill="#E05D6C"/>
</g>
<g style="mix-blend-mode:soft-light" opacity="0.5">
<path fill-rule="evenodd" clip-rule="evenodd" d="M264.029 184.067C268.585 187.635 277.133 192.969 278.793 189.966C280.453 186.964 279.146 152.066 275.508 152.525C271.87 152.984 261.874 154.256 260.143 157.329C258.413 160.402 261.486 182.054 264.064 184.067H264.029Z" fill="#E05D6C"/>
</g>
<g style="mix-blend-mode:soft-light" opacity="0.5">
<path fill-rule="evenodd" clip-rule="evenodd" d="M256.505 140.586C257.035 145.425 256.929 151.465 258.978 152.419C261.026 153.372 273.954 149.628 272.824 147.615C271.694 145.602 255.481 131.438 256.505 140.621V140.586Z" fill="#E05D6C"/>
</g>
<g style="mix-blend-mode:soft-light" opacity="0.5">
<path fill-rule="evenodd" clip-rule="evenodd" d="M255.092 195.865C252.125 203 249.229 279.825 251.065 283.358C252.938 286.89 281.584 286.678 282.043 283.358C282.502 280.037 262.863 177.215 255.092 195.865Z" fill="#E05D6C"/>
</g>
<path style="mix-blend-mode:multiply" opacity="0.5" fill-rule="evenodd" clip-rule="evenodd" d="M232.026 121.301C258.624 133.911 259.648 185.657 259.648 185.657L248.169 184.456L233.439 188.306C233.439 188.306 243.294 227.196 216.414 236.238L211.116 218.295L215.037 209.711L211.116 188.554L223.161 182.019L223.302 149.276L233.757 144.649L232.062 121.301H232.026Z" fill="url(#paint5_linear_3200_1138)"/>
<path d="M147.82 59.9463C145.736 54.1889 140.155 46.2061 138.742 46.7006C136.729 47.4424 131.925 69.0947 139.767 69.9071C142.946 70.225 149.198 63.6904 147.82 59.9463Z" fill="url(#paint6_linear_3200_1138)"/>
<path d="M211.896 82.7279C214.51 92.6534 214.05 109.996 211.083 136.664C210.306 143.482 210.13 154.043 200.134 159.765C164.529 180.11 174.737 189.965 161.774 183.855C144.36 175.589 138.603 157.646 137.72 143.835C135.777 113.423 133.481 79.337 147.822 70.4006C158.56 63.7247 203.984 52.7396 211.931 82.7279H211.896Z" fill="url(#paint7_linear_3200_1138)"/>
<path style="mix-blend-mode:multiply" opacity="0.5" d="M208.821 119.534C207.62 124.974 206.419 130.237 205.183 135.358C202.781 145.39 204.194 150.441 191.937 157.646C183.248 162.768 157.003 177.709 152.659 175.59C140.261 169.62 137.647 141.292 137.612 140.056C136.411 96.6102 158.593 73.1211 158.593 73.1211C150.646 108.902 228.142 31.3 208.821 119.534Z" fill="url(#paint8_linear_3200_1138)"/>
<path d="M171.028 115.332C171.028 115.332 173.924 116.109 176.714 121.655C179.469 127.13 177.633 129.814 175.16 131.509C171.31 134.194 156.793 134.653 155.239 130.026C153.684 125.363 151.989 89.0878 157.852 87.0745C163.716 85.0258 196.53 83.6836 198.861 93.0439C201.122 102.228 198.402 140.128 193.669 141.894C188.971 143.66 170.922 141.788 159.654 137.514C159.654 137.514 170.604 139.033 176.679 137.444C183.284 135.713 185.298 127.765 185.298 117.981C185.298 99.7904 172.087 96.9293 166.718 96.6114C161.349 96.2935 160.643 103.746 160.819 109.786C160.961 115.756 165.871 122.714 169.191 122.326C172.511 121.937 170.992 115.297 170.992 115.297L171.028 115.332Z" fill="#FDBA45"/>
<path d="M171.839 220.52C169.402 227.09 173.605 236.556 175.583 236.556C177.561 236.556 179.362 224.547 177.667 223.169C175.971 221.792 174.099 214.445 171.839 220.52Z" fill="url(#paint9_linear_3200_1138)"/>
<path d="M174.24 191.379C171.627 193.216 162.867 201.093 171.238 209.499C176.183 214.48 179.751 222.038 183.636 223.063C192.466 225.359 191.124 205.472 191.831 200.563C192.537 195.512 188.899 173.224 184.166 180.147C180.316 185.763 177.349 189.26 174.276 191.414L174.24 191.379Z" fill="url(#paint10_linear_3200_1138)"/>
<path d="M154.283 25.7908C148.879 31.9721 146.689 11.4854 155.237 10.2491C157.709 9.89589 158.063 21.4815 154.283 25.7908Z" fill="url(#paint11_linear_3200_1138)"/>
<path d="M150.999 51.2918C142.91 54.4002 141.497 31.4409 147.749 32.6772C149.692 33.0657 153.577 28.7565 157.074 30.134C164.81 33.1364 170.814 43.6976 150.999 51.2918Z" fill="url(#paint12_linear_3200_1138)"/>
<path d="M147.29 3.07787C147.29 7.49311 150.504 7.66972 152.023 3.81963C153.259 0.67598 147.29 -0.207064 147.29 3.07787Z" fill="url(#paint13_linear_3200_1138)"/>
<path d="M192.326 176.439C192.396 177.428 197.553 181.561 198.79 176.439C200.026 171.317 191.796 170.293 192.326 176.439Z" fill="url(#paint14_linear_3200_1138)"/>
<path style="mix-blend-mode:multiply" opacity="0.5" d="M170.392 181.171C157.923 191.131 132.81 156.799 139.379 140.091C145.985 123.384 162.692 155.35 179.717 153.514C196.742 151.642 198.614 158.883 191.903 163.227C185.192 167.572 175.796 176.861 170.392 181.206V181.171Z" fill="url(#paint15_linear_3200_1138)"/>
<path style="mix-blend-mode:multiply" opacity="0.5" d="M179.715 161.78C156.65 167.997 140.826 146.839 141.25 156.34C141.674 165.842 160.959 188.483 169.719 180.818C178.479 173.154 193.173 158.177 179.715 161.78Z" fill="url(#paint16_linear_3200_1138)"/>
<g style="mix-blend-mode:soft-light">
<path d="M157.464 88.4149C154.603 94.6316 154.78 100.177 156.016 101.307C157.252 102.438 168.379 90.5696 166.224 88.097C164.069 85.6245 158.241 86.6488 157.464 88.4149Z" fill="#FCD719"/>
</g>
<g style="mix-blend-mode:soft-light">
<path d="M178.198 89.4403C177.209 92.7959 192.645 110.704 195.541 108.338C198.437 105.971 200.38 95.0212 196.247 91.9482C192.115 88.8398 179.222 85.9788 178.198 89.4757V89.4403Z" fill="#FCD719"/>
</g>
<g style="mix-blend-mode:soft-light">
<path d="M181.129 138.856C179.822 143.377 194.763 139.385 195.575 135.747C196.388 132.144 191.584 119.852 189.147 121.407C186.709 122.961 182.047 135.641 181.129 138.856Z" fill="#FCD719"/>
</g>
<g style="mix-blend-mode:soft-light">
<path d="M156.509 129.778C160.748 136.737 173.535 132.039 173.64 129.778C173.746 127.518 160.324 115.968 157.534 118.228C154.743 120.489 154.849 127.094 156.509 129.778Z" fill="#FCD719"/>
</g>
<path style="mix-blend-mode:multiply" opacity="0.5" d="M163.398 66.7638C158.665 74.6406 157.817 83.789 164.493 82.6587C171.169 81.5284 201.051 68.8478 194.34 65.9514C187.629 63.055 166.188 62.1366 163.398 66.7638Z" fill="url(#paint17_linear_3200_1138)"/>
<path style="mix-blend-mode:multiply" opacity="0.5" d="M155.344 70.9664C154.85 67.6108 145.949 69.9067 142.734 75.6642C138.849 82.5873 137.153 94.9852 138.496 95.727C139.838 96.4688 156.121 76.194 155.344 70.9664Z" fill="url(#paint18_linear_3200_1138)"/>
<path style="mix-blend-mode:multiply" opacity="0.5" d="M211.081 84.389C205.359 68.1056 184.908 62.7367 171.521 65.4211C155.52 68.6354 143.863 90.535 178.161 82.7642C198.895 78.0664 201.262 90.7469 202.498 103.922C203.699 117.097 215.708 97.4581 211.116 84.389H211.081Z" fill="url(#paint19_linear_3200_1138)"/>
<path style="mix-blend-mode:multiply" opacity="0.5" d="M137.541 118.227C134.503 132.144 138.318 161.814 175.795 161.779C180.775 161.779 168.624 159.095 164.527 155.351C155.802 147.438 150.893 130.272 150.363 117.097C149.798 103.957 140.508 104.84 137.576 118.192L137.541 118.227Z" fill="url(#paint20_linear_3200_1138)"/>
<path style="mix-blend-mode:multiply" opacity="0.5" d="M163.822 142.564C153.861 145.814 174.737 169.374 197.943 157.576C211.966 150.406 210.058 136.065 204.548 138.291C199.038 140.516 200.698 148.357 186.958 145.885C173.218 143.412 169.368 140.798 163.857 142.6L163.822 142.564Z" fill="url(#paint21_linear_3200_1138)"/>
<path style="mix-blend-mode:multiply" opacity="0.5" d="M139.731 120.559C138.848 132.71 134.927 173.401 166.505 182.867C170.496 184.068 181.058 174.884 166.929 161.144C159.511 153.938 153.789 154.927 148.561 133.416C144.146 115.367 140.473 110.916 139.766 120.559H139.731Z" fill="url(#paint22_linear_3200_1138)"/>
<path style="mix-blend-mode:multiply" opacity="0.5" d="M183.672 121.3C185.12 110.527 173.676 92.7597 163.856 101.378C160.077 104.734 161.278 114.059 168.484 113.07C180.104 111.445 182.577 129.247 183.637 121.3H183.672Z" fill="url(#paint23_linear_3200_1138)"/>
<g style="mix-blend-mode:soft-light">
<path d="M174.064 92.9377C175.053 97.2117 184.484 97.9888 187.804 111.199C191.089 124.41 193.597 132.534 196.175 127.377C198.754 122.22 200.944 102.192 195.716 95.7282C190.488 89.2289 172.686 86.933 174.099 92.9377H174.064Z" fill="#FCD719"/>
</g>
<path opacity="0.54" d="M172.686 193.604C165.339 199.15 168.271 204.483 173.64 209.358C179.009 214.232 184.484 206.073 186.921 203.6C189.393 201.092 194.338 197.737 189.535 192.898C184.731 188.094 179.433 188.482 172.686 193.569V193.604Z" fill="url(#paint24_linear_3200_1138)"/>
<path style="mix-blend-mode:multiply" opacity="0.5" d="M172.688 196.36C166.153 204.024 168.908 202.188 174.065 211.336C179.222 220.484 194.764 207.557 187.629 186.893C184.697 178.487 183.708 183.467 172.723 196.395L172.688 196.36Z" fill="url(#paint25_linear_3200_1138)"/>
<path style="mix-blend-mode:multiply" opacity="0.5" d="M173.253 219.213C171.028 222.074 171.063 226.313 172.088 228.608C173.112 230.904 178.834 225.5 177.881 224.44C176.927 223.381 174.913 217.058 173.289 219.177L173.253 219.213Z" fill="url(#paint26_linear_3200_1138)"/>
<g style="mix-blend-mode:soft-light">
<path d="M145.523 35.7509C143.404 40.3781 144.287 49.9856 149.515 50.4095C154.742 50.8334 164.774 35.539 159.016 33.7023C153.224 31.8302 146.548 33.561 145.523 35.7509Z" fill="#FCD719"/>
</g>
<g style="mix-blend-mode:soft-light">
<path d="M136.977 65.209C139.131 68.1054 147.75 66.8691 146.69 61.7121C145.631 56.5552 143.158 50.3738 140.474 52.2105C137.789 54.0826 135.105 62.7365 136.977 65.209Z" fill="#FCD719"/>
</g>
<path d="M154.426 10.4255C148.103 12.898 150.893 20.7395 153.295 20.1037C155.697 19.4679 157.145 9.36582 154.426 10.4255Z" fill="#FCD719"/>
<path opacity="0.54" d="M183.743 182.372C178.904 190.002 167.424 195.512 169.155 199.539C170.921 203.565 194.481 209.429 189.889 190.002C187.628 180.394 185.756 179.229 183.743 182.372Z" fill="url(#paint27_linear_3200_1138)"/>
<path d="M139.061 276.223L108.154 250.544L134.575 249.025C139.873 256.266 171.663 258.562 171.663 258.562C154.179 265.733 139.061 276.223 139.061 276.223Z" fill="url(#paint28_linear_3200_1138)"/>
<path d="M186.533 255.064L186.392 265.308L139.061 276.222L131.466 261.599L186.533 255.064Z" fill="url(#paint29_linear_3200_1138)"/>
<path d="M143.971 261.423L167 259.41L186.639 255.736L180.564 253.97L137.895 247.224L108.154 250.509L131.467 261.6L143.971 261.423Z" fill="url(#paint30_linear_3200_1138)"/>
<path style="mix-blend-mode:multiply" opacity="0.5" d="M131.466 261.6L139.061 276.223L185.014 265.662C185.014 265.662 167.459 259.41 167 259.445C166.576 259.481 144.853 261.6 144.853 261.6H131.466Z" fill="url(#paint31_linear_3200_1138)"/>
<g style="mix-blend-mode:soft-light" opacity="0.6">
<path d="M113.275 251.11C118.361 254.465 129.311 260.046 132.278 260.152C135.245 260.258 166.964 259.163 166.258 257.468C165.551 255.772 142.945 248.001 137.647 248.213C132.384 248.425 111.05 249.697 113.24 251.145L113.275 251.11Z" fill="#EBA249"/>
</g>
<g style="mix-blend-mode:soft-light" opacity="0.6">
<path d="M159.829 252.027C158.31 252.027 167.883 257.573 169.154 257.573C170.426 257.573 179.892 256.195 179.256 255.489C178.62 254.782 164.209 252.063 159.829 252.027Z" fill="#EBA249"/>
</g>
<path d="M144.853 295.155L113.276 270.783L151.176 269.617L228.425 276.187C195.752 294.872 144.818 295.12 144.818 295.12L144.853 295.155Z" fill="url(#paint32_linear_3200_1138)"/>
<path style="mix-blend-mode:multiply" opacity="0.5" d="M146.337 280.055L144.854 293.76C144.854 293.76 171.239 292.241 184.308 289.662C211.788 284.293 228.425 274.827 228.425 274.827L146.302 280.055H146.337Z" fill="url(#paint33_linear_3200_1138)"/>
<path d="M164.316 281.451L197.518 279.791L228.46 276.223L217.157 274.775L156.015 267.993L113.276 270.784L146.337 281.451H164.316Z" fill="url(#paint34_linear_3200_1138)"/>
<g style="mix-blend-mode:soft-light" opacity="0.6">
<path d="M141.18 276.223C137.824 277 144.5 280.25 147.22 280.25C149.939 280.25 178.338 281.133 177.243 278.661C176.148 276.188 149.939 274.175 141.18 276.223Z" fill="#EBA249"/>
</g>
<g style="mix-blend-mode:soft-light" opacity="0.6">
<path d="M168.554 270.608C166.152 270.678 179.221 277.142 181.305 277.919C183.389 278.696 213.236 277.919 210.481 276.683C207.691 275.482 179.504 270.29 168.554 270.608Z" fill="#EBA249"/>
</g>
<g style="mix-blend-mode:soft-light" opacity="0.6">
<path d="M164.386 272.09C159.229 273.432 166.505 275.587 168.271 275.375C170.073 275.163 172.333 270.006 164.386 272.09Z" fill="#EBA249"/>
</g>
<path d="M122.884 273.892L136.695 281.45L144.854 280.956L132.598 276.223L122.884 273.892Z" fill="#D65429"/>
<path fill-rule="evenodd" clip-rule="evenodd" d="M24.7587 292.612L31.5758 254.111L36.6268 253.369L44.5036 227.972L48.5656 227.372L57.7846 230.268L75.3749 173.718L79.1897 172.199L94.802 174.071L93.601 218.577L99.9237 227.69L96.2855 315.288L24.7587 292.612Z" fill="url(#paint35_linear_3200_1138)"/>
<path style="mix-blend-mode:multiply" opacity="0.5" fill-rule="evenodd" clip-rule="evenodd" d="M79.1887 172.199L75.3739 173.718L85.6173 176.72L85.6526 223.027L73.3606 219.707L76.4689 222.18L93.4941 227.867L83.9925 307.517L96.4611 311.438L99.9227 227.69L93.6 218.577L94.801 174.071L79.1887 172.199Z" fill="url(#paint36_linear_3200_1138)"/>
<path style="mix-blend-mode:multiply" opacity="0.5" fill-rule="evenodd" clip-rule="evenodd" d="M36.6278 253.369C37.5462 253.97 59.7283 263.436 59.7283 263.436L58.9513 295.579L52.4873 292.259L54.0415 265.696L42.4912 259.762L31.5768 254.076L36.6278 253.369Z" fill="url(#paint37_linear_3200_1138)"/>
<path style="mix-blend-mode:multiply" opacity="0.5" fill-rule="evenodd" clip-rule="evenodd" d="M44.5029 227.973L70.7824 238.145L63.5414 296.25L67.1089 297.521L77.0697 267.074L86.5713 252.239L78.306 260.009L83.6396 233.306L77.6702 235.143L57.784 230.268L48.5649 227.372L44.5029 227.973Z" fill="url(#paint38_linear_3200_1138)"/>
<path d="M345.799 273.009C347.918 267.145 342.443 240.371 332.2 240.371C322.84 240.371 313.479 255.771 313.479 255.771C313.479 255.771 307.333 246.129 292.286 245.917C277.274 245.74 264.135 269.971 264.135 269.971C264.135 269.971 239.869 258.774 237.396 283.287C237.396 283.287 223.338 276.505 212.353 286.643C198.577 299.323 199.708 328.641 199.708 328.641H216.415L228.46 327.687L279.676 328.499L345.834 272.973L345.799 273.009Z" fill="url(#paint39_linear_3200_1138)"/>
<path d="M17.5525 285.37C0.88058 275.48 14.974 253.439 28.1138 262.023C28.1138 262.023 34.1538 249.483 48.8477 254.746C63.471 260.009 59.2677 282.827 59.2677 282.827C59.2677 282.827 64.1068 284.876 72.7253 288.125L94.4129 289.432C94.4129 289.432 97.2387 280.249 108.224 278.553C119.209 276.858 125.814 288.161 126.662 298.687C126.662 298.687 139.025 291.587 154.813 302.254C154.813 302.254 163.326 288.797 171.521 288.161C190.771 286.607 193.809 302.007 193.809 302.007C193.809 302.007 203.063 288.055 216.379 290.563C235.383 294.13 240.858 320.374 240.858 320.374L145.806 329.452L17.5525 285.37Z" fill="url(#paint40_linear_3200_1138)"/>
<g style="mix-blend-mode:soft-light">
<path d="M41.041 254.146C26.8416 256.477 23.3094 271.348 33.2348 274.173C43.1603 277.034 52.5912 279.295 54.7812 273.502C59.4437 261.246 46.9751 253.192 41.0057 254.146H41.041Z" fill="#FCD719"/>
</g>
<g style="mix-blend-mode:soft-light">
<path d="M54.5347 275.128C47.5056 286.926 42.6665 275.87 44.5033 281.345C46.34 286.82 56.4421 287.526 58.6674 275.905C59.6917 270.571 57.9256 269.406 54.5347 275.128Z" fill="#FCD719"/>
</g>
<g style="mix-blend-mode:soft-light">
<path d="M106.74 280.497C102.255 281.945 99.9233 285.265 116.984 289.61C124.79 291.588 125.602 302.538 125.814 299.394C126.167 293.354 120.057 276.152 106.74 280.497Z" fill="#FCD719"/>
</g>
<g style="mix-blend-mode:soft-light">
<path d="M120.234 284.522C117.62 277.847 106.14 276.257 97.416 286.183C88.6915 296.108 100.03 283.215 109.531 288.161C121.647 294.483 122.636 290.598 120.234 284.522Z" fill="#FCD719"/>
</g>
<g style="mix-blend-mode:soft-light">
<path d="M20.7314 262.023C7.59168 265.096 9.60502 276.258 15.4331 278.342C21.2612 280.39 30.4096 259.762 20.7314 262.023Z" fill="#FCD719"/>
</g>
<g style="mix-blend-mode:soft-light">
<path d="M50.9681 256.9C34.72 250.578 27.373 260.044 35.4264 267.85C43.056 275.268 43.056 291.057 51.9218 284.875C60.8229 278.729 60.0458 260.432 50.9681 256.9Z" fill="#FCD719"/>
</g>
<g style="mix-blend-mode:soft-light">
<path d="M171.133 289.61C155.839 293.107 149.728 310.061 151.353 313.311C153.013 316.596 162.197 304.092 171.416 304.092C180.635 304.092 193.351 310.662 190.808 300.418C189.889 296.78 182.154 287.067 171.133 289.574V289.61Z" fill="#FCD719"/>
</g>
<g style="mix-blend-mode:soft-light">
<path d="M186.074 301.548C180.67 294.519 168.025 290.493 161.737 295.579C155.45 300.665 149.127 312.004 155.309 310.767C161.49 309.567 163.539 303.986 174.206 306.635C184.873 309.284 189.748 306.282 186.074 301.513V301.548Z" fill="#FCD719"/>
</g>
<g style="mix-blend-mode:soft-light">
<path d="M219.381 293.53C196.069 290.846 187.768 310.131 193.031 315.96C198.294 321.788 233.969 295.226 219.381 293.53Z" fill="#FCD719"/>
</g>
<g style="mix-blend-mode:soft-light">
<path d="M293.629 248.53C268.621 248.99 260.285 283.146 269.539 286.431C271.835 287.243 282.538 271.878 294.335 272.231C337.216 273.503 309.736 248.212 293.594 248.53H293.629Z" fill="#FCD719"/>
</g>
<g style="mix-blend-mode:soft-light">
<path d="M330.116 241.854C314.539 248.212 321.003 264.072 325.524 266.085C330.01 268.099 341.949 271.172 343.821 266.085C345.763 260.716 339.794 237.934 330.151 241.854H330.116Z" fill="#FCD719"/>
</g>
<g style="mix-blend-mode:soft-light">
<path d="M279.924 251.71C270.458 258.668 278.017 260.081 288.366 258.244C297.797 256.549 306.557 263.401 307.687 259.163C308.817 254.924 298.786 237.828 279.924 251.71Z" fill="#FCD719"/>
</g>
<g style="mix-blend-mode:soft-light">
<path d="M309.452 253.688C319.13 259.41 321.108 277.177 313.372 279.19C305.637 281.203 295.641 264.602 288.117 262.448C278.934 259.834 275.719 262.448 274.236 260.646C270.456 256.16 293.557 244.257 309.452 253.652V253.688Z" fill="#FCD719"/>
</g>
<g style="mix-blend-mode:soft-light">
<path d="M257.742 272.867C247.605 267.286 239.516 285.159 244.108 290.457C248.699 295.755 251.384 281.944 254.174 279.896C256.965 277.847 261.663 275.021 257.742 272.867Z" fill="#FCD719"/>
</g>
<g style="mix-blend-mode:soft-light">
<path d="M329.374 243.937C336.297 240.935 342.267 253.262 343.362 260.256C344.457 267.25 332.73 274.208 325.524 259.514C322.946 254.251 324.323 246.092 329.41 243.937H329.374Z" fill="#FCD719"/>
</g>
<g style="mix-blend-mode:soft-light">
<path d="M303.094 264.777C277.909 252.874 267.984 274.208 272.858 278.588C279.499 284.558 276.92 269.299 291.685 281.767C306.449 294.236 315.668 270.747 303.059 264.813L303.094 264.777Z" fill="#FCD719"/>
</g>
<path fill-rule="evenodd" clip-rule="evenodd" d="M47.1526 343.652L363.955 342.769L298.468 405.5L262.051 414.578L255.41 430.861L226.553 440.716L209.103 430.226L201.085 413.978L179.115 414.013L171.309 436.689L128.322 457.388L107.8 451.631L86.3599 418.605L53.4046 405.924L47.1526 343.652Z" fill="url(#paint41_linear_3200_1138)"/>
<path style="mix-blend-mode:multiply" opacity="0.5" fill-rule="evenodd" clip-rule="evenodd" d="M52.0269 392.291L76.5049 396.706L86.3597 418.605L96.1792 396.07L125.108 396.918L128.322 457.389L171.309 436.69L179.115 414.014L201.085 413.978L209.103 430.226L226.552 440.717L255.41 430.862L262.051 414.579L298.468 405.501L363.955 342.769L45.5983 335.528L52.0269 392.291Z" fill="url(#paint42_linear_3200_1138)"/>
<path style="mix-blend-mode:multiply" opacity="0.5" fill-rule="evenodd" clip-rule="evenodd" d="M51.4603 386.673L86.7822 387.662L88.9015 412.741L96.1778 396.034L125.106 396.881L144.498 389.923L160.287 380.527L179.114 413.977H201.084L196.845 391.406L226.092 403.31L226.551 440.716L255.444 430.861L262.085 414.578L269.75 383.035C269.75 383.035 301.61 381.94 301.433 383.918C301.257 385.861 298.466 405.5 298.466 405.5L363.988 342.768L45.6322 335.562L51.4956 386.673H51.4603Z" fill="url(#paint43_linear_3200_1138)"/>
<path style="mix-blend-mode:multiply" opacity="0.5" fill-rule="evenodd" clip-rule="evenodd" d="M96.179 396.069L112.427 367.246L136.305 354.495L140.508 341.355L95.1194 342.097L96.179 396.069Z" fill="url(#paint44_linear_3200_1138)"/>
<path style="mix-blend-mode:multiply" opacity="0.5" fill-rule="evenodd" clip-rule="evenodd" d="M201.085 413.979L196.846 391.443L211.081 368.06L164.138 359.583L160.288 380.529L179.114 414.014L201.085 413.979Z" fill="url(#paint45_linear_3200_1138)"/>
<path style="mix-blend-mode:multiply" opacity="0.5" fill-rule="evenodd" clip-rule="evenodd" d="M341.737 364.032L271.835 351.493L270.316 374.276L226.093 403.346L226.552 440.716L255.41 430.861L262.05 414.578L298.467 405.5L341.737 364.032Z" fill="url(#paint46_linear_3200_1138)"/>
<path fill-rule="evenodd" clip-rule="evenodd" d="M375.999 371.804L336.191 385.756L280.171 361.843L279.217 374.417L226.093 369.72L223.161 369.472L132.172 361.454L135.175 350.893L114.264 353.224L89.574 373.287L46.7638 386.533L20.0958 369.049L8.26296 311.439L17.7999 307.306L3 273.927L29.2088 269.688L135.422 297.274L147.714 317.408L223.727 316.701L224.044 316.949L226.411 318.997V316.701H226.376H226.411L257.353 316.419L259.931 290.599L353.181 271.525L349.614 261.034L370.842 293.283L354.312 331.643L372.467 336.552L375.999 371.804Z" fill="url(#paint47_linear_3200_1138)"/>
<path fill-rule="evenodd" clip-rule="evenodd" d="M29.2088 269.687L135.422 297.273L130.865 305.15L101.018 309.53L3 273.925L29.2088 269.687Z" fill="url(#paint48_linear_3200_1138)"/>
<path fill-rule="evenodd" clip-rule="evenodd" d="M259.932 290.599L289.002 296.18L353.182 271.525L349.614 261.034L346.258 260.999L342.55 269.017L259.932 290.599Z" fill="url(#paint49_linear_3200_1138)"/>
<path fill-rule="evenodd" clip-rule="evenodd" d="M282.503 330.124L247.604 329.347L243.613 336.87L238.315 329.17L142.204 327.086L147.714 317.408L223.727 316.702L224.045 316.949L226.411 318.997V316.702H226.376H226.411L257.353 316.419L282.503 330.124Z" fill="url(#paint50_linear_3200_1138)"/>
<path style="mix-blend-mode:multiply" opacity="0.5" fill-rule="evenodd" clip-rule="evenodd" d="M20.0966 369.049L81.5214 359.476L81.4861 330.159L8.26379 311.439L17.8007 307.306L100.489 326.203L101.019 309.531L130.866 305.151L142.204 327.086L238.315 329.17L243.614 336.87L247.605 329.347L268.727 329.806L282.503 330.124L282.715 354.461L290.38 310.697L289.002 296.179L353.182 271.525L349.615 261.034L370.843 293.283L354.312 331.643L298.257 351.811L331.424 355.026L372.468 336.552L376 371.804L336.192 385.756L280.172 361.843L279.218 374.417L132.173 361.454L135.175 350.893L114.265 353.224L89.5748 373.287L46.7647 386.533L20.0966 369.049Z" fill="url(#paint51_linear_3200_1138)"/>
<path style="mix-blend-mode:multiply" opacity="0.5" fill-rule="evenodd" clip-rule="evenodd" d="M89.5744 373.287L81.521 359.476L81.4857 330.159L20.7321 307.977L100.489 326.203L135.175 350.893L142.204 327.086L135.175 350.893L114.264 353.224L89.5744 373.287Z" fill="url(#paint52_linear_3200_1138)"/>
<path style="mix-blend-mode:multiply" opacity="0.5" fill-rule="evenodd" clip-rule="evenodd" d="M290.38 310.697L370.843 293.283L354.312 331.643L367.487 335.21L313.092 353.154L331.424 355.026L336.192 385.756L280.172 361.843L282.715 354.461L290.38 310.697Z" fill="url(#paint53_linear_3200_1138)"/>
<path style="mix-blend-mode:multiply" opacity="0.5" fill-rule="evenodd" clip-rule="evenodd" d="M114.264 353.223L93.6012 329.805L75.0219 320.374L100.489 326.202L128.746 346.336L142.204 327.085L132.173 361.453L187.593 366.328L279.218 374.417L280.171 361.842L324.324 380.704L315.847 388.828L291.757 373.11L269.751 383.07L265.654 396.316L254.916 383.53L205.995 376.395L198.86 388.157L161.949 371.414L102.184 385.437L95.7911 375.158L95.6498 368.341L114.264 353.223Z" fill="url(#paint54_linear_3200_1138)"/>
<path style="mix-blend-mode:multiply" opacity="0.5" fill-rule="evenodd" clip-rule="evenodd" d="M224.044 316.948L223.726 316.701L224.044 316.948Z" fill="url(#paint55_linear_3200_1138)"/>
<path style="mix-blend-mode:multiply" opacity="0.5" fill-rule="evenodd" clip-rule="evenodd" d="M247.603 329.346L226.092 369.719H223.054L223.16 369.472L238.667 329.452L238.314 329.17L226.41 318.997V316.701L247.603 329.346Z" fill="url(#paint56_linear_3200_1138)"/>
<path fill-rule="evenodd" clip-rule="evenodd" d="M224.044 316.948L226.411 318.997L224.044 316.948Z" fill="url(#paint57_linear_3200_1138)"/>
<path style="mix-blend-mode:screen" opacity="0.6" fill-rule="evenodd" clip-rule="evenodd" d="M336.191 385.756L375.999 371.804L372.467 336.553L367.487 335.21L354.312 331.643L370.842 293.283L349.614 261.034L346.258 260.999L342.549 269.017L259.931 290.599L257.353 316.419L147.714 317.373L135.422 297.275L29.2088 269.688L3 273.927L17.7999 307.306L8.26296 311.439L20.0958 369.049L46.7638 386.533L51.2144 385.155L52.0268 392.291L53.4043 405.925L86.3597 418.605L107.8 451.631L128.322 457.389L171.309 436.69L179.115 414.013L201.085 413.978L209.103 430.226L226.552 440.717L255.41 430.862L262.051 414.579L298.468 405.501L315.846 388.829L324.323 380.705L336.191 385.756Z" fill="url(#paint58_linear_3200_1138)"/>
<path d="M188.829 307.907L158.982 296.18L159.83 287.526L186.886 285.336L237.361 288.515L231.781 300.136C209.634 304.48 188.794 307.942 188.794 307.942L188.829 307.907Z" fill="url(#paint59_linear_3200_1138)"/>
<path d="M218.783 293.813L237.397 288.514L189.536 283.604L159.831 287.525L189.572 296.815L218.783 293.813Z" fill="url(#paint60_linear_3200_1138)"/>
<path style="mix-blend-mode:multiply" opacity="0.5" d="M189.572 296.815L188.83 307.942L224.081 301.654L231.817 300.171L237.397 288.55C237.397 288.55 219.489 293.813 218.783 293.848C218.076 293.848 189.572 296.85 189.572 296.85V296.815Z" fill="url(#paint61_linear_3200_1138)"/>
<path d="M162.549 288.372L195.681 296.178L189.252 301.688L162.549 288.372Z" fill="#D65429"/>
<g style="mix-blend-mode:soft-light" opacity="0.6">
<path d="M174.134 288.514C192.749 294.13 191.371 294.978 198.577 295.155C205.783 295.296 229.413 290.421 226.305 289.326C223.232 288.231 196.705 284.134 190.241 284.558C183.777 284.947 165.127 285.83 174.099 288.549L174.134 288.514Z" fill="#EBA249"/>
</g>
</g>
<g filter="url(#filter2_d_3200_1138)">
<path d="M476.678 314.338L473.223 399.047L447.25 397.855L448.68 341.502L439.148 348.055L430.213 327.682L449.633 313.146L476.678 314.338ZM570.637 316.482L548.834 397.021L519.287 398.689L492.481 320.891L520.717 318.27L532.154 363.543L543.234 314.695L570.637 316.482ZM629.926 314.338L626.471 399.047L600.498 397.855L601.928 341.502L592.397 348.055L583.461 327.682L602.881 313.146L629.926 314.338Z" fill="white"/>
</g>
<defs>
<filter id="filter0_d_3200_1138" x="23.9" y="94.9" width="672.2" height="381.311" filterUnits="userSpaceOnUse" color-interpolation-filters="sRGB">
<feFlood flood-opacity="0" result="BackgroundImageFix"/>
<feColorMatrix in="SourceAlpha" type="matrix" values="0 0 0 0 0 0 0 0 0 0 0 0 0 0 0 0 0 0 127 0" result="hardAlpha"/>
<feOffset dy="4"/>
<feGaussianBlur stdDeviation="5.55"/>
<feComposite in2="hardAlpha" operator="out"/>
<feColorMatrix type="matrix" values="0 0 0 0 0 0 0 0 0 0 0 0 0 0 0 0 0 0 0.6 0"/>
<feBlend mode="normal" in2="BackgroundImageFix" result="effect1_dropShadow_3200_1138"/>
<feBlend mode="normal" in="SourceGraphic" in2="effect1_dropShadow_3200_1138" result="shape"/>
</filter>
<filter id="filter1_d_3200_1138" x="0" y="0" width="389" height="472.389" filterUnits="userSpaceOnUse" color-interpolation-filters="sRGB">
<feFlood flood-opacity="0" result="BackgroundImageFix"/>
<feColorMatrix in="SourceAlpha" type="matrix" values="0 0 0 0 0 0 0 0 0 0 0 0 0 0 0 0 0 0 127 0" result="hardAlpha"/>
<feOffset dx="5" dy="7"/>
<feGaussianBlur stdDeviation="4"/>
<feComposite in2="hardAlpha" operator="out"/>
<feColorMatrix type="matrix" values="0 0 0 0 0 0 0 0 0 0 0 0 0 0 0 0 0 0 0.28 0"/>
<feBlend mode="normal" in2="BackgroundImageFix" result="effect1_dropShadow_3200_1138"/>
<feBlend mode="normal" in="SourceGraphic" in2="effect1_dropShadow_3200_1138" result="shape"/>
</filter>
<filter id="filter2_d_3200_1138" x="427.213" y="312.146" width="215.713" height="101.9" filterUnits="userSpaceOnUse" color-interpolation-filters="sRGB">
<feFlood flood-opacity="0" result="BackgroundImageFix"/>
<feColorMatrix in="SourceAlpha" type="matrix" values="0 0 0 0 0 0 0 0 0 0 0 0 0 0 0 0 0 0 127 0" result="hardAlpha"/>
<feOffset dx="5" dy="7"/>
<feGaussianBlur stdDeviation="4"/>
<feComposite in2="hardAlpha" operator="out"/>
<feColorMatrix type="matrix" values="0 0 0 0 0 0 0 0 0 0 0 0 0 0 0 0 0 0 0.28 0"/>
<feBlend mode="normal" in2="BackgroundImageFix" result="effect1_dropShadow_3200_1138"/>
<feBlend mode="normal" in="SourceGraphic" in2="effect1_dropShadow_3200_1138" result="shape"/>
</filter>
<linearGradient id="paint0_linear_3200_1138" x1="360" y1="102" x2="360" y2="461.111" gradientUnits="userSpaceOnUse">
<stop stop-color="#5B174D"/>
<stop offset="1" stop-color="#A81A26"/>
</linearGradient>
<linearGradient id="paint1_linear_3200_1138" x1="228.248" y1="229.527" x2="368.335" y2="139.245" gradientUnits="userSpaceOnUse">
<stop stop-color="#9B1F27"/>
<stop offset="1" stop-color="#3D003E"/>
</linearGradient>
<linearGradient id="paint2_linear_3200_1138" x1="234.741" y1="183.912" x2="228.883" y2="338.574" gradientUnits="userSpaceOnUse">
<stop stop-color="#3445A1"/>
<stop offset="1" stop-color="#191E84"/>
</linearGradient>
<linearGradient id="paint3_linear_3200_1138" x1="209.554" y1="178.893" x2="203.5" y2="338.833" gradientUnits="userSpaceOnUse">
<stop stop-color="#3445A1"/>
<stop offset="1" stop-color="#191E84"/>
</linearGradient>
<linearGradient id="paint4_linear_3200_1138" x1="191.051" y1="165.662" x2="184.32" y2="342.658" gradientUnits="userSpaceOnUse">
<stop stop-color="#3445A1"/>
<stop offset="1" stop-color="#191E84"/>
</linearGradient>
<linearGradient id="paint5_linear_3200_1138" x1="235.347" y1="292.188" x2="235.347" y2="130.202" gradientUnits="userSpaceOnUse">
<stop stop-color="white"/>
<stop offset="1" stop-color="#191E84"/>
</linearGradient>
<linearGradient id="paint6_linear_3200_1138" x1="142.451" y1="52.4934" x2="138.742" y2="92.5131" gradientUnits="userSpaceOnUse">
<stop stop-color="#FDA902"/>
<stop offset="0.13" stop-color="#FDA301"/>
<stop offset="0.3" stop-color="#FD9401"/>
<stop offset="0.48" stop-color="#FD7A01"/>
<stop offset="0.68" stop-color="#FD5600"/>
<stop offset="0.88" stop-color="#FD2800"/>
<stop offset="1" stop-color="#FD0C00"/>
</linearGradient>
<linearGradient id="paint7_linear_3200_1138" x1="174.949" y1="75.0277" x2="174.949" y2="180.181" gradientUnits="userSpaceOnUse">
<stop stop-color="#FDA902"/>
<stop offset="0.13" stop-color="#FDA301"/>
<stop offset="0.3" stop-color="#FD9401"/>
<stop offset="0.48" stop-color="#FD7A01"/>
<stop offset="0.68" stop-color="#FD5600"/>
<stop offset="0.88" stop-color="#FD2800"/>
<stop offset="1" stop-color="#FD0C00"/>
</linearGradient>
<linearGradient id="paint8_linear_3200_1138" x1="172.015" y1="159.554" x2="177.278" y2="73.3683" gradientUnits="userSpaceOnUse">
<stop stop-color="white"/>
<stop offset="1" stop-color="#E75A29"/>
</linearGradient>
<linearGradient id="paint9_linear_3200_1138" x1="177.384" y1="239.064" x2="173.146" y2="218.224" gradientUnits="userSpaceOnUse">
<stop stop-color="#FDA902"/>
<stop offset="0.99" stop-color="#FD0C00"/>
</linearGradient>
<linearGradient id="paint10_linear_3200_1138" x1="179.821" y1="235.037" x2="179.821" y2="201.057" gradientUnits="userSpaceOnUse">
<stop stop-color="#FDA902"/>
<stop offset="0.99" stop-color="#FD0C00"/>
</linearGradient>
<linearGradient id="paint11_linear_3200_1138" x1="155.696" y1="34.7625" x2="161.489" y2="75.2061" gradientUnits="userSpaceOnUse">
<stop stop-color="#FDA902"/>
<stop offset="0.99" stop-color="#FD0C00"/>
</linearGradient>
<linearGradient id="paint12_linear_3200_1138" x1="153.224" y1="33.7722" x2="159.476" y2="77.5713" gradientUnits="userSpaceOnUse">
<stop stop-color="#FDA902"/>
<stop offset="0.99" stop-color="#FD0C00"/>
</linearGradient>
<linearGradient id="paint13_linear_3200_1138" x1="154.284" y1="34.9382" x2="160.076" y2="75.3818" gradientUnits="userSpaceOnUse">
<stop stop-color="#FDA902"/>
<stop offset="0.99" stop-color="#FD0C00"/>
</linearGradient>
<linearGradient id="paint14_linear_3200_1138" x1="195.575" y1="180.748" x2="195.575" y2="175.591" gradientUnits="userSpaceOnUse">
<stop stop-color="#FDA902"/>
<stop offset="0.99" stop-color="#FD0C00"/>
</linearGradient>
<linearGradient id="paint15_linear_3200_1138" x1="165.518" y1="175.166" x2="167.884" y2="136.312" gradientUnits="userSpaceOnUse">
<stop stop-color="white"/>
<stop offset="1" stop-color="#E75A29"/>
</linearGradient>
<linearGradient id="paint16_linear_3200_1138" x1="163.396" y1="148.146" x2="163.043" y2="167.926" gradientUnits="userSpaceOnUse">
<stop stop-color="#F70715"/>
<stop offset="1" stop-color="#D01C5C"/>
</linearGradient>
<linearGradient id="paint17_linear_3200_1138" x1="183.708" y1="59.3462" x2="171.31" y2="81.493" gradientUnits="userSpaceOnUse">
<stop stop-color="white"/>
<stop offset="1" stop-color="#E75A29"/>
</linearGradient>
<linearGradient id="paint18_linear_3200_1138" x1="142.77" y1="95.7623" x2="149.163" y2="71.6022" gradientUnits="userSpaceOnUse">
<stop stop-color="white"/>
<stop offset="1" stop-color="#E75A29"/>
</linearGradient>
<linearGradient id="paint19_linear_3200_1138" x1="195.363" y1="67.5051" x2="182.718" y2="90.1465" gradientUnits="userSpaceOnUse">
<stop stop-color="white"/>
<stop offset="1" stop-color="#E75A29"/>
</linearGradient>
<linearGradient id="paint20_linear_3200_1138" x1="168.165" y1="119.287" x2="152.094" y2="148.004" gradientUnits="userSpaceOnUse">
<stop stop-color="white"/>
<stop offset="1" stop-color="#E75A29"/>
</linearGradient>
<linearGradient id="paint21_linear_3200_1138" x1="193.493" y1="130.237" x2="179.611" y2="155.104" gradientUnits="userSpaceOnUse">
<stop stop-color="white"/>
<stop offset="1" stop-color="#E75A29"/>
</linearGradient>
<linearGradient id="paint22_linear_3200_1138" x1="148.102" y1="123.561" x2="158.84" y2="168.526" gradientUnits="userSpaceOnUse">
<stop stop-color="white"/>
<stop offset="1" stop-color="#E75A29"/>
</linearGradient>
<linearGradient id="paint23_linear_3200_1138" x1="170.356" y1="102.261" x2="174.382" y2="119.145" gradientUnits="userSpaceOnUse">
<stop stop-color="white"/>
<stop offset="1" stop-color="#E75A29"/>
</linearGradient>
<linearGradient id="paint24_linear_3200_1138" x1="168.271" y1="200.209" x2="191.548" y2="200.209" gradientUnits="userSpaceOnUse">
<stop stop-color="#FDA902"/>
<stop offset="0.99" stop-color="#FD0C00"/>
</linearGradient>
<linearGradient id="paint25_linear_3200_1138" x1="168.873" y1="198.514" x2="189.465" y2="198.514" gradientUnits="userSpaceOnUse">
<stop stop-color="white"/>
<stop offset="1" stop-color="#E75A29"/>
</linearGradient>
<linearGradient id="paint26_linear_3200_1138" x1="171.381" y1="223.946" x2="177.951" y2="223.946" gradientUnits="userSpaceOnUse">
<stop stop-color="white"/>
<stop offset="1" stop-color="#E75A29"/>
</linearGradient>
<linearGradient id="paint27_linear_3200_1138" x1="168.978" y1="192.192" x2="190.489" y2="192.192" gradientUnits="userSpaceOnUse">
<stop stop-color="#FDA902"/>
<stop offset="0.99" stop-color="#FD0C00"/>
</linearGradient>
<linearGradient id="paint28_linear_3200_1138" x1="134.963" y1="277.46" x2="139.449" y2="256.655" gradientUnits="userSpaceOnUse">
<stop stop-color="#9B1F27"/>
<stop offset="1" stop-color="#3D003E"/>
</linearGradient>
<linearGradient id="paint29_linear_3200_1138" x1="159.335" y1="267.851" x2="158.841" y2="254.499" gradientUnits="userSpaceOnUse">
<stop stop-color="#B61922"/>
<stop offset="1" stop-color="#45003D"/>
</linearGradient>
<linearGradient id="paint30_linear_3200_1138" x1="147.397" y1="332.561" x2="147.397" y2="244.469" gradientUnits="userSpaceOnUse">
<stop stop-color="#8D092D"/>
<stop offset="1" stop-color="#FD5925"/>
</linearGradient>
<linearGradient id="paint31_linear_3200_1138" x1="171.38" y1="259.728" x2="138.919" y2="269.3" gradientUnits="userSpaceOnUse">
<stop stop-color="#F70715"/>
<stop offset="1" stop-color="#882785"/>
</linearGradient>
<linearGradient id="paint32_linear_3200_1138" x1="113.276" y1="282.404" x2="228.46" y2="282.404" gradientUnits="userSpaceOnUse">
<stop stop-color="#B61922"/>
<stop offset="1" stop-color="#45003D"/>
</linearGradient>
<linearGradient id="paint33_linear_3200_1138" x1="223.091" y1="277.724" x2="138.213" y2="288.391" gradientUnits="userSpaceOnUse">
<stop stop-color="#F70715"/>
<stop offset="1" stop-color="#882785"/>
</linearGradient>
<linearGradient id="paint34_linear_3200_1138" x1="170.886" y1="332.562" x2="170.886" y2="244.469" gradientUnits="userSpaceOnUse">
<stop stop-color="#8D092D"/>
<stop offset="1" stop-color="#FD5925"/>
</linearGradient>
<linearGradient id="paint35_linear_3200_1138" x1="99.099" y1="292.899" x2="14.7947" y2="202.997" gradientUnits="userSpaceOnUse">
<stop stop-color="#9B1F27"/>
<stop offset="1" stop-color="#3D003E"/>
</linearGradient>
<linearGradient id="paint36_linear_3200_1138" x1="84.8903" y1="214.26" x2="84.6613" y2="342.564" gradientUnits="userSpaceOnUse">
<stop stop-color="#3445A1"/>
<stop offset="1" stop-color="#191E84"/>
</linearGradient>
<linearGradient id="paint37_linear_3200_1138" x1="43.7767" y1="214.202" x2="43.5476" y2="342.507" gradientUnits="userSpaceOnUse">
<stop stop-color="#3445A1"/>
<stop offset="1" stop-color="#191E84"/>
</linearGradient>
<linearGradient id="paint38_linear_3200_1138" x1="63.7393" y1="214.247" x2="63.5102" y2="342.551" gradientUnits="userSpaceOnUse">
<stop stop-color="#3445A1"/>
<stop offset="1" stop-color="#191E84"/>
</linearGradient>
<linearGradient id="paint39_linear_3200_1138" x1="255.657" y1="242.349" x2="285.469" y2="334.115" gradientUnits="userSpaceOnUse">
<stop stop-color="#FDA902"/>
<stop offset="0.99" stop-color="#FD0C00"/>
</linearGradient>
<linearGradient id="paint40_linear_3200_1138" x1="143.087" y1="332.49" x2="102.007" y2="249.236" gradientUnits="userSpaceOnUse">
<stop stop-color="#FDA902"/>
<stop offset="0.99" stop-color="#FD0C00"/>
</linearGradient>
<linearGradient id="paint41_linear_3200_1138" x1="47.1526" y1="400.061" x2="363.955" y2="400.061" gradientUnits="userSpaceOnUse">
<stop stop-color="#9B1F27"/>
<stop offset="1" stop-color="#3D003E"/>
</linearGradient>
<linearGradient id="paint42_linear_3200_1138" x1="190.489" y1="495.007" x2="202.286" y2="366.4" gradientUnits="userSpaceOnUse">
<stop stop-color="#3445A1"/>
<stop offset="1" stop-color="#191E84"/>
</linearGradient>
<linearGradient id="paint43_linear_3200_1138" x1="193.384" y1="463.569" x2="202.956" y2="359.228" gradientUnits="userSpaceOnUse">
<stop stop-color="#3445A1"/>
<stop offset="1" stop-color="#191E84"/>
</linearGradient>
<linearGradient id="paint44_linear_3200_1138" x1="95.1194" y1="368.695" x2="140.508" y2="368.695" gradientUnits="userSpaceOnUse">
<stop stop-color="#3445A1"/>
<stop offset="1" stop-color="#191E84"/>
</linearGradient>
<linearGradient id="paint45_linear_3200_1138" x1="160.288" y1="386.781" x2="211.081" y2="386.781" gradientUnits="userSpaceOnUse">
<stop stop-color="#3445A1"/>
<stop offset="1" stop-color="#191E84"/>
</linearGradient>
<linearGradient id="paint46_linear_3200_1138" x1="226.093" y1="396.105" x2="341.737" y2="396.105" gradientUnits="userSpaceOnUse">
<stop stop-color="#3445A1"/>
<stop offset="1" stop-color="#191E84"/>
</linearGradient>
<linearGradient id="paint47_linear_3200_1138" x1="3" y1="323.766" x2="375.999" y2="323.766" gradientUnits="userSpaceOnUse">
<stop stop-color="#9B1F27"/>
<stop offset="1" stop-color="#3D003E"/>
</linearGradient>
<linearGradient id="paint48_linear_3200_1138" x1="69.2285" y1="414.294" x2="69.2285" y2="207.414" gradientUnits="userSpaceOnUse">
<stop stop-color="#791130"/>
<stop offset="1" stop-color="#DD592D"/>
</linearGradient>
<linearGradient id="paint49_linear_3200_1138" x1="306.557" y1="414.296" x2="306.557" y2="207.416" gradientUnits="userSpaceOnUse">
<stop stop-color="#791130"/>
<stop offset="1" stop-color="#DD592D"/>
</linearGradient>
<linearGradient id="paint50_linear_3200_1138" x1="212.353" y1="462.687" x2="212.353" y2="153.514" gradientUnits="userSpaceOnUse">
<stop stop-color="#791130"/>
<stop offset="1" stop-color="#DD592D"/>
</linearGradient>
<linearGradient id="paint51_linear_3200_1138" x1="8.26379" y1="323.766" x2="376" y2="323.766" gradientUnits="userSpaceOnUse">
<stop stop-color="#3445A1"/>
<stop offset="1" stop-color="#191E84"/>
</linearGradient>
<linearGradient id="paint52_linear_3200_1138" x1="20.7321" y1="340.614" x2="142.204" y2="340.614" gradientUnits="userSpaceOnUse">
<stop stop-color="#3445A1"/>
<stop offset="1" stop-color="#191E84"/>
</linearGradient>
<linearGradient id="paint53_linear_3200_1138" x1="280.172" y1="339.52" x2="370.843" y2="339.52" gradientUnits="userSpaceOnUse">
<stop stop-color="#3445A1"/>
<stop offset="1" stop-color="#191E84"/>
</linearGradient>
<linearGradient id="paint54_linear_3200_1138" x1="194.869" y1="397.199" x2="199.849" y2="348.914" gradientUnits="userSpaceOnUse">
<stop stop-color="#3445A1"/>
<stop offset="1" stop-color="#191E84"/>
</linearGradient>
<linearGradient id="paint55_linear_3200_1138" x1="223.868" y1="316.948" x2="223.903" y2="316.772" gradientUnits="userSpaceOnUse">
<stop stop-color="#3445A1"/>
<stop offset="1" stop-color="#191E84"/>
</linearGradient>
<linearGradient id="paint56_linear_3200_1138" x1="231.885" y1="372.51" x2="236.159" y2="331.254" gradientUnits="userSpaceOnUse">
<stop stop-color="#3445A1"/>
<stop offset="1" stop-color="#191E84"/>
</linearGradient>
<linearGradient id="paint57_linear_3200_1138" x1="225.139" y1="318.926" x2="225.281" y2="317.549" gradientUnits="userSpaceOnUse">
<stop stop-color="#3445A1"/>
<stop offset="1" stop-color="#191E84"/>
</linearGradient>
<linearGradient id="paint58_linear_3200_1138" x1="189.5" y1="478.9" x2="189.5" y2="369.967" gradientUnits="userSpaceOnUse">
<stop stop-color="#3D56FD"/>
<stop offset="1"/>
</linearGradient>
<linearGradient id="paint59_linear_3200_1138" x1="158.982" y1="296.639" x2="237.397" y2="296.639" gradientUnits="userSpaceOnUse">
<stop stop-color="#B61922"/>
<stop offset="1" stop-color="#45003D"/>
</linearGradient>
<linearGradient id="paint60_linear_3200_1138" x1="198.614" y1="332.561" x2="198.614" y2="244.468" gradientUnits="userSpaceOnUse">
<stop stop-color="#8D092D"/>
<stop offset="1" stop-color="#FD5925"/>
</linearGradient>
<linearGradient id="paint61_linear_3200_1138" x1="235.914" y1="297.027" x2="220.655" y2="297.839" gradientUnits="userSpaceOnUse">
<stop stop-color="#F70715"/>
<stop offset="1" stop-color="#882785"/>
</linearGradient>
</defs>
</svg>
