<svg width="60" height="60" viewBox="0 0 60 60" fill="none" xmlns="http://www.w3.org/2000/svg">
<path d="M30 0C24.0666 0 18.2664 1.75947 13.3329 5.05591C8.39943 8.35235 4.55426 13.0377 2.28363 18.5195C0.0129985 24.0013 -0.581101 30.0333 0.576455 35.8527C1.73401 41.6721 4.59123 47.0176 8.78681 51.2132C12.9824 55.4088 18.3279 58.266 24.1473 59.4235C29.9667 60.5811 35.9987 59.987 41.4805 57.7164C46.9623 55.4457 51.6476 51.6006 54.9441 46.6671C58.2405 41.7336 60 35.9334 60 30C59.9916 22.0461 56.8282 14.4203 51.2039 8.79607C45.5797 3.1718 37.9539 0.00839948 30 0ZM31.1539 30C30.4692 30 29.8 29.797 29.2307 29.4166C28.6615 29.0363 28.2178 28.4956 27.9558 27.8631C27.6938 27.2306 27.6253 26.5346 27.7588 25.8631C27.8924 25.1917 28.2221 24.5749 28.7062 24.0908C29.1903 23.6067 29.8071 23.277 30.4785 23.1434C31.15 23.0099 31.846 23.0784 32.4785 23.3404C33.111 23.6024 33.6517 24.0461 34.032 24.6153C34.4124 25.1846 34.6154 25.8538 34.6154 26.5385C34.6154 27.4565 34.2507 28.337 33.6015 28.9861C32.9524 29.6353 32.0719 30 31.1539 30ZM36.9231 19.6154C36.9231 18.9308 37.1261 18.2615 37.5065 17.6923C37.8868 17.123 38.4274 16.6793 39.0599 16.4173C39.6925 16.1553 40.3885 16.0868 41.0599 16.2204C41.7314 16.3539 42.3482 16.6836 42.8323 17.1677C43.3164 17.6518 43.6461 18.2686 43.7796 18.9401C43.9132 19.6115 43.8447 20.3075 43.5827 20.9401C43.3207 21.5726 42.877 22.1132 42.3077 22.4935C41.7385 22.8739 41.0692 23.0769 40.3846 23.0769C39.4666 23.0769 38.5861 22.7122 37.9369 22.0631C37.2878 21.4139 36.9231 20.5334 36.9231 19.6154ZM42.6923 34.6154C42.0077 34.6154 41.3384 34.4124 40.7692 34.032C40.1999 33.6516 39.7563 33.111 39.4943 32.4785C39.2323 31.846 39.1637 31.15 39.2973 30.4785C39.4309 29.8071 39.7605 29.1903 40.2446 28.7062C40.7287 28.2221 41.3455 27.8924 42.017 27.7588C42.6885 27.6252 43.3845 27.6938 44.017 27.9558C44.6495 28.2178 45.1901 28.6615 45.5705 29.2307C45.9508 29.8 46.1538 30.4692 46.1538 31.1538C46.1538 32.0719 45.7892 32.9524 45.14 33.6015C44.4908 34.2507 43.6104 34.6154 42.6923 34.6154Z" fill="white"/>
</svg>
