<svg width="719" height="510" viewBox="0 0 719 510" fill="none" xmlns="http://www.w3.org/2000/svg">
<path d="M688 4.06494H34C17.4315 4.06494 4 17.4964 4 34.0649V477.065C4 493.633 17.4315 507.065 34 507.065H688C704.569 507.065 718 493.633 718 477.065V34.0649C718 17.4964 704.569 4.06494 688 4.06494Z" fill="#331630"/>
<g style="mix-blend-mode:screen" opacity="0.61">
<path fill-rule="evenodd" clip-rule="evenodd" d="M26 4C15.5066 4 7 12.5066 7 23V491C7 501.493 15.5066 510 26 510H349.328C358.169 510 365.86 503.906 367.729 495.264C384.043 419.815 393 337.653 393 251.676C393 166.008 384.878 90.9258 370.021 18.9309C368.219 10.1976 360.484 4 351.566 4H26Z" fill="url(#paint0_radial_4070_808)"/>
</g>
<path d="M305.052 151.523C305.527 151.753 306.074 151.502 306.275 150.959C306.476 150.416 306.257 149.789 305.782 149.559C305.307 149.329 304.76 149.58 304.559 150.123C304.358 150.666 304.577 151.293 305.052 151.523Z" fill="#FFA4E9"/>
<path d="M163.65 242.905C164.124 243.135 164.672 242.884 164.873 242.341C165.074 241.797 164.855 241.171 164.38 240.941C163.905 240.711 163.357 240.962 163.156 241.505C162.956 242.048 163.175 242.675 163.65 242.905Z" fill="#FFA4E9"/>
<path d="M260.9 479.588C261.631 479.943 262.471 479.557 262.781 478.731C263.091 477.896 262.754 476.935 262.032 476.579C261.302 476.224 260.462 476.611 260.152 477.436C259.841 478.272 260.179 479.233 260.9 479.588Z" fill="#FFA4E9"/>
<path d="M368.403 405.82C369.134 406.175 369.973 405.788 370.284 404.963C370.594 404.127 370.256 403.166 369.535 402.811C368.805 402.456 367.965 402.842 367.654 403.667C367.344 404.503 367.682 405.464 368.403 405.82Z" fill="#FFA4E9"/>
<path d="M7.56748 261.71C8.04222 261.94 8.59001 261.689 8.79086 261.146C8.99172 260.603 8.7726 259.976 8.29786 259.746C7.82311 259.516 7.27532 259.767 7.07447 260.31C6.87361 260.853 7.09273 261.48 7.56748 261.71Z" fill="#FFA4E9"/>
<path d="M274.238 41.4194C274.713 41.6493 275.261 41.3985 275.462 40.8553C275.663 40.312 275.443 39.6852 274.969 39.4553C274.494 39.2255 273.946 39.4762 273.745 40.0195C273.545 40.5627 273.764 41.1896 274.238 41.4194Z" fill="#FFA4E9"/>
<path d="M92.6847 253.969C93.1594 254.199 93.7072 253.948 93.908 253.405C94.1089 252.862 93.8898 252.235 93.415 252.005C92.9403 251.775 92.3925 252.026 92.1917 252.569C91.9908 253.113 92.2099 253.739 92.6847 253.969Z" fill="#FFA4E9"/>
<path d="M124.629 289.865C125.104 290.095 125.652 289.844 125.852 289.301C126.053 288.758 125.834 288.131 125.359 287.901C124.885 287.671 124.337 287.922 124.136 288.465C123.935 289.009 124.154 289.635 124.629 289.865Z" fill="#FFA4E9"/>
<path d="M11.7491 43.0488C12.2239 43.2787 12.7716 43.0279 12.9725 42.4847C13.1734 41.9414 12.9542 41.3146 12.4795 41.0847C12.0047 40.8549 11.457 41.1056 11.2561 41.6489C11.0553 42.1921 11.2744 42.819 11.7491 43.0488Z" fill="#FFA4E9"/>
<path d="M165.869 348.37C166.599 348.726 167.439 348.339 167.75 347.514C168.06 346.678 167.722 345.717 167.001 345.362C166.271 345.006 165.431 345.393 165.12 346.218C164.81 347.054 165.148 348.015 165.869 348.37Z" fill="#FFA4E9"/>
<path d="M61.8722 247.209C62.3469 247.439 62.8947 247.188 63.0955 246.645C63.2964 246.102 63.0773 245.475 62.6025 245.245C62.1278 245.015 61.58 245.266 61.3792 245.809C61.1783 246.352 61.3974 246.979 61.8722 247.209Z" fill="#FFA4E9"/>
<path d="M43.1456 287.672C43.6203 287.902 44.1681 287.651 44.369 287.108C44.5698 286.564 44.3507 285.938 43.876 285.708C43.4012 285.478 42.8534 285.729 42.6526 286.272C42.4517 286.815 42.6709 287.442 43.1456 287.672Z" fill="#FFA4E9"/>
<path d="M50.9884 311.585C51.4631 311.815 52.0109 311.565 52.2118 311.021C52.4126 310.478 52.1935 309.851 51.7188 309.621C51.244 309.392 50.6962 309.642 50.4954 310.186C50.2945 310.729 50.5136 311.356 50.9884 311.585Z" fill="#FFA4E9"/>
<g style="mix-blend-mode:soft-light">
<path d="M127.651 7.152C126.811 6.74455 125.843 7.18334 125.487 8.14449C125.131 9.10564 125.515 10.213 126.355 10.6205C127.195 11.0279 128.162 10.5891 128.518 9.628C128.874 8.66685 128.491 7.55944 127.651 7.152Z" fill="#FFA4E9"/>
</g>
<g style="mix-blend-mode:soft-light">
<path d="M436.949 453.574C437.789 453.982 438.757 453.543 439.113 452.582C439.469 451.62 439.086 450.513 438.246 450.106C437.406 449.698 436.438 450.137 436.082 451.098C435.726 452.059 436.109 453.167 436.949 453.574Z" fill="#FFA4E9"/>
</g>
<g style="mix-blend-mode:soft-light">
<path d="M397.71 188.13C398.997 188.757 400.485 188.078 401.042 186.605C401.59 185.132 400.996 183.429 399.709 182.791C398.422 182.165 396.934 182.844 396.377 184.317C395.829 185.79 396.422 187.493 397.71 188.13Z" fill="#FFA4E9"/>
</g>
<g style="mix-blend-mode:soft-light">
<path d="M38.7004 70.243C39.5403 70.6505 40.508 70.2117 40.8641 69.2506C41.2202 68.2894 40.8367 67.182 39.9968 66.7746C39.1568 66.3671 38.1891 66.8059 37.833 67.767C37.477 68.7282 37.8604 69.8356 38.7004 70.243Z" fill="#FFA4E9"/>
</g>
<g style="mix-blend-mode:soft-light">
<path d="M35.3039 257.991C36.1438 258.398 37.1116 257.959 37.4676 256.998C37.8237 256.037 37.4402 254.93 36.6003 254.522C35.7604 254.115 34.7926 254.553 34.4365 255.515C34.0805 256.476 34.4639 257.583 35.3039 257.991Z" fill="#FFA4E9"/>
</g>
<g style="mix-blend-mode:soft-light">
<path d="M266.844 47.9063C268.132 48.5332 269.62 47.8541 270.177 46.381C270.725 44.908 270.131 43.205 268.844 42.5678C267.557 41.9409 266.068 42.62 265.511 44.0931C264.964 45.5661 265.557 47.269 266.844 47.9063Z" fill="#FFA4E9"/>
</g>
<g style="mix-blend-mode:soft-light">
<path d="M261.019 479.912C261.859 480.32 262.826 479.881 263.182 478.92C263.539 477.959 263.155 476.851 262.315 476.444C261.475 476.037 260.507 476.475 260.151 477.436C259.795 478.398 260.179 479.505 261.019 479.912Z" fill="#FFA4E9"/>
</g>
<path style="mix-blend-mode:screen" opacity="0.2" fill-rule="evenodd" clip-rule="evenodd" d="M125.679 441.184C132.828 432.92 132.764 419.6 125.551 411.419C118.33 403.239 106.689 403.312 99.5405 411.566C92.3919 419.829 92.4558 433.15 99.6683 441.33C106.89 449.51 118.53 449.437 125.679 441.184Z" fill="url(#paint1_radial_4070_808)"/>
<path style="mix-blend-mode:screen" opacity="0.4" fill-rule="evenodd" clip-rule="evenodd" d="M377.724 415.024C392.834 397.556 392.715 369.39 377.45 352.1C362.185 334.81 337.571 334.945 322.462 352.413C307.352 369.881 307.48 398.047 322.735 415.337C338 432.627 362.614 432.492 377.724 415.024Z" fill="url(#paint2_radial_4070_808)"/>
<path style="mix-blend-mode:screen" opacity="0.2" fill-rule="evenodd" clip-rule="evenodd" d="M180.832 110.799C200.534 88.0244 200.379 51.2814 180.476 28.7257C160.573 6.18046 128.464 6.35807 108.753 29.1331C89.0505 51.9082 89.2057 88.6513 109.109 111.207C129.011 133.763 161.121 133.575 180.832 110.799Z" fill="url(#paint3_radial_4070_808)"/>
<path style="mix-blend-mode:screen" opacity="0.2" fill-rule="evenodd" clip-rule="evenodd" d="M194.288 148.66C204.139 137.272 204.057 118.896 194.106 107.623C184.154 96.3503 168.095 96.4444 158.244 107.832C148.393 119.219 148.475 137.596 158.427 148.869C168.378 160.141 184.437 160.047 194.288 148.66Z" fill="url(#paint4_radial_4070_808)"/>
<path style="mix-blend-mode:screen" opacity="0.2" fill-rule="evenodd" clip-rule="evenodd" d="M261.667 120.432C253.961 128.006 253.085 141.295 259.704 150.112C266.323 158.93 277.936 159.933 285.641 152.359C293.347 144.784 294.223 131.495 287.604 122.678C280.985 113.86 269.372 112.857 261.667 120.432Z" fill="url(#paint5_radial_4070_808)"/>
<path style="mix-blend-mode:screen" opacity="0.4" fill-rule="evenodd" clip-rule="evenodd" d="M33.4138 214.112C17.1263 230.128 15.2638 258.221 29.2689 276.859C43.2648 295.497 67.8147 297.628 84.1022 281.612C100.39 265.596 102.252 237.504 88.2471 218.866C74.2512 200.228 49.7013 198.097 33.4138 214.123V214.112Z" fill="url(#paint6_radial_4070_808)"/>
<path style="mix-blend-mode:screen" opacity="0.2" fill-rule="evenodd" clip-rule="evenodd" d="M285.003 510C286.436 494.632 282.547 478.658 273.052 466.017C254.801 441.706 222.774 438.937 201.538 459.822C188.401 472.734 182.475 491.675 184.164 510H285.003Z" fill="url(#paint7_radial_4070_808)"/>
<path style="mix-blend-mode:screen" opacity="0.61" fill-rule="evenodd" clip-rule="evenodd" d="M427.948 4C422.096 4 417.092 8.2162 416.159 13.9929C405.049 82.7549 399 156.712 399 233.745C399 327.473 407.949 416.644 424.086 497.444C425.199 503.018 430.109 507 435.793 507H706C712.627 507 718 501.627 718 495V16C718 9.37259 712.627 4 706 4H427.948Z" fill="url(#paint8_radial_4070_808)"/>
<path d="M391.996 136.271C391.476 136.5 390.876 136.25 390.656 135.709C390.436 135.168 390.676 134.543 391.196 134.314C391.716 134.085 392.316 134.335 392.536 134.876C392.756 135.418 392.516 136.042 391.996 136.271Z" fill="#A4F1FF"/>
<path d="M546.866 227.325C546.346 227.554 545.746 227.305 545.526 226.763C545.306 226.222 545.546 225.598 546.066 225.369C546.586 225.14 547.186 225.389 547.406 225.931C547.626 226.472 547.386 227.096 546.866 227.325Z" fill="#A4F1FF"/>
<path d="M440.346 463.119C439.546 463.473 438.626 463.088 438.286 462.266C437.946 461.433 438.316 460.476 439.106 460.122C439.906 459.768 440.826 460.153 441.166 460.975C441.506 461.808 441.136 462.766 440.346 463.119Z" fill="#A4F1FF"/>
<path d="M322.596 389.636C321.796 389.99 320.876 389.605 320.536 388.783C320.196 387.95 320.566 386.992 321.356 386.638C322.156 386.285 323.076 386.67 323.416 387.492C323.756 388.314 323.386 389.282 322.596 389.636Z" fill="#A4F1FF"/>
<path d="M717.836 246.06C717.316 246.289 716.716 246.039 716.496 245.498C716.276 244.957 716.516 244.332 717.036 244.103C717.556 243.874 718.156 244.124 718.376 244.666C718.596 245.207 718.356 245.831 717.836 246.06Z" fill="#A4F1FF"/>
<path d="M425.746 26.5861C425.226 26.8151 424.626 26.5653 424.406 26.0241C424.186 25.4828 424.426 24.8583 424.946 24.6293C425.466 24.4003 426.066 24.6501 426.286 25.1914C426.506 25.7326 426.266 26.3571 425.746 26.5861Z" fill="#A4F1FF"/>
<path d="M624.605 238.348C624.085 238.577 623.485 238.327 623.265 237.786C623.045 237.245 623.285 236.62 623.805 236.391C624.325 236.162 624.925 236.412 625.145 236.953C625.365 237.494 625.125 238.119 624.605 238.348Z" fill="#A4F1FF"/>
<path d="M589.605 274.101C589.085 274.33 588.485 274.08 588.265 273.539C588.045 272.998 588.285 272.373 588.805 272.144C589.325 271.915 589.925 272.165 590.145 272.707C590.365 273.248 590.125 273.872 589.605 274.101Z" fill="#A4F1FF"/>
<path d="M713.256 28.2102C712.736 28.4391 712.136 28.1893 711.916 27.6481C711.696 27.1069 711.936 26.4823 712.456 26.2534C712.976 26.0244 713.575 26.2742 713.795 26.8154C714.015 27.3567 713.776 27.9812 713.256 28.2102Z" fill="#A4F1FF"/>
<path d="M544.445 332.399C543.645 332.753 542.725 332.368 542.385 331.546C542.045 330.713 542.415 329.755 543.205 329.402C544.005 329.048 544.925 329.433 545.265 330.255C545.605 331.088 545.235 332.045 544.445 332.399Z" fill="#A4F1FF"/>
<path d="M658.355 231.603C657.835 231.832 657.235 231.582 657.015 231.041C656.795 230.5 657.035 229.875 657.555 229.646C658.075 229.417 658.675 229.667 658.895 230.208C659.115 230.75 658.875 231.374 658.355 231.603Z" fill="#A4F1FF"/>
<path d="M678.866 271.915C678.346 272.144 677.746 271.894 677.526 271.353C677.306 270.812 677.546 270.187 678.066 269.958C678.586 269.729 679.186 269.979 679.406 270.52C679.626 271.062 679.386 271.686 678.866 271.915Z" fill="#A4F1FF"/>
<path d="M670.265 295.751C669.745 295.98 669.145 295.73 668.925 295.189C668.705 294.647 668.945 294.023 669.465 293.794C669.985 293.565 670.585 293.815 670.805 294.356C671.025 294.897 670.785 295.522 670.265 295.751Z" fill="#A4F1FF"/>
<g style="mix-blend-mode:soft-light">
<path d="M247.515 437.213C246.595 437.618 245.535 437.181 245.145 436.224C244.755 435.266 245.175 434.163 246.095 433.757C247.015 433.351 248.075 433.788 248.465 434.746C248.855 435.703 248.435 436.807 247.515 437.213Z" fill="#A4F1FF"/>
</g>
<g style="mix-blend-mode:soft-light">
<path d="M290.495 172.743C289.085 173.368 287.455 172.691 286.845 171.223C286.245 169.756 286.895 168.059 288.305 167.424C289.715 166.8 291.345 167.476 291.955 168.944C292.555 170.412 291.905 172.108 290.495 172.743Z" fill="#A4F1FF"/>
</g>
<g style="mix-blend-mode:soft-light">
<path d="M683.735 55.3029C682.815 55.7088 681.755 55.2716 681.365 54.3141C680.975 53.3565 681.395 52.2532 682.315 51.8472C683.235 51.4413 684.295 51.8785 684.685 52.836C685.075 53.7936 684.655 54.8969 683.735 55.3029Z" fill="#A4F1FF"/>
</g>
<g style="mix-blend-mode:soft-light">
<path d="M687.445 242.355C686.525 242.761 685.465 242.323 685.075 241.366C684.685 240.408 685.105 239.305 686.025 238.899C686.945 238.493 688.005 238.93 688.395 239.888C688.785 240.845 688.365 241.949 687.445 242.355Z" fill="#A4F1FF"/>
</g>
<g style="mix-blend-mode:soft-light">
<path d="M433.846 33.0502C432.436 33.6747 430.806 32.9982 430.196 31.5306C429.596 30.063 430.246 28.3664 431.656 27.7314C433.066 27.1069 434.696 27.7835 435.306 29.2511C435.906 30.7187 435.256 32.4153 433.846 33.0502Z" fill="#A4F1FF"/>
</g>
<g style="mix-blend-mode:soft-light">
<path d="M440.225 463.453C439.305 463.859 438.245 463.422 437.855 462.464C437.465 461.507 437.885 460.404 438.805 459.998C439.725 459.592 440.785 460.029 441.175 460.986C441.565 461.944 441.145 463.047 440.225 463.453Z" fill="#A4F1FF"/>
</g>
<path style="mix-blend-mode:screen" opacity="0.2" fill-rule="evenodd" clip-rule="evenodd" d="M588.465 424.869C580.635 416.635 580.705 403.364 588.605 395.215C596.515 387.065 609.265 387.138 617.095 395.36C624.925 403.593 624.855 416.864 616.955 425.014C609.045 433.164 596.295 433.091 588.465 424.869Z" fill="url(#paint9_radial_4070_808)"/>
<path style="mix-blend-mode:screen" opacity="0.4" fill-rule="evenodd" clip-rule="evenodd" d="M312.395 398.795C295.845 381.392 295.975 353.331 312.695 336.105C329.415 318.879 356.375 319.014 372.925 336.417C389.475 353.82 389.335 381.881 372.625 399.108C355.905 416.334 328.945 416.198 312.395 398.795Z" fill="url(#paint10_radial_4070_808)"/>
<path style="mix-blend-mode:screen" opacity="0.2" fill-rule="evenodd" clip-rule="evenodd" d="M593.675 4H541.405C536.755 6.58131 532.385 9.88082 528.445 13.9401C506.645 36.4017 506.465 73.0189 528.055 95.7095C549.635 118.4 584.815 118.587 606.615 96.1154C628.415 73.6538 628.595 37.0367 607.005 14.3461C602.975 10.1098 598.475 6.66458 593.675 4Z" fill="url(#paint11_radial_4070_808)"/>
<path style="mix-blend-mode:screen" opacity="0.2" fill-rule="evenodd" clip-rule="evenodd" d="M513.315 133.43C502.525 122.084 502.615 103.776 513.515 92.5449C524.415 81.3141 542.005 81.4078 552.795 92.7531C563.585 104.098 563.495 122.407 552.595 133.638C541.695 144.869 524.105 144.775 513.315 133.43Z" fill="url(#paint12_radial_4070_808)"/>
<path style="mix-blend-mode:screen" opacity="0.2" fill-rule="evenodd" clip-rule="evenodd" d="M439.515 105.306C447.955 112.852 448.915 126.092 441.665 134.877C434.415 143.661 421.695 144.661 413.255 137.114C404.815 129.568 403.855 116.329 411.105 107.544C418.355 98.759 431.075 97.7598 439.515 105.306Z" fill="url(#paint13_radial_4070_808)"/>
<path style="mix-blend-mode:screen" opacity="0.4" fill-rule="evenodd" clip-rule="evenodd" d="M689.515 198.629C707.355 214.585 709.395 242.574 694.055 261.142C678.725 279.711 651.835 281.835 633.995 265.868C616.155 249.912 614.125 221.923 629.455 203.354C644.785 184.785 671.675 182.662 689.515 198.629Z" fill="url(#paint14_radial_4070_808)"/>
<path style="mix-blend-mode:screen" opacity="0.2" fill-rule="evenodd" clip-rule="evenodd" d="M520.266 509.99C529.526 487.414 524.205 460.279 505.375 443.438C482.105 422.631 447.035 425.39 427.045 449.61C412.795 466.878 410.056 490.381 418.086 510.001H520.276L520.266 509.99Z" fill="url(#paint15_radial_4070_808)"/>
<rect x="2.5" y="2.5" width="714" height="505" rx="25.5" stroke="#DCD3C2" stroke-width="5"/>
<defs>
<radialGradient id="paint0_radial_4070_808" cx="0" cy="0" r="1" gradientUnits="userSpaceOnUse" gradientTransform="translate(26.57 251.676) scale(366.436 666.159)">
<stop stop-color="#7300FF"/>
<stop offset="0.01" stop-color="#7000FA"/>
<stop offset="0.23" stop-color="#4F00AF"/>
<stop offset="0.44" stop-color="#320070"/>
<stop offset="0.62" stop-color="#1C0040"/>
<stop offset="0.78" stop-color="#0D001D"/>
<stop offset="0.91" stop-color="#030007"/>
<stop offset="1"/>
</radialGradient>
<radialGradient id="paint1_radial_4070_808" cx="0" cy="0" r="1" gradientUnits="userSpaceOnUse" gradientTransform="translate(112.491 426.32) rotate(48.5626) scale(19.7551 19.6035)">
<stop offset="0.02" stop-color="#FF34DD"/>
<stop offset="0.33" stop-color="#B2249A"/>
<stop offset="1"/>
</radialGradient>
<radialGradient id="paint2_radial_4070_808" cx="0" cy="0" r="1" gradientUnits="userSpaceOnUse" gradientTransform="translate(349.972 383.671) rotate(48.5626) scale(41.7553 41.4349)">
<stop offset="0.02" stop-color="#FF34DD"/>
<stop offset="0.33" stop-color="#B2249A"/>
<stop offset="1"/>
</radialGradient>
<radialGradient id="paint3_radial_4070_808" cx="0" cy="0" r="1" gradientUnits="userSpaceOnUse" gradientTransform="translate(144.678 69.9124) rotate(48.5626) scale(54.4612 54.0434)">
<stop offset="0.46" stop-color="#953447"/>
<stop offset="0.69" stop-color="#933346"/>
<stop offset="0.77" stop-color="#8C3042"/>
<stop offset="0.82" stop-color="#802C3D"/>
<stop offset="0.87" stop-color="#6F2635"/>
<stop offset="0.91" stop-color="#591F2A"/>
<stop offset="0.94" stop-color="#3E151D"/>
<stop offset="0.98" stop-color="#1E0A0E"/>
<stop offset="1"/>
</radialGradient>
<radialGradient id="paint4_radial_4070_808" cx="0" cy="0" r="1" gradientUnits="userSpaceOnUse" gradientTransform="translate(176.155 128.194) rotate(48.5626) scale(27.2257 27.0169)">
<stop offset="0.46" stop-color="#FF34A0"/>
<stop offset="0.66" stop-color="#FD339E"/>
<stop offset="0.74" stop-color="#F6329A"/>
<stop offset="0.79" stop-color="#EA2F93"/>
<stop offset="0.83" stop-color="#D92C88"/>
<stop offset="0.86" stop-color="#C3277A"/>
<stop offset="0.9" stop-color="#A82269"/>
<stop offset="0.92" stop-color="#871B55"/>
<stop offset="0.95" stop-color="#62143D"/>
<stop offset="0.97" stop-color="#370B22"/>
<stop offset="1"/>
</radialGradient>
<radialGradient id="paint5_radial_4070_808" cx="0" cy="0" r="1" gradientUnits="userSpaceOnUse" gradientTransform="translate(273.581 136.232) rotate(-126.911) scale(19.9664 19.396)">
<stop offset="0.02" stop-color="#FF34DD"/>
<stop offset="0.33" stop-color="#B2249A"/>
<stop offset="1"/>
</radialGradient>
<radialGradient id="paint6_radial_4070_808" cx="0" cy="0" r="1" gradientUnits="userSpaceOnUse" gradientTransform="translate(58.695 247.696) rotate(-126.911) scale(42.202 40.9963)">
<stop offset="0.02" stop-color="#FF34DD"/>
<stop offset="0.33" stop-color="#B2249A"/>
<stop offset="1"/>
</radialGradient>
<radialGradient id="paint7_radial_4070_808" cx="0" cy="0" r="1" gradientUnits="userSpaceOnUse" gradientTransform="translate(234.531 503.668) rotate(-126.911) scale(55.044 53.4713)">
<stop offset="0.46" stop-color="#953447"/>
<stop offset="0.69" stop-color="#933346"/>
<stop offset="0.77" stop-color="#8C3042"/>
<stop offset="0.82" stop-color="#802C3D"/>
<stop offset="0.87" stop-color="#6F2635"/>
<stop offset="0.91" stop-color="#591F2A"/>
<stop offset="0.94" stop-color="#3E151D"/>
<stop offset="0.98" stop-color="#1E0A0E"/>
<stop offset="1"/>
</radialGradient>
<radialGradient id="paint8_radial_4070_808" cx="0" cy="0" r="1" gradientUnits="userSpaceOnUse" gradientTransform="translate(703.312 233.745) rotate(180) scale(304.312 662.21)">
<stop stop-color="#00F2FF"/>
<stop offset="0.01" stop-color="#00EDFA"/>
<stop offset="0.23" stop-color="#00A6AF"/>
<stop offset="0.44" stop-color="#006B70"/>
<stop offset="0.62" stop-color="#003C40"/>
<stop offset="0.78" stop-color="#001B1D"/>
<stop offset="0.91" stop-color="#000707"/>
<stop offset="1"/>
</radialGradient>
<radialGradient id="paint9_radial_4070_808" cx="0" cy="0" r="1" gradientUnits="userSpaceOnUse" gradientTransform="translate(602.832 409.882) rotate(134.143) scale(20.5615 20.5534)">
<stop offset="0.02" stop-color="#34EEFF"/>
<stop offset="0.33" stop-color="#24A6B2"/>
<stop offset="1"/>
</radialGradient>
<radialGradient id="paint10_radial_4070_808" cx="0" cy="0" r="1" gradientUnits="userSpaceOnUse" gradientTransform="translate(342.708 367.384) rotate(134.143) scale(43.4598 43.4426)">
<stop offset="0.02" stop-color="#34EEFF"/>
<stop offset="0.33" stop-color="#24A6B2"/>
<stop offset="1"/>
</radialGradient>
<radialGradient id="paint11_radial_4070_808" cx="0" cy="0" r="1" gradientUnits="userSpaceOnUse" gradientTransform="translate(567.563 54.7957) rotate(134.143) scale(56.6845 56.6621)">
<stop offset="0.46" stop-color="#344F95"/>
<stop offset="0.69" stop-color="#334E93"/>
<stop offset="0.77" stop-color="#304A8C"/>
<stop offset="0.82" stop-color="#2C4480"/>
<stop offset="0.87" stop-color="#263B6F"/>
<stop offset="0.91" stop-color="#1F2F59"/>
<stop offset="0.94" stop-color="#15213E"/>
<stop offset="0.98" stop-color="#0A101E"/>
<stop offset="1"/>
</radialGradient>
<radialGradient id="paint12_radial_4070_808" cx="0" cy="0" r="1" gradientUnits="userSpaceOnUse" gradientTransform="translate(533.085 112.861) rotate(134.143) scale(28.3372 28.3259)">
<stop offset="0.46" stop-color="#34B1FF"/>
<stop offset="0.66" stop-color="#33AFFD"/>
<stop offset="0.74" stop-color="#32AAF6"/>
<stop offset="0.79" stop-color="#2FA2EA"/>
<stop offset="0.83" stop-color="#2C97D9"/>
<stop offset="0.86" stop-color="#2787C3"/>
<stop offset="0.9" stop-color="#2274A8"/>
<stop offset="0.92" stop-color="#1B5E87"/>
<stop offset="0.95" stop-color="#144462"/>
<stop offset="0.97" stop-color="#0B2637"/>
<stop offset="1"/>
</radialGradient>
<radialGradient id="paint13_radial_4070_808" cx="0" cy="0" r="1" gradientUnits="userSpaceOnUse" gradientTransform="translate(426.39 121.309) rotate(-50.4503) scale(20.6274 20.4877)">
<stop offset="0.02" stop-color="#34EEFF"/>
<stop offset="0.33" stop-color="#24A6B2"/>
<stop offset="1"/>
</radialGradient>
<radialGradient id="paint14_radial_4070_808" cx="0" cy="0" r="1" gradientUnits="userSpaceOnUse" gradientTransform="translate(661.759 232.375) rotate(-50.4503) scale(43.5991 43.3039)">
<stop offset="0.02" stop-color="#34EEFF"/>
<stop offset="0.33" stop-color="#24A6B2"/>
<stop offset="1"/>
</radialGradient>
<radialGradient id="paint15_radial_4070_808" cx="0" cy="0" r="1" gradientUnits="userSpaceOnUse" gradientTransform="translate(469.162 487.384) rotate(-50.4504) scale(56.8662 56.4811)">
<stop offset="0.46" stop-color="#344F95"/>
<stop offset="0.69" stop-color="#334E93"/>
<stop offset="0.77" stop-color="#304A8C"/>
<stop offset="0.82" stop-color="#2C4480"/>
<stop offset="0.87" stop-color="#263B6F"/>
<stop offset="0.91" stop-color="#1F2F59"/>
<stop offset="0.94" stop-color="#15213E"/>
<stop offset="0.98" stop-color="#0A101E"/>
<stop offset="1"/>
</radialGradient>
</defs>
</svg>
