<svg width="62" height="56" viewBox="0 0 62 56" fill="none" xmlns="http://www.w3.org/2000/svg">
<path d="M13.1889 0L8.81235 18.5806H11.2522L15.086 2.32258H17.4837L14.7698 18.5806H17.1807L18.5113 10.5806H29.815V18.5806H32.1864V10.5806H43.49L44.8206 18.5806H47.2315L44.5176 2.32258H46.9153L50.7491 18.5806H53.1863L48.8124 0H13.1889ZM19.8946 2.32258H42.1067L43.1079 8.25806H18.8934L19.8946 2.32258ZM6.89152 20.9032V24.7742H55.1098V20.9032H6.89152ZM6.80721 27.0968L0 56H62L55.1888 27.0968H52.7516L59.0226 53.6774H53.0941L48.6543 27.0968H46.2434L48.1142 38.3226H32.1864V27.0968H29.815V38.3226H13.8871L15.7579 27.0968H13.347L8.91379 53.6774H2.98005L9.24579 27.0968H6.80721ZM13.4919 40.6452H48.5094L50.6832 53.6774H11.3181L13.4919 40.6452Z" fill="white"/>
</svg>
