<svg width="391" height="159" viewBox="0 0 391 159" fill="none" xmlns="http://www.w3.org/2000/svg">
<g filter="url(#filter0_d_2518_73)">
<path d="M29.8354 82.1668C9.06957 53.6265 32.3317 14.0545 67.3688 18.3176L332.739 50.6063C372.324 55.4228 382.667 108.052 347.848 127.49C340.151 131.787 331.278 133.502 322.534 132.383L57.367 98.4651C46.3374 97.0543 36.3775 91.1582 29.8354 82.1668Z" fill="#3A0CA3"/>
</g>
<path d="M50.9331 41.4249C57.01 37.9446 63.9205 36.1864 70.9217 36.3394L320.48 41.7942C329.65 41.9947 338.424 45.5723 345.119 51.8414C369.678 74.8359 353.572 116.028 319.93 116.266L76.9079 117.987C66.1836 118.063 55.8289 114.073 47.9292 106.819L44.0239 103.234C24.8194 85.6004 28.3091 54.3823 50.9331 41.4249Z" fill="#8151EE"/>
<path d="M259.509 91.7216V78.8576L240.213 58.5536H254.229L265.461 70.7456L276.885 58.5536H289.653L270.837 78.8576V91.7216H259.509Z" fill="white"/>
<path d="M228.801 58.8896L246.657 92.0576H235.377L232.257 86.0096H208.305L205.185 92.0576H193.953L211.761 58.8896H228.801ZM212.193 78.5216H228.417L222.081 66.3296H218.481L212.193 78.5216Z" fill="white"/>
<path d="M156.523 58.5536H167.947V83.8016H193.435V92.1536H156.523V58.5536Z" fill="white"/>
<path d="M135.557 80.9696H119.525V92.1536H108.101V58.5536H135.557C146.933 58.5536 152.597 62.2016 152.597 69.4976V69.9296C152.597 77.2736 146.933 80.9696 135.557 80.9696ZM119.525 66.1856V73.4336H135.365C138.869 73.4336 140.645 72.2336 140.645 69.8816V69.7376C140.645 67.3856 138.869 66.1856 135.365 66.1856H119.525Z" fill="white"/>
<defs>
<filter id="filter0_d_2518_73" x="0" y="0" width="391.001" height="158.717" filterUnits="userSpaceOnUse" color-interpolation-filters="sRGB">
<feFlood flood-opacity="0" result="BackgroundImageFix"/>
<feColorMatrix in="SourceAlpha" type="matrix" values="0 0 0 0 0 0 0 0 0 0 0 0 0 0 0 0 0 0 127 0" result="hardAlpha"/>
<feOffset dy="4"/>
<feGaussianBlur stdDeviation="11"/>
<feComposite in2="hardAlpha" operator="out"/>
<feColorMatrix type="matrix" values="0 0 0 0 0 0 0 0 0 0 0 0 0 0 0 0 0 0 0.6 0"/>
<feBlend mode="normal" in2="BackgroundImageFix" result="effect1_dropShadow_2518_73"/>
<feBlend mode="normal" in="SourceGraphic" in2="effect1_dropShadow_2518_73" result="shape"/>
</filter>
</defs>
</svg>
