<svg width="56" height="56" viewBox="0 0 56 56" fill="none" xmlns="http://www.w3.org/2000/svg">
<path d="M55.6895 44.3464C55.64 43.7493 55.4609 43.1701 55.1648 42.6492C54.8688 42.1283 54.4628 41.6781 53.9751 41.33L44.1782 34.3304L48.561 29.9605C49.7568 28.7748 50.6413 27.3122 51.1361 25.7026C51.6308 24.0929 51.7204 22.386 51.3969 20.7334C50.1971 14.8429 46.967 9.56076 42.2704 5.80861C37.5006 1.96892 31.5398 -0.0845967 25.4172 0.00267107C18.7121 0.116055 12.3133 2.83012 7.57137 7.57203C2.82946 12.3139 0.115395 18.7127 0.00201091 25.4178C-0.0735421 31.5328 1.98197 37.4833 5.81568 42.2478C9.56784 46.9445 14.85 50.1745 20.7404 51.3744C22.3931 51.6976 24.0999 51.6079 25.7095 51.1132C27.3192 50.6185 28.7818 49.7341 29.9676 48.5385L34.3375 44.1556L41.3371 53.9525C41.682 54.4436 42.1299 54.8534 42.6496 55.1536C43.1692 55.4537 43.7481 55.6368 44.3458 55.6902C44.4592 55.6902 44.5726 55.7031 44.6861 55.7031C45.7799 55.7026 46.8287 55.2676 47.6019 54.4939L54.4701 47.6258C54.9012 47.202 55.234 46.6885 55.4447 46.1218C55.6554 45.5551 55.739 44.949 55.6895 44.3464ZM44.7067 51.5652L36.2943 39.7857C36.1201 39.5421 35.895 39.3393 35.6345 39.1915C35.3741 39.0437 35.0845 38.9544 34.7861 38.9298H34.6159C34.345 38.9296 34.0767 38.9827 33.8263 39.0863C33.5759 39.1898 33.3484 39.3416 33.1567 39.5331L27.0646 45.6252C26.3586 46.3417 25.4864 46.8727 24.5257 47.1709C23.5649 47.4691 22.5454 47.5253 21.5577 47.3345C20.4783 47.1188 19.4179 46.817 18.3866 46.4321L46.4366 18.3821C46.8209 19.4136 47.1226 20.474 47.339 21.5532C47.53 22.5409 47.474 23.5605 47.1757 24.5213C46.8775 25.482 46.3464 26.3542 45.6297 27.0601L39.5247 33.1445C39.3126 33.3562 39.1492 33.6115 39.0459 33.8928C38.9425 34.174 38.9017 34.4744 38.9263 34.773C38.9508 35.0716 39.0401 35.3613 39.188 35.6219C39.3358 35.8825 39.5387 36.1078 39.7825 36.282L51.5645 44.697L44.7067 51.5652Z" fill="white"/>
</svg>
