<svg width="720" height="760" viewBox="0 0 249 352" fill="none" xmlns="http://www.w3.org/2000/svg">
<rect x="11.5" y="12.5" width="226" height="327" rx="10.5" fill="#018E3A" stroke="#DCD3C2"/>
<rect x="12" y="84" width="225" height="40" fill="#016B2D"/>
<rect x="12" y="156" width="225" height="39" fill="#016B2D"/>
<rect x="12" y="227" width="225" height="40" fill="#016B2D"/>
<path d="M12 299H237V328C237 333.523 232.523 338 227 338H22C16.4772 338 12 333.523 12 328V299Z" fill="#016B2D"/>
<path d="M12 52H237V23C237 17.4772 232.523 13 227 13H22C16.4772 13 12 17.4772 12 23V52Z" fill="#016B2D"/>
<line x1="12" y1="175.5" x2="237" y2="175.5" stroke="white" stroke-opacity="0.8"/>
<circle cx="125" cy="104" r="3" fill="#D9D9D9"/>
<circle cx="125" cy="247" r="3" fill="#D9D9D9"/>
<path d="M220.222 340.027C219.806 337.68 219.976 335.266 220.716 333C221.456 330.734 222.743 328.686 224.463 327.035C226.183 325.385 228.284 324.185 230.579 323.54C232.874 322.896 235.292 322.827 237.62 323.34L237.414 324.274C235.24 323.795 232.981 323.86 230.838 324.462C228.694 325.064 226.732 326.185 225.125 327.726C223.519 329.267 222.317 331.181 221.626 333.297C220.935 335.414 220.776 337.668 221.164 339.86L220.222 340.027Z" fill="#DCD3C2"/>
<path d="M59.5 12.5H189.5V32C189.5 47.7401 176.74 60.5 161 60.5H88C72.2599 60.5 59.5 47.7401 59.5 32V12.5Z" fill="#018E3A" stroke="#DCD3C2"/>
<path d="M59.5 339.5H189.5V320C189.5 304.26 176.74 291.5 161 291.5H88C72.2599 291.5 59.5 304.26 59.5 320V339.5Z" fill="#018E3A" stroke="#DCD3C2"/>
<path d="M98.5 339.5H150.5V339C150.5 335.41 147.59 332.5 144 332.5H105C101.41 332.5 98.5 335.41 98.5 339V339.5Z" fill="#018E3A" stroke="#DCD3C2"/>
<path d="M220.222 11.9728C219.806 14.3201 219.976 16.7336 220.716 18.9997C221.456 21.2657 222.743 23.3145 224.463 24.9645C226.183 26.6146 228.284 27.8151 230.579 28.4597C232.874 29.1044 235.292 29.1733 237.62 28.6603L237.414 27.7257C235.24 28.2048 232.981 28.1404 230.838 27.5383C228.694 26.9362 226.732 25.815 225.125 24.2738C223.519 22.7327 222.317 20.8192 221.626 18.7027C220.935 16.5862 220.776 14.332 221.164 12.1396L220.222 11.9728Z" fill="#DCD3C2"/>
<path d="M28.7781 340.027C29.1935 337.68 29.0239 335.266 28.2842 333C27.5444 330.734 26.2574 328.686 24.5371 327.035C22.8168 325.385 20.7162 324.185 18.4212 323.54C16.1263 322.896 13.7078 322.827 11.3799 323.34L11.5859 324.274C13.7601 323.795 16.019 323.86 18.1624 324.462C20.3059 325.064 22.2678 326.185 23.8746 327.726C25.4814 329.267 26.6834 331.181 27.3743 333.297C28.0653 335.414 28.2237 337.668 27.8357 339.86L28.7781 340.027Z" fill="#DCD3C2"/>
<path d="M28.7781 11.9728C29.1935 14.3201 29.0239 16.7336 28.2842 18.9997C27.5444 21.2657 26.2574 23.3145 24.5371 24.9645C22.8168 26.6146 20.7162 27.8151 18.4212 28.4597C16.1263 29.1044 13.7078 29.1733 11.3799 28.6603L11.5859 27.7257C13.7601 28.2048 16.019 28.1404 18.1624 27.5383C20.3059 26.9362 22.2678 25.815 23.8746 24.2738C25.4814 22.7327 26.6834 20.8192 27.3743 18.7027C28.0653 16.5862 28.2237 14.332 27.8357 12.1396L28.7781 11.9728Z" fill="#DCD3C2"/>
<circle cx="124.5" cy="175.5" r="32.5" fill="#018E3A"/>
<path d="M158 175.5C158 194.002 143.002 209 124.5 209C105.998 209 91 194.002 91 175.5C91 156.998 105.998 142 124.5 142C143.002 142 158 156.998 158 175.5ZM92.5226 175.5C92.5226 193.161 106.839 207.477 124.5 207.477C142.161 207.477 156.477 193.161 156.477 175.5C156.477 157.839 142.161 143.523 124.5 143.523C106.839 143.523 92.5226 157.839 92.5226 175.5Z" fill="white" fill-opacity="0.8"/>
</svg>
