<svg width="31" height="31" viewBox="0 0 31 31" fill="none" xmlns="http://www.w3.org/2000/svg">
<g clip-path="url(#clip0_3202_64)" filter="url(#filter0_d_3202_64)">
<path d="M5.43598 17.6907C4.96954 16.5949 4.50185 15.4965 4.04295 14.4183C6.81266 12.5831 6.81643 10.2768 4.00146 8.76906C4.44527 7.66693 4.89536 6.54842 5.34546 5.42739C8.15791 6.59754 10.4888 4.18796 9.31457 1.42695C10.4109 0.958384 11.5097 0.491078 12.6563 0.00235968C13.212 1.31233 14.0456 2.14491 15.4524 2.14239C16.8291 2.13987 17.6916 1.38916 18.2485 -0.00141907C19.3775 0.459589 20.4952 0.916817 21.6544 1.39168C21.0509 2.81375 21.154 4.04058 22.2654 5.01802C23.2046 5.84305 24.2883 5.91359 25.572 5.32788C26.0422 6.44891 26.5099 7.56238 26.9989 8.7275C25.6851 9.28171 24.8918 10.1345 24.8868 11.4986C24.8818 12.864 25.6449 13.7369 26.9776 14.2961C26.5049 15.4323 26.046 16.5357 25.5959 17.6189C22.449 16.8959 20.7278 18.6039 21.6318 21.5866C20.5468 22.0438 19.4479 22.5061 18.2963 22.991C17.7406 21.7214 16.8819 20.948 15.5593 20.9392C14.2354 20.9316 13.3352 21.6407 12.772 22.9998C11.638 22.5388 10.5215 22.0841 9.40761 21.6307C10.4813 18.7349 8.03847 16.61 5.43472 17.6894L5.43598 17.6907ZM9.88788 11.4809C9.87656 14.5682 12.4149 17.105 15.5002 17.0924C18.5729 17.0798 21.0698 14.5846 21.0811 11.5137C21.0937 8.43023 18.5515 5.88587 15.47 5.89721C12.4086 5.90855 9.89793 8.42016 9.88662 11.4809H9.88788Z" fill="white"/>
</g>
<defs>
<filter id="filter0_d_3202_64" x="0" y="0" width="31" height="31" filterUnits="userSpaceOnUse" color-interpolation-filters="sRGB">
<feFlood flood-opacity="0" result="BackgroundImageFix"/>
<feColorMatrix in="SourceAlpha" type="matrix" values="0 0 0 0 0 0 0 0 0 0 0 0 0 0 0 0 0 0 127 0" result="hardAlpha"/>
<feOffset dy="4"/>
<feGaussianBlur stdDeviation="2"/>
<feComposite in2="hardAlpha" operator="out"/>
<feColorMatrix type="matrix" values="0 0 0 0 0 0 0 0 0 0 0 0 0 0 0 0 0 0 0.6 0"/>
<feBlend mode="normal" in2="BackgroundImageFix" result="effect1_dropShadow_3202_64"/>
<feBlend mode="normal" in="SourceGraphic" in2="effect1_dropShadow_3202_64" result="shape"/>
</filter>
<clipPath id="clip0_3202_64">
<rect width="23" height="23" fill="white" transform="translate(4)"/>
</clipPath>
</defs>
</svg>
