<svg width="91" height="92" viewBox="0 0 91 92" fill="none" xmlns="http://www.w3.org/2000/svg">
<path d="M51.6008 10.4825C51.5987 13.1153 50.6051 15.6507 48.8179 17.584C47.0308 19.5173 44.5811 20.7066 41.9566 20.9152C39.3321 21.1238 36.7253 20.3364 34.6552 18.7097C32.585 17.083 31.2035 14.7364 30.7855 12.137C30.3675 9.53762 30.9437 6.87616 32.3995 4.68248C33.8553 2.48881 36.0839 0.923837 38.6414 0.299139C41.199 -0.325558 43.8981 0.0358407 46.2012 1.31138C48.5044 2.58693 50.2427 4.68305 51.0701 7.18244V7.18576L51.1298 7.36818C51.4394 8.35655 51.5964 9.39467 51.6008 10.4825Z" fill="white"/>
<path d="M54.9173 10.4826C54.9185 13.4927 53.9349 16.4206 52.1164 18.8195C50.298 21.2183 47.7446 22.9562 44.8459 23.7681C41.9473 24.5799 38.8627 24.4211 36.0628 23.3158C33.2629 22.2105 30.9015 20.2195 29.339 17.6466C24.7919 22.5453 22.4602 27.2484 21.6012 31.6264C19.9926 39.8186 23.7239 46.1037 27.684 50.621C25.9573 50.6635 24.2691 51.1403 22.7753 52.0074C19.3326 47.6294 16.4935 41.8318 17.933 34.5053C19.3175 28.6356 22.4381 23.319 26.888 19.2485C27.5956 18.5454 28.3341 17.8754 29.1036 17.2386C27.9019 15.1072 27.2916 12.6935 27.3358 10.2471C25.5005 11.5339 23.7924 12.9712 22.2115 14.5588C16.8241 19.5587 13.0629 26.0619 11.4157 33.225C9.45886 43.1883 13.3924 50.8864 17.734 56.3257L2.6265 70.1463L2.57343 70.1994C1.60128 71.1534 0.869935 72.3249 0.439731 73.6173C0.00952741 74.9096 -0.107198 76.2857 0.0991858 77.6321C0.440804 80.093 1.68788 82.365 3.21355 84.1958L3.25003 84.2389L5.62477 86.8955L5.71101 86.9785C7.64795 88.8557 10.1885 90.3117 12.8187 90.859C15.4687 91.4062 18.6328 91.0812 21.0109 88.7031L21.0905 88.6235L34.5761 73.1015C39.3023 76.7929 45.3885 80.0234 52.7747 80.0234C55.0036 80.0179 57.2219 79.7167 59.3716 79.1279C64.6265 77.5898 69.4634 74.8782 73.5172 71.1977C74.9279 70.2027 76.2767 69.1314 77.5636 67.9838C81.8538 64.1959 85.2666 59.518 87.5641 54.2763C89.8617 49.0345 90.9887 43.3548 90.8668 37.6329C90.7654 32.1361 89.4666 26.7274 87.0607 21.784C84.6549 16.8406 81.2 12.4813 76.9367 9.00995C70.1272 3.50806 61.6386 0.504511 52.8841 0.499352H52.8974C52.1611 0.499352 51.4281 0.519252 50.6985 0.559052C51.992 1.80612 53.5939 4.18418 54.3369 6.52907C54.914 8.3433 54.9173 10.0249 54.9173 10.4826ZM69.441 65.964C66.0825 69.0966 62.0464 71.412 57.6469 72.73C56.0648 73.1645 54.4297 73.39 52.7913 73.3933C47.3519 73.3933 42.6323 70.9158 38.8015 67.954C39.6473 66.4615 40.0917 64.7998 40.1282 63.1282C45.2989 67.7384 52.5558 72.2358 61.3118 69.8511C63.9121 69.1414 66.6318 67.8943 69.441 65.964ZM25.3955 58.2958C26.7885 56.9028 29.0671 56.9028 30.4568 58.2958L32.4634 60.3024C33.8564 61.7418 33.8331 64.0436 32.4634 65.4267L32.3904 65.503L18.6361 81.3335C17.8775 79.3151 16.6996 77.4805 15.1801 75.9505C13.6852 74.4322 11.8826 73.2515 9.89334 72.4879L25.3458 58.3456L25.3955 58.2958Z" fill="white"/>
</svg>
