<svg width="670" height="410" viewBox="0 0 670 410" fill="none" xmlns="http://www.w3.org/2000/svg">
<g filter="url(#filter0_d_3997_64)">
<rect x="12" y="63.0039" width="630.44" height="331.767" rx="53" fill="url(#paint0_linear_3997_64)"/>
</g>
<g filter="url(#filter1_d_3997_64)">
<path fill-rule="evenodd" clip-rule="evenodd" d="M637.676 187.057C637.676 187.057 637.398 187.289 637.258 187.422C637.189 187.455 637.154 187.522 637.084 187.555C620.881 201.462 591.124 222.372 563.352 241.158C556 246.137 548.752 250.982 541.957 255.496C531.016 262.732 521.19 269.171 513.663 274.05C512.269 274.946 510.98 275.776 509.76 276.573C502.757 281.12 498.54 283.808 498.54 283.808L488.435 287.16L483.627 288.754L464.741 295.027L462.197 309.133L462.058 309.863H435.75L421.637 300.204L418.571 298.113H382.053C378.046 293.898 370.764 287.293 363.585 281.02L362.68 280.224C360.937 278.73 359.23 277.236 357.592 275.842C352.296 271.295 347.661 267.379 345.222 265.354C344.072 264.392 343.41 263.86 343.41 263.86L339.473 263.097L337.487 262.732L323.026 259.944L279.923 251.679L276.787 251.082C272.396 247.531 268.04 244.178 263.824 241.025C235.321 219.684 212.184 207.27 211.835 207.104C229.537 198.906 242.882 195.189 259.19 191.571C342.086 173.15 612.449 178.992 612.449 178.992L628.547 184.203L637.676 187.157V187.057Z" fill="url(#paint1_linear_3997_64)"/>
<path style="mix-blend-mode:multiply" opacity="0.5" fill-rule="evenodd" clip-rule="evenodd" d="M399.93 215.966L365.852 228.015L371.218 256.061L360.102 256.359L363.517 281.053L362.611 280.257L357.524 275.876C352.227 271.328 347.593 267.412 345.154 265.387C344.004 264.425 343.342 263.894 343.342 263.894L339.404 263.13L337.418 262.765L322.958 259.977L279.854 251.713L276.718 251.115C272.328 247.564 267.972 244.212 263.756 241.058L272.502 213.178L386.341 215.402L400.906 215.701L399.895 216.066L399.93 215.966Z" fill="url(#paint2_linear_3997_64)"/>
<path style="mix-blend-mode:multiply" opacity="0.5" fill-rule="evenodd" clip-rule="evenodd" d="M637.679 187.058C637.679 187.058 637.4 187.29 637.261 187.423C637.191 187.456 637.156 187.522 637.086 187.555C620.883 201.462 591.126 222.373 563.354 241.159C556.002 246.137 548.754 250.983 541.959 255.497C531.018 262.733 521.192 269.172 513.665 274.051C512.271 274.947 510.982 275.776 509.763 276.573C502.759 281.12 498.542 283.809 498.542 283.809L488.437 287.161L483.629 288.754L464.743 295.027L462.199 309.133L462.06 309.863H435.752L421.639 300.205L418.573 298.114L432.999 295.89L447.355 270.267L447.634 269.769C447.634 269.769 447.634 269.769 447.599 269.769C446.449 269.304 420.594 259.115 418.573 260.11C417.946 260.442 418.085 259.779 418.573 258.783C419.653 256.493 422.476 252.277 422.476 252.277L498.264 228.413L492.932 213.411L491.225 208.632L538.44 200.234L628.584 184.203L637.713 187.157L637.679 187.058Z" fill="url(#paint3_linear_3997_64)"/>
<path fill-rule="evenodd" clip-rule="evenodd" d="M352.262 260.077L349.858 261.87L348.534 262.865L345.189 265.355L337.592 270.997V277.469C337.592 277.469 320.031 289.053 316.511 288.721C312.992 288.389 298.566 279.859 297.137 279.859C295.709 279.859 275.673 287.36 274.593 286.696C273.512 285.999 250.48 267.081 245.114 259.58L323.027 259.945L345.746 260.044H352.297L352.262 260.077Z" fill="url(#paint4_linear_3997_64)"/>
<path style="mix-blend-mode:multiply" opacity="0.5" fill-rule="evenodd" clip-rule="evenodd" d="M348.5 262.865L345.155 265.354L337.558 270.997V277.469C337.558 277.469 319.996 289.052 316.477 288.72C312.958 288.389 298.532 279.858 297.103 279.858C295.675 279.858 275.639 287.36 274.559 286.696L268.705 262.931V261.77L337.454 262.699L342.646 262.765L348.535 262.832L348.5 262.865Z" fill="url(#paint5_linear_3997_64)"/>
<path fill-rule="evenodd" clip-rule="evenodd" d="M349.858 261.869C349.858 261.869 347.454 262.3 342.645 262.798C341.669 262.898 340.589 262.998 339.439 263.097C330.17 263.927 314.699 264.757 293.2 264.159C283.234 263.894 275.185 263.429 268.739 262.931C250.794 261.504 245.114 259.579 245.114 259.579L279.924 251.679C280.133 251.646 288.809 250.219 308.636 251.182C324.212 251.945 338.847 257.222 345.746 260.077C348.36 261.172 349.893 261.902 349.893 261.902L349.858 261.869Z" fill="url(#paint6_radial_3997_64)"/>
<path fill-rule="evenodd" clip-rule="evenodd" d="M600.742 242.852C594.26 249.158 576.559 278.167 576.559 278.167L563.841 279.859C543.422 293.501 496.52 309.631 496.52 309.631C496.346 309.333 489.76 298.977 483.593 288.788C478.923 281.054 474.463 273.387 473.244 270.3L476.24 269.67L477.425 269.404L487.983 267.147L518.821 260.509L541.923 255.53L600.707 242.885L600.742 242.852Z" fill="url(#paint7_linear_3997_64)"/>
<path style="mix-blend-mode:multiply" opacity="0.5" fill-rule="evenodd" clip-rule="evenodd" d="M600.741 242.851C594.26 249.157 576.559 278.133 576.559 278.133L563.841 279.826C543.421 293.467 496.52 309.598 496.52 309.598L488.401 287.128L485.753 279.826L507.531 276.208L513.629 274.017L600.707 242.818L600.741 242.851Z" fill="url(#paint8_linear_3997_64)"/>
<path fill-rule="evenodd" clip-rule="evenodd" d="M600.741 242.851C600.392 243.051 578.649 256.758 548.822 266.882C535.302 271.495 521.225 274.549 509.795 276.573C495.788 279.029 485.822 279.859 485.822 279.859C486.31 279.726 501.92 276.009 516.973 270.3C516.973 270.3 493.697 272.723 473.278 270.3C473.278 270.3 501.502 254.966 523.037 247.83L528.647 240.395C537.532 240.263 550.878 240.661 563.352 241.225C580.391 241.955 595.723 242.885 595.723 242.885H600.741V242.851Z" fill="url(#paint9_radial_3997_64)"/>
<path style="mix-blend-mode:multiply" opacity="0.3" fill-rule="evenodd" clip-rule="evenodd" d="M595.723 242.851C595.723 242.851 580.357 241.922 563.352 241.192C550.878 240.661 537.532 240.229 528.647 240.362L523.037 247.797C501.502 254.966 473.278 270.267 473.278 270.267C493.697 272.69 516.973 270.267 516.973 270.267C501.92 276.009 486.31 279.726 485.822 279.826C485.822 279.826 495.823 278.996 509.795 276.54C521.225 274.549 535.302 271.462 548.822 266.848C578.649 256.692 600.392 243.017 600.741 242.818H595.723V242.851ZM518.855 256.028C518.855 256.028 516.59 257.588 513.733 257.588H504.778L518.855 256.028ZM507.6 264.359C507.6 264.359 496.903 265.72 488.017 267.114C484.324 267.711 480.909 268.276 478.748 268.807C482.442 267.114 490.108 263.762 501.711 261.803L518.89 260.509L507.635 264.392L507.6 264.359Z" fill="url(#paint10_linear_3997_64)"/>
<path fill-rule="evenodd" clip-rule="evenodd" d="M448.573 270.166C389.86 274.415 360.137 256.326 360.137 256.326C368.36 255.297 417.561 256.99 424.739 260.076C431.917 263.163 448.573 270.166 448.573 270.166Z" fill="url(#paint11_radial_3997_64)"/>
<path fill-rule="evenodd" clip-rule="evenodd" d="M468.192 312.254V312.32V312.42L468.087 312.553L467.913 312.951C466.972 315.108 463.801 322.145 457.877 330.343C450.699 340.234 441.396 354.273 441.396 354.273C439.235 346.839 434.949 340.566 434.949 340.566L430.663 343.453C430.663 343.453 404.181 321.481 397.735 309.632L468.226 312.254H468.192Z" fill="url(#paint12_linear_3997_64)"/>
<path style="mix-blend-mode:multiply" opacity="0.5" fill-rule="evenodd" clip-rule="evenodd" d="M468.192 312.253V312.32V312.419L468.088 312.552L467.914 312.95C466.973 315.108 463.802 322.144 457.878 330.342C450.7 340.233 441.397 354.273 441.397 354.273C439.236 346.838 434.95 340.565 434.95 340.565L452.233 321.115L448.575 315.373C448.575 315.373 448.575 315.373 448.644 315.373L468.192 312.253Z" fill="url(#paint13_linear_3997_64)"/>
<path fill-rule="evenodd" clip-rule="evenodd" d="M448.644 315.339H448.574L452.233 321.081C452.233 321.081 413.381 320.749 397.7 309.564C391.603 305.216 391.603 300.271 391.603 300.271C391.603 300.271 406.168 298.943 421.569 300.171C426.064 300.536 430.629 301.1 434.915 301.963C445.612 304.154 455.508 307.042 462.129 309.099C467.251 310.726 470.352 311.854 470.352 311.854C469.621 311.987 468.854 312.12 468.122 312.252C458.366 313.978 449.445 315.173 448.574 315.306L448.644 315.339Z" fill="url(#paint14_radial_3997_64)"/>
<path style="mix-blend-mode:multiply" opacity="0.3" fill-rule="evenodd" clip-rule="evenodd" d="M349.858 261.869C349.858 261.869 347.454 262.3 342.645 262.798C341.669 262.898 340.589 262.998 339.439 263.097C330.17 263.927 314.699 264.757 293.2 264.159C283.234 263.894 275.185 263.429 268.739 262.931C250.794 261.504 245.114 259.579 245.114 259.579L279.924 251.679C280.133 251.646 288.809 250.219 308.636 251.182C324.212 251.945 338.847 257.222 345.746 260.077C348.36 261.172 349.893 261.902 349.893 261.902L349.858 261.869Z" fill="url(#paint15_linear_3997_64)"/>
<path style="mix-blend-mode:multiply" opacity="0.3" fill-rule="evenodd" clip-rule="evenodd" d="M448.573 270.166C448.573 270.166 431.883 263.163 424.739 260.076C417.561 256.99 368.395 255.33 360.137 256.326C360.137 256.326 389.86 274.382 448.573 270.166Z" fill="url(#paint16_linear_3997_64)"/>
<path style="mix-blend-mode:multiply" opacity="0.3" fill-rule="evenodd" clip-rule="evenodd" d="M448.644 315.339H448.574L452.233 321.081C452.233 321.081 413.381 320.749 397.7 309.564C391.603 305.216 391.603 300.271 391.603 300.271C391.603 300.271 406.168 298.943 421.569 300.171C426.064 300.536 430.629 301.1 434.915 301.963C445.612 304.154 455.508 307.042 462.129 309.099C467.251 310.726 470.352 311.854 470.352 311.854C469.621 311.987 468.854 312.12 468.122 312.252C458.366 313.978 449.445 315.173 448.574 315.306L448.644 315.339Z" fill="url(#paint17_linear_3997_64)"/>
<path fill-rule="evenodd" clip-rule="evenodd" d="M478.749 268.773C476.763 269.702 475.926 270.134 476.275 269.636C476.414 269.404 477.32 269.105 478.749 268.773Z" fill="url(#paint18_linear_3997_64)"/>
<path style="mix-blend-mode:multiply" opacity="0.5" fill-rule="evenodd" clip-rule="evenodd" d="M637.085 187.555C620.882 201.462 591.125 222.372 563.353 241.158C580.392 241.888 595.724 242.818 595.724 242.818H600.742C594.261 249.124 576.559 278.133 576.559 278.133L563.841 279.825C543.422 293.467 496.52 309.598 496.52 309.598C496.346 309.299 489.76 298.943 483.593 288.754L464.707 295.027L462.163 309.133C467.285 310.759 470.387 311.888 470.387 311.888C469.655 312.02 468.888 312.153 468.157 312.286V312.386L468.052 312.518L467.878 312.917C466.937 315.074 463.766 322.11 457.842 330.309C450.664 340.199 441.361 354.239 441.361 354.239C439.2 346.804 434.914 340.531 434.914 340.531L430.628 343.419C430.628 343.419 404.146 321.447 397.7 309.598C391.602 305.25 391.602 300.304 391.602 300.304C391.602 300.304 406.167 298.976 421.569 300.205L418.502 298.113H381.985C377.978 293.898 370.695 287.293 363.517 281.02L362.611 280.224L357.524 275.842C352.227 271.295 347.593 267.379 345.154 265.354L337.557 270.997V277.469C337.557 277.469 319.996 289.052 316.476 288.721C312.957 288.389 298.531 279.859 297.102 279.859C295.674 279.859 275.638 287.36 274.558 286.696C273.477 285.999 250.445 267.08 245.079 259.579L279.889 251.68L276.753 251.082C272.362 247.531 268.007 244.178 263.791 241.025C235.287 219.684 212.15 207.27 211.802 207.104L386.41 215.369L399.965 215.999L411.603 216.564L538.439 200.201L637.329 187.455L640.152 187.09H640.186C640.186 187.09 639.106 187.289 637.155 187.588L637.085 187.555Z" fill="url(#paint19_linear_3997_64)"/>
<path style="mix-blend-mode:screen" opacity="0.6" fill-rule="evenodd" clip-rule="evenodd" d="M637.085 187.555C620.882 201.462 591.125 222.372 563.353 241.158C580.392 241.888 595.724 242.818 595.724 242.818H600.742C594.261 249.124 576.559 278.133 576.559 278.133L563.841 279.825C543.422 293.467 496.52 309.598 496.52 309.598C496.346 309.299 489.76 298.943 483.593 288.754L464.707 295.027L462.163 309.133C467.285 310.759 470.387 311.888 470.387 311.888C469.655 312.02 468.888 312.153 468.157 312.286V312.386L468.052 312.518L467.878 312.917C466.937 315.074 463.766 322.11 457.842 330.309C450.664 340.199 441.361 354.239 441.361 354.239C439.2 346.804 434.914 340.531 434.914 340.531L430.628 343.419C430.628 343.419 404.146 321.447 397.7 309.598C391.602 305.25 391.602 300.304 391.602 300.304C391.602 300.304 406.167 298.976 421.569 300.205L418.502 298.113H381.985C377.978 293.898 370.695 287.293 363.517 281.02L362.611 280.224L357.524 275.842C352.227 271.295 347.593 267.379 345.154 265.354L337.557 270.997V277.469C337.557 277.469 319.996 289.052 316.476 288.721C312.957 288.389 298.531 279.859 297.102 279.859C295.674 279.859 275.638 287.36 274.558 286.696C273.477 285.999 250.445 267.08 245.079 259.579L279.889 251.68L276.753 251.082C272.362 247.531 268.007 244.178 263.791 241.025C235.287 219.684 212.15 207.27 211.802 207.104L386.41 215.369L399.965 215.999L411.603 216.564L538.439 200.201L637.329 187.455L640.152 187.09H640.186C640.186 187.09 639.106 187.289 637.155 187.588L637.085 187.555Z" fill="url(#paint20_linear_3997_64)"/>
<path fill-rule="evenodd" clip-rule="evenodd" d="M640.15 187.057H640.116L610.079 176.503C610.079 176.503 574.572 175.308 524.744 175.009C515.44 174.943 505.649 174.91 495.474 174.943C466.309 174.976 434.147 175.374 402.263 176.469C390.59 176.868 378.952 177.332 367.523 177.93C356.547 178.494 345.71 179.158 335.222 179.921C332.992 180.087 330.796 180.253 328.601 180.419C296.369 182.975 267.518 186.659 246.297 191.837C229.572 195.952 212.358 206.706 211.835 207.038C228.073 212.979 270.305 212.979 270.305 212.979C270.305 212.979 271.107 213.013 272.57 213.079C283.825 213.544 335.082 215.734 391.671 218.456C391.671 218.456 375.189 223.567 365.885 228.015C365.885 228.015 418.919 252.178 422.474 252.244C470.107 253.007 550.703 218.489 550.703 218.489C550.703 218.489 537.915 212.216 496.101 212.747C552.097 201.661 621.822 190.111 637.119 187.588C639.105 187.256 640.15 187.091 640.15 187.091V187.057Z" fill="url(#paint21_radial_3997_64)"/>
<path fill-rule="evenodd" clip-rule="evenodd" d="M661.928 86.356C661.754 87.0862 661.406 88.0819 660.883 89.3432C657.05 98.4374 644.924 119.182 644.924 119.182L605.236 123.696L537.288 102.387C528.611 90.9363 527.218 72.5486 528.611 70.4244C528.751 70.2253 528.995 70.0261 529.343 69.827C532.862 67.736 546.487 65.1139 546.487 65.1139C546.487 65.1139 542.305 57.1149 546.487 51.2734C546.731 50.9414 547.079 50.5763 547.532 50.1449C555.372 42.9757 593.911 22.8289 597.082 23.3599C598.371 23.5591 599.625 25.6833 600.741 28.2389C602.518 32.421 603.807 37.6983 603.807 37.6983C603.807 37.6983 616.943 27.5751 622.832 28.6372C624.679 28.9692 625.167 31.5912 624.888 34.9767C624.365 42.3118 620.567 53.3976 620.567 53.3976C620.567 53.3976 630.359 52.601 630.638 56.3184C630.638 56.5839 630.603 56.9158 630.463 57.3473C628.826 63.0229 615.236 82.5723 614.957 82.9374C616.107 82.2403 652.764 60.0357 657.712 59.5047C658.061 59.4715 658.339 59.5379 658.583 59.737C658.967 60.0689 659.176 60.7327 659.245 61.5957C659.35 63.1225 659.036 65.3131 658.514 67.736C657.015 74.6729 653.81 83.4684 653.81 83.4684C653.81 83.4684 660.813 82.6718 661.928 85.3271C661.998 85.5262 661.998 85.8581 661.894 86.3228L661.928 86.356Z" fill="url(#paint22_radial_3997_64)"/>
<g style="mix-blend-mode:soft-light" opacity="0.38">
<path fill-rule="evenodd" clip-rule="evenodd" d="M600.74 28.2062C598.197 39.6239 566.139 64.4838 556.452 61.4634C546.765 58.4431 544.396 54.0619 547.532 50.1122C555.372 42.9429 593.911 22.7961 597.082 23.3272C598.371 23.5263 599.625 25.6506 600.74 28.2062Z" fill="#ECFFB8"/>
</g>
<g style="mix-blend-mode:soft-light" opacity="0.38">
<path fill-rule="evenodd" clip-rule="evenodd" d="M624.888 34.9771C616.7 52.8669 588.719 64.3177 584.991 61.7289C581.262 59.14 592.831 46.1956 603.807 37.6987C603.807 37.6987 616.944 27.5756 622.832 28.6377C624.679 28.9696 625.167 31.5916 624.888 34.9771Z" fill="#ECFFB8"/>
</g>
<g style="mix-blend-mode:soft-light" opacity="0.38">
<path fill-rule="evenodd" clip-rule="evenodd" d="M630.464 57.3471C623.216 65.4788 590.183 67.8686 588.511 65.3793C586.838 62.8899 611.264 54.891 620.568 53.3974C620.568 53.3974 630.359 52.6008 630.638 56.3182C630.638 56.5837 630.603 56.9156 630.464 57.3471Z" fill="#ECFFB8"/>
</g>
<g style="mix-blend-mode:soft-light" opacity="0.38">
<path fill-rule="evenodd" clip-rule="evenodd" d="M552.899 71.5866C556.384 83.2366 583.11 77.1959 582.553 73.5117C581.995 69.8275 549.729 60.9324 552.899 71.5866Z" fill="#ECFFB8"/>
</g>
<g style="mix-blend-mode:soft-light" opacity="0.38">
<path fill-rule="evenodd" clip-rule="evenodd" d="M554.013 85.4265C553.072 88.2809 531.642 83.1364 528.576 70.4243C528.611 70.4243 528.854 70.1588 529.307 69.8269C532.827 67.7358 546.451 65.1138 546.451 65.1138C555.302 67.8686 554.919 82.6053 554.013 85.4597V85.4265Z" fill="#ECFFB8"/>
</g>
<g style="mix-blend-mode:soft-light" opacity="0.38">
<path fill-rule="evenodd" clip-rule="evenodd" d="M617.607 106.735C614.401 108.726 635.796 118.02 641.65 110.817C642.939 109.224 623.391 103.184 617.607 106.735Z" fill="#ECFFB8"/>
</g>
<g style="mix-blend-mode:soft-light" opacity="0.38">
<path fill-rule="evenodd" clip-rule="evenodd" d="M661.966 85.3613C661.966 85.6932 661.966 86.0251 661.931 86.3571C661.791 87.3528 661.443 88.3485 660.885 89.3442C656.181 97.4096 637.957 103.882 633.462 104.811C628.236 105.873 620.395 106.006 620.43 100.729C620.5 91.5348 653.882 83.5026 653.882 83.5026C653.882 83.5026 660.885 82.7061 662 85.3613H661.966Z" fill="#ECFFB8"/>
</g>
<g style="mix-blend-mode:soft-light" opacity="0.38">
<path fill-rule="evenodd" clip-rule="evenodd" d="M658.55 67.7692C656.982 72.5155 652.94 78.2243 644.263 82.0745C628.618 89.0114 616.736 90.6045 614.993 90.0735C613.251 89.5424 608.094 88.8454 614.993 82.9706C616.143 82.2736 652.8 60.069 657.748 59.5379C658.097 59.5047 658.375 59.5711 658.619 59.7703C658.898 60.1354 659.142 60.7992 659.281 61.629C659.49 63.1557 659.351 65.3463 658.55 67.7692Z" fill="#ECFFB8"/>
</g>
<path style="mix-blend-mode:multiply" opacity="0.5" fill-rule="evenodd" clip-rule="evenodd" d="M554.014 85.4272C555.512 92.696 554.014 100.131 554.014 100.131L558.787 99.5001V101.89L564.188 100.861L566.349 99.7656C566.349 99.7656 558.927 99.5001 556.801 95.5836C554.676 91.6671 554.292 84.0332 554.292 84.0332L554.014 85.4604V85.4272Z" fill="url(#paint23_linear_3997_64)"/>
<path style="mix-blend-mode:multiply" opacity="0.5" fill-rule="evenodd" clip-rule="evenodd" d="M582.554 84.0005C582.449 89.1451 580.289 94.356 580.289 94.356L592.624 90.5059C592.624 90.5059 589.07 91.5348 586.003 88.3485C582.937 85.1622 582.554 84.0005 582.554 84.0005Z" fill="url(#paint24_linear_3997_64)"/>
<path style="mix-blend-mode:multiply" opacity="0.5" fill-rule="evenodd" clip-rule="evenodd" d="M623.286 70.458C616.003 81.4773 606.002 86.7547 606.002 86.7547L608.128 86.1904L610.358 116.129L611.647 87.7172C611.647 87.7172 611.613 85.5598 615.027 82.9045L623.286 70.4248V70.458Z" fill="url(#paint25_linear_3997_64)"/>
<path style="mix-blend-mode:multiply" opacity="0.5" fill-rule="evenodd" clip-rule="evenodd" d="M641.649 110.817L641.719 116.593H646.423L648.2 113.506C648.2 113.506 644.855 114.668 643.287 113.506C641.719 112.344 641.719 110.817 641.719 110.817H641.649Z" fill="url(#paint26_linear_3997_64)"/>
<path style="mix-blend-mode:multiply" opacity="0.5" fill-rule="evenodd" clip-rule="evenodd" d="M615.725 113.141V121.14L610.812 122.269C610.812 122.269 614.087 120.144 614.61 117.721C615.132 115.299 615.69 113.174 615.69 113.174L615.725 113.141Z" fill="url(#paint27_linear_3997_64)"/>
<path style="mix-blend-mode:multiply" opacity="0.5" fill-rule="evenodd" clip-rule="evenodd" d="M584.26 61.0316C584.469 68.4 582.552 77.1292 582.552 77.1292C582.552 77.1292 585.723 69.3957 588.058 64.749C588.058 64.749 590.323 63.0563 599.278 58.1108C599.278 58.1108 591.403 62.0937 587.465 62.0937C584.538 62.0937 584.26 61.0316 584.26 61.0316Z" fill="url(#paint28_linear_3997_64)"/>
<path fill-rule="evenodd" clip-rule="evenodd" d="M255.22 151.941C263.443 173.083 263.827 189.115 264.872 189.447C265.952 189.778 348.291 191.836 400.942 184.999L396.273 192.5C396.273 192.5 410.28 196.649 418.12 197.611C429.097 198.972 449.62 196.251 449.62 196.251V193.529C449.62 193.529 473.245 196.151 492.236 196.085C511.226 196.018 535.2 194.193 535.2 194.193L547.221 191.67C547.221 191.67 590.708 184.999 616.11 180.219C616.11 180.219 642.453 142.05 656.983 116.46L607.573 123.098C607.573 123.098 605.935 102.321 604.123 76.9298L540.984 101.624V93.9566L514.92 97.4417L510.181 85.5594L424.706 65.313L421.744 84.2317L340.66 83.2028C340.66 83.2028 346.026 117.987 354.075 142.548C354.075 142.548 303.585 144.075 284.246 146.63C264.907 149.186 255.185 151.875 255.185 151.875L255.22 151.941Z" fill="url(#paint29_linear_3997_64)"/>
<path style="mix-blend-mode:multiply" opacity="0.5" fill-rule="evenodd" clip-rule="evenodd" d="M497.287 115.099L498.542 127.712L502.305 128.176L501.712 124.426C501.712 124.426 509.343 122.136 518.891 115.331C528.439 108.527 541.018 97.0433 541.018 97.0433V93.9897L497.287 115.099Z" fill="url(#paint30_linear_3997_64)"/>
<path style="mix-blend-mode:multiply" opacity="0.5" fill-rule="evenodd" clip-rule="evenodd" d="M552.273 109.457C546.071 116.029 537.011 143.146 537.011 143.146L524.885 153.634V160.106L607.607 123.132L604.331 83.7012L553.283 106.868L552.273 109.424V109.457Z" fill="url(#paint31_linear_3997_64)"/>
<path style="mix-blend-mode:multiply" opacity="0.5" fill-rule="evenodd" clip-rule="evenodd" d="M446.065 191.205L449.654 196.283L438.19 197.146C448.748 197.711 486.729 197.91 496.381 195.918L438.19 186.127L446.065 191.205Z" fill="url(#paint32_linear_3997_64)"/>
<path style="mix-blend-mode:multiply" opacity="0.5" fill-rule="evenodd" clip-rule="evenodd" d="M337.593 181.779V189.679C337.593 189.679 358.569 188.617 374.807 187.057L401.429 184.235L400.941 180.086L437.006 176.137L434.985 165.814L317.905 168.337L337.628 181.779H337.593Z" fill="url(#paint33_linear_3997_64)"/>
<path style="mix-blend-mode:multiply" opacity="0.5" fill-rule="evenodd" clip-rule="evenodd" d="M499.065 148.689L487.949 179.291L496.382 181.448L493.699 175.806L521.157 161.965L588.442 132.027L536.314 147.527L528.648 132.027L499.065 148.689Z" fill="url(#paint34_linear_3997_64)"/>
<path style="mix-blend-mode:multiply" opacity="0.5" fill-rule="evenodd" clip-rule="evenodd" d="M382.02 124.99C383.762 132.823 385.922 156.72 385.922 156.72L401.847 162.064L400.941 128.409L453.94 124.99L453.801 122.268L377.455 111.448L382.055 124.99H382.02Z" fill="url(#paint35_linear_3997_64)"/>
<path style="mix-blend-mode:multiply" opacity="0.5" fill-rule="evenodd" clip-rule="evenodd" d="M513.735 177.1C521.959 184.003 536.28 194.458 536.28 194.458L619.002 179.622L656.983 116.493L513.735 177.1Z" fill="url(#paint36_linear_3997_64)"/>
<path style="mix-blend-mode:multiply" opacity="0.5" fill-rule="evenodd" clip-rule="evenodd" d="M434.985 71.2876C453.975 99.7653 481.05 98.3713 481.05 98.3713L517.184 97.276L512.411 91.1025L434.985 71.2876Z" fill="url(#paint37_linear_3997_64)"/>
<path fill-rule="evenodd" clip-rule="evenodd" d="M434.985 165.782C425.437 169.433 412.684 173.383 402.265 176.436C391.602 179.556 383.309 181.78 383.309 181.78C378.466 180.419 373.065 179.125 367.525 177.93C345.781 173.184 321.982 169.699 321.982 169.699L335.223 179.921L337.628 181.78C337.628 181.78 334.282 181.415 328.603 180.419C322.609 179.39 313.968 177.664 303.828 174.91C269.924 165.782 255.254 151.942 255.254 151.942C252.466 150.116 253.477 144.109 253.477 144.109C276.928 141.321 354.144 142.615 354.144 142.615C398.606 149.983 435.019 165.815 435.019 165.815L434.985 165.782Z" fill="url(#paint38_radial_3997_64)"/>
<path fill-rule="evenodd" clip-rule="evenodd" d="M340.658 83.2705C340.658 83.2705 351.181 101.824 359.753 111.383V104.214C359.753 104.214 363.447 114.437 382.019 125.025C382.019 125.025 383.552 118.121 384.911 117.656C388.291 116.495 428.502 122.635 454.288 122.635C454.288 122.635 436.029 111.051 434.949 109.69C433.868 108.33 434.949 99.7996 434.949 99.7996C434.949 99.7996 455.716 112.943 474.323 111.981C492.931 111.018 507.252 108.661 507.252 108.661L497.217 115.134C497.217 115.134 529.169 102.919 540.947 94.0244C540.947 94.0244 531.678 95.2192 514.082 95.5511C433.485 97.0447 421.324 89.5436 421.324 89.5436L421.707 84.2995C421.707 84.2995 415.575 81.6442 395.887 80.1506C376.2 78.657 344.073 82.0757 344.073 82.0757L340.623 83.3037L340.658 83.2705Z" fill="url(#paint39_radial_3997_64)"/>
<path fill-rule="evenodd" clip-rule="evenodd" d="M424.739 65.3469C435.332 73.1467 468.643 87.452 512.409 91.1362L510.214 85.6265C510.214 85.6265 463.974 63.9861 446.796 62.4261C429.617 60.8993 424.739 62.4261 424.739 62.4261V65.3469Z" fill="url(#paint40_radial_3997_64)"/>
<path style="mix-blend-mode:multiply" opacity="0.3" fill-rule="evenodd" clip-rule="evenodd" d="M424.739 65.3474C451.186 81.6772 487.948 87.8507 487.948 87.8507C487.948 87.8507 463.974 63.9534 446.796 62.3934C429.617 60.8666 424.739 62.3934 424.739 62.3934V65.3142V65.3474Z" fill="url(#paint41_linear_3997_64)"/>
<path fill-rule="evenodd" clip-rule="evenodd" d="M529.484 131.529L499.064 148.689C499.064 148.689 477.948 146.233 455.125 142.449C432.475 138.699 408.119 133.654 400.976 128.376C400.976 128.376 454.323 122.568 475.439 124.958C488.994 126.484 507.462 128.741 518.926 130.169C525.303 130.965 529.519 131.496 529.519 131.496L529.484 131.529Z" fill="url(#paint42_radial_3997_64)"/>
<path fill-rule="evenodd" clip-rule="evenodd" d="M501.676 124.427C501.676 124.427 512.931 122.867 527.217 118.917C549.205 112.876 604.887 84.6641 604.887 84.6641C604.887 84.6641 604.608 80.0838 604.12 76.9639C604.12 76.9639 561.888 87.8504 547.88 95.6835C533.873 103.516 501.641 124.394 501.641 124.394L501.676 124.427Z" fill="url(#paint43_radial_3997_64)"/>
<path fill-rule="evenodd" clip-rule="evenodd" d="M659.455 113.407C657.086 116.395 614.575 156.389 524.709 175.01C521.12 175.74 517.462 176.47 513.733 177.134L493.697 175.839C493.697 175.839 494.29 175.541 495.44 174.943C504.255 170.396 544.919 149.718 578.092 135.048C586.977 131.131 595.34 127.646 602.414 125.024C604.226 124.36 605.968 123.73 607.606 123.166C642.276 111.416 659.49 113.407 659.49 113.407H659.455Z" fill="url(#paint44_radial_3997_64)"/>
<path fill-rule="evenodd" clip-rule="evenodd" d="M602.415 124.99C602.032 125.156 593.216 129.338 578.093 135.014C572.135 137.238 565.2 139.727 557.43 142.283C539.52 148.158 524.885 153.634 524.885 153.634C530.565 147.826 563.598 120.543 573.563 120.908C583.564 121.24 602.38 124.99 602.38 124.99H602.415Z" fill="url(#paint45_radial_3997_64)"/>
<path fill-rule="evenodd" clip-rule="evenodd" d="M400.939 180.088C418.501 187.092 446.063 191.241 446.063 191.241L441.011 187.988C441.011 187.988 471.605 193.73 503.348 196.651C523.593 198.543 536.277 194.493 536.277 194.493C536.277 194.493 486.135 175.143 460.001 175.143C433.868 175.143 400.939 180.088 400.939 180.088Z" fill="url(#paint46_radial_3997_64)"/>
<path style="mix-blend-mode:multiply" opacity="0.3" fill-rule="evenodd" clip-rule="evenodd" d="M437.006 176.105L434.985 165.782C434.985 165.782 326.861 150.448 282.399 143.113C282.399 143.113 276.893 141.321 253.443 144.109C253.443 144.109 252.467 150.149 255.22 151.942C255.22 151.942 269.89 165.782 303.794 174.91C313.934 177.631 322.575 179.357 328.569 180.419C296.337 182.975 267.485 186.659 246.265 191.837C229.26 195.986 211.768 207.038 211.768 207.038C228.006 212.98 270.238 212.98 270.238 212.98C270.238 212.98 327.523 215.369 391.603 218.423C391.603 218.423 375.121 223.534 365.818 227.982C365.818 227.982 418.852 252.145 422.406 252.211C470.039 252.974 550.636 218.456 550.636 218.456C550.636 218.456 537.848 212.183 496.034 212.714C559.277 200.168 640.083 187.058 640.083 187.058L610.953 181.116C610.953 181.116 547.186 191.704 536.245 194.459C473.803 172.686 468.855 175.009 436.937 176.105H437.006ZM258.809 148.689L356.549 159.31C356.549 159.31 296.407 169.998 258.809 148.689ZM251.282 202.027L273.757 201.628C273.757 201.628 261.318 205.147 251.282 202.027ZM391.638 230.471L422.72 225.658L414.566 228.314C418.469 228.314 425.96 230.405 425.96 230.405H391.638V230.471ZM447.007 242.851L435.612 241.789C435.612 241.789 448.261 239.3 456.101 241.789L447.007 242.851ZM444.742 222.738L367.7 212.714C377.735 209.295 451.571 212.714 451.571 212.714L399.931 216L444.742 222.704V222.738ZM502.132 228.115L473.837 230.305L489.727 228.115H502.132Z" fill="url(#paint47_linear_3997_64)"/>
<path fill-rule="evenodd" clip-rule="evenodd" d="M448.575 118.917L453.802 122.302C452.443 121.439 448.749 119.082 448.575 118.95V118.917Z" fill="#D9DEF1"/>
<path fill-rule="evenodd" clip-rule="evenodd" d="M300.867 189.846C300.867 189.846 299.612 192.169 292.469 192.866C285.291 193.563 282.085 189.846 282.085 189.846L280.483 190.111L278.148 193.53C278.148 193.53 267.032 197.28 258.461 197.679C249.854 198.077 247.484 198.11 247.484 198.11L239.853 201.595C233.407 202.524 224.521 201.595 224.521 201.595C224.521 201.595 221.246 197.944 219.817 197.679C219.678 197.679 219.608 197.579 219.643 197.446C219.748 196.318 225.88 191.671 232.013 190.111C237.379 188.75 243.198 190.609 245.428 191.439C245.951 191.638 246.265 191.771 246.334 191.804C246.334 191.804 244.906 188.717 245.15 185.531C245.324 183.207 246.404 180.818 249.575 179.523C256.892 176.536 276.441 170.96 279.786 172.553C279.786 172.553 279.96 172.653 280.03 172.686C282.538 174.744 281.458 188.02 281.458 188.02C281.458 188.02 281.807 186.825 282.504 185.199C283.479 182.875 285.082 179.656 287.208 177.963C290.657 175.175 296.755 179.49 299.125 180.419C299.229 180.453 299.299 180.486 299.403 180.519C301.564 181.216 301.006 189.779 301.006 189.779L300.867 189.846Z" fill="url(#paint48_radial_3997_64)"/>
<g style="mix-blend-mode:soft-light" opacity="0.38">
<path fill-rule="evenodd" clip-rule="evenodd" d="M219.572 197.48C219.676 196.351 225.809 191.705 231.942 190.145C237.308 188.784 243.127 190.642 245.357 191.472C245.706 191.638 246.019 191.771 246.263 191.837C249.817 193.065 228.492 200.301 219.572 197.447V197.48Z" fill="#ECFFB8"/>
</g>
<g style="mix-blend-mode:soft-light" opacity="0.38">
<path fill-rule="evenodd" clip-rule="evenodd" d="M254.939 189.58C246.82 192.501 246.054 191.704 245.078 185.597C245.252 183.274 246.333 180.884 249.503 179.59C256.821 176.602 276.369 171.026 279.714 172.62C281.944 178.727 263.511 186.493 254.974 189.58H254.939Z" fill="#ECFFB8"/>
</g>
<g style="mix-blend-mode:soft-light" opacity="0.38">
<path fill-rule="evenodd" clip-rule="evenodd" d="M282.396 185.298C283.372 182.975 284.975 179.755 287.101 178.063C290.55 175.275 296.648 179.59 299.018 180.519C299.505 189.514 285.114 187.655 282.396 185.298Z" fill="#ECFFB8"/>
</g>
<path style="mix-blend-mode:multiply" opacity="0.5" fill-rule="evenodd" clip-rule="evenodd" d="M239.817 201.628C247.343 196.517 246.263 191.837 246.263 191.837C246.263 191.837 247.343 194.061 247.448 198.11L239.817 201.595V201.628Z" fill="url(#paint49_linear_3997_64)"/>
<path style="mix-blend-mode:multiply" opacity="0.5" fill-rule="evenodd" clip-rule="evenodd" d="M278.147 193.563C278.147 193.563 282.189 182.444 281.005 174.91C281.005 174.91 282.155 180.486 281.388 188.087L282.294 185.598C282.294 185.598 281.806 188.386 284.838 191.705C284.838 191.705 283.061 190.974 282.12 189.846L280.517 190.112C280.517 190.112 278.635 192.833 278.182 193.53L278.147 193.563Z" fill="url(#paint50_linear_3997_64)"/>
<path style="mix-blend-mode:multiply" opacity="0.3" fill-rule="evenodd" clip-rule="evenodd" d="M434.984 99.7661C451.71 94.4556 467.32 95.7169 467.32 95.7169C467.32 95.7169 439.375 94.2565 421.429 89.5102L421.813 84.266C421.813 84.266 401.324 78.7564 379.859 79.7853C379.859 79.7853 418.502 106.57 442.511 114.967L434.984 109.657V99.7661Z" fill="url(#paint51_linear_3997_64)"/>
<path style="mix-blend-mode:multiply" opacity="0.3" fill-rule="evenodd" clip-rule="evenodd" d="M529.485 131.529C529.485 131.529 525.269 130.998 518.893 130.202L455.091 142.482C477.915 146.266 499.031 148.722 499.031 148.722L529.451 131.562L529.485 131.529Z" fill="url(#paint52_linear_3997_64)"/>
<path style="mix-blend-mode:multiply" opacity="0.5" fill-rule="evenodd" clip-rule="evenodd" d="M482.479 146.564C477.496 146.564 451.746 142.349 412.476 133.355C411.918 133.222 410.559 156.721 410.559 156.721L434.985 165.782L437.006 176.104L466.346 175.142L487.915 179.291C487.915 179.291 500.703 189.878 515.756 191.837C530.809 193.795 535.2 194.26 535.2 194.26C535.2 194.26 609.768 180.983 610.953 181.149C612.172 181.315 620.988 178.063 620.988 178.063C620.988 178.063 657.262 118.087 659.422 113.44C659.422 113.44 637.052 111.283 607.538 123.198L604.088 77.0298C604.088 77.0298 552.134 109.192 535.618 116.195L534.433 145.237L562.588 125.057H602.311C602.311 125.057 574.331 138.366 540.461 140.391L534.433 145.237L529.415 131.562L519.066 121.041L501.609 124.493L503.77 128.442L526.419 132.093C526.419 132.093 498.02 146.764 482.375 146.664L482.479 146.564Z" fill="url(#paint53_linear_3997_64)"/>
<path style="mix-blend-mode:multiply" opacity="0.5" fill-rule="evenodd" clip-rule="evenodd" d="M486.905 111.084L485.825 126.219L463.803 143.876L454.325 122.634L441.606 115L443.279 104.279C443.279 104.279 466.66 110.254 492.306 101.923C497.533 100.23 514.154 95.5835 514.154 95.5835L486.905 111.15V111.084Z" fill="url(#paint54_linear_3997_64)"/>
<path fill-rule="evenodd" clip-rule="evenodd" d="M374.807 187.057C374.807 187.057 276.369 208 274.139 213.178C274.139 213.178 274.139 213.178 274.139 213.211C274.139 213.211 274.139 213.211 274.139 213.278C274.139 213.278 274.139 213.278 274.139 213.311C272.118 220.281 279.924 330.309 279.924 330.309L306.719 335.719C306.719 335.719 304.002 314.775 308.845 288.687C308.845 288.687 314.943 326.724 312.26 350.256L322.469 347.203C322.469 347.203 322.783 264.126 328.149 214.008C328.149 214.008 336.303 211.585 342.54 216.497L346.652 343.12L349.858 341.593C349.858 341.593 355.224 223.965 356.618 217.427C357.349 214.008 396.376 192.534 396.376 192.534L401.533 184.236C401.533 184.236 378.291 187.223 374.911 187.057H374.807ZM279.401 217.958C280.028 215.734 281.492 280.19 281.492 280.19C281.492 280.19 276.718 227.317 279.401 217.958ZM294.071 324.865L291.876 220.381C295.465 225.16 300.935 221.044 300.935 222.87C300.935 224.795 294.071 324.832 294.071 324.832V324.865Z" fill="#D9DEF1"/>
<path fill-rule="evenodd" clip-rule="evenodd" d="M533.143 95.0527C526.766 95.8493 514.118 95.5174 514.118 95.5174C504.5 97.4093 482.06 108.893 482.06 109.59C482.06 109.756 482.06 110.652 482.06 111.98C482.06 112.08 482.06 112.179 482.06 112.246L482.165 118.22V118.884C482.234 121.771 482.269 124.427 482.269 125.422V125.754C482.269 126.883 465.334 141.155 463.906 143.279C463.836 143.379 463.766 143.578 463.732 143.843C462.86 148.424 466.31 175.109 466.31 175.109H461.955L461.258 143.445V142.283C461.258 142.283 462.651 130.301 436.936 139.296C436.936 139.296 436.901 139.296 436.866 139.296C434.88 139.993 440.804 175.806 440.804 175.806L436.936 176.071L434.915 165.749L427.388 163.459C427.388 163.459 426.657 138.267 424.67 139.296C422.649 140.325 421.883 160.671 421.883 160.671L414.496 158.049L416.168 134.417L453.905 124.958L454.254 122.568L457.25 122.667L470.143 123.564L470.979 111.914C470.979 111.914 461.536 102.753 448.539 106.404C448.539 106.404 448.365 118.187 448.539 118.851L444.741 116.394L445.09 103.45C445.09 103.45 460.352 96.2808 472.547 93.9242C484.743 91.5345 533.108 95.0195 533.108 95.0195L533.143 95.0527Z" fill="#D9DEF1"/>
<path fill-rule="evenodd" clip-rule="evenodd" d="M516.835 129.936C518.403 130.135 520.354 130.367 522.201 130.633L516.835 129.969V129.936Z" fill="#D9DEF1"/>
<path fill-rule="evenodd" clip-rule="evenodd" d="M514.048 121.971L516.835 129.936C515.198 129.737 513.978 129.605 513.699 129.571C512.759 129.472 507.602 128.808 507.602 128.808C507.602 128.808 509.483 123.564 509.832 122.8C510.18 122.037 533.108 103.019 541.018 97.0112C541.819 96.3806 547.952 95.6836 547.952 95.6836C527.603 109.159 514.048 121.938 514.048 121.938V121.971Z" fill="#D9DEF1"/>
<path fill-rule="evenodd" clip-rule="evenodd" d="M606.386 372.229L602.518 371.632C602.518 371.632 604.121 197.38 601.995 193.563C601.891 193.397 601.786 193.231 601.647 193.098C598.65 190.012 586.176 192.567 586.594 195.289C586.594 195.455 586.664 195.72 586.664 196.119C587.117 202.458 587.814 236.777 587.361 242.818C587.361 242.818 587.361 242.818 587.361 242.851C587.256 244.113 568.265 253.506 562.307 257.588C545.651 269.039 537.706 270.101 537.323 273.155C536.975 276.208 535.407 364.363 535.407 364.363H516.904C516.904 364.363 518.333 317.365 516.555 314.643C514.778 311.921 511.538 364.993 511.538 364.993L507.949 364.363C507.949 364.363 507.949 288.356 508.75 278.133C508.785 277.635 508.82 277.303 508.855 277.137C509.691 273.719 558.962 248.228 569.59 241.291C570.67 240.594 571.332 240.063 571.541 239.798C573.701 236.744 569.52 204.284 568.823 201.662C568.091 199.04 543.177 194.924 541.261 192.567C539.344 190.211 535.058 172.719 535.058 172.719C535.058 172.719 520.354 162.364 521.085 161.999C521.817 161.634 522.758 156.19 522.618 155.161C522.375 153.004 530.389 149.784 531.574 145.237C532.758 140.69 529.727 133.023 528.577 132.061C528.054 131.629 525.197 131.098 522.131 130.667L529.413 131.563L534.431 145.237L524.814 153.701V160.173C524.814 160.173 545.616 166.214 559.728 166.081V185.796C559.728 185.796 602.239 190.576 606.107 192.567C606.212 192.634 606.281 192.667 606.316 192.7C608.198 194.592 606.316 372.229 606.316 372.229H606.386Z" fill="#D9DEF1"/>
<path style="mix-blend-mode:multiply" opacity="0.5" fill-rule="evenodd" clip-rule="evenodd" d="M291.876 217.892C286.162 218.125 278.984 215.403 274.175 213.179C274.175 213.179 274.175 213.179 274.175 213.212C274.175 213.212 274.175 213.212 274.175 213.279C274.175 213.279 274.175 213.279 274.175 213.312C272.154 220.282 279.959 330.309 279.959 330.309L306.755 335.72C306.755 335.72 304.037 314.776 308.881 288.688C308.881 288.688 314.979 326.725 312.295 350.257L322.505 347.204C322.505 347.204 322.819 264.127 328.185 214.009C328.185 214.009 297.695 217.66 291.946 217.859L291.876 217.892ZM294.072 324.866L291.876 220.382C295.465 225.161 300.936 221.045 300.936 222.871C300.936 224.796 294.072 324.833 294.072 324.833V324.866Z" fill="url(#paint55_linear_3997_64)"/>
<path style="mix-blend-mode:multiply" opacity="0.5" fill-rule="evenodd" clip-rule="evenodd" d="M356.549 217.427C355.19 223.965 349.789 341.594 349.789 341.594L346.583 343.12L342.471 216.498L356.549 217.394V217.427Z" fill="url(#paint56_linear_3997_64)"/>
<path style="mix-blend-mode:multiply" opacity="0.5" fill-rule="evenodd" clip-rule="evenodd" d="M508.821 278.133C508.821 278.133 522.446 276.374 537.359 273.154C537.011 276.208 535.443 364.363 535.443 364.363H516.94C516.94 364.363 518.369 317.364 516.592 314.643C514.814 311.921 511.574 364.993 511.574 364.993L507.985 364.363C507.985 364.363 507.985 288.356 508.786 278.133H508.821Z" fill="url(#paint57_linear_3997_64)"/>
<path style="mix-blend-mode:multiply" opacity="0.5" fill-rule="evenodd" clip-rule="evenodd" d="M587.396 242.818L579.277 242.685L569.834 241.855C569.834 241.855 569.765 241.656 569.66 241.291C570.74 240.594 571.402 240.063 571.611 239.797C573.772 236.744 569.59 204.283 568.894 201.661C573.458 199.836 579.939 197.844 586.699 196.118C587.152 202.458 587.849 236.777 587.396 242.818Z" fill="url(#paint58_linear_3997_64)"/>
<path style="mix-blend-mode:multiply" opacity="0.5" fill-rule="evenodd" clip-rule="evenodd" d="M606.387 372.228L602.52 371.631C602.52 371.631 604.122 197.379 601.997 193.562C601.892 193.396 601.788 193.23 601.648 193.097C603.216 192.865 604.75 192.699 606.178 192.566C606.283 192.633 606.353 192.666 606.387 192.699C608.269 194.591 606.387 372.228 606.387 372.228Z" fill="url(#paint59_linear_3997_64)"/>
<path style="mix-blend-mode:multiply" opacity="0.5" fill-rule="evenodd" clip-rule="evenodd" d="M559.763 166.779C549.17 170.197 535.093 172.687 535.093 172.687C535.093 172.687 538.055 188.784 541.295 192.535L559.763 185.764V166.779Z" fill="url(#paint60_linear_3997_64)"/>
<path style="mix-blend-mode:multiply" opacity="0.5" fill-rule="evenodd" clip-rule="evenodd" d="M448.573 106.471C448.573 106.471 448.399 118.253 448.573 118.917L444.775 116.461L445.124 103.517C447.319 106.238 448.573 106.471 448.573 106.471Z" fill="url(#paint61_linear_3997_64)"/>
<path fill-rule="evenodd" clip-rule="evenodd" d="M457.285 122.733L470.177 123.63L454.288 122.601L457.285 122.733Z" fill="url(#paint62_linear_3997_64)"/>
<path style="mix-blend-mode:multiply" opacity="0.5" fill-rule="evenodd" clip-rule="evenodd" d="M482.338 125.788L470.177 123.63L471.013 111.98H482.129V112.279L482.233 118.254V118.917L482.338 125.456V125.788Z" fill="url(#paint63_linear_3997_64)"/>
<path style="mix-blend-mode:multiply" opacity="0.5" fill-rule="evenodd" clip-rule="evenodd" d="M440.873 175.839L437.005 176.104L434.984 165.782L427.458 163.492C427.458 163.492 426.726 138.3 424.74 139.329C422.719 140.358 421.952 160.704 421.952 160.704L414.565 158.082L416.237 134.45C419.234 135.744 427.771 137.57 437.005 139.296C437.005 139.296 436.97 139.296 436.935 139.296C434.949 139.993 440.873 175.805 440.873 175.805V175.839Z" fill="url(#paint64_linear_3997_64)"/>
<path fill-rule="evenodd" clip-rule="evenodd" d="M466.344 175.143H461.988L461.292 143.479C462.197 143.612 463.034 143.745 463.765 143.877C462.894 148.458 466.344 175.143 466.344 175.143Z" fill="url(#paint65_linear_3997_64)"/>
<path style="mix-blend-mode:multiply" opacity="0.5" fill-rule="evenodd" clip-rule="evenodd" d="M542.655 192.534C563.667 195.355 574.12 197.479 576.56 198.94C578.999 200.367 571.96 238.636 571.96 238.636C571.96 238.636 562.691 209.76 560.67 200.3L540.53 193.098L542.655 192.534Z" fill="url(#paint66_linear_3997_64)"/>
<path style="mix-blend-mode:multiply" opacity="0.5" fill-rule="evenodd" clip-rule="evenodd" d="M348.499 199.238C346.513 199.238 306.232 216.531 306.232 216.531V323.836C306.232 323.836 308.044 290.214 308.776 288.721C309.507 287.227 311.18 216.929 311.18 216.929L348.499 199.238Z" fill="url(#paint67_linear_3997_64)"/>
<path style="mix-blend-mode:multiply" opacity="0.5" fill-rule="evenodd" clip-rule="evenodd" d="M331.459 196.749L279.889 215.535C279.889 215.535 279.366 213.875 278.564 222.704C277.763 231.533 284.767 331.338 284.767 331.338L279.854 330.342C279.854 330.342 271.073 218.688 274.104 213.178C274.627 212.216 331.39 196.749 331.39 196.749H331.459Z" fill="url(#paint68_linear_3997_64)"/>
<path style="mix-blend-mode:multiply" opacity="0.5" fill-rule="evenodd" clip-rule="evenodd" d="M467.913 128.177C444.636 131.33 430.907 138.134 430.907 138.134L439.479 176.105L440.908 175.839C440.908 175.839 434.427 139.363 439.828 136.774C450.49 131.662 467.948 128.177 467.948 128.177H467.913Z" fill="url(#paint69_linear_3997_64)"/>
<path style="mix-blend-mode:multiply" opacity="0.5" fill-rule="evenodd" clip-rule="evenodd" d="M551.89 169.035C554.991 178.727 553.319 188.153 553.319 188.153C553.319 188.153 554.294 171.657 550.879 170.595C547.5 169.533 542.691 192.534 542.691 192.534C542.691 192.534 545.444 172.288 546.384 170.363C546.663 169.799 551.89 169.035 551.89 169.035Z" fill="url(#paint70_linear_3997_64)"/>
<path style="mix-blend-mode:multiply" opacity="0.5" fill-rule="evenodd" clip-rule="evenodd" d="M470.456 101.724C462.651 103.416 455.089 105.408 455.089 105.408C455.089 105.408 462.407 103.582 470.456 101.724Z" fill="url(#paint71_linear_3997_64)"/>
<path style="mix-blend-mode:multiply" opacity="0.5" fill-rule="evenodd" clip-rule="evenodd" d="M490.631 98.0733C488.749 97.7082 479.202 99.7328 470.456 101.724C477.634 100.164 484.986 99.8987 486.868 99.4341C495.544 97.3099 474.184 111.516 473.766 111.98C473.766 111.98 472.999 118.519 473.313 124.427H473.801C473.801 124.427 472.686 112.81 475.996 113.275C477.773 113.507 478.818 125.389 478.818 125.389H480.038C478.54 120.875 477.459 113.673 477.076 111.98C483.174 103.55 493.976 98.7039 490.596 98.0733H490.631Z" fill="url(#paint72_linear_3997_64)"/>
<path fill-rule="evenodd" clip-rule="evenodd" d="M456.693 122.767C457.773 120.51 459.794 123.132 459.794 123.132C459.794 123.132 467.948 121.174 466.38 123.63C466.38 123.63 471.851 120.278 473.872 120.212C475.893 120.145 477.879 124.394 477.879 124.394C477.879 124.394 479.447 122.834 480.876 123.664C482.339 124.493 482.339 125.755 482.339 125.755C482.339 125.755 456.24 123.597 456.658 122.734L456.693 122.767Z" fill="url(#paint73_linear_3997_64)"/>
<path fill-rule="evenodd" clip-rule="evenodd" d="M540.565 193.131C543.841 187.423 545.026 190.509 545.026 190.509C545.026 190.509 545.27 185.398 546.594 185.63C547.918 185.863 546.594 190.277 546.594 190.277C546.594 190.277 548.615 187.821 549.939 187.987C549.939 187.987 549.59 185.63 550.88 185.63C552.204 185.63 555.828 187.29 555.828 187.29C555.828 187.29 557.918 183.606 560.427 184.17C560.427 184.17 563.075 182.477 563.668 183.041C564.26 183.606 564.852 186.427 564.504 186.36C564.156 186.327 540.565 193.165 540.565 193.165V193.131Z" fill="url(#paint74_linear_3997_64)"/>
<path fill-rule="evenodd" clip-rule="evenodd" d="M565.235 243.946C565.653 238.569 569.835 241.822 569.835 241.822C569.835 241.822 570.915 238.337 573.18 238.636C575.445 238.935 578.198 242.586 578.198 242.586C578.198 242.586 581.508 240.262 583.912 241.291C583.912 241.291 584.156 237.906 585.829 238.636C587.501 239.366 589.278 242.851 589.278 242.851L565.235 243.98V243.946Z" fill="url(#paint75_linear_3997_64)"/>
<path fill-rule="evenodd" clip-rule="evenodd" d="M640.152 187.057C640.152 187.057 628.688 189.082 622.625 187.057L619.768 183.373C619.768 183.373 616.283 183.008 611.022 181.116C611.022 181.116 607.363 176.303 607.363 172.121C607.363 171.524 607.432 170.926 607.607 170.362C609.001 165.915 626.597 154.464 635.169 151.842C642.87 149.485 650.013 147.593 651.372 149.452C651.546 149.651 651.616 149.917 651.616 150.215C651.616 153.269 644.438 168.636 644.438 168.636C644.438 168.636 653.045 169.134 653.742 172.287C654.473 175.44 640.152 187.024 640.152 187.024V187.057Z" fill="url(#paint76_radial_3997_64)"/>
<g style="mix-blend-mode:soft-light" opacity="0.38">
<path fill-rule="evenodd" clip-rule="evenodd" d="M651.372 149.452C651.372 149.618 651.372 149.784 651.337 149.983C650.257 155.758 624.75 176.37 607.363 172.121C607.363 171.524 607.432 170.926 607.607 170.362C609.001 165.915 626.597 154.464 635.169 151.842C642.87 149.485 650.013 147.593 651.372 149.452Z" fill="#ECFFB8"/>
</g>
<g style="mix-blend-mode:soft-light" opacity="0.38">
<path fill-rule="evenodd" clip-rule="evenodd" d="M653.741 172.321C652.661 176.337 626.666 183.473 621.021 177.1C619.593 175.507 644.402 168.637 644.402 168.637C644.402 168.637 653.009 169.135 653.706 172.288L653.741 172.321Z" fill="#ECFFB8"/>
</g>
<path style="mix-blend-mode:multiply" opacity="0.5" fill-rule="evenodd" clip-rule="evenodd" d="M621.057 177.1C620.464 179.789 619.732 183.373 619.732 183.373L622.59 187.057C622.59 187.057 624.715 187.788 627.12 187.854C627.12 187.854 622.137 187.323 621.405 183.074C620.673 178.826 621.057 177.1 621.057 177.1Z" fill="url(#paint77_linear_3997_64)"/>
</g>
<path fill-rule="evenodd" clip-rule="evenodd" d="M493.661 20.9375C493.661 20.9375 523.523 23.7919 540.039 23.0949L536.241 20.9375C536.241 20.9375 536.52 1.12258 526.206 0.0604764C513.487 -1.23396 503.278 18.6805 503.278 18.6805C503.278 18.6805 500.978 11.5113 496.065 13.5359C491.152 15.5606 493.626 20.9707 493.626 20.9707L493.661 20.9375Z" fill="url(#paint78_linear_3997_64)"/>
<path fill-rule="evenodd" clip-rule="evenodd" d="M493.662 20.9371C499.063 20.1073 503.697 19.875 503.697 19.875L502.443 20.4061C502.443 20.4061 528.089 20.5388 540.076 23.0945C540.076 23.0945 530.668 23.4264 513.768 22.4971C496.868 21.5677 493.697 20.9703 493.697 20.9703L493.662 20.9371Z" fill="url(#paint79_linear_3997_64)"/>
<path fill-rule="evenodd" clip-rule="evenodd" d="M503.662 19.875C503.662 19.875 502.686 12.5731 497.599 13.1705C492.512 13.7347 492.442 17.6513 493.661 20.9371L503.697 19.875H503.662Z" fill="url(#paint80_linear_3997_64)"/>
<path fill-rule="evenodd" clip-rule="evenodd" d="M431.777 384.311C431.777 384.311 473.626 385.207 484.149 383.381C484.149 383.381 477.494 380.693 476.065 380.029C474.636 379.365 469.34 362.803 457.005 366.487C444.67 370.171 440.732 381.224 440.732 381.224C440.732 381.224 434.286 377.34 431.812 384.311H431.777Z" fill="url(#paint81_linear_3997_64)"/>
<path fill-rule="evenodd" clip-rule="evenodd" d="M439.756 380.759C438.363 384.444 432.439 382.817 432.439 382.817L431.777 384.311C431.777 384.311 472.999 385.738 483.278 383.514L476.065 380.029L477.11 382.386C477.11 382.386 462.545 384.344 442.37 382.386L440.697 381.191L439.756 380.726V380.759Z" fill="url(#paint82_linear_3997_64)"/>
<path fill-rule="evenodd" clip-rule="evenodd" d="M470.942 45.6649C470.942 45.6649 470.733 45.7976 470.42 45.8972H470.35C468.016 46.727 457.945 49.3491 422.822 51.0086C385.746 52.7345 360.449 54.3941 342.155 49.0835C342.155 49.0835 346.859 41.3833 351.738 40.3212C356.616 39.2922 358.393 45.2998 358.393 45.2998C370.171 26.5802 383.586 5.50404 411.009 5.20532C429.756 5.00618 432.09 22.2654 432.09 22.2654C432.09 22.2654 441.708 23.8917 443.694 26.5802C447.945 32.289 445.715 40.0556 445.715 40.0556L470.942 45.6649Z" fill="url(#paint83_linear_3997_64)"/>
<path fill-rule="evenodd" clip-rule="evenodd" d="M470.942 45.665L470.42 45.8973H470.35C468.016 46.7271 457.945 49.3491 422.822 51.0087C385.746 52.7346 360.449 54.3942 342.155 49.0836C355.083 46.362 397.594 49.4819 398.569 49.5483C398.221 49.5151 392.367 48.9177 388.29 47.8888C388.29 47.8888 411.288 40.4872 442.404 44.4701L438.188 47.2913C438.188 47.2913 461.29 47.1586 470.942 45.6982V45.665Z" fill="url(#paint84_linear_3997_64)"/>
<path fill-rule="evenodd" clip-rule="evenodd" d="M388.291 47.8882C394.075 41.6483 407.699 24.7542 432.091 22.2981C456.482 19.8088 446.621 41.6815 442.405 44.4695C442.405 44.4695 438.92 42.7104 419.268 43.3742C399.615 44.0048 388.291 47.8882 388.291 47.8882Z" fill="url(#paint85_linear_3997_64)"/>
<path fill-rule="evenodd" clip-rule="evenodd" d="M262.152 343.386C276.961 352.414 348.394 350.323 367.384 347.435L356.757 341.56C356.757 341.56 366.548 322.31 349.857 306.08C339.648 296.189 310.622 328.981 310.622 328.981C310.622 328.981 301.911 324.268 294.837 324.666C287.729 325.065 280.516 330.408 280.516 330.408C280.516 330.408 276.508 328.384 273.268 328.915C270.027 329.446 267.275 340.93 267.275 340.93L262.222 343.386H262.152Z" fill="url(#paint86_linear_3997_64)"/>
<path fill-rule="evenodd" clip-rule="evenodd" d="M262.152 343.386C266.055 341.461 282.85 339.171 297.311 340.697L290.133 343.386C290.133 343.386 303.618 342.822 317.173 343.386L305.081 340.2C305.081 340.2 330.1 338.142 356.722 341.56L336.024 344.614C336.024 344.614 354.701 345.643 367.384 347.435C367.384 347.435 356.652 350.256 313.305 350.256C269.958 350.256 262.152 343.353 262.152 343.353V343.386Z" fill="url(#paint87_linear_3997_64)"/>
<path fill-rule="evenodd" clip-rule="evenodd" d="M305.116 340.234C311.945 319.257 331.18 300.305 345.71 303.226C360.241 306.114 362.993 334.093 356.756 341.595C356.756 341.595 351.669 340.234 329.891 339.703C308.112 339.205 305.116 340.234 305.116 340.234Z" fill="url(#paint88_linear_3997_64)"/>
<path fill-rule="evenodd" clip-rule="evenodd" d="M297.311 340.73C295.151 336.116 279.435 324.998 273.198 328.947C266.961 332.897 267.205 340.962 267.205 340.962L262.152 343.418C262.152 343.418 270.515 341.095 281.108 340.232C291.701 339.369 297.311 340.73 297.311 340.73Z" fill="url(#paint89_linear_3997_64)"/>
<path fill-rule="evenodd" clip-rule="evenodd" d="M483.418 368.646C483.418 368.646 564.886 379.134 610.846 371.832L598.859 368.646C598.859 368.646 596.316 335.588 585.932 332.434C575.548 329.281 561.645 342.558 561.645 342.558C561.645 342.558 551.191 335.654 539.379 335.388C529.831 335.156 524.988 348.167 524.988 348.167C524.988 348.167 511.085 343.056 501.189 363.269L505.022 367.119L483.348 368.646H483.418Z" fill="url(#paint90_linear_3997_64)"/>
<path fill-rule="evenodd" clip-rule="evenodd" d="M501.223 363.267C522.862 360.147 540.075 362.703 540.075 362.703L530.528 366.122C530.528 366.122 547.114 366.819 558.473 366.122L546.626 360.147C546.626 360.147 580.356 362.205 596.663 365.425C606.35 367.35 610.811 371.831 610.811 371.831C610.811 371.831 576.244 380.029 483.382 368.644L505.056 367.118L501.223 363.267Z" fill="url(#paint91_linear_3997_64)"/>
<path fill-rule="evenodd" clip-rule="evenodd" d="M540.111 362.736C540.007 357.625 530.703 345.012 517.567 348C504.43 350.987 501.259 363.301 501.259 363.301C501.259 363.301 508.298 362.006 521.818 361.741C537.986 361.409 540.146 362.77 540.146 362.77L540.111 362.736Z" fill="url(#paint92_linear_3997_64)"/>
<path fill-rule="evenodd" clip-rule="evenodd" d="M546.661 360.181C546.661 360.181 565.163 329.314 582.83 331.206C600.496 333.097 610.845 371.864 610.845 371.864C610.845 371.864 593.179 363.301 546.661 360.181Z" fill="url(#paint93_linear_3997_64)"/>
<path d="M66.7188 324.885L65.2832 340.061L36.5039 342.316L37.5977 293.508H55.3711L52.8418 324.885H66.7188ZM118.271 316.818C118.271 318.892 118.032 320.897 117.554 322.834C117.075 324.748 116.38 326.548 115.469 328.234C114.58 329.921 113.486 331.47 112.187 332.883C110.911 334.273 109.464 335.469 107.846 336.472C106.251 337.474 104.508 338.26 102.617 338.83C100.726 339.377 98.7205 339.65 96.6014 339.65C94.5506 339.65 92.591 339.388 90.7225 338.864C88.8768 338.34 87.145 337.611 85.5271 336.677C83.9093 335.72 82.4396 334.58 81.118 333.259C79.8191 331.914 78.7026 330.433 77.7684 328.815C76.8569 327.175 76.1391 325.42 75.615 323.552C75.1137 321.683 74.8631 319.735 74.8631 317.707C74.8631 315.725 75.1023 313.788 75.5809 311.896C76.0594 309.982 76.743 308.182 77.6316 306.496C78.5431 304.81 79.6368 303.26 80.9129 301.848C82.1889 300.435 83.6131 299.216 85.1854 298.19C86.7804 297.165 88.5008 296.368 90.3465 295.798C92.1922 295.228 94.1404 294.943 96.1912 294.943C99.4952 294.943 102.503 295.456 105.215 296.481C107.949 297.507 110.273 298.977 112.187 300.891C114.124 302.782 115.617 305.083 116.665 307.795C117.736 310.484 118.271 313.492 118.271 316.818ZM103.096 317.707C103.096 316.727 102.947 315.782 102.651 314.87C102.378 313.936 101.968 313.116 101.421 312.409C100.874 311.68 100.19 311.099 99.3699 310.666C98.5724 310.21 97.6495 309.982 96.6014 309.982C95.5304 309.982 94.5734 310.176 93.7303 310.563C92.8872 310.951 92.158 311.486 91.5428 312.17C90.9503 312.831 90.4946 313.617 90.1756 314.528C89.8566 315.417 89.6971 316.363 89.6971 317.365C89.6971 318.322 89.8338 319.279 90.1072 320.236C90.3807 321.193 90.7908 322.059 91.3377 322.834C91.8846 323.609 92.5568 324.235 93.3543 324.714C94.1746 325.192 95.1202 325.432 96.1912 325.432C97.2622 325.432 98.2192 325.227 99.0623 324.816C99.9282 324.383 100.657 323.814 101.25 323.107C101.842 322.378 102.298 321.547 102.617 320.612C102.936 319.678 103.096 318.71 103.096 317.707ZM160.971 296.311L159.741 310.734C159.08 310.552 158.431 310.427 157.793 310.358C157.155 310.29 156.505 310.256 155.844 310.256C154.226 310.256 152.677 310.461 151.196 310.871C149.738 311.281 148.439 311.908 147.299 312.751C146.183 313.594 145.283 314.665 144.599 315.964C143.938 317.24 143.608 318.755 143.608 320.51C143.608 321.786 143.79 322.902 144.155 323.859C144.542 324.794 145.078 325.58 145.761 326.218C146.468 326.833 147.311 327.3 148.291 327.619C149.293 327.938 150.398 328.098 151.606 328.098C152.449 328.098 153.315 328.018 154.204 327.858C155.092 327.676 155.981 327.437 156.87 327.141C157.758 326.844 158.613 326.503 159.433 326.115C160.254 325.728 161.017 325.318 161.723 324.885L161.176 340.949C160.288 341.405 159.331 341.815 158.305 342.18C157.28 342.521 156.22 342.818 155.127 343.068C154.056 343.342 152.973 343.547 151.879 343.684C150.809 343.82 149.783 343.889 148.803 343.889C145.568 343.889 142.617 343.285 139.951 342.077C137.308 340.869 135.029 339.229 133.115 337.155C131.224 335.059 129.754 332.632 128.706 329.875C127.657 327.118 127.133 324.178 127.133 321.057C127.133 317.32 127.657 313.833 128.706 310.598C129.777 307.362 131.338 304.559 133.388 302.189C135.462 299.797 138.014 297.928 141.045 296.584C144.098 295.217 147.596 294.533 151.538 294.533C153.11 294.533 154.705 294.659 156.323 294.909C157.941 295.16 159.49 295.627 160.971 296.311ZM215.053 340.061L198.1 342.248L196.049 334.523H188.256L186.547 342.248L169.116 340.539L182.719 295.012L201.723 294.055L215.053 340.061ZM194.819 324.064L192.221 312.17L189.692 324.064H194.819ZM253.446 324.885L252.011 340.061L223.232 342.316L224.325 293.508H242.099L239.57 324.885H253.446Z" fill="white"/>
<defs>
<filter id="filter0_d_3997_64" x="0.9" y="55.9039" width="652.64" height="353.967" filterUnits="userSpaceOnUse" color-interpolation-filters="sRGB">
<feFlood flood-opacity="0" result="BackgroundImageFix"/>
<feColorMatrix in="SourceAlpha" type="matrix" values="0 0 0 0 0 0 0 0 0 0 0 0 0 0 0 0 0 0 127 0" result="hardAlpha"/>
<feOffset dy="4"/>
<feGaussianBlur stdDeviation="5.55"/>
<feComposite in2="hardAlpha" operator="out"/>
<feColorMatrix type="matrix" values="0 0 0 0 0 0 0 0 0 0 0 0 0 0 0 0 0 0 0.6 0"/>
<feBlend mode="normal" in2="BackgroundImageFix" result="effect1_dropShadow_3997_64"/>
<feBlend mode="normal" in="SourceGraphic" in2="effect1_dropShadow_3997_64" result="shape"/>
</filter>
<filter id="filter1_d_3997_64" x="204.668" y="20.2169" width="464.432" height="363.113" filterUnits="userSpaceOnUse" color-interpolation-filters="sRGB">
<feFlood flood-opacity="0" result="BackgroundImageFix"/>
<feColorMatrix in="SourceAlpha" type="matrix" values="0 0 0 0 0 0 0 0 0 0 0 0 0 0 0 0 0 0 127 0" result="hardAlpha"/>
<feOffset dy="4"/>
<feGaussianBlur stdDeviation="3.55"/>
<feComposite in2="hardAlpha" operator="out"/>
<feColorMatrix type="matrix" values="0 0 0 0 0 0 0 0 0 0 0 0 0 0 0 0 0 0 0.25 0"/>
<feBlend mode="normal" in2="BackgroundImageFix" result="effect1_dropShadow_3997_64"/>
<feBlend mode="normal" in="SourceGraphic" in2="effect1_dropShadow_3997_64" result="shape"/>
</filter>
<linearGradient id="paint0_linear_3997_64" x1="327.22" y1="63.0039" x2="327.22" y2="394.771" gradientUnits="userSpaceOnUse">
<stop stop-color="#494B14"/>
<stop offset="1" stop-color="#A7AA28"/>
</linearGradient>
<linearGradient id="paint1_linear_3997_64" x1="211.766" y1="243.946" x2="637.676" y2="243.946" gradientUnits="userSpaceOnUse">
<stop stop-color="#871344"/>
<stop offset="1" stop-color="#6E1D41"/>
</linearGradient>
<linearGradient id="paint2_linear_3997_64" x1="263.791" y1="247.066" x2="400.941" y2="247.066" gradientUnits="userSpaceOnUse">
<stop stop-color="#493D6F"/>
<stop offset="1" stop-color="#3B2A50"/>
</linearGradient>
<linearGradient id="paint3_linear_3997_64" x1="418.12" y1="247" x2="637.679" y2="247" gradientUnits="userSpaceOnUse">
<stop stop-color="#493D6F"/>
<stop offset="1" stop-color="#3B2A50"/>
</linearGradient>
<linearGradient id="paint4_linear_3997_64" x1="245.079" y1="274.15" x2="352.262" y2="274.15" gradientUnits="userSpaceOnUse">
<stop stop-color="#871344"/>
<stop offset="1" stop-color="#6E1D41"/>
</linearGradient>
<linearGradient id="paint5_linear_3997_64" x1="268.705" y1="275.245" x2="348.5" y2="275.245" gradientUnits="userSpaceOnUse">
<stop stop-color="#493D6F"/>
<stop offset="1" stop-color="#3B2A50"/>
</linearGradient>
<radialGradient id="paint6_radial_3997_64" cx="0" cy="0" r="1" gradientUnits="userSpaceOnUse" gradientTransform="translate(297.298 244.982) scale(48.6088 46.3012)">
<stop stop-color="#A19F26"/>
<stop offset="0.51" stop-color="#82861F"/>
<stop offset="1" stop-color="#616B19"/>
</radialGradient>
<linearGradient id="paint7_linear_3997_64" x1="473.278" y1="276.241" x2="600.742" y2="276.241" gradientUnits="userSpaceOnUse">
<stop stop-color="#871344"/>
<stop offset="1" stop-color="#6E1D41"/>
</linearGradient>
<linearGradient id="paint8_linear_3997_64" x1="485.823" y1="276.241" x2="600.741" y2="276.241" gradientUnits="userSpaceOnUse">
<stop stop-color="#493D6F"/>
<stop offset="1" stop-color="#3B2A50"/>
</linearGradient>
<radialGradient id="paint9_radial_3997_64" cx="0" cy="0" r="1" gradientUnits="userSpaceOnUse" gradientTransform="translate(536.828 223.295) scale(75.2652 71.6921)">
<stop stop-color="#A19F26"/>
<stop offset="0.51" stop-color="#82861F"/>
<stop offset="1" stop-color="#616B19"/>
</radialGradient>
<linearGradient id="paint10_linear_3997_64" x1="473.278" y1="260.077" x2="600.741" y2="260.077" gradientUnits="userSpaceOnUse">
<stop stop-color="#006633"/>
<stop offset="1" stop-color="#3B2A50"/>
</linearGradient>
<radialGradient id="paint11_radial_3997_64" cx="0" cy="0" r="1" gradientUnits="userSpaceOnUse" gradientTransform="translate(404.237 249.701) scale(42.7757 40.745)">
<stop stop-color="#A19F26"/>
<stop offset="0.51" stop-color="#82861F"/>
<stop offset="1" stop-color="#616B19"/>
</radialGradient>
<linearGradient id="paint12_linear_3997_64" x1="397.735" y1="331.936" x2="468.191" y2="331.936" gradientUnits="userSpaceOnUse">
<stop stop-color="#871344"/>
<stop offset="1" stop-color="#6E1D41"/>
</linearGradient>
<linearGradient id="paint13_linear_3997_64" x1="434.985" y1="333.263" x2="468.192" y2="333.263" gradientUnits="userSpaceOnUse">
<stop stop-color="#493D6F"/>
<stop offset="1" stop-color="#3B2A50"/>
</linearGradient>
<radialGradient id="paint14_radial_3997_64" cx="0" cy="0" r="1" gradientUnits="userSpaceOnUse" gradientTransform="translate(430.894 290.506) scale(43.9674 41.8802)">
<stop stop-color="#A19F26"/>
<stop offset="0.51" stop-color="#82861F"/>
<stop offset="1" stop-color="#616B19"/>
</radialGradient>
<linearGradient id="paint15_linear_3997_64" x1="245.079" y1="257.587" x2="349.858" y2="257.587" gradientUnits="userSpaceOnUse">
<stop stop-color="#006633"/>
<stop offset="1" stop-color="#3B2A50"/>
</linearGradient>
<linearGradient id="paint16_linear_3997_64" x1="360.137" y1="263.395" x2="448.573" y2="263.395" gradientUnits="userSpaceOnUse">
<stop stop-color="#006633"/>
<stop offset="1" stop-color="#3B2A50"/>
</linearGradient>
<linearGradient id="paint17_linear_3997_64" x1="391.637" y1="310.394" x2="470.422" y2="310.394" gradientUnits="userSpaceOnUse">
<stop stop-color="#006633"/>
<stop offset="1" stop-color="#3B2A50"/>
</linearGradient>
<linearGradient id="paint18_linear_3997_64" x1="476.205" y1="269.304" x2="478.749" y2="269.304" gradientUnits="userSpaceOnUse">
<stop stop-color="#006633"/>
<stop offset="1" stop-color="#3B2A50"/>
</linearGradient>
<linearGradient id="paint19_linear_3997_64" x1="384.563" y1="352.58" x2="408.09" y2="255.183" gradientUnits="userSpaceOnUse">
<stop stop-color="#653AB5"/>
<stop offset="1" stop-color="#5C2295"/>
</linearGradient>
<linearGradient id="paint20_linear_3997_64" x1="384.563" y1="352.58" x2="408.09" y2="255.183" gradientUnits="userSpaceOnUse">
<stop stop-color="#433FFF"/>
<stop offset="1"/>
</linearGradient>
<radialGradient id="paint21_radial_3997_64" cx="0" cy="0" r="1" gradientUnits="userSpaceOnUse" gradientTransform="translate(373.753 208.538) scale(221.28 210.775)">
<stop stop-color="#E0E02D"/>
<stop offset="0.23" stop-color="#C1C325"/>
<stop offset="0.74" stop-color="#747911"/>
<stop offset="1" stop-color="#4A5207"/>
</radialGradient>
<radialGradient id="paint22_radial_3997_64" cx="0" cy="0" r="1" gradientUnits="userSpaceOnUse" gradientTransform="translate(571.011 29.3077) scale(54.0655 51.4988)">
<stop stop-color="#8F8E14"/>
<stop offset="0.38" stop-color="#70710E"/>
<stop offset="1" stop-color="#373D05"/>
</radialGradient>
<linearGradient id="paint23_linear_3997_64" x1="560.181" y1="53.6636" x2="560.181" y2="102.952" gradientUnits="userSpaceOnUse">
<stop stop-color="white"/>
<stop offset="1" stop-color="#5C2295"/>
</linearGradient>
<linearGradient id="paint24_linear_3997_64" x1="586.456" y1="53.6641" x2="586.456" y2="102.952" gradientUnits="userSpaceOnUse">
<stop stop-color="white"/>
<stop offset="1" stop-color="#5C2295"/>
</linearGradient>
<linearGradient id="paint25_linear_3997_64" x1="614.644" y1="53.6635" x2="614.644" y2="102.952" gradientUnits="userSpaceOnUse">
<stop stop-color="white"/>
<stop offset="1" stop-color="#5C2295"/>
</linearGradient>
<linearGradient id="paint26_linear_3997_64" x1="644.89" y1="53.6628" x2="644.89" y2="102.951" gradientUnits="userSpaceOnUse">
<stop stop-color="white"/>
<stop offset="1" stop-color="#5C2295"/>
</linearGradient>
<linearGradient id="paint27_linear_3997_64" x1="613.286" y1="53.6632" x2="613.286" y2="102.952" gradientUnits="userSpaceOnUse">
<stop stop-color="white"/>
<stop offset="1" stop-color="#5C2295"/>
</linearGradient>
<linearGradient id="paint28_linear_3997_64" x1="591.786" y1="37.9972" x2="590.11" y2="100.865" gradientUnits="userSpaceOnUse">
<stop stop-color="white"/>
<stop offset="1" stop-color="#5C2295"/>
</linearGradient>
<linearGradient id="paint29_linear_3997_64" x1="456.101" y1="215.07" x2="456.101" y2="72.8473" gradientUnits="userSpaceOnUse">
<stop stop-color="#871344"/>
<stop offset="1" stop-color="#6E1D41"/>
</linearGradient>
<linearGradient id="paint30_linear_3997_64" x1="497.287" y1="111.083" x2="540.983" y2="111.083" gradientUnits="userSpaceOnUse">
<stop stop-color="#493D6F"/>
<stop offset="1" stop-color="#3B2A50"/>
</linearGradient>
<linearGradient id="paint31_linear_3997_64" x1="524.885" y1="121.937" x2="607.607" y2="121.937" gradientUnits="userSpaceOnUse">
<stop stop-color="#493D6F"/>
<stop offset="1" stop-color="#3B2A50"/>
</linearGradient>
<linearGradient id="paint32_linear_3997_64" x1="438.19" y1="191.836" x2="496.381" y2="191.836" gradientUnits="userSpaceOnUse">
<stop stop-color="#493D6F"/>
<stop offset="1" stop-color="#3B2A50"/>
</linearGradient>
<linearGradient id="paint33_linear_3997_64" x1="317.87" y1="177.73" x2="437.006" y2="177.73" gradientUnits="userSpaceOnUse">
<stop stop-color="#493D6F"/>
<stop offset="1" stop-color="#3B2A50"/>
</linearGradient>
<linearGradient id="paint34_linear_3997_64" x1="487.949" y1="156.721" x2="588.442" y2="156.721" gradientUnits="userSpaceOnUse">
<stop stop-color="#493D6F"/>
<stop offset="1" stop-color="#3B2A50"/>
</linearGradient>
<linearGradient id="paint35_linear_3997_64" x1="377.455" y1="136.773" x2="453.94" y2="136.773" gradientUnits="userSpaceOnUse">
<stop stop-color="#493D6F"/>
<stop offset="1" stop-color="#3B2A50"/>
</linearGradient>
<linearGradient id="paint36_linear_3997_64" x1="513.735" y1="155.492" x2="657.018" y2="155.492" gradientUnits="userSpaceOnUse">
<stop stop-color="#493D6F"/>
<stop offset="1" stop-color="#3B2A50"/>
</linearGradient>
<linearGradient id="paint37_linear_3997_64" x1="434.985" y1="84.8626" x2="517.149" y2="84.8626" gradientUnits="userSpaceOnUse">
<stop stop-color="#493D6F"/>
<stop offset="1" stop-color="#3B2A50"/>
</linearGradient>
<radialGradient id="paint38_radial_3997_64" cx="0" cy="0" r="1" gradientUnits="userSpaceOnUse" gradientTransform="translate(425.312 151.304) scale(185.278 176.482)">
<stop stop-color="#A19F26"/>
<stop offset="0.51" stop-color="#82861F"/>
<stop offset="1" stop-color="#616B19"/>
</radialGradient>
<radialGradient id="paint39_radial_3997_64" cx="0" cy="0" r="1" gradientUnits="userSpaceOnUse" gradientTransform="translate(358.136 81.4052) scale(129.143 123.012)">
<stop stop-color="#CCCC33"/>
<stop offset="0.27" stop-color="#ADAF28"/>
<stop offset="0.84" stop-color="#60660E"/>
<stop offset="1" stop-color="#4A5207"/>
</radialGradient>
<radialGradient id="paint40_radial_3997_64" cx="0" cy="0" r="1" gradientUnits="userSpaceOnUse" gradientTransform="translate(425.31 177.353) scale(225.67 214.957)">
<stop stop-color="#A19F26"/>
<stop offset="0.51" stop-color="#82861F"/>
<stop offset="1" stop-color="#616B19"/>
</radialGradient>
<linearGradient id="paint41_linear_3997_64" x1="424.739" y1="74.8068" x2="487.948" y2="74.8068" gradientUnits="userSpaceOnUse">
<stop stop-color="#006633"/>
<stop offset="1" stop-color="#3B2A50"/>
</linearGradient>
<radialGradient id="paint42_radial_3997_64" cx="0" cy="0" r="1" gradientUnits="userSpaceOnUse" gradientTransform="translate(425.311 151.962) scale(197.885 188.491)">
<stop stop-color="#A19F26"/>
<stop offset="0.51" stop-color="#82861F"/>
<stop offset="1" stop-color="#616B19"/>
</radialGradient>
<radialGradient id="paint43_radial_3997_64" cx="0" cy="0" r="1" gradientUnits="userSpaceOnUse" gradientTransform="translate(426.376 147.182) scale(194.372 185.145)">
<stop stop-color="#A19F26"/>
<stop offset="0.51" stop-color="#82861F"/>
<stop offset="1" stop-color="#616B19"/>
</radialGradient>
<radialGradient id="paint44_radial_3997_64" cx="0" cy="0" r="1" gradientUnits="userSpaceOnUse" gradientTransform="translate(425.31 151.962) scale(197.885 188.49)">
<stop stop-color="#A19F26"/>
<stop offset="0.51" stop-color="#82861F"/>
<stop offset="1" stop-color="#616B19"/>
</radialGradient>
<radialGradient id="paint45_radial_3997_64" cx="0" cy="0" r="1" gradientUnits="userSpaceOnUse" gradientTransform="translate(419.165 151.961) scale(210.178 200.2)">
<stop stop-color="#A19F26"/>
<stop offset="0.51" stop-color="#82861F"/>
<stop offset="1" stop-color="#616B19"/>
</radialGradient>
<radialGradient id="paint46_radial_3997_64" cx="0" cy="0" r="1" gradientUnits="userSpaceOnUse" gradientTransform="translate(425.435 144.136) scale(208.485 198.587)">
<stop stop-color="#A19F26"/>
<stop offset="0.51" stop-color="#82861F"/>
<stop offset="1" stop-color="#616B19"/>
</radialGradient>
<linearGradient id="paint47_linear_3997_64" x1="211.768" y1="197.38" x2="640.153" y2="197.38" gradientUnits="userSpaceOnUse">
<stop stop-color="#006633"/>
<stop offset="1" stop-color="#3B2A50"/>
</linearGradient>
<radialGradient id="paint48_radial_3997_64" cx="0" cy="0" r="1" gradientUnits="userSpaceOnUse" gradientTransform="translate(238.278 176.934) scale(30.796 29.334)">
<stop stop-color="#A19F26"/>
<stop offset="0.38" stop-color="#82841B"/>
<stop offset="1" stop-color="#4A5207"/>
</radialGradient>
<linearGradient id="paint49_linear_3997_64" x1="238.806" y1="182.112" x2="244.694" y2="204.332" gradientUnits="userSpaceOnUse">
<stop stop-color="white"/>
<stop offset="1" stop-color="#5C2295"/>
</linearGradient>
<linearGradient id="paint50_linear_3997_64" x1="276.057" y1="172.255" x2="281.945" y2="194.475" gradientUnits="userSpaceOnUse">
<stop stop-color="white"/>
<stop offset="1" stop-color="#5C2295"/>
</linearGradient>
<linearGradient id="paint51_linear_3997_64" x1="379.825" y1="97.31" x2="467.286" y2="97.31" gradientUnits="userSpaceOnUse">
<stop stop-color="#006633"/>
<stop offset="1" stop-color="#3B2A50"/>
</linearGradient>
<linearGradient id="paint52_linear_3997_64" x1="455.091" y1="139.462" x2="529.485" y2="139.462" gradientUnits="userSpaceOnUse">
<stop stop-color="#006633"/>
<stop offset="1" stop-color="#3B2A50"/>
</linearGradient>
<linearGradient id="paint53_linear_3997_64" x1="410.559" y1="135.612" x2="659.457" y2="135.612" gradientUnits="userSpaceOnUse">
<stop stop-color="#493D6F"/>
<stop offset="1" stop-color="#3B2A50"/>
</linearGradient>
<linearGradient id="paint54_linear_3997_64" x1="441.606" y1="119.68" x2="514.154" y2="119.68" gradientUnits="userSpaceOnUse">
<stop stop-color="#493D6F"/>
<stop offset="1" stop-color="#3B2A50"/>
</linearGradient>
<linearGradient id="paint55_linear_3997_64" x1="300.936" y1="358.488" x2="300.936" y2="131.663" gradientUnits="userSpaceOnUse">
<stop stop-color="#9F9FFF"/>
<stop offset="0.05" stop-color="#A1A2FE"/>
<stop offset="0.3" stop-color="#ACB2FB"/>
<stop offset="0.6" stop-color="#B2BCF9"/>
<stop offset="0.99" stop-color="#B5BFF9"/>
</linearGradient>
<linearGradient id="paint56_linear_3997_64" x1="349.51" y1="358.488" x2="349.51" y2="131.662" gradientUnits="userSpaceOnUse">
<stop stop-color="#9F9FFF"/>
<stop offset="0.05" stop-color="#A1A2FE"/>
<stop offset="0.3" stop-color="#ACB2FB"/>
<stop offset="0.6" stop-color="#B2BCF9"/>
<stop offset="0.99" stop-color="#B5BFF9"/>
</linearGradient>
<linearGradient id="paint57_linear_3997_64" x1="522.689" y1="358.488" x2="522.689" y2="131.662" gradientUnits="userSpaceOnUse">
<stop stop-color="#9F9FFF"/>
<stop offset="0.05" stop-color="#A1A2FE"/>
<stop offset="0.3" stop-color="#ACB2FB"/>
<stop offset="0.6" stop-color="#B2BCF9"/>
<stop offset="0.99" stop-color="#B5BFF9"/>
</linearGradient>
<linearGradient id="paint58_linear_3997_64" x1="578.197" y1="358.487" x2="578.197" y2="131.662" gradientUnits="userSpaceOnUse">
<stop stop-color="#9F9FFF"/>
<stop offset="0.05" stop-color="#A1A2FE"/>
<stop offset="0.3" stop-color="#ACB2FB"/>
<stop offset="0.6" stop-color="#B2BCF9"/>
<stop offset="0.99" stop-color="#B5BFF9"/>
</linearGradient>
<linearGradient id="paint59_linear_3997_64" x1="601.648" y1="282.381" x2="607.224" y2="282.381" gradientUnits="userSpaceOnUse">
<stop stop-color="#9F9FFF"/>
<stop offset="0.05" stop-color="#A1A2FE"/>
<stop offset="0.3" stop-color="#ACB2FB"/>
<stop offset="0.6" stop-color="#B2BCF9"/>
<stop offset="0.99" stop-color="#B5BFF9"/>
</linearGradient>
<linearGradient id="paint60_linear_3997_64" x1="547.463" y1="358.489" x2="547.463" y2="131.663" gradientUnits="userSpaceOnUse">
<stop stop-color="#9F9FFF"/>
<stop offset="0.05" stop-color="#A1A2FE"/>
<stop offset="0.3" stop-color="#ACB2FB"/>
<stop offset="0.6" stop-color="#B2BCF9"/>
<stop offset="0.99" stop-color="#B5BFF9"/>
</linearGradient>
<linearGradient id="paint61_linear_3997_64" x1="446.657" y1="358.488" x2="446.657" y2="131.662" gradientUnits="userSpaceOnUse">
<stop stop-color="#9F9FFF"/>
<stop offset="0.05" stop-color="#A1A2FE"/>
<stop offset="0.3" stop-color="#ACB2FB"/>
<stop offset="0.6" stop-color="#B2BCF9"/>
<stop offset="0.99" stop-color="#B5BFF9"/>
</linearGradient>
<linearGradient id="paint62_linear_3997_64" x1="454.288" y1="123.132" x2="470.177" y2="123.132" gradientUnits="userSpaceOnUse">
<stop stop-color="#9F9FFF"/>
<stop offset="0.05" stop-color="#A1A2FE"/>
<stop offset="0.3" stop-color="#ACB2FB"/>
<stop offset="0.6" stop-color="#B2BCF9"/>
<stop offset="0.99" stop-color="#B5BFF9"/>
</linearGradient>
<linearGradient id="paint63_linear_3997_64" x1="476.275" y1="358.488" x2="476.275" y2="131.663" gradientUnits="userSpaceOnUse">
<stop stop-color="#9F9FFF"/>
<stop offset="0.05" stop-color="#A1A2FE"/>
<stop offset="0.3" stop-color="#ACB2FB"/>
<stop offset="0.6" stop-color="#B2BCF9"/>
<stop offset="0.99" stop-color="#B5BFF9"/>
</linearGradient>
<linearGradient id="paint64_linear_3997_64" x1="427.702" y1="358.488" x2="427.702" y2="131.662" gradientUnits="userSpaceOnUse">
<stop stop-color="#9F9FFF"/>
<stop offset="0.05" stop-color="#A1A2FE"/>
<stop offset="0.3" stop-color="#ACB2FB"/>
<stop offset="0.6" stop-color="#B2BCF9"/>
<stop offset="0.99" stop-color="#B5BFF9"/>
</linearGradient>
<linearGradient id="paint65_linear_3997_64" x1="461.326" y1="159.311" x2="466.344" y2="159.311" gradientUnits="userSpaceOnUse">
<stop stop-color="#9F9FFF"/>
<stop offset="0.05" stop-color="#A1A2FE"/>
<stop offset="0.3" stop-color="#ACB2FB"/>
<stop offset="0.6" stop-color="#B2BCF9"/>
<stop offset="0.99" stop-color="#B5BFF9"/>
</linearGradient>
<linearGradient id="paint66_linear_3997_64" x1="540.565" y1="215.601" x2="577.082" y2="215.601" gradientUnits="userSpaceOnUse">
<stop stop-color="#9F9FFF"/>
<stop offset="0.05" stop-color="#A1A2FE"/>
<stop offset="0.3" stop-color="#ACB2FB"/>
<stop offset="0.6" stop-color="#B2BCF9"/>
<stop offset="0.99" stop-color="#B5BFF9"/>
</linearGradient>
<linearGradient id="paint67_linear_3997_64" x1="327.383" y1="313.813" x2="327.383" y2="237.939" gradientUnits="userSpaceOnUse">
<stop stop-color="#9F9FFF"/>
<stop offset="0.05" stop-color="#A1A2FE"/>
<stop offset="0.3" stop-color="#ACB2FB"/>
<stop offset="0.6" stop-color="#B2BCF9"/>
<stop offset="0.99" stop-color="#B5BFF9"/>
</linearGradient>
<linearGradient id="paint68_linear_3997_64" x1="302.468" y1="320.517" x2="302.468" y2="238.569" gradientUnits="userSpaceOnUse">
<stop stop-color="#9F9FFF"/>
<stop offset="0.05" stop-color="#A1A2FE"/>
<stop offset="0.3" stop-color="#ACB2FB"/>
<stop offset="0.6" stop-color="#B2BCF9"/>
<stop offset="0.99" stop-color="#B5BFF9"/>
</linearGradient>
<linearGradient id="paint69_linear_3997_64" x1="449.41" y1="172.255" x2="449.41" y2="143.08" gradientUnits="userSpaceOnUse">
<stop stop-color="#9F9FFF"/>
<stop offset="0.05" stop-color="#A1A2FE"/>
<stop offset="0.3" stop-color="#ACB2FB"/>
<stop offset="0.6" stop-color="#B2BCF9"/>
<stop offset="0.99" stop-color="#B5BFF9"/>
</linearGradient>
<linearGradient id="paint70_linear_3997_64" x1="548.196" y1="190.642" x2="548.196" y2="176.337" gradientUnits="userSpaceOnUse">
<stop stop-color="#9F9FFF"/>
<stop offset="0.05" stop-color="#A1A2FE"/>
<stop offset="0.3" stop-color="#ACB2FB"/>
<stop offset="0.6" stop-color="#B2BCF9"/>
<stop offset="0.99" stop-color="#B5BFF9"/>
</linearGradient>
<linearGradient id="paint71_linear_3997_64" x1="462.79" y1="105.076" x2="462.79" y2="102.852" gradientUnits="userSpaceOnUse">
<stop stop-color="#9F9FFF"/>
<stop offset="0.05" stop-color="#A1A2FE"/>
<stop offset="0.3" stop-color="#ACB2FB"/>
<stop offset="0.6" stop-color="#B2BCF9"/>
<stop offset="0.99" stop-color="#B5BFF9"/>
</linearGradient>
<linearGradient id="paint72_linear_3997_64" x1="480.874" y1="123.199" x2="480.874" y2="106.537" gradientUnits="userSpaceOnUse">
<stop stop-color="#9F9FFF"/>
<stop offset="0.05" stop-color="#A1A2FE"/>
<stop offset="0.3" stop-color="#ACB2FB"/>
<stop offset="0.6" stop-color="#B2BCF9"/>
<stop offset="0.99" stop-color="#B5BFF9"/>
</linearGradient>
<linearGradient id="paint73_linear_3997_64" x1="456.658" y1="123" x2="482.339" y2="123" gradientUnits="userSpaceOnUse">
<stop stop-color="#DCD7FF"/>
<stop offset="0.07" stop-color="#E2DCFF"/>
<stop offset="0.33" stop-color="#F2EAFF"/>
<stop offset="0.62" stop-color="#FBF2FF"/>
<stop offset="1" stop-color="#FFF5FF"/>
</linearGradient>
<linearGradient id="paint74_linear_3997_64" x1="540.565" y1="187.987" x2="564.574" y2="187.987" gradientUnits="userSpaceOnUse">
<stop stop-color="#DCD7FF"/>
<stop offset="0.07" stop-color="#E2DCFF"/>
<stop offset="0.33" stop-color="#F2EAFF"/>
<stop offset="0.62" stop-color="#FBF2FF"/>
<stop offset="1" stop-color="#FFF5FF"/>
</linearGradient>
<linearGradient id="paint75_linear_3997_64" x1="565.235" y1="241.258" x2="589.278" y2="241.258" gradientUnits="userSpaceOnUse">
<stop stop-color="#DCD7FF"/>
<stop offset="0.07" stop-color="#E2DCFF"/>
<stop offset="0.33" stop-color="#F2EAFF"/>
<stop offset="0.62" stop-color="#FBF2FF"/>
<stop offset="1" stop-color="#FFF5FF"/>
</linearGradient>
<radialGradient id="paint76_radial_3997_64" cx="0" cy="0" r="1" gradientUnits="userSpaceOnUse" gradientTransform="translate(604.255 164.746) scale(30.2316 28.7963)">
<stop stop-color="#A19F26"/>
<stop offset="0.38" stop-color="#82841B"/>
<stop offset="1" stop-color="#4A5207"/>
</radialGradient>
<linearGradient id="paint77_linear_3997_64" x1="623.426" y1="170.196" x2="623.426" y2="193.729" gradientUnits="userSpaceOnUse">
<stop stop-color="white"/>
<stop offset="1" stop-color="#5C2295"/>
</linearGradient>
<linearGradient id="paint78_linear_3997_64" x1="471.639" y1="29.733" x2="471.639" y2="-7.90531" gradientUnits="userSpaceOnUse">
<stop stop-color="#C7B6FF"/>
<stop offset="0.19" stop-color="#CECBFF"/>
<stop offset="0.4" stop-color="#D4DBFF"/>
<stop offset="0.64" stop-color="#D7E4FF"/>
<stop offset="0.95" stop-color="#D9E8FF"/>
</linearGradient>
<linearGradient id="paint79_linear_3997_64" x1="463.835" y1="44.5025" x2="472.475" y2="15.7504" gradientUnits="userSpaceOnUse">
<stop stop-color="#9F9FFF"/>
<stop offset="0.05" stop-color="#A1A2FE"/>
<stop offset="0.3" stop-color="#ACB2FB"/>
<stop offset="0.6" stop-color="#B2BCF9"/>
<stop offset="0.99" stop-color="#B5BFF9"/>
</linearGradient>
<linearGradient id="paint80_linear_3997_64" x1="448.572" y1="17.0206" x2="459.444" y2="17.0206" gradientUnits="userSpaceOnUse">
<stop stop-color="#DCD7FF"/>
<stop offset="0.07" stop-color="#E2DCFF"/>
<stop offset="0.33" stop-color="#F2EAFF"/>
<stop offset="0.62" stop-color="#FBF2FF"/>
<stop offset="1" stop-color="#FFF5FF"/>
</linearGradient>
<linearGradient id="paint81_linear_3997_64" x1="480.031" y1="374.539" x2="532.074" y2="377.403" gradientUnits="userSpaceOnUse">
<stop stop-color="#C7B6FF"/>
<stop offset="0.19" stop-color="#CECBFF"/>
<stop offset="0.4" stop-color="#D4DBFF"/>
<stop offset="0.64" stop-color="#D7E4FF"/>
<stop offset="0.95" stop-color="#D9E8FF"/>
</linearGradient>
<linearGradient id="paint82_linear_3997_64" x1="486.867" y1="382.419" x2="538.298" y2="382.419" gradientUnits="userSpaceOnUse">
<stop stop-color="#9F9FFF"/>
<stop offset="0.05" stop-color="#A1A2FE"/>
<stop offset="0.3" stop-color="#ACB2FB"/>
<stop offset="0.6" stop-color="#B2BCF9"/>
<stop offset="0.99" stop-color="#B5BFF9"/>
</linearGradient>
<linearGradient id="paint83_linear_3997_64" x1="372.331" y1="64.1853" x2="372.331" y2="9.81884" gradientUnits="userSpaceOnUse">
<stop stop-color="#C7B6FF"/>
<stop offset="0.19" stop-color="#CECBFF"/>
<stop offset="0.4" stop-color="#D4DBFF"/>
<stop offset="0.64" stop-color="#D7E4FF"/>
<stop offset="0.95" stop-color="#D9E8FF"/>
</linearGradient>
<linearGradient id="paint84_linear_3997_64" x1="344.873" y1="130.102" x2="376.693" y2="24.3632" gradientUnits="userSpaceOnUse">
<stop stop-color="#9F9FFF"/>
<stop offset="0.05" stop-color="#A1A2FE"/>
<stop offset="0.3" stop-color="#ACB2FB"/>
<stop offset="0.6" stop-color="#B2BCF9"/>
<stop offset="0.99" stop-color="#B5BFF9"/>
</linearGradient>
<linearGradient id="paint85_linear_3997_64" x1="359.195" y1="120.244" x2="391.461" y2="12.9661" gradientUnits="userSpaceOnUse">
<stop stop-color="#DCD7FF"/>
<stop offset="0.07" stop-color="#E2DCFF"/>
<stop offset="0.33" stop-color="#F2EAFF"/>
<stop offset="0.62" stop-color="#FBF2FF"/>
<stop offset="1" stop-color="#FFF5FF"/>
</linearGradient>
<linearGradient id="paint86_linear_3997_64" x1="365.328" y1="353.177" x2="365.328" y2="288.953" gradientUnits="userSpaceOnUse">
<stop stop-color="#C7B6FF"/>
<stop offset="0.19" stop-color="#CECBFF"/>
<stop offset="0.4" stop-color="#D4DBFF"/>
<stop offset="0.64" stop-color="#D7E4FF"/>
<stop offset="0.95" stop-color="#D9E8FF"/>
</linearGradient>
<linearGradient id="paint87_linear_3997_64" x1="232.186" y1="370.237" x2="230.858" y2="338.169" gradientUnits="userSpaceOnUse">
<stop stop-color="#9F9FFF"/>
<stop offset="0.05" stop-color="#A1A2FE"/>
<stop offset="0.3" stop-color="#ACB2FB"/>
<stop offset="0.6" stop-color="#B2BCF9"/>
<stop offset="0.99" stop-color="#B5BFF9"/>
</linearGradient>
<linearGradient id="paint88_linear_3997_64" x1="222.394" y1="322.244" x2="280.097" y2="322.244" gradientUnits="userSpaceOnUse">
<stop stop-color="#DCD7FF"/>
<stop offset="0.07" stop-color="#E2DCFF"/>
<stop offset="0.33" stop-color="#F2EAFF"/>
<stop offset="0.62" stop-color="#FBF2FF"/>
<stop offset="1" stop-color="#FFF5FF"/>
</linearGradient>
<linearGradient id="paint89_linear_3997_64" x1="178.838" y1="335.751" x2="214.519" y2="335.751" gradientUnits="userSpaceOnUse">
<stop stop-color="#DCD7FF"/>
<stop offset="0.07" stop-color="#E2DCFF"/>
<stop offset="0.33" stop-color="#F2EAFF"/>
<stop offset="0.62" stop-color="#FBF2FF"/>
<stop offset="1" stop-color="#FFF5FF"/>
</linearGradient>
<linearGradient id="paint90_linear_3997_64" x1="600.602" y1="386.37" x2="600.602" y2="304.952" gradientUnits="userSpaceOnUse">
<stop stop-color="#C7B6FF"/>
<stop offset="0.19" stop-color="#CECBFF"/>
<stop offset="0.4" stop-color="#D4DBFF"/>
<stop offset="0.64" stop-color="#D7E4FF"/>
<stop offset="0.95" stop-color="#D9E8FF"/>
</linearGradient>
<linearGradient id="paint91_linear_3997_64" x1="536.66" y1="367.416" x2="664.507" y2="367.416" gradientUnits="userSpaceOnUse">
<stop stop-color="#9F9FFF"/>
<stop offset="0.05" stop-color="#A1A2FE"/>
<stop offset="0.3" stop-color="#ACB2FB"/>
<stop offset="0.6" stop-color="#B2BCF9"/>
<stop offset="0.99" stop-color="#B5BFF9"/>
</linearGradient>
<linearGradient id="paint92_linear_3997_64" x1="553.875" y1="355.401" x2="592.658" y2="355.401" gradientUnits="userSpaceOnUse">
<stop stop-color="#DCD7FF"/>
<stop offset="0.07" stop-color="#E2DCFF"/>
<stop offset="0.33" stop-color="#F2EAFF"/>
<stop offset="0.62" stop-color="#FBF2FF"/>
<stop offset="1" stop-color="#FFF5FF"/>
</linearGradient>
<linearGradient id="paint93_linear_3997_64" x1="598.928" y1="351.485" x2="664.506" y2="351.485" gradientUnits="userSpaceOnUse">
<stop stop-color="#DCD7FF"/>
<stop offset="0.07" stop-color="#E2DCFF"/>
<stop offset="0.33" stop-color="#F2EAFF"/>
<stop offset="0.62" stop-color="#FBF2FF"/>
<stop offset="1" stop-color="#FFF5FF"/>
</linearGradient>
</defs>
</svg>
