<svg width="44" height="44" viewBox="0 0 44 44" fill="none" xmlns="http://www.w3.org/2000/svg">
<mask id="mask0_3428_77" style="mask-type:luminance" maskUnits="userSpaceOnUse" x="0" y="0" width="44" height="44">
<path d="M34 2H10C7.87827 2 5.84344 2.84285 4.34315 4.34315C2.84285 5.84344 2 7.87827 2 10C2 12.1217 2.84285 14.1566 4.34315 15.6569C5.84344 17.1571 7.87827 18 10 18H34C36.1217 18 38.1566 17.1571 39.6569 15.6569C41.1571 14.1566 42 12.1217 42 10C42 7.87827 41.1571 5.84344 39.6569 4.34315C38.1566 2.84285 36.1217 2 34 2ZM34 26H10C7.87827 26 5.84344 26.8429 4.34315 28.3431C2.84285 29.8434 2 31.8783 2 34C2 36.1217 2.84285 38.1566 4.34315 39.6569C5.84344 41.1571 7.87827 42 10 42H34C36.1217 42 38.1566 41.1571 39.6569 39.6569C41.1571 38.1566 42 36.1217 42 34C42 31.8783 41.1571 29.8434 39.6569 28.3431C38.1566 26.8429 36.1217 26 34 26Z" fill="white" stroke="white" stroke-width="4" stroke-linejoin="round"/>
<path d="M34 12C34.5304 12 35.0391 11.7893 35.4142 11.4142C35.7893 11.0391 36 10.5304 36 10C36 9.46957 35.7893 8.96086 35.4142 8.58579C35.0391 8.21071 34.5304 8 34 8C33.4696 8 32.9609 8.21071 32.5858 8.58579C32.2107 8.96086 32 9.46957 32 10C32 10.5304 32.2107 11.0391 32.5858 11.4142C32.9609 11.7893 33.4696 12 34 12ZM10 36C10.5304 36 11.0391 35.7893 11.4142 35.4142C11.7893 35.0391 12 34.5304 12 34C12 33.4696 11.7893 32.9609 11.4142 32.5858C11.0391 32.2107 10.5304 32 10 32C9.46957 32 8.96086 32.2107 8.58579 32.5858C8.21071 32.9609 8 33.4696 8 34C8 34.5304 8.21071 35.0391 8.58579 35.4142C8.96086 35.7893 9.46957 36 10 36Z" fill="black" stroke="black" stroke-width="4" stroke-linejoin="round"/>
</mask>
<g mask="url(#mask0_3428_77)">
<path d="M-2 -2H46V46H-2V-2Z" fill="white"/>
</g>
</svg>
