<svg width="427" height="220" viewBox="0 0 327 120" fill="none" xmlns="http://www.w3.org/2000/svg">
<path d="M255.914 39.8547C282.15 46.431 306.201 55.6554 326.447 67.0816L298.594 82.9043L306.262 119.648C289.365 110.109 269.077 102.348 246.727 96.7152L255.914 39.8474V39.8547Z" fill="white"/>
<path d="M281.685 81.6826L246.727 96.7225L255.914 39.8547C268.383 60.1688 281.685 81.6826 281.685 81.6826Z" fill="#3A0CA3"/>
<path d="M71.222 39.8547C44.9864 46.431 20.9407 55.6554 0.689453 67.0816L28.5417 82.9043L20.8743 119.648C37.7775 110.109 58.059 102.348 80.4095 96.7152L71.222 39.8474V39.8547Z" fill="white"/>
<path d="M45.1494 81.1413L80.4096 96.7152L71.2221 39.8474C60.9969 55.3847 45.1494 81.1413 45.1494 81.1413Z" fill="#3A0CA3"/>
<g style="mix-blend-mode:multiply" opacity="0.2">
<mask id="mask0_1378_120" style="mask-type:luminance" maskUnits="userSpaceOnUse" x="27" y="0" width="273" height="97">
<path d="M163.568 0.411621C113.136 0.411621 64.4774 9.8774 27.8779 27.0753L45.1491 81.1487L80.4093 96.7226H246.727L281.685 81.6827L299.258 27.7556C262.465 10.1188 214.742 0.411621 163.568 0.411621Z" fill="white"/>
</mask>
<g mask="url(#mask0_1378_120)">
<path d="M281.685 90.4608C250.805 75.6623 208.215 67.1767 163.568 67.1767C118.921 67.1767 76.3796 75.2526 45.1491 89.9194L27.8779 35.8533C64.4774 18.6555 113.136 9.1897 163.568 9.1897C214 9.1897 262.465 18.8969 299.258 36.5336L281.685 90.4608Z" fill="white"/>
</g>
<mask id="mask1_1378_120" style="mask-type:luminance" maskUnits="userSpaceOnUse" x="27" y="0" width="273" height="97">
<path d="M163.568 0.411621C113.136 0.411621 64.4774 9.8774 27.8779 27.0753L45.1491 81.1487L80.4093 96.7226H246.727L281.685 81.6827L299.258 27.7556C262.465 10.1188 214.742 0.411621 163.568 0.411621Z" fill="white"/>
</mask>
<g mask="url(#mask1_1378_120)">
<path d="M281.685 90.4608C250.805 75.6623 208.215 67.1767 163.568 67.1767C118.921 67.1767 76.3796 75.2526 45.1491 89.9194L27.8779 35.8533C64.4774 18.6555 113.136 9.1897 163.568 9.1897C214 9.1897 262.465 18.8969 299.258 36.5336L281.685 90.4608Z" fill="white"/>
</g>
</g>
<path d="M281.685 81.6827C250.805 66.8842 208.215 58.3986 163.568 58.3986C118.921 58.3986 76.3796 66.4745 45.1491 81.1414L27.8779 27.0753C64.4774 9.8774 113.136 0.411621 163.568 0.411621C214 0.411621 262.465 10.1188 299.258 27.7556L281.685 81.6827Z" fill="white"/>
<path d="M32.3662 29.6794C34.8335 28.5968 37.3008 27.6238 39.8104 26.7533C42.3139 25.8975 44.8475 25.1148 47.4234 24.7271C44.9079 25.5025 42.5009 26.6363 40.1301 27.8433C37.7593 29.0649 35.4126 30.3963 33.1384 31.8008L32.3722 29.6794H32.3662Z" fill="#3A0CA3"/>
<path d="M33.4521 33.0517C35.9195 31.9618 38.3868 30.9962 40.8963 30.133C43.3998 29.2845 45.9335 28.5164 48.5094 28.1287C45.9998 28.9041 43.5929 30.0233 41.216 31.2303C38.8452 32.4446 36.5046 33.7686 34.2303 35.1731L33.4582 33.0517H33.4521Z" fill="#3A0CA3"/>
<path d="M34.5439 36.4238C37.0113 35.3339 39.4786 34.3756 41.9821 33.5197C44.4856 32.6785 47.0192 31.925 49.5891 31.53C47.0796 32.3054 44.6726 33.4173 42.2958 34.617C39.925 35.824 37.5843 37.148 35.3161 38.5452L34.5439 36.4238Z" fill="#3A0CA3"/>
<path d="M35.6299 39.7962C38.0972 38.7062 40.5645 37.7553 43.068 36.9067C45.5715 36.0655 48.1052 35.3267 50.669 34.9316C48.1655 35.707 45.7525 36.8116 43.3817 38.004C41.0109 39.2037 38.6703 40.5204 36.4021 41.9249L35.6299 39.8035V39.7962Z" fill="#3A0CA3"/>
<path d="M36.7217 43.1685C39.189 42.0859 41.6563 41.1349 44.1598 40.2864C46.6633 39.4525 49.197 38.7209 51.7608 38.3259C49.2573 39.1013 46.8443 40.1913 44.4735 41.3763C42.1027 42.5687 39.7621 43.8781 37.4999 45.2826L36.7277 43.1612L36.7217 43.1685Z" fill="#3A0CA3"/>
<path d="M37.8076 46.5407C40.2749 45.458 42.7362 44.5071 45.2397 43.6731C47.7432 42.8465 50.2769 42.1296 52.8347 41.7346C47.8518 43.3366 43.1344 45.9042 38.5798 48.662L37.8076 46.5407Z" fill="#3A0CA3"/>
<path d="M38.8994 49.913C41.3607 48.8304 43.828 47.8867 46.3315 47.0601C48.835 46.2408 51.3627 45.5312 53.9204 45.1362C48.9436 46.7382 44.2141 49.2766 39.6716 52.0344L38.8994 49.913Z" fill="#3A0CA3"/>
<path d="M39.9912 53.2854C42.4525 52.2027 44.9138 51.2664 47.4233 50.4471C49.9208 49.6351 52.4544 48.9329 55.0062 48.5378C50.0354 50.1399 45.3059 52.6563 40.7634 55.4067L39.9912 53.2854Z" fill="#3A0CA3"/>
<path d="M41.0771 56.6577C43.5384 55.5751 45.9997 54.646 48.5032 53.8267C51.0007 53.0221 53.5344 52.3345 56.0861 51.9321C51.1213 53.5341 46.3858 56.0213 41.8493 58.7718L41.0771 56.6504V56.6577Z" fill="#3A0CA3"/>
<path d="M42.1689 60.0298C44.6302 58.9472 47.0915 58.0255 49.595 57.2135C52.0925 56.4161 54.6201 55.7358 57.1719 55.3408C52.2071 56.9355 47.4716 59.4007 42.9411 62.1512L42.1689 60.0298Z" fill="#3A0CA3"/>
<path d="M43.2549 63.4022C45.7162 62.3195 48.1774 61.4051 50.6809 60.6005C53.1784 59.8104 55.7061 59.1448 58.2518 58.7424C53.293 60.3371 48.5454 62.7731 44.027 65.5236L43.2549 63.4022Z" fill="#3A0CA3"/>
<path d="M44.3408 66.7745C46.8021 65.6919 49.2634 64.7848 51.7669 63.9875C54.2644 63.2047 56.792 62.5464 59.3377 62.144C54.385 63.7387 49.6314 66.1527 45.119 68.8959L44.3408 66.7745Z" fill="#3A0CA3"/>
<path d="M45.4328 70.1466C47.8941 69.064 50.3553 68.1642 52.8528 67.3742C55.3503 66.5988 57.8779 65.9477 60.4176 65.5454C55.4709 67.1401 50.7113 69.5248 46.205 72.268L45.4268 70.1466H45.4328Z" fill="#3A0CA3"/>
<path d="M46.5187 73.519C48.98 72.4363 51.4413 71.5439 53.9388 70.7612C56.4362 69.9858 58.9578 69.3567 61.4975 68.947C56.5509 70.5417 51.7912 72.8972 47.2909 75.6404L46.5127 73.519H46.5187Z" fill="#3A0CA3"/>
<path d="M293.998 31.8008C291.718 30.389 289.377 29.0649 287.006 27.8433C284.629 26.6363 282.222 25.4951 279.713 24.7271C282.289 25.1221 284.822 25.8975 287.326 26.7533C289.835 27.6238 292.303 28.5968 294.77 29.6794L294.004 31.8008H293.998Z" fill="#3A0CA3"/>
<path d="M292.912 35.1731C290.638 33.7686 288.297 32.4446 285.926 31.2303C283.549 30.0233 281.142 28.8968 278.633 28.1287C281.203 28.5237 283.742 29.2918 286.246 30.133C288.749 30.9962 291.223 31.9618 293.69 33.0517L292.918 35.1731H292.912Z" fill="#3A0CA3"/>
<path d="M291.82 38.5452C289.552 37.1407 287.205 35.824 284.84 34.617C282.463 33.4173 280.056 32.3054 277.547 31.53C280.117 31.925 282.65 32.6785 285.154 33.5197C287.657 34.3756 290.125 35.3339 292.592 36.4238L291.82 38.5452Z" fill="#3A0CA3"/>
<path d="M290.734 41.9176C288.466 40.5131 286.125 39.2037 283.754 37.9967C281.383 36.8043 278.97 35.6997 276.467 34.9243C279.031 35.3193 281.564 36.0582 284.068 36.8994C286.571 37.748 289.039 38.7062 291.506 39.7889L290.734 41.9103V41.9176Z" fill="#3A0CA3"/>
<path d="M289.643 45.2899C287.381 43.8927 285.034 42.5833 282.669 41.3837C280.292 40.1986 277.885 39.1013 275.382 38.3333C277.946 38.7283 280.479 39.4598 282.983 40.2937C285.486 41.1423 287.954 42.0932 290.421 43.1759L289.649 45.2973L289.643 45.2899Z" fill="#3A0CA3"/>
<path d="M288.557 48.662C284.002 45.9042 279.285 43.3366 274.302 41.7346C276.866 42.1296 279.393 42.8465 281.897 43.6731C284.4 44.5144 286.868 45.458 289.329 46.5407L288.557 48.662Z" fill="#3A0CA3"/>
<path d="M287.465 52.0344C282.916 49.2766 278.193 46.7382 273.216 45.1362C275.774 45.5312 278.307 46.2408 280.805 47.0601C283.308 47.894 285.776 48.8304 288.237 49.913L287.465 52.0344Z" fill="#3A0CA3"/>
<path d="M286.373 55.4067C281.83 52.6563 277.101 50.1399 272.13 48.5378C274.688 48.9329 277.215 49.6351 279.713 50.4471C282.216 51.2664 284.678 52.2027 287.145 53.2854L286.373 55.4067Z" fill="#3A0CA3"/>
<path d="M285.287 58.7789C280.75 56.0284 276.021 53.5339 271.05 51.9392C273.602 52.3342 276.135 53.0292 278.633 53.8338C281.136 54.6531 283.597 55.5821 286.059 56.6648L285.287 58.7862V58.7789Z" fill="#3A0CA3"/>
<path d="M284.195 62.1439C279.664 59.3934 274.929 56.9355 269.964 55.3335C272.516 55.7358 275.043 56.4088 277.541 57.2062C280.044 58.0181 282.506 58.9399 284.967 60.0225L284.195 62.1439Z" fill="#3A0CA3"/>
<path d="M283.11 65.5236C278.591 62.7731 273.844 60.3444 268.885 58.7424C271.43 59.1448 273.958 59.8104 276.456 60.6005C278.959 61.4051 281.42 62.3195 283.882 63.4022L283.11 65.5236Z" fill="#3A0CA3"/>
<path d="M282.018 68.8959C277.505 66.1527 272.752 63.7387 267.799 62.144C270.345 62.5464 272.872 63.2047 275.37 63.9875C277.873 64.7848 280.334 65.6919 282.796 66.7745L282.018 68.8959Z" fill="#3A0CA3"/>
<path d="M280.926 72.2607C276.419 69.5175 271.66 67.1401 266.713 65.5381C269.253 65.9404 271.78 66.5915 274.278 67.3669C276.781 68.1569 279.236 69.0567 281.698 70.1393L280.92 72.2607H280.926Z" fill="#3A0CA3"/>
<path d="M279.839 75.633C275.339 72.8899 270.579 70.5344 265.633 68.9397C268.173 69.3493 270.694 69.9784 273.192 70.7539C275.689 71.5366 278.15 72.429 280.612 73.5117L279.833 75.633H279.839Z" fill="#3A0CA3"/>
</svg>
