<svg width="231" height="116" viewBox="0 0 231 116" fill="none" xmlns="http://www.w3.org/2000/svg">
<g filter="url(#filter0_d_3655_68)">
<path d="M72.6172 43.1646C72.6172 45.6906 72.2396 47.9302 71.4844 49.8833C70.7292 51.8364 69.6875 53.5422 68.3594 55.0005C67.0573 56.4588 65.5208 57.6958 63.75 58.7114C61.9792 59.7271 60.0781 60.5604 58.0469 61.2114C56.0417 61.8364 53.9583 62.3052 51.7969 62.6177C49.6354 62.9041 47.513 63.0604 45.4297 63.0864V81.2896H27.2266C27.2266 75.326 27.2396 69.3885 27.2656 63.4771C27.2917 57.5656 27.3307 51.6021 27.3828 45.5864C27.4349 42.4093 27.4479 39.2323 27.4219 36.0552C27.3958 32.8781 27.4609 29.675 27.6172 26.4458C30.9505 25.4562 34.2839 24.714 37.6172 24.2192C40.9505 23.7244 44.388 23.4771 47.9297 23.4771C49.9349 23.4771 51.9401 23.6463 53.9453 23.9849C55.9505 24.2974 57.8646 24.8052 59.6875 25.5083C61.5365 26.2114 63.2422 27.0968 64.8047 28.1646C66.3932 29.2062 67.7604 30.4562 68.9062 31.9146C70.0521 33.3729 70.9505 35.0396 71.6016 36.9146C72.2786 38.7635 72.6172 40.8468 72.6172 43.1646ZM55.2734 44.4927C55.2734 42.8 54.7526 41.4849 53.7109 40.5474C52.6953 39.5838 51.3672 39.1021 49.7266 39.1021C49.1797 39.1021 48.6068 39.1541 48.0078 39.2583C47.4349 39.3364 46.888 39.4406 46.3672 39.5708L45.8984 50.9771C46.263 51.0291 46.6146 51.0552 46.9531 51.0552C47.2917 51.0552 47.6432 51.0552 48.0078 51.0552C48.9453 51.0552 49.8438 50.8989 50.7031 50.5864C51.5885 50.2739 52.3698 49.8312 53.0469 49.2583C53.724 48.6593 54.2578 47.9692 54.6484 47.188C55.0651 46.3807 55.2734 45.4823 55.2734 44.4927ZM109.102 58.4771L107.461 75.8208L74.5703 78.3989C74.7266 69.3104 74.8958 60.2739 75.0781 51.2896C75.2865 42.3052 75.5339 33.2687 75.8203 24.1802H96.1328C95.5339 29.8833 94.9609 35.5864 94.4141 41.2896C93.8672 46.9666 93.4766 52.6958 93.2422 58.4771C94.4661 58.5291 95.6771 58.5552 96.875 58.5552C98.0729 58.5552 99.2839 58.5552 100.508 58.5552C101.966 58.5552 103.398 58.5422 104.805 58.5161C106.211 58.4901 107.643 58.4771 109.102 58.4771ZM160.195 77.3833L140.82 79.8833L138.477 71.0552H129.57L127.617 79.8833L107.695 77.9302L123.242 25.8989L144.961 24.8052L160.195 77.3833ZM137.07 59.1021L134.102 45.5083L131.211 59.1021H137.07ZM206.367 27.8521L184.883 57.8521L183.867 82.3052H165.352L165.82 58.0083L154.648 29.0239L174.57 26.5239L177.695 43.3989L187.617 26.5239L206.367 27.8521Z" fill="white"/>
</g>
<path d="M28.8982 3.17097L201.552 1.50136C220.439 1.31872 233.94 19.6422 228.14 37.5521L214.203 80.5822C210.827 91.0054 201.583 98.4506 190.649 99.5461L42.7927 114.36C28.5528 115.787 15.5781 106.147 12.8702 92.1415L2.00912 35.967C-1.25828 19.0677 11.6284 3.33798 28.8982 3.17097Z" stroke="white" stroke-width="3"/>
<defs>
<filter id="filter0_d_3655_68" x="23.2266" y="23.4771" width="187.141" height="66.8281" filterUnits="userSpaceOnUse" color-interpolation-filters="sRGB">
<feFlood flood-opacity="0" result="BackgroundImageFix"/>
<feColorMatrix in="SourceAlpha" type="matrix" values="0 0 0 0 0 0 0 0 0 0 0 0 0 0 0 0 0 0 127 0" result="hardAlpha"/>
<feOffset dy="4"/>
<feGaussianBlur stdDeviation="2"/>
<feComposite in2="hardAlpha" operator="out"/>
<feColorMatrix type="matrix" values="0 0 0 0 0 0 0 0 0 0 0 0 0 0 0 0 0 0 0.5 0"/>
<feBlend mode="normal" in2="BackgroundImageFix" result="effect1_dropShadow_3655_68"/>
<feBlend mode="normal" in="SourceGraphic" in2="effect1_dropShadow_3655_68" result="shape"/>
</filter>
</defs>
</svg>
