<svg width="59" height="59" viewBox="0 0 532 532" fill="none" xmlns="http://www.w3.org/2000/svg">
<path d="M266 398.999V319.199" stroke="white" stroke-width="2" stroke-linecap="round"/>
<path d="M266 53.1992V212.799" stroke="white" stroke-width="2" stroke-linecap="round" stroke-linejoin="round"/>
<path d="M239.4 26.6V133C239.4 140.055 242.203 146.821 247.191 151.809C252.179 156.798 258.945 159.6 266 159.6H420.094C422.725 159.599 425.298 158.818 427.485 157.355C429.673 155.892 431.377 153.813 432.382 151.381C433.388 148.949 433.649 146.273 433.133 143.692C432.617 141.112 431.347 138.742 429.484 136.884L377.082 84.4816C375.839 83.2351 375.141 81.5468 375.141 79.7867C375.141 78.0266 375.839 76.3383 377.082 75.0918L429.484 22.6898C431.338 20.8299 432.6 18.4627 433.11 15.8866C433.621 13.3105 433.358 10.6409 432.354 8.21426C431.349 5.78763 429.649 3.71261 427.468 2.25079C425.286 0.788975 422.72 0.00580237 420.094 0H266C258.945 0 252.179 2.80249 247.191 7.79096C242.203 12.7794 239.4 19.5452 239.4 26.6ZM446.88 532H85.12C55.328 532 40.432 532 29.0472 526.201C19.0374 521.101 10.8992 512.963 5.7988 502.953C-1.58548e-06 491.568 0 476.672 0 446.88V297.92C0 268.128 -1.58548e-06 253.232 5.7988 241.847C10.8992 231.837 19.0374 223.699 29.0472 218.599C40.432 212.8 55.328 212.8 85.12 212.8H133.638C142.549 212.8 146.992 212.8 150.13 214.635C152.854 216.236 154.919 218.754 155.956 221.738C157.126 225.169 156.248 229.531 154.519 238.23L116.588 427.888C113.103 445.337 111.348 454.062 113.715 460.872C115.779 466.874 119.92 471.94 125.392 475.156C131.617 478.8 140.528 478.8 158.323 478.8H373.677C391.499 478.8 400.383 478.8 406.608 475.156C412.085 471.951 416.236 466.895 418.312 460.898C420.652 454.062 418.897 445.337 415.412 427.914L377.481 238.256C375.752 229.531 374.874 225.169 376.044 221.764C377.082 218.766 379.158 216.238 381.896 214.635C385.008 212.8 389.451 212.8 398.362 212.8H446.88C476.672 212.8 491.568 212.8 502.953 218.599C512.963 223.699 521.101 231.837 526.201 241.847C532 253.232 532 268.128 532 297.92V446.88C532 476.672 532 491.568 526.201 502.953C521.101 512.963 512.963 521.101 502.953 526.201C491.568 532 476.672 532 446.88 532Z" fill="white"/>
</svg>
