<svg width="639" height="361" viewBox="0 0 639 361" fill="none" xmlns="http://www.w3.org/2000/svg">
<g filter="url(#filter0_d_4124_65)">
<rect x="14.2949" y="22.7959" width="612.706" height="322.434" rx="53" fill="url(#paint0_linear_4124_65)"/>
</g>
<g filter="url(#filter1_d_4124_65)">
<path d="M432.328 258.812C432.328 261.25 432.109 263.469 431.672 265.469C431.266 267.438 430.609 269.25 429.703 270.906C428.797 272.562 427.625 274.094 426.188 275.5C424.75 276.906 423.016 278.25 420.984 279.531L432.141 299.406L411.047 303.531L403.828 283.562L398.016 283.75L397.172 303.25H377.016C377.172 296.125 377.312 289.031 377.438 281.969C377.594 274.906 377.766 267.812 377.953 260.688C378.016 257.094 378.078 253.531 378.141 250C378.203 246.469 378.328 242.906 378.516 239.312C380.703 238.5 382.859 237.828 384.984 237.297C387.109 236.766 389.234 236.359 391.359 236.078C393.516 235.766 395.688 235.562 397.875 235.469C400.094 235.344 402.359 235.281 404.672 235.281C408.234 235.281 411.672 235.781 414.984 236.781C418.328 237.75 421.281 239.219 423.844 241.188C426.406 243.156 428.453 245.609 429.984 248.547C431.547 251.484 432.328 254.906 432.328 258.812ZM411.328 260.312C411.328 259 411.141 257.797 410.766 256.703C410.422 255.609 409.891 254.672 409.172 253.891C408.484 253.078 407.609 252.453 406.547 252.016C405.516 251.547 404.297 251.312 402.891 251.312C402.266 251.312 401.656 251.359 401.062 251.453C400.469 251.516 399.891 251.625 399.328 251.781L398.578 269.219H399.703C401.047 269.219 402.406 269.047 403.781 268.703C405.188 268.359 406.438 267.828 407.531 267.109C408.656 266.391 409.562 265.469 410.25 264.344C410.969 263.219 411.328 261.875 411.328 260.312ZM500.779 258.906C500.779 261.938 500.326 264.625 499.419 266.969C498.513 269.312 497.263 271.359 495.669 273.109C494.107 274.859 492.263 276.344 490.138 277.562C488.013 278.781 485.732 279.781 483.294 280.562C480.888 281.312 478.388 281.875 475.794 282.25C473.201 282.594 470.654 282.781 468.154 282.812V304.656H446.31C446.31 297.5 446.326 290.375 446.357 283.281C446.388 276.188 446.435 269.031 446.497 261.812C446.56 258 446.576 254.188 446.544 250.375C446.513 246.562 446.591 242.719 446.779 238.844C450.779 237.656 454.779 236.766 458.779 236.172C462.779 235.578 466.904 235.281 471.154 235.281C473.56 235.281 475.966 235.484 478.372 235.891C480.779 236.266 483.076 236.875 485.263 237.719C487.482 238.562 489.529 239.625 491.404 240.906C493.31 242.156 494.951 243.656 496.326 245.406C497.701 247.156 498.779 249.156 499.56 251.406C500.372 253.625 500.779 256.125 500.779 258.906ZM479.966 260.5C479.966 258.469 479.341 256.891 478.091 255.766C476.872 254.609 475.279 254.031 473.31 254.031C472.654 254.031 471.966 254.094 471.247 254.219C470.56 254.312 469.904 254.438 469.279 254.594L468.716 268.281C469.154 268.344 469.576 268.375 469.982 268.375C470.388 268.375 470.81 268.375 471.247 268.375C472.372 268.375 473.451 268.188 474.482 267.812C475.544 267.438 476.482 266.906 477.294 266.219C478.107 265.5 478.747 264.672 479.216 263.734C479.716 262.766 479.966 261.688 479.966 260.5ZM561.917 279.062C561.917 283.344 561.167 287.094 559.667 290.312C558.198 293.5 556.167 296.156 553.573 298.281C551.011 300.406 547.995 302 544.526 303.062C541.089 304.125 537.386 304.656 533.417 304.656C531.886 304.656 530.198 304.453 528.354 304.047C526.542 303.641 524.698 303.141 522.823 302.547C520.948 301.922 519.136 301.266 517.386 300.578C515.667 299.859 514.136 299.188 512.792 298.562L514.854 279.25C517.511 280.844 520.448 282.062 523.667 282.906C526.917 283.719 530.104 284.125 533.229 284.125C533.823 284.125 534.542 284.109 535.386 284.078C536.229 284.016 537.026 283.875 537.776 283.656C538.557 283.406 539.214 283.047 539.745 282.578C540.276 282.109 540.542 281.438 540.542 280.562C540.542 279.969 540.354 279.469 539.979 279.062C539.604 278.625 539.12 278.281 538.526 278.031C537.932 277.75 537.261 277.547 536.511 277.422C535.761 277.266 535.026 277.156 534.307 277.094C533.589 277.031 532.917 277 532.292 277C531.667 277 531.167 277 530.792 277C528.104 277 525.651 276.531 523.432 275.594C521.245 274.656 519.354 273.359 517.761 271.703C516.198 270.016 514.979 268.031 514.104 265.75C513.229 263.438 512.792 260.938 512.792 258.25C512.792 254.562 513.526 251.266 514.995 248.359C516.495 245.422 518.479 242.938 520.948 240.906C523.448 238.844 526.307 237.266 529.526 236.172C532.745 235.078 536.073 234.531 539.511 234.531C541.042 234.531 542.62 234.594 544.245 234.719C545.87 234.812 547.479 235 549.073 235.281C550.698 235.562 552.276 235.922 553.807 236.359C555.339 236.797 556.792 237.344 558.167 238L556.386 257.031C554.261 256.312 552.026 255.719 549.682 255.25C547.37 254.75 545.104 254.5 542.886 254.5C542.479 254.5 541.948 254.516 541.292 254.547C540.667 254.547 539.995 254.594 539.276 254.688C538.589 254.75 537.886 254.859 537.167 255.016C536.448 255.172 535.807 255.391 535.245 255.672C534.682 255.922 534.229 256.266 533.886 256.703C533.542 257.141 533.386 257.656 533.417 258.25C533.448 258.938 533.698 259.5 534.167 259.938C534.667 260.344 535.292 260.672 536.042 260.922C536.823 261.141 537.667 261.297 538.573 261.391C539.511 261.484 540.432 261.547 541.339 261.578C542.245 261.578 543.089 261.578 543.87 261.578C544.651 261.547 545.292 261.562 545.792 261.625C548.292 261.781 550.542 262.312 552.542 263.219C554.542 264.125 556.229 265.328 557.604 266.828C559.011 268.328 560.073 270.125 560.792 272.219C561.542 274.281 561.917 276.562 561.917 279.062Z" fill="white"/>
</g>
<g filter="url(#filter2_d_4124_65)">
<path d="M331.945 163.189C329.861 162.345 327.612 162.525 325.924 163.673L325.879 163.706C322.879 165.844 319.771 168.976 316.296 172.636C317.07 170.831 317.341 169.235 317.106 167.846C316.274 162.973 312.906 159.877 309.934 158.971C308.233 158.452 306.695 158.668 305.659 159.559C302.682 161.736 297.235 166.473 289.015 174.038L288.446 174.578C280.99 181.416 272.508 189.486 265.123 196.578C265.689 195.004 266.217 193.163 266.598 191.357C267.714 186.053 267.469 182.059 265.861 179.492C263.222 175.28 258.999 172.226 256.439 171.706C255.055 171.428 254.115 171.821 253.572 172.198C252.819 172.725 252.169 173.177 246.875 185.354L246.868 185.402C245.832 187.756 242.749 194.765 240.611 197.27C240.483 197.417 240.347 197.573 240.203 197.732L240.109 197.837C239.988 197.97 239.868 198.102 239.742 198.241L239.631 198.363C239.493 198.513 239.35 198.665 239.199 198.824L239.125 198.903C238.079 200.012 236.787 201.334 235.421 202.734C232.411 205.812 228.666 209.643 225.501 213.333L225.471 213.369C225.255 213.621 225.045 213.87 224.831 214.12L224.774 214.189C224.562 214.442 224.356 214.693 224.138 214.956C222.734 216.671 221.599 218.196 220.686 219.594L220.661 219.632C219.703 221.1 219.005 222.392 218.52 223.598C218.461 223.754 218.396 223.922 218.336 224.119C218.282 224.286 218.231 224.455 218.183 224.63L218.175 224.66C218.132 224.83 218.09 225.002 218.056 225.178C218.02 225.341 217.989 225.516 217.958 225.714C217.92 225.937 217.895 226.143 217.882 226.286C217.806 226.982 217.782 227.739 217.814 228.521C217.821 228.721 217.832 228.92 217.847 229.123C217.873 229.491 217.907 229.856 217.945 230.198C218.085 231.396 218.331 232.719 218.672 234.105L218.693 234.197C218.754 234.443 218.818 234.689 218.884 234.94L218.916 235.064L218.918 235.07L218.926 235.098C219.127 235.847 219.359 236.629 219.631 237.483L219.672 237.607C219.873 238.233 220.091 238.882 220.323 239.533L220.356 239.612C220.442 239.869 220.534 240.123 220.628 240.373L220.645 240.414C220.66 240.467 220.679 240.514 220.695 240.559L220.77 240.758C220.847 240.96 220.923 241.166 221 241.368L221.056 241.503C221.107 241.651 221.165 241.799 221.228 241.969C221.275 242.08 221.317 242.19 221.359 242.3L221.468 242.561C221.501 242.65 221.535 242.74 221.569 242.829L221.621 242.955C221.688 243.117 221.752 243.279 221.826 243.465L221.911 243.671C222.108 244.144 222.303 244.606 222.498 245.059L222.518 245.106L222.882 245.942C222.913 246.015 222.945 246.085 222.974 246.155L223.317 246.914C223.409 247.117 223.499 247.318 223.588 247.508L223.789 247.951C223.847 248.074 223.906 248.198 223.964 248.322L224.033 248.472C224.057 248.528 224.083 248.583 224.105 248.628L224.516 249.494C224.877 250.238 225.247 250.987 225.625 251.731L225.725 251.931C225.763 252.005 225.799 252.076 225.834 252.144C225.728 252.27 225.622 252.397 225.515 252.521L225.381 252.68C225.339 252.728 225.299 252.779 225.257 252.828C225.049 253.066 224.831 253.297 224.611 253.53L224.442 253.713C224.16 254.006 223.868 254.299 223.572 254.581L223.544 254.606C223.481 254.67 223.411 254.734 223.342 254.8L223.287 254.85C223.238 254.898 223.186 254.947 223.13 254.995L223.062 255.054C223.002 255.11 222.94 255.167 222.873 255.222L222.37 255.655C222.276 255.735 222.179 255.817 222.061 255.914C221.85 256.088 221.634 256.264 221.405 256.444C221.268 256.553 221.127 256.663 220.982 256.778L220.338 257.277C220.196 257.384 220.05 257.496 219.91 257.599L219.839 257.653C219.679 257.774 219.514 257.898 219.345 258.023L219.258 258.087C218.77 258.448 218.263 258.82 217.743 259.195L217.634 259.274C217.478 259.387 217.32 259.498 217.143 259.626C217.031 259.707 216.923 259.786 216.805 259.867L216.76 259.899C216.524 260.069 216.286 260.237 216.04 260.408L216.013 260.426C215.644 260.69 215.266 260.95 214.88 261.217L214.778 261.287C214.435 261.522 214.088 261.759 213.743 261.999L213.633 262.072C213.385 262.24 209.435 265.113 200.481 271.631C199.494 272.351 198.475 273.091 197.447 273.838L199.539 278.872C200.788 277.964 202.138 276.98 203.601 275.915C209.777 271.422 216.159 266.778 216.628 266.445L216.733 266.374C217.081 266.133 217.43 265.895 217.802 265.637L217.895 265.571C218.29 265.301 218.68 265.028 219.066 264.754C219.332 264.572 219.587 264.39 219.839 264.21C219.976 264.115 220.108 264.019 220.223 263.937C220.394 263.818 220.558 263.698 220.723 263.581L220.834 263.5C221.381 263.108 221.909 262.72 222.418 262.343L222.508 262.278C222.691 262.144 222.872 262.007 223.024 261.892L223.09 261.844C223.245 261.728 223.399 261.609 223.557 261.491L224.256 260.95C224.412 260.827 224.566 260.708 224.715 260.587C224.964 260.388 225.201 260.196 225.453 259.988C225.568 259.892 225.683 259.796 225.786 259.712L226.167 259.385C226.21 259.347 226.254 259.311 226.296 259.273C226.413 259.173 226.526 259.071 226.636 258.97C226.75 258.871 226.857 258.772 226.938 258.693L226.967 258.664C227.064 258.572 227.16 258.48 227.252 258.394C227.592 258.067 227.928 257.731 228.254 257.396C228.308 257.343 228.357 257.288 228.41 257.232L228.459 257.177C228.72 256.9 228.981 256.623 229.234 256.335C229.309 256.252 229.38 256.164 229.451 256.08L229.546 255.968C229.753 255.727 229.956 255.485 230.154 255.24C230.272 255.092 230.383 254.946 230.497 254.795L230.673 254.564C230.833 254.352 230.994 254.141 231.145 253.924L231.277 251.098L231.179 250.911C231.039 250.649 230.79 250.174 230.447 249.505L230.352 249.317C229.997 248.621 229.644 247.904 229.306 247.208L228.77 246.074C228.709 245.945 228.65 245.818 228.588 245.685L228.416 245.306C228.331 245.117 228.242 244.927 228.156 244.736L227.841 244.037C227.804 243.949 227.767 243.858 227.725 243.775L227.375 242.964C227.19 242.535 227.004 242.096 226.813 241.638L226.743 241.468C226.672 241.298 226.6 241.124 226.527 240.948L226.521 240.934C226.477 240.821 226.433 240.705 226.385 240.591L226.274 240.324C226.241 240.234 226.207 240.145 226.18 240.08C226.12 239.919 226.055 239.754 225.992 239.594L225.944 239.48C225.875 239.288 225.803 239.098 225.732 238.91L225.602 238.555C225.514 238.319 225.428 238.08 225.343 237.84L225.315 237.772L225.318 237.771C225.106 237.171 224.902 236.571 224.724 236.018L224.684 235.89C224.434 235.106 224.224 234.401 224.046 233.732L224.035 233.688L224.013 233.611C223.955 233.388 223.898 233.167 223.847 232.961L223.827 232.88C223.532 231.681 223.325 230.576 223.211 229.58C223.178 229.318 223.155 229.046 223.137 228.771L223.133 228.728C223.122 228.602 223.116 228.48 223.111 228.334C223.09 227.796 223.102 227.302 223.151 226.872L223.156 226.832C223.162 226.757 223.17 226.685 223.182 226.615L223.199 226.515C223.21 226.448 223.217 226.383 223.232 226.319L223.238 226.258L223.249 226.236C223.266 226.153 223.285 226.073 223.305 225.996C223.325 225.922 223.346 225.848 223.369 225.777L223.39 225.703L223.395 225.69C223.41 225.636 223.432 225.589 223.443 225.557C223.785 224.705 224.342 223.689 225.079 222.557L225.104 222.519C225.918 221.276 226.968 219.862 228.242 218.307C228.438 218.071 228.633 217.835 228.817 217.614L228.888 217.529C229.086 217.292 229.285 217.058 229.495 216.816L229.518 216.789C232.573 213.231 236.095 209.627 239.204 206.446C240.59 205.027 241.898 203.688 242.984 202.535L243.058 202.456C243.216 202.288 243.369 202.124 243.514 201.968L243.63 201.84C243.772 201.685 243.908 201.539 244.035 201.397L244.144 201.276C244.306 201.095 244.463 200.916 244.624 200.732C246.469 198.568 248.66 194.488 251.73 187.506L251.736 187.455C254.292 181.582 255.656 178.726 256.359 177.357C257.665 178.119 259.779 179.812 261.344 182.311C261.958 183.292 262.3 185.865 261.416 190.143C260.668 193.754 259.493 196.518 259.113 197.089C258.16 198.032 252.948 200.689 248.618 202.604L247.453 203.608L243.696 209.509L243.855 212.582L247.408 217.044L249.654 215.563L251.335 217.285L255.789 212.946L255.798 212.942C257.011 211.764 258.437 210.383 260.027 208.849C261.217 207.697 262.495 206.46 263.845 205.153L263.863 205.131C272.177 197.121 282.889 186.858 292.026 178.474L292.6 177.929C300.271 170.87 305.6 166.213 308.456 164.077C309.359 164.4 311.338 165.761 311.848 168.749C312.035 169.846 310.485 173.766 303.282 180.765C297.604 186.283 292.259 189.956 291.118 190.296L290.956 191.458L290.459 190.642C289.826 191.028 289.462 191.262 289.462 191.262L288.962 191.677L271.984 209.75L271.755 209.773L271.68 209.856L271.777 213.585L273.35 215.089L276.925 215.174C277.058 215.06 290.279 203.603 304.267 191.952L304.292 191.928C309.419 187.647 314.048 182.733 318.132 178.4C322.23 174.05 325.771 170.291 328.904 168.05C329.079 167.939 329.455 167.917 329.923 168.105C330.358 168.282 331.827 169.069 332.37 171.763C332.454 172.172 332.511 172.568 332.547 172.935L332.582 173.178C332.595 173.242 332.595 173.276 332.596 173.279L332.599 173.278L332.58 173.414C332.647 175.293 331.983 176.026 330.885 177.243C330.583 177.578 330.269 177.925 329.958 178.313L330.106 178.826L329.898 178.716L329.911 178.69L329.867 178.767L331.13 182.414L331.152 182.467C331.716 182.711 333.033 183.916 333.405 185.076C333.582 185.626 333.444 185.852 333.37 185.972L333.3 186.094C333.277 186.138 330.825 190.657 325.91 196.186C325.853 196.247 325.8 196.311 325.749 196.38L325.74 196.39C325.74 196.39 325.743 196.389 325.744 196.385L325.663 196.471C324.174 198.108 322.766 199.522 321.362 200.79C321.238 200.88 321.122 200.983 321.014 201.097L321.009 201.109C320.895 201.208 320.781 201.307 320.667 201.406L320.591 201.472L320.673 201.586C318.471 203.464 316.206 205.032 313.93 206.249L313.259 206.759L292.12 228.981L291.905 228.987L291.747 229.153L291.866 232.934L295.738 236.496L299.381 236.452C299.381 236.452 306.935 229.17 314.748 221.646L320.953 215.671L320.982 215.666C323.177 213.55 325.225 211.584 326.938 209.939L328.239 208.69C328.861 209.099 329.907 210.231 330.516 211.781C331.006 213.027 331.051 214.148 330.638 214.78L330.485 215.051L330.503 215.019C329.989 215.914 326.245 220.047 322.183 224.034C319.111 227.062 314.657 228.74 314.616 228.757L313.689 229.338L297.68 244.755L297.628 244.804C297.586 244.846 293.333 249.163 287.859 254.317C287.747 254.419 287.632 254.525 287.517 254.639C287.448 254.705 287.375 254.777 287.3 254.846L287.263 254.882C277.757 263.822 270.503 269.754 266.668 271.725L251.268 269.903L249.35 270.424C248.071 271.393 221.14 291.797 208.922 301.495L211.038 306.588C221.498 298.226 246.737 279.061 251.701 275.295L266.802 277.084L268.188 276.877C272.478 274.981 280.113 268.887 290.883 258.758C290.996 258.656 291.104 258.552 291.207 258.451C291.276 258.385 291.342 258.32 291.408 258.261L291.47 258.204C296.811 253.177 301.016 248.921 301.384 248.552L316.992 233.522C318.487 232.904 322.679 230.997 325.902 227.817C325.98 227.74 333.68 220.17 335.144 217.586C337.852 213.284 334.951 207.313 331.878 204.803C329.576 202.92 327.444 202.983 325.98 203.749C327.155 202.635 328.336 201.421 329.562 200.073C329.606 200.023 329.653 199.976 329.696 199.924C329.764 199.847 329.831 199.768 329.895 199.689C334.985 193.958 337.605 189.279 337.944 188.66C338.87 187.095 339.048 185.3 338.459 183.459C337.975 181.953 337.011 180.57 335.925 179.5C336.981 178.125 337.96 176.259 337.885 173.347L337.902 173.247C337.901 172.945 337.873 172.629 337.818 172.315C337.765 171.797 337.682 171.256 337.571 170.707C336.84 167.09 334.781 164.348 331.921 163.189L331.945 163.189ZM256.355 205.039C254.764 206.578 253.332 207.96 252.115 209.147L252.106 209.151L249.752 211.441L249.205 210.756L251.519 207.123C253.091 206.419 254.986 205.535 256.806 204.607C256.656 204.752 256.506 204.897 256.359 205.041L256.355 205.039ZM317.332 211.844L317.304 211.849L311.1 217.819L311.08 217.838C306.425 222.322 301.857 226.722 298.93 229.542L316.837 210.717C318.59 209.752 320.33 208.612 322.039 207.314C320.614 208.681 319.018 210.217 317.334 211.839L317.332 211.844ZM325.268 204.234C325.171 204.316 325.078 204.399 324.989 204.484L324.847 204.623L325.603 202.75C325.643 203.27 325.524 203.787 325.269 204.237L325.268 204.234Z" fill="white"/>
<path d="M328.688 208.283L328.675 208.296C328.675 208.296 328.683 208.289 328.688 208.283Z" fill="white"/>
<path d="M329.883 199.733L329.813 199.807C329.838 199.783 329.858 199.757 329.883 199.733Z" fill="white"/>
<path d="M329.967 199.629L329.94 199.664C329.94 199.664 329.959 199.643 329.967 199.629Z" fill="white"/>
<path d="M325.751 196.409C325.727 196.436 325.711 196.453 325.695 196.474L325.751 196.409Z" fill="white"/>
<path d="M325.759 196.399C325.759 196.399 325.752 196.402 325.753 196.406L325.76 196.403L325.759 196.399Z" fill="white"/>
<path d="M309.255 163.452L308.989 163.683C309.079 163.618 309.169 163.543 309.255 163.452Z" fill="white"/>
<path d="M328.244 167.566C321.57 172.321 312.671 181.494 302.603 189.896L302.591 189.908C288.42 201.711 275.208 213.164 275.208 213.164L273.635 211.66L290.718 193.473C290.718 193.473 291.063 193.251 291.662 192.885C294.172 191.285 300.994 186.836 303.029 184.009C305.533 180.518 313.05 170.308 313.808 168.314C314.919 165.395 308.362 160.549 307.34 161.614C304.14 163.928 297.968 169.4 290.81 175.987C290.81 175.987 290.713 176.086 290.52 176.267C290.45 176.34 290.364 176.431 290.254 176.515C280.976 185.026 270.19 195.368 262.03 203.232L262.017 203.244C258.865 206.302 256.088 208.977 253.965 211.046L249.503 215.392L245.949 210.927L249.707 205.026C249.707 205.026 259.821 200.546 261.215 198.724C262.633 196.9 266.423 185.402 263.609 180.902C260.785 176.392 256.094 173.673 255.09 174.376C254.524 174.773 252.107 179.976 249.308 186.416L249.309 186.443C247.077 191.517 244.608 196.677 242.615 199.016C238.045 204.287 224.05 216.961 220.989 224.572C220.944 224.687 220.899 224.802 220.861 224.928C220.855 224.931 220.853 224.942 220.853 224.949C220.814 225.072 220.778 225.193 220.742 225.322C220.712 225.448 220.68 225.578 220.652 225.71C220.649 225.712 220.648 225.719 220.651 225.725C220.621 225.861 220.596 225.999 220.576 226.141C220.549 226.283 220.533 226.428 220.518 226.575C220.451 227.16 220.435 227.786 220.463 228.443C220.47 228.608 220.477 228.774 220.492 228.943C220.511 229.256 220.541 229.577 220.58 229.902C220.647 230.469 220.738 231.054 220.85 231.655C220.904 231.953 220.97 232.252 221.035 232.559C221.108 232.89 221.186 233.229 221.268 233.574C221.334 233.85 221.407 234.126 221.481 234.404C221.483 234.407 221.487 234.409 221.485 234.413C221.57 234.726 221.659 235.04 221.749 235.357C221.797 235.513 221.843 235.673 221.891 235.831C221.937 235.991 221.982 236.148 222.038 236.308C222.086 236.466 222.138 236.624 222.187 236.783C222.389 237.418 222.603 238.052 222.827 238.681C222.882 238.838 222.941 238.996 222.999 239.154C223.055 239.313 223.113 239.478 223.173 239.639C223.29 239.945 223.405 240.255 223.521 240.558C223.581 240.712 223.643 240.869 223.699 241.021C223.76 241.175 223.823 241.328 223.882 241.479C223.941 241.62 224.001 241.763 224.051 241.911C224.128 242.096 224.205 242.281 224.278 242.464C224.506 243.013 224.73 243.553 224.96 244.081C225.069 244.345 225.184 244.604 225.3 244.858C225.337 244.946 225.374 245.027 225.412 245.111C225.515 245.344 225.618 245.573 225.721 245.798C225.88 246.146 226.034 246.484 226.184 246.811C226.257 246.963 226.328 247.116 226.397 247.266C226.43 247.339 226.465 247.414 226.498 247.486C226.639 247.782 226.774 248.067 226.906 248.342C227.799 250.195 228.513 251.557 228.815 252.117C228.831 252.155 228.848 252.189 228.865 252.22C228.929 252.341 228.967 252.408 228.967 252.408C227.938 253.882 226.714 255.241 225.405 256.497C225.324 256.575 225.238 256.659 225.145 256.743C225.059 256.826 224.965 256.914 224.866 257C224.768 257.088 224.672 257.18 224.564 257.269C224.368 257.444 224.16 257.623 223.934 257.81C223.66 258.038 223.369 258.275 223.06 258.521C222.871 258.671 222.674 258.826 222.474 258.984C222.151 259.236 221.814 259.496 221.462 259.759C221.16 259.988 220.85 260.22 220.528 260.457C219.942 260.89 219.333 261.332 218.698 261.778C218.573 261.868 218.449 261.958 218.318 262.05C218.068 262.229 217.815 262.407 217.552 262.588C217.156 262.87 216.755 263.15 216.35 263.428C215.98 263.682 215.608 263.94 215.233 264.199C215.203 264.218 215.173 264.237 215.14 264.258C214.856 264.455 206.404 270.606 198.497 276.358L209.996 304.04C222.098 294.404 250.971 272.535 250.971 272.535L267.135 274.45C272.083 272.264 281.638 263.83 289.098 256.811C289.306 256.621 289.487 256.436 289.671 256.273C295.262 251.011 299.538 246.664 299.538 246.664L315.547 231.247C315.547 231.247 320.517 229.42 324.063 225.924C327.606 222.445 332.244 217.51 332.881 216.23C334.285 213.42 328.174 205.172 326.826 206.392C324.862 208.278 322.147 210.879 319.163 213.761L319.146 213.754C309.729 222.818 297.56 234.544 297.56 234.544L293.689 230.982L293.758 230.909L315 208.579C317.911 207.022 320.575 205.062 322.953 202.952C322.952 202.934 322.96 202.926 322.977 202.928C324.674 201.411 326.241 199.806 327.649 198.258L327.661 198.246C327.709 198.195 327.758 198.147 327.79 198.082C327.843 198.06 327.862 198.007 327.901 197.967C333.127 192.093 335.659 187.351 335.659 187.351C337.524 184.28 333.756 180.562 332.046 179.972C333.685 177.925 335.268 173.264 335.268 173.264C335.254 170.316 330.527 166.008 328.241 167.567L328.244 167.566Z" fill="url(#paint1_linear_4124_65)"/>
<path d="M249.309 186.415L249.309 186.443C247.077 191.517 244.608 196.677 242.615 199.016C238.692 203.547 227.811 213.533 222.885 221.086C232.29 215.875 249.505 215.395 249.505 215.395L245.951 210.93L249.708 205.029C249.708 205.029 259.823 200.549 261.217 198.727C262.634 196.902 266.425 185.405 263.611 180.905C260.786 176.395 256.096 173.676 255.092 174.379C254.526 174.776 252.109 179.979 249.31 186.418L249.309 186.415Z" fill="url(#paint2_linear_4124_65)"/>
<path d="M297.558 234.548L299.537 246.665L315.546 231.248C315.546 231.248 320.517 229.421 324.063 225.924C327.606 222.445 332.103 217.421 332.88 216.231C335.691 211.927 329.466 203.795 326.825 206.393C324.884 208.3 322.146 210.88 319.162 213.761L319.145 213.755C309.729 222.819 297.56 234.544 297.56 234.544L297.558 234.548Z" fill="url(#paint3_linear_4124_65)"/>
<path d="M322.978 202.932C324.675 201.414 326.242 199.81 327.65 198.261L327.662 198.249C327.71 198.199 327.759 198.151 327.791 198.086C327.844 198.064 327.863 198.011 327.902 197.971C333.128 192.096 335.66 187.355 335.66 187.355C337.525 184.284 333.757 180.566 332.047 179.975C333.685 177.928 336.061 176.535 334.991 171.238C333.938 166.021 329.704 164.31 327.418 165.869C320.744 170.624 312.669 181.499 302.602 189.904L302.59 189.916C288.42 201.719 275.207 213.172 275.207 213.172L293.758 230.92L315.001 208.589C317.911 207.033 320.575 205.072 322.953 202.963C322.952 202.945 322.961 202.937 322.978 202.939L322.978 202.932Z" fill="url(#paint4_linear_4124_65)"/>
<path d="M291.661 192.889C295.199 192.269 315.667 175.221 314.487 168.297C313.51 162.559 308.361 160.553 307.338 161.618C304.138 163.932 297.966 169.404 290.809 175.992C290.809 175.992 290.712 176.09 290.518 176.271C290.449 176.344 290.362 176.435 290.252 176.519L290.185 176.581C280.919 185.08 270.166 195.392 262.027 203.233L262.015 203.245L273.632 211.661L290.715 193.475C290.715 193.475 290.946 193.01 291.66 192.886L291.661 192.889Z" fill="url(#paint5_linear_4124_65)"/>
<g style="mix-blend-mode:multiply" opacity="0.6">
<path fill-rule="evenodd" clip-rule="evenodd" d="M257.313 245.621C257.313 245.621 257.166 227.54 249.502 215.389L253.958 211.046C253.958 211.046 282.076 230.272 284.534 243.07C284.534 243.07 275.77 250.559 271.03 251.247C266.29 251.936 257.316 245.62 257.316 245.62L257.313 245.621Z" fill="#F3BAC0"/>
</g>
<path style="mix-blend-mode:multiply" opacity="0.6" fill-rule="evenodd" clip-rule="evenodd" d="M290.521 176.271C290.715 176.091 290.812 175.992 290.812 175.992L290.255 176.519C290.364 176.433 290.452 176.345 290.521 176.271Z" fill="url(#paint6_linear_4124_65)"/>
<g style="mix-blend-mode:multiply" opacity="0.2">
<path fill-rule="evenodd" clip-rule="evenodd" d="M262.23 203.243L262.218 203.255L272.108 210.416L272.117 210.422L273.838 211.669L287.695 196.919L290.924 193.482C290.924 193.482 291.269 193.259 291.869 192.893C291.445 192.653 286.129 189.522 284.201 186.905C282.542 184.655 288.414 178.543 290.397 176.587L262.239 203.239L262.23 203.243Z" fill="#F3BAC0"/>
</g>
<g style="mix-blend-mode:multiply" opacity="0.2">
<path fill-rule="evenodd" clip-rule="evenodd" d="M275.41 213.177L293.96 230.921L314.47 209.36L315.202 208.591C318.113 207.034 320.777 205.074 323.155 202.964C321.336 204.212 319.095 205.274 316.444 205.514L312.641 199.322C312.641 199.322 329.996 184.197 332.247 179.981C332.247 179.981 319.943 192.303 311.253 197.996C311.253 197.996 301.442 197.314 302.787 189.923C299.908 192.32 297.072 194.703 294.374 196.98C283.793 205.905 275.407 213.178 275.407 213.178L275.41 213.177Z" fill="#D87290"/>
</g>
<path style="mix-blend-mode:multiply" opacity="0.6" fill-rule="evenodd" clip-rule="evenodd" d="M327.901 197.968C327.829 198.07 327.745 198.157 327.661 198.247C327.837 198.005 327.953 197.829 328 197.751L327.901 197.968Z" fill="url(#paint7_linear_4124_65)"/>
<g style="mix-blend-mode:multiply" opacity="0.2">
<path fill-rule="evenodd" clip-rule="evenodd" d="M297.559 234.548L297.976 237.087L297.973 237.089L299.539 246.668L315.549 231.251L311.498 227.333L319.161 213.765L319.145 213.758C317.152 215.674 315.038 217.715 312.94 219.733L312.93 219.744C305.118 227.268 297.56 234.551 297.56 234.551L297.559 234.548Z" fill="#F3BAC0"/>
</g>
<g style="mix-blend-mode:multiply" opacity="0.3">
<path fill-rule="evenodd" clip-rule="evenodd" d="M249.503 215.39C249.503 215.39 258.307 228.578 257.108 241.774C257.108 241.774 262.176 228.09 253.959 211.047L249.503 215.39Z" fill="#D87290"/>
</g>
<g style="mix-blend-mode:multiply" opacity="0.6">
<path d="M231.473 251.354C228.792 249.116 224.045 238.51 220.583 229.901C221.645 238.998 228.973 252.407 228.973 252.407C228.91 252.495 228.846 252.59 228.78 252.68C227.795 254.052 226.64 255.32 225.412 256.498C223.397 258.478 210.806 267.625 198.504 276.36L198.97 277.481C212.766 268.501 227.702 258.435 230.623 255.218C231.683 254.051 232.224 253.014 232.023 252.189C231.948 251.883 231.769 251.603 231.474 251.357L231.473 251.354Z" fill="#F3BAC0"/>
</g>
<g style="mix-blend-mode:multiply" opacity="0.5">
<path d="M220.579 229.903C221.641 238.999 228.969 252.408 228.969 252.408C228.906 252.496 232.015 252.189 232.015 252.189L232.018 252.188C231.942 251.879 231.764 251.601 231.469 251.356C228.788 249.117 224.042 238.512 220.579 229.903Z" fill="#D87290"/>
</g>
<path style="mix-blend-mode:screen" d="M253.369 256.963C251.957 259.615 235.151 243.455 231.349 232.385C228.703 224.68 231.041 223.254 232.246 222.279C233.451 221.303 242.489 218.671 247.382 223.663C252.276 228.656 257.398 249.376 253.366 256.964L253.369 256.963Z" fill="url(#paint8_linear_4124_65)"/>
<path style="mix-blend-mode:screen" d="M273.81 215.429C274.275 214 288.251 226.874 293.722 234.325C296.62 238.274 296.001 250.162 292.657 246.684C287.844 241.679 272.476 219.511 273.809 215.426L273.81 215.429Z" fill="url(#paint9_linear_4124_65)"/>
<g style="mix-blend-mode:soft-light" opacity="0.97">
<path d="M228.712 243.139C228.712 243.139 224.402 234.978 223.908 233.177C223.415 231.375 221.458 226.797 222.574 224.926C223.689 223.055 233.631 210.51 233.631 210.51C233.631 210.51 224.58 223.274 223.646 226.405C222.713 229.536 228.712 243.139 228.712 243.139Z" fill="#F5FFFF"/>
</g>
<g style="mix-blend-mode:soft-light" opacity="0.97">
<path d="M208.673 300.846L209.325 302.416C225.566 289.781 246.457 272.938 246.457 272.938C246.457 272.938 225.17 289.026 208.673 300.846Z" fill="#F5FFFF"/>
</g>
<g style="mix-blend-mode:soft-light" opacity="0.97">
<path d="M282.97 257.702C282.97 257.702 273.915 268.061 269.743 270.4C265.572 272.738 257.96 270.789 257.96 270.789C257.96 270.789 264.043 271.415 269.691 268.108C275.34 264.802 282.973 257.7 282.973 257.7L282.97 257.702Z" fill="#F5FFFF"/>
</g>
<g style="mix-blend-mode:soft-light" opacity="0.97">
<path d="M307.482 162.629C307.482 162.629 311.118 168.47 311.813 172.674C311.813 172.674 313.49 169.341 312.441 166.709C311.393 164.078 307.482 162.629 307.482 162.629Z" fill="#F5EE8F"/>
</g>
<g style="mix-blend-mode:soft-light" opacity="0.97">
<path d="M310.596 174.21C310.596 174.21 299.198 185.973 291.06 189.811C291.06 189.811 298.697 187.076 304.274 182.195C309.851 177.314 310.596 174.21 310.596 174.21Z" fill="#F5FFFF"/>
</g>
<g style="mix-blend-mode:soft-light" opacity="0.97">
<path d="M327.923 207.479C327.923 207.479 330.777 212.059 331.318 215.355C331.318 215.355 332.539 212.766 331.81 210.68C330.8 207.785 327.749 206.712 327.92 207.48L327.923 207.479Z" fill="#F5EE8F"/>
</g>
<g style="mix-blend-mode:soft-light" opacity="0.97">
<path d="M330.366 216.56C330.366 216.56 321.427 225.787 315.045 228.796C315.045 228.796 321.035 226.652 325.408 222.822C329.781 218.992 330.366 216.56 330.366 216.56Z" fill="#F5FFFF"/>
</g>
<g style="mix-blend-mode:soft-light" opacity="0.97">
<path d="M328.604 166.749C328.604 166.749 332.077 172.92 332.93 177.023C332.93 177.023 334.452 173.864 333.31 171.272C332.17 168.679 328.604 166.749 328.604 166.749Z" fill="#F5EE8F"/>
</g>
<g style="mix-blend-mode:soft-light" opacity="0.97">
<path d="M332.386 180.698C332.906 181.088 333.396 181.521 333.779 181.995C335.403 184.012 334.913 186.673 334.913 186.673C334.125 185.218 332.785 183.461 331.547 181.965C331.873 181.572 332.151 181.146 332.384 180.695L332.386 180.698Z" fill="#F5EE8F"/>
</g>
<g style="mix-blend-mode:soft-light" opacity="0.97">
<path d="M333.912 187.467C333.912 187.467 324.931 199.373 318.084 204.567C318.084 204.567 324.495 200.49 329.228 194.848C333.965 189.204 333.912 187.467 333.912 187.467Z" fill="#F5FFFF"/>
</g>
<g style="mix-blend-mode:soft-light" opacity="0.97">
<path d="M256.173 176.446C256.173 176.446 260.764 179.689 262.879 182.407C262.879 182.407 261.737 179.185 260.037 177.605C258.336 176.026 256.176 176.445 256.176 176.445L256.173 176.446Z" fill="#F5EE8F"/>
</g>
<g style="mix-blend-mode:soft-light" opacity="0.97">
<path d="M255.637 177.677C255.637 177.677 251.143 189.622 251.656 196.964C251.656 196.964 250.469 190.298 251.956 184.682C253.442 179.067 255.637 177.677 255.637 177.677Z" fill="#F5FFFF"/>
</g>
<g style="mix-blend-mode:soft-light" opacity="0.97">
<path d="M199.262 278.193L199.643 279.109C212.328 270.469 225.861 260.673 231.221 254.815C231.221 254.815 214.806 266.941 199.262 278.193Z" fill="#F5FFFF"/>
</g>
<path fill-rule="evenodd" clip-rule="evenodd" d="M303.948 204.734L284.025 221.601L285.396 222.911C289.336 216.869 296.583 211.645 303.948 204.734Z" fill="#B24D61"/>
<g style="mix-blend-mode:multiply" opacity="0.3">
<path fill-rule="evenodd" clip-rule="evenodd" d="M303.947 204.733L284.024 221.6L289.064 226.421C289.946 225.067 289.02 221.428 289.02 221.428L313.032 197.775L303.946 204.73L303.947 204.733Z" fill="#D87290"/>
</g>
<g style="mix-blend-mode:multiply" opacity="0.3">
<path fill-rule="evenodd" clip-rule="evenodd" d="M268.335 207.824L271.912 210.417L273.633 211.664L290.714 193.475C282.022 200.724 273.043 208.543 268.335 207.824Z" fill="#D87290"/>
</g>
<g style="mix-blend-mode:multiply" opacity="0.3">
<path fill-rule="evenodd" clip-rule="evenodd" d="M312.929 219.742C305.116 227.266 297.558 234.549 297.558 234.549L297.975 237.088C301.489 232.245 306.949 226.16 312.929 219.742Z" fill="#D87290"/>
</g>
<g style="mix-blend-mode:multiply" opacity="0.3">
<path fill-rule="evenodd" clip-rule="evenodd" d="M291.214 228.479L293.759 230.912L314.269 209.351C306.48 216.689 298.786 223.131 291.214 228.479Z" fill="#D87290"/>
</g>
<g style="mix-blend-mode:multiply" opacity="0.31">
<path d="M271.645 269.41C271.645 269.41 260.189 267.516 247.293 256.072C234.392 244.624 227.135 225.999 227.135 225.999C233.573 215.466 249.504 215.395 249.504 215.395L245.95 210.931L249.707 205.03C249.707 205.03 259.822 200.549 261.216 198.728C257.803 200.527 251.168 198.713 250.246 197.778C249.348 196.87 249.309 187.066 249.313 186.445C247.081 191.52 244.612 196.679 242.619 199.018C238.048 204.29 224.053 216.963 220.993 224.575C220.948 224.69 220.902 224.805 220.865 224.931C220.859 224.933 220.857 224.944 220.856 224.951C220.818 225.074 220.782 225.196 220.746 225.324C220.716 225.45 220.684 225.581 220.656 225.713C220.653 225.714 220.652 225.721 220.655 225.727C220.625 225.863 220.6 226.001 220.58 226.144C220.552 226.286 220.536 226.43 220.522 226.577C220.455 227.163 220.439 227.789 220.467 228.445C220.474 228.611 220.48 228.777 220.496 228.946C220.515 229.258 220.545 229.579 220.583 229.904C220.65 230.472 220.742 231.057 220.853 231.658C220.908 231.955 220.974 232.255 221.039 232.561C221.111 232.893 221.19 233.232 221.271 233.577C221.339 233.848 221.411 234.128 221.485 234.407C221.486 234.41 221.491 234.412 221.489 234.416C221.574 234.728 221.663 235.042 221.753 235.359C221.801 235.515 221.846 235.675 221.895 235.834C221.941 235.994 221.985 236.151 222.041 236.31C222.09 236.469 222.142 236.626 222.19 236.785C222.392 237.42 222.607 238.054 222.831 238.684C222.886 238.84 222.944 238.998 223.003 239.156C223.059 239.316 223.117 239.481 223.177 239.642C223.294 239.948 223.409 240.258 223.524 240.561C223.585 240.715 223.647 240.872 223.703 241.024C223.763 241.178 223.827 241.33 223.886 241.481C223.945 241.622 224.004 241.766 224.055 241.913C224.132 242.098 224.209 242.283 224.281 242.466C224.51 243.015 224.734 243.556 224.963 244.083C225.073 244.347 225.188 244.606 225.304 244.861C225.34 244.949 225.377 245.03 225.416 245.114C225.519 245.346 225.621 245.576 225.725 245.801C225.883 246.148 226.038 246.487 226.187 246.814C226.261 246.966 226.331 247.119 226.401 247.269C226.434 247.341 226.469 247.416 226.502 247.488C226.642 247.785 226.778 248.069 226.909 248.345C227.803 250.197 228.517 251.56 228.819 252.119C228.834 252.157 228.852 252.191 228.868 252.223C228.933 252.344 228.971 252.411 228.971 252.411C227.942 253.884 226.717 255.243 225.409 256.499C225.328 256.578 225.242 256.662 225.149 256.745C225.063 256.829 224.968 256.916 224.869 257.002C224.772 257.091 224.676 257.182 224.568 257.272C224.372 257.446 224.163 257.626 223.938 257.813C223.663 258.04 223.372 258.278 223.064 258.523C222.875 258.674 222.677 258.828 222.478 258.987C222.155 259.238 221.818 259.498 221.466 259.762C221.164 259.99 220.847 260.222 220.532 260.46C219.946 260.892 219.337 261.334 218.702 261.781C218.577 261.87 218.448 261.958 218.322 262.052C218.068 262.23 217.813 262.412 217.556 262.591C217.159 262.872 216.759 263.152 216.354 263.431C215.983 263.684 215.611 263.942 215.236 264.201C215.206 264.221 215.177 264.24 215.144 264.26C214.86 264.457 206.408 270.608 198.501 276.361L210 304.042C222.102 294.406 250.975 272.537 250.975 272.537L267.138 274.452C272.087 272.266 281.642 263.833 289.102 256.813C283.6 261.818 271.645 269.41 271.645 269.41Z" fill="#D87290"/>
</g>
<g style="mix-blend-mode:multiply" opacity="0.3">
<path fill-rule="evenodd" clip-rule="evenodd" d="M275.41 213.177L282.738 220.187C282.888 219.553 280.248 215.047 280.248 215.047L284.308 208.19L294.377 196.979C283.796 205.904 275.41 213.177 275.41 213.177Z" fill="#D87290"/>
</g>
<path d="M176.792 286.73L175.778 282.733C154.267 267.281 130.823 249.576 128.109 246.173C126.681 241.548 129.361 222.95 131.787 210.867C134.591 202.064 133.229 192.896 130.344 189.422C129.211 188.053 126.14 185.417 121.224 181.228L119.615 179.858C116.979 177.61 113.719 174.792 111.882 172.956C109.616 170.699 107.221 167.463 105.297 164.867C103.006 161.776 101.755 160.124 100.526 159.276C99.7443 158.735 98.7405 158.298 97.5474 157.981C95.1146 157.181 92.9813 157.03 91.1951 157.534C90.6519 157.607 90.1546 157.708 89.7178 157.843C88.5896 158.186 86.8378 159.215 82.1375 162.066C79.826 163.467 77.2721 165.015 74.7732 166.447C73.7891 165.68 73.0382 165.128 72.4957 164.772C67.5624 161.529 56.8715 160.36 52.7706 162.611C48.6045 164.901 44.0039 173.822 44.1366 179.358C44.155 180.103 44.2765 180.822 44.4582 181.49C43.145 182.078 41.6244 182.942 40.0091 184.214C38.8805 185.104 37.849 186.267 36.9416 187.665C32.7418 193.616 33.9632 198.97 34.3379 200.225C34.4522 200.684 34.5928 201.12 34.7607 201.538C33.1538 203.944 30.688 208.326 29.9971 213.352C29.2406 217.581 30.0987 220.183 30.6243 221.286C30.6376 221.334 30.6563 221.38 30.6696 221.427L30.9913 222.111C31.1114 222.306 32.0142 223.713 34.0495 225.469C29.9437 236.122 32.8959 241.787 33.6925 243.032C33.8694 243.339 34.0411 243.613 34.2208 243.869C34.6959 244.549 35.2641 245.244 35.9051 245.93L35.9435 245.896L35.8787 245.987C36.2887 246.389 36.7054 246.782 37.1186 247.154C37.3919 247.411 37.6484 247.633 37.8924 247.846L38.0166 247.949C38.2441 248.145 38.4935 248.357 38.7473 248.562L38.8065 248.605C39.112 248.857 39.4188 249.1 39.7301 249.337C39.9118 249.472 40.085 249.606 40.2503 249.724L40.3687 249.809C40.9272 250.228 41.5022 250.631 42.128 251.042C45.7993 253.518 49.0755 254.998 50.1373 255.452C50.1761 255.47 50.2148 255.489 50.2536 255.507C52.8885 257.282 72.8008 270.625 80.0644 273.58C80.8495 273.907 81.5456 274.128 82.1665 274.242C84.9983 274.795 88.4117 274.74 91.4224 274.695C93.2978 274.666 96.0914 274.62 97.0023 274.876C98.4916 275.972 104.817 281.922 110.935 287.68C122.135 298.219 136.074 311.329 144.099 317.515L146.882 318.123C147.272 318.034 152.727 316.677 159.781 310.464L176.792 286.73ZM131.622 210.649L131.897 209.931C131.901 210.188 131.874 210.443 131.821 210.688L131.622 210.649ZM131.021 212.233L131.034 212.2L131.741 211.004C131.596 211.456 131.352 211.876 131.021 212.233Z" fill="white"/>
<path d="M93.5236 186.659C93.5236 186.659 74.6768 170.177 70.669 167.545C66.6613 164.913 57.1976 163.967 54.3721 165.519C51.5467 167.071 47.3561 174.728 47.4619 179.268C47.5128 181.443 49.1145 183.553 49.1145 183.553C49.1145 183.553 46.0118 183.708 42.0659 186.816C38.1147 189.926 35.6089 198.031 38.7124 201.746C38.7124 201.746 30.7991 211.364 33.8302 220.356C33.8302 220.356 35.0038 222.255 38.1152 224.386C38.1152 224.386 32.7225 235.919 36.9494 241.945C41.1763 247.972 51.866 252.566 51.866 252.566C51.866 252.566 65.8627 246.398 81.6944 223.527C97.5261 200.655 93.5259 186.656 93.5259 186.656L93.5236 186.659Z" fill="url(#paint10_linear_4124_65)"/>
<path d="M125.179 247.791C125.179 247.791 125.158 247.776 125.143 247.718C122.265 242.739 125.9 218.317 128.563 210.033C128.57 210.023 128.562 210.013 128.572 210.006C128.572 209.987 128.579 209.978 128.579 209.978C131.261 201.693 129.703 193.852 127.786 191.543C126.639 190.16 121.992 186.253 117.456 182.383C114.379 179.757 111.358 177.13 109.529 175.304C104.992 170.783 100.431 163.248 98.6389 162.015C96.8364 160.77 92.6167 160.436 90.6935 161.025C89.1308 161.5 81.2354 166.695 74.4652 170.446C72.9308 171.309 71.4621 172.087 70.1261 172.72C62.902 176.169 53.6838 178.844 52.6451 179.813C52.303 180.138 52.182 181.071 52.3111 182.254C52.3115 182.273 52.3124 182.311 52.3154 182.346C52.4387 183.577 52.8068 185.058 53.3953 186.443C53.4047 186.449 53.4153 186.481 53.4247 186.487C53.9826 187.77 54.744 188.953 55.7058 189.751C55.7058 189.751 55.8461 189.851 56.1049 190.037C59.8441 192.457 73.503 194.305 84.2554 186.25L87.4203 181.374L87.5615 181.163C87.5615 181.163 93.0788 185.33 93.5282 186.672C93.538 186.698 93.5487 186.729 93.5392 186.755C93.6244 188.638 83.9202 205.745 81.6959 223.537C81.6959 223.537 65.2079 243.413 55.7049 250.377C55.6794 250.406 55.6606 250.426 55.6316 250.433C54.8339 251.013 54.0965 251.508 53.4025 251.884C53.3199 251.933 53.2369 251.964 53.1544 252.013C52.7344 252.25 52.3324 252.429 51.955 252.541C51.917 252.561 51.8912 252.57 51.8653 252.58C51.8653 252.58 73.9425 267.498 81.3267 270.502C81.9082 270.745 82.4051 270.907 82.788 270.979C87.9769 271.989 96.021 270.695 98.5263 271.901C101.022 273.114 132.684 304.511 146.141 314.883C146.141 314.883 161.273 311.378 173.847 285.44C173.847 285.44 128.157 252.625 125.189 247.798L125.179 247.791Z" fill="url(#paint11_linear_4124_65)"/>
<g style="mix-blend-mode:multiply" opacity="0.31">
<path d="M38.2251 243.615C38.5968 243.985 38.9899 244.352 39.3733 244.693C39.6208 244.927 39.8608 245.132 40.1079 245.347C40.6217 245.795 41.1543 246.224 41.6771 246.627C41.8682 246.769 42.057 246.914 42.2356 247.046C42.8261 247.493 43.4033 247.893 43.9801 248.273C47.4288 250.599 50.5245 252.001 51.5288 252.424C51.736 252.53 51.8581 252.57 51.8581 252.57C51.884 252.561 51.9152 252.55 51.9478 252.531C52.3337 252.387 52.7357 252.208 53.1472 252.003C53.2298 251.954 53.3127 251.923 53.3953 251.874C63.6052 246.729 81.1537 227.849 81.1537 227.849L82.3029 236.964C82.3029 236.964 84.5581 225.074 88.0543 212.875C89.6127 207.409 91.4302 201.897 93.4023 197.355C95.3286 192.936 97.4033 189.449 99.5435 187.826C108.793 180.808 117.453 182.381 117.453 182.381C114.375 179.755 111.355 177.128 109.526 175.302C104.989 170.781 100.428 163.245 98.6357 162.013C99.2242 166.097 86.4341 179.628 84.2861 180.821C74.2512 186.394 56.2021 185.345 54.2213 183.585C52.3517 181.933 52.6036 180.061 52.6423 179.829C52.3908 180.654 52.2932 181.462 52.3079 182.251C52.3083 182.27 52.3092 182.309 52.3122 182.344C52.3597 183.865 52.8198 185.27 53.3921 186.44C53.4015 186.447 53.4121 186.478 53.4215 186.485C54.4099 188.477 55.7026 189.748 55.7026 189.748C55.7026 189.748 55.8429 189.849 56.1017 190.034C56.2999 190.186 56.5853 190.4 56.9193 190.658C60.8889 193.692 73.2184 203.294 73.2448 206.253C73.2671 209.771 62.7746 221.65 60.2735 220.669C57.7848 219.697 38.7161 201.754 38.7161 201.754C43.8596 207.871 59.4364 221.844 60.1277 222.835C60.8159 223.824 54.0828 233.698 51.6919 233.235C49.4515 232.818 39.4937 225.412 38.2485 224.495C44.0302 229.432 53.3658 236.417 53.3658 236.417C53.1815 238.965 47.3188 245.334 46.0343 245.546C44.8524 245.746 39.2483 243.952 38.3512 243.663C38.267 243.636 38.2291 243.623 38.2291 243.623L38.2251 243.615Z" fill="#D87290"/>
</g>
<g style="mix-blend-mode:soft-light" opacity="0.97">
<path d="M70.125 172.713C70.125 172.713 71.1082 173.008 71.397 173.908C71.6858 174.809 65.5546 181.467 61.0024 182.899C56.4503 184.332 53.5081 179.312 53.5081 179.312L70.1273 172.71L70.125 172.713Z" fill="#F5AF8F"/>
</g>
<g style="mix-blend-mode:multiply" opacity="0.5">
<path d="M91.6392 174.821L87.4139 181.368L88.8316 182.596C88.8316 182.596 89.4191 180.809 91.6392 174.821Z" fill="#D87290"/>
</g>
<g style="mix-blend-mode:multiply" opacity="0.3">
<path d="M52.2645 249.984L51.8594 252.577C51.8594 252.577 69.8889 241.644 81.155 227.856C81.155 227.856 92.9713 195.009 93.5223 186.669L87.5556 181.16C87.5556 181.16 84.9154 185.285 84.2486 186.241C83.5818 187.198 80.691 188.854 80.691 188.854C80.691 188.854 82.6473 193.38 81.4344 195.876C80.9356 196.901 79.8304 198.133 78.6421 199.245C76.9286 200.839 75.0095 202.186 74.3628 202.298C73.2558 202.52 66.2595 197.302 66.2595 197.302C66.2595 197.302 79.9099 209.229 80.6554 210.848C81.4201 212.468 75.8403 227.699 70.8377 226.968C70.8377 226.968 66.5377 235.311 63.6681 236.596C60.8039 237.879 57.8778 236.622 57.8778 236.622C57.8778 236.622 61.0387 240.152 59.1504 243.386C57.2519 246.607 54.1924 248.157 52.1974 248.227C52.0141 248.233 51.7898 248.223 51.529 248.192C49.0989 247.941 43.6459 246.463 42.9048 246.253L49.4711 248.864L52.2605 249.976L52.2645 249.984Z" fill="#D87290"/>
</g>
<g style="mix-blend-mode:multiply" opacity="0.3">
<path d="M173.839 285.433C173.839 285.433 128.148 252.618 125.18 247.791C122.231 242.964 125.888 218.308 128.57 210.004C128.036 211.051 110.942 244.513 111.398 248.295C111.87 252.159 150.355 284.033 173.839 285.433Z" fill="#D87290"/>
</g>
<g style="mix-blend-mode:multiply" opacity="0.6">
<path d="M125.179 247.791C125.179 247.791 125.157 247.776 125.142 247.718C125.12 247.683 125.104 247.633 125.084 247.595C124.52 246.361 121.963 238.695 128.559 210.03C128.123 210.935 114.161 240.337 105.074 253.942C95.8147 267.763 81.3225 270.495 81.3225 270.495C81.904 270.737 82.4009 270.9 82.7838 270.971C87.9727 271.981 96.0168 270.687 98.522 271.893C101.017 273.106 132.68 304.503 146.137 314.875C146.137 314.875 161.269 311.37 173.843 285.433C173.843 285.433 128.152 252.617 125.185 247.79L125.179 247.791Z" fill="#F3BAC0"/>
</g>
<path d="M70.1255 172.715C70.1255 172.715 71.6761 173.916 68.8314 177.417C65.3746 181.674 60.394 183.059 60.394 183.059C60.394 183.059 66.0064 182.254 70.5823 175.85C75.1582 169.446 70.1255 172.715 70.1255 172.715Z" fill="#E86C7C"/>
<g style="mix-blend-mode:soft-light" opacity="0.97">
<path d="M55.5521 178.504C55.5521 178.504 56.0651 181.33 60.3909 183.057C60.3909 183.057 56.7659 184.428 53.5032 179.314L55.549 178.501L55.5521 178.504Z" fill="#F5D3D2"/>
</g>
<g style="mix-blend-mode:soft-light" opacity="0.97">
<path d="M67.5196 173.748C67.5196 173.748 68.5787 175.036 70.402 174.724C70.402 174.724 70.7707 173.393 70.1199 172.714L67.5196 173.748Z" fill="#F5D3D2"/>
</g>
<g style="mix-blend-mode:multiply" opacity="0.5">
<path d="M38.2257 243.615C38.5974 243.985 38.9905 244.352 39.3738 244.693C39.6214 244.927 39.8614 245.132 40.1085 245.347C40.6223 245.795 41.1549 246.224 41.6777 246.627C41.8687 246.769 42.0575 246.914 42.2361 247.047C42.8266 247.493 43.4038 247.893 43.9806 248.273C47.4293 250.599 50.525 252.001 51.5294 252.424C51.7365 252.53 51.8586 252.57 51.8586 252.57C51.8845 252.561 51.9157 252.55 51.9483 252.531C52.3342 252.387 52.7363 252.208 53.1477 252.003C53.2303 251.954 53.3133 251.924 53.3959 251.874C63.6057 246.729 81.1542 227.849 81.1542 227.849L93.5216 186.662L87.5549 181.154C87.5549 181.154 85.0474 185.35 83.408 186.959C81.7685 188.568 71.7687 194.487 56.9158 190.651C60.8855 193.685 73.215 203.286 73.2413 206.245C73.2636 209.763 62.7712 221.643 60.27 220.662C57.7814 219.69 38.7126 201.746 38.7126 201.746C43.8561 207.863 59.433 221.836 60.1242 222.827C60.8124 223.816 54.0794 233.69 51.6884 233.227C49.4481 232.811 39.4902 225.404 38.245 224.488C44.0267 229.425 53.3624 236.409 53.3624 236.409C53.1781 238.957 47.3154 245.326 46.0309 245.538C44.8489 245.739 39.2449 243.945 38.3478 243.655C38.2635 243.628 38.2257 243.615 38.2257 243.615Z" fill="#D87290"/>
</g>
<g style="mix-blend-mode:multiply" opacity="0.5">
<path d="M69.3687 173.013L63.8521 166.817L68.4647 170.133L70.1782 168.789L73.7058 170.86L69.3687 173.013Z" fill="#D87290"/>
</g>
<g style="mix-blend-mode:multiply" opacity="0.5">
<path d="M73.1079 226.433C73.1079 226.433 65.0595 223.552 60.2706 220.667C55.4816 217.782 47.5776 210.862 47.5776 210.862C47.5776 210.862 57.9625 221.056 60.1225 222.836C62.2817 224.61 70.8384 226.973 70.8384 226.973C70.8384 226.973 72.0181 226.775 73.1079 226.433Z" fill="#D87290"/>
</g>
<g style="mix-blend-mode:multiply" opacity="0.5">
<path d="M57.8864 236.622C57.8864 236.622 54.0413 234.843 50.6269 232.825C47.2125 230.807 38.1163 224.391 38.1163 224.391C38.1163 224.391 51.2311 234.688 53.1133 235.716C54.9955 236.744 57.8873 236.627 57.8873 236.627L57.8864 236.622Z" fill="#D87290"/>
</g>
<g style="mix-blend-mode:multiply" opacity="0.5">
<path d="M80.6888 188.856C80.6888 188.856 70.0237 194.558 56.9166 190.656C56.9166 190.656 71.5017 196.769 81.747 192.588L80.6857 188.854L80.6888 188.856Z" fill="#D87290"/>
</g>
<g style="mix-blend-mode:multiply" opacity="0.5">
<path d="M56.9162 190.656C56.9162 190.656 53.7244 186.655 54.6596 183.842C54.6596 183.842 52.8562 182.875 52.6445 179.826C52.6445 179.826 50.738 185.765 56.9162 190.656Z" fill="#D87290"/>
</g>
<g style="mix-blend-mode:soft-light" opacity="0.97">
<path d="M54.3755 165.522C54.3755 165.522 53.3706 170.578 51.4654 174.659C49.5601 178.739 47.4653 179.272 47.4653 179.272C47.4653 179.272 48.0299 170.814 54.3755 165.522Z" fill="#F5EE8F"/>
</g>
<g style="mix-blend-mode:soft-light" opacity="0.97">
<path d="M38.2609 202.343C38.2609 202.343 38.5519 205.973 37.2426 211.566C35.9332 217.159 33.7276 220.018 33.7276 220.018C33.7276 220.018 30.404 214.852 38.2632 202.34L38.2609 202.343Z" fill="#F5EE8F"/>
</g>
<g style="mix-blend-mode:soft-light" opacity="0.97">
<path d="M42.0723 186.821C42.0723 186.821 40.8355 191.371 39.624 194.925C38.4125 198.478 37.5563 199.337 37.5563 199.337C37.5563 199.337 35.3365 193.197 42.0723 186.821Z" fill="#F5EE8F"/>
</g>
<g style="mix-blend-mode:soft-light" opacity="0.97">
<path d="M38.1162 224.39C38.1162 224.39 37.1651 227.955 36.3443 233.044C35.8042 236.385 36.5346 241.279 36.5346 241.279C36.5346 241.279 32.7722 236.085 38.1162 224.39Z" fill="#F5EE8F"/>
</g>
<path style="mix-blend-mode:screen" d="M111.104 182.621C111.104 182.621 120.292 187.225 121.738 199.106C123.184 210.987 87.2997 257.022 83.1652 258.253C79.033 259.482 86.1134 206.36 95.2627 193.504C104.412 180.647 111.102 182.625 111.102 182.625L111.104 182.621Z" fill="url(#paint12_linear_4124_65)"/>
<g style="mix-blend-mode:multiply" opacity="0.5">
<path d="M125.083 247.597C125.083 247.597 119.026 252.511 111.398 248.294L128.561 210.029C128.561 210.029 122.398 240.591 125.085 247.594L125.083 247.597Z" fill="#D87290"/>
</g>
<path d="M93.5238 186.665C93.5238 186.665 87.6078 186.663 85.7245 187.394C83.839 188.128 81.2396 190.8 81.2396 190.8L80.685 188.855C80.685 188.855 83.2288 187.446 84.2479 186.241C85.2669 185.037 87.5549 181.16 87.5549 181.16C87.5549 181.16 92.9812 185.309 93.5216 186.668L93.5238 186.665Z" fill="#AB3D52"/>
<path d="M52.2 248.228C52.2 248.228 55.5646 249.611 63.9355 240.467C72.3256 231.323 81.077 216.104 81.545 213.193C81.9436 210.761 79.4749 202.512 78.6416 199.243C76.9281 200.837 75.009 202.185 74.3623 202.297C73.2553 202.518 66.259 197.3 66.259 197.3C66.259 197.3 79.9093 209.227 80.6549 210.847C81.4196 212.466 75.8397 227.697 70.8372 226.967C70.8372 226.967 66.5372 235.31 63.6676 236.594C60.8034 237.878 57.8773 236.62 57.8773 236.62C57.8773 236.62 61.0382 240.151 59.1499 243.384C57.2514 246.606 54.1919 248.155 52.1968 248.226L52.2 248.228Z" fill="#AB3D52"/>
<path d="M42.9059 246.257L49.4722 248.868L51.5324 248.193C49.1023 247.942 43.6493 246.464 42.9081 246.254L42.9059 246.257Z" fill="#AB3D52"/>
<g style="mix-blend-mode:soft-light" opacity="0.97">
<path d="M78.5931 267.93C78.5931 267.93 64.3917 260.295 53.648 253.274C53.648 253.274 67.9219 258.049 78.5931 267.93Z" fill="#F5FFFF"/>
</g>
<g style="mix-blend-mode:soft-light" opacity="0.97">
<path d="M147.208 309.979C147.208 309.979 120.544 289.608 106.893 277.506C106.893 277.506 131.341 302.784 145.164 312.153L147.208 309.979Z" fill="#F5FFFF"/>
</g>
<g style="mix-blend-mode:soft-light" opacity="0.97">
<path d="M127.169 194.003C127.169 194.003 131.106 200.638 128.057 208.23C125.005 215.826 116.109 232.366 116.109 232.366C116.109 232.366 129.97 206.562 127.169 194.003Z" fill="#F5FFFF"/>
</g>
<g style="mix-blend-mode:soft-light" opacity="0.97">
<path d="M36.6533 220.743C36.6533 220.743 45.0424 228.521 51.002 231.854C51.002 231.854 43.6722 229.847 36.6533 220.743Z" fill="#F5FFFF"/>
</g>
<g style="mix-blend-mode:soft-light" opacity="0.97">
<path d="M37.7722 239.322C37.7722 239.322 42.0413 243.788 46.3245 244.857C46.3245 244.857 39.9592 244.797 37.7722 239.322Z" fill="#F5FFFF"/>
</g>
<g style="mix-blend-mode:soft-light" opacity="0.97">
<path d="M40.376 199.985C40.376 199.985 49.3549 211.022 59.653 218.125C59.653 218.125 46.5551 211.913 40.376 199.985Z" fill="#F5FFFF"/>
</g>
<g style="mix-blend-mode:soft-light" opacity="0.97">
<path d="M100.117 164.995C100.117 164.995 101.745 170.197 105.307 174.142C108.866 178.091 118.511 184.433 118.511 184.433C118.511 184.433 103.926 171.553 100.119 164.992L100.117 164.995Z" fill="#F5FFFF"/>
</g>
<g style="mix-blend-mode:soft-light" opacity="0.97">
<path d="M172.156 285.281C172.156 285.281 138.132 266.797 125.459 252.216C125.459 252.216 144.302 264.589 172.156 285.281Z" fill="#F5FFFF"/>
</g>
<g style="mix-blend-mode:soft-light" opacity="0.97">
<path d="M77.7188 209.262C79.0017 211.106 78.3566 219.742 73.7673 222.333C73.7673 222.333 76.1136 216.011 77.1304 213.21C78.1418 210.41 77.7219 209.264 77.7219 209.264L77.7188 209.262Z" fill="#F5A995"/>
</g>
<g style="mix-blend-mode:soft-light" opacity="0.97">
<path d="M68.7656 228.054C68.7656 228.054 64.0767 237.789 58.5111 235.961C58.5111 235.961 65.9293 232.972 68.7656 228.054Z" fill="#F5A995"/>
</g>
<g style="mix-blend-mode:soft-light" opacity="0.97">
<path d="M56.6495 245.669C56.6495 245.669 52.0096 246.737 50.9567 247.653C50.9567 247.653 54.0467 248.503 56.6495 245.669Z" fill="#F5A995"/>
</g>
<g style="mix-blend-mode:multiply" opacity="0.3">
<path d="M73.0713 207.167C73.0713 207.167 72.4345 211.821 68.3175 216.558C64.2004 221.295 60.2674 220.665 60.2674 220.665C60.2674 220.665 68.7702 216.736 73.0713 207.167Z" fill="#D87290"/>
</g>
<g style="mix-blend-mode:multiply" opacity="0.3">
<path d="M59.8831 224.018C59.8831 224.018 60.552 226.989 58.6255 230.125C56.699 233.26 52.3688 233.139 52.3688 233.139C52.3688 233.139 57.4653 230.157 59.8831 224.018Z" fill="#D87290"/>
</g>
<g style="mix-blend-mode:multiply" opacity="0.3">
<path d="M53.4658 237.271C53.4658 237.271 53.6866 239.893 52.0417 242.102C50.399 244.308 46.6922 245.2 46.6922 245.2C46.6922 245.2 49.8121 243.534 53.4658 237.271Z" fill="#D87290"/>
</g>
<path d="M207.315 268.67C206.872 266.058 206.223 262.154 205.511 257.652L205.482 257.451C204.458 250.962 203.597 245.042 202.92 239.857L202.917 239.672L202.877 239.514L202.857 239.369C202.211 234.35 201.747 230.086 201.481 226.677L201.438 226.084C200.981 219.837 201.366 218.325 201.422 218.142C202.808 214.875 214.837 205.679 220.623 201.254C224.919 197.968 227.402 196.053 228.483 194.906L228.504 194.884C231.821 191.33 235.02 185.11 235.487 181.311C235.689 179.731 235.145 177.691 233.553 174.043C232.656 171.974 231.524 169.623 230.427 167.349C228.882 164.15 227.285 160.843 226.556 158.715C225.274 154.978 223.687 147.72 222.742 143.38L222.554 142.53C225.19 120.078 226.756 111.792 227.612 108.786C227.946 107.594 228.38 106.282 228.973 104.632C229.405 103.423 229.861 102.198 230.347 100.902C233.61 92.1541 237.318 82.237 235.499 70.1795C233.945 59.8383 228.462 56.8026 225.331 55.9099C220.604 54.5659 215.94 56.3322 213.942 58.6916C213.219 59.5531 212.414 61.0246 211.409 65.7603L211.104 66.0771L211.146 67.0853C210.153 72.0743 209.265 78.547 208.549 83.7698C208.087 87.1362 207.689 90.0443 207.442 91.214C207.172 92.4777 206.788 94.0208 206.383 95.6495C206.178 96.4704 205.965 97.3175 205.759 98.1743L205.679 98.5147C204.939 101.549 204.119 105.331 204.069 108.396C204.029 111.074 202.043 123.925 200.173 133.809C199.818 133.84 199.456 133.873 199.086 133.905C198.077 133.994 197.006 134.09 195.884 134.189C194.843 128.382 193.448 119.982 191.808 109.628L191.778 109.463C191.765 109.395 191.751 109.332 191.744 109.271L191.734 109.199C191.68 108.819 191.626 108.48 191.575 108.179C191.54 107.944 191.504 107.733 191.475 107.556L191.452 107.412C191.419 107.157 191.387 106.973 191.37 106.875C190.676 102.503 190.166 99.206 190.026 98.275C190.04 97.4124 190.044 96.529 190.036 95.6572C190.024 87.4369 189.223 77.4159 187.9 68.8488C185.557 53.6969 183.081 51.876 182.015 51.0919C177 47.441 167.091 50.1983 165.164 51.5278C164.571 51.9388 163.188 52.8953 162.008 58.3916C161.601 60.2937 160.954 64.0873 161.212 68.1002C161.461 72.1237 162.345 77.828 163.126 82.8626C163.532 85.4823 163.917 87.9539 164.119 89.6576L164.142 89.8525C164.21 90.4096 164.278 90.9786 164.359 91.5397C164.545 92.9396 164.75 94.3616 164.952 95.7331C165.279 98.0004 165.731 101.105 165.701 101.822C165.615 103.157 166.07 105.018 167.02 108.768C167.202 109.481 167.392 110.231 167.582 110.997L167.587 111.094L167.651 111.308L170.083 125.223C168.883 124.456 167.596 123.896 166.243 123.669C162.616 123.063 158.758 124.446 156.166 125.709C153.385 127.053 149.642 129.481 148.24 131.915C147.185 133.778 146.265 137.427 145.7 140.042C143.88 140.223 141.493 140.773 139.263 142.241C132.869 145.546 129.661 152.133 130.248 156.636C130.767 160.702 136.575 176.484 137.803 179.791C137.942 180.228 138.777 182.826 139.751 186.022L139.827 186.277C141.004 190.204 142.58 195.617 143.108 198.422C143.755 201.871 145.218 206.171 147.061 210.049L147.362 210.683C148.134 212.267 148.903 213.619 149.59 214.592C151.08 216.712 154.479 218.522 159.12 220.848C159.906 221.242 160.879 221.729 161.569 222.104C161.935 228.339 162.095 256.432 162.108 274.079L162.11 276.392L164.314 277.096C164.681 277.211 167.886 278.217 172.584 279.083L207.318 268.669L207.315 268.67Z" fill="white"/>
<path d="M225.984 103.57C225.446 105.061 224.959 106.508 224.557 107.926C222.408 115.469 219.411 141.574 217.973 154.825C217.463 159.563 217.148 162.656 217.148 162.656C217.148 162.656 209.038 190.186 203.343 194.955C199.801 197.92 177.204 193.148 160.169 187.733C149.853 184.45 141.579 180.933 140.792 178.756C140.792 178.756 133.893 160.176 133.388 156.237C132.872 152.286 137.08 143.575 148.302 143.178L148.31 143.1C148.461 142.284 149.703 135.74 150.99 133.475C151.742 132.17 154.398 130.076 157.538 128.557C160.224 127.25 163.246 126.379 165.711 126.791C169.795 127.482 173.552 132.953 175.09 135.499C175.516 136.194 175.777 136.657 175.833 136.775C175.701 135.992 172.743 119.901 171.679 114.689C171.411 113.358 171.092 112.017 170.772 110.701C170.772 110.661 170.758 110.638 170.745 110.61C170.745 110.571 170.727 110.549 170.73 110.532C170.718 110.492 170.715 110.469 170.715 110.469C169.763 106.597 168.787 103.167 168.861 102.018C168.953 100.649 168.1 95.6518 167.497 91.1092C167.412 90.4821 167.338 89.8637 167.264 89.2608C166.673 84.347 164.747 73.9118 164.374 67.8922C163.99 61.8878 165.85 54.8981 166.966 54.1206C168.07 53.3583 176.533 51.0148 180.133 53.642C183.523 56.1344 186.829 78.9566 186.853 95.6503C186.862 96.6168 186.86 97.5589 186.842 98.4742C186.842 98.4742 187.399 102.14 188.235 107.396C188.235 107.396 188.265 107.561 188.302 107.858C188.336 108.062 188.385 108.344 188.433 108.678C188.482 108.96 188.531 109.281 188.583 109.637C188.601 109.79 188.632 109.947 188.665 110.111C190.756 123.298 194.005 143.147 194.867 144.557C196.17 146.687 199.126 147.549 200.534 145.845C201.942 144.157 207.158 113.186 207.23 108.426C207.276 105.742 208.013 102.249 208.83 98.919L208.827 98.9081C209.459 96.3176 210.114 93.819 210.534 91.8574C211.218 88.6619 212.639 75.6171 214.309 67.3713C214.308 67.3437 214.32 67.3045 214.318 67.2816C214.33 67.27 214.329 67.2544 214.329 67.2424L214.329 67.2148C214.341 67.1876 214.341 67.1756 214.341 67.1756C214.986 63.9682 215.683 61.52 216.362 60.7075C218.822 57.806 230.094 55.5697 232.359 70.6306C234.314 83.6045 229.275 94.2926 225.974 103.55L225.984 103.57Z" fill="url(#paint13_linear_4124_65)"/>
<g style="mix-blend-mode:multiply" opacity="0.5">
<path d="M207.752 136.356L210.337 167.764L171.154 187.336L160.174 187.737C149.858 184.453 141.584 180.937 140.797 178.76C140.797 178.76 133.898 160.179 133.393 156.24L139.087 158.303L137.766 152.485L141.304 156.582C141.304 156.582 143.538 159.916 144.358 160.133C145.179 160.349 157.351 159.414 158.009 152.729C158.009 152.729 151.617 144.958 148.303 143.182L148.312 143.105C148.462 142.288 149.705 135.745 150.992 133.48C150.992 133.48 155.881 141.397 157.739 145.326C159.598 149.242 175.918 146.11 178.043 141.892L175.091 135.503L170.743 110.616C170.758 110.639 170.77 110.667 170.77 110.707C171.431 112.977 176.877 131.483 178.545 133.419C180.335 135.47 189.405 133.925 190.464 130.783C191.279 128.355 189.506 115.75 188.669 110.123C190.759 123.309 194.008 143.158 194.87 144.569C196.173 146.698 199.13 147.56 200.537 145.857C201.946 144.169 207.162 113.198 207.234 108.437C207.28 105.753 208.017 102.261 208.834 98.9307L207.746 136.349L207.752 136.356Z" fill="#D87290"/>
</g>
<g style="mix-blend-mode:multiply" opacity="0.31">
<path d="M225.984 103.57C225.446 105.061 224.958 106.509 224.557 107.926C222.408 115.47 219.411 141.574 217.973 154.825L188.47 157.713C188.47 157.713 173.558 132.951 175.094 135.501C175.52 136.196 175.782 136.66 175.837 136.778C175.705 135.995 172.748 119.903 171.684 114.692C171.415 113.36 171.096 112.02 170.777 110.704C170.777 110.664 170.762 110.641 170.749 110.613C170.749 110.573 170.731 110.551 170.734 110.535C170.722 110.495 170.719 110.472 170.719 110.472C169.768 106.6 168.791 103.17 168.866 102.02C168.958 100.652 168.104 95.6545 167.502 91.1119L167.648 90.9018C167.648 90.9018 170.148 100.414 173.283 101.938C176.407 103.45 184.352 103.813 186.788 95.8283C186.811 95.7618 186.836 95.711 186.859 95.6566C186.868 96.6231 186.865 97.5652 186.847 98.4806C186.847 98.4806 187.404 102.147 188.24 107.402C188.24 107.402 188.27 107.567 188.308 107.865C188.341 108.068 188.39 108.35 188.439 108.684C188.488 108.966 188.536 109.287 188.588 109.644C188.606 109.797 188.637 109.953 188.671 110.117C190.761 123.304 194.01 143.153 194.872 144.564C196.175 146.693 199.131 147.555 200.539 145.851C201.948 144.163 207.164 113.192 207.236 108.432C207.282 105.748 208.019 102.256 208.836 98.9253L208.832 98.9144C209.464 96.3239 210.119 93.8253 210.54 91.8637C211.223 88.6683 212.645 75.6234 214.314 67.3776C214.106 70.1416 211.694 100.675 213.207 103.572C214.539 106.128 221.817 107.075 225.981 103.56L225.984 103.57Z" fill="#D87290"/>
</g>
<path d="M204.255 269.587C203.808 266.948 203.114 262.8 202.351 257.958L202.347 257.947C199.957 242.77 196.888 220.778 198.488 216.944C200.954 211.015 223.18 195.914 226.171 192.738L226.184 192.727C229.124 189.578 231.964 183.984 232.342 180.916C232.474 179.891 231.738 177.818 230.644 175.306C228.492 170.33 224.882 163.619 223.555 159.749C221.55 153.918 219.037 140.747 218.686 139.947C218.336 139.134 213.837 136.294 211.554 136.211C209.269 136.124 203.029 136.765 193.122 137.615C183.226 138.466 175.029 136.983 173.178 137.566C172.798 137.696 172.447 138.03 172.154 138.518L172.143 138.521L172.145 138.528L172.129 138.541C172.118 138.568 172.093 138.619 172.058 138.685C171.004 140.591 170.59 144.398 170.991 146.881C171.519 150.108 185.271 156.777 189.671 156.862C194.068 156.948 203.35 154.817 203.35 154.817C203.35 154.817 203.765 161.556 203.712 162.292C203.686 162.601 199.593 164.967 194.372 168.134C194.332 168.146 194.31 168.177 194.27 168.189C192.946 168.997 191.559 169.86 190.148 170.75C183.908 174.662 177.242 179.172 174.158 182.62C174.158 182.62 146.546 182.232 140.8 178.757C140.8 178.757 141.701 181.549 142.783 185.105L142.797 185.128C144.09 189.452 145.663 194.87 146.226 197.842C146.931 201.606 148.61 206.032 150.21 209.286L150.214 209.297C150.908 210.73 151.596 211.94 152.181 212.77C154.071 215.459 163.848 219.228 164.545 220.313C165.23 221.409 165.275 274.074 165.275 274.074C165.275 274.074 171.658 276.112 179.878 276.891L204.257 269.582L204.255 269.587Z" fill="url(#paint14_linear_4124_65)"/>
<g style="mix-blend-mode:multiply" opacity="0.31">
<path d="M172.149 138.513L172.136 138.525L172.132 138.513L172.147 138.509L172.149 138.513Z" fill="#D87290"/>
</g>
<g style="mix-blend-mode:multiply" opacity="0.31">
<path d="M174.152 182.627C177.235 179.175 183.902 174.668 190.142 170.756C180.262 177.662 173.61 187.932 173.61 187.932C160.15 194.519 153.221 203.997 150.207 209.288C148.606 206.034 146.923 201.609 146.222 197.844C145.664 194.875 144.086 189.454 142.794 185.13L142.779 185.107C141.697 181.55 140.796 178.759 140.796 178.759C146.543 182.238 174.154 182.622 174.154 182.622L174.152 182.627Z" fill="#D87290"/>
</g>
<g style="mix-blend-mode:multiply" opacity="0.31">
<path d="M190.145 170.752C191.466 169.826 192.838 168.968 194.267 168.191C192.942 169 191.556 169.863 190.145 170.752Z" fill="#D87290"/>
</g>
<g style="mix-blend-mode:multiply" opacity="0.31">
<path d="M230.639 175.299C220.95 174.027 204.682 164.758 204.682 164.758C201.06 165.16 197.589 166.406 194.365 168.136C199.587 164.969 203.676 162.604 203.706 162.294C203.758 161.558 203.344 154.819 203.344 154.819C203.344 154.819 194.065 156.949 189.664 156.864C185.268 156.778 171.517 150.113 170.984 146.883C170.582 144.396 171 140.592 172.051 138.687C171.622 139.63 169.841 144.179 174.105 147.676C178.885 151.587 202.495 152.819 206.342 150.847C210.178 148.878 218.678 139.945 218.678 139.945C219.029 140.746 221.546 153.915 223.547 159.747C224.874 163.618 228.481 170.333 230.636 175.304L230.639 175.299Z" fill="#D87290"/>
</g>
<g style="mix-blend-mode:multiply" opacity="0.5">
<path d="M203.342 154.817L210.789 152.514L203.519 157.174L203.342 154.817Z" fill="#D87290"/>
</g>
<g style="mix-blend-mode:multiply" opacity="0.5">
<path d="M203.342 154.817L203.704 162.291C203.704 162.291 188.126 164.003 174.151 182.623C174.151 182.623 159.739 182.802 151.326 181.223L145.918 175.138L139.081 158.296L137.76 152.477L142.168 159.396C142.168 159.396 144.989 166.497 146.169 168.651C147.345 170.806 152.831 173.904 154.718 173.774C156.605 173.643 161.685 170.53 162.247 169.226C162.809 167.922 158.005 152.717 158.005 152.717C158.005 152.717 151.495 145.25 148.3 143.17C148.3 143.17 156.743 147.201 158.143 148.676C159.539 150.153 164.396 164.507 167.132 165.875C169.868 167.242 175.792 165.561 177.391 164.219C178.991 162.877 180.036 153.62 180.036 153.62C180.036 153.62 187.416 156.728 189.66 156.85C191.904 156.972 203.339 154.806 203.339 154.806L203.342 154.817Z" fill="#D87290"/>
</g>
<g style="mix-blend-mode:soft-light" opacity="0.97">
<path d="M174.41 137.427C173.165 137.444 172.465 142.615 174.64 143.695C176.811 144.777 190.265 143.615 193.335 140.756C196.406 137.897 188.146 137.248 174.414 137.426L174.41 137.427Z" fill="#F5AF8F"/>
</g>
<path d="M175.167 143.87C175.167 143.87 178.726 144.95 185.275 144.007C191.829 143.067 196.03 140.257 196.26 139.06C196.49 137.86 189.275 137.836 189.275 137.836C189.275 137.836 193.866 138.41 193.755 139.887C193.644 141.364 182.947 145.279 175.163 143.871L175.167 143.87Z" fill="#E86C7C"/>
<g style="mix-blend-mode:soft-light" opacity="0.97">
<path d="M175.954 137.363C175.954 137.363 175.221 140.843 176.14 144.013C176.14 144.013 175.189 143.969 174.422 143.562C173.655 143.155 172.297 139.204 174.409 137.423L175.953 137.36L175.954 137.363Z" fill="#F5D3D2"/>
</g>
<g style="mix-blend-mode:soft-light" opacity="0.97">
<path d="M189.279 137.834C189.279 137.834 188.13 138.685 188.406 139.591C188.681 140.497 192.817 140.832 192.817 140.832C192.817 140.832 193.994 140.364 193.639 139.446C193.285 138.528 189.28 137.838 189.28 137.838L189.279 137.834Z" fill="#F5D3D2"/>
</g>
<g style="mix-blend-mode:soft-light" opacity="0.97">
<path d="M161.561 168.814C161.561 168.814 161.273 171.852 155.215 173.336C154.945 173.397 154.653 173.148 154.367 172.684C153.45 171.234 152.618 167.773 152.982 165.465L153.038 165.203C153.058 165.074 153.079 164.945 153.115 164.827C153.127 164.8 153.127 164.776 153.139 164.761C153.718 163.013 156.423 162.206 158.621 163.493C159.833 164.198 160.888 165.539 161.365 167.698C161.368 167.709 161.365 167.726 161.377 167.738C161.453 168.071 161.517 168.428 161.558 168.815L161.561 168.814Z" fill="#F5AF8F"/>
</g>
<g style="mix-blend-mode:soft-light" opacity="0.97">
<path d="M177.681 162.968C177.6 163.254 177.521 163.475 177.423 163.623C176.751 164.667 172.914 167.214 169.019 165.399C168.914 165.352 168.821 165.292 168.727 165.218C168.315 164.886 168.01 164.278 167.789 163.525L167.789 163.486C167.094 161.036 167.342 156.915 168.487 154.348C168.868 153.522 169.334 152.848 169.888 152.453C172.291 150.755 175.16 151.695 176.657 153.509C176.684 153.532 176.696 153.56 176.711 153.584C176.967 153.898 177.187 154.236 177.353 154.59C177.395 154.68 177.437 154.766 177.464 154.869C178.305 157.121 178.159 161.211 177.681 162.968Z" fill="#F5AF8F"/>
</g>
<g style="mix-blend-mode:multiply" opacity="0.5">
<path d="M176.652 153.508L177.05 154.176C175.716 152.614 171.554 150.844 169.415 154.016C167.154 157.384 167.681 162.638 167.788 163.484C166.871 160.242 167.6 154.07 169.887 152.451C172.29 150.753 175.159 151.693 176.656 153.507L176.652 153.508Z" fill="#D87290"/>
</g>
<g style="mix-blend-mode:multiply" opacity="0.5">
<path d="M177.464 154.869L177.05 154.175C177.182 154.313 177.279 154.45 177.348 154.588C177.391 154.678 177.432 154.764 177.459 154.867L177.464 154.869Z" fill="#D87290"/>
</g>
<g style="mix-blend-mode:multiply" opacity="0.5">
<path d="M161.366 167.699C161.009 166.745 159.243 162.492 155.493 163.969C151.35 165.602 154.267 172.442 154.368 172.684C153.37 171.097 152.436 167.085 153.116 164.828C153.945 162.064 160.02 161.547 161.366 167.699Z" fill="#D87290"/>
</g>
<g style="mix-blend-mode:soft-light" opacity="0.97">
<path d="M161.562 168.814C161.562 168.814 161.274 171.852 155.215 173.336C154.945 173.397 154.653 173.148 154.367 172.684C154.367 172.684 159.063 172.024 161.562 168.814Z" fill="#F5D3D2"/>
</g>
<g style="mix-blend-mode:soft-light" opacity="0.97">
<path d="M177.681 162.97C177.6 163.255 177.52 163.477 177.422 163.625C176.75 164.669 172.913 167.215 169.019 165.4C168.913 165.353 168.821 165.294 168.727 165.219C170.096 165.259 174.564 165.201 177.682 162.973L177.681 162.97Z" fill="#F5D3D2"/>
</g>
<path d="M180.04 153.63C180.04 153.63 187.502 157.832 190.038 158.148C192.573 158.464 202.491 155.657 203.704 162.29L203.342 154.816C203.342 154.816 193.174 156.959 189.663 156.86C186.153 156.761 180.04 153.63 180.04 153.63Z" fill="#AB3D52"/>
<path d="M177.601 164.006C177.601 164.006 177.352 165.208 170.45 167.981C163.548 170.755 156.411 174.433 154.435 174.587C152.46 174.74 146.676 169.354 146.676 169.354C146.676 169.354 153.134 174.269 154.725 173.784C156.316 173.299 161.387 170.631 162.254 169.236C163.118 167.842 159.386 157.216 159.386 157.216C159.386 157.216 162.839 162.874 166.15 164.975C169.461 167.071 175.862 166.189 177.602 164.01L177.601 164.006Z" fill="#AB3D52"/>
<path d="M170.987 146.883C170.987 146.883 172.244 150.639 179.817 155.382L183.695 155.24C183.695 155.24 175.92 152.568 170.991 146.881L170.987 146.883Z" fill="#AB3D52"/>
<g style="mix-blend-mode:multiply" opacity="0.6">
<path d="M202.336 257.896C201.634 255.99 187.15 215.281 193.575 209.478C200.067 203.635 225.367 192.984 226.17 192.735C223.179 195.911 200.955 211.015 198.487 216.941C196.887 220.775 199.954 242.72 202.335 257.892L202.336 257.896Z" fill="#F3BAC0"/>
</g>
<g style="mix-blend-mode:multiply" opacity="0.6">
<path d="M204.255 269.587C203.808 266.948 203.115 262.801 202.351 257.958L202.348 257.947C199.957 242.77 196.888 220.779 198.488 216.944C200.955 211.015 223.18 195.914 226.172 192.739C226.172 192.739 189.073 209.684 174.644 212.001C160.216 214.317 152.18 212.778 152.18 212.778C154.07 215.467 163.847 219.237 164.544 220.321C165.229 221.418 165.274 274.082 165.274 274.082C165.274 274.082 171.657 276.12 179.877 276.9L204.256 269.59L204.255 269.587Z" fill="#F3BAC0"/>
</g>
<g style="mix-blend-mode:multiply" opacity="0.5">
<path d="M226.17 192.735C223.179 195.911 200.955 211.015 198.487 216.941L193.575 209.478C200.067 203.635 225.367 192.984 226.17 192.735Z" fill="#D87290"/>
</g>
<path style="mix-blend-mode:screen" d="M168.918 202.23C168.357 207.129 202.28 202.532 216.253 191.717C225.978 184.189 226.195 178.926 225.581 176.44C224.966 173.955 211.144 166.235 201.021 167.949C190.898 169.663 170.524 188.22 168.918 202.23Z" fill="url(#paint15_linear_4124_65)"/>
<path d="M171.374 193.351C171.374 193.351 175.85 175.399 203.706 162.296C203.706 162.296 175.114 168.63 171.374 193.351Z" fill="#B24D61"/>
<g style="mix-blend-mode:soft-light" opacity="0.97">
<path d="M152.901 132.395C152.901 132.395 162.553 130.732 166.2 127.882C166.2 127.882 158.756 126.328 152.901 132.395Z" fill="#F5EE8F"/>
</g>
<g style="mix-blend-mode:soft-light" opacity="0.97">
<path d="M137.638 148.946C137.638 148.946 145.191 148.054 148.307 143.184C148.307 143.184 140.562 142.247 137.638 148.946Z" fill="#F5EE8F"/>
</g>
<g style="mix-blend-mode:soft-light" opacity="0.97">
<path d="M167.478 54.8532C167.478 54.8532 175.426 56.0185 180.137 53.6566C180.137 53.6566 172.708 51.3348 167.478 54.8532Z" fill="#F5EE8F"/>
</g>
<g style="mix-blend-mode:soft-light" opacity="0.97">
<path d="M216.372 60.7275C216.372 60.7275 225.836 63.4399 230.531 67.1709C230.531 67.1709 229.26 62.1561 225.645 60.388C222.029 58.6199 216.374 60.7228 216.374 60.7228L216.372 60.7275Z" fill="#F5EE8F"/>
</g>
<g style="mix-blend-mode:multiply" opacity="0.3">
<path d="M145.252 160.145C145.252 160.145 149.174 161.102 153.9 159.831C158.629 158.559 157.896 153.411 157.896 153.411C157.896 153.411 155.861 159.263 145.252 160.145Z" fill="#D87290"/>
</g>
<g style="mix-blend-mode:multiply" opacity="0.3">
<path d="M160.161 146.834C160.161 146.834 167.326 148.578 171.598 148.037C171.598 148.037 171.062 147.003 170.95 145.929C170.95 145.929 168.649 146.817 160.158 146.835L160.161 146.834Z" fill="#D87290"/>
</g>
<g style="mix-blend-mode:soft-light" opacity="0.97">
<path d="M144.756 162.161L150.124 171.002C150.124 171.002 146.85 168.867 146.629 168.091C146.407 167.311 144.756 162.161 144.756 162.161Z" fill="#F5A995"/>
</g>
<g style="mix-blend-mode:soft-light" opacity="0.97">
<path d="M214.063 195.325C214.063 195.325 222.777 193.148 224.423 191.42C226.069 189.693 231.645 183.551 231.6 180.538C231.554 177.522 224.236 162.706 224.236 162.706C224.236 162.706 229.721 176.291 228.789 180.637C227.854 184.984 221.822 192.058 214.067 195.324L214.063 195.325Z" fill="#F5FFFF"/>
</g>
<g style="mix-blend-mode:soft-light" opacity="0.97">
<path d="M178.188 275.159C178.188 275.159 168.989 273.107 167.127 271.328C165.264 269.548 166.454 222.629 166.454 222.629C166.454 222.629 167.783 265.929 170.473 269.375C173.163 272.817 178.185 275.16 178.185 275.16L178.188 275.159Z" fill="#F5FFFF"/>
</g>
<g style="mix-blend-mode:soft-light" opacity="0.97">
<path d="M144.342 183.709C144.342 183.709 147.685 202.553 150.731 208.396C153.776 214.239 163.184 217.661 163.184 217.661C163.184 217.661 156.244 213.843 152.205 205.766C148.166 197.69 144.342 183.709 144.342 183.709Z" fill="#F5FFFF"/>
</g>
<g style="mix-blend-mode:soft-light" opacity="0.97">
<path d="M166.972 56.6611C166.972 56.6611 165.33 60.7768 165.961 69.1479C166.591 77.5189 170.196 102.38 170.196 102.38C170.196 102.38 166.975 59.1918 166.973 56.6648L166.972 56.6611Z" fill="#F5FFFF"/>
</g>
<g style="mix-blend-mode:soft-light" opacity="0.97">
<path d="M230.627 69.8947C230.627 69.8947 229.095 92.6642 223.733 104.173C223.733 104.173 229.576 94.2684 231.142 84.0403C232.708 73.8121 230.627 69.8947 230.627 69.8947Z" fill="#F5FFFF"/>
</g>
<g style="mix-blend-mode:soft-light" opacity="0.97">
<path d="M202.854 270.008C200.232 257.399 196.205 221.55 196.205 221.55C195.127 241.624 201.154 264.378 202.763 270.035L202.854 270.008Z" fill="#F5FFFF"/>
</g>
<g style="mix-blend-mode:soft-light" opacity="0.97">
<path d="M196.483 137.573C196.483 137.573 203.542 138.582 207.091 137.965C210.64 137.348 211.548 136.205 211.548 136.205L196.483 137.573Z" fill="#F5FFFF"/>
</g>
<g style="mix-blend-mode:soft-light" opacity="0.97">
<path d="M218.681 139.943C218.681 139.943 215.463 140.939 212.988 140.099C210.517 139.257 211.545 136.208 211.545 136.208C211.545 136.208 214.822 136.914 218.677 139.944L218.681 139.943Z" fill="#F5AF8F"/>
</g>
<g style="mix-blend-mode:multiply" opacity="0.5">
<path d="M170.987 146.883L171.748 144.973C171.748 144.973 171.249 139.617 173.172 137.561C173.172 137.561 170.119 138.777 170.987 146.883Z" fill="#D87290"/>
</g>
</g>
<defs>
<filter id="filter0_d_4124_65" x="3.19492" y="15.6959" width="634.906" height="344.635" filterUnits="userSpaceOnUse" color-interpolation-filters="sRGB">
<feFlood flood-opacity="0" result="BackgroundImageFix"/>
<feColorMatrix in="SourceAlpha" type="matrix" values="0 0 0 0 0 0 0 0 0 0 0 0 0 0 0 0 0 0 127 0" result="hardAlpha"/>
<feOffset dy="4"/>
<feGaussianBlur stdDeviation="5.55"/>
<feComposite in2="hardAlpha" operator="out"/>
<feColorMatrix type="matrix" values="0 0 0 0 0 0 0 0 0 0 0 0 0 0 0 0 0 0 0.6 0"/>
<feBlend mode="normal" in2="BackgroundImageFix" result="effect1_dropShadow_4124_65"/>
<feBlend mode="normal" in="SourceGraphic" in2="effect1_dropShadow_4124_65" result="shape"/>
</filter>
<filter id="filter1_d_4124_65" x="375.016" y="227.531" width="210.901" height="96.125" filterUnits="userSpaceOnUse" color-interpolation-filters="sRGB">
<feFlood flood-opacity="0" result="BackgroundImageFix"/>
<feColorMatrix in="SourceAlpha" type="matrix" values="0 0 0 0 0 0 0 0 0 0 0 0 0 0 0 0 0 0 127 0" result="hardAlpha"/>
<feOffset dx="11" dy="6"/>
<feGaussianBlur stdDeviation="6.5"/>
<feComposite in2="hardAlpha" operator="out"/>
<feColorMatrix type="matrix" values="0 0 0 0 0 0 0 0 0 0 0 0 0 0 0 0 0 0 0.27 0"/>
<feBlend mode="normal" in2="BackgroundImageFix" result="effect1_dropShadow_4124_65"/>
<feBlend mode="normal" in="SourceGraphic" in2="effect1_dropShadow_4124_65" result="shape"/>
</filter>
<filter id="filter2_d_4124_65" x="27.6987" y="42.2744" width="335.101" height="294.848" filterUnits="userSpaceOnUse" color-interpolation-filters="sRGB">
<feFlood flood-opacity="0" result="BackgroundImageFix"/>
<feColorMatrix in="SourceAlpha" type="matrix" values="0 0 0 0 0 0 0 0 0 0 0 0 0 0 0 0 0 0 127 0" result="hardAlpha"/>
<feOffset dx="11" dy="6"/>
<feGaussianBlur stdDeviation="6.5"/>
<feComposite in2="hardAlpha" operator="out"/>
<feColorMatrix type="matrix" values="0 0 0 0 0 0 0 0 0 0 0 0 0 0 0 0 0 0 0.26 0"/>
<feBlend mode="normal" in2="BackgroundImageFix" result="effect1_dropShadow_4124_65"/>
<feBlend mode="normal" in="SourceGraphic" in2="effect1_dropShadow_4124_65" result="shape"/>
</filter>
<linearGradient id="paint0_linear_4124_65" x1="320.648" y1="22.7959" x2="320.648" y2="345.23" gradientUnits="userSpaceOnUse">
<stop stop-color="#4A0B48"/>
<stop offset="1" stop-color="#059CA0"/>
</linearGradient>
<linearGradient id="paint1_linear_4124_65" x1="160.976" y1="334.623" x2="325.813" y2="162.314" gradientUnits="userSpaceOnUse">
<stop offset="0.02" stop-color="#FFB880"/>
<stop offset="1" stop-color="#FF8777"/>
</linearGradient>
<linearGradient id="paint2_linear_4124_65" x1="244.566" y1="237.584" x2="243.455" y2="187.43" gradientUnits="userSpaceOnUse">
<stop stop-color="#FF8777"/>
<stop offset="0.98" stop-color="#FFB880"/>
</linearGradient>
<linearGradient id="paint3_linear_4124_65" x1="297.306" y1="244.646" x2="331.868" y2="208.519" gradientUnits="userSpaceOnUse">
<stop stop-color="#FF8777"/>
<stop offset="0.98" stop-color="#FFB880"/>
</linearGradient>
<linearGradient id="paint4_linear_4124_65" x1="285.257" y1="222.892" x2="335.89" y2="169.964" gradientUnits="userSpaceOnUse">
<stop stop-color="#FF8777"/>
<stop offset="0.98" stop-color="#FFB880"/>
</linearGradient>
<linearGradient id="paint5_linear_4124_65" x1="268.229" y1="209.297" x2="312.062" y2="163.478" gradientUnits="userSpaceOnUse">
<stop stop-color="#FF8777"/>
<stop offset="0.98" stop-color="#FFB880"/>
</linearGradient>
<linearGradient id="paint6_linear_4124_65" x1="290.36" y1="176.73" x2="290.89" y2="176.176" gradientUnits="userSpaceOnUse">
<stop stop-color="#B060F4"/>
<stop offset="1" stop-color="#FFEADB"/>
</linearGradient>
<linearGradient id="paint7_linear_4124_65" x1="327.786" y1="198.382" x2="328.196" y2="197.954" gradientUnits="userSpaceOnUse">
<stop stop-color="#FFEADB"/>
<stop offset="0.99" stop-color="#B060F4"/>
</linearGradient>
<linearGradient id="paint8_linear_4124_65" x1="260.046" y1="248.686" x2="229.975" y2="224.913" gradientUnits="userSpaceOnUse">
<stop/>
<stop offset="0.04" stop-color="#0B0300"/>
<stop offset="0.4" stop-color="#6A1E00"/>
<stop offset="0.69" stop-color="#B03200"/>
<stop offset="0.89" stop-color="#DB3F00"/>
<stop offset="1" stop-color="#EC4400"/>
</linearGradient>
<linearGradient id="paint9_linear_4124_65" x1="288.152" y1="197.347" x2="316.234" y2="219.548" gradientUnits="userSpaceOnUse">
<stop/>
<stop offset="0.04" stop-color="#0B0300"/>
<stop offset="0.4" stop-color="#6A1E00"/>
<stop offset="0.69" stop-color="#B03200"/>
<stop offset="0.89" stop-color="#DB3F00"/>
<stop offset="1" stop-color="#EC4400"/>
</linearGradient>
<linearGradient id="paint10_linear_4124_65" x1="79.4314" y1="228.122" x2="34.7536" y2="186.076" gradientUnits="userSpaceOnUse">
<stop stop-color="#FF8777"/>
<stop offset="0.98" stop-color="#FFB880"/>
</linearGradient>
<linearGradient id="paint11_linear_4124_65" x1="169.235" y1="295.955" x2="49.4638" y2="183.239" gradientUnits="userSpaceOnUse">
<stop offset="0.02" stop-color="#FFB880"/>
<stop offset="1" stop-color="#FF8777"/>
</linearGradient>
<linearGradient id="paint12_linear_4124_65" x1="121.385" y1="191.764" x2="69.981" y2="246.386" gradientUnits="userSpaceOnUse">
<stop stop-color="#EC4400"/>
<stop offset="0.11" stop-color="#DB3F00"/>
<stop offset="0.31" stop-color="#B03200"/>
<stop offset="0.6" stop-color="#6A1E00"/>
<stop offset="0.96" stop-color="#0B0300"/>
<stop offset="1"/>
</linearGradient>
<linearGradient id="paint13_linear_4124_65" x1="185.905" y1="196.253" x2="180.673" y2="52.1355" gradientUnits="userSpaceOnUse">
<stop stop-color="#FF8777"/>
<stop offset="0.98" stop-color="#FFB880"/>
</linearGradient>
<linearGradient id="paint14_linear_4124_65" x1="190.012" y1="276.985" x2="184.927" y2="136.938" gradientUnits="userSpaceOnUse">
<stop offset="0.02" stop-color="#FFB880"/>
<stop offset="1" stop-color="#FF8777"/>
</linearGradient>
<linearGradient id="paint15_linear_4124_65" x1="168.239" y1="186.623" x2="225.92" y2="184.529" gradientUnits="userSpaceOnUse">
<stop/>
<stop offset="0.04" stop-color="#0B0300"/>
<stop offset="0.4" stop-color="#6A1E00"/>
<stop offset="0.69" stop-color="#B03200"/>
<stop offset="0.89" stop-color="#DB3F00"/>
<stop offset="1" stop-color="#EC4400"/>
</linearGradient>
</defs>
</svg>
