<svg width="1020" height="863" viewBox="0 0 1020 863" fill="none" xmlns="http://www.w3.org/2000/svg">
<g filter="url(#filter0_d_4103_106)">
<path d="M1003.31 126.506V68.8209L1007.47 65.3173V24.5663L1014 19.0188V1H6.71094V19.0188L13.2907 24.5663V65.3173L17.3965 68.8209V126.506L25.1344 119.999V75.3277L31.9774 81.1255V162.461L6.71094 183.774V184.4H1014V183.774L988.786 162.461V81.1255L995.629 75.3277V119.999L1003.31 126.506Z" fill="#1A1B28"/>
<path d="M67.9307 42.7106L37.9795 21.8555V56.6836L56.6661 72.4501V91.3031H67.9307V42.7106Z" fill="#9C50B9"/>
<path d="M67.9306 91.3032H56.666V123.67H67.9306V91.3032Z" fill="#DCD3C2"/>
<path d="M67.9306 143.608H56.666V163.546H67.9306V143.608Z" fill="#3F37C9"/>
<path d="M964.099 72.4501L982.785 56.6836V21.8555L952.834 42.7106V91.3031H964.099V72.4501Z" fill="#9C50B9"/>
<path d="M964.099 91.3032H952.834V123.67H964.099V91.3032Z" fill="#DCD3C2"/>
<path d="M964.099 143.608H952.834V163.546H964.099V143.608Z" fill="#3F37C9"/>
</g>
<path d="M37.3217 445.328V634.405L23 641.46V685.084L124.916 802.763L398.541 760.282H612.509L883.865 802.415L886.134 802.763L988 685.084V641.46L973.678 634.405V445.328L936.765 463.463V616.195L918.509 607.202V453.004L962.685 431.217V372.315L988 359.844V147.763H23V359.844L48.3151 372.315V431.217L92.5409 453.004V607.202L74.2858 616.195V463.463L37.3217 445.328Z" fill="#1A1B28"/>
<path d="M998.66 688.647L893.778 811.202L891.511 810.854L614.363 768.71H395.83L116.465 811.202L13.0959 691.057V463.764H1.75599L1 862.764H1009.24L1010 463.764H998.66V688.647Z" fill="#1A1B28"/>
<path d="M944.658 770.816L901.651 822.64L607.558 777.13H402.304L109.371 820.776L68.3806 770.816H12.4662L11.71 857.239H998.858L999.614 770.816H944.658Z" fill="#3F37C9"/>
<path d="M999.614 759.109V702.141L952.019 759.109H999.614Z" fill="#9C50B9"/>
<path d="M60.1125 759.109L12.4668 702.141V759.109H60.1125Z" fill="#9C50B9"/>
<path d="M951.307 381.235V366.098L977.5 353.62V159.947H921.5V381.235H951.307Z" fill="#DCD3C2"/>
<path d="M908.575 512.943V446.828L951.5 425.741V397.341H920.745V416.181H897V512.943H908.575Z" fill="#3F37C9"/>
<path d="M977.5 681.241V645.241L908.575 612.938V546.549H897V650.967C897 674.952 931 693.241 959.5 688.741L977.5 681.241Z" fill="#9C50B9"/>
<path d="M64.193 381.235V366.098L38 353.62V159.947H94V381.235H64.193Z" fill="#DCD3C2"/>
<path d="M106.925 512.943V446.828L64 425.741V397.341H94.7547V416.181H118.5V512.943H106.925Z" fill="#3F37C9"/>
<path d="M38 681.241V645.241L106.925 612.938V546.549H118.5V650.967C118.5 674.952 84.5 693.241 56 688.741L38 681.241Z" fill="#9C50B9"/>
<defs>
<filter id="filter0_d_4103_106" x="0.710938" y="0" width="1019.29" height="195.4" filterUnits="userSpaceOnUse" color-interpolation-filters="sRGB">
<feFlood flood-opacity="0" result="BackgroundImageFix"/>
<feColorMatrix in="SourceAlpha" type="matrix" values="0 0 0 0 0 0 0 0 0 0 0 0 0 0 0 0 0 0 127 0" result="hardAlpha"/>
<feOffset dy="5"/>
<feGaussianBlur stdDeviation="3"/>
<feColorMatrix type="matrix" values="0 0 0 0 0 0 0 0 0 0 0 0 0 0 0 0 0 0 0.5 0"/>
<feBlend mode="normal" in2="BackgroundImageFix" result="effect1_dropShadow_4103_106"/>
<feBlend mode="normal" in="SourceGraphic" in2="effect1_dropShadow_4103_106" result="shape"/>
</filter>
</defs>
</svg>
