<svg width="705" height="425" viewBox="0 0 705 425" fill="none" xmlns="http://www.w3.org/2000/svg">
<g filter="url(#filter0_d_3200_1139)">
<rect x="662" y="408.968" width="650" height="358.758" rx="53" transform="rotate(180 662 408.968)" fill="url(#paint0_linear_3200_1139)"/>
</g>
<g filter="url(#filter1_d_3200_1139)">
<path fill-rule="evenodd" clip-rule="evenodd" d="M526.426 210.895H528.612L526.426 195.231C526.426 195.231 525.88 193.743 525 191.406C524.575 190.252 524.059 188.886 523.421 187.52C512.493 179.962 511.552 167.182 509.063 155.312C509.063 156.861 509.063 158.439 508.972 160.078C508.941 161.536 508.881 163.296 508.85 165.209C508.486 178.717 507.909 201.211 507.909 201.211L514.77 204.52C514.77 204.52 513.555 191.194 512.463 179.203C512.372 178.11 512.25 177.048 512.129 175.985C510.945 170.916 511.097 167.303 510.763 162.021C510.914 170.642 514.982 178.383 519.657 186.61C520.052 187.642 520.416 188.674 520.78 189.676C523.391 196.749 525.728 203.032 525.728 203.032L526.396 210.895H526.426Z" fill="#9DECFD"/>
<path fill-rule="evenodd" clip-rule="evenodd" d="M400.872 177.471L408.643 196.019H426.219L434.871 177.471L436.085 150.818L411.466 156.768L400.872 177.471Z" fill="url(#paint1_linear_3200_1139)"/>
<path fill-rule="evenodd" clip-rule="evenodd" d="M436.086 150.818L425.947 171.43L426.22 196.019L434.872 177.471L436.086 150.818Z" fill="url(#paint2_linear_3200_1139)"/>
<path style="mix-blend-mode:multiply" opacity="0.5" fill-rule="evenodd" clip-rule="evenodd" d="M425.946 171.43L400.872 177.471L411.466 156.768L436.085 150.818L425.946 171.43Z" fill="url(#paint3_linear_3200_1139)"/>
<path fill-rule="evenodd" clip-rule="evenodd" d="M336.183 156.768L367.359 196.019L383.204 200.026L391.826 165.693L389.944 131.906L369.514 126.503L336.183 156.768Z" fill="url(#paint4_linear_3200_1139)"/>
<path fill-rule="evenodd" clip-rule="evenodd" d="M389.944 131.906L373.612 164.934L383.205 200.026L391.826 165.693L389.944 131.906Z" fill="url(#paint5_linear_3200_1139)"/>
<path style="mix-blend-mode:multiply" opacity="0.5" fill-rule="evenodd" clip-rule="evenodd" d="M336.183 156.768L373.612 164.934L389.944 131.906L369.514 126.503L336.183 156.768Z" fill="url(#paint6_linear_3200_1139)"/>
<path fill-rule="evenodd" clip-rule="evenodd" d="M385.786 43.6918L412.136 81.8799L436.663 88.8922L457.002 77.205L465.562 15.1266L439.001 12.0303L385.786 43.6918Z" fill="url(#paint7_linear_3200_1139)"/>
<path fill-rule="evenodd" clip-rule="evenodd" d="M409.981 48.9124L425.888 78.024L457.003 77.2044L465.563 15.126L409.981 48.9124Z" fill="url(#paint8_linear_3200_1139)"/>
<path fill-rule="evenodd" clip-rule="evenodd" d="M457.002 77.2041L425.887 78.0237L412.136 81.879L436.664 88.8912L457.002 77.2041Z" fill="url(#paint9_linear_3200_1139)"/>
<path style="mix-blend-mode:multiply" opacity="0.5" fill-rule="evenodd" clip-rule="evenodd" d="M385.786 43.6919C385.786 43.6919 408.371 49.8845 409.98 48.9131C411.589 47.9417 465.562 15.0963 465.562 15.0963L439.031 12L385.817 43.6615L385.786 43.6919Z" fill="url(#paint10_linear_3200_1139)"/>
<path fill-rule="evenodd" clip-rule="evenodd" d="M589.658 27.2393H639.321L659.781 43.6923L647.881 73.5628L608.509 92.1408L581.917 95.0247L589.658 27.2393Z" fill="url(#paint11_linear_3200_1139)"/>
<path fill-rule="evenodd" clip-rule="evenodd" d="M589.658 27.2393L609.814 47.6386L602.225 78.0252L581.917 95.0247L589.658 27.2393Z" fill="url(#paint12_linear_3200_1139)"/>
<path fill-rule="evenodd" clip-rule="evenodd" d="M647.881 73.5635L602.225 78.0258L581.917 95.0253L608.509 92.1415L647.881 73.5635Z" fill="url(#paint13_linear_3200_1139)"/>
<path style="mix-blend-mode:multiply" opacity="0.5" fill-rule="evenodd" clip-rule="evenodd" d="M589.657 27.2393L609.814 47.6386L659.78 43.6923L639.32 27.2393H589.657Z" fill="url(#paint14_linear_3200_1139)"/>
<path fill-rule="evenodd" clip-rule="evenodd" d="M335 229.929L380.838 234.209L396.016 228.047L361.106 224.131L335 229.929Z" fill="url(#paint15_linear_3200_1139)"/>
<path fill-rule="evenodd" clip-rule="evenodd" d="M389.49 276.919L397.96 275.007L411.65 278.012V280.046L403.545 285.237L389.49 276.919Z" fill="url(#paint16_linear_3200_1139)"/>
<path fill-rule="evenodd" clip-rule="evenodd" d="M425.797 303.784L433.325 312.193L466.838 313.923L468.538 307.032L425.797 303.784Z" fill="url(#paint17_linear_3200_1139)"/>
<path fill-rule="evenodd" clip-rule="evenodd" d="M411.65 277.223L476.551 299.231L499.592 281.109L494.31 272.548L461.768 270.241L450.931 270.484L411.65 277.223Z" fill="url(#paint18_linear_3200_1139)"/>
<path fill-rule="evenodd" clip-rule="evenodd" d="M501.171 262.258L542.638 258.008L551.289 259.283L584.894 268.966L521.389 275.007L501.171 262.258Z" fill="url(#paint19_linear_3200_1139)"/>
<path fill-rule="evenodd" clip-rule="evenodd" d="M456.061 245.773L530.16 244.286L546.492 231.749H536.99L490.758 230.838H482.137L456.061 245.773Z" fill="url(#paint20_linear_3200_1139)"/>
<path fill-rule="evenodd" clip-rule="evenodd" d="M525.607 210.895L500.503 213.627L513.009 218.757L545.764 218.15L534.38 213.627L525.607 210.895Z" fill="url(#paint21_linear_3200_1139)"/>
<path fill-rule="evenodd" clip-rule="evenodd" d="M487.054 199.025L512.705 204.823L525.758 203.032L500.259 196.02L487.054 199.025Z" fill="url(#paint22_linear_3200_1139)"/>
<path fill-rule="evenodd" clip-rule="evenodd" d="M485.597 319.236L510.641 324.457L563.4 308.885L520.659 307.519L512.796 310.493L485.597 319.236Z" fill="url(#paint23_linear_3200_1139)"/>
<path fill-rule="evenodd" clip-rule="evenodd" d="M633.949 250.205L608.814 259.707L646.031 261.103L662.241 250.205H633.949Z" fill="url(#paint24_linear_3200_1139)"/>
<path fill-rule="evenodd" clip-rule="evenodd" d="M552.169 243.558L582.13 250.206L639.048 238.61L603.228 236.333L552.169 243.558Z" fill="url(#paint25_linear_3200_1139)"/>
<path fill-rule="evenodd" clip-rule="evenodd" d="M520.052 337.329L540.148 333.747L538.569 344.493L516.197 356.484L480.073 351.354L520.052 337.329Z" fill="url(#paint26_linear_3200_1139)"/>
<path style="mix-blend-mode:multiply" opacity="0.5" fill-rule="evenodd" clip-rule="evenodd" d="M380.838 234.207L381.991 252.785H348.326L335 229.927L380.838 234.207Z" fill="url(#paint27_linear_3200_1139)"/>
<path style="mix-blend-mode:multiply" opacity="0.5" fill-rule="evenodd" clip-rule="evenodd" d="M367.178 266.173L376.922 303.42L360.439 297.348L341.132 255.852L367.178 266.173Z" fill="url(#paint28_linear_3200_1139)"/>
<path style="mix-blend-mode:multiply" opacity="0.5" fill-rule="evenodd" clip-rule="evenodd" d="M403.545 285.236L405.73 299.26L412.682 296.619L411.65 280.045L403.545 285.236Z" fill="url(#paint29_linear_3200_1139)"/>
<path style="mix-blend-mode:multiply" opacity="0.5" fill-rule="evenodd" clip-rule="evenodd" d="M530.161 244.285L528.613 259.433L542.638 258.006L546.493 231.748L530.161 244.285Z" fill="url(#paint30_linear_3200_1139)"/>
<path style="mix-blend-mode:multiply" opacity="0.5" fill-rule="evenodd" clip-rule="evenodd" d="M500.503 213.626L500.745 231.05L511.158 231.233L513.009 218.756L500.503 213.626Z" fill="url(#paint31_linear_3200_1139)"/>
<path style="mix-blend-mode:multiply" opacity="0.5" fill-rule="evenodd" clip-rule="evenodd" d="M512.706 204.822V212.32L525.607 210.893L525.759 203.031L512.706 204.822Z" fill="url(#paint32_linear_3200_1139)"/>
<path style="mix-blend-mode:multiply" opacity="0.5" fill-rule="evenodd" clip-rule="evenodd" d="M425.796 303.784L424.794 324.942L425.553 330.528L441.004 342.458L433.324 312.193L425.796 303.784Z" fill="url(#paint33_linear_3200_1139)"/>
<path style="mix-blend-mode:multiply" opacity="0.5" fill-rule="evenodd" clip-rule="evenodd" d="M566.466 287.604L571.961 310.129L574.116 321.391L587.473 326.339L589.264 295.679L566.466 287.604Z" fill="url(#paint34_linear_3200_1139)"/>
<path style="mix-blend-mode:multiply" opacity="0.5" fill-rule="evenodd" clip-rule="evenodd" d="M608.814 259.707L610.089 273.367L619.864 275.583L638.32 277.223L646.031 261.103L608.814 259.707Z" fill="url(#paint35_linear_3200_1139)"/>
<path style="mix-blend-mode:multiply" opacity="0.5" fill-rule="evenodd" clip-rule="evenodd" d="M516.197 356.483L512.615 392.88L492.519 386.596L480.073 351.353L516.197 356.483Z" fill="url(#paint36_linear_3200_1139)"/>
<path style="mix-blend-mode:multiply" opacity="0.5" fill-rule="evenodd" clip-rule="evenodd" d="M510.641 324.458V340.637L493.277 346.739L485.597 319.236L510.641 324.458Z" fill="url(#paint37_linear_3200_1139)"/>
<path style="mix-blend-mode:multiply" opacity="0.5" fill-rule="evenodd" clip-rule="evenodd" d="M389.491 276.919L380.384 301.295L394.317 292.704L405.731 299.261L412.683 296.62L411.651 280.046L403.545 285.237L389.491 276.919Z" fill="url(#paint38_linear_3200_1139)"/>
<path style="mix-blend-mode:multiply" opacity="0.5" fill-rule="evenodd" clip-rule="evenodd" d="M476.551 299.231L462.557 331.925L466.837 313.923L468.537 307.032L425.796 303.784L433.324 312.193L441.004 342.458L425.553 330.528L424.794 324.943L413.775 317.414L411.65 277.223L476.551 299.231Z" fill="url(#paint39_linear_3200_1139)"/>
<path style="mix-blend-mode:multiply" opacity="0.5" fill-rule="evenodd" clip-rule="evenodd" d="M367.178 266.173L408.311 256.702L404.394 276.433L397.959 275.006L389.49 276.919L394.316 292.704L376.922 303.42L360.439 297.348L341.132 255.852L367.178 266.173Z" fill="url(#paint40_linear_3200_1139)"/>
<path style="mix-blend-mode:multiply" opacity="0.5" fill-rule="evenodd" clip-rule="evenodd" d="M395.227 248.87L381.991 252.786L344.957 257.37L341.132 255.852L348.326 252.786L335 229.928L380.838 234.208L396.016 228.046L395.227 248.87Z" fill="url(#paint41_linear_3200_1139)"/>
<path style="mix-blend-mode:multiply" opacity="0.5" fill-rule="evenodd" clip-rule="evenodd" d="M499.592 281.107L492.124 295.8L502.901 296.194L501.171 262.256L506.21 265.443H535.17L551.289 259.281L542.637 258.006L546.492 231.748L530.161 244.285L456.061 245.773L461.768 270.24L450.931 270.483L422.184 275.4L472.818 281.32L497.012 276.918L499.592 281.107Z" fill="url(#paint42_linear_3200_1139)"/>
<path style="mix-blend-mode:multiply" opacity="0.5" fill-rule="evenodd" clip-rule="evenodd" d="M521.387 275.007L520.659 307.518L509.943 311.434L551.622 312.375L563.4 308.884L558.665 314.895L568.409 313.802L571.961 310.129L566.466 287.605L583.496 282.292L584.893 268.966L521.387 275.007Z" fill="url(#paint43_linear_3200_1139)"/>
<path style="mix-blend-mode:multiply" opacity="0.5" fill-rule="evenodd" clip-rule="evenodd" d="M566.466 287.605L571.961 310.129L574.116 321.391L587.473 326.339L608.904 317.809L628.089 282.444L589.264 295.68L566.466 287.605Z" fill="url(#paint44_linear_3200_1139)"/>
<path style="mix-blend-mode:multiply" opacity="0.5" fill-rule="evenodd" clip-rule="evenodd" d="M618.042 279.227L606.598 275.918L583.497 282.293L584.893 268.967L578.518 267.145L582.131 250.206L639.049 238.61L633.949 250.206L608.814 259.708L610.089 273.368L619.864 275.584L618.042 279.227Z" fill="url(#paint45_linear_3200_1139)"/>
<path style="mix-blend-mode:multiply" opacity="0.5" fill-rule="evenodd" clip-rule="evenodd" d="M639.049 238.61L582.131 250.206L578.518 267.145L584.893 268.967L583.497 282.293L624.053 281.17L618.042 279.227L619.864 275.584L610.089 273.368L608.814 259.708L633.949 250.206L639.049 238.61Z" fill="url(#paint46_linear_3200_1139)"/>
<path style="mix-blend-mode:multiply" opacity="0.51" d="M341.132 255.851L367.178 266.172L408.311 256.701L404.394 276.402L411.65 277.981V277.191L476.551 299.23L499.592 281.077L494.31 272.547L461.768 270.209C461.768 270.209 455.272 245.864 456.061 245.773C456.85 245.682 530.16 244.255 530.16 244.255L546.492 231.748L542.637 257.976L551.319 259.251L552.199 243.526L582.13 250.174L639.078 238.578L633.978 250.174H662.24L652.648 269.39L638.319 277.191L619.863 275.552L618.011 279.195L606.567 275.886L566.436 287.573L571.93 310.097L568.379 313.771L558.634 314.863L539.085 338.723L540.148 333.715L520.052 337.297L493.278 346.707L485.597 319.204L512.797 310.462L502.992 303.753L502.9 296.134L492.124 295.739L473.607 326.277L462.557 331.863L468.537 306.971L425.796 303.723L424.794 324.881L413.744 317.383L412.651 296.589L405.73 299.23L394.316 292.673L376.922 303.389L360.439 297.317L341.132 255.821V255.851Z" fill="url(#paint47_linear_3200_1139)"/>
<path style="mix-blend-mode:screen" opacity="0.6" fill-rule="evenodd" clip-rule="evenodd" d="M341.132 255.853L360.439 297.349C360.439 297.349 367.603 300.021 376.922 303.421L394.316 292.705L405.73 299.262L412.651 296.621L413.744 317.415L424.794 324.913L425.522 330.498L440.974 342.398H459.491L462.557 331.864L473.607 326.279L492.124 295.741L502.9 296.135L502.991 303.755L512.796 310.463L485.597 319.206L493.277 346.709L480.073 351.353L492.519 386.566L512.584 392.85L530.433 378.643L538.903 343.096L539.085 338.725L558.634 314.865L568.379 313.772L571.93 310.099L574.086 321.361L587.442 326.309L608.874 317.779L628.059 282.445L618.011 279.227L619.863 275.584L638.319 277.223L652.648 269.422L662.24 250.206H633.978L639.078 238.61L603.228 236.333L552.199 243.558L551.318 259.283L542.637 258.008L546.492 231.78H536.99L545.763 218.18L534.38 213.657L525.607 210.925L525.759 203.063L500.259 196.051L487.054 199.086L490.758 230.9H482.137L456.061 245.835L461.768 270.272H452.327L411.65 277.254V280.077L404.303 276.95L408.31 256.733L395.257 248.901L396.046 228.077L361.137 224.161L335.061 229.928L348.387 252.787L341.193 255.853H341.132Z" fill="url(#paint48_linear_3200_1139)"/>
<path fill-rule="evenodd" clip-rule="evenodd" d="M663.363 133.789L698 141.621L697.241 174.041L680.302 195.23L654.712 200.026L654.56 182.663L663.363 133.789Z" fill="url(#paint49_linear_3200_1139)"/>
<path fill-rule="evenodd" clip-rule="evenodd" d="M663.363 133.789L672.045 164.935L654.712 200.026L654.56 182.663L663.363 133.789Z" fill="url(#paint50_linear_3200_1139)"/>
<path style="mix-blend-mode:multiply" opacity="0.5" fill-rule="evenodd" clip-rule="evenodd" d="M663.363 133.789L672.045 164.935L691.595 160.017L698 141.621L663.363 133.789Z" fill="url(#paint51_linear_3200_1139)"/>
<path style="mix-blend-mode:multiply" opacity="0.5" fill-rule="evenodd" clip-rule="evenodd" d="M691.595 160.017L680.302 195.23L697.241 174.041L698 141.621L663.363 133.789L672.045 164.935L691.595 160.017Z" fill="url(#paint52_linear_3200_1139)"/>
<path style="mix-blend-mode:soft-light" opacity="0.91" d="M487.358 229.198L457.002 77.2041L448.29 82.2129L458.125 143.563H456.03L436.663 88.8912L412.135 81.879L451.022 178.897L448.684 164.144L437.756 132.574L426.858 90.7733L426.16 88.9216L436.086 90.5912L481.924 229.198H487.358Z" fill="url(#paint53_linear_3200_1139)"/>
<path d="M609.997 198.053L601.406 210.712L604.897 184.484L604.957 184.029C604.684 177.715 606.293 168.881 607.963 161.596C608.388 159.774 608.782 158.044 609.177 156.496C609.572 154.947 609.966 153.551 610.27 152.398C610.907 150.06 611.332 148.633 611.332 148.633C618.83 134.093 620.075 116.638 631.246 104.04C631.701 102.887 632.096 101.642 632.46 100.397C635.89 89.2567 639.017 79.148 639.017 79.148L647.851 73.5625L608.479 92.1405L581.887 94.994H607.113L630.942 83.064L626.419 105.528C626.207 106.651 625.964 107.774 625.721 108.867C620.986 120.675 617.859 133.455 612.091 145.082C611.029 146.782 610.421 147.753 610.421 147.753L604.411 171.401C602.013 175.529 578.274 200.026 578.274 200.026C574.541 209.558 566.314 225.799 566.314 225.799L575.026 218.756L554.202 243.254L563.643 241.614L579.124 214.81L568.5 222.429L579.458 200.026L604.077 174.406C602.741 194.562 600.859 212.29 600.859 212.29L608.782 201.241C608.114 208.374 603.227 236.333 603.227 236.333H605.777C605.777 236.333 606.05 230.959 606.627 226.406C607.204 221.792 609.997 198.053 609.997 198.053Z" fill="#9DECFD"/>
<path d="M645.938 204.094L650.249 207.646C646.94 209.923 644.451 213.383 641.415 216.055C640.686 216.723 639.958 217.421 639.199 218.149C630.123 226.679 618.8 237.365 618.8 237.365L628.24 237.972C628.24 237.972 628.635 237.486 629.303 236.667C629.971 235.847 630.942 234.663 632.096 233.236C636.953 223.371 642.903 213.08 652.495 206.978L648.701 204.884L654.286 200.482V195.291L645.968 204.125L645.938 204.094Z" fill="#9DECFD"/>
<path d="M654.56 182.663L663.364 133.789L662.574 135.914L648.671 204.823L654.712 200.026L678.663 196.535L680.302 195.23L654.712 200.026L654.56 182.663Z" fill="#9DECFD"/>
<path fill-rule="evenodd" clip-rule="evenodd" d="M500.259 196.02L521.994 200.452L526.426 201.241L525.607 210.894L525.759 203.032L500.259 196.02Z" fill="#9DECFD"/>
<path fill-rule="evenodd" clip-rule="evenodd" d="M552.169 243.557L603.228 236.333L639.048 238.609L635.861 245.864L640.748 237.699L601.528 235.058L552.169 243.557Z" fill="#9DECFD"/>
<path fill-rule="evenodd" clip-rule="evenodd" d="M391.006 150.819L393.768 169.822C393.768 169.822 399.718 185.759 405.152 200.361C405.577 201.484 405.972 202.607 406.397 203.7C408.916 208.982 410.465 214.598 412.498 220.123C413.439 222.642 413.986 224.16 413.986 224.16L411.163 220.517C414.198 227.742 416.687 235.21 418.843 243.163C419.268 244.225 419.693 245.318 420.148 246.381C425.43 259.252 430.712 272.153 430.712 272.153L450.899 270.514L411.648 277.253V278.042L404.393 276.464L404.666 275.067L410.768 276.98L411.345 275.067L425.794 273.367C425.794 273.367 424.702 265.232 421.18 255.305C420.786 254.213 420.391 253.089 419.996 251.936C419.662 250.752 419.329 249.598 418.964 248.445C417.021 239.308 415.443 231.81 411.405 222.156C410.616 220.214 409.341 218.21 408.4 216.328C409.038 217.573 411.406 219.333 412.043 220.912C409.857 212.807 406.124 205.309 400.872 198.752C400.295 197.689 399.749 196.597 399.202 195.504C394.376 185.699 389.974 176.774 389.974 176.774C389.974 176.774 387.667 184.727 385.785 191.345C385.512 192.286 385.239 193.197 384.996 194.077C383.903 197.021 382.658 197.507 382.658 197.507C382.658 197.507 383.69 197.598 384.601 194.775C384.996 193.166 385.481 191.284 385.997 189.281C388.517 179.202 391.886 165.785 391.886 165.785L391.067 150.91L391.006 150.819Z" fill="#9DECFD"/>
<path fill-rule="evenodd" clip-rule="evenodd" d="M435.205 170.217L435.63 167.06L446.528 211.38L449.442 200.026C449.442 200.026 453.055 207.828 457.001 216.419C457.456 217.36 457.881 218.331 458.337 219.303C460.674 224.554 463.163 229.229 465.379 234.572C466.533 237.031 467.231 238.579 467.231 238.579L465.531 239.672C465.531 239.672 462.253 243.254 462.01 242.889C462.222 235.482 461.251 227.802 458.488 220.82C453.722 208.799 450.292 203.001 450.292 203.001C450.292 203.001 448.562 203.426 447.378 213.717C447.257 214.78 447.014 215.083 447.014 215.083C447.014 215.083 446.073 213.535 444.889 210.317C444.585 209.498 444.282 208.648 443.948 207.707C440.214 197.568 434.264 181.327 434.264 181.327L426.22 195.959L434.902 177.441L435.235 170.156L435.205 170.217Z" fill="#9DECFD"/>
<path fill-rule="evenodd" clip-rule="evenodd" d="M477.765 100.913C477.765 100.913 478.614 103.038 479.586 105.163C480.557 107.258 481.498 109.382 481.498 109.382C481.498 109.382 481.195 110.87 480.709 113.389C480.466 114.664 480.163 116.182 479.829 117.943C479.647 119.096 479.465 120.22 479.282 121.343C479.131 122.466 479.07 123.559 478.979 124.682C479.434 140.073 478.797 155.979 469.781 169.063C469.417 170.975 469.052 172.706 468.749 174.284C467.838 178.959 467.261 181.873 467.261 181.873L473.636 179.08L474.091 234.268L481.893 229.259L519.626 231.505L482.136 230.898C482.136 230.898 475.609 234.632 469.083 238.366C467.443 239.307 465.834 240.248 464.377 241.128C461.919 242.707 460.067 244.893 458.488 247.382C458.488 246.441 459.733 246.137 459.794 245.348C460.644 244.194 461.129 242.555 462.829 241.462C466.229 239.277 469.629 237.121 469.629 237.121L472.543 182.511L466.29 184.241C466.29 184.241 466.654 181.661 467.231 177.441C467.413 176.014 467.656 174.436 467.868 172.675C468.476 171.309 467.868 169.731 468.476 168.82C479.707 156.04 479.707 139.496 478.341 123.984C478.341 122.375 478.25 120.827 478.341 119.218C478.797 114.361 478.706 109.443 477.916 104.525C477.795 102.249 477.765 100.974 477.765 100.974V100.913Z" fill="#9DECFD"/>
<path fill-rule="evenodd" clip-rule="evenodd" d="M465.561 15.1261L463.315 53.3749C463.315 53.3749 464.317 56.2284 465.895 60.6907C466.411 62.1782 466.988 63.8478 467.474 65.6691C468.506 74.5939 472.877 82.3954 476.398 90.5612C476.763 91.563 477.096 92.5648 477.43 93.5361C481.195 104.282 484.261 112.964 484.261 112.964C484.261 112.964 486.75 108.502 489.239 104.009C490.059 102.522 490.909 101.034 491.637 99.6985C493.094 97.4217 494.248 96.8146 494.248 96.8146C494.248 96.8146 494.491 96.8146 494.976 97.7253C495.219 98.3931 495.492 99.3342 495.826 100.457C498.164 108.32 508.728 148.845 509.547 152.943C509.821 154.309 510.124 155.645 510.428 156.981C510.913 159.743 510.61 162.263 510.913 165.055C510.913 162.87 510.063 163.689 509.821 161.473C509.547 160.502 509.426 156.829 509.062 155.797C507.908 152.761 507.301 149.574 506.785 146.265C506.542 145.354 506.299 144.383 506.056 143.381C503.051 131.451 498.528 113.541 496.1 103.857C495.766 102.461 495.432 101.277 495.189 100.245C494.673 98.2717 494.4 97.4217 494.4 97.4217C494.4 97.4217 494.126 97.7557 493.701 98.636C493.276 99.6074 492.669 101.004 491.971 102.582C489.178 108.896 484.989 118.368 484.989 118.368C484.989 118.368 483.016 113.936 480.254 107.621C479.859 106.711 479.434 105.77 479.009 104.829C476.611 95.7521 471.633 87.9506 467.929 79.6634C467.504 78.692 467.079 77.7509 466.684 76.8706C463.922 70.5868 461.949 66.1245 461.949 66.1245C461.949 66.1245 460.006 72.8332 459.065 76.1724C458.731 77.2956 458.519 78.0241 458.519 78.0241C456.636 79.208 454.451 80.1491 451.962 80.1491C452.903 80.1491 453.51 79.5116 454.542 79.0866C455.786 78.3277 457.031 77.2045 457.031 77.2045L465.561 15.0957V15.1261Z" fill="#9DECFD"/>
<path fill-rule="evenodd" clip-rule="evenodd" d="M589.659 27.2393C589.659 27.2393 583.861 62.3614 580.552 82.3965C580.218 84.4 579.915 86.2517 579.672 87.9213C580.491 98.8495 578.609 109.778 572.872 119.188C572.416 121.161 571.961 123.013 571.597 124.622C570.838 127.809 570.352 129.904 570.352 129.904C570.352 129.904 569.775 129.358 568.895 128.568C568.015 127.749 560.304 120.129 560.304 120.129C560.244 120.676 559.91 153.612 559.576 157.983C559.151 163.69 556.844 170.46 556.297 171.826C554.294 177.503 550.53 182.481 547.19 187.034C546.735 188.188 546.31 189.341 545.885 190.495C541.119 203.002 537.173 213.292 537.173 213.292L542.91 215.144C542.91 215.144 546.189 204.307 550.165 191.132C550.53 189.949 550.894 188.704 551.258 187.49C554.567 178.11 559.879 169.063 559.94 158.803C560.244 157.771 561.488 130.086 561.488 128.265C561.549 125.199 561.731 123.195 561.731 123.195C561.731 123.195 563.522 124.774 564.281 125.654C565.07 126.565 566.133 127.779 567.165 128.963C569.259 131.391 571.384 133.79 571.384 133.79C571.384 133.79 573.388 126.868 575.665 119.067C575.999 117.944 576.302 116.82 576.636 115.697C577.638 111.66 579.49 107.592 580.248 103.251C580.734 101.551 581.159 100.125 581.432 99.1531C581.705 98.1514 581.888 97.6049 581.888 97.6049L592.603 95.0247H581.888L589.628 27.2696L589.659 27.2393Z" fill="#9DECFD"/>
<path style="mix-blend-mode:soft-light" opacity="0.91" fill-rule="evenodd" clip-rule="evenodd" d="M373.612 197.597L385.785 226.891L389.944 227.377L381.778 204.943L389.944 206.158L416.354 274.429L418.479 274.186L391.826 189.947L390.703 170.216L382.719 198.265L373.612 197.597Z" fill="url(#paint54_linear_3200_1139)"/>
<path style="mix-blend-mode:soft-light" opacity="0.91" d="M631.002 83.0947L574.54 239.702L565.008 241.342L584.891 171.067L580.156 153.218L543.03 252.786L544.396 244.529L545.671 237.335L546.369 240.461L581.916 97.5746L597.277 95.0247L566.465 180.295L602.619 95.0247H607.173L631.002 83.0947Z" fill="url(#paint55_linear_3200_1139)"/>
<path style="mix-blend-mode:soft-light" opacity="0.91" d="M678.662 196.536L640.778 250.205H633.978L640.778 237.699L658.475 199.359L665.943 198.084C665.943 198.084 640.99 242.647 641.931 243.284C642.872 243.922 676.234 196.02 676.234 196.02L678.662 196.536Z" fill="url(#paint56_linear_3200_1139)"/>
<path fill-rule="evenodd" clip-rule="evenodd" d="M563.765 142.167C563.674 141.955 563.765 141.742 563.977 141.651C564.19 141.56 564.403 141.651 564.494 141.864C564.585 142.076 564.494 142.289 564.281 142.38C564.069 142.471 563.856 142.38 563.765 142.167Z" fill="#D2FFF1"/>
<path fill-rule="evenodd" clip-rule="evenodd" d="M553.321 178.687C553.23 178.474 553.321 178.262 553.533 178.171C553.746 178.08 553.958 178.171 554.05 178.383C554.141 178.596 554.049 178.808 553.837 178.899C553.625 178.991 553.412 178.899 553.321 178.687Z" fill="#D2FFF1"/>
<path fill-rule="evenodd" clip-rule="evenodd" d="M533.499 196.597C533.408 196.385 533.499 196.172 533.711 196.081C533.924 195.99 534.136 196.081 534.227 196.294C534.318 196.506 534.227 196.719 534.015 196.81C533.802 196.901 533.59 196.81 533.499 196.597Z" fill="#D2FFF1"/>
<path fill-rule="evenodd" clip-rule="evenodd" d="M554.233 139.376C553.99 138.799 554.263 138.162 554.84 137.919C555.417 137.676 556.054 137.949 556.297 138.526C556.54 139.103 556.267 139.74 555.69 139.983C555.113 140.226 554.476 139.953 554.233 139.376Z" fill="#D2FFF1"/>
<path fill-rule="evenodd" clip-rule="evenodd" d="M558.513 173.677C558.361 173.313 558.513 172.918 558.877 172.766C559.241 172.615 559.636 172.766 559.787 173.131C559.939 173.495 559.787 173.89 559.423 174.041C559.059 174.193 558.664 174.041 558.513 173.677Z" fill="#D2FFF1"/>
<path fill-rule="evenodd" clip-rule="evenodd" d="M543.303 168.062C543.121 167.637 543.303 167.181 543.728 166.999C544.153 166.817 544.608 166.999 544.791 167.424C544.973 167.849 544.791 168.304 544.366 168.487C543.941 168.669 543.485 168.486 543.303 168.062Z" fill="#D2FFF1"/>
<path fill-rule="evenodd" clip-rule="evenodd" d="M553.049 135.216C552.927 134.882 553.049 134.518 553.383 134.397C553.717 134.275 554.081 134.397 554.202 134.731C554.324 135.064 554.202 135.429 553.869 135.55C553.535 135.672 553.17 135.55 553.049 135.216Z" fill="#D2FFF1"/>
<path fill-rule="evenodd" clip-rule="evenodd" d="M545.338 171.218C545.217 170.945 545.338 170.611 545.642 170.52C545.915 170.399 546.249 170.52 546.34 170.824C546.461 171.097 546.34 171.431 546.037 171.522C545.763 171.643 545.429 171.522 545.338 171.218Z" fill="#D2FFF1"/>
<path fill-rule="evenodd" clip-rule="evenodd" d="M503.811 126.778C503.689 126.505 503.811 126.171 504.115 126.08C504.418 125.989 504.722 126.08 504.813 126.383C504.904 126.687 504.813 126.99 504.509 127.081C504.236 127.203 503.902 127.081 503.811 126.778Z" fill="#D2FFF1"/>
<path fill-rule="evenodd" clip-rule="evenodd" d="M535.291 151.123C535.169 150.85 535.291 150.516 535.594 150.425C535.898 150.334 536.201 150.425 536.292 150.729C536.414 151.002 536.293 151.336 535.989 151.427C535.716 151.548 535.382 151.427 535.291 151.123Z" fill="#D2FFF1"/>
<path fill-rule="evenodd" clip-rule="evenodd" d="M572.537 191.952C572.415 191.649 572.537 191.285 572.871 191.163C573.205 191.042 573.539 191.163 573.66 191.497C573.781 191.831 573.66 192.165 573.326 192.286C573.023 192.408 572.658 192.286 572.537 191.952Z" fill="#D2FFF1"/>
<path fill-rule="evenodd" clip-rule="evenodd" d="M540.572 173.192C540.481 172.979 540.572 172.737 540.785 172.676C540.997 172.585 541.24 172.676 541.301 172.888C541.392 173.101 541.301 173.344 541.088 173.404C540.876 173.495 540.633 173.404 540.572 173.192Z" fill="#D2FFF1"/>
<path fill-rule="evenodd" clip-rule="evenodd" d="M557.025 199.723C556.904 199.419 557.025 199.055 557.359 198.934C557.693 198.812 558.027 198.934 558.148 199.268C558.27 199.602 558.148 199.935 557.814 200.057C557.48 200.178 557.146 200.057 557.025 199.723Z" fill="#D2FFF1"/>
<path fill-rule="evenodd" clip-rule="evenodd" d="M554.385 198.205C554.294 197.993 554.385 197.75 554.628 197.659C554.84 197.568 555.083 197.659 555.174 197.902C555.265 198.114 555.174 198.357 554.931 198.448C554.688 198.539 554.476 198.448 554.385 198.205Z" fill="#D2FFF1"/>
<path fill-rule="evenodd" clip-rule="evenodd" d="M555.749 185.729C555.658 185.517 555.749 185.274 555.992 185.183C556.235 185.092 556.447 185.183 556.538 185.426C556.629 185.638 556.539 185.881 556.296 185.972C556.083 186.063 555.84 185.972 555.749 185.729Z" fill="#D2FFF1"/>
<path fill-rule="evenodd" clip-rule="evenodd" d="M582.16 141.136C582.069 140.923 582.16 140.68 582.403 140.589C582.616 140.498 582.858 140.589 582.95 140.832C583.041 141.045 582.95 141.288 582.707 141.379C582.494 141.47 582.251 141.379 582.16 141.136Z" fill="#D2FFF1"/>
<path style="mix-blend-mode:screen" opacity="0.5" fill-rule="evenodd" clip-rule="evenodd" d="M539.996 173.434C539.783 172.918 540.026 172.311 540.542 172.098C541.058 171.886 541.665 172.129 541.878 172.645C542.09 173.161 541.847 173.768 541.331 173.98C540.815 174.193 540.208 173.95 539.996 173.434Z" fill="url(#paint57_radial_3200_1139)"/>
<path style="mix-blend-mode:screen" opacity="0.5" fill-rule="evenodd" clip-rule="evenodd" d="M551.561 140.925C550.681 138.8 551.682 136.371 553.807 135.491C555.932 134.611 558.361 135.613 559.241 137.738C560.121 139.862 559.12 142.291 556.995 143.171C554.87 144.052 552.441 143.05 551.561 140.925Z" fill="url(#paint58_radial_3200_1139)"/>
<path style="mix-blend-mode:screen" opacity="0.5" fill-rule="evenodd" clip-rule="evenodd" d="M555.72 200.331C555.295 199.298 555.781 198.084 556.843 197.659C557.875 197.234 559.089 197.72 559.514 198.782C559.939 199.845 559.454 201.029 558.391 201.454C557.359 201.879 556.145 201.393 555.72 200.331Z" fill="url(#paint59_radial_3200_1139)"/>
<path style="mix-blend-mode:screen" opacity="0.5" fill-rule="evenodd" clip-rule="evenodd" d="M547.766 144.019C548.04 142.744 549.315 141.925 550.59 142.198C551.864 142.471 552.684 143.746 552.411 145.021C552.138 146.296 550.863 147.116 549.588 146.843C548.313 146.569 547.493 145.294 547.766 144.019Z" fill="url(#paint60_radial_3200_1139)"/>
<path style="mix-blend-mode:screen" opacity="0.15" fill-rule="evenodd" clip-rule="evenodd" d="M537.293 202.85C537.961 199.753 541.027 197.78 544.124 198.478C547.22 199.146 549.193 202.212 548.495 205.309C547.797 208.405 544.761 210.378 541.665 209.68C538.568 209.012 536.595 205.946 537.293 202.85Z" fill="url(#paint61_radial_3200_1139)"/>
<path style="mix-blend-mode:screen" opacity="0.15" fill-rule="evenodd" clip-rule="evenodd" d="M581.007 135.763C581.31 134.367 582.707 133.456 584.103 133.76C585.5 134.063 586.41 135.46 586.107 136.856C585.803 138.252 584.407 139.163 583.01 138.859C581.614 138.556 580.703 137.159 581.007 135.763Z" fill="url(#paint62_radial_3200_1139)"/>
<path fill-rule="evenodd" clip-rule="evenodd" d="M490.757 230.838L487.054 199.024L500.259 196.019L508.303 198.235V196.019L498.134 194.44L484.291 198.963L487.479 230.261L490.757 230.838Z" fill="#9DECFD"/>
<path fill-rule="evenodd" clip-rule="evenodd" d="M526.426 201.241C526.426 201.241 527.58 211.168 528.612 210.894C529.644 210.621 546.977 216.45 546.977 216.45L540.056 230.808H549.193L543.031 255.822L549.193 257.339L551.318 242.677L568.318 240.735L552.199 243.527L551.318 259.252L542.636 257.977L546.492 231.749H536.99L545.763 218.15L525.607 210.925V202.364L526.426 201.272V201.241Z" fill="#9DECFD"/>
<path fill-rule="evenodd" clip-rule="evenodd" d="M525.606 210.893L500.502 213.626L525.758 209.133L525.606 210.893Z" fill="#9DECFD"/>
<path d="M457.518 73.5625L457.002 77.2052L436.663 88.8924L412.135 81.8801L437.392 90.8959L458.52 78.0249L457.518 73.5625Z" fill="url(#paint63_linear_3200_1139)"/>
<path d="M436.086 150.819L436.177 180.477L435.205 170.217L436.086 150.819Z" fill="url(#paint64_linear_3200_1139)"/>
<path fill-rule="evenodd" clip-rule="evenodd" d="M670.527 96.421C671.771 94.9032 672.105 93.9622 670.891 94.9336C669.677 95.905 669.616 97.5442 670.527 96.421Z" fill="#9DECFD"/>
<path fill-rule="evenodd" clip-rule="evenodd" d="M677.326 93.9006C678.722 90.6524 677.599 91.2899 676.111 93.172C674.624 95.0541 676.597 95.6309 677.326 93.9006Z" fill="#9DECFD"/>
<path fill-rule="evenodd" clip-rule="evenodd" d="M671.559 88.4983C669.495 89.8644 670.405 91.2 670.679 91.7161C670.891 92.05 673.41 87.2841 671.559 88.4983Z" fill="#9DECFD"/>
<path fill-rule="evenodd" clip-rule="evenodd" d="M431.502 254.85C428.8 252.179 428.102 252.755 428.405 253.423C429.771 256.52 431.502 254.85 431.502 254.85Z" fill="#9DECFD"/>
<path fill-rule="evenodd" clip-rule="evenodd" d="M673.016 94.9647C672.743 95.2075 672.105 95.9968 673.319 95.6325C674.503 95.2682 673.32 94.6915 673.016 94.9647Z" fill="#9DECFD"/>
<path fill-rule="evenodd" clip-rule="evenodd" d="M679.209 87.4046C677.782 87.9813 676.962 89.8027 677.903 89.4384C678.844 89.0741 680.605 86.8581 679.209 87.4046Z" fill="#9DECFD"/>
<path fill-rule="evenodd" clip-rule="evenodd" d="M362.23 96.2981C363.657 97.057 366.935 98.9997 364.355 96.0552C361.775 93.0803 360.773 95.5391 362.23 96.2981Z" fill="#9DECFD"/>
<path fill-rule="evenodd" clip-rule="evenodd" d="M436.602 243.071C436.663 239.185 432.231 242.494 433.506 243.405C434.538 244.164 436.602 244.194 436.602 243.071Z" fill="#9DECFD"/>
<path fill-rule="evenodd" clip-rule="evenodd" d="M359.679 98.4541C358.859 98.9702 360.711 100.002 360.65 99.3345C360.59 98.6666 360.286 98.0595 359.679 98.4541Z" fill="#9DECFD"/>
<path fill-rule="evenodd" clip-rule="evenodd" d="M364.93 94.2345C364.08 94.6595 365.75 95.5094 365.75 95.5094C365.75 95.5094 365.537 93.9613 364.93 94.2345Z" fill="#9DECFD"/>
<path fill-rule="evenodd" clip-rule="evenodd" d="M363.868 102.31C364.385 103.221 366.024 103.859 365.204 102.31C364.415 100.762 363.322 101.339 363.868 102.31Z" fill="#9DECFD"/>
<path fill-rule="evenodd" clip-rule="evenodd" d="M667.825 112.631C663.878 114.179 667.825 98.8489 672.044 103.858C676.233 108.866 676.233 109.352 667.825 112.631Z" fill="#9DECFD"/>
<path fill-rule="evenodd" clip-rule="evenodd" d="M639.048 173.404C638.38 178.2 649.946 170.368 647.882 167.939C645.817 165.511 639.746 168.243 639.048 173.404Z" fill="#9DECFD"/>
<path fill-rule="evenodd" clip-rule="evenodd" d="M562.186 76.0207C559.12 79.6331 568.014 81.667 570.686 79.451C573.357 77.235 567.832 69.3424 562.186 76.0207Z" fill="#9DECFD"/>
<path fill-rule="evenodd" clip-rule="evenodd" d="M373.613 100.944C365.478 112.146 386.818 112.146 385.786 109.808C384.754 107.471 382.113 89.2571 373.613 100.944Z" fill="#9DECFD"/>
<path fill-rule="evenodd" clip-rule="evenodd" d="M513.039 118.702C517.38 122.041 521.508 118.793 516.135 116.698C510.762 114.573 509.305 115.818 513.039 118.702Z" fill="#9DECFD"/>
<path fill-rule="evenodd" clip-rule="evenodd" d="M440.032 249.872C437.482 250.661 434.659 253.15 436.753 254.334C438.878 255.518 439.759 256.246 441.671 255.639C443.584 255.032 442.855 248.991 440.032 249.872Z" fill="#9DECFD"/>
<path fill-rule="evenodd" clip-rule="evenodd" d="M500.471 37.4395L503.689 58.2638L519.352 73.3812L537.536 53.6497L536.868 45.6963L527.609 37.5002L500.471 37.4395Z" fill="url(#paint65_linear_3200_1139)"/>
<path fill-rule="evenodd" clip-rule="evenodd" d="M536.868 45.6963L515.71 49.2783L519.353 73.3812L537.536 53.6496L536.868 45.6963Z" fill="url(#paint66_linear_3200_1139)"/>
<path style="mix-blend-mode:multiply" opacity="0.5" fill-rule="evenodd" clip-rule="evenodd" d="M500.471 37.4395L515.71 49.2784L536.868 45.6963L527.609 37.5002L500.471 37.4395Z" fill="url(#paint67_linear_3200_1139)"/>
<path fill-rule="evenodd" clip-rule="evenodd" d="M544.973 78.5112L543.334 89.0144L538.447 91.6858L532.406 89.1966L530.129 74.4131H537.293L544.973 78.5112Z" fill="url(#paint68_linear_3200_1139)"/>
<path fill-rule="evenodd" clip-rule="evenodd" d="M530.129 74.4131L538.234 79.7254L538.447 91.6858L532.406 89.1966L530.129 74.4131Z" fill="url(#paint69_linear_3200_1139)"/>
<path style="mix-blend-mode:multiply" opacity="0.5" fill-rule="evenodd" clip-rule="evenodd" d="M544.973 78.5112L538.234 79.7254L530.129 74.4131H537.293L544.973 78.5112Z" fill="url(#paint70_linear_3200_1139)"/>
</g>
<g filter="url(#filter2_d_3200_1139)">
<path d="M108.43 275.59L107.902 297.949L92.1875 298.582L88.1797 348.574L65.9258 349.734L66.0312 299.742L50.3164 300.586L50.9492 275.695L108.43 275.59ZM174.4 313.77C174.4 316.969 174.031 320.062 173.293 323.051C172.555 326.004 171.482 328.781 170.076 331.383C168.705 333.984 167.018 336.375 165.014 338.555C163.045 340.699 160.812 342.545 158.316 344.092C155.855 345.639 153.166 346.852 150.248 347.73C147.33 348.574 144.236 348.996 140.967 348.996C137.803 348.996 134.779 348.592 131.896 347.783C129.049 346.975 126.377 345.85 123.881 344.408C121.385 342.932 119.117 341.174 117.078 339.135C115.074 337.061 113.352 334.775 111.91 332.279C110.504 329.748 109.396 327.041 108.588 324.158C107.814 321.275 107.428 318.27 107.428 315.141C107.428 312.082 107.797 309.094 108.535 306.176C109.273 303.223 110.328 300.445 111.699 297.844C113.105 295.242 114.793 292.852 116.762 290.672C118.73 288.492 120.928 286.611 123.354 285.029C125.814 283.447 128.469 282.217 131.316 281.338C134.164 280.459 137.17 280.02 140.334 280.02C145.432 280.02 150.072 280.811 154.256 282.393C158.475 283.975 162.061 286.242 165.014 289.195C168.002 292.113 170.305 295.664 171.922 299.848C173.574 303.996 174.4 308.637 174.4 313.77ZM150.986 315.141C150.986 313.629 150.758 312.17 150.301 310.764C149.879 309.322 149.246 308.057 148.402 306.967C147.559 305.842 146.504 304.945 145.238 304.277C144.008 303.574 142.584 303.223 140.967 303.223C139.314 303.223 137.838 303.521 136.537 304.119C135.236 304.717 134.111 305.543 133.162 306.598C132.248 307.617 131.545 308.83 131.053 310.236C130.561 311.607 130.314 313.066 130.314 314.613C130.314 316.09 130.525 317.566 130.947 319.043C131.369 320.52 132.002 321.855 132.846 323.051C133.689 324.246 134.727 325.213 135.957 325.951C137.223 326.689 138.682 327.059 140.334 327.059C141.986 327.059 143.463 326.742 144.764 326.109C146.1 325.441 147.225 324.562 148.139 323.473C149.053 322.348 149.756 321.064 150.248 319.623C150.74 318.182 150.986 316.688 150.986 315.141ZM241.162 292.359C241.162 294.961 241.039 297.826 240.793 300.955C240.547 304.084 240.143 307.318 239.58 310.658C239.018 313.998 238.279 317.391 237.365 320.836C236.486 324.246 235.379 327.533 234.043 330.697C232.707 333.861 231.143 336.832 229.35 339.609C227.592 342.352 225.553 344.76 223.232 346.834C220.947 348.873 218.381 350.473 215.533 351.633C212.686 352.828 209.521 353.426 206.041 353.426C201.963 353.426 198.412 352.758 195.389 351.422C192.4 350.121 189.834 348.363 187.689 346.148C185.545 343.898 183.787 341.297 182.416 338.344C181.045 335.355 179.973 332.209 179.199 328.904C178.426 325.564 177.881 322.172 177.564 318.727C177.283 315.246 177.143 311.906 177.143 308.707C177.143 303.785 177.389 298.881 177.881 293.994C178.373 289.072 179.076 284.168 179.99 279.281L204.67 280.23C203.721 285.75 202.895 291.305 202.191 296.895C201.523 302.449 201.189 308.039 201.189 313.664C201.189 314.262 201.207 315.158 201.242 316.354C201.312 317.514 201.418 318.832 201.559 320.309C201.699 321.75 201.893 323.244 202.139 324.791C202.42 326.303 202.789 327.691 203.246 328.957C203.703 330.223 204.248 331.26 204.881 332.068C205.549 332.877 206.322 333.281 207.201 333.281C208.221 333.281 209.135 332.807 209.943 331.857C210.752 330.873 211.455 329.572 212.053 327.955C212.686 326.338 213.23 324.475 213.688 322.365C214.145 320.256 214.531 318.059 214.848 315.773C215.164 313.488 215.41 311.203 215.586 308.918C215.797 306.633 215.955 304.506 216.061 302.537C216.201 300.568 216.289 298.828 216.324 297.316C216.359 295.805 216.377 294.68 216.377 293.941C216.377 291.199 216.324 288.475 216.219 285.768C216.148 283.025 216.025 280.301 215.85 277.594H240.529C240.951 282.445 241.162 287.367 241.162 292.359ZM307.186 300.164C307.186 302.906 306.939 305.402 306.447 307.652C305.99 309.867 305.252 311.906 304.232 313.77C303.213 315.633 301.895 317.355 300.277 318.938C298.66 320.52 296.709 322.031 294.424 323.473L306.975 345.832L283.244 350.473L275.123 328.008L268.584 328.219L267.635 350.156H244.959C245.135 342.141 245.293 334.16 245.434 326.215C245.609 318.27 245.803 310.289 246.014 302.273C246.084 298.23 246.154 294.223 246.225 290.25C246.295 286.277 246.436 282.27 246.646 278.227C249.107 277.312 251.533 276.557 253.924 275.959C256.314 275.361 258.705 274.904 261.096 274.588C263.521 274.236 265.965 274.008 268.426 273.902C270.922 273.762 273.471 273.691 276.072 273.691C280.08 273.691 283.947 274.254 287.674 275.379C291.436 276.469 294.758 278.121 297.641 280.336C300.523 282.551 302.826 285.311 304.549 288.615C306.307 291.92 307.186 295.77 307.186 300.164ZM283.561 301.852C283.561 300.375 283.35 299.021 282.928 297.791C282.541 296.561 281.943 295.506 281.135 294.627C280.361 293.713 279.377 293.01 278.182 292.518C277.021 291.99 275.65 291.727 274.068 291.727C273.365 291.727 272.68 291.779 272.012 291.885C271.344 291.955 270.693 292.078 270.061 292.254L269.217 311.871H270.482C271.994 311.871 273.523 311.678 275.07 311.291C276.652 310.904 278.059 310.307 279.289 309.498C280.555 308.689 281.574 307.652 282.348 306.387C283.156 305.121 283.561 303.609 283.561 301.852ZM382.596 275.379L378.799 346.887L351.166 349.418L336.4 311.133L334.08 350.156H310.35L312.248 275.379L338.615 274.113L356.861 312.082L357.705 276.223L382.596 275.379Z" fill="white"/>
</g>
<defs>
<filter id="filter0_d_3200_1139" x="0.9" y="43.11" width="672.2" height="380.958" filterUnits="userSpaceOnUse" color-interpolation-filters="sRGB">
<feFlood flood-opacity="0" result="BackgroundImageFix"/>
<feColorMatrix in="SourceAlpha" type="matrix" values="0 0 0 0 0 0 0 0 0 0 0 0 0 0 0 0 0 0 127 0" result="hardAlpha"/>
<feOffset dy="4"/>
<feGaussianBlur stdDeviation="5.55"/>
<feComposite in2="hardAlpha" operator="out"/>
<feColorMatrix type="matrix" values="0 0 0 0 0 0 0 0 0 0 0 0 0 0 0 0 0 0 0.6 0"/>
<feBlend mode="normal" in2="BackgroundImageFix" result="effect1_dropShadow_3200_1139"/>
<feBlend mode="normal" in="SourceGraphic" in2="effect1_dropShadow_3200_1139" result="shape"/>
</filter>
<filter id="filter1_d_3200_1139" x="310" y="0" width="395" height="412.88" filterUnits="userSpaceOnUse" color-interpolation-filters="sRGB">
<feFlood flood-opacity="0" result="BackgroundImageFix"/>
<feColorMatrix in="SourceAlpha" type="matrix" values="0 0 0 0 0 0 0 0 0 0 0 0 0 0 0 0 0 0 127 0" result="hardAlpha"/>
<feOffset dx="-9" dy="4"/>
<feGaussianBlur stdDeviation="8"/>
<feComposite in2="hardAlpha" operator="out"/>
<feColorMatrix type="matrix" values="0 0 0 0 0 0 0 0 0 0 0 0 0 0 0 0 0 0 0.24 0"/>
<feBlend mode="normal" in2="BackgroundImageFix" result="effect1_dropShadow_3200_1139"/>
<feBlend mode="normal" in="SourceGraphic" in2="effect1_dropShadow_3200_1139" result="shape"/>
</filter>
<filter id="filter2_d_3200_1139" x="38.3164" y="271.691" width="348.279" height="95.7344" filterUnits="userSpaceOnUse" color-interpolation-filters="sRGB">
<feFlood flood-opacity="0" result="BackgroundImageFix"/>
<feColorMatrix in="SourceAlpha" type="matrix" values="0 0 0 0 0 0 0 0 0 0 0 0 0 0 0 0 0 0 127 0" result="hardAlpha"/>
<feOffset dx="-4" dy="6"/>
<feGaussianBlur stdDeviation="4"/>
<feComposite in2="hardAlpha" operator="out"/>
<feColorMatrix type="matrix" values="0 0 0 0 0 0 0 0 0 0 0 0 0 0 0 0 0 0 0.25 0"/>
<feBlend mode="normal" in2="BackgroundImageFix" result="effect1_dropShadow_3200_1139"/>
<feBlend mode="normal" in="SourceGraphic" in2="effect1_dropShadow_3200_1139" result="shape"/>
</filter>
<linearGradient id="paint0_linear_3200_1139" x1="987" y1="408.968" x2="987" y2="767.725" gradientUnits="userSpaceOnUse">
<stop stop-color="#4F0170"/>
<stop offset="0.892966" stop-color="#5384A6"/>
</linearGradient>
<linearGradient id="paint1_linear_3200_1139" x1="418.479" y1="41.8699" x2="418.479" y2="251.419" gradientUnits="userSpaceOnUse">
<stop stop-color="#5612A1"/>
<stop offset="1" stop-color="#9000B0"/>
</linearGradient>
<linearGradient id="paint2_linear_3200_1139" x1="418.449" y1="244.649" x2="440.366" y2="116.152" gradientUnits="userSpaceOnUse">
<stop stop-color="#4F0BC0"/>
<stop offset="1" stop-color="#B10CD9"/>
</linearGradient>
<linearGradient id="paint3_linear_3200_1139" x1="421.028" y1="173.98" x2="420.209" y2="170.732" gradientUnits="userSpaceOnUse">
<stop stop-color="#3445A1"/>
<stop offset="1" stop-color="#191E84"/>
</linearGradient>
<linearGradient id="paint4_linear_3200_1139" x1="364.019" y1="41.8698" x2="364.019" y2="251.419" gradientUnits="userSpaceOnUse">
<stop stop-color="#5612A1"/>
<stop offset="1" stop-color="#9000B0"/>
</linearGradient>
<linearGradient id="paint5_linear_3200_1139" x1="364.718" y1="270.756" x2="397.138" y2="80.8167" gradientUnits="userSpaceOnUse">
<stop stop-color="#4F0BC0"/>
<stop offset="1" stop-color="#B10CD9"/>
</linearGradient>
<linearGradient id="paint6_linear_3200_1139" x1="369.423" y1="168.759" x2="367.632" y2="161.807" gradientUnits="userSpaceOnUse">
<stop stop-color="#3445A1"/>
<stop offset="1" stop-color="#191E84"/>
</linearGradient>
<linearGradient id="paint7_linear_3200_1139" x1="425.674" y1="41.8704" x2="425.674" y2="251.419" gradientUnits="userSpaceOnUse">
<stop stop-color="#5612A1"/>
<stop offset="1" stop-color="#9000B0"/>
</linearGradient>
<linearGradient id="paint8_linear_3200_1139" x1="418.481" y1="151.031" x2="451.053" y2="-39.9402" gradientUnits="userSpaceOnUse">
<stop stop-color="#4F0BC0"/>
<stop offset="1" stop-color="#B10CD9"/>
</linearGradient>
<linearGradient id="paint9_linear_3200_1139" x1="430.411" y1="103.978" x2="437.484" y2="62.451" gradientUnits="userSpaceOnUse">
<stop stop-color="#4F0BC0"/>
<stop offset="1" stop-color="#C822F0"/>
</linearGradient>
<linearGradient id="paint10_linear_3200_1139" x1="429.924" y1="45.7561" x2="428.588" y2="40.5955" gradientUnits="userSpaceOnUse">
<stop stop-color="#3445A1"/>
<stop offset="1" stop-color="#191E84"/>
</linearGradient>
<linearGradient id="paint11_linear_3200_1139" x1="620.864" y1="41.8709" x2="620.864" y2="251.42" gradientUnits="userSpaceOnUse">
<stop stop-color="#5612A1"/>
<stop offset="1" stop-color="#9000B0"/>
</linearGradient>
<linearGradient id="paint12_linear_3200_1139" x1="577.485" y1="167.91" x2="609.784" y2="-21.4521" gradientUnits="userSpaceOnUse">
<stop stop-color="#4F0BC0"/>
<stop offset="1" stop-color="#B10CD9"/>
</linearGradient>
<linearGradient id="paint13_linear_3200_1139" x1="606.415" y1="134.063" x2="621.714" y2="44.4215" gradientUnits="userSpaceOnUse">
<stop stop-color="#4F0BC0"/>
<stop offset="1" stop-color="#C822F0"/>
</linearGradient>
<linearGradient id="paint14_linear_3200_1139" x1="629.545" y1="53.9831" x2="627.967" y2="47.8815" gradientUnits="userSpaceOnUse">
<stop stop-color="#3445A1"/>
<stop offset="1" stop-color="#191E84"/>
</linearGradient>
<linearGradient id="paint15_linear_3200_1139" x1="362.321" y1="247.657" x2="368.058" y2="214.022" gradientUnits="userSpaceOnUse">
<stop stop-color="#4F0BC0"/>
<stop offset="1" stop-color="#B10CD9"/>
</linearGradient>
<linearGradient id="paint16_linear_3200_1139" x1="397.899" y1="294.131" x2="402.21" y2="268.753" gradientUnits="userSpaceOnUse">
<stop stop-color="#4F0BC0"/>
<stop offset="1" stop-color="#B10CD9"/>
</linearGradient>
<linearGradient id="paint17_linear_3200_1139" x1="443.676" y1="325.883" x2="448.898" y2="295.254" gradientUnits="userSpaceOnUse">
<stop stop-color="#4F0BC0"/>
<stop offset="1" stop-color="#B10CD9"/>
</linearGradient>
<linearGradient id="paint18_linear_3200_1139" x1="447.652" y1="325.975" x2="461.525" y2="244.529" gradientUnits="userSpaceOnUse">
<stop stop-color="#4F0BC0"/>
<stop offset="1" stop-color="#B10CD9"/>
</linearGradient>
<linearGradient id="paint19_linear_3200_1139" x1="537.174" y1="299.93" x2="546.918" y2="242.83" gradientUnits="userSpaceOnUse">
<stop stop-color="#4F0BC0"/>
<stop offset="1" stop-color="#B10CD9"/>
</linearGradient>
<linearGradient id="paint20_linear_3200_1139" x1="493.642" y1="283.597" x2="507.423" y2="202.88" gradientUnits="userSpaceOnUse">
<stop stop-color="#4F0BC0"/>
<stop offset="1" stop-color="#B10CD9"/>
</linearGradient>
<linearGradient id="paint21_linear_3200_1139" x1="520.598" y1="230.717" x2="525.273" y2="203.305" gradientUnits="userSpaceOnUse">
<stop stop-color="#4F0BC0"/>
<stop offset="1" stop-color="#B10CD9"/>
</linearGradient>
<linearGradient id="paint22_linear_3200_1139" x1="504.782" y1="210.59" x2="507.909" y2="192.255" gradientUnits="userSpaceOnUse">
<stop stop-color="#4F0BC0"/>
<stop offset="1" stop-color="#B10CD9"/>
</linearGradient>
<linearGradient id="paint23_linear_3200_1139" x1="518.048" y1="351.899" x2="529.523" y2="284.569" gradientUnits="userSpaceOnUse">
<stop stop-color="#4F0BC0"/>
<stop offset="1" stop-color="#B10CD9"/>
</linearGradient>
<linearGradient id="paint24_linear_3200_1139" x1="630.671" y1="283.263" x2="639.383" y2="232.265" gradientUnits="userSpaceOnUse">
<stop stop-color="#4F0BC0"/>
<stop offset="1" stop-color="#B10CD9"/>
</linearGradient>
<linearGradient id="paint25_linear_3200_1139" x1="589.962" y1="274.248" x2="599.919" y2="215.873" gradientUnits="userSpaceOnUse">
<stop stop-color="#4F0BC0"/>
<stop offset="1" stop-color="#B10CD9"/>
</linearGradient>
<linearGradient id="paint26_linear_3200_1139" x1="502.992" y1="384.988" x2="516.045" y2="308.582" gradientUnits="userSpaceOnUse">
<stop stop-color="#4F0BC0"/>
<stop offset="1" stop-color="#B10CD9"/>
</linearGradient>
<linearGradient id="paint27_linear_3200_1139" x1="365.113" y1="259.615" x2="363.504" y2="253.422" gradientUnits="userSpaceOnUse">
<stop stop-color="#3445A1"/>
<stop offset="1" stop-color="#191E84"/>
</linearGradient>
<linearGradient id="paint28_linear_3200_1139" x1="366.935" y1="309.946" x2="364.324" y2="299.959" gradientUnits="userSpaceOnUse">
<stop stop-color="#3445A1"/>
<stop offset="1" stop-color="#191E84"/>
</linearGradient>
<linearGradient id="paint29_linear_3200_1139" x1="411.164" y1="299.078" x2="410.344" y2="295.952" gradientUnits="userSpaceOnUse">
<stop stop-color="#3445A1"/>
<stop offset="1" stop-color="#191E84"/>
</linearGradient>
<linearGradient id="paint30_linear_3200_1139" x1="541.332" y1="260.07" x2="540.179" y2="255.638" gradientUnits="userSpaceOnUse">
<stop stop-color="#3445A1"/>
<stop offset="1" stop-color="#191E84"/>
</linearGradient>
<linearGradient id="paint31_linear_3200_1139" x1="509.033" y1="233.206" x2="508.122" y2="229.624" gradientUnits="userSpaceOnUse">
<stop stop-color="#3445A1"/>
<stop offset="1" stop-color="#191E84"/>
</linearGradient>
<linearGradient id="paint32_linear_3200_1139" x1="520.568" y1="212.867" x2="520.143" y2="211.197" gradientUnits="userSpaceOnUse">
<stop stop-color="#3445A1"/>
<stop offset="1" stop-color="#191E84"/>
</linearGradient>
<linearGradient id="paint33_linear_3200_1139" x1="436.026" y1="346.677" x2="434.083" y2="339.18" gradientUnits="userSpaceOnUse">
<stop stop-color="#3445A1"/>
<stop offset="1" stop-color="#191E84"/>
</linearGradient>
<linearGradient id="paint34_linear_3200_1139" x1="587.169" y1="329.466" x2="585.135" y2="321.695" gradientUnits="userSpaceOnUse">
<stop stop-color="#3445A1"/>
<stop offset="1" stop-color="#191E84"/>
</linearGradient>
<linearGradient id="paint35_linear_3200_1139" x1="631.551" y1="280.714" x2="630.397" y2="276.282" gradientUnits="userSpaceOnUse">
<stop stop-color="#3445A1"/>
<stop offset="1" stop-color="#191E84"/>
</linearGradient>
<linearGradient id="paint36_linear_3200_1139" x1="509.397" y1="397.16" x2="507.12" y2="388.387" gradientUnits="userSpaceOnUse">
<stop stop-color="#3445A1"/>
<stop offset="1" stop-color="#191E84"/>
</linearGradient>
<linearGradient id="paint37_linear_3200_1139" x1="504.388" y1="345.859" x2="503.022" y2="340.698" gradientUnits="userSpaceOnUse">
<stop stop-color="#3445A1"/>
<stop offset="1" stop-color="#191E84"/>
</linearGradient>
<linearGradient id="paint38_linear_3200_1139" x1="399.174" y1="302.813" x2="397.96" y2="298.138" gradientUnits="userSpaceOnUse">
<stop stop-color="#3445A1"/>
<stop offset="1" stop-color="#191E84"/>
</linearGradient>
<linearGradient id="paint39_linear_3200_1139" x1="444.101" y1="335.81" x2="444.101" y2="265.414" gradientUnits="userSpaceOnUse">
<stop stop-color="#3445A1"/>
<stop offset="1" stop-color="#191E84"/>
</linearGradient>
<linearGradient id="paint40_linear_3200_1139" x1="387.334" y1="304.634" x2="384.724" y2="294.616" gradientUnits="userSpaceOnUse">
<stop stop-color="#3445A1"/>
<stop offset="1" stop-color="#191E84"/>
</linearGradient>
<linearGradient id="paint41_linear_3200_1139" x1="354.853" y1="299.596" x2="372.642" y2="195.383" gradientUnits="userSpaceOnUse">
<stop stop-color="#3445A1"/>
<stop offset="1" stop-color="#191E84"/>
</linearGradient>
<linearGradient id="paint42_linear_3200_1139" x1="469.206" y1="370.051" x2="503.508" y2="169.093" gradientUnits="userSpaceOnUse">
<stop stop-color="#3445A1"/>
<stop offset="1" stop-color="#191E84"/>
</linearGradient>
<linearGradient id="paint43_linear_3200_1139" x1="555.356" y1="320.723" x2="553.019" y2="311.768" gradientUnits="userSpaceOnUse">
<stop stop-color="#3445A1"/>
<stop offset="1" stop-color="#191E84"/>
</linearGradient>
<linearGradient id="paint44_linear_3200_1139" x1="606.931" y1="324.306" x2="604.928" y2="316.534" gradientUnits="userSpaceOnUse">
<stop stop-color="#3445A1"/>
<stop offset="1" stop-color="#191E84"/>
</linearGradient>
<linearGradient id="paint45_linear_3200_1139" x1="593.788" y1="340.698" x2="618.649" y2="195.019" gradientUnits="userSpaceOnUse">
<stop stop-color="#3445A1"/>
<stop offset="1" stop-color="#191E84"/>
</linearGradient>
<linearGradient id="paint46_linear_3200_1139" x1="617.374" y1="285.814" x2="615.462" y2="278.438" gradientUnits="userSpaceOnUse">
<stop stop-color="#3445A1"/>
<stop offset="1" stop-color="#191E84"/>
</linearGradient>
<linearGradient id="paint47_linear_3200_1139" x1="512.705" y1="352.657" x2="500.199" y2="239.762" gradientUnits="userSpaceOnUse">
<stop stop-color="#3445A1"/>
<stop offset="1" stop-color="#191E84"/>
</linearGradient>
<linearGradient id="paint48_linear_3200_1139" x1="484.201" y1="398.709" x2="498.559" y2="240.857" gradientUnits="userSpaceOnUse">
<stop stop-color="#433FFF"/>
<stop offset="1"/>
</linearGradient>
<linearGradient id="paint49_linear_3200_1139" x1="676.265" y1="41.8705" x2="676.265" y2="251.419" gradientUnits="userSpaceOnUse">
<stop stop-color="#5612A1"/>
<stop offset="1" stop-color="#9000B0"/>
</linearGradient>
<linearGradient id="paint50_linear_3200_1139" x1="646.728" y1="270.847" x2="678.42" y2="85.2798" gradientUnits="userSpaceOnUse">
<stop stop-color="#4F0BC0"/>
<stop offset="1" stop-color="#C822F0"/>
</linearGradient>
<linearGradient id="paint51_linear_3200_1139" x1="687.406" y1="163.417" x2="685.857" y2="157.528" gradientUnits="userSpaceOnUse">
<stop stop-color="#3445A1"/>
<stop offset="1" stop-color="#191E84"/>
</linearGradient>
<linearGradient id="paint52_linear_3200_1139" x1="695.814" y1="195.746" x2="692.809" y2="184.15" gradientUnits="userSpaceOnUse">
<stop stop-color="#3445A1"/>
<stop offset="1" stop-color="#191E84"/>
</linearGradient>
<linearGradient id="paint53_linear_3200_1139" x1="456.516" y1="219.757" x2="442.37" y2="85.5824" gradientUnits="userSpaceOnUse">
<stop offset="0.03" stop-color="#83FFEA"/>
<stop offset="1" stop-color="#67DBFF"/>
</linearGradient>
<linearGradient id="paint54_linear_3200_1139" x1="373.612" y1="222.307" x2="418.479" y2="222.307" gradientUnits="userSpaceOnUse">
<stop offset="0.03" stop-color="#83FFEA"/>
<stop offset="1" stop-color="#67DBFF"/>
</linearGradient>
<linearGradient id="paint55_linear_3200_1139" x1="593.998" y1="234.269" x2="579.397" y2="95.6318" gradientUnits="userSpaceOnUse">
<stop offset="0.03" stop-color="#83FFEA"/>
<stop offset="1" stop-color="#67DBFF"/>
</linearGradient>
<linearGradient id="paint56_linear_3200_1139" x1="658.506" y1="244.195" x2="653.892" y2="200.603" gradientUnits="userSpaceOnUse">
<stop offset="0.03" stop-color="#83FFEA"/>
<stop offset="1" stop-color="#67DBFF"/>
</linearGradient>
<radialGradient id="paint57_radial_3200_1139" cx="0" cy="0" r="1" gradientUnits="userSpaceOnUse" gradientTransform="translate(541.174 173.644) rotate(157.57) scale(1.03818 1.03819)">
<stop stop-color="#00FFFF"/>
<stop offset="1"/>
</radialGradient>
<radialGradient id="paint58_radial_3200_1139" cx="0" cy="0" r="1" gradientUnits="userSpaceOnUse" gradientTransform="translate(555.69 139.93) rotate(157.57) scale(4.15269 4.15272)">
<stop stop-color="#00FFFF"/>
<stop offset="1"/>
</radialGradient>
<radialGradient id="paint59_radial_3200_1139" cx="0" cy="0" r="1" gradientUnits="userSpaceOnUse" gradientTransform="translate(557.853 200.159) rotate(157.57) scale(2.02173 2.02172)">
<stop stop-color="#00FFFF"/>
<stop offset="1"/>
</radialGradient>
<radialGradient id="paint60_radial_3200_1139" cx="0" cy="0" r="1" gradientUnits="userSpaceOnUse" gradientTransform="translate(549.957 143.574) rotate(-167.69) scale(2.34953 2.34957)">
<stop stop-color="#00FFFF"/>
<stop offset="1"/>
</radialGradient>
<radialGradient id="paint61_radial_3200_1139" cx="0" cy="0" r="1" gradientUnits="userSpaceOnUse" gradientTransform="translate(542.776 203.136) rotate(-167.69) scale(5.73733)">
<stop stop-color="#00FFFF"/>
<stop offset="0.37" stop-color="#00FDFD"/>
<stop offset="0.51" stop-color="#00F6F6"/>
<stop offset="0.6" stop-color="#00EAEA"/>
<stop offset="0.68" stop-color="#00D9D9"/>
<stop offset="0.75" stop-color="#00C3C3"/>
<stop offset="0.8" stop-color="#00A8A8"/>
<stop offset="0.86" stop-color="#008787"/>
<stop offset="0.91" stop-color="#006262"/>
<stop offset="0.95" stop-color="#003737"/>
<stop offset="0.99" stop-color="#000909"/>
<stop offset="1"/>
</radialGradient>
<radialGradient id="paint62_radial_3200_1139" cx="0" cy="0" r="1" gradientUnits="userSpaceOnUse" gradientTransform="translate(583.454 135.393) rotate(-167.69) scale(2.62277 2.62278)">
<stop stop-color="#00FFFF"/>
<stop offset="0.37" stop-color="#00FDFD"/>
<stop offset="0.51" stop-color="#00F6F6"/>
<stop offset="0.6" stop-color="#00EAEA"/>
<stop offset="0.68" stop-color="#00D9D9"/>
<stop offset="0.75" stop-color="#00C3C3"/>
<stop offset="0.8" stop-color="#00A8A8"/>
<stop offset="0.86" stop-color="#008787"/>
<stop offset="0.91" stop-color="#006262"/>
<stop offset="0.95" stop-color="#003737"/>
<stop offset="0.99" stop-color="#000909"/>
<stop offset="1"/>
</radialGradient>
<linearGradient id="paint63_linear_3200_1139" x1="436.36" y1="89.7727" x2="434.963" y2="76.6285" gradientUnits="userSpaceOnUse">
<stop offset="0.03" stop-color="#83FFEA"/>
<stop offset="1" stop-color="#67DBFF"/>
</linearGradient>
<linearGradient id="paint64_linear_3200_1139" x1="437.421" y1="177.927" x2="434.72" y2="152.276" gradientUnits="userSpaceOnUse">
<stop offset="0.03" stop-color="#83FFEA"/>
<stop offset="1" stop-color="#67DBFF"/>
</linearGradient>
<linearGradient id="paint65_linear_3200_1139" x1="695.081" y1="-295.498" x2="598.92" y2="-109.35" gradientUnits="userSpaceOnUse">
<stop stop-color="#5612A1"/>
<stop offset="1" stop-color="#9000B0"/>
</linearGradient>
<linearGradient id="paint66_linear_3200_1139" x1="492.312" y1="96.8899" x2="547.807" y2="23.2605" gradientUnits="userSpaceOnUse">
<stop stop-color="#4F0BC0"/>
<stop offset="1" stop-color="#B10CD9"/>
</linearGradient>
<linearGradient id="paint67_linear_3200_1139" x1="516.518" y1="50.6266" x2="517.109" y2="48.0276" gradientUnits="userSpaceOnUse">
<stop stop-color="#3445A1"/>
<stop offset="1" stop-color="#191E84"/>
</linearGradient>
<linearGradient id="paint68_linear_3200_1139" x1="694.273" y1="385.05" x2="790.448" y2="571.225" gradientUnits="userSpaceOnUse">
<stop stop-color="#5612A1"/>
<stop offset="1" stop-color="#9000B0"/>
</linearGradient>
<linearGradient id="paint69_linear_3200_1139" x1="552.194" y1="106.967" x2="520.259" y2="64.5934" gradientUnits="userSpaceOnUse">
<stop stop-color="#4F0BC0"/>
<stop offset="1" stop-color="#B10CD9"/>
</linearGradient>
<linearGradient id="paint70_linear_3200_1139" x1="538.653" y1="80.8876" x2="538.337" y2="79.5476" gradientUnits="userSpaceOnUse">
<stop stop-color="#3445A1"/>
<stop offset="1" stop-color="#191E84"/>
</linearGradient>
</defs>
</svg>
