<svg width="314" height="252" viewBox="0 0 314 252" fill="none" xmlns="http://www.w3.org/2000/svg">
<path d="M10.5653 60.47C5.87805 43.7359 19.2721 27.4426 36.5968 28.8037L287.586 48.5225C301.886 49.646 312.31 62.5457 310.406 76.7628L289.85 230.317C288.188 242.731 277.596 252 265.071 252H83.1732C71.963 252 62.1233 244.538 59.0997 233.743L10.5653 60.47Z" fill="white"/>
<path d="M162.744 83.959C162.744 84.7425 162.597 85.4175 162.305 85.9839C162.021 86.5503 161.639 87.0317 161.158 87.4282C160.676 87.8247 160.119 88.1504 159.487 88.4053C158.864 88.6507 158.212 88.8442 157.533 88.9858C156.853 89.1274 156.169 89.2218 155.479 89.269C154.8 89.3162 154.163 89.3398 153.568 89.3398C152.983 89.3398 152.374 89.3162 151.741 89.269C151.118 89.2313 150.495 89.1605 149.872 89.0566C149.249 88.9528 148.635 88.8159 148.031 88.646C147.427 88.4666 146.856 88.2448 146.318 87.9805L146.29 69.7422C146.818 69.5251 147.38 69.3315 147.975 69.1616C148.569 68.9823 149.174 68.8359 149.787 68.7227C150.41 68.5999 151.028 68.5103 151.642 68.4536C152.256 68.3875 152.85 68.3545 153.426 68.3545C154.097 68.3545 154.771 68.397 155.451 68.4819C156.14 68.5669 156.801 68.7085 157.434 68.9067C158.066 69.105 158.656 69.3646 159.204 69.6855C159.751 69.9971 160.228 70.3841 160.634 70.8467C161.049 71.3092 161.37 71.8473 161.597 72.4609C161.833 73.0745 161.951 73.7826 161.951 74.585C161.951 75.1136 161.875 75.6092 161.724 76.0718C161.573 76.5343 161.356 76.9497 161.073 77.3179C160.79 77.686 160.445 78.0023 160.039 78.2666C159.633 78.5215 159.175 78.7103 158.666 78.833C159.279 78.9935 159.836 79.2295 160.336 79.541C160.846 79.8525 161.276 80.2301 161.625 80.6738C161.984 81.1175 162.257 81.6178 162.446 82.1748C162.645 82.7318 162.744 83.3265 162.744 83.959ZM155.55 75.8877C155.55 75.6139 155.494 75.3826 155.38 75.1938C155.267 74.9956 155.125 74.8351 154.956 74.7124C154.795 74.5897 154.616 74.5 154.417 74.4434C154.229 74.3867 154.059 74.3584 153.908 74.3584C153.719 74.3584 153.535 74.3867 153.355 74.4434C153.176 74.5 153.001 74.5661 152.832 74.6416L152.747 77.7852C152.964 77.7852 153.233 77.7663 153.554 77.7285C153.875 77.6908 154.181 77.6105 154.474 77.4878C154.776 77.3556 155.031 77.1668 155.239 76.9214C155.446 76.6665 155.55 76.3219 155.55 75.8877ZM153.54 80.5039C153.266 80.5039 153.001 80.5322 152.747 80.5889L152.69 83.8174C152.832 83.8457 152.968 83.874 153.101 83.9023C153.242 83.9212 153.379 83.9307 153.511 83.9307C153.709 83.9307 153.927 83.9118 154.163 83.874C154.399 83.8268 154.62 83.7419 154.828 83.6191C155.036 83.487 155.206 83.3123 155.338 83.0952C155.479 82.8781 155.55 82.5902 155.55 82.2314C155.55 81.8727 155.479 81.5801 155.338 81.3535C155.206 81.127 155.041 80.9523 154.842 80.8296C154.644 80.6974 154.427 80.6125 154.191 80.5747C153.955 80.5275 153.738 80.5039 153.54 80.5039ZM175.955 80.9287L175.36 87.2158L163.438 88.1504C163.494 84.8558 163.556 81.5801 163.622 78.3232C163.697 75.0664 163.787 71.7907 163.891 68.4961H171.254C171.037 70.5635 170.829 72.6309 170.631 74.6982C170.433 76.7562 170.291 78.833 170.206 80.9287C170.65 80.9476 171.089 80.957 171.523 80.957C171.957 80.957 172.396 80.957 172.84 80.957C173.368 80.957 173.888 80.9523 174.397 80.9429C174.907 80.9334 175.426 80.9287 175.955 80.9287ZM193.556 73.2539C193.556 73.9525 193.523 74.7218 193.457 75.562C193.391 76.4022 193.282 77.2707 193.131 78.1675C192.98 79.0643 192.782 79.9753 192.537 80.9004C192.301 81.8161 192.003 82.6987 191.645 83.5483C191.286 84.3979 190.866 85.1956 190.384 85.9414C189.912 86.6777 189.365 87.3244 188.742 87.8813C188.128 88.4289 187.439 88.8584 186.674 89.1699C185.91 89.4909 185.06 89.6514 184.125 89.6514C183.03 89.6514 182.077 89.472 181.265 89.1133C180.463 88.764 179.774 88.292 179.198 87.6973C178.622 87.0931 178.15 86.3945 177.782 85.6016C177.414 84.7992 177.126 83.9543 176.918 83.0669C176.71 82.1701 176.564 81.2591 176.479 80.334C176.403 79.3994 176.366 78.5026 176.366 77.6436C176.366 76.3219 176.432 75.005 176.564 73.6929C176.696 72.3713 176.885 71.0544 177.13 69.7422L183.757 69.9971C183.502 71.4792 183.281 72.9707 183.092 74.4717C182.912 75.9632 182.823 77.4642 182.823 78.9746C182.823 79.1351 182.827 79.3758 182.837 79.6968C182.856 80.0083 182.884 80.3623 182.922 80.7588C182.96 81.1458 183.012 81.547 183.078 81.9624C183.153 82.3683 183.252 82.7412 183.375 83.0811C183.498 83.4209 183.644 83.6994 183.814 83.9165C183.993 84.1336 184.201 84.2422 184.437 84.2422C184.711 84.2422 184.956 84.1147 185.173 83.8599C185.39 83.5955 185.579 83.2463 185.74 82.812C185.91 82.3778 186.056 81.8774 186.179 81.311C186.301 80.7446 186.405 80.1546 186.49 79.541C186.575 78.9274 186.641 78.3138 186.688 77.7002C186.745 77.0866 186.788 76.5155 186.816 75.9868C186.854 75.4582 186.877 74.9909 186.887 74.585C186.896 74.179 186.901 73.877 186.901 73.6787C186.901 72.9424 186.887 72.2108 186.858 71.4839C186.84 70.7476 186.806 70.016 186.759 69.2891H193.386C193.5 70.5918 193.556 71.9134 193.556 73.2539ZM208.099 68.5811C208.042 69.4684 207.99 70.3464 207.943 71.2148C207.896 72.0833 207.834 72.9613 207.759 73.8486L201.755 74.1602L201.613 75.9443H205.833L205.521 80.334L201.273 80.4756L201.132 82.543H204.644H207.136C207.079 83.5814 207.018 84.6151 206.952 85.644C206.895 86.6636 206.843 87.6878 206.796 88.7168L194.59 89L195.043 68.5811H208.099ZM230.755 75.3779C230.755 76.2936 230.618 77.1055 230.344 77.8135C230.07 78.5215 229.693 79.1398 229.211 79.6685C228.739 80.1971 228.182 80.6455 227.541 81.0137C226.899 81.3818 226.209 81.6839 225.473 81.9199C224.746 82.1465 223.991 82.3164 223.208 82.4297C222.424 82.5335 221.655 82.5902 220.899 82.5996V89.1982H214.301C214.301 87.0365 214.306 84.8841 214.315 82.7412C214.324 80.5983 214.339 78.4365 214.357 76.2559C214.376 75.1042 214.381 73.9525 214.372 72.8008C214.362 71.6491 214.386 70.488 214.442 69.3174C215.651 68.9587 216.859 68.6896 218.067 68.5103C219.276 68.3309 220.522 68.2412 221.806 68.2412C222.533 68.2412 223.259 68.3026 223.986 68.4253C224.713 68.5386 225.407 68.7227 226.068 68.9775C226.738 69.2324 227.356 69.5534 227.923 69.9404C228.499 70.318 228.994 70.7712 229.41 71.2998C229.825 71.8285 230.151 72.4326 230.387 73.1123C230.632 73.7826 230.755 74.5378 230.755 75.3779ZM224.468 75.8594C224.468 75.2458 224.279 74.769 223.901 74.4292C223.533 74.0799 223.052 73.9053 222.457 73.9053C222.259 73.9053 222.051 73.9242 221.834 73.9619C221.626 73.9902 221.428 74.028 221.239 74.0752L221.069 78.21C221.201 78.2288 221.329 78.2383 221.452 78.2383C221.574 78.2383 221.702 78.2383 221.834 78.2383C222.174 78.2383 222.5 78.1816 222.811 78.0684C223.132 77.9551 223.415 77.7946 223.661 77.5869C223.906 77.3698 224.1 77.1196 224.241 76.8364C224.392 76.5438 224.468 76.2181 224.468 75.8594ZM249.036 79.0029C249.036 79.862 248.937 80.6927 248.738 81.4951C248.54 82.2881 248.252 83.0339 247.875 83.7324C247.506 84.431 247.053 85.0729 246.515 85.6582C245.986 86.234 245.387 86.7297 244.717 87.145C244.056 87.5604 243.334 87.8861 242.55 88.1221C241.767 88.3486 240.936 88.4619 240.058 88.4619C239.208 88.4619 238.397 88.3534 237.623 88.1362C236.858 87.9191 236.14 87.617 235.47 87.23C234.8 86.8335 234.191 86.3615 233.644 85.814C233.105 85.257 232.643 84.6434 232.256 83.9731C231.878 83.2935 231.581 82.5666 231.364 81.7925C231.156 81.0184 231.052 80.2113 231.052 79.3711C231.052 78.5498 231.151 77.7474 231.35 76.9639C231.548 76.1709 231.831 75.4251 232.199 74.7266C232.577 74.028 233.03 73.3861 233.559 72.8008C234.087 72.2155 234.677 71.7104 235.329 71.2856C235.989 70.8608 236.702 70.5304 237.467 70.2944C238.231 70.0584 239.039 69.9404 239.888 69.9404C241.257 69.9404 242.503 70.1528 243.626 70.5776C244.759 71.0024 245.722 71.6113 246.515 72.4043C247.318 73.1878 247.936 74.1413 248.37 75.2646C248.814 76.3786 249.036 77.6247 249.036 79.0029ZM242.749 79.3711C242.749 78.9652 242.687 78.5734 242.564 78.1958C242.451 77.8088 242.281 77.4689 242.055 77.1763C241.828 76.8742 241.545 76.6335 241.205 76.4541C240.875 76.2653 240.492 76.1709 240.058 76.1709C239.614 76.1709 239.218 76.2511 238.869 76.4116C238.519 76.5721 238.217 76.7939 237.962 77.0771C237.717 77.3509 237.528 77.6766 237.396 78.0542C237.264 78.4224 237.198 78.8141 237.198 79.2295C237.198 79.626 237.254 80.0225 237.368 80.4189C237.481 80.8154 237.651 81.1742 237.877 81.4951C238.104 81.8161 238.382 82.0757 238.713 82.2739C239.053 82.4722 239.444 82.5713 239.888 82.5713C240.332 82.5713 240.728 82.4863 241.078 82.3164C241.436 82.137 241.738 81.901 241.984 81.6084C242.229 81.3063 242.418 80.9618 242.55 80.5747C242.682 80.1877 242.749 79.7865 242.749 79.3711ZM267.529 79.0029C267.529 79.862 267.43 80.6927 267.231 81.4951C267.033 82.2881 266.745 83.0339 266.368 83.7324C266 84.431 265.546 85.0729 265.008 85.6582C264.48 86.234 263.88 86.7297 263.21 87.145C262.549 87.5604 261.827 87.8861 261.043 88.1221C260.26 88.3486 259.429 88.4619 258.551 88.4619C257.702 88.4619 256.89 88.3534 256.116 88.1362C255.351 87.9191 254.634 87.617 253.963 87.23C253.293 86.8335 252.684 86.3615 252.137 85.814C251.599 85.257 251.136 84.6434 250.749 83.9731C250.371 83.2935 250.074 82.5666 249.857 81.7925C249.649 81.0184 249.545 80.2113 249.545 79.3711C249.545 78.5498 249.645 77.7474 249.843 76.9639C250.041 76.1709 250.324 75.4251 250.692 74.7266C251.07 74.028 251.523 73.3861 252.052 72.8008C252.58 72.2155 253.17 71.7104 253.822 71.2856C254.483 70.8608 255.195 70.5304 255.96 70.2944C256.725 70.0584 257.532 69.9404 258.381 69.9404C259.75 69.9404 260.996 70.1528 262.12 70.5776C263.252 71.0024 264.215 71.6113 265.008 72.4043C265.811 73.1878 266.429 74.1413 266.863 75.2646C267.307 76.3786 267.529 77.6247 267.529 79.0029ZM261.242 79.3711C261.242 78.9652 261.18 78.5734 261.058 78.1958C260.944 77.8088 260.774 77.4689 260.548 77.1763C260.321 76.8742 260.038 76.6335 259.698 76.4541C259.368 76.2653 258.986 76.1709 258.551 76.1709C258.108 76.1709 257.711 76.2511 257.362 76.4116C257.013 76.5721 256.71 76.7939 256.456 77.0771C256.21 77.3509 256.021 77.6766 255.889 78.0542C255.757 78.4224 255.691 78.8141 255.691 79.2295C255.691 79.626 255.748 80.0225 255.861 80.4189C255.974 80.8154 256.144 81.1742 256.371 81.4951C256.597 81.8161 256.876 82.0757 257.206 82.2739C257.546 82.4722 257.938 82.5713 258.381 82.5713C258.825 82.5713 259.222 82.4863 259.571 82.3164C259.93 82.137 260.232 81.901 260.477 81.6084C260.722 81.3063 260.911 80.9618 261.043 80.5747C261.176 80.1877 261.242 79.7865 261.242 79.3711ZM280.967 80.9287L280.372 87.2158L268.449 88.1504C268.506 84.8558 268.567 81.5801 268.633 78.3232C268.709 75.0664 268.799 71.7907 268.902 68.4961H276.266C276.049 70.5635 275.841 72.6309 275.643 74.6982C275.444 76.7562 275.303 78.833 275.218 80.9287C275.661 80.9476 276.1 80.957 276.535 80.957C276.969 80.957 277.408 80.957 277.852 80.957C278.38 80.957 278.899 80.9523 279.409 80.9429C279.919 80.9334 280.438 80.9287 280.967 80.9287ZM248.767 98.0908L247.974 104.066C247.7 103.991 247.426 103.939 247.152 103.911C246.879 103.882 246.605 103.868 246.331 103.868C245.632 103.868 244.967 103.963 244.334 104.151C243.702 104.331 243.14 104.609 242.649 104.987C242.168 105.364 241.781 105.836 241.488 106.403C241.205 106.969 241.063 107.635 241.063 108.399C241.063 108.89 241.139 109.315 241.29 109.674C241.451 110.033 241.672 110.33 241.956 110.566C242.239 110.802 242.574 110.977 242.961 111.09C243.348 111.203 243.773 111.26 244.235 111.26C244.585 111.26 244.948 111.222 245.326 111.146C245.703 111.071 246.076 110.972 246.444 110.849C246.812 110.726 247.171 110.585 247.521 110.424C247.87 110.264 248.191 110.099 248.483 109.929L247.917 116.584C247.549 116.773 247.148 116.943 246.713 117.094C246.289 117.235 245.85 117.363 245.396 117.476C244.943 117.58 244.49 117.66 244.037 117.717C243.584 117.773 243.15 117.802 242.734 117.802C241.535 117.802 240.417 117.58 239.378 117.136C238.34 116.693 237.438 116.084 236.674 115.31C235.909 114.535 235.305 113.625 234.861 112.577C234.427 111.519 234.21 110.382 234.21 109.164C234.21 107.55 234.441 106.03 234.904 104.604C235.366 103.17 236.046 101.914 236.943 100.838C237.84 99.7617 238.949 98.9121 240.271 98.2891C241.602 97.666 243.131 97.3545 244.858 97.3545C245.51 97.3545 246.175 97.4064 246.855 97.5103C247.544 97.6141 248.181 97.8076 248.767 98.0908ZM266.594 102.254C266.594 102.952 266.561 103.722 266.495 104.562C266.429 105.402 266.32 106.271 266.169 107.167C266.018 108.064 265.82 108.975 265.575 109.9C265.339 110.816 265.041 111.699 264.683 112.548C264.324 113.398 263.904 114.196 263.422 114.941C262.95 115.678 262.403 116.324 261.78 116.881C261.166 117.429 260.477 117.858 259.712 118.17C258.948 118.491 258.098 118.651 257.164 118.651C256.069 118.651 255.115 118.472 254.303 118.113C253.501 117.764 252.812 117.292 252.236 116.697C251.66 116.093 251.188 115.395 250.82 114.602C250.452 113.799 250.164 112.954 249.956 112.067C249.748 111.17 249.602 110.259 249.517 109.334C249.442 108.399 249.404 107.503 249.404 106.644C249.404 105.322 249.47 104.005 249.602 102.693C249.734 101.371 249.923 100.054 250.168 98.7422L256.795 98.9971C256.541 100.479 256.319 101.971 256.13 103.472C255.951 104.963 255.861 106.464 255.861 107.975C255.861 108.135 255.866 108.376 255.875 108.697C255.894 109.008 255.922 109.362 255.96 109.759C255.998 110.146 256.05 110.547 256.116 110.962C256.191 111.368 256.29 111.741 256.413 112.081C256.536 112.421 256.682 112.699 256.852 112.917C257.031 113.134 257.239 113.242 257.475 113.242C257.749 113.242 257.994 113.115 258.211 112.86C258.429 112.596 258.617 112.246 258.778 111.812C258.948 111.378 259.094 110.877 259.217 110.311C259.34 109.745 259.443 109.155 259.528 108.541C259.613 107.927 259.679 107.314 259.727 106.7C259.783 106.087 259.826 105.515 259.854 104.987C259.892 104.458 259.915 103.991 259.925 103.585C259.934 103.179 259.939 102.877 259.939 102.679C259.939 101.942 259.925 101.211 259.896 100.484C259.878 99.7476 259.845 99.016 259.797 98.2891H266.424C266.538 99.5918 266.594 100.913 266.594 102.254ZM281.137 97.5811C281.08 98.4684 281.028 99.3464 280.981 100.215C280.934 101.083 280.872 101.961 280.797 102.849L274.793 103.16L274.651 104.944H278.871L278.56 109.334L274.312 109.476L274.17 111.543H277.682H280.174C280.117 112.581 280.056 113.615 279.99 114.644C279.933 115.664 279.881 116.688 279.834 117.717L267.628 118L268.081 97.5811H281.137Z" fill="black"/>
<rect width="188.532" height="8.02264" rx="4.01132" transform="matrix(0.255041 -0.96693 -0.96693 -0.255041 27.8662 189.245)" fill="#A5BDA3"/>
<rect width="12.034" height="8.02264" rx="4.01132" transform="matrix(0.255041 -0.96693 -0.96693 -0.255041 73.9053 14.7051)" fill="#300FB4"/>
<rect width="76.2151" height="16.0453" rx="8.02264" transform="matrix(0.255041 -0.96693 -0.96693 -0.255041 17.4248 244.569)" fill="#0026EB"/>
</svg>
