<svg width="314" height="249" viewBox="0 0 314 249" fill="none" xmlns="http://www.w3.org/2000/svg">
<path d="M10.5653 57.1536C5.87805 40.4195 19.2721 24.1262 36.5968 25.4873L287.586 45.2061C301.886 46.3296 312.31 59.2293 310.406 73.4464L289.85 227.001C288.188 239.415 277.596 248.684 265.071 248.684H83.1732C71.963 248.684 62.1233 241.221 59.0997 230.427L10.5653 57.1536Z" fill="white"/>
<path d="M125.842 80.6426C125.842 81.4261 125.696 82.1011 125.403 82.6675C125.12 83.2339 124.738 83.7153 124.256 84.1118C123.775 84.5083 123.218 84.834 122.585 85.0889C121.962 85.3343 121.311 85.5278 120.631 85.6694C119.952 85.811 119.267 85.9054 118.578 85.9526C117.898 85.9998 117.261 86.0234 116.667 86.0234C116.081 86.0234 115.472 85.9998 114.84 85.9526C114.217 85.9149 113.594 85.8441 112.971 85.7402C112.348 85.6364 111.734 85.4995 111.13 85.3296C110.526 85.1502 109.955 84.9284 109.417 84.6641L109.388 66.4258C109.917 66.2087 110.479 66.0151 111.073 65.8452C111.668 65.6659 112.272 65.5195 112.886 65.4062C113.509 65.2835 114.127 65.1938 114.741 65.1372C115.354 65.0711 115.949 65.0381 116.525 65.0381C117.195 65.0381 117.87 65.0806 118.55 65.1655C119.239 65.2505 119.9 65.3921 120.532 65.5903C121.165 65.7886 121.755 66.0482 122.302 66.3691C122.85 66.6807 123.326 67.0677 123.732 67.5303C124.148 67.9928 124.469 68.5309 124.695 69.1445C124.931 69.7581 125.049 70.4661 125.049 71.2686C125.049 71.7972 124.974 72.2928 124.823 72.7554C124.672 73.2179 124.455 73.6333 124.171 74.0015C123.888 74.3696 123.544 74.6859 123.138 74.9502C122.732 75.2051 122.274 75.3939 121.764 75.5166C122.378 75.6771 122.935 75.9131 123.435 76.2246C123.945 76.5361 124.374 76.9137 124.724 77.3574C125.082 77.8011 125.356 78.3014 125.545 78.8584C125.743 79.4154 125.842 80.0101 125.842 80.6426ZM118.649 72.5713C118.649 72.2975 118.592 72.0662 118.479 71.8774C118.366 71.6792 118.224 71.5187 118.054 71.396C117.894 71.2733 117.714 71.1836 117.516 71.127C117.327 71.0703 117.157 71.042 117.006 71.042C116.818 71.042 116.633 71.0703 116.454 71.127C116.275 71.1836 116.1 71.2497 115.93 71.3252L115.845 74.4688C116.062 74.4688 116.331 74.4499 116.652 74.4121C116.973 74.3743 117.28 74.2941 117.573 74.1714C117.875 74.0392 118.13 73.8504 118.337 73.605C118.545 73.3501 118.649 73.0055 118.649 72.5713ZM116.638 77.1875C116.364 77.1875 116.1 77.2158 115.845 77.2725L115.789 80.501C115.93 80.5293 116.067 80.5576 116.199 80.5859C116.341 80.6048 116.478 80.6143 116.61 80.6143C116.808 80.6143 117.025 80.5954 117.261 80.5576C117.497 80.5104 117.719 80.4255 117.927 80.3027C118.134 80.1706 118.304 79.9959 118.437 79.7788C118.578 79.5617 118.649 79.2738 118.649 78.915C118.649 78.5563 118.578 78.2637 118.437 78.0371C118.304 77.8105 118.139 77.6359 117.941 77.5132C117.743 77.381 117.526 77.2961 117.29 77.2583C117.054 77.2111 116.836 77.1875 116.638 77.1875ZM143.203 72.0332C143.203 72.7695 143.137 73.4398 143.004 74.0439C142.882 74.6387 142.683 75.1862 142.41 75.6865C142.136 76.1868 141.782 76.6494 141.348 77.0742C140.913 77.499 140.389 77.9049 139.776 78.292L143.146 84.2959L136.774 85.542L134.593 79.5098L132.837 79.5664L132.583 85.457H126.494C126.541 83.3047 126.583 81.1618 126.621 79.0283C126.668 76.8949 126.72 74.752 126.777 72.5996C126.796 71.514 126.815 70.4378 126.833 69.3711C126.852 68.3044 126.89 67.2282 126.947 66.1426C127.608 65.8971 128.259 65.6942 128.901 65.5337C129.543 65.3732 130.185 65.2505 130.827 65.1655C131.478 65.0711 132.134 65.0098 132.795 64.9814C133.465 64.9437 134.15 64.9248 134.848 64.9248C135.924 64.9248 136.963 65.0758 137.963 65.3779C138.973 65.6706 139.866 66.1143 140.64 66.709C141.414 67.3037 142.032 68.0448 142.495 68.9321C142.967 69.8195 143.203 70.8532 143.203 72.0332ZM136.859 72.4863C136.859 72.0898 136.802 71.7264 136.689 71.396C136.585 71.0656 136.425 70.7824 136.208 70.5464C136 70.3009 135.736 70.1121 135.415 69.98C135.103 69.8384 134.735 69.7676 134.31 69.7676C134.121 69.7676 133.937 69.7817 133.758 69.8101C133.578 69.8289 133.404 69.862 133.234 69.9092L133.007 75.1768H133.347C133.753 75.1768 134.164 75.1248 134.579 75.021C135.004 74.9172 135.382 74.7567 135.712 74.5396C136.052 74.3224 136.326 74.0439 136.533 73.7041C136.75 73.3643 136.859 72.9583 136.859 72.4863ZM161.498 75.6865C161.498 76.5456 161.398 77.3763 161.2 78.1787C161.002 78.9717 160.714 79.7174 160.336 80.416C159.968 81.1146 159.515 81.7565 158.977 82.3418C158.448 82.9176 157.849 83.4132 157.179 83.8286C156.518 84.244 155.796 84.5697 155.012 84.8057C154.229 85.0322 153.398 85.1455 152.52 85.1455C151.67 85.1455 150.859 85.0369 150.084 84.8198C149.32 84.6027 148.602 84.3006 147.932 83.9136C147.262 83.5171 146.653 83.0451 146.105 82.4976C145.567 81.9406 145.105 81.327 144.718 80.6567C144.34 79.9771 144.043 79.2502 143.826 78.4761C143.618 77.702 143.514 76.8949 143.514 76.0547C143.514 75.2334 143.613 74.431 143.812 73.6475C144.01 72.8545 144.293 72.1087 144.661 71.4102C145.039 70.7116 145.492 70.0697 146.021 69.4844C146.549 68.8991 147.139 68.394 147.791 67.9692C148.451 67.5444 149.164 67.214 149.929 66.978C150.693 66.742 151.5 66.624 152.35 66.624C153.719 66.624 154.965 66.8364 156.088 67.2612C157.221 67.686 158.184 68.2949 158.977 69.0879C159.779 69.8714 160.398 70.8249 160.832 71.9482C161.276 73.0622 161.498 74.3083 161.498 75.6865ZM155.21 76.0547C155.21 75.6488 155.149 75.257 155.026 74.8794C154.913 74.4924 154.743 74.1525 154.517 73.8599C154.29 73.5578 154.007 73.3171 153.667 73.1377C153.337 72.9489 152.954 72.8545 152.52 72.8545C152.076 72.8545 151.68 72.9347 151.331 73.0952C150.981 73.2557 150.679 73.4775 150.424 73.7607C150.179 74.0345 149.99 74.3602 149.858 74.7378C149.726 75.106 149.66 75.4977 149.66 75.9131C149.66 76.3096 149.716 76.7061 149.83 77.1025C149.943 77.499 150.113 77.8577 150.339 78.1787C150.566 78.4997 150.844 78.7593 151.175 78.9575C151.515 79.1558 151.906 79.2549 152.35 79.2549C152.794 79.2549 153.19 79.1699 153.54 79C153.898 78.8206 154.2 78.5846 154.446 78.292C154.691 77.9899 154.88 77.6453 155.012 77.2583C155.144 76.8713 155.21 76.4701 155.21 76.0547ZM187.524 66.0293L184.21 85.6553L176.167 85.8252L174.44 75.6582L172.712 85.0889L164.669 85.3721L161.328 66.0293L168.351 65.4062L169.767 77.1592L171.665 65.4062H177.187L179.396 77.3008L180.529 65.4062L187.524 66.0293ZM207.433 65.3779L206.414 84.5791L198.994 85.2588L195.029 74.9785L194.406 85.457H188.034L188.543 65.3779L195.624 65.0381L200.523 75.2334L200.75 65.6045L207.433 65.3779ZM230.755 72.0615C230.755 72.9772 230.618 73.7891 230.344 74.4971C230.07 75.2051 229.693 75.8234 229.211 76.3521C228.739 76.8807 228.182 77.3291 227.541 77.6973C226.899 78.0654 226.209 78.3675 225.473 78.6035C224.746 78.8301 223.991 79 223.208 79.1133C222.424 79.2171 221.655 79.2738 220.899 79.2832V85.8818H214.301C214.301 83.7201 214.306 81.5677 214.315 79.4248C214.324 77.2819 214.339 75.1201 214.357 72.9395C214.376 71.7878 214.381 70.6361 214.372 69.4844C214.362 68.3327 214.386 67.1715 214.442 66.001C215.651 65.6423 216.859 65.3732 218.067 65.1938C219.276 65.0145 220.522 64.9248 221.806 64.9248C222.533 64.9248 223.259 64.9862 223.986 65.1089C224.713 65.2222 225.407 65.4062 226.068 65.6611C226.738 65.916 227.356 66.237 227.923 66.624C228.499 67.0016 228.994 67.4548 229.41 67.9834C229.825 68.512 230.151 69.1162 230.387 69.7959C230.632 70.4661 230.755 71.2214 230.755 72.0615ZM224.468 72.543C224.468 71.9294 224.279 71.4526 223.901 71.1128C223.533 70.7635 223.052 70.5889 222.457 70.5889C222.259 70.5889 222.051 70.6077 221.834 70.6455C221.626 70.6738 221.428 70.7116 221.239 70.7588L221.069 74.8936C221.201 74.9124 221.329 74.9219 221.452 74.9219C221.574 74.9219 221.702 74.9219 221.834 74.9219C222.174 74.9219 222.5 74.8652 222.811 74.752C223.132 74.6387 223.415 74.4782 223.661 74.2705C223.906 74.0534 224.1 73.8032 224.241 73.52C224.392 73.2274 224.468 72.9017 224.468 72.543ZM249.036 75.6865C249.036 76.5456 248.937 77.3763 248.738 78.1787C248.54 78.9717 248.252 79.7174 247.875 80.416C247.506 81.1146 247.053 81.7565 246.515 82.3418C245.986 82.9176 245.387 83.4132 244.717 83.8286C244.056 84.244 243.334 84.5697 242.55 84.8057C241.767 85.0322 240.936 85.1455 240.058 85.1455C239.208 85.1455 238.397 85.0369 237.623 84.8198C236.858 84.6027 236.14 84.3006 235.47 83.9136C234.8 83.5171 234.191 83.0451 233.644 82.4976C233.105 81.9406 232.643 81.327 232.256 80.6567C231.878 79.9771 231.581 79.2502 231.364 78.4761C231.156 77.702 231.052 76.8949 231.052 76.0547C231.052 75.2334 231.151 74.431 231.35 73.6475C231.548 72.8545 231.831 72.1087 232.199 71.4102C232.577 70.7116 233.03 70.0697 233.559 69.4844C234.087 68.8991 234.677 68.394 235.329 67.9692C235.989 67.5444 236.702 67.214 237.467 66.978C238.231 66.742 239.039 66.624 239.888 66.624C241.257 66.624 242.503 66.8364 243.626 67.2612C244.759 67.686 245.722 68.2949 246.515 69.0879C247.318 69.8714 247.936 70.8249 248.37 71.9482C248.814 73.0622 249.036 74.3083 249.036 75.6865ZM242.749 76.0547C242.749 75.6488 242.687 75.257 242.564 74.8794C242.451 74.4924 242.281 74.1525 242.055 73.8599C241.828 73.5578 241.545 73.3171 241.205 73.1377C240.875 72.9489 240.492 72.8545 240.058 72.8545C239.614 72.8545 239.218 72.9347 238.869 73.0952C238.519 73.2557 238.217 73.4775 237.962 73.7607C237.717 74.0345 237.528 74.3602 237.396 74.7378C237.264 75.106 237.198 75.4977 237.198 75.9131C237.198 76.3096 237.254 76.7061 237.368 77.1025C237.481 77.499 237.651 77.8577 237.877 78.1787C238.104 78.4997 238.382 78.7593 238.713 78.9575C239.053 79.1558 239.444 79.2549 239.888 79.2549C240.332 79.2549 240.728 79.1699 241.078 79C241.436 78.8206 241.738 78.5846 241.984 78.292C242.229 77.9899 242.418 77.6453 242.55 77.2583C242.682 76.8713 242.749 76.4701 242.749 76.0547ZM267.529 75.6865C267.529 76.5456 267.43 77.3763 267.231 78.1787C267.033 78.9717 266.745 79.7174 266.368 80.416C266 81.1146 265.546 81.7565 265.008 82.3418C264.48 82.9176 263.88 83.4132 263.21 83.8286C262.549 84.244 261.827 84.5697 261.043 84.8057C260.26 85.0322 259.429 85.1455 258.551 85.1455C257.702 85.1455 256.89 85.0369 256.116 84.8198C255.351 84.6027 254.634 84.3006 253.963 83.9136C253.293 83.5171 252.684 83.0451 252.137 82.4976C251.599 81.9406 251.136 81.327 250.749 80.6567C250.371 79.9771 250.074 79.2502 249.857 78.4761C249.649 77.702 249.545 76.8949 249.545 76.0547C249.545 75.2334 249.645 74.431 249.843 73.6475C250.041 72.8545 250.324 72.1087 250.692 71.4102C251.07 70.7116 251.523 70.0697 252.052 69.4844C252.58 68.8991 253.17 68.394 253.822 67.9692C254.483 67.5444 255.195 67.214 255.96 66.978C256.725 66.742 257.532 66.624 258.381 66.624C259.75 66.624 260.996 66.8364 262.12 67.2612C263.252 67.686 264.215 68.2949 265.008 69.0879C265.811 69.8714 266.429 70.8249 266.863 71.9482C267.307 73.0622 267.529 74.3083 267.529 75.6865ZM261.242 76.0547C261.242 75.6488 261.18 75.257 261.058 74.8794C260.944 74.4924 260.774 74.1525 260.548 73.8599C260.321 73.5578 260.038 73.3171 259.698 73.1377C259.368 72.9489 258.986 72.8545 258.551 72.8545C258.108 72.8545 257.711 72.9347 257.362 73.0952C257.013 73.2557 256.71 73.4775 256.456 73.7607C256.21 74.0345 256.021 74.3602 255.889 74.7378C255.757 75.106 255.691 75.4977 255.691 75.9131C255.691 76.3096 255.748 76.7061 255.861 77.1025C255.974 77.499 256.144 77.8577 256.371 78.1787C256.597 78.4997 256.876 78.7593 257.206 78.9575C257.546 79.1558 257.938 79.2549 258.381 79.2549C258.825 79.2549 259.222 79.1699 259.571 79C259.93 78.8206 260.232 78.5846 260.477 78.292C260.722 77.9899 260.911 77.6453 261.043 77.2583C261.176 76.8713 261.242 76.4701 261.242 76.0547ZM280.967 77.6123L280.372 83.8994L268.449 84.834C268.506 81.5394 268.567 78.2637 268.633 75.0068C268.709 71.75 268.799 68.4743 268.902 65.1797H276.266C276.049 67.2471 275.841 69.3145 275.643 71.3818C275.444 73.4398 275.303 75.5166 275.218 77.6123C275.661 77.6312 276.1 77.6406 276.535 77.6406C276.969 77.6406 277.408 77.6406 277.852 77.6406C278.38 77.6406 278.899 77.6359 279.409 77.6265C279.919 77.617 280.438 77.6123 280.967 77.6123ZM248.767 94.7744L247.974 100.75C247.7 100.674 247.426 100.623 247.152 100.594C246.879 100.566 246.605 100.552 246.331 100.552C245.632 100.552 244.967 100.646 244.334 100.835C243.702 101.014 243.14 101.293 242.649 101.67C242.168 102.048 241.781 102.52 241.488 103.086C241.205 103.653 241.063 104.318 241.063 105.083C241.063 105.574 241.139 105.999 241.29 106.357C241.451 106.716 241.672 107.014 241.956 107.25C242.239 107.486 242.574 107.66 242.961 107.773C243.348 107.887 243.773 107.943 244.235 107.943C244.585 107.943 244.948 107.906 245.326 107.83C245.703 107.755 246.076 107.655 246.444 107.533C246.812 107.41 247.171 107.268 247.521 107.108C247.87 106.947 248.191 106.782 248.483 106.612L247.917 113.268C247.549 113.456 247.148 113.626 246.713 113.777C246.289 113.919 245.85 114.046 245.396 114.16C244.943 114.264 244.49 114.344 244.037 114.4C243.584 114.457 243.15 114.485 242.734 114.485C241.535 114.485 240.417 114.264 239.378 113.82C238.34 113.376 237.438 112.767 236.674 111.993C235.909 111.219 235.305 110.308 234.861 109.26C234.427 108.203 234.21 107.065 234.21 105.848C234.21 104.233 234.441 102.714 234.904 101.288C235.366 99.8532 236.046 98.5977 236.943 97.5215C237.84 96.4453 238.949 95.5957 240.271 94.9727C241.602 94.3496 243.131 94.0381 244.858 94.0381C245.51 94.0381 246.175 94.09 246.855 94.1938C247.544 94.2977 248.181 94.4912 248.767 94.7744ZM266.594 98.9375C266.594 99.6361 266.561 100.405 266.495 101.246C266.429 102.086 266.32 102.954 266.169 103.851C266.018 104.748 265.82 105.659 265.575 106.584C265.339 107.5 265.041 108.382 264.683 109.232C264.324 110.082 263.904 110.879 263.422 111.625C262.95 112.361 262.403 113.008 261.78 113.565C261.166 114.112 260.477 114.542 259.712 114.854C258.948 115.174 258.098 115.335 257.164 115.335C256.069 115.335 255.115 115.156 254.303 114.797C253.501 114.448 252.812 113.976 252.236 113.381C251.66 112.777 251.188 112.078 250.82 111.285C250.452 110.483 250.164 109.638 249.956 108.75C249.748 107.854 249.602 106.943 249.517 106.018C249.442 105.083 249.404 104.186 249.404 103.327C249.404 102.006 249.47 100.689 249.602 99.3765C249.734 98.0549 249.923 96.738 250.168 95.4258L256.795 95.6807C256.541 97.1628 256.319 98.6543 256.13 100.155C255.951 101.647 255.861 103.148 255.861 104.658C255.861 104.819 255.866 105.059 255.875 105.38C255.894 105.692 255.922 106.046 255.96 106.442C255.998 106.829 256.05 107.231 256.116 107.646C256.191 108.052 256.29 108.425 256.413 108.765C256.536 109.104 256.682 109.383 256.852 109.6C257.031 109.817 257.239 109.926 257.475 109.926C257.749 109.926 257.994 109.798 258.211 109.543C258.429 109.279 258.617 108.93 258.778 108.496C258.948 108.061 259.094 107.561 259.217 106.995C259.34 106.428 259.443 105.838 259.528 105.225C259.613 104.611 259.679 103.997 259.727 103.384C259.783 102.77 259.826 102.199 259.854 101.67C259.892 101.142 259.915 100.674 259.925 100.269C259.934 99.8626 259.939 99.5605 259.939 99.3623C259.939 98.626 259.925 97.8944 259.896 97.1675C259.878 96.4312 259.845 95.6995 259.797 94.9727H266.424C266.538 96.2754 266.594 97.597 266.594 98.9375ZM281.137 94.2646C281.08 95.152 281.028 96.0299 280.981 96.8984C280.934 97.7669 280.872 98.6449 280.797 99.5322L274.793 99.8438L274.651 101.628H278.871L278.56 106.018L274.312 106.159L274.17 108.227H277.682H280.174C280.117 109.265 280.056 110.299 279.99 111.328C279.933 112.347 279.881 113.371 279.834 114.4L267.628 114.684L268.081 94.2646H281.137Z" fill="black"/>
<rect x="21.5898" y="181.914" width="183.718" height="7.81778" rx="3.90889" transform="rotate(-74.5839 21.5898 181.914)" fill="#BDACA3"/>
<rect x="68.3486" y="12.3428" width="11.7267" height="7.81778" rx="3.90889" transform="rotate(-74.5839 68.3486 12.3428)" fill="#300FB4"/>
<rect x="3.27539" y="233.632" width="74.2689" height="15.6356" rx="7.81778" transform="rotate(-74.5839 3.27539 233.632)" fill="#542810"/>
</svg>
