<svg width="317" height="244" viewBox="0 0 317 244" fill="none" xmlns="http://www.w3.org/2000/svg">
<path d="M13.5653 52.47C8.87805 35.7359 22.2721 19.4426 39.5968 20.8037L290.586 40.5225C304.886 41.646 315.31 54.5457 313.406 68.7628L292.85 222.317C291.188 234.731 280.596 244 268.071 244H86.1732C74.963 244 65.1233 236.538 62.0997 225.743L13.5653 52.47Z" fill="white"/>
<path d="M139.335 78.1113C138.891 78.6683 138.344 79.1545 137.692 79.5698C137.041 79.9852 136.342 80.3298 135.597 80.6035C134.851 80.8773 134.086 81.0802 133.303 81.2124C132.519 81.354 131.773 81.4248 131.065 81.4248C129.697 81.4248 128.436 81.1794 127.285 80.6885C126.133 80.1976 125.137 79.5226 124.297 78.6636C123.466 77.7951 122.815 76.7756 122.343 75.605C121.871 74.4344 121.635 73.1742 121.635 71.8242C121.635 70.7952 121.753 69.7899 121.989 68.8081C122.225 67.8169 122.56 66.887 122.994 66.0186C123.438 65.1406 123.976 64.3382 124.608 63.6113C125.241 62.875 125.958 62.2425 126.761 61.7139C127.563 61.1852 128.441 60.7746 129.395 60.4819C130.348 60.1893 131.368 60.043 132.453 60.043C132.859 60.043 133.293 60.0618 133.756 60.0996C134.218 60.1279 134.676 60.1846 135.129 60.2695C135.592 60.3451 136.04 60.4536 136.475 60.5952C136.909 60.7368 137.305 60.9115 137.664 61.1191L137.268 66.5283C136.739 66.3301 136.191 66.1979 135.625 66.1318C135.068 66.0563 134.521 66.0186 133.982 66.0186C133.227 66.0186 132.519 66.1366 131.858 66.3726C131.207 66.5991 130.636 66.9295 130.145 67.3638C129.664 67.798 129.281 68.3267 128.998 68.9497C128.715 69.5728 128.573 70.276 128.573 71.0596C128.573 71.5505 128.639 72.0272 128.771 72.4897C128.904 72.9429 129.102 73.3488 129.366 73.7075C129.64 74.0568 129.975 74.34 130.372 74.5571C130.778 74.7743 131.245 74.8828 131.773 74.8828C132.132 74.8828 132.5 74.8356 132.878 74.7412C133.265 74.6468 133.595 74.4863 133.869 74.2598L133.926 73.1553L130.527 73.0986L130.697 68.8506C132.104 68.8034 133.51 68.7656 134.917 68.7373C136.324 68.6995 137.74 68.6523 139.165 68.5957L139.335 78.1113ZM157.021 67.3496C157.021 68.0859 156.955 68.7562 156.823 69.3604C156.7 69.9551 156.502 70.5026 156.228 71.0029C155.954 71.5033 155.6 71.9658 155.166 72.3906C154.732 72.8154 154.208 73.2214 153.594 73.6084L156.964 79.6123L150.592 80.8584L148.412 74.8262L146.656 74.8828L146.401 80.7734H140.312C140.359 78.6211 140.402 76.4782 140.439 74.3447C140.487 72.2113 140.539 70.0684 140.595 67.916C140.614 66.8304 140.633 65.7542 140.652 64.6875C140.671 63.6208 140.708 62.5446 140.765 61.459C141.426 61.2135 142.077 61.0106 142.719 60.8501C143.361 60.6896 144.003 60.5669 144.645 60.4819C145.296 60.3875 145.952 60.3262 146.613 60.2979C147.284 60.2601 147.968 60.2412 148.667 60.2412C149.743 60.2412 150.781 60.3923 151.782 60.6943C152.792 60.987 153.684 61.4307 154.458 62.0254C155.232 62.6201 155.85 63.3612 156.313 64.2485C156.785 65.1359 157.021 66.1696 157.021 67.3496ZM150.677 67.8027C150.677 67.4062 150.621 67.0428 150.507 66.7124C150.403 66.382 150.243 66.0988 150.026 65.8628C149.818 65.6174 149.554 65.4285 149.233 65.2964C148.921 65.1548 148.553 65.084 148.128 65.084C147.94 65.084 147.756 65.0981 147.576 65.1265C147.397 65.1453 147.222 65.1784 147.052 65.2256L146.826 70.4932H147.166C147.571 70.4932 147.982 70.4412 148.397 70.3374C148.822 70.2336 149.2 70.0731 149.53 69.856C149.87 69.6388 150.144 69.3604 150.352 69.0205C150.569 68.6807 150.677 68.2747 150.677 67.8027ZM171.422 60.5811C171.365 61.4684 171.313 62.3464 171.266 63.2148C171.219 64.0833 171.158 64.9613 171.082 65.8486L165.078 66.1602L164.937 67.9443H169.156L168.845 72.334L164.597 72.4756L164.455 74.543H167.967H170.459C170.402 75.5814 170.341 76.6151 170.275 77.644C170.218 78.6636 170.166 79.6878 170.119 80.7168L157.913 81L158.366 60.5811H171.422ZM185.327 60.5811C185.271 61.4684 185.219 62.3464 185.171 63.2148C185.124 64.0833 185.063 64.9613 184.987 65.8486L178.983 66.1602L178.842 67.9443H183.062L182.75 72.334L178.502 72.4756L178.36 74.543H181.872H184.364C184.308 75.5814 184.246 76.6151 184.18 77.644C184.124 78.6636 184.072 79.6878 184.024 80.7168L171.818 81L172.271 60.5811H185.327ZM205.081 60.6943L204.061 79.8955L196.641 80.5752L192.676 70.2949L192.053 80.7734H185.681L186.191 60.6943L193.271 60.3545L198.17 70.5498L198.397 60.9209L205.081 60.6943ZM231.164 60.6943L230.144 79.8955L222.724 80.5752L218.759 70.2949L218.136 80.7734H211.764L212.274 60.6943L219.354 60.3545L224.253 70.5498L224.48 60.9209L231.164 60.6943ZM245.734 60.5811C245.678 61.4684 245.626 62.3464 245.579 63.2148C245.531 64.0833 245.47 64.9613 245.395 65.8486L239.391 66.1602L239.249 67.9443H243.469L243.157 72.334L238.909 72.4756L238.768 74.543H242.279H244.771C244.715 75.5814 244.653 76.6151 244.587 77.644C244.531 78.6636 244.479 79.6878 244.432 80.7168L232.226 81L232.679 60.5811H245.734ZM263.222 71.0029C263.222 71.862 263.123 72.6927 262.925 73.4951C262.727 74.2881 262.439 75.0339 262.061 75.7324C261.693 76.431 261.24 77.0729 260.702 77.6582C260.173 78.234 259.574 78.7297 258.903 79.145C258.243 79.5604 257.52 79.8861 256.737 80.1221C255.953 80.3486 255.123 80.4619 254.245 80.4619C253.395 80.4619 252.583 80.3534 251.809 80.1362C251.044 79.9191 250.327 79.617 249.657 79.23C248.986 78.8335 248.378 78.3615 247.83 77.814C247.292 77.257 246.829 76.6434 246.442 75.9731C246.065 75.2935 245.767 74.5666 245.55 73.7925C245.343 73.0184 245.239 72.2113 245.239 71.3711C245.239 70.5498 245.338 69.7474 245.536 68.9639C245.734 68.1709 246.018 67.4251 246.386 66.7266C246.763 66.028 247.216 65.3861 247.745 64.8008C248.274 64.2155 248.864 63.7104 249.515 63.2856C250.176 62.8608 250.889 62.5304 251.653 62.2944C252.418 62.0584 253.225 61.9404 254.075 61.9404C255.444 61.9404 256.69 62.1528 257.813 62.5776C258.946 63.0024 259.909 63.6113 260.702 64.4043C261.504 65.1878 262.122 66.1413 262.557 67.2646C263 68.3786 263.222 69.6247 263.222 71.0029ZM256.935 71.3711C256.935 70.9652 256.874 70.5734 256.751 70.1958C256.638 69.8088 256.468 69.4689 256.241 69.1763C256.015 68.8742 255.731 68.6335 255.392 68.4541C255.061 68.2653 254.679 68.1709 254.245 68.1709C253.801 68.1709 253.404 68.2511 253.055 68.4116C252.706 68.5721 252.404 68.7939 252.149 69.0771C251.903 69.3509 251.715 69.6766 251.583 70.0542C251.45 70.4224 251.384 70.8141 251.384 71.2295C251.384 71.626 251.441 72.0225 251.554 72.4189C251.667 72.8154 251.837 73.1742 252.064 73.4951C252.291 73.8161 252.569 74.0757 252.899 74.2739C253.239 74.4722 253.631 74.5713 254.075 74.5713C254.518 74.5713 254.915 74.4863 255.264 74.3164C255.623 74.137 255.925 73.901 256.17 73.6084C256.416 73.3063 256.605 72.9618 256.737 72.5747C256.869 72.1877 256.935 71.7865 256.935 71.3711ZM283.471 60.6943L282.452 79.8955L275.032 80.5752L271.067 70.2949L270.444 80.7734H264.072L264.582 60.6943L271.662 60.3545L276.561 70.5498L276.788 60.9209L283.471 60.6943ZM251.767 90.0908L250.974 96.0664C250.7 95.9909 250.426 95.939 250.152 95.9106C249.879 95.8823 249.605 95.8682 249.331 95.8682C248.632 95.8682 247.967 95.9626 247.334 96.1514C246.702 96.3307 246.14 96.6092 245.649 96.9868C245.168 97.3644 244.781 97.8364 244.488 98.4028C244.205 98.9692 244.063 99.6348 244.063 100.399C244.063 100.89 244.139 101.315 244.29 101.674C244.451 102.033 244.672 102.33 244.956 102.566C245.239 102.802 245.574 102.977 245.961 103.09C246.348 103.203 246.773 103.26 247.235 103.26C247.585 103.26 247.948 103.222 248.326 103.146C248.703 103.071 249.076 102.972 249.444 102.849C249.812 102.726 250.171 102.585 250.521 102.424C250.87 102.264 251.191 102.099 251.483 101.929L250.917 108.584C250.549 108.773 250.148 108.943 249.713 109.094C249.289 109.235 248.85 109.363 248.396 109.476C247.943 109.58 247.49 109.66 247.037 109.717C246.584 109.773 246.15 109.802 245.734 109.802C244.535 109.802 243.417 109.58 242.378 109.136C241.34 108.693 240.438 108.084 239.674 107.31C238.909 106.535 238.305 105.625 237.861 104.577C237.427 103.519 237.21 102.382 237.21 101.164C237.21 99.5498 237.441 98.0299 237.904 96.6045C238.366 95.1696 239.046 93.9141 239.943 92.8379C240.84 91.7617 241.949 90.9121 243.271 90.2891C244.602 89.666 246.131 89.3545 247.858 89.3545C248.51 89.3545 249.175 89.4064 249.855 89.5103C250.544 89.6141 251.181 89.8076 251.767 90.0908ZM269.594 94.2539C269.594 94.9525 269.561 95.7218 269.495 96.562C269.429 97.4022 269.32 98.2707 269.169 99.1675C269.018 100.064 268.82 100.975 268.575 101.9C268.339 102.816 268.041 103.699 267.683 104.548C267.324 105.398 266.904 106.196 266.422 106.941C265.95 107.678 265.403 108.324 264.78 108.881C264.166 109.429 263.477 109.858 262.712 110.17C261.948 110.491 261.098 110.651 260.164 110.651C259.069 110.651 258.115 110.472 257.303 110.113C256.501 109.764 255.812 109.292 255.236 108.697C254.66 108.093 254.188 107.395 253.82 106.602C253.452 105.799 253.164 104.954 252.956 104.067C252.748 103.17 252.602 102.259 252.517 101.334C252.442 100.399 252.404 99.5026 252.404 98.6436C252.404 97.3219 252.47 96.005 252.602 94.6929C252.734 93.3713 252.923 92.0544 253.168 90.7422L259.795 90.9971C259.541 92.4792 259.319 93.9707 259.13 95.4717C258.951 96.9632 258.861 98.4642 258.861 99.9746C258.861 100.135 258.866 100.376 258.875 100.697C258.894 101.008 258.922 101.362 258.96 101.759C258.998 102.146 259.05 102.547 259.116 102.962C259.191 103.368 259.29 103.741 259.413 104.081C259.536 104.421 259.682 104.699 259.852 104.917C260.031 105.134 260.239 105.242 260.475 105.242C260.749 105.242 260.994 105.115 261.211 104.86C261.429 104.596 261.617 104.246 261.778 103.812C261.948 103.378 262.094 102.877 262.217 102.311C262.34 101.745 262.443 101.155 262.528 100.541C262.613 99.9274 262.679 99.3138 262.727 98.7002C262.783 98.0866 262.826 97.5155 262.854 96.9868C262.892 96.4582 262.915 95.9909 262.925 95.585C262.934 95.179 262.939 94.877 262.939 94.6787C262.939 93.9424 262.925 93.2108 262.896 92.4839C262.878 91.7476 262.845 91.016 262.797 90.2891H269.424C269.538 91.5918 269.594 92.9134 269.594 94.2539ZM284.137 89.5811C284.08 90.4684 284.028 91.3464 283.981 92.2148C283.934 93.0833 283.872 93.9613 283.797 94.8486L277.793 95.1602L277.651 96.9443H281.871L281.56 101.334L277.312 101.476L277.17 103.543H280.682H283.174C283.117 104.581 283.056 105.615 282.99 106.644C282.933 107.664 282.881 108.688 282.834 109.717L270.628 110L271.081 89.5811H284.137Z" fill="black"/>
<g filter="url(#filter0_d_3582_130)">
<rect x="95.7725" y="10.6758" width="239.063" height="22.7679" rx="11" transform="rotate(107.05 95.7725 10.6758)" fill="#00D823"/>
</g>
<defs>
<filter id="filter0_d_3582_130" x="0.248437" y="0.339258" width="99.1848" height="242.553" filterUnits="userSpaceOnUse" color-interpolation-filters="sRGB">
<feFlood flood-opacity="0" result="BackgroundImageFix"/>
<feColorMatrix in="SourceAlpha" type="matrix" values="0 0 0 0 0 0 0 0 0 0 0 0 0 0 0 0 0 0 127 0" result="hardAlpha"/>
<feMorphology radius="1" operator="dilate" in="SourceAlpha" result="effect1_dropShadow_3582_130"/>
<feOffset/>
<feGaussianBlur stdDeviation="2.7"/>
<feComposite in2="hardAlpha" operator="out"/>
<feColorMatrix type="matrix" values="0 0 0 0 0 0 0 0 0 0.847059 0 0 0 0 0.137255 0 0 0 1 0"/>
<feBlend mode="normal" in2="BackgroundImageFix" result="effect1_dropShadow_3582_130"/>
<feBlend mode="normal" in="SourceGraphic" in2="effect1_dropShadow_3582_130" result="shape"/>
</filter>
</defs>
</svg>
