<svg width="317" height="244" viewBox="0 0 317 244" fill="none" xmlns="http://www.w3.org/2000/svg">
<path d="M13.6552 52.47C8.9679 35.7359 22.362 19.4426 39.6867 20.8037L290.675 40.5225C304.975 41.646 315.4 54.5457 313.496 68.7628L292.94 222.317C291.278 234.731 280.686 244 268.161 244H86.263C75.0528 244 65.2132 236.538 62.1895 225.743L13.6552 52.47Z" fill="white"/>
<path d="M158.683 67.3779C158.683 68.2936 158.546 69.1055 158.272 69.8135C157.998 70.5215 157.621 71.1398 157.139 71.6685C156.667 72.1971 156.11 72.6455 155.468 73.0137C154.826 73.3818 154.137 73.6839 153.401 73.9199C152.674 74.1465 151.919 74.3164 151.135 74.4297C150.352 74.5335 149.582 74.5902 148.827 74.5996V81.1982H142.229C142.229 79.0365 142.233 76.8841 142.243 74.7412C142.252 72.5983 142.266 70.4365 142.285 68.2559C142.304 67.1042 142.309 65.9525 142.299 64.8008C142.29 63.6491 142.313 62.488 142.37 61.3174C143.578 60.9587 144.787 60.6896 145.995 60.5103C147.203 60.3309 148.45 60.2412 149.733 60.2412C150.46 60.2412 151.187 60.3026 151.914 60.4253C152.641 60.5386 153.335 60.7227 153.996 60.9775C154.666 61.2324 155.284 61.5534 155.851 61.9404C156.426 62.318 156.922 62.7712 157.337 63.2998C157.753 63.8285 158.078 64.4326 158.314 65.1123C158.56 65.7826 158.683 66.5378 158.683 67.3779ZM152.396 67.8594C152.396 67.2458 152.207 66.769 151.829 66.4292C151.461 66.0799 150.979 65.9053 150.385 65.9053C150.187 65.9053 149.979 65.9242 149.762 65.9619C149.554 65.9902 149.356 66.028 149.167 66.0752L148.997 70.21C149.129 70.2288 149.257 70.2383 149.379 70.2383C149.502 70.2383 149.63 70.2383 149.762 70.2383C150.102 70.2383 150.427 70.1816 150.739 70.0684C151.06 69.9551 151.343 69.7946 151.588 69.5869C151.834 69.3698 152.027 69.1196 152.169 68.8364C152.32 68.5438 152.396 68.2181 152.396 67.8594ZM167.108 61.0625L165.55 80.3486L159.575 80.6602V61.459L167.108 61.0625ZM187.357 60.6943L186.337 79.8955L178.917 80.5752L174.953 70.2949L174.33 80.7734H167.958L168.467 60.6943L175.547 60.3545L180.447 70.5498L180.673 60.9209L187.357 60.6943ZM206.473 60.7227L199.648 70.1533L205.397 80.1787L198.827 81.3398L194.522 75.2227L194.295 81.623L188.405 81.8496L188.858 60.1562L195.457 60.5244L194.947 66.9248L199.336 60.1562L206.473 60.7227ZM231.253 60.6943L230.234 79.8955L222.814 80.5752L218.849 70.2949L218.226 80.7734H211.854L212.364 60.6943L219.444 60.3545L224.343 70.5498L224.57 60.9209L231.253 60.6943ZM245.824 60.5811C245.768 61.4684 245.716 62.3464 245.668 63.2148C245.621 64.0833 245.56 64.9613 245.484 65.8486L239.48 66.1602L239.339 67.9443H243.559L243.247 72.334L238.999 72.4756L238.857 74.543H242.369H244.861C244.805 75.5814 244.743 76.6151 244.677 77.644C244.621 78.6636 244.569 79.6878 244.521 80.7168L232.315 81L232.769 60.5811H245.824ZM263.312 71.0029C263.312 71.862 263.213 72.6927 263.015 73.4951C262.816 74.2881 262.528 75.0339 262.151 75.7324C261.783 76.431 261.33 77.0729 260.792 77.6582C260.263 78.234 259.663 78.7297 258.993 79.145C258.332 79.5604 257.61 79.8861 256.827 80.1221C256.043 80.3486 255.212 80.4619 254.334 80.4619C253.485 80.4619 252.673 80.3534 251.899 80.1362C251.134 79.9191 250.417 79.617 249.747 79.23C249.076 78.8335 248.467 78.3615 247.92 77.814C247.382 77.257 246.919 76.6434 246.532 75.9731C246.155 75.2935 245.857 74.5666 245.64 73.7925C245.432 73.0184 245.329 72.2113 245.329 71.3711C245.329 70.5498 245.428 69.7474 245.626 68.9639C245.824 68.1709 246.107 67.4251 246.476 66.7266C246.853 66.028 247.306 65.3861 247.835 64.8008C248.364 64.2155 248.954 63.7104 249.605 63.2856C250.266 62.8608 250.979 62.5304 251.743 62.2944C252.508 62.0584 253.315 61.9404 254.165 61.9404C255.533 61.9404 256.779 62.1528 257.903 62.5776C259.036 63.0024 259.999 63.6113 260.792 64.4043C261.594 65.1878 262.212 66.1413 262.646 67.2646C263.09 68.3786 263.312 69.6247 263.312 71.0029ZM257.025 71.3711C257.025 70.9652 256.964 70.5734 256.841 70.1958C256.728 69.8088 256.558 69.4689 256.331 69.1763C256.104 68.8742 255.821 68.6335 255.481 68.4541C255.151 68.2653 254.769 68.1709 254.334 68.1709C253.891 68.1709 253.494 68.2511 253.145 68.4116C252.796 68.5721 252.494 68.7939 252.239 69.0771C251.993 69.3509 251.805 69.6766 251.672 70.0542C251.54 70.4224 251.474 70.8141 251.474 71.2295C251.474 71.626 251.531 72.0225 251.644 72.4189C251.757 72.8154 251.927 73.1742 252.154 73.4951C252.38 73.8161 252.659 74.0757 252.989 74.2739C253.329 74.4722 253.721 74.5713 254.165 74.5713C254.608 74.5713 255.005 74.4863 255.354 74.3164C255.713 74.137 256.015 73.901 256.26 73.6084C256.506 73.3063 256.694 72.9618 256.827 72.5747C256.959 72.1877 257.025 71.7865 257.025 71.3711ZM283.561 60.6943L282.542 79.8955L275.122 80.5752L271.157 70.2949L270.534 80.7734H264.162L264.671 60.6943L271.751 60.3545L276.651 70.5498L276.877 60.9209L283.561 60.6943ZM251.856 90.0908L251.063 96.0664C250.79 95.9909 250.516 95.939 250.242 95.9106C249.968 95.8823 249.695 95.8682 249.421 95.8682C248.722 95.8682 248.057 95.9626 247.424 96.1514C246.792 96.3307 246.23 96.6092 245.739 96.9868C245.258 97.3644 244.871 97.8364 244.578 98.4028C244.295 98.9692 244.153 99.6348 244.153 100.399C244.153 100.89 244.229 101.315 244.38 101.674C244.54 102.033 244.762 102.33 245.045 102.566C245.329 102.802 245.664 102.977 246.051 103.09C246.438 103.203 246.863 103.26 247.325 103.26C247.674 103.26 248.038 103.222 248.416 103.146C248.793 103.071 249.166 102.972 249.534 102.849C249.902 102.726 250.261 102.585 250.61 102.424C250.96 102.264 251.281 102.099 251.573 101.929L251.007 108.584C250.639 108.773 250.237 108.943 249.803 109.094C249.378 109.235 248.939 109.363 248.486 109.476C248.033 109.58 247.58 109.66 247.127 109.717C246.674 109.773 246.24 109.802 245.824 109.802C244.625 109.802 243.507 109.58 242.468 109.136C241.43 108.693 240.528 108.084 239.764 107.31C238.999 106.535 238.395 105.625 237.951 104.577C237.517 103.519 237.3 102.382 237.3 101.164C237.3 99.5498 237.531 98.0299 237.994 96.6045C238.456 95.1696 239.136 93.9141 240.033 92.8379C240.93 91.7617 242.039 90.9121 243.36 90.2891C244.691 89.666 246.221 89.3545 247.948 89.3545C248.6 89.3545 249.265 89.4064 249.945 89.5103C250.634 89.6141 251.271 89.8076 251.856 90.0908ZM269.684 94.2539C269.684 94.9525 269.651 95.7218 269.585 96.562C269.519 97.4022 269.41 98.2707 269.259 99.1675C269.108 100.064 268.91 100.975 268.665 101.9C268.429 102.816 268.131 103.699 267.772 104.548C267.414 105.398 266.994 106.196 266.512 106.941C266.04 107.678 265.493 108.324 264.87 108.881C264.256 109.429 263.567 109.858 262.802 110.17C262.038 110.491 261.188 110.651 260.253 110.651C259.158 110.651 258.205 110.472 257.393 110.113C256.591 109.764 255.902 109.292 255.326 108.697C254.75 108.093 254.278 107.395 253.91 106.602C253.542 105.799 253.254 104.954 253.046 104.067C252.838 103.17 252.692 102.259 252.607 101.334C252.531 100.399 252.494 99.5026 252.494 98.6436C252.494 97.3219 252.56 96.005 252.692 94.6929C252.824 93.3713 253.013 92.0544 253.258 90.7422L259.885 90.9971C259.63 92.4792 259.409 93.9707 259.22 95.4717C259.04 96.9632 258.951 98.4642 258.951 99.9746C258.951 100.135 258.955 100.376 258.965 100.697C258.984 101.008 259.012 101.362 259.05 101.759C259.088 102.146 259.139 102.547 259.206 102.962C259.281 103.368 259.38 103.741 259.503 104.081C259.626 104.421 259.772 104.699 259.942 104.917C260.121 105.134 260.329 105.242 260.565 105.242C260.839 105.242 261.084 105.115 261.301 104.86C261.518 104.596 261.707 104.246 261.868 103.812C262.038 103.378 262.184 102.877 262.307 102.311C262.429 101.745 262.533 101.155 262.618 100.541C262.703 99.9274 262.769 99.3138 262.816 98.7002C262.873 98.0866 262.916 97.5155 262.944 96.9868C262.982 96.4582 263.005 95.9909 263.015 95.585C263.024 95.179 263.029 94.877 263.029 94.6787C263.029 93.9424 263.015 93.2108 262.986 92.4839C262.967 91.7476 262.934 91.016 262.887 90.2891H269.514C269.627 91.5918 269.684 92.9134 269.684 94.2539ZM284.227 89.5811C284.17 90.4684 284.118 91.3464 284.071 92.2148C284.024 93.0833 283.962 93.9613 283.887 94.8486L277.883 95.1602L277.741 96.9443H281.961L281.649 101.334L277.401 101.476L277.26 103.543H280.771H283.264C283.207 104.581 283.146 105.615 283.08 106.644C283.023 107.664 282.971 108.688 282.924 109.717L270.718 110L271.171 89.5811H284.227Z" fill="black"/>
<g filter="url(#filter0_d_3582_137)">
<rect x="95.8623" y="10.6758" width="239.063" height="22.7679" rx="11" transform="rotate(107.05 95.8623 10.6758)" fill="#EB00B8"/>
</g>
<defs>
<filter id="filter0_d_3582_137" x="0.338281" y="0.339258" width="99.1848" height="242.553" filterUnits="userSpaceOnUse" color-interpolation-filters="sRGB">
<feFlood flood-opacity="0" result="BackgroundImageFix"/>
<feColorMatrix in="SourceAlpha" type="matrix" values="0 0 0 0 0 0 0 0 0 0 0 0 0 0 0 0 0 0 127 0" result="hardAlpha"/>
<feMorphology radius="1" operator="dilate" in="SourceAlpha" result="effect1_dropShadow_3582_137"/>
<feOffset/>
<feGaussianBlur stdDeviation="2.7"/>
<feComposite in2="hardAlpha" operator="out"/>
<feColorMatrix type="matrix" values="0 0 0 0 0.921569 0 0 0 0 0 0 0 0 0 0.721569 0 0 0 1 0"/>
<feBlend mode="normal" in2="BackgroundImageFix" result="effect1_dropShadow_3582_137"/>
<feBlend mode="normal" in="SourceGraphic" in2="effect1_dropShadow_3582_137" result="shape"/>
</filter>
</defs>
</svg>
