<svg width="175" height="162" viewBox="0 0 175 162" fill="none" xmlns="http://www.w3.org/2000/svg">
<path style="mix-blend-mode:multiply" opacity="0.8" d="M33.936 55.0231C39.761 56.3221 48.2571 61.3334 57.3905 64.121L57.402 64.1255C70.2522 68.0328 82.3591 71.9739 82.3591 71.9739L82.9871 70.5198L82.9116 70.4861L82.8529 70.5821L69.3798 64.6085L66.2407 63.2168C66.2407 63.2168 65.9462 63.1661 65.4418 63.0893C65.4486 63.0801 65.4622 63.0641 65.4757 63.0435C62.5865 63.4789 44.452 57.9121 43.2974 52.9888C42.3298 48.8614 45.2147 46.0579 46.2023 46.4849C49.0042 47.1316 54.6959 49.0552 61.3618 51.447L61.8852 51.6444C70.5186 54.7263 80.6867 58.6124 88.3867 61.5766L88.3981 61.5811C91.3808 62.7414 94.0023 63.7466 96.0091 64.5345L96.0113 64.5299L100.231 66.1818C100.231 66.1818 100.231 66.1841 100.231 66.1864L101.35 62.186L97.1583 59.2906C97.1583 59.2906 89.1049 59.1497 87.6521 58.3223C86.1833 57.4995 80.3872 50.8583 80.9995 47.043C81.6163 43.2163 83.9952 40.065 84.8674 40.2513C85.3606 40.3555 88.4553 43.1637 92.1561 46.6904L92.1631 46.7086C95.0956 49.4813 98.2151 52.2439 100.216 53.2481C100.354 53.3156 100.498 53.3854 100.649 53.4551C100.681 53.4709 100.715 53.4866 100.747 53.5001C100.87 53.5586 100.996 53.6171 101.129 53.6778C101.165 53.6936 101.202 53.7116 101.238 53.7273C101.378 53.7903 101.522 53.8555 101.671 53.9207C101.696 53.9319 101.721 53.9432 101.746 53.9544C105.041 55.4112 110.361 57.4804 114.892 59.7386C114.901 59.7431 114.912 59.7476 114.922 59.7544C115.13 59.8579 115.338 59.9638 115.544 60.0673C115.562 60.0763 115.583 60.0876 115.601 60.0966C115.809 60.2024 116.013 60.3083 116.216 60.4165C116.218 60.4164 116.223 60.4187 116.225 60.421C117.497 61.0923 118.675 61.7755 119.694 62.4597C119.697 62.462 119.701 62.4642 119.706 62.4665C120.598 63.0694 121.37 63.673 121.965 64.2707C122.029 64.3364 122.091 64.3998 122.15 64.4746C122.155 64.4746 122.16 64.4814 122.162 64.4859C122.224 64.5562 122.281 64.6287 122.341 64.7058C122.398 64.7806 122.456 64.86 122.511 64.9394C122.513 64.9394 122.516 64.9439 122.516 64.9485C122.575 65.0301 122.631 65.1186 122.684 65.2071C122.741 65.2956 122.794 65.3863 122.845 65.4817C123.055 65.8562 123.244 66.2719 123.411 66.7195C123.455 66.8331 123.494 66.9444 123.533 67.0626C123.608 67.2785 123.68 67.5013 123.745 67.7309C123.98 68.5379 124.167 69.4204 124.314 70.344C124.316 70.3599 124.319 70.3759 124.323 70.3918C124.356 70.5943 124.385 70.799 124.416 71.0084C124.416 71.0106 124.413 71.0129 124.416 71.0152C124.416 71.0152 124.416 71.0175 124.416 71.0197C124.494 71.5817 124.557 72.1575 124.608 72.7378C124.608 72.7583 124.613 72.7811 124.613 72.8016C124.613 72.8084 124.613 72.8152 124.613 72.8198C124.654 73.2909 124.689 73.7643 124.717 74.2401C124.717 74.2469 124.717 74.2515 124.717 74.2583C124.717 74.272 124.717 74.2856 124.717 74.2993C124.727 74.4905 124.738 74.6794 124.748 74.8707C124.748 74.9139 124.753 74.9572 124.755 74.9981C124.756 75.0505 124.758 75.1029 124.761 75.1552C124.766 75.3078 124.774 75.4603 124.777 75.6151C124.777 75.647 124.78 75.6811 124.78 75.713C124.783 75.8337 124.788 75.9566 124.791 76.075C124.794 76.1957 124.795 76.3163 124.798 76.4347C124.798 76.5463 124.799 76.6602 124.806 76.7717C124.807 76.9174 124.808 77.0632 124.811 77.2066C124.812 77.2612 124.812 77.3136 124.812 77.366C124.814 77.728 124.816 78.0855 124.811 78.4362C124.811 78.4522 124.812 78.4681 124.812 78.484C124.812 78.5364 124.812 78.5888 124.81 78.6412C124.811 78.7505 124.809 78.8598 124.808 78.9691C124.808 79.0123 124.808 79.0579 124.808 79.1034C124.809 79.1717 124.807 79.2378 124.805 79.3038C124.805 79.3744 124.801 79.4427 124.799 79.5133C124.8 79.5908 124.796 79.6636 124.794 79.7411C124.794 79.7798 124.794 79.8185 124.79 79.855C124.79 79.8641 124.79 79.8709 124.79 79.88C124.786 80.0394 124.783 80.1943 124.777 80.3492C124.773 80.4539 124.771 80.5632 124.767 80.6657C124.763 80.7728 124.757 80.8776 124.753 80.9823C124.753 81.0119 124.751 81.0393 124.749 81.0689C124.749 81.1144 124.747 81.1622 124.743 81.2078C124.743 81.2442 124.739 81.2784 124.739 81.3149C124.739 81.3513 124.735 81.39 124.735 81.4265C124.729 81.5859 124.721 81.7453 124.715 81.8979C124.68 82.5721 124.644 83.1644 124.608 83.661C124.604 83.7134 124.6 83.7681 124.598 83.8182C124.598 83.8227 124.598 83.8273 124.598 83.8318C124.558 84.3786 124.524 84.7795 124.504 85.0028C124.504 85.0187 124.505 85.0369 124.502 85.0529C124.494 85.1531 124.487 85.2078 124.487 85.2078C124.663 85.3184 124.847 85.4221 125.027 85.5258C125.158 85.6002 125.286 85.6769 125.416 85.749C125.599 85.8482 125.784 85.9428 125.972 86.0351C126.068 86.0823 126.162 86.1342 126.258 86.1792C126.487 86.2894 126.718 86.3929 126.951 86.494C127.012 86.521 127.072 86.5503 127.134 86.575C127.431 86.7031 127.733 86.8243 128.034 86.9387C128.116 86.9724 128.208 87.0038 128.297 87.0374C128.372 87.0666 128.452 87.0957 128.537 87.1226C128.626 87.154 128.72 87.1876 128.816 87.2166C128.871 87.2345 128.928 87.2547 128.983 87.2726C129.049 87.295 129.113 87.3151 129.181 87.3375C129.206 87.3442 129.229 87.3532 129.254 87.3599C129.353 87.3912 129.458 87.4225 129.561 87.4538C129.759 87.5119 129.963 87.5722 130.177 87.6324C130.346 87.6793 130.522 87.7284 130.703 87.7775C130.799 87.802 130.897 87.8287 130.995 87.8555C131.054 87.8711 131.114 87.8867 131.173 87.9023C131.303 87.9357 131.436 87.9691 131.568 88.0025C131.584 88.007 131.6 88.0114 131.616 88.0136C131.79 88.0582 131.97 88.1027 132.151 88.1449C132.589 88.2517 133.043 88.3585 133.512 88.4651C133.683 88.5051 133.854 88.5429 134.03 88.5828C134.14 88.6073 134.249 88.634 134.363 88.6561C134.48 88.6828 141.515 90.3346 148.156 91.8931L148.279 113.509C136.406 110.277 115.423 104.938 115.423 104.938L105.121 110.801C101.182 110.737 92.3826 107.781 85.3895 105.186C85.1975 105.119 85.0215 105.042 84.8547 104.986C79.6144 103.04 75.5134 101.335 75.5134 101.335L60.4061 95.5253C60.4061 95.5253 56.553 95.7066 53.1862 94.3641C49.824 93.0352 45.3131 91.0365 44.5248 90.3578C41.4182 88.2647 43.2928 81.0493 45.8002 82.0415C47.6514 82.7506 50.2089 83.7288 53.0293 84.8149L53.0383 84.8057C54.5376 85.3824 56.1101 85.986 57.6894 86.5941C58.0916 86.749 58.4916 86.9015 58.8938 87.0564L58.903 87.0609C66.2761 89.8972 73.407 92.6438 73.407 92.6438L74.9949 89.1576L74.9263 89.1284L74.8372 89.0902L74.7944 89.1906L54.9274 80.5323L54.2187 80.2221C51.8251 80.0012 49.4821 79.4407 47.2886 78.6971C47.5146 78.7437 47.7475 78.7833 47.9848 78.8184C47.7975 78.758 47.6079 78.6976 47.4228 78.6349C47.4181 78.6228 47.4105 78.619 47.3999 78.6236C45.8324 78.0861 44.3259 77.4525 42.9426 76.8114L42.9312 76.8069C42.906 76.7957 42.8831 76.7867 42.8603 76.7731C42.8214 76.7551 42.7848 76.7371 42.7482 76.7169C42.7299 76.7078 42.7116 76.6966 42.6933 76.6876C37.523 74.2258 34.4805 71.7611 34.4805 71.7611C32.4287 70.2767 33.7435 66.8924 34.7184 65.8803C34.707 65.8713 34.6909 65.86 34.6795 65.851C34.6795 65.851 34.6978 65.8577 34.7275 65.8712C34.757 65.8414 34.7842 65.8139 34.8114 65.7887C33.3771 65.0113 31.7197 64.7065 30.7774 62.2321C30.7591 62.2117 30.7499 62.2004 30.7499 62.2004C30.6967 62.0732 30.6549 61.9368 30.6244 61.7935C30.5269 61.4798 30.4383 61.1387 30.3609 60.7612C29.5913 56.9628 31.9451 54.6155 33.9223 55.0141L33.936 55.0231Z" fill="url(#paint0_radial_4105_133)"/>
<path d="M28.6023 59.9515C29.7429 58.8133 31.2771 58.3059 32.7109 58.5938L32.7498 58.6027C35.3255 59.1778 38.2491 60.3794 41.5618 61.827C40.5483 60.8513 39.9247 59.8735 39.6933 58.8911C38.8847 55.4436 40.2451 52.462 41.9543 51.0359C42.9325 50.2197 44.0073 49.9336 44.9395 50.2334C47.5108 50.8404 52.4254 52.4497 59.9574 55.153L60.483 55.3504C67.3088 57.7868 75.1547 60.7502 82.0043 63.3731C81.192 62.492 80.3308 61.4244 79.5766 60.3379C77.3623 57.149 76.4119 54.4446 76.7577 52.3022C77.3261 48.7877 79.2624 45.5956 80.8072 44.5394C81.6432 43.9699 82.3729 43.968 82.8364 44.0656C83.4803 44.2031 84.0351 44.3206 90.9209 50.8827L90.9393 50.9122C92.2783 52.1775 96.2656 55.9439 98.3742 57.0022C98.5 57.0629 98.6326 57.1282 98.7721 57.1934L98.8636 57.2362C98.9802 57.2902 99.0968 57.3442 99.218 57.4004L99.3255 57.4499C99.4581 57.5106 99.5953 57.5713 99.7393 57.6342L99.8102 57.6657C100.809 58.1064 102.03 58.6186 103.322 59.1623C106.165 60.3553 109.704 61.8403 112.821 63.3937L112.851 63.4095C113.064 63.5153 113.272 63.6212 113.482 63.727L113.539 63.7563C113.75 63.8644 113.956 63.9725 114.173 64.0851C115.577 64.8263 116.751 65.5164 117.743 66.1848L117.77 66.2028C118.812 66.9051 119.632 67.5631 120.288 68.2242C120.37 68.3103 120.46 68.4032 120.554 68.5165C120.637 68.6116 120.717 68.7091 120.797 68.8111L120.811 68.8292C120.887 68.929 120.963 69.031 121.034 69.1377C121.103 69.2352 121.172 69.3418 121.248 69.4643C121.336 69.6005 121.409 69.7298 121.458 69.8207C121.702 70.2587 121.928 70.7516 122.125 71.2765C122.176 71.4105 122.225 71.5446 122.271 71.6832C122.357 71.9332 122.436 72.1833 122.505 72.4197C122.747 73.2494 122.953 74.191 123.114 75.2011L123.126 75.2671C123.154 75.4468 123.181 75.6265 123.207 75.8108L123.221 75.9018L123.221 75.9064L123.223 75.9269C123.299 76.4775 123.364 77.0578 123.423 77.6973L123.43 77.7906C123.471 78.2594 123.508 78.7488 123.536 79.2428L123.537 79.3043C123.551 79.4977 123.562 79.6912 123.57 79.8824L123.57 79.9143C123.575 79.953 123.575 79.9894 123.577 80.0236L123.583 80.1761C123.588 80.3309 123.596 80.488 123.601 80.6428L123.602 80.7476C123.609 80.8591 123.612 80.9729 123.618 81.1027C123.618 81.1892 123.621 81.2735 123.624 81.3577L123.625 81.5603C123.627 81.6286 123.63 81.6969 123.633 81.7652L123.633 81.8631C123.634 81.9884 123.637 82.1136 123.64 82.257L123.641 82.4164C123.643 82.783 123.643 83.1428 123.64 83.4958L123.641 83.5322L123.633 84.1858C123.633 84.2427 123.631 84.2974 123.632 84.352L123.617 84.9487C123.613 85.1081 123.609 85.2652 123.603 85.4156L123.594 85.764C123.59 85.8619 123.586 85.9599 123.582 86.0578L123.578 86.1763C123.578 86.2195 123.576 86.2628 123.574 86.2992L123.544 86.9848C123.513 87.577 123.478 88.1738 123.435 88.7707L123.425 88.9301C123.421 88.9893 123.416 89.0463 123.412 89.101C123.517 89.155 123.623 89.2091 123.728 89.2608L123.86 89.3284C123.902 89.3487 123.943 89.3712 123.984 89.3915C124.188 89.4905 124.396 89.5827 124.606 89.6748L124.768 89.7491C125.036 89.8637 125.31 89.976 125.584 90.0791L125.609 90.0881C125.669 90.1128 125.733 90.1352 125.797 90.1599L125.847 90.1778C125.893 90.1958 125.941 90.2137 125.991 90.2294L126.053 90.2495C126.108 90.2697 126.165 90.2899 126.224 90.3078L126.676 90.4532C126.761 90.4801 126.848 90.5069 126.953 90.5382C127.14 90.594 127.332 90.6499 127.533 90.7056C127.654 90.7391 127.778 90.7726 127.905 90.8083L128.47 90.9576C128.593 90.9888 128.721 91.0222 128.842 91.0512L128.903 91.0667C129.043 91.1024 129.187 91.138 129.333 91.1736L129.408 91.1914C129.831 91.2937 130.269 91.3983 130.717 91.5005L130.81 91.5227C130.945 91.5538 131.08 91.5827 131.233 91.6182C131.329 91.6404 131.422 91.6627 131.523 91.6826L131.562 91.6915C131.765 91.7381 131.968 91.7825 132.178 91.8269L132.201 91.8313C132.518 91.9024 132.84 91.9689 133.169 92.0376L133.256 92.0553C133.548 92.1151 133.843 92.1749 134.137 92.237L134.231 92.2547C134.441 92.2968 137.848 93.0926 145.573 94.8999C146.425 95.1 147.304 95.3045 148.19 95.5112L148.212 99.4163C147.134 99.1651 145.97 98.8917 144.707 98.596C139.379 97.3511 133.874 96.064 133.472 95.9752L133.383 95.9575C133.086 95.8954 132.789 95.8356 132.472 95.7691L132.392 95.7514C132.056 95.6827 131.723 95.6117 131.392 95.5384C131.166 95.4919 130.947 95.4431 130.73 95.3942C130.613 95.3698 130.499 95.3431 130.401 95.3209C130.255 95.2899 130.113 95.2565 129.972 95.2255L129.876 95.2032C129.405 95.0966 128.949 94.9876 128.508 94.8808L128.43 94.8631C128.273 94.8252 128.115 94.7851 127.983 94.7517L127.926 94.7384C127.791 94.705 127.656 94.6693 127.519 94.636L126.907 94.4732C126.77 94.4353 126.635 94.3996 126.503 94.3617C126.283 94.2992 126.073 94.2389 125.849 94.1718C125.746 94.1405 125.644 94.1092 125.552 94.0824L125.21 93.9728C125.171 93.9594 125.132 93.9482 125.093 93.9348C124.988 93.9012 124.885 93.8654 124.785 93.8295C124.682 93.7959 124.584 93.76 124.508 93.7309L124.481 93.7196C124.392 93.686 124.302 93.6523 124.218 93.6209C123.902 93.4998 123.587 93.3718 123.278 93.2415C123.228 93.2213 123.18 93.1988 123.13 93.1763L123.082 93.1538C122.833 93.0436 122.583 92.9335 122.336 92.8142C122.263 92.7804 122.192 92.7421 122.121 92.7061L122.028 92.6588C121.824 92.5575 121.623 92.4539 121.424 92.348C121.305 92.2826 121.19 92.2173 121.074 92.1496L120.893 92.0459C120.728 91.9512 120.564 91.8565 120.403 91.7549L119.529 89.9269L119.541 89.7765C119.561 89.5646 119.593 89.1819 119.633 88.6443L119.644 88.4939C119.684 87.9358 119.717 87.3641 119.746 86.8106L119.784 85.9132C119.788 85.8107 119.792 85.7105 119.796 85.6057L119.803 85.3074C119.807 85.1593 119.813 85.009 119.817 84.8587L119.83 84.3099C119.829 84.2416 119.829 84.171 119.833 84.1049L119.839 83.4719C119.841 83.1371 119.842 82.7955 119.84 82.4403L119.839 82.3083C119.838 82.1762 119.837 82.0419 119.836 81.9052L119.836 81.8938C119.834 81.8073 119.831 81.7185 119.83 81.6297L119.829 81.4225C119.827 81.3542 119.824 81.2859 119.824 81.2358C119.818 81.1129 119.815 80.9854 119.812 80.8625L119.812 80.7737C119.804 80.628 119.799 80.4823 119.793 80.3388L119.78 80.0679C119.773 79.8881 119.762 79.706 119.752 79.5239L119.752 79.4715L119.75 79.4715C119.722 79.0163 119.69 78.5633 119.653 78.1491L119.644 78.0535C119.59 77.4663 119.532 76.9429 119.463 76.4515L119.459 76.4196L119.451 76.3627C119.428 76.1989 119.404 76.0374 119.38 75.8872L119.371 75.8281C119.231 74.9545 119.06 74.1676 118.858 73.4788C118.807 73.2969 118.747 73.1105 118.682 72.9242L118.672 72.8946C118.644 72.8082 118.614 72.7264 118.577 72.6287C118.441 72.2675 118.295 71.9449 118.143 71.6748L118.129 71.6499C118.104 71.6022 118.079 71.5568 118.051 71.5137L118.012 71.4524C117.987 71.4116 117.964 71.3707 117.936 71.3322L117.915 71.2936L117.901 71.2823C117.867 71.2324 117.833 71.1847 117.798 71.1394C117.764 71.0963 117.729 71.0533 117.695 71.0125L117.66 70.9694L117.653 70.9626C117.628 70.9309 117.601 70.906 117.585 70.8879C117.121 70.4214 116.471 69.9059 115.669 69.364L115.642 69.3459C114.758 68.7521 113.671 68.1116 112.397 67.4403C112.203 67.3389 112.008 67.2375 111.825 67.1429L111.755 67.1069C111.558 67.0055 111.361 66.9065 111.155 66.8052L111.132 66.7939C108.125 65.2968 104.797 63.8993 101.859 62.6659C100.549 62.1155 99.3126 61.5965 98.2746 61.1379L98.2037 61.1064C98.0528 61.039 97.9065 60.9738 97.767 60.9108L97.655 60.8591C97.5178 60.7961 97.3875 60.7376 97.264 60.6791L97.1588 60.6296C97.001 60.5554 96.8478 60.4811 96.69 60.4046C94.8695 59.4904 92.2875 57.4079 88.3163 53.6551L88.2979 53.6233C84.9754 50.4589 83.2793 48.9542 82.4337 48.2463C81.7841 49.113 80.8611 50.8193 80.524 52.9047C80.3919 53.7229 80.8833 55.5168 82.6585 58.0934C84.1578 60.2686 85.7033 61.765 86.1131 62.0359C87.0045 62.3929 91.1842 62.6948 94.5756 62.7529L95.6243 63.0908L99.7477 65.9387L100.498 68.0111L99.3965 71.9454L97.5017 71.5941L96.8722 73.1985L92.7238 71.5757L92.717 71.5758C91.5879 71.1359 90.2623 70.622 88.7858 70.052C87.6796 69.6233 86.4911 69.1633 85.2364 68.6763L85.2181 68.6673C77.4998 65.6963 67.5717 61.9068 59.2057 58.919L58.6755 58.7194C51.6462 56.1976 46.8321 54.6083 44.352 53.9939C43.846 54.459 42.9193 55.908 43.4148 58.0228C43.5971 58.7983 45.712 60.954 52.4156 63.5664C57.6999 65.6268 62.2503 66.5618 63.0981 66.4682L63.5287 67.1898L63.6297 66.513C64.1547 66.592 64.4606 66.6449 64.4606 66.6449L64.9061 66.779L81.1456 73.9778L81.3027 73.9291L81.3758 73.9629L82.3501 76.4507L81.7311 77.882L79.395 78.9336C79.2762 78.8956 67.3589 75.0172 54.8811 71.2239L54.8582 71.2149C50.2824 69.8178 45.8584 67.8641 41.9558 66.1421C38.0394 64.4133 34.6557 62.9183 31.9635 62.3119C31.8175 62.2877 31.5625 62.378 31.3063 62.6322C31.0682 62.8704 30.3186 63.7991 30.7104 65.7279C30.7691 66.0213 30.8414 66.2987 30.9204 66.551L30.9647 66.7215C30.974 66.767 30.9833 66.7897 30.9833 66.792L30.981 66.792L31.0317 66.876C31.5109 68.1347 32.1534 68.4339 33.2167 68.9311C33.5094 69.0684 33.8135 69.2101 34.1269 69.3791L34.1724 69.7591L34.2788 69.6287L34.2628 69.6151L34.3132 69.6535L34.4953 72.4123L34.4956 72.4533C34.1918 72.7716 33.6579 73.9336 33.7358 74.803C33.7724 75.215 33.9258 75.3257 34.0082 75.3844L34.0884 75.4454C34.1159 75.4681 36.9933 77.7675 41.7772 80.047C41.832 80.0717 41.8846 80.0987 41.9373 80.1303L41.9464 80.1348C41.9464 80.1348 41.9441 80.1348 41.9418 80.1326L42.0196 80.1663C43.4578 80.8321 44.7813 81.3734 46.0609 81.8192C46.1683 81.8437 46.2734 81.8795 46.3762 81.9245L46.3831 81.9312C46.4859 81.9648 46.5888 81.9984 46.6916 82.032L46.7601 82.0543L46.7379 82.1524C48.7141 82.7787 50.6457 83.1822 52.4871 83.3516L53.0717 83.5008L73.2131 92.2783L73.3564 92.2228L73.5073 92.288L74.4818 94.8169L72.9186 98.2459L70.5023 99.232C70.5023 99.232 63.488 96.5303 56.236 93.7411L50.4765 91.5264L50.456 91.531C48.4173 90.7456 46.5181 90.0187 44.9296 89.4106L43.7229 88.9484C43.4267 89.3918 43.0517 90.43 43.0813 91.6231C43.105 92.5816 43.3875 93.3337 43.8362 93.6363L44.0126 93.7719L43.992 93.7561C44.5806 94.2036 48.2025 95.8885 51.9945 97.388C54.8653 98.5308 58.2716 98.3975 58.3036 98.3974L59.0774 98.5227L73.9379 104.238L73.9859 104.256C74.0247 104.272 78.0342 105.936 83.0826 107.813C83.1854 107.849 83.2905 107.887 83.398 107.93C83.462 107.955 83.5305 107.982 83.5991 108.006L83.6334 108.02C92.3977 111.272 98.8373 113.166 101.917 113.399L111.574 107.906L112.984 107.716C114.099 107.999 137.556 113.964 148.321 116.961L148.344 120.911C139.111 118.306 117.115 112.689 112.79 111.586L103.322 116.973L102.35 117.222C98.99 117.166 92.2539 115.271 82.3241 111.586C82.2213 111.55 82.1207 111.512 82.0247 111.474C81.9607 111.449 81.899 111.425 81.8396 111.405L81.7825 111.384C76.8575 109.554 72.8961 107.917 72.5509 107.775L58.063 102.204C56.9045 102.213 53.6063 102.122 50.5938 100.921C50.5206 100.892 43.3299 98.0407 41.644 96.7433C38.6584 94.6585 38.9096 89.9094 40.2385 87.397C41.2335 85.5128 42.658 84.9605 43.8376 85.0585C42.752 84.6502 41.6342 84.1784 40.4497 83.6295C40.4063 83.6093 40.3629 83.5913 40.3194 83.5688C40.2531 83.5373 40.1868 83.5035 40.1227 83.4697C35.1674 81.1047 32.1345 78.7469 31.7382 78.4327C30.6916 77.6576 30.074 76.5226 29.9498 75.1434C29.8499 74.0145 30.1009 72.8335 30.5193 71.8247C29.4394 71.2115 28.2732 70.2526 27.5119 68.31L27.4727 68.2488C27.3895 68.0489 27.3198 67.8329 27.2684 67.6101C27.1592 67.2532 27.0635 66.8735 26.9838 66.48C26.4582 63.8894 27.0536 61.5064 28.6182 59.9446L28.6023 59.9515ZM90.1477 66.5148C91.6265 67.087 92.9567 67.6009 94.0903 68.0453L94.0972 68.0453L96.2891 68.9004L96.4589 68.296L93.9199 66.5434C92.686 66.5163 91.1896 66.461 89.7295 66.3555C89.8689 66.4093 90.0083 66.4632 90.1455 66.517L90.1477 66.5148ZM51.7996 87.9916L51.8201 87.987L57.5774 90.1994L57.5956 90.2062C61.9176 91.8689 66.1572 93.5002 68.8747 94.5459L51.8129 87.1103C50.3867 86.9613 48.9211 86.6941 47.432 86.3132C48.753 86.818 50.234 87.388 51.7973 87.9894L51.7996 87.9916ZM44.4426 85.1803C44.5294 85.2071 44.614 85.2362 44.6963 85.2677L44.8288 85.3193L43.8082 84.2936C43.9265 84.6481 44.1495 84.9565 44.4426 85.1826L44.4426 85.1803Z" fill="white"/>
<path d="M43.3124 88.8048L43.3252 88.8098C43.3252 88.8098 43.3175 88.8073 43.3124 88.8048Z" fill="white"/>
<path d="M40.1438 83.4945L40.2101 83.5237C40.1873 83.5148 40.1667 83.5035 40.1438 83.4945Z" fill="white"/>
<path d="M40.0576 83.4494L40.086 83.4657C40.086 83.4657 40.0671 83.4564 40.0576 83.4494Z" fill="white"/>
<path d="M41.9443 80.1507C41.9672 80.162 41.9832 80.1687 41.9992 80.1777L41.9443 80.1507Z" fill="white"/>
<path d="M41.9373 80.1465C41.9373 80.1465 41.9424 80.1465 41.9424 80.149L41.9373 80.149L41.9373 80.1465Z" fill="white"/>
<path d="M43.6512 53.8041L43.8911 53.8824C43.8134 53.8647 43.7335 53.8401 43.6512 53.8041Z" fill="white"/>
<path d="M32.2636 61.8097C37.9927 63.0887 46.4213 66.6636 55.4062 69.4042L55.4177 69.4087C68.0577 73.2512 79.9681 77.1296 79.9681 77.1296L80.5871 75.6984L64.247 68.4545C64.247 68.4545 63.9571 68.4038 63.4595 68.3292C61.3571 67.9723 55.6157 66.937 53.4851 65.6375C50.8602 64.0311 43.055 59.387 41.9996 58.2818C40.4534 56.6647 43.4305 51.6405 44.4021 52.0585C47.1583 52.6941 52.7564 54.5864 59.3149 56.94C59.3149 56.94 59.4063 56.9782 59.5846 57.0433C59.6509 57.0725 59.7332 57.1085 59.8291 57.133C68.3231 60.1655 78.3221 63.9866 85.8986 66.9037L85.9101 66.9082C88.8425 68.0483 91.4205 69.0401 93.3976 69.8144L97.5528 71.4394L98.6548 67.5029L94.5313 64.6549C94.5313 64.6549 86.608 64.5155 85.1803 63.7016C83.7367 62.8924 78.0324 56.36 78.636 52.6062C79.244 48.8433 81.5821 45.7423 82.4407 45.9264C82.9247 46.0306 85.969 48.7914 89.6102 52.2614L89.6171 52.2796C92.5038 55.0071 95.5706 57.7244 97.5375 58.7129C102.022 60.9189 114.789 65.3845 118.929 69.5554C118.991 69.6188 119.053 69.6822 119.112 69.7547C119.117 69.7547 119.122 69.7615 119.124 69.766C119.184 69.8363 119.241 69.9066 119.301 69.9814C119.356 70.0562 119.413 70.1333 119.469 70.2127C119.471 70.2127 119.473 70.2172 119.473 70.2217C119.531 70.3034 119.586 70.3873 119.639 70.4758C119.696 70.562 119.747 70.6528 119.798 70.7459C120.005 71.1136 120.19 71.5224 120.354 71.9633C120.396 72.0746 120.438 72.1859 120.475 72.3019C120.549 72.5132 120.619 72.7337 120.684 72.9587C120.798 73.352 120.9 73.7636 120.994 74.1912C121.041 74.4027 121.081 74.6188 121.123 74.8394C121.168 75.0782 121.21 75.3239 121.253 75.5742C121.286 75.7743 121.314 75.9768 121.343 76.1816C121.343 76.1839 121.341 76.1862 121.343 76.1885C121.374 76.4183 121.403 76.6504 121.431 76.8847C121.443 77.0008 121.458 77.1191 121.47 77.2375C121.484 77.3558 121.498 77.4718 121.506 77.5925C121.518 77.7108 121.528 77.8292 121.54 77.9475C121.584 78.4232 121.618 78.9012 121.646 79.3792C121.654 79.4976 121.659 79.6182 121.664 79.7389C121.672 79.8595 121.679 79.9847 121.684 80.1076C121.693 80.3421 121.703 80.5789 121.711 80.8111C121.714 80.9295 121.717 81.0502 121.722 81.1663C121.725 81.2847 121.726 81.4031 121.729 81.5192C121.73 81.6285 121.73 81.7401 121.738 81.8516C121.739 81.995 121.739 82.1385 121.742 82.2797C121.745 82.7055 121.747 83.1244 121.743 83.5366C121.744 83.7415 121.741 83.9442 121.735 84.1446C121.735 84.2129 121.733 84.2767 121.731 84.3427C121.728 84.5249 121.724 84.7048 121.718 84.8825C121.711 85.1558 121.703 85.4222 121.696 85.6796C121.69 85.8003 121.686 85.921 121.682 86.0395C121.68 86.0964 121.678 86.1556 121.676 86.2125C121.666 86.4471 121.656 86.6726 121.646 86.8913C121.572 88.3627 121.48 89.4608 121.437 89.9142C121.437 89.9438 121.435 89.9711 121.433 89.9962C121.424 90.0941 121.418 90.1488 121.418 90.1488C122.507 90.8348 123.694 91.3905 124.908 91.855C124.983 91.8842 125.063 91.9156 125.148 91.9447C125.228 91.9761 125.314 92.0075 125.403 92.0366C125.493 92.068 125.582 92.1016 125.678 92.1307C125.856 92.1912 126.043 92.2516 126.244 92.3119C126.489 92.3857 126.747 92.4616 127.019 92.5375C127.185 92.5844 127.359 92.6312 127.535 92.6803C127.818 92.7561 128.113 92.8341 128.419 92.9098C128.681 92.9766 128.951 93.0434 129.229 93.1101C129.736 93.2325 130.262 93.3548 130.805 93.4723C130.912 93.4968 131.02 93.5212 131.132 93.5456C131.346 93.5945 131.563 93.6411 131.787 93.6876C132.127 93.7631 132.47 93.8363 132.814 93.9072C133.129 93.9715 133.447 94.038 133.767 94.1045C133.792 94.1089 133.817 94.1133 133.844 94.1177C134.086 94.1687 141.378 95.8737 148.199 97.4676L148.321 118.94C137.649 115.951 112.502 109.562 112.502 109.562L102.368 115.328C98.493 115.263 89.8379 112.359 82.959 109.805C82.7693 109.737 82.5979 109.666 82.4311 109.61C77.2753 107.694 73.2429 106.016 73.2429 106.016L58.3824 100.301C58.3824 100.301 54.5932 100.48 51.2789 99.1596C47.9716 97.8508 43.5362 95.8859 42.7593 95.2186C41.0497 93.755 42.7856 86.6088 44.0149 87.039C45.8365 87.7368 48.3528 88.6971 51.1252 89.7675L51.1342 89.7583C59.8741 93.1174 71.1715 97.4662 71.1715 97.4662L72.7346 94.0371L72.6683 94.0079L52.4287 85.1877C50.0739 84.9711 47.7698 84.4195 45.6128 83.6894C45.6082 83.6773 45.6005 83.6743 45.5899 83.6804C44.0476 83.1518 42.5662 82.5295 41.2057 81.8996L41.1943 81.8952C41.1486 81.8749 41.1029 81.857 41.0639 81.823C41.0229 81.8233 40.9953 81.7938 40.9588 81.7781C35.8731 79.3569 32.8809 76.9328 32.8809 76.9328C30.7948 75.4259 32.2458 71.9223 33.2101 71.0561C31.5585 70.1615 29.2151 67.5266 29.2151 67.5266C28.4036 65.5774 30.3229 61.4177 32.2659 61.8097L32.2636 61.8097Z" fill="url(#paint1_linear_4105_133)"/>
<path d="M89.6099 52.2617L89.6169 52.2799C92.5036 55.0074 95.5704 57.7247 97.5372 58.7132C101.388 60.6108 111.352 64.1702 116.706 67.7831C109.048 66.9636 97.5526 71.442 97.5526 71.442L98.6545 67.5054L94.5311 64.6575C94.5311 64.6575 86.6077 64.5181 85.1801 63.7042C83.7365 62.8949 78.0322 56.3625 78.6357 52.6088C79.2438 48.8458 81.5819 45.7448 82.4404 45.9289C82.9245 46.0332 85.9687 48.7939 89.6099 52.264L89.6099 52.2617Z" fill="url(#paint2_linear_4105_133)"/>
<path d="M71.174 97.4681L73.2432 106.016L58.3827 100.301C58.3827 100.301 54.5935 100.479 51.2792 99.1592C47.9718 97.8505 43.6043 95.7872 42.7595 95.2182C39.7056 93.1612 41.549 86.0598 44.0152 87.0386C45.8278 87.757 48.3531 88.6967 51.1255 89.7671L51.1345 89.758C59.8744 93.1171 71.1717 97.4658 71.1717 97.4658L71.174 97.4681Z" fill="url(#paint3_linear_4105_133)"/>
<path d="M45.5902 83.6823C44.0478 83.1537 42.5665 82.5314 41.206 81.9015L41.1946 81.897C41.1488 81.8768 41.1031 81.8588 41.0642 81.8249C41.0231 81.8251 40.9956 81.7957 40.959 81.7799C35.8733 79.3587 32.8812 76.9347 32.8812 76.9347C30.795 75.4278 32.2461 71.9242 33.2104 71.058C31.5587 70.1634 29.6029 69.9058 28.8333 66.112C28.0754 62.3751 30.393 60.0666 32.3359 60.4586C38.0651 61.7376 46.4238 66.6655 55.4088 69.4084L55.4202 69.4129C68.0602 73.2553 79.9706 77.1338 79.9706 77.1338L72.6709 94.0143L52.4312 85.1941C50.0765 84.9775 47.7723 84.4259 45.6153 83.6958C45.6107 83.6837 45.6031 83.6807 45.5925 83.6868L45.5902 83.6823Z" fill="url(#paint4_linear_4105_133)"/>
<path d="M63.4616 68.3315C60.9541 68.9082 42.6965 63.358 41.5467 58.4597C40.5931 54.4006 43.4327 51.6428 44.4043 52.0608C47.1605 52.6964 52.7585 54.5887 59.317 56.9424C59.317 56.9424 59.4085 56.9805 59.5867 57.0456C59.653 57.0748 59.7353 57.1108 59.8312 57.1353L59.8929 57.1577C68.3755 60.1858 78.3448 63.9956 85.9008 66.9037L85.9122 66.9082L80.5892 75.6984L64.2491 68.4546C64.2491 68.4546 63.9672 68.2125 63.4616 68.3292L63.4616 68.3315Z" fill="url(#paint5_linear_4105_133)"/>
<g style="mix-blend-mode:multiply" opacity="0.6">
<path fill-rule="evenodd" clip-rule="evenodd" d="M100.819 93.5652C100.819 93.5652 95.8796 81.5908 97.5528 71.4369L93.4021 69.8119C93.4021 69.8119 80.2005 90.3329 82.143 99.4643C82.143 99.4643 90.0136 101.965 93.3337 101.099C96.6538 100.233 100.817 93.5653 100.817 93.5653L100.819 93.5652Z" fill="#F3BAC0"/>
</g>
<path style="mix-blend-mode:multiply" opacity="0.6" fill-rule="evenodd" clip-rule="evenodd" d="M59.5847 57.0456C59.4065 56.9806 59.315 56.9424 59.315 56.9424L59.8292 57.1353C59.7333 57.1085 59.651 57.0748 59.5847 57.0456Z" fill="url(#paint6_linear_4105_133)"/>
<g style="mix-blend-mode:multiply" opacity="0.2">
<path fill-rule="evenodd" clip-rule="evenodd" d="M85.7685 66.9659L85.7799 66.9704L81.2477 74.4514L81.2432 74.4582L80.4547 75.7606L67.2011 69.886L64.1123 68.5168C64.1123 68.5168 63.8224 68.4661 63.3248 68.3915C63.5376 68.1148 66.1742 64.568 66.7178 62.3038C67.1857 60.3565 61.6075 57.9586 59.7538 57.2199L85.7616 66.966L85.7685 66.9659Z" fill="#F3BAC0"/>
</g>
<g style="mix-blend-mode:multiply" opacity="0.2">
<path fill-rule="evenodd" clip-rule="evenodd" d="M79.8383 77.1942L72.5385 94.0725L52.9962 85.5557L52.2989 85.2523C49.9441 85.0357 47.64 84.4841 45.483 83.754C47.031 84.0708 48.8057 84.1473 50.6222 83.5677L51.4071 78.4216C51.4071 78.4216 35.7403 73.2734 33.0803 71.1184C33.0803 71.1184 44.6329 75.8232 51.9541 77.1592C51.9541 77.1592 58.2394 73.9766 55.2924 69.4733C57.8602 70.2534 60.396 71.036 62.8108 71.7873C72.2803 74.7301 79.8406 77.1942 79.8406 77.1942L79.8383 77.1942Z" fill="#D87290"/>
</g>
<path style="mix-blend-mode:multiply" opacity="0.6" fill-rule="evenodd" clip-rule="evenodd" d="M40.9591 81.7776C41.0347 81.825 41.1147 81.8587 41.1947 81.8947C41.0116 81.7842 40.8857 81.7006 40.833 81.6622L40.9591 81.7776Z" fill="url(#paint7_linear_4105_133)"/>
<g style="mix-blend-mode:multiply" opacity="0.2">
<path fill-rule="evenodd" clip-rule="evenodd" d="M71.1734 97.4688L71.6055 99.2606L71.6078 99.2606L73.2426 106.019L58.3821 100.304L59.9642 96.5898L51.1271 89.7701L51.1362 89.7609C52.9852 90.47 54.9485 91.2284 56.8957 91.9756L56.9049 91.9801C64.1568 94.7693 71.1734 97.471 71.1734 97.471L71.1734 97.4688Z" fill="#F3BAC0"/>
</g>
<g style="mix-blend-mode:multiply" opacity="0.3">
<path fill-rule="evenodd" clip-rule="evenodd" d="M97.5532 71.4375C97.5532 71.4375 95.4159 82.5937 99.8832 90.9685C99.8832 90.9685 92.7269 83.3491 93.4025 69.8125L97.5532 71.4375Z" fill="#D87290"/>
</g>
<g style="mix-blend-mode:multiply" opacity="0.6">
<path d="M119.47 90.1504C120.616 87.926 120.794 79.6045 120.681 72.9584C122.514 79.2578 121.413 90.1485 121.413 90.1485C121.48 90.1891 121.548 90.2342 121.617 90.2748C122.649 90.9065 123.765 91.4216 124.903 91.8569C126.784 92.6022 137.642 95.1318 148.194 97.4696L148.199 98.3394C136.593 96.2558 123.931 93.7729 121.107 92.4637C120.083 91.9891 119.437 91.4554 119.34 90.8548C119.304 90.6318 119.344 90.397 119.47 90.1527L119.47 90.1504Z" fill="#F3BAC0"/>
</g>
<g style="mix-blend-mode:multiply" opacity="0.5">
<path d="M120.684 72.9588C122.517 79.2582 121.416 90.1489 121.416 90.1489C121.482 90.1895 119.345 90.8529 119.345 90.8529L119.343 90.8529C119.307 90.6277 119.347 90.3952 119.473 90.1509C120.619 87.9265 120.797 79.605 120.684 72.9588Z" fill="#D87290"/>
</g>
<path style="mix-blend-mode:screen" d="M106.581 99.9516C108.251 101.308 114.842 85.962 114.267 77.597C113.867 71.7745 111.927 71.485 110.86 71.1768C109.793 70.8687 103.095 71.6491 101.256 76.307C99.4173 80.965 101.809 96.0667 106.584 99.9516L106.581 99.9516Z" fill="url(#paint8_linear_4105_133)"/>
<path style="mix-blend-mode:screen" d="M81.5203 78.2341C80.8156 77.4206 75.1779 89.8104 73.6432 96.2519C72.8303 99.6653 76.5501 107.338 77.7883 104.112C79.5704 99.4676 83.5381 80.5566 81.5203 78.2318L81.5203 78.2341Z" fill="url(#paint9_linear_4105_133)"/>
<g style="mix-blend-mode:soft-light" opacity="0.97">
<path d="M119.004 83.9598C119.004 83.9598 119.575 77.3735 119.399 76.047C119.223 74.7204 119.239 71.1544 117.982 70.2303C116.724 69.3061 106.668 63.7958 106.668 63.7958C106.668 63.7958 116.197 69.6985 117.685 71.5048C119.174 73.3112 119.004 83.9598 119.004 83.9598Z" fill="#F5FFFF"/>
</g>
<g style="mix-blend-mode:soft-light" opacity="0.97">
<path d="M148.304 116.463L148.311 117.681C134.072 113.866 115.593 108.57 115.593 108.57C115.593 108.57 134.123 113.257 148.304 116.463Z" fill="#F5FFFF"/>
</g>
<g style="mix-blend-mode:soft-light" opacity="0.97">
<path d="M87.2506 108.685C87.2506 108.685 96.1122 113 99.5169 113.381C102.922 113.762 107.402 110.355 107.402 110.355C107.402 110.355 103.562 112.463 98.913 111.854C94.2641 111.245 87.2484 108.685 87.2484 108.685L87.2506 108.685Z" fill="#F5FFFF"/>
</g>
<g style="mix-blend-mode:soft-light" opacity="0.97">
<path d="M44.5908 52.7676C44.5908 52.7676 43.818 57.6358 44.5305 60.6034C44.5305 60.6034 42.4955 58.8707 42.4543 56.842C42.4131 54.8134 44.5908 52.7676 44.5908 52.7676Z" fill="#F5EE8F"/>
</g>
<g style="mix-blend-mode:soft-light" opacity="0.97">
<path d="M45.7611 61.2776C45.7611 61.2776 56.5604 65.8659 62.9998 66.1322C62.9998 66.1322 57.1977 66.4544 52.1574 64.7866C47.1171 63.1188 45.7611 61.2776 45.7611 61.2776Z" fill="#F5FFFF"/>
</g>
<g style="mix-blend-mode:soft-light" opacity="0.97">
<path d="M43.5941 88.0619C43.5941 88.0619 42.9864 91.8795 43.5469 94.2057C43.5469 94.2057 42.0203 92.8368 41.9201 91.2571C41.7799 89.065 43.4951 87.5069 43.5963 88.0619L43.5941 88.0619Z" fill="#F5EE8F"/>
</g>
<g style="mix-blend-mode:soft-light" opacity="0.97">
<path d="M44.5108 94.735C44.5108 94.735 52.9806 98.3347 58.0309 98.5428C58.0309 98.5428 53.4804 98.7964 49.5276 97.4868C45.5749 96.1771 44.5108 94.735 44.5108 94.735Z" fill="#F5FFFF"/>
</g>
<g style="mix-blend-mode:soft-light" opacity="0.97">
<path d="M31.7979 61.3701C31.7979 61.3701 31.2244 66.4103 31.8045 69.3558C31.8045 69.3558 29.9205 67.6951 29.9522 65.6661C29.9818 63.637 31.7979 61.3701 31.7979 61.3701Z" fill="#F5EE8F"/>
</g>
<g style="mix-blend-mode:soft-light" opacity="0.97">
<path d="M33.1888 71.6295C32.9539 72.0316 32.751 72.454 32.6303 72.8737C32.1204 74.6572 33.1855 76.277 33.1855 76.277C33.2997 75.0968 33.6946 73.5644 34.0953 72.2323C33.7705 72.0634 33.4683 71.8602 33.1887 71.6272L33.1888 71.6295Z" fill="#F5EE8F"/>
</g>
<g style="mix-blend-mode:soft-light" opacity="0.97">
<path d="M34.0668 76.5228C34.0668 76.5228 43.3105 81.8783 49.2759 83.3996C49.2759 83.3996 43.9093 82.4943 39.2137 80.089C34.5158 77.6838 34.0668 76.5228 34.0668 76.5228Z" fill="#F5FFFF"/>
</g>
<g style="mix-blend-mode:soft-light" opacity="0.97">
<path d="M82.3018 47.5938C82.3018 47.5938 80.1752 51.0124 79.5365 53.3955C79.5365 53.3955 79.3927 50.9508 80.075 49.4349C80.7574 47.919 82.2995 47.5938 82.2995 47.5938L82.3018 47.5938Z" fill="#F5EE8F"/>
</g>
<g style="mix-blend-mode:soft-light" opacity="0.97">
<path d="M82.9989 48.257C82.9989 48.257 89.2921 54.8885 90.9989 59.877C90.9989 59.877 89.9253 55.1468 87.3797 51.855C84.8342 48.5631 82.9989 48.257 82.9989 48.257Z" fill="#F5FFFF"/>
</g>
<g style="mix-blend-mode:soft-light" opacity="0.97">
<path d="M148.204 98.891L148.208 99.6015C137.429 97.4335 125.77 94.7377 120.6 92.3648C120.6 92.3648 134.811 95.7952 148.204 98.891Z" fill="#F5FFFF"/>
</g>
<path fill-rule="evenodd" clip-rule="evenodd" d="M58.6519 79.571L76.4991 85.1531L75.9589 86.3995C71.6756 83.5092 65.437 82.0805 58.6519 79.571Z" fill="#B24D61"/>
<g style="mix-blend-mode:multiply" opacity="0.3">
<path fill-rule="evenodd" clip-rule="evenodd" d="M58.6521 79.5708L76.4994 85.1529L74.5163 89.7389C73.5571 89.0908 73.1543 86.4312 73.1543 86.4312L50.7179 77.5096L58.6521 79.5685L58.6521 79.5708Z" fill="#D87290"/>
</g>
<g style="mix-blend-mode:multiply" opacity="0.3">
<path fill-rule="evenodd" clip-rule="evenodd" d="M83.0161 71.6903L81.3781 74.398L80.5896 75.7004L64.2495 68.4543C72.0053 70.817 80.1094 73.4761 83.0161 71.6903Z" fill="#D87290"/>
</g>
<g style="mix-blend-mode:multiply" opacity="0.3">
<path fill-rule="evenodd" clip-rule="evenodd" d="M56.9047 91.9779C64.1567 94.7671 71.1733 97.4688 71.1733 97.4688L71.6054 99.2607C67.9371 97.0431 62.6389 94.548 56.9047 91.9779Z" fill="#D87290"/>
</g>
<g style="mix-blend-mode:multiply" opacity="0.3">
<path fill-rule="evenodd" clip-rule="evenodd" d="M73.6697 91.6956L72.668 94.0103L53.1257 85.4936C60.3109 88.167 67.1827 90.2752 73.6697 91.6956Z" fill="#D87290"/>
</g>
<g style="mix-blend-mode:multiply" opacity="0.31">
<path d="M97.9868 113.258C97.9868 113.258 105.02 108.816 110.343 97.6714C115.668 86.5222 115.27 72.2084 115.27 72.2084C108.087 67.0507 97.5529 71.4416 97.5529 71.4416L98.6548 67.5051L94.5314 64.6571C94.5314 64.6571 86.608 64.5177 85.1804 63.7038C87.9343 63.9409 91.8076 60.8949 92.1561 60.0208C92.4956 59.1718 89.7905 52.6907 89.6149 52.2818C92.5016 55.0093 95.5684 57.7266 97.5353 58.7151C102.02 60.9211 114.787 65.3868 118.927 69.5576C118.989 69.621 119.051 69.6844 119.11 69.7569C119.115 69.7569 119.119 69.7637 119.122 69.7683C119.181 69.8385 119.239 69.9088 119.299 69.9836C119.354 70.0584 119.411 70.1355 119.466 70.2149C119.469 70.2149 119.471 70.2194 119.471 70.224C119.528 70.3056 119.584 70.3896 119.637 70.4781C119.694 70.5643 119.745 70.6551 119.795 70.7481C120.003 71.1158 120.188 71.5247 120.352 71.9655C120.394 72.0768 120.435 72.1882 120.473 72.3041C120.547 72.5154 120.616 72.7359 120.682 72.961C120.796 73.3543 120.898 73.7658 120.992 74.1934C121.039 74.4049 121.079 74.621 121.121 74.8416C121.166 75.0805 121.208 75.3261 121.251 75.5764C121.281 75.7743 121.312 75.9791 121.341 76.1838C121.341 76.1861 121.338 76.1884 121.341 76.1907C121.372 76.4205 121.4 76.6526 121.429 76.887C121.441 77.003 121.455 77.1213 121.468 77.2397C121.482 77.358 121.496 77.4741 121.504 77.5947C121.516 77.713 121.526 77.8314 121.538 77.9497C121.581 78.4254 121.616 78.9034 121.644 79.3814C121.651 79.4998 121.657 79.6204 121.662 79.7411C121.669 79.8617 121.677 79.9869 121.682 80.1099C121.69 80.3444 121.701 80.5811 121.709 80.8133C121.712 80.9317 121.715 81.0524 121.72 81.1685C121.723 81.2869 121.724 81.4053 121.727 81.5214C121.727 81.6307 121.728 81.7423 121.736 81.8538C121.736 81.9973 121.737 82.1407 121.74 82.2819C121.743 82.7077 121.745 83.1266 121.741 83.5388C121.742 83.7438 121.738 83.9464 121.733 84.1468C121.733 84.2152 121.731 84.2789 121.729 84.345C121.726 84.5272 121.722 84.7071 121.716 84.8847C121.709 85.158 121.701 85.4245 121.693 85.6818C121.687 85.8025 121.683 85.9232 121.68 86.0417C121.678 86.0986 121.676 86.1578 121.674 86.2148C121.664 86.4494 121.653 86.6749 121.643 86.8935C121.57 88.3649 121.478 89.463 121.435 89.9164C121.435 89.946 121.433 89.9733 121.431 89.9984C121.422 90.0964 121.416 90.151 121.416 90.151C122.505 90.8371 123.692 91.3928 124.905 91.8572C124.981 91.8864 125.061 91.9178 125.145 91.9469C125.225 91.9784 125.312 92.0098 125.401 92.0388C125.49 92.0702 125.579 92.1039 125.675 92.1329C125.854 92.1934 126.041 92.2538 126.242 92.3141C126.486 92.3879 126.745 92.4639 127.016 92.5397C127.183 92.5866 127.357 92.6334 127.533 92.6825C127.816 92.7583 128.11 92.8364 128.416 92.912C128.679 92.9789 128.953 93.0433 129.227 93.1124C129.734 93.2347 130.259 93.357 130.803 93.4746C130.91 93.499 131.02 93.5212 131.129 93.5479C131.346 93.5944 131.565 93.6433 131.785 93.6899C132.125 93.7653 132.467 93.8385 132.812 93.9095C133.127 93.9737 133.445 94.0402 133.764 94.1067C133.789 94.1111 133.815 94.1155 133.842 94.1199C134.084 94.1709 141.375 95.876 148.196 97.4699L148.318 118.942C137.647 115.954 112.5 109.564 112.5 109.564L102.366 115.33C98.4908 115.266 89.8357 112.361 82.9567 109.807C87.9817 111.577 97.9868 113.258 97.9868 113.258Z" fill="#D87290"/>
</g>
<g style="mix-blend-mode:multiply" opacity="0.3">
<path fill-rule="evenodd" clip-rule="evenodd" d="M79.8389 77.194L76.9555 83.8617C76.6797 83.4853 77.1671 79.7754 77.1671 79.7754L72.5777 76.3813L62.8091 71.7871C72.2786 74.7299 79.8389 77.194 79.8389 77.194Z" fill="#D87290"/>
</g>
<path fill-rule="evenodd" clip-rule="evenodd" d="M58.9734 85.5994C59.2156 86.0916 59.014 86.6858 58.5228 86.9275C58.0297 87.1699 57.4351 86.9692 57.1929 86.4769C56.9508 85.9847 57.1523 85.3905 57.6436 85.1488C58.1366 84.9064 58.7313 85.1071 58.9734 85.5994Z" fill="white"/>
<path style="mix-blend-mode:screen" opacity="0.61" fill-rule="evenodd" clip-rule="evenodd" d="M61.6698 84.2687C62.6461 86.2471 61.8321 88.6412 59.853 89.6195C57.8714 90.5967 55.4754 89.7861 54.498 87.8102C53.5217 85.8319 54.3356 83.4377 56.3147 82.4594C58.2963 81.4822 60.6923 82.2928 61.6698 84.2687Z" fill="url(#paint10_radial_4105_133)"/>
<path style="mix-blend-mode:screen" opacity="0.61" fill-rule="evenodd" clip-rule="evenodd" d="M59.7583 85.2124C60.2149 86.1354 59.8351 87.2551 58.9099 87.7103C57.9854 88.1674 56.8648 87.7891 56.4099 86.8654C55.9533 85.9424 56.3332 84.8227 57.2584 84.3674C58.1829 83.9104 59.3035 84.2887 59.7583 85.2124Z" fill="url(#paint11_radial_4105_133)"/>
<path fill-rule="evenodd" clip-rule="evenodd" d="M85.9163 108.91C86.0079 109.096 85.9322 109.318 85.7466 109.41C85.561 109.502 85.3382 109.426 85.2466 109.241C85.155 109.056 85.2307 108.833 85.4163 108.741C85.6019 108.65 85.8247 108.725 85.9163 108.91Z" fill="white"/>
<path style="mix-blend-mode:screen" opacity="0.61" fill-rule="evenodd" clip-rule="evenodd" d="M86.9297 108.411C87.2968 109.154 86.9915 110.054 86.2472 110.421C85.5029 110.788 84.6026 110.484 84.2355 109.741C83.8684 108.998 84.1737 108.099 84.918 107.731C85.6623 107.364 86.5626 107.668 86.9297 108.411Z" fill="url(#paint12_radial_4105_133)"/>
<path style="mix-blend-mode:screen" opacity="0.61" fill-rule="evenodd" clip-rule="evenodd" d="M86.2108 108.764C86.3826 109.11 86.2388 109.532 85.892 109.704C85.5453 109.876 85.1233 109.733 84.9515 109.386C84.7797 109.04 84.9235 108.618 85.2703 108.447C85.617 108.275 86.0391 108.418 86.2108 108.764Z" fill="url(#paint13_radial_4105_133)"/>
<path fill-rule="evenodd" clip-rule="evenodd" d="M94.7759 94.458C94.9511 94.8132 94.8047 95.2441 94.4489 95.4195C94.0932 95.5949 93.6619 95.449 93.4867 95.0939C93.3115 94.7387 93.458 94.3077 93.8137 94.1324C94.1694 93.957 94.6007 94.1028 94.7759 94.458Z" fill="white"/>
<path style="mix-blend-mode:screen" opacity="0.61" fill-rule="evenodd" clip-rule="evenodd" d="M96.7299 93.494C97.4374 94.9265 96.8471 96.6603 95.4147 97.3695C93.9799 98.0776 92.2429 97.4905 91.5361 96.0598C90.8287 94.6272 91.4183 92.8916 92.8513 92.1842C94.2862 91.4761 96.0214 92.064 96.7299 93.494Z" fill="url(#paint14_radial_4105_133)"/>
<path style="mix-blend-mode:screen" opacity="0.61" fill-rule="evenodd" clip-rule="evenodd" d="M95.3448 94.1768C95.6751 94.8454 95.3995 95.6554 94.7298 95.986C94.0601 96.3166 93.2495 96.0421 92.9192 95.3735C92.5889 94.7049 92.8645 93.8949 93.5342 93.5643C94.2039 93.2337 95.0145 93.5082 95.3448 94.1768Z" fill="url(#paint15_radial_4105_133)"/>
<path fill-rule="evenodd" clip-rule="evenodd" d="M75.1461 109.534C75.3213 109.889 75.1748 110.32 74.8191 110.496C74.4633 110.671 74.032 110.525 73.8568 110.17C73.6816 109.815 73.8281 109.384 74.1838 109.209C74.5395 109.033 74.9708 109.179 75.1461 109.534Z" fill="white"/>
<path style="mix-blend-mode:screen" opacity="0.61" d="M75.5045 112.564C74.004 113.117 72.3402 112.351 71.7882 110.853C71.2362 109.354 72.0052 107.692 73.5057 107.139C75.0062 106.586 76.6701 107.352 77.2221 108.851C77.774 110.349 77.0051 112.012 75.5045 112.564Z" fill="url(#paint16_radial_4105_133)"/>
<path style="mix-blend-mode:screen" opacity="0.61" fill-rule="evenodd" clip-rule="evenodd" d="M75.713 109.253C76.0433 109.922 75.7676 110.732 75.098 111.062C74.4283 111.393 73.6176 111.118 73.2873 110.45C72.957 109.781 73.2327 108.971 73.9024 108.64C74.572 108.31 75.3827 108.584 75.713 109.253Z" fill="url(#paint17_radial_4105_133)"/>
<path fill-rule="evenodd" clip-rule="evenodd" d="M71.0311 96.7523C71.1522 96.9985 71.0511 97.2946 70.8053 97.4176C70.5587 97.5388 70.2623 97.4381 70.1394 97.1927C70.0184 96.9466 70.1195 96.6504 70.3653 96.5274C70.6118 96.4062 70.9083 96.5069 71.0311 96.7523Z" fill="white"/>
<path style="mix-blend-mode:screen" opacity="0.61" fill-rule="evenodd" clip-rule="evenodd" d="M72.3769 96.086C72.865 97.0752 72.4593 98.2728 71.4685 98.7614C70.4777 99.25 69.2791 98.846 68.791 97.8568C68.3028 96.8676 68.7085 95.67 69.6993 95.1814C70.6901 94.6928 71.8887 95.0968 72.3769 96.086Z" fill="url(#paint18_radial_4105_133)"/>
<path style="mix-blend-mode:screen" opacity="0.61" fill-rule="evenodd" clip-rule="evenodd" d="M71.4229 96.5587C71.6516 97.0211 71.4613 97.5801 70.9982 97.809C70.535 98.0378 69.9756 97.8483 69.747 97.3859C69.5183 96.9236 69.7086 96.3646 70.1717 96.1357C70.6349 95.9069 71.1943 96.0963 71.4229 96.5587Z" fill="url(#paint19_radial_4105_133)"/>
<path fill-rule="evenodd" clip-rule="evenodd" d="M84.8842 92.2182C84.9591 92.3707 84.8965 92.5574 84.7437 92.6324C84.5891 92.7081 84.404 92.6451 84.3291 92.4925C84.2542 92.34 84.3168 92.1533 84.4696 92.0783C84.6224 92.0033 84.8092 92.0656 84.8842 92.2182Z" fill="white"/>
<path style="mix-blend-mode:screen" opacity="0.61" fill-rule="evenodd" clip-rule="evenodd" d="M85.7235 91.802C86.0278 92.4187 85.7738 93.1669 85.1561 93.4714C84.5383 93.776 83.7896 93.5231 83.4853 92.9063C83.181 92.2895 83.435 91.5414 84.0528 91.2368C84.6705 90.9323 85.4193 91.1852 85.7235 91.802Z" fill="url(#paint20_radial_4105_133)"/>
<path style="mix-blend-mode:screen" opacity="0.61" fill-rule="evenodd" clip-rule="evenodd" d="M85.1286 92.0954C85.2716 92.3826 85.1521 92.7332 84.8638 92.8745C84.5762 93.0176 84.2253 92.8987 84.0841 92.6108C83.9411 92.3236 84.0606 91.973 84.3489 91.8317C84.6366 91.6886 84.9874 91.8076 85.1286 92.0954Z" fill="url(#paint21_radial_4105_133)"/>
<path fill-rule="evenodd" clip-rule="evenodd" d="M78.9303 110.38C79.0413 110.605 78.9484 110.88 78.7228 110.991C78.4971 111.102 78.2224 111.01 78.1114 110.784C78.0004 110.559 78.0933 110.285 78.3189 110.173C78.5445 110.062 78.8193 110.155 78.9303 110.38Z" fill="white"/>
<path style="mix-blend-mode:screen" opacity="0.61" fill-rule="evenodd" clip-rule="evenodd" d="M80.1687 109.768C80.618 110.677 80.2428 111.777 79.3338 112.226C78.4248 112.675 77.3227 112.302 76.874 111.394C76.4254 110.487 76.8 109.386 77.709 108.937C78.618 108.487 79.7201 108.86 80.1687 109.768Z" fill="url(#paint22_radial_4105_133)"/>
<path style="mix-blend-mode:screen" opacity="0.61" fill-rule="evenodd" clip-rule="evenodd" d="M79.289 110.202C79.4989 110.626 79.3244 111.14 78.8994 111.35C78.4745 111.56 77.9602 111.386 77.7503 110.962C77.5404 110.538 77.715 110.024 78.1399 109.814C78.5649 109.604 79.0791 109.777 79.289 110.202Z" fill="url(#paint23_radial_4105_133)"/>
<g style="mix-blend-mode:screen" opacity="0.61">
<path fill-rule="evenodd" clip-rule="evenodd" d="M83.0541 109.718C83.129 109.871 83.0664 110.057 82.9136 110.132C82.7608 110.207 82.574 110.145 82.499 109.993C82.4241 109.84 82.4867 109.653 82.6395 109.578C82.7923 109.503 82.9792 109.566 83.0541 109.718Z" fill="white"/>
<path style="mix-blend-mode:screen" opacity="0.61" fill-rule="evenodd" clip-rule="evenodd" d="M83.8954 109.303C84.1997 109.92 83.9457 110.668 83.3279 110.972C82.7102 111.277 81.9614 111.024 81.6572 110.407C81.3529 109.791 81.6069 109.042 82.2246 108.738C82.8424 108.433 83.5911 108.686 83.8954 109.303Z" fill="url(#paint24_radial_4105_133)"/>
<path style="mix-blend-mode:screen" opacity="0.61" fill-rule="evenodd" clip-rule="evenodd" d="M83.3005 109.596C83.4435 109.884 83.324 110.234 83.0357 110.376C82.748 110.519 82.3972 110.4 82.256 110.112C82.113 109.825 82.2325 109.474 82.5208 109.333C82.8084 109.19 83.1593 109.309 83.3005 109.596Z" fill="url(#paint25_radial_4105_133)"/>
</g>
<path fill-rule="evenodd" clip-rule="evenodd" d="M86.5853 79.7397C86.6603 79.8922 86.5977 80.0789 86.4449 80.1539C86.2902 80.2296 86.1052 80.1666 86.0303 80.014C85.9553 79.8615 86.0179 79.6748 86.1708 79.5998C86.3236 79.5248 86.5104 79.5871 86.5853 79.7397Z" fill="white"/>
<path style="mix-blend-mode:screen" opacity="0.61" fill-rule="evenodd" clip-rule="evenodd" d="M87.4257 79.3225C87.73 79.9392 87.476 80.6874 86.8582 80.9919C86.2405 81.2965 85.4917 81.0436 85.1875 80.4268C84.8832 79.81 85.1372 79.0619 85.7549 78.7573C86.3727 78.4528 87.1214 78.7057 87.4257 79.3225Z" fill="url(#paint26_radial_4105_133)"/>
<path style="mix-blend-mode:screen" opacity="0.61" fill-rule="evenodd" clip-rule="evenodd" d="M86.8288 79.6169C86.9718 79.9041 86.8523 80.2547 86.564 80.396C86.2764 80.5391 85.9255 80.4201 85.7843 80.1323C85.6413 79.8451 85.7608 79.4945 86.0491 79.3532C86.3368 79.2101 86.6876 79.3291 86.8288 79.6169Z" fill="url(#paint27_radial_4105_133)"/>
<path fill-rule="evenodd" clip-rule="evenodd" d="M80.4268 114.985C80.4882 115.108 80.438 115.257 80.3144 115.317C80.1915 115.378 80.0423 115.328 79.9827 115.205C79.9213 115.082 79.9715 114.933 80.0951 114.873C80.218 114.812 80.3671 114.862 80.4268 114.985Z" fill="white"/>
<path style="mix-blend-mode:screen" opacity="0.61" fill-rule="evenodd" clip-rule="evenodd" d="M81.1023 114.653C81.3469 115.146 81.1431 115.745 80.6472 115.991C80.153 116.236 79.5534 116.033 79.3081 115.538C79.0634 115.044 79.2672 114.445 79.7632 114.2C80.2573 113.955 80.8569 114.158 81.1023 114.653Z" fill="url(#paint28_radial_4105_133)"/>
<path style="mix-blend-mode:screen" opacity="0.61" fill-rule="evenodd" clip-rule="evenodd" d="M80.6232 114.89C80.7363 115.121 80.6411 115.4 80.4108 115.515C80.1798 115.628 79.9001 115.534 79.7852 115.304C79.6721 115.073 79.7672 114.793 79.9976 114.678C80.2286 114.565 80.5083 114.66 80.6232 114.89Z" fill="url(#paint29_radial_4105_133)"/>
<defs>
<radialGradient id="paint0_radial_4105_133" cx="0" cy="0" r="1" gradientUnits="userSpaceOnUse" gradientTransform="translate(43.9938 192.497) rotate(20.9049) scale(310.464 310.118)">
<stop stop-color="#E7E5F0"/>
<stop offset="0.17" stop-color="#E2DFEC"/>
<stop offset="0.37" stop-color="#D6D0E1"/>
<stop offset="0.59" stop-color="#C3B7CF"/>
<stop offset="0.82" stop-color="#A795B7"/>
<stop offset="1" stop-color="#8E75A0"/>
</radialGradient>
<linearGradient id="paint1_linear_4105_133" x1="189.192" y1="125.469" x2="32.405" y2="57.6664" gradientUnits="userSpaceOnUse">
<stop offset="0.02" stop-color="#FFB880"/>
<stop offset="1" stop-color="#FF8777"/>
</linearGradient>
<linearGradient id="paint2_linear_4105_133" x1="106.993" y1="84.711" x2="93.756" y2="51.3009" gradientUnits="userSpaceOnUse">
<stop stop-color="#FF8777"/>
<stop offset="0.98" stop-color="#FFB880"/>
</linearGradient>
<linearGradient id="paint3_linear_4105_133" x1="74.1529" y1="104.062" x2="41.2796" y2="89.8462" gradientUnits="userSpaceOnUse">
<stop stop-color="#FF8777"/>
<stop offset="0.98" stop-color="#FFB880"/>
</linearGradient>
<linearGradient id="paint4_linear_4105_133" x1="76.0454" y1="86.3482" x2="27.8854" y2="65.5214" gradientUnits="userSpaceOnUse">
<stop stop-color="#FF8777"/>
<stop offset="0.98" stop-color="#FFB880"/>
</linearGradient>
<linearGradient id="paint5_linear_4105_133" x1="83.4964" y1="72.6334" x2="41.8047" y2="54.6038" gradientUnits="userSpaceOnUse">
<stop stop-color="#FF8777"/>
<stop offset="0.98" stop-color="#FFB880"/>
</linearGradient>
<linearGradient id="paint6_linear_4105_133" x1="59.8189" y1="57.3035" x2="59.3146" y2="57.0854" gradientUnits="userSpaceOnUse">
<stop stop-color="#B060F4"/>
<stop offset="1" stop-color="#FFEADB"/>
</linearGradient>
<linearGradient id="paint7_linear_4105_133" x1="41.1497" y1="82.0186" x2="40.7605" y2="81.8503" gradientUnits="userSpaceOnUse">
<stop stop-color="#FFEADB"/>
<stop offset="0.99" stop-color="#B060F4"/>
</linearGradient>
<linearGradient id="paint8_linear_4105_133" x1="99.869" y1="96.349" x2="113.093" y2="72.283" gradientUnits="userSpaceOnUse">
<stop/>
<stop offset="0.04" stop-color="#0B0300"/>
<stop offset="0.4" stop-color="#6A1E00"/>
<stop offset="0.69" stop-color="#B03200"/>
<stop offset="0.89" stop-color="#DB3F00"/>
<stop offset="1" stop-color="#EC4400"/>
</linearGradient>
<linearGradient id="paint9_linear_4105_133" x1="67.0185" y1="70.2953" x2="54.6693" y2="92.7702" gradientUnits="userSpaceOnUse">
<stop/>
<stop offset="0.04" stop-color="#0B0300"/>
<stop offset="0.4" stop-color="#6A1E00"/>
<stop offset="0.69" stop-color="#B03200"/>
<stop offset="0.89" stop-color="#DB3F00"/>
<stop offset="1" stop-color="#EC4400"/>
</linearGradient>
<radialGradient id="paint10_radial_4105_133" cx="0" cy="0" r="1" gradientUnits="userSpaceOnUse" gradientTransform="translate(58.1049 86.0265) rotate(153.723) scale(3.9993 3.99336)">
<stop stop-color="#FF7EFF"/>
<stop offset="0.13" stop-color="#CE66CE"/>
<stop offset="0.31" stop-color="#904790"/>
<stop offset="0.48" stop-color="#5D2D5D"/>
<stop offset="0.64" stop-color="#341A34"/>
<stop offset="0.78" stop-color="#170B17"/>
<stop offset="0.91" stop-color="#060306"/>
<stop offset="1"/>
</radialGradient>
<radialGradient id="paint11_radial_4105_133" cx="0" cy="0" r="1" gradientUnits="userSpaceOnUse" gradientTransform="translate(58.1051 86.0259) rotate(153.723) scale(1.86865 1.86588)">
<stop stop-color="#FF7EFF"/>
<stop offset="0.13" stop-color="#CE66CE"/>
<stop offset="0.31" stop-color="#904790"/>
<stop offset="0.48" stop-color="#5D2D5D"/>
<stop offset="0.64" stop-color="#341A34"/>
<stop offset="0.78" stop-color="#170B17"/>
<stop offset="0.91" stop-color="#060306"/>
<stop offset="1"/>
</radialGradient>
<radialGradient id="paint12_radial_4105_133" cx="0" cy="0" r="1" gradientUnits="userSpaceOnUse" gradientTransform="translate(85.6043 109.062) rotate(153.723) scale(1.50263 1.50039)">
<stop stop-color="#FF7EFF"/>
<stop offset="0.13" stop-color="#CE66CE"/>
<stop offset="0.31" stop-color="#904790"/>
<stop offset="0.48" stop-color="#5D2D5D"/>
<stop offset="0.64" stop-color="#341A34"/>
<stop offset="0.78" stop-color="#170B17"/>
<stop offset="0.91" stop-color="#060306"/>
<stop offset="1"/>
</radialGradient>
<radialGradient id="paint13_radial_4105_133" cx="0" cy="0" r="1" gradientUnits="userSpaceOnUse" gradientTransform="translate(85.6041 109.062) rotate(153.723) scale(0.701224 0.700185)">
<stop stop-color="#FF7EFF"/>
<stop offset="0.13" stop-color="#CE66CE"/>
<stop offset="0.31" stop-color="#904790"/>
<stop offset="0.48" stop-color="#5D2D5D"/>
<stop offset="0.64" stop-color="#341A34"/>
<stop offset="0.78" stop-color="#170B17"/>
<stop offset="0.91" stop-color="#060306"/>
<stop offset="1"/>
</radialGradient>
<radialGradient id="paint14_radial_4105_133" cx="0" cy="0" r="1" gradientUnits="userSpaceOnUse" gradientTransform="translate(94.1541 94.7633) rotate(153.723) scale(2.89545 2.89114)">
<stop stop-color="#FF7EFF"/>
<stop offset="0.13" stop-color="#CE66CE"/>
<stop offset="0.31" stop-color="#904790"/>
<stop offset="0.48" stop-color="#5D2D5D"/>
<stop offset="0.64" stop-color="#341A34"/>
<stop offset="0.78" stop-color="#170B17"/>
<stop offset="0.91" stop-color="#060306"/>
<stop offset="1"/>
</radialGradient>
<radialGradient id="paint15_radial_4105_133" cx="0" cy="0" r="1" gradientUnits="userSpaceOnUse" gradientTransform="translate(94.1537 94.7634) rotate(153.723) scale(1.35236 1.35036)">
<stop stop-color="#FF7EFF"/>
<stop offset="0.13" stop-color="#CE66CE"/>
<stop offset="0.31" stop-color="#904790"/>
<stop offset="0.48" stop-color="#5D2D5D"/>
<stop offset="0.64" stop-color="#341A34"/>
<stop offset="0.78" stop-color="#170B17"/>
<stop offset="0.91" stop-color="#060306"/>
<stop offset="1"/>
</radialGradient>
<radialGradient id="paint16_radial_4105_133" cx="0" cy="0" r="1" gradientUnits="userSpaceOnUse" gradientTransform="translate(74.519 109.813) rotate(153.723) scale(2.89544 2.89114)">
<stop stop-color="#FF7EFF"/>
<stop offset="0.13" stop-color="#CE66CE"/>
<stop offset="0.31" stop-color="#904790"/>
<stop offset="0.48" stop-color="#5D2D5D"/>
<stop offset="0.64" stop-color="#341A34"/>
<stop offset="0.78" stop-color="#170B17"/>
<stop offset="0.91" stop-color="#060306"/>
<stop offset="1"/>
</radialGradient>
<radialGradient id="paint17_radial_4105_133" cx="0" cy="0" r="1" gradientUnits="userSpaceOnUse" gradientTransform="translate(74.5229 109.839) rotate(153.723) scale(1.35236 1.35036)">
<stop stop-color="#FF7EFF"/>
<stop offset="0.13" stop-color="#CE66CE"/>
<stop offset="0.31" stop-color="#904790"/>
<stop offset="0.48" stop-color="#5D2D5D"/>
<stop offset="0.64" stop-color="#341A34"/>
<stop offset="0.78" stop-color="#170B17"/>
<stop offset="0.91" stop-color="#060306"/>
<stop offset="1"/>
</radialGradient>
<radialGradient id="paint18_radial_4105_133" cx="0" cy="0" r="1" gradientUnits="userSpaceOnUse" gradientTransform="translate(70.6064 96.9579) rotate(153.723) scale(1.99965 1.99668)">
<stop stop-color="#FF7EFF"/>
<stop offset="0.13" stop-color="#CE66CE"/>
<stop offset="0.31" stop-color="#904790"/>
<stop offset="0.48" stop-color="#5D2D5D"/>
<stop offset="0.64" stop-color="#341A34"/>
<stop offset="0.78" stop-color="#170B17"/>
<stop offset="0.91" stop-color="#060306"/>
<stop offset="1"/>
</radialGradient>
<radialGradient id="paint19_radial_4105_133" cx="0" cy="0" r="1" gradientUnits="userSpaceOnUse" gradientTransform="translate(70.6062 96.9583) rotate(153.723) scale(0.934326 0.932938)">
<stop stop-color="#FF7EFF"/>
<stop offset="0.13" stop-color="#CE66CE"/>
<stop offset="0.31" stop-color="#904790"/>
<stop offset="0.48" stop-color="#5D2D5D"/>
<stop offset="0.64" stop-color="#341A34"/>
<stop offset="0.78" stop-color="#170B17"/>
<stop offset="0.91" stop-color="#060306"/>
<stop offset="1"/>
</radialGradient>
<radialGradient id="paint20_radial_4105_133" cx="0" cy="0" r="1" gradientUnits="userSpaceOnUse" gradientTransform="translate(84.627 92.3431) rotate(153.723) scale(1.24834 1.24648)">
<stop stop-color="#FF7EFF"/>
<stop offset="0.13" stop-color="#CE66CE"/>
<stop offset="0.31" stop-color="#904790"/>
<stop offset="0.48" stop-color="#5D2D5D"/>
<stop offset="0.64" stop-color="#341A34"/>
<stop offset="0.78" stop-color="#170B17"/>
<stop offset="0.91" stop-color="#060306"/>
<stop offset="1"/>
</radialGradient>
<radialGradient id="paint21_radial_4105_133" cx="0" cy="0" r="1" gradientUnits="userSpaceOnUse" gradientTransform="translate(84.6271 92.3427) rotate(153.723) scale(0.583713 0.582847)">
<stop stop-color="#FF7EFF"/>
<stop offset="0.13" stop-color="#CE66CE"/>
<stop offset="0.31" stop-color="#904790"/>
<stop offset="0.48" stop-color="#5D2D5D"/>
<stop offset="0.64" stop-color="#341A34"/>
<stop offset="0.78" stop-color="#170B17"/>
<stop offset="0.91" stop-color="#060306"/>
<stop offset="1"/>
</radialGradient>
<radialGradient id="paint22_radial_4105_133" cx="0" cy="0" r="1" gradientUnits="userSpaceOnUse" gradientTransform="translate(78.5416 110.569) rotate(153.723) scale(1.83783 1.8351)">
<stop stop-color="#FF7EFF"/>
<stop offset="0.13" stop-color="#CE66CE"/>
<stop offset="0.31" stop-color="#904790"/>
<stop offset="0.48" stop-color="#5D2D5D"/>
<stop offset="0.64" stop-color="#341A34"/>
<stop offset="0.78" stop-color="#170B17"/>
<stop offset="0.91" stop-color="#060306"/>
<stop offset="1"/>
</radialGradient>
<radialGradient id="paint23_radial_4105_133" cx="0" cy="0" r="1" gradientUnits="userSpaceOnUse" gradientTransform="translate(78.5417 110.569) rotate(153.723) scale(0.857267 0.855994)">
<stop stop-color="#FF7EFF"/>
<stop offset="0.13" stop-color="#CE66CE"/>
<stop offset="0.31" stop-color="#904790"/>
<stop offset="0.48" stop-color="#5D2D5D"/>
<stop offset="0.64" stop-color="#341A34"/>
<stop offset="0.78" stop-color="#170B17"/>
<stop offset="0.91" stop-color="#060306"/>
<stop offset="1"/>
</radialGradient>
<radialGradient id="paint24_radial_4105_133" cx="0" cy="0" r="1" gradientUnits="userSpaceOnUse" gradientTransform="translate(82.7972 109.841) rotate(153.723) scale(1.24833 1.24648)">
<stop stop-color="#FF7EFF"/>
<stop offset="0.13" stop-color="#CE66CE"/>
<stop offset="0.31" stop-color="#904790"/>
<stop offset="0.48" stop-color="#5D2D5D"/>
<stop offset="0.64" stop-color="#341A34"/>
<stop offset="0.78" stop-color="#170B17"/>
<stop offset="0.91" stop-color="#060306"/>
<stop offset="1"/>
</radialGradient>
<radialGradient id="paint25_radial_4105_133" cx="0" cy="0" r="1" gradientUnits="userSpaceOnUse" gradientTransform="translate(82.7973 109.841) rotate(153.723) scale(0.583714 0.582845)">
<stop stop-color="#FF7EFF"/>
<stop offset="0.13" stop-color="#CE66CE"/>
<stop offset="0.31" stop-color="#904790"/>
<stop offset="0.48" stop-color="#5D2D5D"/>
<stop offset="0.64" stop-color="#341A34"/>
<stop offset="0.78" stop-color="#170B17"/>
<stop offset="0.91" stop-color="#060306"/>
<stop offset="1"/>
</radialGradient>
<radialGradient id="paint26_radial_4105_133" cx="0" cy="0" r="1" gradientUnits="userSpaceOnUse" gradientTransform="translate(86.3271 79.863) rotate(153.723) scale(1.24834 1.24648)">
<stop stop-color="#FF7EFF"/>
<stop offset="0.13" stop-color="#CE66CE"/>
<stop offset="0.31" stop-color="#904790"/>
<stop offset="0.48" stop-color="#5D2D5D"/>
<stop offset="0.64" stop-color="#341A34"/>
<stop offset="0.78" stop-color="#170B17"/>
<stop offset="0.91" stop-color="#060306"/>
<stop offset="1"/>
</radialGradient>
<radialGradient id="paint27_radial_4105_133" cx="0" cy="0" r="1" gradientUnits="userSpaceOnUse" gradientTransform="translate(86.3271 79.863) rotate(153.723) scale(0.583711 0.582846)">
<stop stop-color="#FF7EFF"/>
<stop offset="0.13" stop-color="#CE66CE"/>
<stop offset="0.31" stop-color="#904790"/>
<stop offset="0.48" stop-color="#5D2D5D"/>
<stop offset="0.64" stop-color="#341A34"/>
<stop offset="0.78" stop-color="#170B17"/>
<stop offset="0.91" stop-color="#060306"/>
<stop offset="1"/>
</radialGradient>
<radialGradient id="paint28_radial_4105_133" cx="0" cy="0" r="1" gradientUnits="userSpaceOnUse" gradientTransform="translate(80.2267 115.081) rotate(153.723) scale(0.999824 0.998339)">
<stop stop-color="#FF7EFF"/>
<stop offset="0.13" stop-color="#CE66CE"/>
<stop offset="0.31" stop-color="#904790"/>
<stop offset="0.48" stop-color="#5D2D5D"/>
<stop offset="0.64" stop-color="#341A34"/>
<stop offset="0.78" stop-color="#170B17"/>
<stop offset="0.91" stop-color="#060306"/>
<stop offset="1"/>
</radialGradient>
<radialGradient id="paint29_radial_4105_133" cx="0" cy="0" r="1" gradientUnits="userSpaceOnUse" gradientTransform="translate(80.2271 115.083) rotate(153.723) scale(0.466198 0.465506)">
<stop stop-color="#FF7EFF"/>
<stop offset="0.13" stop-color="#CE66CE"/>
<stop offset="0.31" stop-color="#904790"/>
<stop offset="0.48" stop-color="#5D2D5D"/>
<stop offset="0.64" stop-color="#341A34"/>
<stop offset="0.78" stop-color="#170B17"/>
<stop offset="0.91" stop-color="#060306"/>
<stop offset="1"/>
</radialGradient>
</defs>
</svg>
