<svg width="119" height="87" viewBox="0 0 119 87" fill="none" xmlns="http://www.w3.org/2000/svg">
<path style="mix-blend-mode:multiply" opacity="0.8" d="M118.175 41.199C107.318 41.1209 84.9243 42.6313 81.8409 39.2745C77.8279 34.9073 68.807 11.816 64.82 11.0842C60.833 10.3524 52.773 8.95657 46.7443 7.44093C40.7156 5.92269 34.0203 3.32892 30.8744 5.54769C27.7259 7.76385 23.4551 17.4072 22.4629 18.6363C21.4707 19.8655 8.38202 19.5634 7.14764 26.2354C5.91325 32.9073 10.8378 37.2537 10.9393 38.3969C11.0409 39.5401 9.42109 41.9152 9.97058 45.6287C10.5227 49.3423 13.8534 51.3059 14.2206 54.5481C15.2753 63.8633 20.5566 64.6888 22.1998 66.1862C23.8431 67.6836 24.2415 73.1836 27.5541 75.1628C30.8666 77.1394 35.0489 78.9415 41.213 78.0405C47.3771 77.1368 63.4398 77.3269 66.2575 76.0014C69.0752 74.6758 74.0674 71.0586 76.8461 70.6732C79.4086 70.319 111.151 76.2253 118.172 76.4155V41.199H118.175Z" fill="url(#paint0_radial_4105_222)"/>
<path d="M118.174 40.1676L116.034 38.3629C98.0516 38.3446 78.1114 37.8472 75.2676 37.0425C72.6504 35.0555 66.7727 23.7325 63.3326 16.1049C61.3977 10.1387 57.02 5.61781 54.0539 4.84176C52.8872 4.53447 50.1502 4.29488 45.7804 3.92769L44.3507 3.8079C42.0069 3.60998 39.0928 3.34435 37.3532 3.05789C35.21 2.70893 32.6084 1.87038 30.5198 1.1985C28.0328 0.399014 26.6891 -0.0176558 25.676 0.000573558C25.0302 0.0109903 24.3036 0.167241 23.5198 0.464119C21.8609 0.984956 20.6239 1.74538 19.8374 2.72976C19.5666 2.98497 19.3322 3.23758 19.1447 3.48498C18.6578 4.1204 18.0978 5.38083 16.6317 8.81314C15.9103 10.5007 15.1135 12.3653 14.3009 14.1439C13.4546 14.1101 12.8218 14.1023 12.3817 14.1205C8.37642 14.2819 2.01439 17.8653 0.641979 20.7299C-0.751261 23.6414 0.23833 30.3836 2.50137 33.3863C2.80606 33.7899 3.15762 34.1389 3.52221 34.4357C3.03002 35.2795 2.53262 36.3576 2.1446 37.6988C1.87376 38.6363 1.76438 39.6858 1.81647 40.816C1.85293 45.7614 4.64462 48.2327 5.34775 48.777C5.59254 48.9853 5.84254 49.1702 6.10036 49.3343C6.16546 51.2979 6.53786 54.6911 8.14464 57.738C9.39986 60.3709 10.9025 61.4672 11.629 61.8683C11.6551 61.8891 11.6837 61.9073 11.7098 61.9282L12.1577 62.1782C12.3009 62.2381 13.3556 62.6573 15.1733 62.8214C17.1213 70.3241 20.9911 72.2824 21.9234 72.6548C22.1422 72.7538 22.3453 72.8371 22.5458 72.9074C23.0771 73.0949 23.6656 73.2538 24.2906 73.3788L24.2984 73.3449V73.4204C24.6838 73.4803 25.0693 73.5324 25.4443 73.5741C25.6969 73.6079 25.926 73.6288 26.1448 73.6496L26.2542 73.6574C26.4573 73.6756 26.6786 73.6939 26.9 73.7069H26.9495C27.2177 73.7251 27.4833 73.7381 27.749 73.746C27.9026 73.7486 28.0511 73.7538 28.1891 73.7538H28.288C28.762 73.7642 29.2386 73.759 29.7464 73.7381C32.7516 73.6522 35.1449 73.173 35.9105 73.0038C35.9391 72.9986 35.9678 72.9933 35.9964 72.9881C38.1527 72.9256 54.4185 72.4126 59.5956 71.1704C60.1581 71.0402 60.6294 70.8866 61.0175 70.7043C62.7987 69.8892 64.6607 68.5089 66.304 67.2928C67.3274 66.535 68.8509 65.4047 69.455 65.186C70.7103 65.2016 76.554 65.9829 82.2077 66.7407C92.5568 68.1261 105.434 69.8475 112.31 70.0871L114.086 69.3214C114.265 69.1183 116.739 66.212 118.174 59.9932V40.1676ZM63.1555 16.0502L63.0227 15.545C63.1269 15.6856 63.2128 15.8366 63.2805 15.9929L63.1555 16.0502ZM63.4498 17.1622L63.4446 17.1387L63.3612 16.1986C63.4602 16.5059 63.4914 16.834 63.4498 17.1622Z" fill="white"/>
<path d="M32.6425 17.8807C32.6425 17.8807 15.7231 16.2401 12.4704 16.3729C9.21782 16.5057 3.62142 19.7271 2.6761 21.7011C1.73078 23.675 2.44693 29.5579 4.30111 32.0214C5.18914 33.2011 6.9079 33.7324 6.9079 33.7324C6.9079 33.7324 5.25685 35.0449 4.30893 38.321C3.3584 41.5996 5.18133 47.0632 8.36364 47.8862C8.36364 47.8862 7.80114 56.3237 13.0303 60.0868C13.0303 60.0868 14.4288 60.6701 16.9887 60.6154C16.9887 60.6154 18.5747 69.1129 23.2908 70.7666C28.007 72.4202 35.7232 70.7275 35.7232 70.7275C35.7232 70.7275 41.0071 61.7873 40.6972 42.9043C40.3873 24.0214 32.6425 17.8781 32.6425 17.8781V17.8807Z" fill="url(#paint1_linear_4105_222)"/>
<path d="M74.2912 39.0943C74.2912 39.0943 74.273 39.0943 74.2418 39.0683C70.6844 37.4589 63.0307 22.5447 61.2234 16.9197C61.2234 16.9118 61.2156 16.9092 61.2182 16.9014C61.2104 16.891 61.2104 16.8832 61.2104 16.8832C59.4135 11.2503 55.4526 7.53936 53.4812 7.02373C52.3015 6.71384 48.1921 6.39613 44.1582 6.05498C41.4212 5.8232 38.7154 5.56799 36.9837 5.28414C32.692 4.58361 27.1945 2.22943 25.7179 2.25807C24.2309 2.28411 21.77 3.7685 20.9419 4.85445C20.2674 5.73466 17.9653 11.7243 15.7127 16.4717C15.2074 17.5551 14.7048 18.5655 14.2178 19.4431C11.5954 24.2036 7.56675 29.326 7.37665 30.2713C7.31675 30.5864 7.61884 31.1489 8.1579 31.7505C8.16572 31.7609 8.18134 31.7818 8.19697 31.8C8.75166 32.4302 9.54073 33.1021 10.4131 33.6333C10.4209 33.6333 10.4392 33.6463 10.447 33.6463C11.2621 34.1333 12.1501 34.4849 12.9965 34.5448C12.9965 34.5448 13.1137 34.5448 13.3298 34.5448C16.3507 34.4016 24.619 30.0187 27.3664 21.3207L27.1841 17.378L27.1789 17.2061C27.1789 17.2061 31.8716 17.3233 32.6503 17.8858C32.6659 17.8962 32.6841 17.9092 32.6894 17.9275C33.481 18.9327 34.8925 32.2114 40.7024 42.9094C40.7024 42.9094 39.4654 60.3992 36.9758 68.0008C36.9732 68.0268 36.9706 68.0451 36.9576 68.0607C36.7467 68.6961 36.5357 69.2612 36.3014 69.743C36.2753 69.8029 36.2415 69.8524 36.2154 69.9123C36.0774 70.2092 35.9264 70.467 35.7623 70.6779C35.7493 70.704 35.7389 70.7196 35.7284 70.7352C35.7284 70.7352 53.8119 70.2352 59.075 68.9722C59.4917 68.8758 59.8302 68.769 60.0698 68.6571C63.3328 67.1622 67.2599 63.2664 69.1193 62.9409C70.9761 62.6231 100.867 67.4253 112.396 67.8263C112.396 67.8263 119.359 59.907 116.039 40.6204C116.039 40.6204 77.846 40.5839 74.2991 39.0943H74.2912Z" fill="url(#paint2_linear_4105_222)"/>
<g style="mix-blend-mode:multiply" opacity="0.31">
<path d="M24.6554 71.1831C25.007 71.2404 25.369 71.2873 25.7153 71.3237C25.9445 71.355 26.158 71.3732 26.3794 71.3941C26.8403 71.4383 27.3039 71.4644 27.7518 71.48C27.9133 71.4826 28.0747 71.4878 28.2258 71.4904C28.7284 71.5034 29.2049 71.4956 29.6737 71.4774C32.4966 71.3967 34.7597 70.9461 35.481 70.7821C35.6373 70.7586 35.7206 70.7326 35.7206 70.7326C35.731 70.717 35.744 70.6987 35.7545 70.6753C35.9107 70.4435 36.0618 70.1857 36.2076 69.9097C36.2336 69.8498 36.2675 69.8003 36.2935 69.7404C39.8925 62.8627 42.1087 45.5032 42.1087 45.5032L46.3483 50.0788C46.3483 50.0788 42.8899 42.6256 39.9941 34.5109C38.692 30.8781 37.5149 27.1176 36.8066 23.8312C36.1217 20.6306 35.8873 17.8858 36.4263 16.1436C38.7545 8.61229 44.1556 6.05498 44.1556 6.05498C41.4186 5.8232 38.7128 5.56799 36.981 5.28414C32.6893 4.58361 27.1919 2.22943 25.7153 2.25807C27.6554 4.27892 25.9497 16.8051 25.2361 18.3129C21.9028 25.3572 11.5277 31.9172 9.73863 31.7297C8.05372 31.5578 7.45215 30.425 7.38184 30.2817C7.56934 30.8364 7.83496 31.3208 8.15528 31.7505C8.16309 31.7609 8.17872 31.7817 8.19434 31.8C8.82195 32.6203 9.63185 33.214 10.4105 33.6333C10.4183 33.6333 10.4365 33.6463 10.4444 33.6463C11.7777 34.3547 12.9939 34.5448 12.9939 34.5448C12.9939 34.5448 13.111 34.5448 13.3272 34.5448C13.4965 34.55 13.7387 34.5552 14.0251 34.5656C17.4158 34.6698 28.0174 35.0917 29.2023 36.7141C30.606 38.6464 29.5148 49.3522 27.7466 49.8001C25.9888 50.248 8.36882 47.8886 8.36882 47.8886C13.6267 49.2298 27.7492 50.7793 28.5226 51.0527C29.2935 51.3262 29.4836 59.4382 27.981 60.1283C26.5799 60.7846 18.1554 60.6361 17.1059 60.6231C22.2491 61.0606 30.1633 61.2221 30.1633 61.2221C31.0695 62.7013 30.3534 68.5347 29.7284 69.1597C29.1555 69.7378 25.3533 70.9644 24.744 71.1597C24.6867 71.1779 24.6606 71.1857 24.6606 71.1857L24.6554 71.1831Z" fill="#D87290"/>
</g>
<g style="mix-blend-mode:soft-light" opacity="0.97">
<path d="M14.2152 19.4406C14.2152 19.4406 14.8741 19.214 15.3897 19.5968C15.9053 19.9797 15.1553 26.0787 13.21 28.6698C11.2647 31.261 7.65527 29.6542 7.65527 29.6542L14.2152 19.438V19.4406Z" fill="#F5AF8F"/>
</g>
<g style="mix-blend-mode:multiply" opacity="0.5">
<path d="M26.9209 12.0947L27.1787 17.3786L28.447 17.4958C28.447 17.4958 28.0641 16.2771 26.9209 12.0947Z" fill="#D87290"/>
</g>
<g style="mix-blend-mode:multiply" opacity="0.3">
<path d="M34.9213 69.145L35.7234 70.7361C35.7234 70.7361 41.3485 57.5719 42.1115 45.5067C42.1115 45.5067 35.6401 22.7071 32.6453 17.8867L27.1739 17.207C27.1739 17.207 27.3484 20.5274 27.3588 21.319C27.3692 22.1107 26.4291 24.168 26.4291 24.168C26.4291 24.168 29.2989 25.892 29.6166 27.7488C29.7468 28.5118 29.6244 29.629 29.4083 30.7123C29.0932 32.2697 28.5671 33.7723 28.2546 34.09C27.7312 34.6499 21.8066 34.5379 21.8066 34.5379C21.8066 34.5379 34.0567 35.7202 35.1088 36.3192C36.1713 36.9103 39.1167 47.5224 36.0672 49.0979C36.0672 49.0979 36.9943 55.4027 35.9187 57.2464C34.8458 59.0876 32.7338 59.5511 32.7338 59.5511C32.7338 59.5511 35.8745 60.249 36.1114 62.7803C36.338 65.309 35.2625 67.3741 34.1896 68.2022C34.0906 68.2778 33.963 68.3611 33.8067 68.447C32.3666 69.27 28.7728 70.6111 28.2807 70.7882L32.9369 69.6319L34.9161 69.1423L34.9213 69.145Z" fill="#D87290"/>
</g>
<g style="mix-blend-mode:multiply" opacity="0.3">
<path d="M116.031 40.6203C116.031 40.6203 77.8384 40.5839 74.2914 39.0943C70.755 37.5968 63.0205 22.5446 61.2158 16.9014C61.3356 17.6904 65.1377 42.9172 66.8851 44.8235C68.6742 46.7688 102.518 49.136 116.031 40.6203Z" fill="#D87290"/>
</g>
<g style="mix-blend-mode:multiply" opacity="0.6">
<path d="M74.2908 39.0946C74.2908 39.0946 74.2726 39.0946 74.2413 39.0685C74.2153 39.0581 74.1866 39.0373 74.1606 39.0243C73.3611 38.5659 68.9184 35.3472 61.2204 16.9199C61.3376 17.5918 65.2621 39.3394 65.6293 50.441C65.9861 61.7302 59.0693 68.9698 59.0693 68.9698C59.486 68.8735 59.8246 68.7667 60.0641 68.6547C63.3272 67.1599 67.2543 63.264 69.1137 62.9385C70.9705 62.6208 100.861 67.4229 112.39 67.824C112.39 67.824 119.354 59.9046 116.033 40.618C116.033 40.618 77.8403 40.5816 74.2934 39.092L74.2908 39.0946Z" fill="#F3BAC0"/>
</g>
<path d="M14.2152 19.4403C14.2152 19.4403 15.5459 19.4897 15.361 22.5471C15.1371 26.2632 12.9365 28.9976 12.9365 28.9976C12.9365 28.9976 15.7152 26.3335 15.7074 20.9897C15.6996 15.646 14.2152 19.4403 14.2152 19.4403Z" fill="#E86C7C"/>
<g style="mix-blend-mode:soft-light" opacity="0.97">
<path d="M8.46225 28.3994C8.46225 28.3994 9.8633 29.7562 12.9336 28.9984C12.9336 28.9984 11.4753 31.1885 7.65234 29.6572L8.45964 28.3994H8.46225Z" fill="#F5D3D2"/>
</g>
<g style="mix-blend-mode:soft-light" opacity="0.97">
<path d="M13.1865 21.0423C13.1865 21.0423 14.2803 21.334 15.1631 20.4408C15.1631 20.4408 14.8402 19.5605 14.2126 19.4434L13.1865 21.0423Z" fill="#F5D3D2"/>
</g>
<g style="mix-blend-mode:multiply" opacity="0.5">
<path d="M24.6551 71.1837C25.0066 71.241 25.3686 71.2879 25.715 71.3243C25.9442 71.3556 26.1577 71.3738 26.3791 71.3946C26.84 71.4389 27.3035 71.465 27.7515 71.4806C27.9129 71.4832 28.0744 71.4884 28.2254 71.491C28.728 71.504 29.2046 71.4962 29.6733 71.478C32.4963 71.3972 34.7593 70.9467 35.4807 70.7827C35.6369 70.7592 35.7203 70.7332 35.7203 70.7332C35.7307 70.7176 35.7437 70.6993 35.7541 70.6759C35.9104 70.4441 36.0614 70.1863 36.2073 69.9103C36.2333 69.8504 36.2672 69.8009 36.2932 69.741C39.8922 62.8633 42.1083 45.5038 42.1083 45.5038L32.6421 17.8838L27.1707 17.2041C27.1707 17.2041 27.4468 20.5114 27.1785 22.0479C26.9103 23.5844 23.7332 30.8058 14.0196 34.5636C17.4102 34.6678 28.0119 35.0897 29.1968 36.7121C30.6004 38.6444 29.5093 49.3502 27.741 49.7981C25.9832 50.246 8.36328 47.8866 8.36328 47.8866C13.6211 49.2278 27.7436 50.7773 28.5171 51.0507C29.2879 51.3242 29.478 59.4362 27.9754 60.1263C26.5744 60.7826 18.1498 60.6341 17.1003 60.6211C22.2436 61.0586 30.1577 61.2201 30.1577 61.2201C31.064 62.6993 30.3478 68.5326 29.7228 69.1576C29.1499 69.7358 25.3478 70.9624 24.7384 71.1577C24.6811 71.1759 24.6551 71.1837 24.6551 71.1837Z" fill="#D87290"/>
</g>
<g style="mix-blend-mode:multiply" opacity="0.5">
<path d="M13.9157 19.9046L8.4209 18.6677L12.2777 18.6729L12.6918 17.2536L15.4574 17.001L13.9157 19.9046Z" fill="#D87290"/>
</g>
<g style="mix-blend-mode:multiply" opacity="0.5">
<path d="M37.1089 47.9043C37.1089 47.9043 31.5281 49.4981 27.7442 49.8001C23.9603 50.1022 16.8613 49.4095 16.8613 49.4095C16.8613 49.4095 26.6244 50.9278 28.5203 51.0554C30.4135 51.1804 36.0698 49.0996 36.0698 49.0996C36.0698 49.0996 36.6427 48.5241 37.1089 47.9043Z" fill="#D87290"/>
</g>
<g style="mix-blend-mode:multiply" opacity="0.5">
<path d="M32.7387 59.5479C32.7387 59.5479 29.9132 60.0869 27.2309 60.3239C24.5486 60.5609 16.9912 60.6182 16.9912 60.6182C16.9912 60.6182 28.3012 61.113 29.7465 60.9359C31.1918 60.7588 32.7413 59.5505 32.7413 59.5505L32.7387 59.5479Z" fill="#D87290"/>
</g>
<g style="mix-blend-mode:multiply" opacity="0.5">
<path d="M26.4288 24.1699C26.4288 24.1699 22.7986 31.5346 14.0225 34.5658C14.0225 34.5658 24.4887 32.17 28.4887 25.8106L26.4262 24.1699H26.4288Z" fill="#D87290"/>
</g>
<g style="mix-blend-mode:multiply" opacity="0.5">
<path d="M14.0225 34.5658C14.0225 34.5658 10.6787 33.6205 10.0824 31.6986C10.0824 31.6986 8.70476 31.8783 7.38184 30.2793C7.38184 30.2793 8.67872 34.3106 14.0225 34.5658Z" fill="#D87290"/>
</g>
<g style="mix-blend-mode:soft-light" opacity="0.97">
<path d="M21.5098 4.25588C21.5098 4.25588 22.1478 6.86006 24.3327 7.20642C26.515 7.55017 25.7155 2.25586 25.7155 2.25586C25.7155 2.25586 22.6087 2.69597 21.5098 4.25588Z" fill="#F5AF8F"/>
</g>
<g style="mix-blend-mode:soft-light" opacity="0.97">
<path d="M2.67887 21.7012C2.67887 21.7012 4.1242 24.8887 4.6867 27.8939C5.24921 30.8992 4.30389 32.0216 4.30389 32.0216C4.30389 32.0216 1.27001 27.1309 2.67887 21.7012Z" fill="#F5EE8F"/>
</g>
<g style="mix-blend-mode:soft-light" opacity="0.97">
<path d="M8.35059 48.3942C8.35059 48.3942 9.94695 50.2822 11.4365 53.8864C12.9261 57.4906 12.8402 59.9412 12.8402 59.9412C12.8402 59.9412 8.96257 58.4047 8.35059 48.3916V48.3942Z" fill="#F5EE8F"/>
</g>
<g style="mix-blend-mode:soft-light" opacity="0.97">
<path d="M4.31447 38.3213C4.31447 38.3213 5.43166 41.3213 6.16865 43.7614C6.90564 46.2016 6.77282 47.0141 6.77282 47.0141C6.77282 47.0141 3.11915 44.5036 4.31447 38.3213Z" fill="#F5EE8F"/>
</g>
<g style="mix-blend-mode:soft-light" opacity="0.97">
<path d="M16.9912 60.6182C16.9912 60.6182 17.8766 62.9619 19.4365 66.0948C20.46 68.1521 22.7985 70.5636 22.7985 70.5636C22.7985 70.5636 18.6683 69.1859 16.9912 60.6182Z" fill="#F5EE8F"/>
</g>
<path style="mix-blend-mode:screen" d="M40.7463 8.69849C40.7463 8.69849 47.637 7.60473 53.1345 13.5892C58.6319 19.5736 57.0381 59.1703 55.2439 61.4854C53.4496 63.7979 36.3453 31.6831 36.3088 20.9694C36.2724 10.2558 40.7463 8.7011 40.7463 8.7011V8.69849Z" fill="url(#paint3_linear_4105_222)"/>
<g style="mix-blend-mode:multiply" opacity="0.5">
<path d="M74.1609 39.0269C74.1609 39.0269 72.7625 44.1337 66.8848 44.8238L61.2207 16.9199C61.2207 16.9199 69.9083 36.2222 74.1609 39.0243V39.0269Z" fill="#D87290"/>
</g>
<path d="M32.6446 17.8831C32.6446 17.8831 29.3789 20.2217 28.6289 21.3702C27.8789 22.5212 27.5013 25.0238 27.5013 25.0238L26.4258 24.1697C26.4258 24.1697 27.2721 22.3858 27.3581 21.3181C27.444 20.2504 27.1732 17.2061 27.1732 17.2061C27.1732 17.2061 31.8086 17.3493 32.6446 17.8857V17.8831Z" fill="#AB3D52"/>
<path d="M34.1922 68.2018C34.1922 68.2018 36.5958 67.6341 37.5984 59.2772C38.6115 50.9126 37.4214 39.0531 36.5281 37.2614C35.7859 35.7614 31.1609 32.1859 29.4083 30.7119C29.0932 32.2692 28.5671 33.7718 28.2546 34.0895C27.7312 34.6494 21.8066 34.5375 21.8066 34.5375C21.8066 34.5375 34.0567 35.7198 35.1088 36.3187C36.1713 36.9099 39.1167 47.5219 36.0672 49.0975C36.0672 49.0975 36.9943 55.4022 35.9187 57.246C34.8458 59.0871 32.7338 59.5507 32.7338 59.5507C32.7338 59.5507 35.8745 60.2486 36.1114 62.7799C36.338 65.3086 35.2625 67.3737 34.1896 68.2018H34.1922Z" fill="#AB3D52"/>
<path d="M28.2832 70.7901L32.9395 69.6338L33.8093 68.4463C32.3692 69.2692 28.7754 70.6104 28.2832 70.7875V70.7901Z" fill="#AB3D52"/>
<g style="mix-blend-mode:soft-light" opacity="0.97">
<path d="M56.549 68.6339C56.549 68.6339 45.6921 70.0376 36.9863 70.4126C36.9863 70.4126 46.752 67.4022 56.549 68.6339Z" fill="#F5FFFF"/>
</g>
<g style="mix-blend-mode:soft-light" opacity="0.97">
<path d="M111.045 64.6986C111.045 64.6986 88.2735 64.0033 75.9531 62.7246C75.9531 62.7246 99.4429 67.0033 110.776 66.7064L111.045 64.6986Z" fill="#F5FFFF"/>
</g>
<g style="mix-blend-mode:soft-light" opacity="0.97">
<path d="M54.1143 8.62598C54.1143 8.62598 58.9112 10.7302 60.2315 16.126C61.5518 21.5245 63.1846 34.1705 63.1846 34.1705C63.1846 34.1705 60.6273 14.4489 54.1143 8.62598Z" fill="#F5FFFF"/>
</g>
<g style="mix-blend-mode:soft-light" opacity="0.97">
<path d="M14.7412 59.1836C14.7412 59.1836 22.447 60.1576 27.0538 59.6393C27.0538 59.6393 22.2152 61.431 14.7412 59.1836Z" fill="#F5FFFF"/>
</g>
<g style="mix-blend-mode:soft-light" opacity="0.97">
<path d="M22.707 68.9932C22.707 68.9932 26.8295 69.7692 29.6159 68.665C29.6159 68.665 26.0795 71.1494 22.707 68.9932Z" fill="#F5FFFF"/>
</g>
<g style="mix-blend-mode:soft-light" opacity="0.97">
<path d="M8.58496 46.2559C8.58496 46.2559 17.9053 48.7949 26.3976 48.6413C26.3976 48.6413 16.7126 50.3939 8.58496 46.2559Z" fill="#F5FFFF"/>
</g>
<g style="mix-blend-mode:soft-light" opacity="0.97">
<path d="M21.3558 5.4043C21.3558 5.4043 18.5589 9.37047 17.5068 14.0398C17.5068 14.0398 20.7855 10.6908 21.3558 5.4043Z" fill="#F5FFFF"/>
</g>
<g style="mix-blend-mode:soft-light" opacity="0.97">
<path d="M27.7129 3.31803C27.7129 3.31803 30.6686 5.54462 34.1947 6.31285C37.7208 7.08369 45.5516 6.76858 45.5516 6.76858C45.5516 6.76858 32.4082 5.43003 27.7129 3.31543V3.31803Z" fill="#F5FFFF"/>
</g>
<g style="mix-blend-mode:soft-light" opacity="0.97">
<path d="M115.042 41.2017C115.042 41.2017 88.9558 44.4595 76.1953 41.4256C76.1953 41.4256 91.4871 40.8006 115.042 41.2017Z" fill="#F5FFFF"/>
</g>
<g style="mix-blend-mode:soft-light" opacity="0.97">
<path d="M32.8604 36.6055C34.2979 37.1159 37.3578 42.1368 35.85 45.3816C35.85 45.3816 34.6442 40.9649 34.0973 39.0169C33.5479 37.0716 32.863 36.6055 32.863 36.6055H32.8604Z" fill="#F5A995"/>
</g>
<g style="mix-blend-mode:soft-light" opacity="0.97">
<path d="M35.3535 50.5166C35.3535 50.5166 36.6166 57.7432 32.8223 58.9359C32.8223 58.9359 35.7337 54.3526 35.3535 50.5166Z" fill="#F5A995"/>
</g>
<g style="mix-blend-mode:soft-light" opacity="0.97">
<path d="M35.6341 65.0293C35.6341 65.0293 33.4961 67.4538 33.2773 68.3757C33.2773 68.3757 35.319 67.6231 35.6341 65.0293Z" fill="#F5A995"/>
</g>
<g style="mix-blend-mode:multiply" opacity="0.3">
<path d="M29.4678 37.2871C29.4678 37.2871 30.9574 40.1074 30.5589 44.3497C30.1605 48.5919 27.7412 49.8002 27.7412 49.8002C27.7412 49.8002 30.8793 44.2689 29.4678 37.2871Z" fill="#D87290"/>
</g>
<g style="mix-blend-mode:multiply" opacity="0.3">
<path d="M28.8555 51.8027C28.8555 51.8027 30.3998 53.1777 30.5768 55.67C30.7539 58.1622 28.3164 59.808 28.3164 59.808C28.3164 59.808 29.9492 56.1465 28.8555 51.8027Z" fill="#D87290"/>
</g>
<g style="mix-blend-mode:multiply" opacity="0.3">
<path d="M30.5557 61.6553C30.5557 61.6553 31.7145 63.0147 31.6807 64.8845C31.6468 66.7517 29.9541 68.71 29.9541 68.71C29.9541 68.71 31.0166 66.5564 30.5557 61.6553Z" fill="#D87290"/>
</g>
<path fill-rule="evenodd" clip-rule="evenodd" d="M37.9501 23.3785C38.5283 24.0504 39.5387 24.1259 40.2106 23.5478C40.8824 22.9697 40.958 21.9592 40.3798 21.2874C39.8017 20.6155 38.7913 20.54 38.1194 21.1181C37.4475 21.6962 37.372 22.7067 37.9501 23.3785Z" fill="white"/>
<path style="mix-blend-mode:screen" opacity="0.61" fill-rule="evenodd" clip-rule="evenodd" d="M34.6116 26.8682C36.9345 29.5687 41.0075 29.8734 43.708 27.5505C46.4086 25.2275 46.7133 21.1546 44.3903 18.454C42.0674 15.7535 37.9944 15.4488 35.2939 17.7717C32.5933 20.0947 32.2887 24.1676 34.6116 26.8682Z" fill="url(#paint4_radial_4105_222)"/>
<path style="mix-blend-mode:screen" opacity="0.61" d="M39.5004 25.6726C41.1644 25.6726 42.5134 24.3236 42.5134 22.6595C42.5134 20.9955 41.1644 19.6465 39.5004 19.6465C37.8363 19.6465 36.4873 20.9955 36.4873 22.6595C36.4873 24.3236 37.8363 25.6726 39.5004 25.6726Z" fill="url(#paint5_radial_4105_222)"/>
<path fill-rule="evenodd" clip-rule="evenodd" d="M55.6276 78.1289C55.8438 78.3815 56.224 78.4102 56.4766 78.1914C56.7292 77.9727 56.7578 77.5951 56.5391 77.3425C56.3229 77.0899 55.9427 77.0612 55.6901 77.28C55.4375 77.4987 55.4089 77.8763 55.6276 78.1289Z" fill="white"/>
<path style="mix-blend-mode:screen" opacity="0.61" fill-rule="evenodd" clip-rule="evenodd" d="M54.5833 79.6451C55.4557 80.6608 56.9869 80.7754 58.0026 79.9004C59.0182 79.028 59.1328 77.4967 58.2578 76.4811C57.3854 75.4654 55.8541 75.3508 54.8385 76.2258C53.8228 77.1009 53.7083 78.6295 54.5833 79.6451Z" fill="url(#paint6_radial_4105_222)"/>
<path style="mix-blend-mode:screen" opacity="0.61" fill-rule="evenodd" clip-rule="evenodd" d="M55.5625 78.8014C55.9713 79.2754 56.6849 79.3301 57.1588 78.9212C57.6328 78.5124 57.6875 77.7988 57.2786 77.3248C56.8698 76.8509 56.1562 76.7962 55.6823 77.2051C55.2083 77.6139 55.1536 78.3275 55.5625 78.8014Z" fill="url(#paint7_radial_4105_222)"/>
<path fill-rule="evenodd" clip-rule="evenodd" d="M28.569 82.1557C28.9883 82.6427 29.72 82.6974 30.2044 82.2781C30.6914 81.8614 30.7461 81.127 30.3268 80.6427C29.9075 80.1583 29.1758 80.101 28.6914 80.5203C28.2044 80.9395 28.1497 81.6713 28.569 82.1557Z" fill="white"/>
<path style="mix-blend-mode:screen" opacity="0.61" fill-rule="evenodd" clip-rule="evenodd" d="M26.2414 84.7704C27.9237 86.7262 30.8742 86.9475 32.83 85.2652C34.7857 83.5829 35.0071 80.6324 33.3248 78.6766C31.6425 76.7209 28.6919 76.4995 26.7362 78.1818C24.7804 79.8641 24.5591 82.8147 26.2414 84.7704Z" fill="url(#paint8_radial_4105_222)"/>
<path style="mix-blend-mode:screen" opacity="0.61" fill-rule="evenodd" clip-rule="evenodd" d="M28.1295 83.1481C28.916 84.0621 30.2936 84.1637 31.2077 83.3799C32.1217 82.5934 32.2233 81.2158 31.4394 80.3017C30.653 79.3876 29.2753 79.2861 28.3613 80.0699C27.4472 80.8564 27.3456 82.234 28.1295 83.1481Z" fill="url(#paint9_radial_4105_222)"/>
<path fill-rule="evenodd" clip-rule="evenodd" d="M63.3376 62.5277C63.7542 63.0121 64.4886 63.0668 64.973 62.6501C65.4574 62.2334 65.5121 61.499 65.0954 61.0147C64.6787 60.5303 63.9443 60.4756 63.46 60.8923C62.9756 61.3089 62.9209 62.0433 63.3376 62.5277Z" fill="white"/>
<path style="mix-blend-mode:screen" opacity="0.61" d="M67.1015 66.008C69.2627 64.6012 69.8744 61.7088 68.4676 59.5475C67.0609 57.3862 64.1684 56.7746 62.0071 58.1813C59.8458 59.5881 59.2342 62.4806 60.6409 64.6419C62.0477 66.8031 64.9402 67.4148 67.1015 66.008Z" fill="url(#paint10_radial_4105_222)"/>
<path style="mix-blend-mode:screen" opacity="0.61" fill-rule="evenodd" clip-rule="evenodd" d="M62.9 63.5195C63.6865 64.4336 65.0615 64.5351 65.9756 63.7513C66.8896 62.9648 66.9912 61.5898 66.2073 60.6757C65.4209 59.7617 64.0459 59.6601 63.1318 60.444C62.2177 61.2304 62.1162 62.6054 62.9 63.5195Z" fill="url(#paint11_radial_4105_222)"/>
<path fill-rule="evenodd" clip-rule="evenodd" d="M46.9325 48.3356C47.2216 48.6715 47.7268 48.708 48.0627 48.4215C48.3986 48.1325 48.4351 47.6273 48.1486 47.2913C47.8596 46.9554 47.3544 46.9189 47.0184 47.2054C46.6825 47.4944 46.646 47.9997 46.9351 48.3356H46.9325Z" fill="white"/>
<path style="mix-blend-mode:screen" opacity="0.61" fill-rule="evenodd" clip-rule="evenodd" d="M45.4323 50.2444C46.5938 51.5934 48.6303 51.747 49.9818 50.5856C51.3308 49.4241 51.4844 47.3876 50.323 46.0361C49.1615 44.6845 47.125 44.5334 45.7735 45.6949C44.4245 46.8564 44.2708 48.8928 45.4323 50.2444Z" fill="url(#paint12_radial_4105_222)"/>
<path style="mix-blend-mode:screen" opacity="0.61" fill-rule="evenodd" clip-rule="evenodd" d="M46.7344 49.1221C47.2761 49.7523 48.2292 49.8253 48.8594 49.281C49.4897 48.7393 49.5626 47.7862 49.0183 47.156C48.4766 46.5258 47.5235 46.4528 46.8933 46.9971C46.2631 47.5388 46.1902 48.4919 46.7344 49.1221Z" fill="url(#paint13_radial_4105_222)"/>
<path fill-rule="evenodd" clip-rule="evenodd" d="M31.4685 66.0435C31.6482 66.2518 31.9633 66.2778 32.1742 66.0955C32.3826 65.9159 32.406 65.6007 32.2263 65.3898C32.0466 65.1815 31.7315 65.1554 31.5206 65.3377C31.3122 65.5174 31.2888 65.8325 31.4685 66.0435Z" fill="white"/>
<path style="mix-blend-mode:screen" opacity="0.61" fill-rule="evenodd" clip-rule="evenodd" d="M30.6586 67.3585C31.3852 68.2023 32.656 68.296 33.4972 67.5721C34.341 66.8455 34.4347 65.5747 33.7107 64.7335C32.9868 63.8898 31.7133 63.796 30.8722 64.52C30.0284 65.2439 29.9347 66.5174 30.6586 67.3585Z" fill="url(#paint14_radial_4105_222)"/>
<path style="mix-blend-mode:screen" opacity="0.61" fill-rule="evenodd" clip-rule="evenodd" d="M31.4707 66.6576C31.8093 67.0508 32.403 67.0951 32.7963 66.7565C33.1895 66.418 33.2338 65.8242 32.8952 65.431C32.5567 65.0378 31.9629 64.9935 31.5697 65.3321C31.1765 65.6706 31.1322 66.2644 31.4707 66.6576Z" fill="url(#paint15_radial_4105_222)"/>
<path fill-rule="evenodd" clip-rule="evenodd" d="M62.2131 68.6779C62.4787 68.9852 62.9423 69.0217 63.2522 68.7561C63.5594 68.4904 63.5959 68.0269 63.3303 67.717C63.0647 67.4097 62.6011 67.3732 62.2912 67.6389C61.9839 67.9045 61.9475 68.368 62.2131 68.6779Z" fill="white"/>
<path style="mix-blend-mode:screen" opacity="0.61" fill-rule="evenodd" clip-rule="evenodd" d="M60.8619 70.4595C61.9296 71.6991 63.802 71.8398 65.0416 70.772C66.2812 69.7043 66.4218 67.8319 65.3541 66.5923C64.2864 65.3527 62.4139 65.2121 61.1744 66.2798C59.9348 67.3475 59.7941 69.2199 60.8619 70.4595Z" fill="url(#paint16_radial_4105_222)"/>
<path style="mix-blend-mode:screen" opacity="0.61" fill-rule="evenodd" clip-rule="evenodd" d="M62.0598 69.428C62.5572 70.0088 63.4323 70.0739 64.013 69.5739C64.5937 69.0765 64.6588 68.2015 64.1588 67.6207C63.6588 67.04 62.7864 66.9749 62.2057 67.4749C61.6249 67.9749 61.5598 68.8473 62.0598 69.428Z" fill="url(#paint17_radial_4105_222)"/>
<g style="mix-blend-mode:screen" opacity="0.61">
<path fill-rule="evenodd" clip-rule="evenodd" d="M58.6326 74.3871C58.8123 74.5955 59.1274 74.6189 59.3383 74.4392C59.5466 74.2595 59.5701 73.9444 59.3904 73.7335C59.2107 73.5251 58.8956 73.5017 58.6846 73.6814C58.4763 73.8611 58.4529 74.1762 58.6326 74.3871Z" fill="white"/>
<path style="mix-blend-mode:screen" opacity="0.61" fill-rule="evenodd" clip-rule="evenodd" d="M57.8199 75.7023C58.5438 76.546 59.8173 76.6398 60.6584 75.9158C61.5022 75.1919 61.5959 73.9184 60.872 73.0773C60.148 72.2335 58.8746 72.1398 58.0334 72.8637C57.1923 73.5877 57.0959 74.8611 57.8199 75.7023Z" fill="url(#paint18_radial_4105_222)"/>
<path style="mix-blend-mode:screen" opacity="0.61" fill-rule="evenodd" clip-rule="evenodd" d="M58.6328 75.0013C58.9714 75.3946 59.5651 75.4388 59.9584 75.1003C60.3516 74.7617 60.3959 74.168 60.0573 73.7748C59.7188 73.3815 59.125 73.3373 58.7318 73.6758C58.3386 74.0143 58.2943 74.6081 58.6328 75.0013Z" fill="url(#paint19_radial_4105_222)"/>
</g>
<path fill-rule="evenodd" clip-rule="evenodd" d="M11.8484 60.687C12.0281 60.8953 12.3432 60.9214 12.5541 60.7391C12.7625 60.5594 12.7859 60.2443 12.6062 60.0334C12.4265 59.825 12.1114 59.799 11.9005 59.9813C11.6921 60.161 11.6687 60.4761 11.8484 60.687Z" fill="white"/>
<path style="mix-blend-mode:screen" opacity="0.61" fill-rule="evenodd" clip-rule="evenodd" d="M11.0385 61.9992C11.7651 62.8429 13.0359 62.9367 13.8771 62.2127C14.7208 61.4861 14.8146 60.2153 14.0906 59.3741C13.3667 58.5304 12.0932 58.4366 11.2521 59.1606C10.4083 59.8846 10.3146 61.158 11.0385 61.9992Z" fill="url(#paint20_radial_4105_222)"/>
<path style="mix-blend-mode:screen" opacity="0.61" fill-rule="evenodd" clip-rule="evenodd" d="M11.8506 61.2982C12.1892 61.6914 12.7829 61.7357 13.1761 61.3972C13.5694 61.0586 13.6136 60.4649 13.2751 60.0716C12.9366 59.6784 12.3428 59.6341 11.9496 59.9727C11.5563 60.3112 11.5121 60.905 11.8506 61.2982Z" fill="url(#paint21_radial_4105_222)"/>
<path fill-rule="evenodd" clip-rule="evenodd" d="M68.1141 73.8169C68.2574 73.9836 68.5126 74.0044 68.6792 73.8586C68.8459 73.7154 68.8667 73.4602 68.7209 73.2935C68.5777 73.1268 68.3225 73.106 68.1558 73.2518C67.9891 73.3951 67.9683 73.6503 68.1141 73.8169Z" fill="white"/>
<path style="mix-blend-mode:screen" opacity="0.61" fill-rule="evenodd" clip-rule="evenodd" d="M67.5312 74.934C68.112 75.6085 69.1302 75.6867 69.8047 75.1033C70.4792 74.5226 70.5573 73.5043 69.974 72.8299C69.3932 72.1554 68.375 72.0772 67.7005 72.658C67.026 73.2387 66.9479 74.257 67.5312 74.9314V74.934Z" fill="url(#paint22_radial_4105_222)"/>
<path style="mix-blend-mode:screen" opacity="0.61" fill-rule="evenodd" clip-rule="evenodd" d="M68.1845 74.3739C68.4553 74.6891 68.9319 74.7255 69.247 74.4547C69.5621 74.1838 69.5986 73.7073 69.3277 73.3922C69.0569 73.0771 68.5803 73.0406 68.2652 73.3114C67.9501 73.5823 67.9137 74.0588 68.1845 74.3739Z" fill="url(#paint23_radial_4105_222)"/>
<defs>
<radialGradient id="paint0_radial_4105_222" cx="0" cy="0" r="1" gradientUnits="userSpaceOnUse" gradientTransform="translate(-33.5454 21.3638) rotate(-172.37) scale(251.453 251.453)">
<stop stop-color="#E7E5F0"/>
<stop offset="0.17" stop-color="#E2DFEC"/>
<stop offset="0.37" stop-color="#D6D0E1"/>
<stop offset="0.59" stop-color="#C3B7CF"/>
<stop offset="0.82" stop-color="#A795B7"/>
<stop offset="1" stop-color="#8E75A0"/>
</radialGradient>
<linearGradient id="paint1_linear_4105_222" x1="41.266" y1="46.3351" x2="-0.0192155" y2="40.8045" gradientUnits="userSpaceOnUse">
<stop stop-color="#FF8777"/>
<stop offset="0.98" stop-color="#FFB880"/>
</linearGradient>
<linearGradient id="paint2_linear_4105_222" x1="117.653" y1="48.2467" x2="6.9763" y2="33.4204" gradientUnits="userSpaceOnUse">
<stop offset="0.02" stop-color="#FFB880"/>
<stop offset="1" stop-color="#FF8777"/>
</linearGradient>
<linearGradient id="paint3_linear_4105_222" x1="50.0361" y1="9.67749" x2="43.2745" y2="60.1515" gradientUnits="userSpaceOnUse">
<stop stop-color="#EC4400"/>
<stop offset="0.11" stop-color="#DB3F00"/>
<stop offset="0.31" stop-color="#B03200"/>
<stop offset="0.6" stop-color="#6A1E00"/>
<stop offset="0.96" stop-color="#0B0300"/>
<stop offset="1"/>
</linearGradient>
<radialGradient id="paint4_radial_4105_222" cx="0" cy="0" r="1" gradientUnits="userSpaceOnUse" gradientTransform="translate(39.4391 22.6989) rotate(-40.71) scale(6.45057)">
<stop stop-color="#0062FF"/>
<stop offset="0.13" stop-color="#004FCE"/>
<stop offset="0.31" stop-color="#003790"/>
<stop offset="0.48" stop-color="#00235D"/>
<stop offset="0.64" stop-color="#001434"/>
<stop offset="0.78" stop-color="#000917"/>
<stop offset="0.91" stop-color="#000206"/>
<stop offset="1"/>
</radialGradient>
<radialGradient id="paint5_radial_4105_222" cx="0" cy="0" r="1" gradientUnits="userSpaceOnUse" gradientTransform="translate(39.4398 22.6986) rotate(-40.71) scale(3.01305)">
<stop stop-color="#0062FF"/>
<stop offset="0.13" stop-color="#004FCE"/>
<stop offset="0.31" stop-color="#003790"/>
<stop offset="0.48" stop-color="#00235D"/>
<stop offset="0.64" stop-color="#001434"/>
<stop offset="0.78" stop-color="#000917"/>
<stop offset="0.91" stop-color="#000206"/>
<stop offset="1"/>
</radialGradient>
<radialGradient id="paint6_radial_4105_222" cx="0" cy="0" r="1" gradientUnits="userSpaceOnUse" gradientTransform="translate(56.355 78.1018) rotate(-40.71) scale(2.4245)">
<stop stop-color="#0062FF"/>
<stop offset="0.13" stop-color="#004FCE"/>
<stop offset="0.31" stop-color="#003790"/>
<stop offset="0.48" stop-color="#00235D"/>
<stop offset="0.64" stop-color="#001434"/>
<stop offset="0.78" stop-color="#000917"/>
<stop offset="0.91" stop-color="#000206"/>
<stop offset="1"/>
</radialGradient>
<radialGradient id="paint7_radial_4105_222" cx="0" cy="0" r="1" gradientUnits="userSpaceOnUse" gradientTransform="translate(56.355 78.1018) rotate(-40.71) scale(1.13282)">
<stop stop-color="#0062FF"/>
<stop offset="0.13" stop-color="#004FCE"/>
<stop offset="0.31" stop-color="#003790"/>
<stop offset="0.48" stop-color="#00235D"/>
<stop offset="0.64" stop-color="#001434"/>
<stop offset="0.78" stop-color="#000917"/>
<stop offset="0.91" stop-color="#000206"/>
<stop offset="1"/>
</radialGradient>
<radialGradient id="paint8_radial_4105_222" cx="0" cy="0" r="1" gradientUnits="userSpaceOnUse" gradientTransform="translate(29.7197 81.7602) rotate(-40.71) scale(4.67191)">
<stop stop-color="#0062FF"/>
<stop offset="0.13" stop-color="#004FCE"/>
<stop offset="0.31" stop-color="#003790"/>
<stop offset="0.48" stop-color="#00235D"/>
<stop offset="0.64" stop-color="#001434"/>
<stop offset="0.78" stop-color="#000917"/>
<stop offset="0.91" stop-color="#000206"/>
<stop offset="1"/>
</radialGradient>
<radialGradient id="paint9_radial_4105_222" cx="0" cy="0" r="1" gradientUnits="userSpaceOnUse" gradientTransform="translate(29.7198 81.7602) rotate(-40.71) scale(2.18231)">
<stop stop-color="#0062FF"/>
<stop offset="0.13" stop-color="#004FCE"/>
<stop offset="0.31" stop-color="#003790"/>
<stop offset="0.48" stop-color="#00235D"/>
<stop offset="0.64" stop-color="#001434"/>
<stop offset="0.78" stop-color="#000917"/>
<stop offset="0.91" stop-color="#000206"/>
<stop offset="1"/>
</radialGradient>
<radialGradient id="paint10_radial_4105_222" cx="0" cy="0" r="1" gradientUnits="userSpaceOnUse" gradientTransform="translate(64.4812 62.1495) rotate(-40.71) scale(4.66931)">
<stop stop-color="#0062FF"/>
<stop offset="0.13" stop-color="#004FCE"/>
<stop offset="0.31" stop-color="#003790"/>
<stop offset="0.48" stop-color="#00235D"/>
<stop offset="0.64" stop-color="#001434"/>
<stop offset="0.78" stop-color="#000917"/>
<stop offset="0.91" stop-color="#000206"/>
<stop offset="1"/>
</radialGradient>
<radialGradient id="paint11_radial_4105_222" cx="0" cy="0" r="1" gradientUnits="userSpaceOnUse" gradientTransform="translate(64.4892 62.1382) rotate(-40.71) scale(2.1797)">
<stop stop-color="#0062FF"/>
<stop offset="0.13" stop-color="#004FCE"/>
<stop offset="0.31" stop-color="#003790"/>
<stop offset="0.48" stop-color="#00235D"/>
<stop offset="0.64" stop-color="#001434"/>
<stop offset="0.78" stop-color="#000917"/>
<stop offset="0.91" stop-color="#000206"/>
<stop offset="1"/>
</radialGradient>
<radialGradient id="paint12_radial_4105_222" cx="0" cy="0" r="1" gradientUnits="userSpaceOnUse" gradientTransform="translate(47.8137 48.1798) rotate(-40.71) scale(3.22659)">
<stop stop-color="#0062FF"/>
<stop offset="0.13" stop-color="#004FCE"/>
<stop offset="0.31" stop-color="#003790"/>
<stop offset="0.48" stop-color="#00235D"/>
<stop offset="0.64" stop-color="#001434"/>
<stop offset="0.78" stop-color="#000917"/>
<stop offset="0.91" stop-color="#000206"/>
<stop offset="1"/>
</radialGradient>
<radialGradient id="paint13_radial_4105_222" cx="0" cy="0" r="1" gradientUnits="userSpaceOnUse" gradientTransform="translate(47.8137 48.18) rotate(-40.71) scale(1.50522)">
<stop stop-color="#0062FF"/>
<stop offset="0.13" stop-color="#004FCE"/>
<stop offset="0.31" stop-color="#003790"/>
<stop offset="0.48" stop-color="#00235D"/>
<stop offset="0.64" stop-color="#001434"/>
<stop offset="0.78" stop-color="#000917"/>
<stop offset="0.91" stop-color="#000206"/>
<stop offset="1"/>
</radialGradient>
<radialGradient id="paint14_radial_4105_222" cx="0" cy="0" r="1" gradientUnits="userSpaceOnUse" gradientTransform="translate(32.1205 66.0831) rotate(-40.71) scale(2.01304)">
<stop stop-color="#0062FF"/>
<stop offset="0.13" stop-color="#004FCE"/>
<stop offset="0.31" stop-color="#003790"/>
<stop offset="0.48" stop-color="#00235D"/>
<stop offset="0.64" stop-color="#001434"/>
<stop offset="0.78" stop-color="#000917"/>
<stop offset="0.91" stop-color="#000206"/>
<stop offset="1"/>
</radialGradient>
<radialGradient id="paint15_radial_4105_222" cx="0" cy="0" r="1" gradientUnits="userSpaceOnUse" gradientTransform="translate(32.1201 66.0827) rotate(-40.71) scale(0.940112)">
<stop stop-color="#0062FF"/>
<stop offset="0.13" stop-color="#004FCE"/>
<stop offset="0.31" stop-color="#003790"/>
<stop offset="0.48" stop-color="#00235D"/>
<stop offset="0.64" stop-color="#001434"/>
<stop offset="0.78" stop-color="#000917"/>
<stop offset="0.91" stop-color="#000206"/>
<stop offset="1"/>
</radialGradient>
<radialGradient id="paint16_radial_4105_222" cx="0" cy="0" r="1" gradientUnits="userSpaceOnUse" gradientTransform="translate(63.0439 68.5666) rotate(-40.71) scale(2.96357)">
<stop stop-color="#0062FF"/>
<stop offset="0.13" stop-color="#004FCE"/>
<stop offset="0.31" stop-color="#003790"/>
<stop offset="0.48" stop-color="#00235D"/>
<stop offset="0.64" stop-color="#001434"/>
<stop offset="0.78" stop-color="#000917"/>
<stop offset="0.91" stop-color="#000206"/>
<stop offset="1"/>
</radialGradient>
<radialGradient id="paint17_radial_4105_222" cx="0" cy="0" r="1" gradientUnits="userSpaceOnUse" gradientTransform="translate(63.044 68.5663) rotate(-40.71) scale(1.38543)">
<stop stop-color="#0062FF"/>
<stop offset="0.13" stop-color="#004FCE"/>
<stop offset="0.31" stop-color="#003790"/>
<stop offset="0.48" stop-color="#00235D"/>
<stop offset="0.64" stop-color="#001434"/>
<stop offset="0.78" stop-color="#000917"/>
<stop offset="0.91" stop-color="#000206"/>
<stop offset="1"/>
</radialGradient>
<radialGradient id="paint18_radial_4105_222" cx="0" cy="0" r="1" gradientUnits="userSpaceOnUse" gradientTransform="translate(59.2819 74.4286) rotate(-40.71) scale(2.01304)">
<stop stop-color="#0062FF"/>
<stop offset="0.13" stop-color="#004FCE"/>
<stop offset="0.31" stop-color="#003790"/>
<stop offset="0.48" stop-color="#00235D"/>
<stop offset="0.64" stop-color="#001434"/>
<stop offset="0.78" stop-color="#000917"/>
<stop offset="0.91" stop-color="#000206"/>
<stop offset="1"/>
</radialGradient>
<radialGradient id="paint19_radial_4105_222" cx="0" cy="0" r="1" gradientUnits="userSpaceOnUse" gradientTransform="translate(59.2823 74.4281) rotate(-40.71) scale(0.940112)">
<stop stop-color="#0062FF"/>
<stop offset="0.13" stop-color="#004FCE"/>
<stop offset="0.31" stop-color="#003790"/>
<stop offset="0.48" stop-color="#00235D"/>
<stop offset="0.64" stop-color="#001434"/>
<stop offset="0.78" stop-color="#000917"/>
<stop offset="0.91" stop-color="#000206"/>
<stop offset="1"/>
</radialGradient>
<radialGradient id="paint20_radial_4105_222" cx="0" cy="0" r="1" gradientUnits="userSpaceOnUse" gradientTransform="translate(12.5015 60.7224) rotate(-40.71) scale(2.01304)">
<stop stop-color="#0062FF"/>
<stop offset="0.13" stop-color="#004FCE"/>
<stop offset="0.31" stop-color="#003790"/>
<stop offset="0.48" stop-color="#00235D"/>
<stop offset="0.64" stop-color="#001434"/>
<stop offset="0.78" stop-color="#000917"/>
<stop offset="0.91" stop-color="#000206"/>
<stop offset="1"/>
</radialGradient>
<radialGradient id="paint21_radial_4105_222" cx="0" cy="0" r="1" gradientUnits="userSpaceOnUse" gradientTransform="translate(12.5011 60.722) rotate(-40.71) scale(0.940112)">
<stop stop-color="#0062FF"/>
<stop offset="0.13" stop-color="#004FCE"/>
<stop offset="0.31" stop-color="#003790"/>
<stop offset="0.48" stop-color="#00235D"/>
<stop offset="0.64" stop-color="#001434"/>
<stop offset="0.78" stop-color="#000917"/>
<stop offset="0.91" stop-color="#000206"/>
<stop offset="1"/>
</radialGradient>
<radialGradient id="paint22_radial_4105_222" cx="0" cy="0" r="1" gradientUnits="userSpaceOnUse" gradientTransform="translate(68.6899 73.9229) rotate(-40.71) scale(1.61199)">
<stop stop-color="#0062FF"/>
<stop offset="0.13" stop-color="#004FCE"/>
<stop offset="0.31" stop-color="#003790"/>
<stop offset="0.48" stop-color="#00235D"/>
<stop offset="0.64" stop-color="#001434"/>
<stop offset="0.78" stop-color="#000917"/>
<stop offset="0.91" stop-color="#000206"/>
<stop offset="1"/>
</radialGradient>
<radialGradient id="paint23_radial_4105_222" cx="0" cy="0" r="1" gradientUnits="userSpaceOnUse" gradientTransform="translate(68.6895 73.9227) rotate(-40.7099) scale(0.752612)">
<stop stop-color="#0062FF"/>
<stop offset="0.13" stop-color="#004FCE"/>
<stop offset="0.31" stop-color="#003790"/>
<stop offset="0.48" stop-color="#00235D"/>
<stop offset="0.64" stop-color="#001434"/>
<stop offset="0.78" stop-color="#000917"/>
<stop offset="0.91" stop-color="#000206"/>
<stop offset="1"/>
</radialGradient>
</defs>
</svg>
