<svg width="178" height="159" viewBox="0 0 178 159" fill="none" xmlns="http://www.w3.org/2000/svg">
<path style="mix-blend-mode:multiply" opacity="0.8" d="M153.094 90.3207C144.609 89.4841 131.545 89.0208 128.112 87.128C123.209 84.4217 122.118 73.1888 119.973 69.4559C117.83 65.7229 114.304 62.2158 112.141 61.7686C109.978 61.3214 94.0175 64.9612 86.4089 61.9648C78.7981 58.9707 55.9759 43.3019 48.1579 43.9778C40.3422 44.6536 38.1484 50.2734 39.7503 53.0283C41.35 55.7833 60.8906 63.1572 63.0843 64.6661C65.2757 66.1729 79.1256 72.7143 80.0279 73.2137C80.9302 73.7153 81.0002 76.0888 79.8364 76.6292C78.6704 77.1718 64.2232 75.3124 59.4386 74.0765C54.6541 72.8407 33.5442 67.5813 30.6199 69.855C27.6956 72.1309 24.9516 78.9343 28.8378 81.5314C32.724 84.1286 54.5568 87.1321 56.0983 87.321C57.6419 87.5121 70.7455 88.1986 70.9562 88.5332C71.1646 88.8678 69.9493 89.6144 68.9449 91.2619C67.9426 92.9095 67.5971 98.355 69.1833 100.811C70.7696 103.268 75.6907 104.436 75.4232 105.551C74.1986 110.637 78.116 116.57 80.2748 117.041C82.4336 117.513 89.2187 115.784 95.2318 116.271C101.245 116.757 110.358 117.255 115.56 115.932C120.742 114.616 120.926 110.22 122.959 109.126C124.754 108.158 147.113 117.437 153.323 119.011L153.092 90.3207L153.094 90.3207Z" fill="url(#paint0_radial_4105_553)"/>
<path d="M153.071 87.4087C151.534 87.2308 149.24 86.9573 146.6 86.6223L146.482 86.6056C142.677 86.1207 139.218 85.6375 136.2 85.1706L136.096 85.1427L136.001 85.139L135.917 85.1264C132.997 84.6699 130.531 84.2339 128.576 83.8271L128.237 83.7546C124.66 82.9914 123.875 82.5286 123.782 82.4674C122.176 81.1573 118.983 72.9127 117.447 68.947C116.306 66.0025 115.637 64.2976 115.171 63.5048L115.162 63.4894C113.711 61.0496 110.745 58.2415 108.692 57.3598C107.839 56.9883 106.607 56.9606 104.301 57.258C102.995 57.4234 101.493 57.6744 100.039 57.9185C97.9926 58.2624 95.8781 58.618 94.5666 58.6794C92.2621 58.7887 87.9342 58.4939 85.3464 58.3156L84.8395 58.2821C72.6823 53.1408 68.2925 50.9106 66.747 49.9407C66.1332 49.5584 65.468 49.1014 64.6401 48.4996C64.0325 48.0598 63.4204 47.6045 62.7727 47.1208C58.4011 43.8638 53.4463 40.1668 46.3896 39.2192C40.3384 38.4028 37.7418 40.9814 36.7304 42.5914C35.2057 45.022 35.4348 47.9251 36.4315 49.4305C36.7965 49.9762 37.4902 50.6676 39.9812 52.0038L40.1091 52.2262L40.6811 52.3676C43.3161 53.7381 46.8001 55.2919 49.6112 56.5459C51.4231 57.3544 52.9886 58.052 53.6041 58.3811C54.2685 58.7386 55.071 59.2056 55.9179 59.6988C56.3447 59.9476 56.7849 60.2051 57.2316 60.4604L57.4095 60.5607C58.9899 61.4706 60.9765 62.5476 62.6866 63.0759C64.1816 63.5351 71.0618 66.7453 76.2981 69.4068C76.2577 69.6107 76.2173 69.819 76.1748 70.0317C76.06 70.6123 75.9389 71.2284 75.8113 71.8732C72.3856 71.5092 67.4492 70.9207 61.3763 70.151L61.2789 70.1407C61.239 70.1366 61.2014 70.1347 61.1659 70.1283L61.1239 70.122C60.9023 70.0906 60.703 70.0657 60.5259 70.045C60.3885 70.0262 60.2645 70.0117 60.1604 69.9992L60.0763 69.9889C59.9278 69.9657 59.8193 69.9533 59.7617 69.9471C57.1971 69.6227 55.2657 69.3705 54.7209 69.2974C54.2395 69.1487 53.745 69.0022 53.2549 68.8645C48.6443 67.5299 42.8955 66.3439 37.8767 65.6874C28.9997 64.5288 27.5747 65.6199 26.9612 66.0895C24.0962 68.3052 24.0251 74.3105 24.4559 75.608C24.5897 76.0074 24.9003 76.9385 27.7891 78.4972C28.7891 79.0356 30.8104 80.0172 33.1022 80.5275C35.3985 81.0444 38.7407 81.4799 41.6909 81.8633C43.2257 82.0633 44.6742 82.2508 45.6623 82.4154L45.7753 82.4344C46.0988 82.4871 46.4289 82.5419 46.7567 82.588C47.5719 82.712 48.4025 82.8292 49.2044 82.94C50.5289 83.1262 52.343 83.3793 52.7401 83.5133C53.4746 83.7795 54.5923 83.828 56.8497 83.9072C57.2791 83.9214 57.7306 83.9377 58.1909 83.9561L58.2463 83.9689L58.3768 83.9679L66.5749 84.8753C65.9487 85.4225 65.425 86.0528 65.0768 86.7747C64.1454 88.7093 64.2908 91.0976 64.5763 92.7569C64.876 94.5356 65.6263 97.0297 66.762 98.213C67.6343 99.1087 69.5305 100.22 70.9038 100.963C70.7087 102.013 70.6273 103.441 71.0862 104.931C71.896 109.055 75.0654 111.928 77.686 112.334C80.0498 112.706 89.8457 112.026 91.8999 111.876C92.1676 111.87 93.7602 111.826 95.7115 111.801L95.8663 111.8C98.2601 111.781 101.552 111.781 103.211 111.942C105.25 112.143 107.9 112.024 110.375 111.623L110.779 111.558C111.793 111.384 112.676 111.173 113.334 110.947C114.766 110.457 116.335 108.847 118.397 106.625C118.745 106.248 119.177 105.782 119.5 105.457C123.056 106.269 138.831 110.764 148.727 113.635L150.024 114.012L150.778 112.891C150.903 112.704 151.99 111.071 153.242 108.579L153.071 87.4065L153.071 87.4087Z" fill="white"/>
<path d="M63.5573 50.0014C64.3051 50.5463 65.0371 51.056 65.7665 51.5125C69.6447 53.9482 83.7907 59.8876 90.9853 62.8564C93.5581 63.9154 95.2407 64.5965 95.2407 64.5965C95.2407 64.5965 109.352 73.636 111.096 77.6066C112.18 80.0759 105.818 91.9663 100.003 100.633C96.4782 105.881 93.1568 109.945 91.8079 110.031C91.8079 110.031 80.2654 110.868 77.9747 110.508C75.6753 110.153 71.4787 106.372 73.0868 100.016L73.0447 99.9985C72.6115 99.7807 69.1457 98.0165 68.086 96.9254C67.4769 96.2909 66.7364 94.4605 66.3972 92.4521C66.1024 90.7331 66.1075 88.8967 66.7408 87.5818C67.7941 85.405 71.4748 84.1917 73.1527 83.7445C73.6119 83.6191 73.9144 83.5481 73.9895 83.5364C73.5289 83.4826 64.025 82.5149 60.9299 82.261C60.1395 82.1944 59.336 82.1544 58.5459 82.1187C58.5237 82.1123 58.5082 82.1168 58.4906 82.1192C58.4684 82.1127 58.453 82.1195 58.4441 82.1151C58.4197 82.1153 58.4064 82.1132 58.4064 82.1132C56.0803 82.0147 53.9982 82.0027 53.3658 81.7733C52.6136 81.4984 49.6726 81.1614 47.0277 80.7579C46.6622 80.7033 46.3033 80.6443 45.9532 80.5874C43.1019 80.117 36.9373 79.494 33.5017 78.7208C30.0728 77.9563 26.4576 75.7729 26.2038 75.0205C25.9566 74.2769 26.0237 69.15 28.084 67.5603C30.0345 66.0666 43.3689 67.9372 52.7319 70.6473C53.2752 70.8 53.803 70.955 54.3132 71.1146C54.3132 71.1146 56.4594 71.4005 59.5424 71.7894C59.5424 71.7894 59.6398 71.7996 59.8126 71.827C59.9322 71.8415 60.0983 71.8601 60.2932 71.8873C60.4593 71.9059 60.6475 71.9309 60.8557 71.9602C60.9444 71.975 61.0374 71.9831 61.1348 71.9912C68.8687 72.9709 80.5268 74.3881 81.4584 74.1351C82.8647 73.752 83.8304 72.2353 83.105 71.1681C82.3884 70.103 65.8763 62.125 63.2192 61.3079C61.722 60.8442 59.8843 59.8612 58.1505 58.8596L58.1439 58.8597C56.7946 58.0829 55.5007 57.3079 54.4696 56.752C52.7897 55.8474 45.7082 52.9219 41.3577 50.6405C41.3422 50.6362 41.3222 50.6231 41.3089 50.621C41.3044 50.6122 41.2955 50.61 41.2889 50.6079L41.2734 50.6036C41.26 50.5926 41.2533 50.5905 41.2533 50.5905C39.5603 49.7058 38.3016 48.915 37.9568 48.4023C36.7316 46.5492 37.3172 39.865 46.1303 41.0529C53.723 42.0736 58.8928 46.6428 63.544 50.0038L63.5573 50.0014Z" fill="url(#paint1_linear_4105_553)"/>
<g style="mix-blend-mode:multiply" opacity="0.5">
<path d="M78.9614 65.5726L96.992 69.2484L101.571 94.4097L100.004 100.631C96.4796 105.878 93.1581 109.943 91.8092 110.029C91.8092 110.029 80.2667 110.865 77.976 110.506L80.0615 107.65L76.584 107.441L79.4585 106.126C79.4585 106.126 81.6919 105.418 81.9473 104.993C82.2028 104.569 83.6643 97.5918 80.0241 96.1321C80.0241 96.1321 74.6243 98.4478 73.0882 100.016L73.046 99.9982C72.6128 99.7805 69.1471 98.0163 68.0873 96.9252C68.0873 96.9252 73.3237 95.4758 75.8295 95.0751C78.3286 94.6722 79.2353 85.0117 77.2178 83.1319L73.154 83.7443L58.4919 82.1212C58.5074 82.1166 58.525 82.1143 58.5472 82.1207C59.9278 82.1207 71.1914 82.0874 72.5493 81.4681C73.9909 80.7993 74.605 75.4622 73.0164 74.3555C71.7882 73.5025 64.4319 72.4401 61.1405 71.9909C68.8745 72.9707 80.5325 74.3879 81.4642 74.1348C82.8705 73.7518 83.8362 72.2351 83.1107 71.1678C82.3941 70.1028 65.8821 62.1247 63.2249 61.3076C61.7277 60.844 59.8901 59.8609 58.1562 58.8594L78.957 65.5749L78.9614 65.5726Z" fill="#D87290"/>
</g>
<g style="mix-blend-mode:multiply" opacity="0.31">
<path d="M63.5572 50.0018C64.305 50.5467 65.0371 51.0563 65.7664 51.5129C69.6447 53.9486 83.7906 59.888 90.9853 62.8567L87.7903 79.8679C87.7903 79.8679 71.4747 84.1876 73.1548 83.7426C73.614 83.6173 73.9165 83.5462 73.9917 83.5346C73.531 83.4808 64.0272 82.513 60.932 82.2592C60.1416 82.1925 59.3382 82.1525 58.548 82.1169C58.5258 82.1104 58.5104 82.115 58.4927 82.1173C58.4705 82.1109 58.4551 82.1176 58.4462 82.1133C58.4219 82.1135 58.4086 82.1114 58.4086 82.1114C56.0824 82.0128 54.0004 82.0009 53.368 81.7714C52.6157 81.4965 49.6748 81.1595 47.0298 80.7561L46.9359 80.6396C46.9359 80.6396 52.6764 80.7902 54.0426 79.2813C55.4001 77.777 56.9001 73.3819 52.8209 70.7133C52.7875 70.6892 52.763 70.6673 52.7363 70.6454C53.2796 70.7981 53.8074 70.9531 54.3175 71.1128C54.3175 71.1128 56.4638 71.3986 59.5467 71.7875C59.5467 71.7875 59.6441 71.7978 59.8169 71.8251C59.9365 71.8397 60.1026 71.8582 60.2975 71.8854C60.4636 71.904 60.6519 71.929 60.8601 71.9583C60.9487 71.9731 61.0417 71.9812 61.1391 71.9893C68.8731 72.969 80.5311 74.3863 81.4628 74.1332C82.8691 73.7501 83.8348 72.2334 83.1093 71.1662C82.3927 70.1011 65.8807 62.1231 63.2235 61.306C61.7263 60.8424 59.8887 59.8593 58.1549 58.8578L58.1482 58.8578C56.799 58.081 55.505 57.306 54.474 56.7501C52.794 55.8455 45.7126 52.9201 41.3621 50.6386C42.8778 51.2061 59.6023 57.5407 61.4733 57.165C63.1233 56.8353 64.8418 52.9098 63.5506 50.0019L63.5572 50.0018Z" fill="#D87290"/>
</g>
<path d="M153.086 89.2742C151.534 89.0942 149.096 88.8063 146.256 88.4442L146.25 88.4443C137.351 87.3079 124.521 85.4399 122.632 83.9175C119.711 81.567 114.871 66.6428 113.579 64.4473L113.575 64.4385C112.289 62.2762 109.616 59.771 107.958 59.0587C107.405 58.8176 106.122 58.8921 104.535 59.0951C101.395 59.4899 97.0435 60.4188 94.6571 60.531C91.061 60.7038 83.267 59.9634 82.7609 60.0295C82.2481 60.0933 79.9216 62.152 79.5026 63.4187C79.0814 64.6855 78.4223 68.2883 77.2823 73.9814C76.1444 79.6679 73.9758 84.0219 74.0004 85.1545C74.0112 85.3889 74.1415 85.6401 74.3669 85.8838L74.367 85.8905L74.3714 85.8905L74.3759 85.9015C74.3893 85.9124 74.4138 85.9344 74.445 85.9651C75.3417 86.8672 77.4084 87.7201 78.8657 87.9008C80.7615 88.1311 86.7439 81.5096 87.5095 79.0564C88.2752 76.6054 88.5956 71.0538 88.5956 71.0538C88.5956 71.0538 92.4412 71.9211 92.8451 72.0705C93.0138 72.1356 93.6726 74.8162 94.5964 78.2603C94.5966 78.2846 94.61 78.3022 94.6102 78.3266C94.8474 79.2008 95.1048 80.1191 95.3734 81.0551C96.5484 85.1918 97.9894 89.665 99.4194 91.9567C99.4194 91.9567 94.696 107.374 91.8102 110.028C91.8102 110.028 93.5222 109.979 95.6925 109.952L95.708 109.948C98.3429 109.929 101.637 109.931 103.395 110.1C105.621 110.319 108.376 110.1 110.461 109.734L110.468 109.734C111.385 109.578 112.176 109.39 112.736 109.198C114.552 108.577 118.261 103.71 118.982 103.497C119.709 103.292 149.242 111.859 149.242 111.859C149.242 111.859 151.426 108.614 153.204 104.132L153.084 89.272L153.086 89.2742Z" fill="url(#paint2_linear_4105_553)"/>
<g style="mix-blend-mode:multiply" opacity="0.31">
<path d="M74.3623 85.8857L74.3663 85.8935L74.3604 85.8935L74.3604 85.8857L74.3623 85.8857Z" fill="#D87290"/>
</g>
<g style="mix-blend-mode:multiply" opacity="0.31">
<path d="M99.4208 91.9609C97.9885 89.6692 96.5498 85.196 95.3748 81.0592C97.6344 87.725 102.306 93.1301 102.306 93.1301C103.803 101.751 107.986 107.182 110.461 109.736C108.375 110.102 105.62 110.323 103.395 110.102C101.639 109.931 98.3421 109.931 95.7071 109.95L95.6917 109.954C93.5214 109.981 91.8093 110.03 91.8093 110.03C94.6974 107.376 99.4186 91.9587 99.4186 91.9587L99.4208 91.9609Z" fill="#D87290"/>
</g>
<g style="mix-blend-mode:multiply" opacity="0.31">
<path d="M95.3735 81.0566C95.0699 80.1652 94.8125 79.2557 94.6104 78.3281C94.8475 79.2024 95.1049 80.1207 95.3735 81.0566Z" fill="#D87290"/>
</g>
<g style="mix-blend-mode:multiply" opacity="0.31">
<path d="M104.531 59.0967C102.237 64.3212 94.3861 71.9291 94.3861 71.9291C94.0202 74.0251 94.1525 76.1746 94.5964 78.264C93.6726 74.82 93.0138 72.1415 92.8451 72.0743C92.4412 71.9249 88.5955 71.0576 88.5955 71.0576C88.5955 71.0576 88.2752 76.6069 87.5095 79.0601C86.7438 81.5111 80.7637 88.1326 78.8657 87.9045C77.4062 87.7238 75.3417 86.8687 74.445 85.9688C74.904 86.3634 77.1637 88.1041 79.8195 86.2839C82.7922 84.2422 87.3356 71.2071 86.8577 68.7285C86.3798 66.2566 82.7586 60.0332 82.7586 60.0332C83.2648 59.9672 91.0587 60.7053 94.6549 60.5347C97.0413 60.4226 101.395 59.4959 104.533 59.0989L104.531 59.0967Z" fill="#D87290"/>
</g>
<g style="mix-blend-mode:multiply" opacity="0.5">
<path d="M88.5931 71.0573L88.5166 66.5068L89.9428 71.3429L88.5931 71.0573Z" fill="#D87290"/>
</g>
<g style="mix-blend-mode:multiply" opacity="0.5">
<path d="M88.5928 71.0577L92.8424 72.0744C92.8424 72.0744 91.26 81.0877 99.4188 91.9606C99.4188 91.9606 97.1677 100.07 94.9092 104.529L90.6157 106.568L80.0575 107.653L76.58 107.444L81.1778 106.102C81.1778 106.102 85.6193 105.679 87.0196 105.369C88.4198 105.061 91.0519 102.491 91.2866 101.412C91.5213 100.332 90.6048 96.9765 89.9656 96.4485C89.3263 95.9204 80.0178 96.1326 80.0178 96.1326C80.0178 96.1326 74.7694 98.5644 73.0819 100.016C73.0819 100.016 76.7196 95.9401 77.775 95.3962C78.8304 94.8545 87.6708 94.4735 88.8837 93.1627C90.0967 91.852 90.1208 88.2565 89.6295 87.1409C89.1382 86.0254 84.1188 83.9285 84.1188 83.9285C84.1188 83.9285 87.0654 80.2984 87.5001 79.0603C87.9349 77.8222 88.5861 71.0578 88.5861 71.0578L88.5928 71.0577Z" fill="#D87290"/>
</g>
<g style="mix-blend-mode:soft-light" opacity="0.97">
<path d="M74.1228 84.4409C73.9293 85.1416 76.7138 86.3781 77.6744 85.3349C78.6351 84.2939 80.1791 76.562 79.0773 74.3739C77.9756 72.1857 76.2642 76.7108 74.1228 84.4386L74.1228 84.4409Z" fill="#F5AF8F"/>
</g>
<path d="M77.8576 85.067C77.8576 85.067 79.0443 83.2476 79.5843 79.4223C80.1265 75.5947 79.2366 72.7809 78.6034 72.4564C77.968 72.1318 76.777 76.1726 76.777 76.1726C76.777 76.1726 77.8478 73.6926 78.6578 73.9958C79.4678 74.2991 79.9174 80.9352 77.8576 85.0692L77.8576 85.067Z" fill="#E86C7C"/>
<g style="mix-blend-mode:soft-light" opacity="0.97">
<path d="M74.3389 83.5646C74.3389 83.5646 76.1699 84.5432 78.097 84.5454C78.097 84.5454 77.9176 85.0712 77.5644 85.4347C77.2111 85.7982 74.7738 85.9152 74.1203 84.4403L74.3367 83.5646L74.3389 83.5646Z" fill="#F5D3D2"/>
</g>
<g style="mix-blend-mode:soft-light" opacity="0.97">
<path d="M76.7772 76.171C76.7772 76.171 77.0668 76.9541 77.6198 76.9474C78.1729 76.9408 79.0352 74.6771 79.0352 74.6771C79.0352 74.6771 78.9651 73.9409 78.3925 73.9897C77.8199 74.0386 76.7795 76.171 76.7795 76.171L76.7772 76.171Z" fill="#F5D3D2"/>
</g>
<g style="mix-blend-mode:soft-light" opacity="0.97">
<path d="M89.623 96.7657C89.623 96.7657 91.2788 97.4228 91.1223 101.061C91.1125 101.223 90.9254 101.346 90.6186 101.431C89.6561 101.708 87.58 101.61 86.3452 101.029L86.2074 100.955C86.1386 100.922 86.0697 100.89 86.0097 100.85C85.9963 100.839 85.983 100.835 85.9763 100.826C85.0908 100.216 85.0797 98.5679 86.16 97.5459C86.7529 96.9813 87.6769 96.6088 88.9653 96.6936C88.9719 96.6935 88.9808 96.6979 88.9896 96.6934C89.1888 96.7051 89.3992 96.7277 89.623 96.768L89.623 96.7657Z" fill="#F5AF8F"/>
</g>
<g style="mix-blend-mode:soft-light" opacity="0.97">
<path d="M88.9761 86.7751C89.1229 86.8669 89.2342 86.9478 89.3012 87.0269C89.7769 87.574 90.5786 90.1407 88.9255 92.028C88.8817 92.0793 88.8334 92.1217 88.7762 92.162C88.5231 92.3388 88.1321 92.4105 87.6741 92.412L87.652 92.4056C86.1651 92.3954 83.8951 91.584 82.6432 90.5232C82.2421 90.1747 81.9404 89.8032 81.8091 89.4281C81.2495 87.8042 82.2445 86.3492 83.5056 85.8059C83.5233 85.7947 83.5409 85.7923 83.5564 85.7878C83.7747 85.6953 83.9998 85.6271 84.2252 85.5921C84.2826 85.5828 84.3379 85.5735 84.3999 85.5752C85.7995 85.471 88.069 86.2204 88.9761 86.7751Z" fill="#F5AF8F"/>
</g>
<g style="mix-blend-mode:multiply" opacity="0.5">
<path d="M83.5037 85.8074L83.9431 85.6932C82.8496 86.1866 81.178 88.2311 82.6078 89.9476C84.1269 91.7651 87.1582 92.327 87.65 92.4049C85.683 92.3897 82.3417 90.9741 81.8071 89.4275C81.2475 87.8036 82.2425 86.3486 83.5037 85.8052L83.5037 85.8074Z" fill="#D87290"/>
</g>
<g style="mix-blend-mode:multiply" opacity="0.5">
<path d="M84.4003 85.5744L83.9433 85.6932C84.0425 85.6415 84.1351 85.6098 84.2235 85.5936C84.2809 85.5842 84.3362 85.575 84.3981 85.5767L84.4003 85.5744Z" fill="#D87290"/>
</g>
<g style="mix-blend-mode:multiply" opacity="0.5">
<path d="M88.9653 96.6934C88.3727 96.738 85.7002 97.0339 85.916 99.3774C86.1559 101.966 90.4661 101.447 90.6186 101.43C89.5656 101.731 87.164 101.6 86.0097 100.85C84.5952 99.9345 85.2972 96.4442 88.9653 96.6934Z" fill="#D87290"/>
</g>
<g style="mix-blend-mode:soft-light" opacity="0.97">
<path d="M89.623 96.7656C89.623 96.7656 91.2789 97.4227 91.1223 101.061C91.1126 101.223 90.9255 101.346 90.6186 101.43C90.6186 101.43 91.0147 98.6904 89.623 96.7656Z" fill="#F5D3D2"/>
</g>
<g style="mix-blend-mode:soft-light" opacity="0.97">
<path d="M88.9768 86.7744C89.1235 86.8661 89.2348 86.9471 89.3018 87.0262C89.7775 87.5733 90.5792 90.14 88.9262 92.0273C88.8823 92.0785 88.834 92.121 88.7768 92.1613C89.0229 91.4004 89.7195 88.8858 88.979 86.7744L88.9768 86.7744Z" fill="#F5D3D2"/>
</g>
<path d="M84.1259 83.9286C84.1259 83.9286 87.6996 80.4306 88.2904 79.0608C88.8812 77.6909 88.9256 71.6725 92.8428 72.0746L88.5932 71.0579C88.5932 71.0579 88.1353 77.1084 87.5072 79.0604C86.8791 81.0125 84.1259 83.9286 84.1259 83.9286Z" fill="#AB3D52"/>
<path d="M89.5441 86.9887C89.5441 86.9887 90.1773 87.3244 90.606 91.6464C91.0346 95.9684 91.9324 100.57 91.6959 101.702C91.4594 102.835 87.496 105.199 87.496 105.199C87.496 105.199 91.3053 102.38 91.2931 101.409C91.2808 100.438 90.6128 97.1599 89.9721 96.446C89.3313 95.7343 82.7653 96.0925 82.7653 96.0925C82.7653 96.0925 86.5007 95.0801 88.2187 93.5661C89.9344 92.0522 90.484 88.3197 89.5463 86.9887L89.5441 86.9887Z" fill="#AB3D52"/>
<path d="M78.8653 87.9029C78.8653 87.9029 81.1766 87.8113 85.0714 84.3395L85.6246 82.1424C85.6246 82.1424 82.8574 86.0654 78.8653 87.9007L78.8653 87.9029Z" fill="#AB3D52"/>
<g style="mix-blend-mode:multiply" opacity="0.6">
<path d="M146.218 88.4422C145.035 88.5247 119.849 90.0021 117.644 85.4532C115.428 80.8602 113.585 64.9384 113.576 64.4473C114.868 66.6427 119.71 81.5669 122.63 83.9174C124.518 85.4399 137.321 87.3014 146.216 88.4422L146.218 88.4422Z" fill="#F3BAC0"/>
</g>
<g style="mix-blend-mode:multiply" opacity="0.6">
<path d="M153.086 89.2732C151.534 89.0932 149.096 88.8054 146.256 88.4433L146.25 88.4433C137.351 87.307 124.521 85.439 122.632 83.9165C119.711 81.566 114.871 66.6419 113.579 64.4464C113.579 64.4464 117.026 88.0106 115.97 96.4775C114.914 104.944 112.74 109.199 112.74 109.199C114.556 108.578 118.265 103.712 118.987 103.498C119.713 103.293 149.246 111.861 149.246 111.861C149.246 111.861 151.43 108.615 153.208 104.134L153.089 89.2732L153.086 89.2732Z" fill="#F3BAC0"/>
</g>
<g style="mix-blend-mode:multiply" opacity="0.5">
<path d="M113.576 64.4473C114.868 66.6427 119.71 81.5669 122.63 83.9174L117.644 85.4532C115.428 80.8602 113.585 64.9384 113.576 64.4473Z" fill="#D87290"/>
</g>
<path style="mix-blend-mode:screen" d="M109.558 98.0936C112.213 99.2072 115.171 79.439 111.388 69.8406C108.754 63.1602 105.839 62.1792 104.345 62.1182C102.851 62.0572 96.268 68.5464 95.577 74.5014C94.886 80.4564 101.965 94.9068 109.558 98.0936Z" fill="url(#paint3_linear_4105_553)"/>
<path d="M104.98 95.2682C104.98 95.2682 95.6456 89.8299 92.8453 72.0749C92.8453 72.0749 91.7305 89.1379 104.98 95.2682Z" fill="#B24D61"/>
<g style="mix-blend-mode:soft-light" opacity="0.97">
<path d="M67.792 95.6785C67.792 95.6785 68.4344 89.996 67.4318 87.4862C67.4318 87.4862 65.346 91.4059 67.792 95.6785Z" fill="#F5EE8F"/>
</g>
<g style="mix-blend-mode:soft-light" opacity="0.97">
<path d="M74.5801 106.935C74.5801 106.935 75.3126 102.555 73.0906 100.013C73.0906 100.013 71.3013 104.203 74.5801 106.935Z" fill="#F5EE8F"/>
</g>
<g style="mix-blend-mode:soft-light" opacity="0.97">
<path d="M26.6976 74.8529C26.6976 74.8529 28.6479 70.587 28.0925 67.5603C28.0925 67.5603 25.5786 71.3463 26.6976 74.8529Z" fill="#F5EE8F"/>
</g>
<g style="mix-blend-mode:soft-light" opacity="0.97">
<path d="M37.9699 48.4001C37.9699 48.4001 41.0349 43.5367 43.8927 41.5136C43.8927 41.5136 40.8739 41.4073 39.2927 43.1458C37.7115 44.8843 37.9677 48.3979 37.9677 48.3979L37.9699 48.4001Z" fill="#F5EE8F"/>
</g>
<g style="mix-blend-mode:multiply" opacity="0.3">
<path d="M82.1007 104.495C82.1007 104.495 83.2768 102.452 83.3357 99.595C83.3945 96.736 80.3887 96.3066 80.3887 96.3066C80.3887 96.3066 83.3371 98.4025 82.1007 104.495Z" fill="#D87290"/>
</g>
<g style="mix-blend-mode:multiply" opacity="0.3">
<path d="M77.0714 93.9641C77.0714 93.9641 79.2184 90.2321 79.6122 87.7487C79.6122 87.7487 78.945 87.8801 78.3246 87.7679C78.3246 87.7679 78.4468 89.2028 77.0714 93.9664L77.0714 93.9641Z" fill="#D87290"/>
</g>
<g style="mix-blend-mode:soft-light" opacity="0.97">
<path d="M83.1499 105.101L88.9828 103.534C88.9828 103.534 87.2513 105.021 86.78 105.019C86.3065 105.016 83.1499 105.101 83.1499 105.101Z" fill="#F5A995"/>
</g>
<g style="mix-blend-mode:soft-light" opacity="0.97">
<path d="M113.052 71.6578C113.052 71.6578 113.253 66.4169 112.553 65.2123C111.853 64.0077 109.32 59.8797 107.624 59.4132C105.925 58.9468 96.4249 60.6318 96.4249 60.6318C96.4249 60.6318 104.936 59.7734 107.22 61.0051C109.505 62.2389 112.486 66.7749 113.052 71.6555L113.052 71.6578Z" fill="#F5FFFF"/>
</g>
<g style="mix-blend-mode:soft-light" opacity="0.97">
<path d="M151.957 104.797C151.957 104.797 149.305 109.619 148.004 110.373C146.702 111.127 120.592 102.804 120.592 102.804C120.592 102.804 145.084 109.124 147.455 108.178C149.824 107.232 151.957 104.799 151.957 104.799L151.957 104.797Z" fill="#F5FFFF"/>
</g>
<g style="mix-blend-mode:soft-light" opacity="0.97">
<path d="M95.1631 108.85C95.1631 108.85 106.273 110.05 110.046 109.296C113.819 108.543 117.272 103.826 117.272 103.826C117.272 103.826 113.999 107.094 108.812 108.041C103.625 108.988 95.1631 108.85 95.1631 108.85Z" fill="#F5FFFF"/>
</g>
<g style="mix-blend-mode:soft-light" opacity="0.97">
<path d="M27.6299 75.4316C27.6299 75.4316 29.6694 77.0237 34.4654 78.036C39.2614 79.0483 53.7874 81.084 53.7874 81.084C53.7874 81.084 29.0492 75.8428 27.6321 75.4316L27.6299 75.4316Z" fill="#F5FFFF"/>
</g>
<g style="mix-blend-mode:soft-light" opacity="0.97">
<path d="M45.4359 41.9043C45.4359 41.9043 57.9513 46.4785 63.5285 51.363C63.5285 51.363 58.9291 46.4706 53.4504 43.9239C47.9716 41.3772 45.4359 41.9043 45.4359 41.9043Z" fill="#F5FFFF"/>
</g>
<g style="mix-blend-mode:soft-light" opacity="0.97">
<path d="M153.093 90.1279C145.597 89.5401 124.841 85.9482 124.841 85.9482C135.919 89.8282 149.659 90.1622 153.093 90.1832L153.093 90.1279Z" fill="#F5FFFF"/>
</g>
<g style="mix-blend-mode:soft-light" opacity="0.97">
<path d="M77.807 72.0893C77.807 72.0893 79.5244 68.2965 79.7575 66.2061C79.9907 64.1156 79.4983 63.4204 79.4983 63.4204L77.807 72.0893Z" fill="#F5FFFF"/>
</g>
<g style="mix-blend-mode:soft-light" opacity="0.97">
<path d="M82.7561 60.0311C82.7561 60.0311 82.7896 61.9978 81.9147 63.2483C81.0397 64.4965 79.4978 63.4226 79.4978 63.4226C79.4978 63.4226 80.4287 61.7004 82.7561 60.0334L82.7561 60.0311Z" fill="#F5AF8F"/>
</g>
<g style="mix-blend-mode:multiply" opacity="0.5">
<path d="M78.8648 87.9026L77.9186 87.1646C77.9186 87.1646 74.834 86.5699 73.9951 85.1562C73.9951 85.1562 74.1787 87.0664 78.8648 87.9026Z" fill="#D87290"/>
</g>
<path fill-rule="evenodd" clip-rule="evenodd" d="M90.0185 51.6288C90.4377 52.4207 91.4166 52.7217 92.2085 52.3026C93.0004 51.8834 93.3014 50.9044 92.8823 50.1125C92.4631 49.3206 91.4841 49.0196 90.6922 49.4388C89.9003 49.858 89.5993 50.8369 90.0185 51.6288Z" fill="white"/>
<path style="mix-blend-mode:screen" opacity="0.61" fill-rule="evenodd" clip-rule="evenodd" d="M85.9455 54.3191C87.6295 57.5018 91.5757 58.7155 94.7583 57.0315C97.941 55.3474 99.1547 51.4013 97.4707 48.2186C95.7867 45.0359 91.8405 43.8222 88.6578 45.5063C85.4751 47.1903 84.2614 51.1364 85.9455 54.3191Z" fill="url(#paint4_radial_4105_553)"/>
<path style="mix-blend-mode:screen" opacity="0.61" d="M91.0316 54.2373C92.6718 54.6105 94.3039 53.5834 94.677 51.9432C95.0502 50.303 94.0231 48.6709 92.3829 48.2977C90.7427 47.9246 89.1106 48.9517 88.7374 50.5919C88.3643 52.2321 89.3914 53.8642 91.0316 54.2373Z" fill="url(#paint5_radial_4105_553)"/>
<path fill-rule="evenodd" clip-rule="evenodd" d="M95.1648 109.557C95.3212 109.854 95.6896 109.968 95.9876 109.809C96.2856 109.65 96.3985 109.284 96.2396 108.986C96.0832 108.689 95.7149 108.575 95.4168 108.734C95.1188 108.893 95.0059 109.259 95.1648 109.557Z" fill="white"/>
<path style="mix-blend-mode:screen" opacity="0.61" fill-rule="evenodd" clip-rule="evenodd" d="M93.7953 110.816C94.4275 112.013 95.9111 112.469 97.1083 111.835C98.305 111.202 98.7613 109.719 98.1266 108.522C97.4945 107.325 96.0109 106.869 94.8136 107.503C93.6164 108.138 93.1606 109.619 93.7953 110.816Z" fill="url(#paint6_radial_4105_553)"/>
<path style="mix-blend-mode:screen" opacity="0.61" fill-rule="evenodd" clip-rule="evenodd" d="M94.9496 110.204C95.2463 110.763 95.9373 110.977 96.4962 110.68C97.055 110.384 97.2689 109.693 96.9722 109.134C96.6755 108.575 95.9845 108.361 95.4256 108.658C94.8668 108.954 94.6529 109.645 94.9496 110.204Z" fill="url(#paint7_radial_4105_553)"/>
<path fill-rule="evenodd" clip-rule="evenodd" d="M67.5932 107.458C67.8973 108.032 68.6063 108.25 69.1777 107.945C69.7511 107.644 69.9697 106.932 69.6651 106.361C69.3605 105.789 68.652 105.569 68.0806 105.873C67.5066 106.178 67.2886 106.887 67.5932 107.458Z" fill="white"/>
<path style="mix-blend-mode:screen" opacity="0.61" fill-rule="evenodd" clip-rule="evenodd" d="M64.7121 109.513C65.9317 111.818 68.7902 112.697 71.0952 111.478C73.4001 110.258 74.2799 107.4 73.0603 105.095C71.8407 102.79 68.9822 101.91 66.6772 103.13C64.3723 104.349 63.4925 107.208 64.7121 109.513Z" fill="url(#paint8_radial_4105_553)"/>
<path style="mix-blend-mode:screen" opacity="0.61" fill-rule="evenodd" clip-rule="evenodd" d="M66.9366 108.337C67.5068 109.414 68.8418 109.823 69.9186 109.255C70.9959 108.685 71.4049 107.35 70.8373 106.273C70.2671 105.196 68.932 104.787 67.8553 105.355C66.778 105.925 66.3689 107.26 66.9366 108.337Z" fill="url(#paint9_radial_4105_553)"/>
<path fill-rule="evenodd" clip-rule="evenodd" d="M106.263 95.9077C106.565 96.4786 107.277 96.6972 107.848 96.3951C108.419 96.093 108.637 95.3814 108.335 94.8106C108.033 94.2397 107.322 94.0211 106.751 94.3232C106.18 94.6253 105.961 95.3368 106.263 95.9077Z" fill="white"/>
<path style="mix-blend-mode:screen" opacity="0.61" d="M109.193 100.183C111.638 99.2807 112.89 96.5669 111.988 94.1212C111.086 91.6755 108.372 90.424 105.926 91.3259C103.481 92.2278 102.229 94.9416 103.131 97.3874C104.033 99.8331 106.747 101.085 109.193 100.183Z" fill="url(#paint10_radial_4105_553)"/>
<path style="mix-blend-mode:screen" opacity="0.61" fill-rule="evenodd" clip-rule="evenodd" d="M105.61 96.7881C106.18 97.8654 107.513 98.2739 108.589 97.7062C109.667 97.136 110.075 95.8035 109.508 94.7268C108.937 93.6495 107.605 93.241 106.528 93.8087C105.451 94.3789 105.042 95.7114 105.61 96.7881Z" fill="url(#paint11_radial_4105_553)"/>
<path fill-rule="evenodd" clip-rule="evenodd" d="M93.2747 78.2406C93.4843 78.6365 93.974 78.7858 94.3694 78.5787C94.7653 78.3692 94.9146 77.8794 94.7076 77.484C94.498 77.0881 94.0082 76.9388 93.6128 77.1459C93.2169 77.3554 93.0677 77.8452 93.2772 78.2412L93.2747 78.2406Z" fill="white"/>
<path style="mix-blend-mode:screen" opacity="0.61" fill-rule="evenodd" clip-rule="evenodd" d="M91.3684 79.7852C92.2107 81.3753 94.1835 81.9834 95.7761 81.1417C97.3662 80.2994 97.9743 78.3266 97.1326 76.7339C96.2909 75.1413 94.3175 74.5358 92.7248 75.3775C91.1348 76.2198 90.5267 78.1926 91.3684 79.7852Z" fill="url(#paint12_radial_4105_553)"/>
<path style="mix-blend-mode:screen" opacity="0.61" fill-rule="evenodd" clip-rule="evenodd" d="M92.9041 78.971C93.2967 79.7137 94.2198 79.9993 94.963 79.6041C95.7057 79.2116 95.9913 78.2885 95.5961 77.5452C95.2036 76.8026 94.2805 76.517 93.5372 76.9122C92.7946 77.3047 92.509 78.2278 92.9041 78.971Z" fill="url(#paint13_radial_4105_553)"/>
<path fill-rule="evenodd" clip-rule="evenodd" d="M74.0624 92.2266C74.1928 92.4723 74.4976 92.5686 74.7463 92.4362C74.992 92.3059 75.0858 92.0005 74.9559 91.7523C74.8256 91.5067 74.5208 91.4103 74.272 91.5427C74.0264 91.6731 73.9326 91.9784 74.0624 92.2266Z" fill="white"/>
<path style="mix-blend-mode:screen" opacity="0.61" fill-rule="evenodd" clip-rule="evenodd" d="M72.9694 93.3409C73.4964 94.3354 74.728 94.7128 75.7194 94.1879C76.714 93.6609 77.0913 92.4294 76.5664 91.4379C76.042 90.4439 74.8079 90.066 73.8165 90.5909C72.8225 91.1153 72.4445 92.3494 72.9694 93.3409Z" fill="url(#paint14_radial_4105_553)"/>
<path style="mix-blend-mode:screen" opacity="0.61" fill-rule="evenodd" clip-rule="evenodd" d="M73.9278 92.8328C74.1733 93.2963 74.7486 93.4731 75.2121 93.2276C75.6756 92.9821 75.8524 92.4068 75.6069 91.9433C75.3614 91.4798 74.7861 91.303 74.3226 91.5485C73.8591 91.794 73.6823 92.3693 73.9278 92.8328Z" fill="url(#paint15_radial_4105_553)"/>
<path fill-rule="evenodd" clip-rule="evenodd" d="M103.776 101.719C103.968 102.081 104.417 102.221 104.782 102.029C105.145 101.836 105.284 101.387 105.092 101.022C104.899 100.66 104.451 100.52 104.086 100.712C103.723 100.905 103.583 101.354 103.776 101.719Z" fill="white"/>
<path style="mix-blend-mode:screen" opacity="0.61" fill-rule="evenodd" clip-rule="evenodd" d="M102.043 103.171C102.818 104.632 104.632 105.191 106.093 104.417C107.554 103.642 108.113 101.828 107.338 100.367C106.564 98.9056 104.75 98.3471 103.289 99.1215C101.828 99.896 101.269 101.71 102.043 103.171Z" fill="url(#paint16_radial_4105_553)"/>
<path style="mix-blend-mode:screen" opacity="0.61" fill-rule="evenodd" clip-rule="evenodd" d="M103.456 102.424C103.816 103.108 104.664 103.368 105.348 103.005C106.032 102.645 106.292 101.798 105.93 101.113C105.567 100.428 104.722 100.169 104.037 100.531C103.353 100.894 103.093 101.739 103.456 102.424Z" fill="url(#paint17_radial_4105_553)"/>
<g style="mix-blend-mode:screen" opacity="0.61">
<path fill-rule="evenodd" clip-rule="evenodd" d="M98.966 106.542C99.0964 106.788 99.4017 106.881 99.6499 106.752C99.8955 106.621 99.9893 106.316 99.8595 106.068C99.7291 105.822 99.4238 105.728 99.1756 105.858C98.9299 105.988 98.8362 106.294 98.966 106.542Z" fill="white"/>
<path style="mix-blend-mode:screen" opacity="0.61" fill-rule="evenodd" clip-rule="evenodd" d="M97.8699 107.656C98.3943 108.65 99.6285 109.028 100.62 108.503C101.614 107.979 101.992 106.745 101.467 105.753C100.943 104.759 99.7084 104.381 98.717 104.906C97.7255 105.431 97.345 106.665 97.8699 107.656Z" fill="url(#paint18_radial_4105_553)"/>
<path style="mix-blend-mode:screen" opacity="0.61" fill-rule="evenodd" clip-rule="evenodd" d="M98.8282 107.148C99.0737 107.612 99.649 107.789 100.112 107.543C100.576 107.298 100.753 106.722 100.507 106.259C100.262 105.795 99.6865 105.618 99.223 105.864C98.7594 106.109 98.5827 106.685 98.8282 107.148Z" fill="url(#paint19_radial_4105_553)"/>
</g>
<path fill-rule="evenodd" clip-rule="evenodd" d="M55.9238 82.547C56.0541 82.7926 56.3589 82.8889 56.6077 82.7566C56.8533 82.6262 56.9471 82.3208 56.8173 82.0726C56.6869 81.827 56.3821 81.7307 56.1333 81.863C55.8877 81.9934 55.7939 82.2988 55.9238 82.547Z" fill="white"/>
<path style="mix-blend-mode:screen" opacity="0.61" fill-rule="evenodd" clip-rule="evenodd" d="M54.8317 83.6592C55.3587 84.6538 56.5903 85.0312 57.5817 84.5062C58.5763 83.9793 58.9537 82.7477 58.4287 81.7563C57.9043 80.7623 56.6702 80.3843 55.6788 80.9093C54.6848 81.4336 54.3068 82.6678 54.8317 83.6592Z" fill="url(#paint20_radial_4105_553)"/>
<path style="mix-blend-mode:screen" opacity="0.61" fill-rule="evenodd" clip-rule="evenodd" d="M55.7901 83.1512C56.0356 83.6147 56.6109 83.7915 57.0744 83.546C57.5379 83.3004 57.7147 82.7251 57.4692 82.2616C57.2237 81.7981 56.6484 81.6213 56.1849 81.8669C55.7214 82.1124 55.5446 82.6877 55.7901 83.1512Z" fill="url(#paint21_radial_4105_553)"/>
<path fill-rule="evenodd" clip-rule="evenodd" d="M108.439 108.106C108.543 108.302 108.789 108.38 108.986 108.273C109.183 108.17 109.261 107.923 109.154 107.726C109.05 107.529 108.804 107.452 108.607 107.558C108.41 107.662 108.332 107.909 108.439 108.106Z" fill="white"/>
<path style="mix-blend-mode:screen" opacity="0.61" fill-rule="evenodd" clip-rule="evenodd" d="M107.613 109.076C108.035 109.871 109.021 110.177 109.816 109.753C110.611 109.332 110.917 108.346 110.493 107.55C110.072 106.755 109.086 106.45 108.291 106.871C107.496 107.292 107.19 108.278 107.614 109.074L107.613 109.076Z" fill="url(#paint22_radial_4105_553)"/>
<path style="mix-blend-mode:screen" opacity="0.61" fill-rule="evenodd" clip-rule="evenodd" d="M108.383 108.671C108.58 109.043 109.041 109.185 109.413 108.989C109.784 108.793 109.927 108.331 109.73 107.96C109.534 107.589 109.073 107.446 108.701 107.642C108.33 107.838 108.187 108.3 108.383 108.671Z" fill="url(#paint23_radial_4105_553)"/>
<defs>
<radialGradient id="paint0_radial_4105_553" cx="0" cy="0" r="1" gradientUnits="userSpaceOnUse" gradientTransform="translate(41.6564 65.469) rotate(14.1484) scale(205.599 205.599)">
<stop stop-color="#E7E5F0"/>
<stop offset="0.17" stop-color="#E2DFEC"/>
<stop offset="0.37" stop-color="#D6D0E1"/>
<stop offset="0.59" stop-color="#C3B7CF"/>
<stop offset="0.82" stop-color="#A795B7"/>
<stop offset="1" stop-color="#8E75A0"/>
</radialGradient>
<linearGradient id="paint1_linear_4105_553" x1="108.979" y1="87.5945" x2="27.3276" y2="67.0119" gradientUnits="userSpaceOnUse">
<stop stop-color="#FF8777"/>
<stop offset="0.98" stop-color="#FFB880"/>
</linearGradient>
<linearGradient id="paint2_linear_4105_553" x1="154.91" y1="98.4665" x2="75.5655" y2="78.4652" gradientUnits="userSpaceOnUse">
<stop offset="0.02" stop-color="#FFB880"/>
<stop offset="1" stop-color="#FF8777"/>
</linearGradient>
<linearGradient id="paint3_linear_4105_553" x1="100.697" y1="95.9272" x2="108.935" y2="63.2475" gradientUnits="userSpaceOnUse">
<stop/>
<stop offset="0.04" stop-color="#0B0300"/>
<stop offset="0.4" stop-color="#6A1E00"/>
<stop offset="0.69" stop-color="#B03200"/>
<stop offset="0.89" stop-color="#DB3F00"/>
<stop offset="1" stop-color="#EC4400"/>
</linearGradient>
<radialGradient id="paint4_radial_4105_553" cx="0" cy="0" r="1" gradientUnits="userSpaceOnUse" gradientTransform="translate(91.6387 51.2922) rotate(-27.8928) scale(6.52047)">
<stop stop-color="#0062FF"/>
<stop offset="0.13" stop-color="#004FCE"/>
<stop offset="0.31" stop-color="#003790"/>
<stop offset="0.48" stop-color="#00235D"/>
<stop offset="0.64" stop-color="#001434"/>
<stop offset="0.78" stop-color="#000917"/>
<stop offset="0.91" stop-color="#000206"/>
<stop offset="1"/>
</radialGradient>
<radialGradient id="paint5_radial_4105_553" cx="0" cy="0" r="1" gradientUnits="userSpaceOnUse" gradientTransform="translate(91.6388 51.2925) rotate(-27.8929) scale(3.04569)">
<stop stop-color="#0062FF"/>
<stop offset="0.13" stop-color="#004FCE"/>
<stop offset="0.31" stop-color="#003790"/>
<stop offset="0.48" stop-color="#00235D"/>
<stop offset="0.64" stop-color="#001434"/>
<stop offset="0.78" stop-color="#000917"/>
<stop offset="0.91" stop-color="#000206"/>
<stop offset="1"/>
</radialGradient>
<radialGradient id="paint6_radial_4105_553" cx="0" cy="0" r="1" gradientUnits="userSpaceOnUse" gradientTransform="translate(95.8877 109.692) rotate(-27.8928) scale(2.45077)">
<stop stop-color="#0062FF"/>
<stop offset="0.13" stop-color="#004FCE"/>
<stop offset="0.31" stop-color="#003790"/>
<stop offset="0.48" stop-color="#00235D"/>
<stop offset="0.64" stop-color="#001434"/>
<stop offset="0.78" stop-color="#000917"/>
<stop offset="0.91" stop-color="#000206"/>
<stop offset="1"/>
</radialGradient>
<radialGradient id="paint7_radial_4105_553" cx="0" cy="0" r="1" gradientUnits="userSpaceOnUse" gradientTransform="translate(95.8876 109.692) rotate(-27.8928) scale(1.1451)">
<stop stop-color="#0062FF"/>
<stop offset="0.13" stop-color="#004FCE"/>
<stop offset="0.31" stop-color="#003790"/>
<stop offset="0.48" stop-color="#00235D"/>
<stop offset="0.64" stop-color="#001434"/>
<stop offset="0.78" stop-color="#000917"/>
<stop offset="0.91" stop-color="#000206"/>
<stop offset="1"/>
</radialGradient>
<radialGradient id="paint8_radial_4105_553" cx="0" cy="0" r="1" gradientUnits="userSpaceOnUse" gradientTransform="translate(68.8155 107.326) rotate(-27.8928) scale(4.72254)">
<stop stop-color="#0062FF"/>
<stop offset="0.13" stop-color="#004FCE"/>
<stop offset="0.31" stop-color="#003790"/>
<stop offset="0.48" stop-color="#00235D"/>
<stop offset="0.64" stop-color="#001434"/>
<stop offset="0.78" stop-color="#000917"/>
<stop offset="0.91" stop-color="#000206"/>
<stop offset="1"/>
</radialGradient>
<radialGradient id="paint9_radial_4105_553" cx="0" cy="0" r="1" gradientUnits="userSpaceOnUse" gradientTransform="translate(68.8152 107.325) rotate(-27.8928) scale(2.20596)">
<stop stop-color="#0062FF"/>
<stop offset="0.13" stop-color="#004FCE"/>
<stop offset="0.31" stop-color="#003790"/>
<stop offset="0.48" stop-color="#00235D"/>
<stop offset="0.64" stop-color="#001434"/>
<stop offset="0.78" stop-color="#000917"/>
<stop offset="0.91" stop-color="#000206"/>
<stop offset="1"/>
</radialGradient>
<radialGradient id="paint10_radial_4105_553" cx="0" cy="0" r="1" gradientUnits="userSpaceOnUse" gradientTransform="translate(107.475 95.7919) rotate(-27.8928) scale(4.7199)">
<stop stop-color="#0062FF"/>
<stop offset="0.13" stop-color="#004FCE"/>
<stop offset="0.31" stop-color="#003790"/>
<stop offset="0.48" stop-color="#00235D"/>
<stop offset="0.64" stop-color="#001434"/>
<stop offset="0.78" stop-color="#000917"/>
<stop offset="0.91" stop-color="#000206"/>
<stop offset="1"/>
</radialGradient>
<radialGradient id="paint11_radial_4105_553" cx="0" cy="0" r="1" gradientUnits="userSpaceOnUse" gradientTransform="translate(107.486 95.783) rotate(-27.8928) scale(2.20332)">
<stop stop-color="#0062FF"/>
<stop offset="0.13" stop-color="#004FCE"/>
<stop offset="0.31" stop-color="#003790"/>
<stop offset="0.48" stop-color="#00235D"/>
<stop offset="0.64" stop-color="#001434"/>
<stop offset="0.78" stop-color="#000917"/>
<stop offset="0.91" stop-color="#000206"/>
<stop offset="1"/>
</radialGradient>
<radialGradient id="paint12_radial_4105_553" cx="0" cy="0" r="1" gradientUnits="userSpaceOnUse" gradientTransform="translate(94.1786 78.2843) rotate(-27.8928) scale(3.26155)">
<stop stop-color="#0062FF"/>
<stop offset="0.13" stop-color="#004FCE"/>
<stop offset="0.31" stop-color="#003790"/>
<stop offset="0.48" stop-color="#00235D"/>
<stop offset="0.64" stop-color="#001434"/>
<stop offset="0.78" stop-color="#000917"/>
<stop offset="0.91" stop-color="#000206"/>
<stop offset="1"/>
</radialGradient>
<radialGradient id="paint13_radial_4105_553" cx="0" cy="0" r="1" gradientUnits="userSpaceOnUse" gradientTransform="translate(94.1792 78.2844) rotate(-27.8928) scale(1.52153)">
<stop stop-color="#0062FF"/>
<stop offset="0.13" stop-color="#004FCE"/>
<stop offset="0.31" stop-color="#003790"/>
<stop offset="0.48" stop-color="#00235D"/>
<stop offset="0.64" stop-color="#001434"/>
<stop offset="0.78" stop-color="#000917"/>
<stop offset="0.91" stop-color="#000206"/>
<stop offset="1"/>
</radialGradient>
<radialGradient id="paint14_radial_4105_553" cx="0" cy="0" r="1" gradientUnits="userSpaceOnUse" gradientTransform="translate(74.6964 92.4115) rotate(-27.8929) scale(2.03485)">
<stop stop-color="#0062FF"/>
<stop offset="0.13" stop-color="#004FCE"/>
<stop offset="0.31" stop-color="#003790"/>
<stop offset="0.48" stop-color="#00235D"/>
<stop offset="0.64" stop-color="#001434"/>
<stop offset="0.78" stop-color="#000917"/>
<stop offset="0.91" stop-color="#000206"/>
<stop offset="1"/>
</radialGradient>
<radialGradient id="paint15_radial_4105_553" cx="0" cy="0" r="1" gradientUnits="userSpaceOnUse" gradientTransform="translate(74.6968 92.4117) rotate(-27.8929) scale(0.950299)">
<stop stop-color="#0062FF"/>
<stop offset="0.13" stop-color="#004FCE"/>
<stop offset="0.31" stop-color="#003790"/>
<stop offset="0.48" stop-color="#00235D"/>
<stop offset="0.64" stop-color="#001434"/>
<stop offset="0.78" stop-color="#000917"/>
<stop offset="0.91" stop-color="#000206"/>
<stop offset="1"/>
</radialGradient>
<radialGradient id="paint16_radial_4105_553" cx="0" cy="0" r="1" gradientUnits="userSpaceOnUse" gradientTransform="translate(104.619 101.795) rotate(-27.8928) scale(2.99568)">
<stop stop-color="#0062FF"/>
<stop offset="0.13" stop-color="#004FCE"/>
<stop offset="0.31" stop-color="#003790"/>
<stop offset="0.48" stop-color="#00235D"/>
<stop offset="0.64" stop-color="#001434"/>
<stop offset="0.78" stop-color="#000917"/>
<stop offset="0.91" stop-color="#000206"/>
<stop offset="1"/>
</radialGradient>
<radialGradient id="paint17_radial_4105_553" cx="0" cy="0" r="1" gradientUnits="userSpaceOnUse" gradientTransform="translate(104.619 101.795) rotate(-27.8928) scale(1.40044)">
<stop stop-color="#0062FF"/>
<stop offset="0.13" stop-color="#004FCE"/>
<stop offset="0.31" stop-color="#003790"/>
<stop offset="0.48" stop-color="#00235D"/>
<stop offset="0.64" stop-color="#001434"/>
<stop offset="0.78" stop-color="#000917"/>
<stop offset="0.91" stop-color="#000206"/>
<stop offset="1"/>
</radialGradient>
<radialGradient id="paint18_radial_4105_553" cx="0" cy="0" r="1" gradientUnits="userSpaceOnUse" gradientTransform="translate(99.5966 106.729) rotate(-27.8928) scale(2.03485)">
<stop stop-color="#0062FF"/>
<stop offset="0.13" stop-color="#004FCE"/>
<stop offset="0.31" stop-color="#003790"/>
<stop offset="0.48" stop-color="#00235D"/>
<stop offset="0.64" stop-color="#001434"/>
<stop offset="0.78" stop-color="#000917"/>
<stop offset="0.91" stop-color="#000206"/>
<stop offset="1"/>
</radialGradient>
<radialGradient id="paint19_radial_4105_553" cx="0" cy="0" r="1" gradientUnits="userSpaceOnUse" gradientTransform="translate(99.5969 106.729) rotate(-27.8928) scale(0.950299)">
<stop stop-color="#0062FF"/>
<stop offset="0.13" stop-color="#004FCE"/>
<stop offset="0.31" stop-color="#003790"/>
<stop offset="0.48" stop-color="#00235D"/>
<stop offset="0.64" stop-color="#001434"/>
<stop offset="0.78" stop-color="#000917"/>
<stop offset="0.91" stop-color="#000206"/>
<stop offset="1"/>
</radialGradient>
<radialGradient id="paint20_radial_4105_553" cx="0" cy="0" r="1" gradientUnits="userSpaceOnUse" gradientTransform="translate(56.56 82.7289) rotate(-27.8928) scale(2.03485)">
<stop stop-color="#0062FF"/>
<stop offset="0.13" stop-color="#004FCE"/>
<stop offset="0.31" stop-color="#003790"/>
<stop offset="0.48" stop-color="#00235D"/>
<stop offset="0.64" stop-color="#001434"/>
<stop offset="0.78" stop-color="#000917"/>
<stop offset="0.91" stop-color="#000206"/>
<stop offset="1"/>
</radialGradient>
<radialGradient id="paint21_radial_4105_553" cx="0" cy="0" r="1" gradientUnits="userSpaceOnUse" gradientTransform="translate(56.5604 82.7291) rotate(-27.8928) scale(0.950298)">
<stop stop-color="#0062FF"/>
<stop offset="0.13" stop-color="#004FCE"/>
<stop offset="0.31" stop-color="#003790"/>
<stop offset="0.48" stop-color="#00235D"/>
<stop offset="0.64" stop-color="#001434"/>
<stop offset="0.78" stop-color="#000917"/>
<stop offset="0.91" stop-color="#000206"/>
<stop offset="1"/>
</radialGradient>
<radialGradient id="paint22_radial_4105_553" cx="0" cy="0" r="1" gradientUnits="userSpaceOnUse" gradientTransform="translate(108.982 108.34) rotate(-27.8929) scale(1.62946)">
<stop stop-color="#0062FF"/>
<stop offset="0.13" stop-color="#004FCE"/>
<stop offset="0.31" stop-color="#003790"/>
<stop offset="0.48" stop-color="#00235D"/>
<stop offset="0.64" stop-color="#001434"/>
<stop offset="0.78" stop-color="#000917"/>
<stop offset="0.91" stop-color="#000206"/>
<stop offset="1"/>
</radialGradient>
<radialGradient id="paint23_radial_4105_553" cx="0" cy="0" r="1" gradientUnits="userSpaceOnUse" gradientTransform="translate(108.982 108.34) rotate(-27.8928) scale(0.760767)">
<stop stop-color="#0062FF"/>
<stop offset="0.13" stop-color="#004FCE"/>
<stop offset="0.31" stop-color="#003790"/>
<stop offset="0.48" stop-color="#00235D"/>
<stop offset="0.64" stop-color="#001434"/>
<stop offset="0.78" stop-color="#000917"/>
<stop offset="0.91" stop-color="#000206"/>
<stop offset="1"/>
</radialGradient>
</defs>
</svg>
