<svg width="156" height="176" viewBox="0 0 156 176" fill="none" xmlns="http://www.w3.org/2000/svg">
<path d="M84.7002 80.3931V80.4082L84.4148 81.0855L81.1397 88.8674L78.9163 94.1205V94.1355L78.1351 96.002L76.5276 99.78L75.1605 103.016L72.0357 110.286L44.874 173.309L44.6186 173.881L44.4984 174.152H44.4834L43.9726 174.302L42.0496 174.814L28.6641 149.03L28.649 149.015L22.0088 150.565L18.6136 151.348L16.4653 151.845L8.00731 153.801L2.44876 155.111H2.41872L0 155.788L30.6922 87.8589L38.4141 70.7599L42.6506 61.3674H42.6656L44.0327 61.9846L44.4383 62.1652L48.6898 64.1069L54.8944 66.9066L56.592 67.6893L58.9506 68.7429L72.6968 74.9744L75.0404 76.028H75.0554L76.4826 76.6753H76.4976L77.8497 77.2924L77.8647 77.3075H77.8797L80.4787 78.4815H80.4937L82.7021 79.4749L84.7002 80.3931Z" fill="#072440"/>
<path d="M87.1492 79.7159L86.6985 80.7394L86.3229 81.5522L85.8121 82.666L82.0714 90.9446V90.9597L79.7728 96.0322V96.0623L78.9616 97.8685L78.0302 99.9005L74.3345 108.119L44.8742 173.309L44.6188 173.881L44.4836 174.137L42.17 169.2L38.1889 161.719L37.1974 159.837L35.5899 156.827V156.812L31.098 148.338L28.6643 149.03L21.8438 150.927L18.4636 151.664L16.3453 152.116L7.94743 153.922L6.94088 154.148L2.44897 155.111L32.6604 88.2353H32.6754L39.4358 73.2435L44.4385 62.1653L45.0995 60.6902L49.3661 62.6319L55.5556 65.4316L57.2532 66.1992L59.6269 67.2679L73.358 73.4843L75.7166 74.5681L77.1438 75.2003H77.1588L79.8179 76.4195H79.8329L82.4319 77.5935H82.447L83.3483 77.9999L83.8441 78.2257L86.0074 79.2041L86.8788 79.5954L87.1492 79.7159Z" fill="url(#paint0_linear_3161_194)"/>
<path d="M55.5553 65.4315L54.8943 66.9066L16.4652 151.845L16.4352 151.905L16.345 152.116L7.96216 153.937V153.907L8.00723 153.817L48.6898 64.1069L49.3658 62.6318L55.5553 65.4315Z" fill="white"/>
<path d="M83.3481 78.0148L42.1698 169.199L38.1887 161.719L77.1586 75.2151L83.3481 78.0148Z" fill="white"/>
<path d="M75.7163 74.568L37.1971 159.852L35.5896 156.827L73.3577 73.4993L75.7163 74.568Z" fill="white"/>
<path d="M59.6267 67.2679L58.9506 68.743L22.0088 150.565V150.58L21.8436 150.942L18.4634 151.664L18.5836 151.408L18.5986 151.348L56.592 67.6743L57.253 66.1992L59.6267 67.2679Z" fill="white"/>
<path style="mix-blend-mode:multiply" opacity="0.5" d="M87.1189 78.6922L86.8785 79.5953L86.6081 80.5586L86.3227 81.552L85.8119 82.6659L82.0711 90.9445V90.9595L79.7726 96.032V96.0621L78.9614 97.8684L78.0299 99.9004L74.3343 108.104V108.119L44.874 173.309L44.6186 173.881L44.4984 174.152H44.4834L43.9726 174.302L42.0496 174.814L28.664 149.03L21.8436 150.927L18.4634 151.664L16.3451 152.116L7.9472 153.922L6.94065 154.148L2.4187 155.201V154.087L32.2095 88.1448L44.0327 61.9845L45.0693 59.6665L80.9594 75.9076L83.288 76.9612L83.5735 77.0816L85.4363 77.9396L87.1189 78.6922Z" fill="url(#paint1_linear_3161_194)"/>
<path d="M155.729 153.034L155.264 155.608L125.999 147.419L113.59 175.506L85.4963 112.499L78.9613 97.8684L78.135 96.002L78.0749 95.8816L76.6928 92.7658L72.9971 84.4722L72.1258 82.5305L72.0356 82.3047L72.276 82.1843L73.3727 81.6876H73.3877L74.4544 81.2059L77.1886 79.9717L80.4786 78.4815H80.4936H80.5087L82.4316 77.5935H82.4467L83.3781 77.172L83.5734 77.0817L84.8053 76.5248L87.1789 75.4561L100.91 69.2396L103.284 68.1709L104.981 67.4033L111.171 64.6036L114.085 63.2791L119.268 74.4627L122.709 81.8682L122.799 82.0488L124.166 85.0291L155.729 153.034Z" fill="#072440"/>
<path d="M155.729 153.034L149.855 151.393H149.84L141.322 149.015L138.964 148.353L135.719 147.449L126.464 144.861L122.153 154.042L120.711 157.128L119.839 159.009L117.33 164.308L116.023 167.092L116.008 167.107L113.68 172.059L91.055 121.319L86.3978 110.873L81.5153 99.9606L79.7726 96.0621V96.0471L78.9163 94.1355V94.1204L78.8713 94.0151V94L77.5042 90.9595L73.8085 82.6659V82.6508L73.3728 81.6875L72.9371 80.7242V80.7091L72.5015 79.7307H72.5165L73.6132 79.234L73.6282 79.219L75.7915 78.2557L76.3173 78.0148L77.8647 77.3074H77.8797L79.8177 76.4193H79.8327L80.9595 75.9075L82.5068 75.2001L83.934 74.5679L86.3077 73.4842L100.039 67.2677L102.397 66.2141V66.199L104.11 65.4314L110.285 62.6468L114.551 60.7051H114.566L120.425 73.8003L120.801 74.6733L155.729 153.034Z" fill="url(#paint2_linear_3161_194)"/>
<path d="M149.855 151.393H149.84L141.322 149.015L113.95 87.5428L104.981 67.4033L104.11 65.4315L110.284 62.6318V62.6469L111.171 64.6036L120.755 86.0978L149.855 151.393Z" fill="white"/>
<path d="M119.824 159.009L117.33 164.308L116.023 167.092L88.9067 106.282L82.0712 90.9445L81.1398 88.8674L81.1248 88.7771L79.8178 85.857L77.1887 79.9717L76.3174 78.0149L77.8648 77.3075H77.8798L79.8178 76.4194H79.8328L80.9595 75.9076L82.5069 75.2002L83.2881 76.9613L83.3782 77.172L83.844 78.2256L85.812 82.666L97.8154 109.594L119.824 159.009Z" fill="white"/>
<path d="M122.153 154.042L120.711 157.128L99.5431 109.594L86.6983 80.7389L86.6082 80.5583L86.0073 79.2036L85.4364 77.9393L84.8054 76.5244L83.9341 74.5676L86.3077 73.4839L87.1791 75.4557L101.03 106.583L122.153 154.042Z" fill="white"/>
<path d="M138.979 148.338L135.719 147.45L114.161 99.0275L100.91 69.2397L100.039 67.2679L102.397 66.1992V66.2143L103.284 68.171L113.169 90.3877L138.979 148.338Z" fill="white"/>
<path style="mix-blend-mode:multiply" opacity="0.5" d="M155.729 153.034L149.855 151.393H149.84L141.322 149.015L138.964 148.353L135.719 147.449L128.913 145.553L126.464 144.861L122.153 154.042L120.71 157.128L119.824 159.009L117.33 164.308L116.023 167.092L116.008 167.107L113.68 172.059L113.665 172.074L91.0549 121.319L86.3977 110.873L81.5152 99.9606L79.7725 96.032L78.9162 94.1355V94.1204L78.8711 94.0151V94L77.519 90.9445L73.8083 82.6508L73.3877 81.6875L72.937 80.7091L72.5164 79.7307L73.613 79.234L73.6281 79.219L75.7914 78.2557L76.3172 78.0148L77.8646 77.3074H77.8796L79.8176 76.4193H79.8326L80.9593 75.9075L82.5067 75.2001L83.9339 74.5679L86.3076 73.4842L100.039 67.2677L102.397 66.2141V66.199L104.11 65.4314L110.284 62.6468V62.6317L114.551 60.7051L120.41 73.8153L155.729 153.034Z" fill="url(#paint3_linear_3161_194)"/>
<path opacity="0.2" d="M124.196 85.014L124.166 85.029L122.288 85.7816L120.756 86.0977L113.95 87.5427L112.838 87.7685L113.169 90.3875L114.266 98.9822L114.16 99.0274L112.373 99.7348L102.533 98.6812L101.03 106.583L100.535 109.202L99.543 109.594L98.6266 109.955L97.8153 109.594L89.2071 105.725L88.9066 106.282L86.3978 110.873L85.4964 112.499L78.9614 97.8684L78.0299 99.9004L74.3342 108.104V108.119L72.0357 110.286L71.8104 110.497L67.2133 114.832L66.6124 115.073L65.3054 115.6L61.7449 109.398L60.7534 107.682L59.5665 105.59L58.605 106.057L50.8832 109.684L48.9752 110.437L46.5866 99.0424L45.1894 99.223L42.0947 99.6144L39.9764 99.8853L35.2742 100.487L35.0488 100.502L35.9052 92.2841L36.2206 89.349L36.2807 88.9125L32.6752 88.2351H32.6602L32.2095 88.1448L30.6921 87.8588L38.414 70.7598L42.6505 61.3674H42.6655L44.0326 61.9845L45.0692 59.6665L80.9594 75.9076L82.5068 75.2001L83.934 74.5679L86.3076 73.4842L100.039 67.2677L102.397 66.1991L104.11 65.4314L110.285 62.6317L114.551 60.7051H114.566L120.425 73.8003L120.41 73.8153L119.509 74.3271L119.268 74.4626L119.238 74.4776L119.358 74.7787L122.709 81.8681L122.799 82.0488L124.196 85.014Z" fill="black"/>
<path d="M119.163 71.2565L124.782 79.2943L122.874 80.0469L113.424 82.0488L113.139 82.109L111.592 82.4401L111.486 82.4552L111.877 83.7045L114.701 92.7206L114.867 93.2625L112.959 94.0151L110.104 93.714L103.119 92.9614L101.646 92.8109L101.391 92.7808V92.9915L101.286 96.8448L101.121 103.468L99.2126 104.22L89.7931 99.9907L88.6063 99.4639L84.8956 108.932L83.0027 109.684L74.9353 102.384L74.3644 101.872L67.7993 109.097L65.8914 109.85L60.1526 99.8703L60.0925 99.7499L51.4692 103.964L49.5613 104.717L47.1726 93.3076L35.8602 94.7526L35.6349 94.7827L36.8067 83.6142L36.8668 83.1927L25.4342 81.0252L25.5694 80.7242L30.1815 70.3684L30.0012 70.2781L19.9958 64.7691L27.7928 56.1143L27.5224 55.8433L19.8306 47.6249L20.086 47.4594L29.896 41.8149L29.7007 41.3934L24.9384 31.2785L26.8464 30.5109L33.8621 29.2917L36.3259 28.8702L36.2809 28.524L35.0189 18.4844L34.8687 17.3103L36.7616 16.5577L39.1803 17.0544L46.4365 18.5446L46.6167 17.6114L46.6618 17.3856L48.6148 7.09004L50.5077 6.33744L59.2211 11.8465L59.9272 10.567L64.8247 1.62618L66.7176 0.888631L73.463 9.45319L74.8001 8.18883L81.921 1.46061L83.8289 0.708008L87.6448 11.3347L87.735 11.5755L88.0504 11.4401L89.5978 10.7477L91.8663 9.75423L98.146 6.98467L100.309 16.4975L100.655 18.0027L102.352 17.792L112.193 16.5427L111.216 25.6792L110.961 28.1176L113.56 28.6143L122.393 30.3001L118.878 38.1723L117.631 40.9419L120.35 42.432L127.832 46.5563L122.093 52.9082L120.035 55.1961L122.093 57.3937L127.997 63.7004L120.215 68.1859L117.931 69.4954L119.163 71.2565Z" fill="url(#paint4_linear_3161_194)"/>
<g style="mix-blend-mode:soft-light">
<path d="M46.5717 81.7931L38.8649 92.9917L35.8452 94.7528L35.6199 94.7829L36.8067 83.6294L40.3071 81.6576L28.5891 79.445L25.5544 80.7394L30.1665 70.3837L29.9862 70.2934L33.2462 69.2548L23.4061 63.6404L19.9658 64.7844L27.7628 56.1445L27.4924 55.8736L30.8726 54.9404L31.5637 51.8698L23.0906 46.6618L20.056 47.4897L29.866 41.8301L29.6707 41.4087L32.4049 40.5808C32.4049 40.5808 38.0386 50.5603 37.7381 50.9516C37.4377 51.343 46.5267 81.8232 46.5267 81.8232L46.5717 81.7931Z" fill="#F2F2F2"/>
</g>
<path d="M113.395 81.7628L113.425 82.0488L113.755 84.6076L114.807 92.826L114.867 93.2625L109.023 92.6303L103.299 92.0132L103.119 92.9614L102.202 97.763L101.121 103.468L90.4994 98.7113L89.7933 99.9907L84.8958 108.932L76.2725 101.12L74.9354 102.384L67.7995 109.097L62.0006 98.9973L60.1527 99.8703L51.4694 103.964L49.0807 92.555L37.5279 94.0301L37.558 93.7592L38.7448 82.5304L38.7598 82.4401L27.3423 80.2576L27.5075 79.8963L32.0145 69.7814L32.0896 69.6159L31.9243 69.5255L22.0241 64.0918L21.8889 64.0165L29.4756 55.5874L29.6859 55.3617L29.5957 55.2713L29.4605 55.1359L21.8288 46.9928L21.7236 46.8724L31.4286 41.273L31.8041 41.0472L31.6839 40.7914L31.6088 40.6559L27.6878 32.287L27.5225 31.9709L26.8465 30.5109L33.6369 29.0809L36.281 28.524L37.6181 28.238L38.219 28.1026L38.1439 27.4704L38.0988 27.0941L37.2876 20.7572L36.927 17.9274L36.7618 16.5577L38.9101 16.7835L43.3869 17.2652L46.6169 17.6114L46.9174 17.6415L47.8338 17.7318L48.3295 17.792L48.4197 17.3254L50.5079 6.33744L59.9274 10.567L61.1292 11.1089L66.7178 0.888631L74.8002 8.18883L75.3561 8.68554L83.8291 0.708008L89.598 10.7477L89.628 10.8079L91.8665 9.75423L100.144 5.85578L102.548 17.2501L114.101 15.7901L112.869 27.3801L124.271 29.5476L119.599 40.0689L119.539 40.1893L119.659 40.2645L129.74 45.8037L122.138 54.2177L121.928 54.4435L122.153 54.6693L129.905 62.9328L120.095 68.6074L119.809 68.7579L119.945 69.0439L124.782 79.2943L113.455 81.6875H113.44L113.395 81.7026V81.7628Z" fill="url(#paint5_radial_3161_194)"/>
<path d="M118.007 55.1964C118.007 62.5869 116.444 69.4205 113.62 75.4112C113.394 75.9079 113.154 76.3745 112.899 76.8562C112.613 77.4131 112.313 77.955 111.997 78.4818C111.967 78.5269 111.952 78.5721 111.907 78.6173C111.637 79.0839 111.366 79.5354 111.081 79.987C110.811 80.4235 110.525 80.8449 110.24 81.2815C109.624 82.1846 108.978 83.0726 108.272 83.9005C108.016 84.2316 107.746 84.5477 107.475 84.8638C105.507 87.1517 103.299 89.2138 100.865 91.005C100.55 91.2459 100.249 91.4566 99.9188 91.6974C93.0532 96.4689 84.5952 99.2083 75.1607 99.2083C70.6988 99.2083 66.3572 98.5912 62.2559 97.4172C62.1807 97.387 62.1056 97.372 62.0305 97.3419C48.1492 93.3682 36.8518 83.2081 32.0144 69.7818C31.9843 69.6915 31.9392 69.6011 31.9242 69.5259C30.3919 65.1909 29.5355 60.5098 29.4905 55.6028C29.4905 55.4523 29.4905 55.3018 29.4905 55.1513V55.061C29.4905 50.2594 30.1665 45.6234 31.4585 41.2884C31.5036 41.0927 31.5787 40.882 31.6388 40.6713C32.1195 39.1059 32.6754 37.6007 33.3063 36.1256C33.4115 35.8848 33.5167 35.6439 33.6218 35.4031C33.6969 35.2225 33.7721 35.0419 33.8622 34.8612C34.1927 34.1237 34.5533 33.4162 34.9288 32.6937C35.7401 31.1434 36.6565 29.6533 37.648 28.2534C37.8133 27.9825 37.9936 27.7417 38.1738 27.4858C38.1738 27.4858 38.2039 27.4557 38.2039 27.4406C38.264 27.3503 38.3391 27.26 38.4142 27.1847C39.1353 26.1763 39.9015 25.2129 40.7278 24.2797C41.0733 23.8884 41.4188 23.497 41.7643 23.1207C41.9446 22.9401 42.0949 22.7745 42.2451 22.624C42.7559 22.0821 43.2967 21.5704 43.8526 21.0586C44.2432 20.6823 44.6488 20.306 45.0694 19.9598C45.9558 19.1921 46.8722 18.4697 47.8036 17.7923C47.8036 17.7923 47.8337 17.7622 47.8487 17.7622C48.044 17.6267 48.2393 17.4913 48.4346 17.3558C53.257 13.9691 58.8005 11.5909 64.9149 10.447V10.4018C64.9149 10.4018 72.742 9.19765 79.923 10.2964C82.3868 10.6727 84.7755 11.32 86.7585 12.3887C87.4796 12.78 88.1407 12.7198 88.6815 12.5091C96.178 15.3087 102.743 20.1103 107.746 26.2365C107.776 26.2666 107.791 26.2967 107.836 26.3268C108.031 26.5526 108.196 26.7783 108.377 27.0041C108.377 27.0041 108.392 27.0342 108.407 27.0493C111.051 30.4661 113.229 34.2592 114.852 38.3533C116.895 43.5914 118.022 49.2659 118.022 55.2416L118.007 55.1964Z" fill="url(#paint6_linear_3161_194)"/>
<path d="M122.138 54.2181C122.138 53.7816 122.138 53.3451 122.093 52.9086C121.942 49.281 121.341 45.7739 120.35 42.4324C120.14 41.6949 119.914 40.9724 119.659 40.2649C119.659 40.2047 119.629 40.1295 119.599 40.0693C119.373 39.4371 119.133 38.8049 118.878 38.1727C117.496 34.7559 115.693 31.5498 113.56 28.6147C112.823 27.6062 112.042 26.6279 111.216 25.6796C108.632 22.6692 105.642 20.0201 102.352 17.7924C101.676 17.3408 101 16.9043 100.309 16.4979C96.5383 14.225 92.422 12.5091 88.0503 11.4404C87.9151 11.3953 87.7799 11.3652 87.6447 11.3351C87.4043 11.2749 87.1639 11.2297 86.9236 11.1695C84.3847 10.6878 82.0411 10.3868 79.9078 10.2513C72.907 9.78472 68.2499 10.8835 66.4922 11.3802V11.4555C60.3177 12.9908 54.654 15.7905 49.7865 19.5835C49.6212 19.719 49.4409 19.8545 49.2757 20.005C48.1189 20.9232 46.9922 21.9015 45.9406 22.9401C45.7903 23.0906 45.6401 23.2412 45.5049 23.3917C44.5735 24.3099 43.7171 25.2732 42.8909 26.2516C42.8909 26.2516 42.8608 26.2967 42.8308 26.3118C40.998 28.5094 39.3755 30.8876 37.9933 33.4313C37.738 33.8829 37.4976 34.3495 37.2572 34.8161C35.8901 37.5104 34.8084 40.3552 33.9972 43.3205C33.9071 43.7118 33.8019 44.1032 33.7118 44.4945C32.8855 47.8812 32.4648 51.4335 32.4648 55.076C32.4648 66.7263 36.8816 77.3379 44.1528 85.3154C48.9902 90.6589 55.1197 94.8283 62.0453 97.3419C62.0904 97.372 62.1204 97.372 62.1505 97.3871C62.1955 97.3871 62.2256 97.4172 62.2556 97.4323C66.9579 99.088 72.0357 100.021 77.3088 100.021C85.1358 100.021 92.5122 98.0042 98.912 94.452C99.7533 94.0155 100.565 93.5187 101.376 93.007H101.391C101.481 92.9468 101.571 92.8866 101.646 92.8264C103.164 91.848 104.621 90.7793 106.003 89.6203C107.009 88.7774 107.986 87.8893 108.917 86.941C109.053 86.8206 109.173 86.6852 109.308 86.5497H109.323C110.239 85.6315 111.081 84.6983 111.877 83.7199C112.027 83.5393 112.162 83.3587 112.313 83.1781C112.598 82.8469 112.868 82.4857 113.139 82.1244C113.214 82.004 113.304 81.8986 113.394 81.7782C113.394 81.7782 113.424 81.7331 113.439 81.703C114.085 80.845 114.701 79.9419 115.272 79.0237C116.82 76.5853 118.127 73.9964 119.163 71.272C119.449 70.5344 119.704 69.8119 119.944 69.0593C119.989 68.9088 120.034 68.7583 120.095 68.6228C120.14 68.4873 120.185 68.3368 120.215 68.2014C121.266 64.7545 121.912 61.142 122.093 57.4091C122.138 56.6415 122.153 55.8738 122.153 55.0911V54.6847C122.153 54.5342 122.153 54.3686 122.138 54.2331V54.2181Z" fill="url(#paint7_linear_3161_194)"/>
<path d="M77.2938 97.0108C54.2183 97.0108 35.4395 78.1959 35.4395 55.0761C35.4395 31.9563 54.2183 13.1414 77.2938 13.1414C100.369 13.1414 119.148 31.9563 119.148 55.0761C119.148 78.1959 100.369 97.0108 77.2938 97.0108Z" fill="url(#paint8_radial_3161_194)"/>
<path d="M93.4438 62.4214C93.4438 64.9502 93.2485 67.7348 92.9931 70.1431C92.7978 70.1431 91.8814 71.8139 91.5509 71.9794C91.5358 71.9794 91.5208 71.9945 91.5058 71.9945C88.4711 71.9945 75.2057 71.9343 70.4134 71.9343H62.1957C61.5497 70.1882 60.9038 68.1111 60.4531 66.2898C60.393 66.0791 62.0004 64.6491 61.9403 64.4384C66.3421 61.1872 68.8059 59.2455 71.5852 56.6565C73.5832 54.8503 75.4762 53.0742 77.0686 51.2529C78.9315 48.7242 80.1333 46.0901 80.1333 43.2151C80.1333 41.0176 79.6225 39.5876 78.646 38.2179C77.8047 37.1191 76.3174 36.3966 74.695 36.3966C73.3579 36.3966 72.2312 36.6374 71.3748 36.9836L70.0378 42.7786C69.8425 42.7786 68.7308 44.63 68.5355 44.63C68.5054 44.63 68.4904 44.63 68.4604 44.63C66.2219 44.63 63.9234 44.0581 61.8652 43.9226C62.0605 40.0241 62.3159 36.1407 62.5713 32.3175C62.5863 32.0616 64.0586 30.722 64.0736 30.4661C67.1083 29.1717 72.3664 28.2686 76.693 28.2686C82.6422 28.2686 86.2026 29.4426 88.8617 31.7757C91.4457 33.9732 92.8729 37.3599 92.8729 40.7165C92.8729 45.0816 90.6495 48.9198 87.8552 52.1109C85.0909 55.8738 81.2751 58.8692 78.631 60.9313C77.6996 61.6989 76.8733 62.3161 76.0771 62.888C80.7943 62.7977 89.4777 62.3763 93.2635 62.3161L93.3236 62.3612L93.4588 62.4515L93.4438 62.4214Z" fill="#848484"/>
<path d="M93.3236 62.331L93.2635 62.2858C89.4777 62.346 80.7943 62.7524 76.0771 62.8578C75.7916 62.8578 75.5212 62.8578 75.2658 62.8728V62.6169C76.9484 61.4579 78.3005 60.5398 80.1183 59.0496C82.3117 57.3488 85.3163 55.0007 87.8552 52.0806C90.6495 48.9046 92.8729 45.0664 92.8729 40.6862C92.8729 37.3146 91.4457 33.943 88.8617 31.7454C86.2026 29.4123 82.6422 28.2383 76.693 28.2383C72.3664 28.2383 67.1233 29.1414 64.0736 30.4359C64.0586 30.6917 62.5863 32.0314 62.5713 32.2873C62.3309 35.8696 63.5328 38.4134 63.3525 42.0409C64.6445 42.1162 65.606 43.2451 66.7477 43.9826C67.2585 44.3138 67.8144 44.5696 68.4604 44.6148C68.4754 44.6148 68.5054 44.6148 68.5355 44.6148C68.7308 44.6148 69.8425 42.7634 70.0378 42.7634L71.3748 36.9684L71.5251 36.276C71.5401 36.1707 71.5702 36.0803 71.5852 36.0051C71.6302 35.8546 71.7054 35.7492 71.8406 35.6288C72.757 35.0418 74.2443 34.53 76.1822 34.53C77.8047 34.53 79.292 35.2374 80.1333 36.3513C81.1098 37.721 81.6206 39.1359 81.6206 41.3335C81.6206 44.9309 79.7728 48.137 77.0686 51.2377C75.4762 53.059 73.5832 54.8501 71.5852 56.6413C68.8059 59.2453 66.3421 61.187 61.9403 64.4232C62.0004 64.6189 60.393 66.0638 60.4531 66.2746C60.8887 67.9303 63.1272 68.5173 63.698 70.0677H71.9157C76.3775 70.0677 87.4796 71.9793 91.5208 71.9793C91.5358 71.9793 91.5509 71.9793 91.5659 71.9642C91.9114 71.7986 92.8128 70.1279 93.0081 70.1279C93.2635 67.7346 93.4588 64.9349 93.4588 62.4062L93.3236 62.3159V62.331Z" fill="#363636"/>
<g style="mix-blend-mode:color-burn" opacity="0.2">
<path d="M71.5701 36.0349C71.5701 36.0349 71.525 36.1854 71.51 36.3058L71.3598 36.9982L70.0227 42.7932C69.8274 42.7932 68.7157 44.6446 68.5204 44.6446C68.4904 44.6446 68.4754 44.6446 68.4453 44.6446C67.7993 44.5994 67.2585 44.3436 66.7327 44.0124C66.7627 43.32 66.8378 42.733 66.8829 42.4771C67.2134 40.7612 68.0847 39.1205 69.1514 37.7659C69.4518 37.3745 70.7288 35.6586 71.4199 35.9446C71.48 35.9747 71.525 36.0048 71.5551 36.0349H71.5701Z" fill="#767676"/>
</g>
<g style="mix-blend-mode:color-burn" opacity="0.2">
<path d="M93.4439 62.4211C93.4439 64.9499 93.2486 67.7345 92.9932 70.1428C92.7979 70.1428 91.8815 71.8135 91.551 71.9791H91.5059L91.1304 71.7985L91.551 64.5585L91.8365 64.1973L93.3237 62.3308L93.4589 62.4211H93.4439Z" fill="#767676"/>
</g>
<path d="M91.8364 64.1975L91.7613 64.1523C87.7501 64.2125 78.2405 64.6641 73.7636 64.7394V64.4835C74.5748 63.9115 75.311 63.4148 76.0771 62.8729C76.8734 62.3009 77.6846 61.6838 78.6311 60.9162C81.2751 58.8691 85.091 55.8738 87.8552 52.0957C89.8984 49.3262 91.3707 46.1201 91.3707 42.5678C91.3707 39.0156 89.9585 35.8246 87.3595 33.6119C84.7154 31.2789 81.1399 30.1199 75.1908 30.1199C70.8491 30.1199 65.606 31.023 62.5714 32.3175C62.316 36.1407 62.0606 40.0391 61.8653 43.9225C63.9084 44.058 66.207 44.6149 68.4604 44.63H68.5355L70.0228 38.1576C70.0829 37.8265 70.158 37.7061 70.3533 37.5104C70.6388 37.3298 70.9693 37.1491 71.3749 36.9986C72.2462 36.6524 73.358 36.4116 74.695 36.4116C76.3175 36.4116 77.8048 37.1341 78.6461 38.2329C79.6226 39.5876 80.1334 41.0175 80.1334 43.2301C80.1334 46.105 78.9466 48.7542 77.0687 51.2679C75.2358 53.7514 72.757 56.1296 70.0979 58.5229C67.3187 61.1118 64.8549 63.0535 60.4531 66.3048C60.9038 68.1261 61.5498 70.2032 62.1958 71.9493H70.4134C75.2058 71.9493 88.4712 72.0095 91.5059 72.0095C91.5059 72.0095 91.5059 71.9944 91.5059 71.9794C91.7613 69.5861 91.9566 66.8165 91.9566 64.3029L91.8364 64.2276V64.1975Z" fill="#636363"/>
<path style="mix-blend-mode:multiply" opacity="0.3" d="M77.2938 97.0108C54.2183 97.0108 35.4395 78.1959 35.4395 55.0761C35.4395 31.9563 54.2183 13.1414 77.2938 13.1414C100.369 13.1414 119.148 31.9563 119.148 55.0761C119.148 78.1959 100.369 97.0108 77.2938 97.0108Z" fill="url(#paint9_linear_3161_194)"/>
<path style="mix-blend-mode:multiply" opacity="0.3" d="M119.163 55.0758C119.163 78.1956 100.384 97.0105 77.3088 97.0105C60.1224 97.0105 45.3247 86.5795 38.8797 71.7082C36.6713 66.6206 35.4395 60.9912 35.4395 55.0758C35.4395 31.9409 54.2183 13.126 77.3088 13.126C84.0692 13.126 90.454 14.7365 96.1177 17.5964C109.774 24.5053 119.178 38.6992 119.178 55.0607L119.163 55.0758Z" fill="url(#paint10_linear_3161_194)"/>
<g style="mix-blend-mode:color-burn" opacity="0.6">
<path d="M119.163 55.0761C119.163 77.6089 101.331 96.0626 79.0666 96.9807C100.459 95.1293 116.384 77.1122 116.384 55.1965C116.384 32.0767 98.5215 13.2618 75.431 13.2618C74.8 13.2618 74.1691 13.2618 73.5381 13.3069C74.785 13.1865 76.0319 13.1414 77.3089 13.1414C100.399 13.1414 119.178 31.9563 119.178 55.0761H119.163Z" fill="#707070"/>
</g>
<path d="M111.366 73.2435C111.366 73.2435 110.18 76.2088 108.557 77.0065C107.791 77.3828 107.01 77.5333 106.364 77.4731C105.658 77.3828 105.117 77.0517 104.906 76.4646C104.501 75.3658 105.477 73.8004 107.1 73.0027C107.475 72.8221 107.881 72.7318 108.317 72.7017C109.789 72.6113 111.381 73.2285 111.381 73.2285L111.366 73.2435Z" fill="#363636"/>
<path d="M102.713 75.7424C102.413 75.9832 102.052 76.0434 101.646 75.9531C100.88 75.7876 100.009 75.0651 99.3329 73.9663C98.4616 72.5363 98.5667 69.9775 98.6118 69.255C98.6118 69.1346 98.6118 69.0593 98.6118 69.0593C98.6118 69.0593 101.331 69.7668 102.368 71.4526C103.389 73.1234 103.539 75.05 102.698 75.7424H102.713Z" fill="#363636"/>
<path d="M106.98 81.0258C106.98 81.0258 105.372 83.705 103.644 84.1716C103.119 84.3071 102.623 84.3522 102.172 84.3221C101.105 84.2469 100.294 83.7201 100.129 82.8922C99.8886 81.7332 101.09 80.3936 102.818 79.927C102.953 79.8818 103.089 79.8668 103.224 79.8517C104.891 79.6711 106.995 81.0107 106.995 81.0107L106.98 81.0258Z" fill="#363636"/>
<path d="M97.3499 82.0491C97.1696 82.0943 96.9743 82.0943 96.779 82.019C95.9528 81.7632 95.1415 80.5289 94.826 78.9033C94.5256 77.368 95.2467 75.3209 95.5772 74.463C95.6823 74.2071 95.7575 74.0415 95.7575 74.0415C95.7575 74.0415 98.041 75.923 98.4466 77.9249C98.8522 79.9268 98.3565 81.7632 97.3649 82.0491H97.3499Z" fill="#363636"/>
<path d="M114.626 63.1288C114.626 63.1288 113.92 66.2897 112.433 67.4186C111.517 68.1261 110.525 68.4271 109.789 68.3217C109.338 68.2615 108.963 68.0358 108.752 67.6595C108.197 66.651 108.933 64.92 110.39 63.7911C111.081 63.2492 112.072 63.0837 112.929 63.0385C113.86 62.9934 114.626 63.1288 114.626 63.1288Z" fill="#363636"/>
<path d="M107.009 67.5693C106.709 68.066 106.108 68.2767 105.417 68.1714C104.756 68.0811 104.02 67.7499 103.329 67.1629C101.902 65.9587 101.286 62.7677 101.286 62.7677C101.286 62.7677 101.496 62.7376 101.826 62.7226C101.872 62.7226 101.887 62.7226 101.947 62.7226C102.848 62.6925 104.516 62.7828 105.507 63.6106C106.934 64.8148 107.61 66.5759 107.009 67.5543V67.5693Z" fill="#363636"/>
<path d="M111.021 46.4965C110.375 48.2877 109.143 49.4316 108.211 49.1306C108.211 49.1306 108.106 49.1005 108.076 49.0704C107.13 48.6038 106.919 46.6771 107.595 44.7956C108.076 43.456 109.473 42.3723 110.27 41.8455C110.6 41.6197 110.81 41.4993 110.81 41.4993C110.81 41.4993 111.712 44.6 111.021 46.4815V46.4965Z" fill="#363636"/>
<path d="M106.724 49.9431C106.454 50.6807 105.628 51.0419 104.621 50.9366C104.125 50.9064 103.599 50.7559 103.059 50.485C101.436 49.6872 100.249 46.722 100.249 46.722C100.249 46.722 101.421 46.2554 102.683 46.1801C103.314 46.15 103.975 46.1952 104.516 46.4812C106.138 47.2789 107.13 48.8293 106.724 49.9281V49.9431Z" fill="#363636"/>
<path d="M113.064 57.1229C112.163 58.4174 110.961 59.1098 110.12 58.8991C109.924 58.8539 109.759 58.7636 109.609 58.6281C108.813 57.8755 109.083 55.9639 110.18 54.3684C110.961 53.2546 112.538 52.6675 113.425 52.4117C113.8 52.2912 114.056 52.2461 114.056 52.2461C114.056 52.2461 114.176 55.5124 113.064 57.1079V57.1229Z" fill="#363636"/>
<path d="M107.28 58.568C106.995 59.2002 106.273 59.4561 105.432 59.3657C104.861 59.3055 104.215 59.0647 103.599 58.6583C102.052 57.6649 101.135 54.5792 101.135 54.5792C101.135 54.5792 101.857 54.3835 102.788 54.3233H102.833C103.674 54.2932 104.666 54.3836 105.402 54.8502C106.949 55.8586 107.791 57.5144 107.295 58.568H107.28Z" fill="#363636"/>
<path d="M107.25 36.6974C106.905 38.4585 105.928 39.6928 105.042 39.452C105.012 39.452 104.982 39.452 104.952 39.4218C104.14 39.1058 103.75 37.5554 104.065 35.8545C104.306 34.6353 105.327 33.4613 105.943 32.8592C106.213 32.6033 106.394 32.4377 106.394 32.4377C106.394 32.4377 107.581 34.9364 107.235 36.6974H107.25Z" fill="#363636"/>
<path d="M104.441 41.8001C104.261 42.6731 103.254 43.1698 102.037 43.0644C101.827 43.0494 101.586 43.0042 101.361 42.944C99.8588 42.5527 98.4316 40.2196 98.4316 40.2196C98.4316 40.2196 99.8288 39.3165 101.166 39.181C101.481 39.1509 101.782 39.166 102.067 39.2412C103.57 39.6326 104.636 40.7916 104.441 41.8151V41.8001Z" fill="#363636"/>
<path d="M102.443 29.864C102.353 31.4294 101.662 32.6486 100.88 32.5884C100.79 32.5884 100.7 32.5583 100.61 32.5131C99.9789 32.2121 99.5432 31.038 99.6334 29.6532C99.6935 28.5845 100.415 27.4406 100.865 26.8084C101.076 26.5224 101.226 26.3418 101.226 26.3418C101.226 26.3418 102.533 28.2986 102.443 29.8489V29.864Z" fill="#363636"/>
<path d="M100.94 35.0567C100.895 35.9749 99.7686 36.6221 98.4315 36.5167C98.4015 36.5167 98.3865 36.5167 98.3714 36.5167C97.0494 36.3662 95.6072 34.6503 95.6072 34.6503C95.6072 34.6503 96.9292 33.4311 98.1611 33.2354C98.3113 33.2203 98.4616 33.2053 98.5968 33.2203C99.9338 33.3257 100.985 34.1385 100.925 35.0416L100.94 35.0567Z" fill="#363636"/>
<path d="M98.3114 30.3305C98.0711 30.7971 97.5302 30.9928 96.8692 30.8724C96.4335 30.8122 95.9528 30.6165 95.5021 30.3004C94.3453 29.5027 93.7144 27.1244 93.7144 27.1244C93.7144 27.1244 94.135 27.0341 94.7209 27.004C95.412 26.9589 96.3133 27.004 96.9443 27.4556C98.1011 28.2684 98.702 29.5478 98.2964 30.3305H98.3114Z" fill="#363636"/>
<path d="M110.72 73.244C110.72 73.244 109.534 76.2092 107.911 77.007C107.385 77.2629 106.859 77.4285 106.364 77.4736C105.658 77.3833 105.117 77.0522 104.906 76.4651C104.501 75.3663 105.477 73.8009 107.1 73.0032C107.475 72.8226 107.881 72.7323 108.317 72.7021C109.564 72.7624 110.735 73.229 110.735 73.229L110.72 73.244Z" fill="#636363"/>
<path d="M102.067 75.7423C101.947 75.8476 101.796 75.9229 101.646 75.953C100.88 75.7874 100.009 75.0649 99.3326 73.9661C98.4613 72.5362 98.5665 69.9774 98.6115 69.2549C99.4678 69.571 101.015 70.2784 101.736 71.4525C102.758 73.1232 102.908 75.0499 102.067 75.7423Z" fill="#636363"/>
<path d="M106.334 81.0254C106.334 81.0254 104.726 83.7046 103.013 84.1712C102.728 84.2465 102.443 84.2916 102.172 84.3217C101.105 84.2465 100.294 83.7197 100.129 82.8918C99.8886 81.7328 101.09 80.3932 102.818 79.9266C102.953 79.8814 103.089 79.8664 103.224 79.8513C104.741 79.9868 106.349 81.0103 106.349 81.0103L106.334 81.0254Z" fill="#636363"/>
<path d="M96.7788 82.0339C95.9525 81.778 95.1413 80.5437 94.8258 78.9181C94.5253 77.3828 95.2464 75.3357 95.5769 74.4778C96.268 75.125 97.5149 76.5098 97.8004 77.9397C98.191 79.9115 97.7252 81.7027 96.7788 82.0489V82.0339Z" fill="#636363"/>
<path d="M113.995 63.1286C113.995 63.1286 113.274 66.2896 111.802 67.4184C111.126 67.9302 110.42 68.2313 109.789 68.3216C109.338 68.2614 108.963 68.0356 108.752 67.6593C108.197 66.6508 108.933 64.9198 110.39 63.7909C111.081 63.2491 112.072 63.0835 112.929 63.0383C113.56 63.0383 113.98 63.1286 113.98 63.1286H113.995Z" fill="#636363"/>
<path d="M106.363 67.5694C106.153 67.9156 105.823 68.0962 105.417 68.1715C104.756 68.0811 104.02 67.75 103.329 67.163C101.902 65.9588 101.286 62.7678 101.286 62.7678C101.286 62.7678 101.496 62.7377 101.826 62.7227C101.872 62.7227 101.887 62.7227 101.947 62.7227C102.863 62.7678 104.08 62.9484 104.876 63.6107C106.303 64.8149 106.979 66.576 106.378 67.5543L106.363 67.5694Z" fill="#636363"/>
<path d="M110.39 46.4963C109.879 47.8961 109.023 48.9046 108.226 49.1304C108.226 49.1304 108.121 49.1003 108.091 49.0702C107.145 48.6035 106.934 46.6769 107.61 44.7954C108.091 43.4558 109.488 42.372 110.284 41.8452C110.48 42.7032 110.945 44.976 110.405 46.4963H110.39Z" fill="#636363"/>
<path d="M106.093 49.9432C105.883 50.5151 105.342 50.8613 104.636 50.9366C104.14 50.9065 103.614 50.756 103.073 50.485C101.451 49.6873 100.264 46.722 100.264 46.722C100.264 46.722 101.436 46.2554 102.698 46.1802C103.119 46.1952 103.524 46.2855 103.885 46.4812C105.507 47.279 106.499 48.8293 106.093 49.9281V49.9432Z" fill="#636363"/>
<path d="M112.418 57.1234C111.727 58.1168 110.855 58.749 110.119 58.8995C109.924 58.8543 109.759 58.764 109.609 58.6286C108.812 57.876 109.083 55.9644 110.179 54.3689C110.961 53.255 112.538 52.668 113.424 52.4121C113.424 53.0744 113.394 55.7235 112.433 57.1083L112.418 57.1234Z" fill="#636363"/>
<path d="M106.649 58.5679C106.424 59.0195 105.988 59.2904 105.432 59.3657C104.861 59.3054 104.215 59.0646 103.599 58.6582C102.052 57.6648 101.135 54.5791 101.135 54.5791C101.135 54.5791 101.857 54.3835 102.788 54.3232H102.833C103.509 54.3533 104.2 54.4888 104.756 54.8501C106.303 55.8585 107.145 57.5143 106.649 58.5679Z" fill="#636363"/>
<path d="M106.619 36.6977C106.349 38.0975 105.673 39.1662 104.966 39.4372C104.155 39.1211 103.765 37.5707 104.08 35.8699C104.32 34.6506 105.342 33.4766 105.958 32.8745C106.273 33.6572 106.874 35.3882 106.619 36.7128V36.6977Z" fill="#636363"/>
<path d="M103.795 41.8004C103.659 42.5079 102.953 42.9745 102.037 43.0648C101.827 43.0497 101.586 43.0046 101.361 42.9444C99.8586 42.553 98.4314 40.22 98.4314 40.22C98.4314 40.22 99.8285 39.3169 101.166 39.1814C101.256 39.1814 101.346 39.2115 101.436 39.2416C102.938 39.633 104.005 40.792 103.795 41.8155V41.8004Z" fill="#636363"/>
<path d="M101.796 29.8641C101.736 31.1737 101.226 32.2423 100.61 32.5133C99.9787 32.2122 99.543 31.0382 99.6331 29.6534C99.6932 28.5847 100.414 27.4408 100.865 26.8086C101.241 27.4859 101.857 28.7653 101.796 29.8641Z" fill="#636363"/>
<path d="M100.294 35.0566C100.264 35.8393 99.4378 36.4264 98.3712 36.5167C97.0492 36.3662 95.6069 34.6502 95.6069 34.6502C95.6069 34.6502 96.929 33.431 98.1609 33.2354C99.3927 33.4009 100.339 34.1836 100.294 35.0416V35.0566Z" fill="#636363"/>
<path d="M97.6801 30.3306C97.5148 30.6317 97.2444 30.8273 96.8839 30.8725C96.4482 30.8123 95.9674 30.6166 95.5168 30.3005C94.36 29.5028 93.729 27.1246 93.729 27.1246C93.729 27.1246 94.1497 27.0343 94.7356 27.0042C95.2764 27.0343 95.8773 27.1396 96.313 27.4557C97.4547 28.2685 98.0707 29.5479 97.6651 30.3306H97.6801Z" fill="#636363"/>
<path d="M49.5012 75.908C49.0956 77.067 47.4581 77.3228 45.8206 76.4649C45.7605 76.4348 45.7004 76.4047 45.6403 76.3595C44.1079 75.3962 43.0112 72.5213 43.0112 72.5213C43.0112 72.5213 45.3699 71.5429 47.0074 72.16C47.0975 72.1901 47.2027 72.2353 47.2928 72.2804C48.9153 73.1233 49.9068 74.749 49.5012 75.908Z" fill="#363636"/>
<path d="M55.0598 73.2737C54.0382 75.0348 52.5209 75.8627 51.6796 75.1402C51.6646 75.1251 51.6346 75.095 51.6195 75.08C50.8534 74.2822 51.0186 72.3405 52.0252 70.6396C52.7463 69.3903 54.3237 68.6528 55.18 68.3216C55.5406 68.1862 55.7809 68.126 55.7809 68.126C55.7809 68.126 56.0964 71.5277 55.0598 73.2888V73.2737Z" fill="#363636"/>
<path d="M54.2784 82.6364C54.0531 83.8556 52.4606 84.4577 50.748 83.976C50.4926 83.9008 50.2372 83.7653 49.9818 83.5997C48.5846 82.6966 47.4128 80.6797 47.4128 80.6797C47.4128 80.6797 49.8766 79.039 51.5893 79.5207C51.7695 79.5658 51.9348 79.626 52.1 79.7013C53.5423 80.2883 54.4887 81.5226 54.2784 82.6364Z" fill="#363636"/>
<path d="M59.5968 78.4664C59.1912 80.5737 58.0644 82.0487 57.0579 81.7628C56.8926 81.7176 56.7424 81.6122 56.5922 81.4768C55.9161 80.8145 55.6307 79.1889 55.9612 77.4428C56.2617 75.8774 57.6137 74.3722 58.2898 73.725C58.5151 73.4992 58.6654 73.3638 58.6654 73.3638C58.6654 73.3638 60.0024 76.3742 59.6118 78.4664H59.5968Z" fill="#363636"/>
<path d="M45.6251 66.6509C45.1444 67.5691 43.8224 67.5992 42.5154 66.8165C42.5154 66.8165 42.5154 66.8165 42.4853 66.8165C42.305 66.7111 42.1097 66.5757 41.9295 66.4252C40.4572 65.2361 39.7361 61.9246 39.7361 61.9246C39.7361 61.9246 41.644 61.5784 43.1313 62.1504C43.4468 62.2708 43.7172 62.4063 43.9726 62.617C45.4449 63.8061 46.181 65.6123 45.6101 66.666L45.6251 66.6509Z" fill="#363636"/>
<path d="M53.1066 61.5484C53.1066 61.5484 52.4907 64.8899 51.0635 66.1543C49.8015 67.2681 48.3743 67.5391 47.6382 66.8919C47.5331 66.8166 47.4579 66.7112 47.3828 66.5908C46.7819 65.5673 47.4579 63.7159 48.8851 62.4515C49.8616 61.5936 51.4991 61.4882 52.4156 61.5183C52.8362 61.5183 53.1066 61.5484 53.1066 61.5484Z" fill="#363636"/>
<path d="M46.3164 47.1889C45.9108 47.3996 45.43 47.2942 44.9643 46.9481C44.3483 46.4965 43.7474 45.6084 43.3568 44.4795C42.7259 42.6582 43.4169 39.8285 43.5371 39.3167C43.5521 39.2716 43.5521 39.2415 43.5521 39.2415C43.5521 39.2415 46.091 40.7015 46.7821 42.6884C47.4581 44.6752 47.2478 46.6771 46.3164 47.1738V47.1889Z" fill="#363636"/>
<path d="M54.1432 44.7054C54.1432 44.7054 52.9414 47.8061 51.3189 48.6491C50.072 49.2963 48.81 49.2963 48.119 48.7394C47.9087 48.5738 47.7434 48.348 47.6533 48.0771C47.2476 46.9181 48.2392 45.2925 49.8767 44.4496C50.9884 43.8776 52.5959 44.2087 53.4822 44.4797C53.8878 44.6001 54.1432 44.7054 54.1432 44.7054Z" fill="#363636"/>
<path d="M44.7839 57.1985C44.3031 57.6651 43.567 57.62 42.8008 57.1233C42.2901 56.8072 41.7793 56.2954 41.3286 55.6181C40.2169 53.9473 40.3371 50.5305 40.3371 50.5305C40.3371 50.5305 41.1633 50.681 42.1098 51.1175C42.876 51.4637 43.7172 51.9906 44.228 52.7432C45.3397 54.4139 45.5951 56.4158 44.7989 57.2136L44.7839 57.1985Z" fill="#363636"/>
<path d="M53.2719 52.9536C53.2719 52.9536 52.3555 56.1747 50.8082 57.2283C49.5462 58.0713 48.2092 58.2067 47.4881 57.6046C47.3228 57.4842 47.2026 57.3187 47.1125 57.123C46.6017 56.0242 47.458 54.2782 49.0054 53.2396C50.072 52.5171 51.6945 52.6526 52.6109 52.8031C53.0166 52.8783 53.287 52.9536 53.287 52.9536H53.2719Z" fill="#363636"/>
<path d="M49.3358 37.104C49.0203 37.1943 48.6898 37.0739 48.3743 36.8029C47.8335 36.3363 47.3377 35.373 47.1274 34.1989C46.842 32.6787 47.6081 30.6166 47.8786 29.9543C47.9387 29.8188 47.9687 29.7285 47.9687 29.7285C47.9687 29.7285 49.9668 31.4595 50.2973 33.3109C50.6428 35.1472 50.2071 36.833 49.3208 37.0889L49.3358 37.104Z" fill="#363636"/>
<path d="M55.9762 37.8867C55.9762 37.8867 54.549 40.3251 53.0467 40.7465C52.0552 41.0175 51.1237 40.882 50.5378 40.4455C50.2374 40.2197 50.027 39.9187 49.9669 39.5424C49.7716 38.4737 50.8233 37.2545 52.3406 36.8481C53.1218 36.6373 54.0983 36.9384 54.8344 37.2545C55.5105 37.5555 55.9912 37.8867 55.9912 37.8867H55.9762Z" fill="#363636"/>
<path d="M53.5123 29.8789C53.2569 29.8939 53.0316 29.7886 52.8213 29.5628C52.3556 29.0962 52.01 28.1479 51.9499 27.019C51.8898 25.7697 52.641 24.2645 53.0015 23.6323C53.1217 23.4517 53.1818 23.3313 53.1818 23.3313C53.1818 23.3313 54.6992 25.1526 54.7743 26.7932C54.8644 28.4339 54.2935 29.8187 53.5123 29.8789Z" fill="#363636"/>
<path d="M58.8003 32.0467C58.8003 32.0467 57.313 33.8981 55.961 34.0035C55.2398 34.0637 54.5638 33.8831 54.0981 33.5519C53.7225 33.281 53.4671 32.9047 53.4521 32.4682C53.407 31.5199 54.4436 30.6619 55.7807 30.5566C56.1112 30.5265 56.4868 30.6168 56.8323 30.7523C57.8689 31.1587 58.8003 32.0467 58.8003 32.0467Z" fill="#363636"/>
<path d="M60.6935 24.1595C60.6935 24.1595 60.0625 26.6431 58.9057 27.486C57.9142 28.2085 56.8175 28.3289 56.2917 27.787C56.2166 27.7118 56.1565 27.6214 56.0964 27.5161C55.6908 26.7033 56.3067 25.3486 57.4485 24.5057C58.1696 23.9638 59.2813 23.9789 60.0024 24.0391C60.408 24.0842 60.6935 24.1444 60.6935 24.1444V24.1595Z" fill="#363636"/>
<path d="M48.8702 75.6068C48.5097 76.6604 47.1125 76.9614 45.6403 76.3744C44.1079 75.4111 43.0112 72.5362 43.0112 72.5362C43.0112 72.5362 45.3699 71.5578 47.0074 72.1749C48.4195 73.0479 49.2458 74.5381 48.8702 75.6218V75.6068Z" fill="#636363"/>
<path d="M54.4288 72.9577C53.6026 74.3726 52.4608 75.1854 51.6195 75.065C50.8534 74.2672 51.0186 72.3255 52.0252 70.6246C52.7463 69.3753 54.3237 68.6378 55.18 68.3066C55.21 69.3302 55.2101 71.6181 54.4439 72.9577H54.4288Z" fill="#636363"/>
<path d="M53.6474 82.3196C53.4221 83.5388 51.8296 84.1409 50.117 83.6592C50.0719 83.6442 50.0269 83.6291 49.9818 83.599C48.5846 82.6959 47.4128 80.6789 47.4128 80.6789C47.4128 80.6789 49.8766 79.0383 51.5893 79.5199C51.7695 79.5651 51.9348 79.6253 52.1 79.7006C53.1817 80.3478 53.8277 81.3864 53.6474 82.3196Z" fill="#636363"/>
<path d="M58.9658 78.1506C58.5902 80.1375 57.5536 81.5674 56.5922 81.4771C55.9161 80.8148 55.6307 79.1892 55.9612 77.4432C56.2617 75.8778 57.6137 74.3726 58.2898 73.7253C58.6654 74.7188 59.2513 76.6755 58.9658 78.1657V78.1506Z" fill="#636363"/>
<path d="M45.0092 66.3499C44.6036 67.1175 43.597 67.2681 42.5154 66.8165C42.5154 66.8165 42.5154 66.8165 42.4853 66.8165C42.305 66.7111 42.1097 66.5757 41.9295 66.4252C40.4572 65.2361 39.7361 61.9246 39.7361 61.9246C39.7361 61.9246 41.644 61.5784 43.1313 62.1504C43.2064 62.1956 43.2815 62.2407 43.3416 62.3009C44.8139 63.49 45.55 65.2963 44.9942 66.3649L45.0092 66.3499Z" fill="#636363"/>
<path d="M52.4307 61.5029C52.2504 62.3308 51.6345 64.7842 50.4477 65.8228C49.4862 66.6657 48.4346 67.027 47.6534 66.8765C47.5482 66.8012 47.4731 66.6958 47.398 66.5754C46.797 65.5519 47.4731 63.7005 48.9003 62.4361C49.8768 61.5782 51.5143 61.4728 52.4307 61.5029Z" fill="#636363"/>
<path d="M45.6854 46.8725C45.4601 46.9929 45.2047 47.008 44.9643 46.9477C44.3483 46.4962 43.7474 45.6081 43.3568 44.4792C42.7259 42.6579 43.4169 39.8282 43.5371 39.3164C44.3333 39.8884 45.6854 41.0022 46.1511 42.372C46.8422 44.3588 46.6319 46.3758 45.6854 46.8574V46.8725Z" fill="#636363"/>
<path d="M53.4823 44.4793C53.272 44.9911 52.1603 47.58 50.7031 48.3326C49.7716 48.8143 48.8402 48.9347 48.1341 48.724C47.9238 48.5584 47.7585 48.3326 47.6684 48.0617C47.2628 46.9027 48.2543 45.2771 49.8918 44.4342C51.0035 43.8622 52.611 44.1933 53.4974 44.4643L53.4823 44.4793Z" fill="#636363"/>
<path d="M44.1529 56.882C43.8074 57.2282 43.3266 57.2884 42.8008 57.1228C42.2901 56.8067 41.7793 56.2949 41.3286 55.6176C40.2169 53.9468 40.3371 50.53 40.3371 50.53C40.3371 50.53 41.1633 50.6806 42.1098 51.1171C42.6807 51.4332 43.2215 51.8697 43.5971 52.4266C44.7088 54.0973 44.9792 56.0993 44.1679 56.897L44.1529 56.882Z" fill="#636363"/>
<path d="M52.5959 52.818C52.3856 53.4953 51.5142 56.024 50.1772 56.9271C49.2307 57.5744 48.2392 57.8002 47.4881 57.6195C47.3228 57.4991 47.2026 57.3336 47.1125 57.1379C46.6017 56.0391 47.458 54.2931 49.0054 53.2545C50.072 52.532 51.6945 52.6674 52.6109 52.818H52.5959Z" fill="#636363"/>
<path d="M48.72 36.7876C48.6148 36.8177 48.4946 36.8328 48.3895 36.7876C47.8486 36.321 47.3529 35.3577 47.1425 34.1836C46.8571 32.6634 47.6233 30.6013 47.8937 29.939C48.5096 30.5862 49.4711 31.7753 49.6965 32.9945C50.042 34.8309 49.6063 36.5317 48.72 36.7726V36.7876Z" fill="#636363"/>
<path d="M55.3452 37.5702C55.3452 37.5702 53.918 40.0086 52.4157 40.415C51.7397 40.5957 51.0786 40.5957 50.5378 40.4301C50.2374 40.2043 50.027 39.9033 49.9669 39.527C49.7716 38.4583 50.8233 37.2391 52.3406 36.8327C53.1218 36.622 54.0983 36.923 54.8344 37.2391C55.1649 37.4348 55.3602 37.5702 55.3602 37.5702H55.3452Z" fill="#636363"/>
<path d="M52.8964 29.5628H52.8213C52.3556 29.0962 52.01 28.1479 51.9499 27.019C51.8898 25.7697 52.641 24.2645 53.0015 23.6323C53.4673 24.3097 54.0982 25.4235 54.1433 26.4771C54.2334 28.1178 53.6776 29.4875 52.8964 29.5477V29.5628Z" fill="#636363"/>
<path d="M58.1697 31.745C58.1697 31.745 56.6824 33.5964 55.3454 33.7018C54.8947 33.7319 54.474 33.6867 54.1135 33.5663C53.7379 33.2954 53.4825 32.9191 53.4675 32.4826C53.4224 31.5343 54.459 30.6764 55.7961 30.571C56.1266 30.5409 56.5021 30.6312 56.8477 30.7667C57.5988 31.2032 58.1847 31.7601 58.1847 31.7601L58.1697 31.745Z" fill="#636363"/>
<path d="M60.0024 24.0534C59.8221 24.6555 59.2362 26.4768 58.2748 27.1692C57.5837 27.6659 56.8476 27.8766 56.2917 27.7863C56.2166 27.711 56.1565 27.6207 56.0964 27.5154C55.6908 26.7025 56.3067 25.3479 57.4485 24.505C58.1696 23.9631 59.2813 23.9781 60.0024 24.0384V24.0534Z" fill="#636363"/>
<g style="mix-blend-mode:color-burn" opacity="0.2">
<path d="M119.163 55.0757C119.163 78.1955 100.384 97.0104 77.309 97.0104C76.1672 97.0104 75.0405 96.9653 73.9137 96.875C58.1846 95.6106 44.8891 85.601 38.8799 71.7081C100.985 86.2332 97.3948 29.1111 96.2831 18.9811C96.2831 18.9811 96.5836 18.0629 96.5536 17.8372C104.17 21.6905 110.029 27.6059 114.116 35.1017C117.346 41.0473 119.178 47.8507 119.178 55.0757H119.163Z" fill="#9E9E9E"/>
</g>
<g style="mix-blend-mode:color-burn" opacity="0.2">
<path d="M119.163 55.0756C119.163 78.1954 100.384 97.0104 77.3088 97.0104C76.167 97.0104 75.0403 96.9652 73.9136 96.8749C102.307 87.0159 110.915 56.7163 113.514 39.6022L115.422 37.7659C117.766 43.0943 119.163 47.8507 119.163 55.0907V55.0756Z" fill="#707070"/>
</g>
<g style="mix-blend-mode:soft-light" opacity="0.4">
<path d="M110.105 93.7138L103.119 92.9612L102.202 97.7628L101.286 96.8446L98.8973 94.4513L97.6203 93.1719L96.6739 92.2236L96.0279 91.5764L91.1304 86.6845L83.2883 78.8124L75.1007 70.609L70.6539 66.1537L52.3407 47.8204L51.86 47.3237L49.3211 44.7949L46.4066 41.8749L44.1832 39.6472L44.1682 39.6321L40.2171 35.6584L37.9937 33.4307L35.7402 31.188L33.8623 29.2914L33.637 29.0807L36.281 28.5238L35.0191 18.4841L40.7279 24.2039L42.8311 26.3111L44.9644 28.4485L47.5183 31.0074L49.7267 33.22L53.3022 36.8024L54.8496 38.3527L55.3303 38.8344L70.6539 54.1874L82.4771 66.0333L82.5071 66.0634L97.5903 81.1755L97.9809 81.5669L102.893 86.4889L103.855 87.4522L103.87 87.4672L109.023 92.6301L110.105 93.7138Z" fill="#F2F2F2"/>
</g>
<g style="mix-blend-mode:soft-light" opacity="0.4">
<path d="M114.807 92.8257L114.701 92.7203L108.918 86.9253L105.222 83.2225L104.891 82.8914L102.172 80.167L99.3629 77.3523L85.3463 63.3088L84.49 62.4508L82.5069 60.464L70.6537 48.588L56.0963 34.0026L45.5051 23.391L43.4769 21.359L39.1803 17.0541L38.9099 16.7832L43.3868 17.2649L46.6168 17.6111L46.6618 17.3853L47.3529 18.0777L49.2758 20.0043L51.4091 22.1417L52.9715 23.7071L53.1819 23.9178L54.2184 24.9564L54.2335 24.9865L55.9912 26.7325L70.6537 41.4232L82.5069 53.2992L84.49 55.2861L88.5162 59.32L98.5967 69.4199L102.187 73.0173L103.239 74.0709L104.846 75.6815L106.604 77.4426L106.649 77.4877L108.827 79.6703L110.164 81.0099L110.315 81.1604L111.592 82.4398L112.313 83.1623L113.755 84.6073L114.807 92.8257Z" fill="#F2F2F2"/>
</g>
<defs>
<linearGradient id="paint0_linear_3161_194" x1="72.2162" y1="79.5202" x2="17.6505" y2="154.65" gradientUnits="userSpaceOnUse">
<stop offset="0.16" stop-color="#13589C"/>
<stop offset="0.53" stop-color="#125699"/>
<stop offset="0.68" stop-color="#115292"/>
<stop offset="0.8" stop-color="#104B86"/>
<stop offset="0.9" stop-color="#0D4174"/>
<stop offset="0.98" stop-color="#0A345D"/>
<stop offset="1" stop-color="#0A3157"/>
</linearGradient>
<linearGradient id="paint1_linear_3161_194" x1="44.7688" y1="79.4899" x2="44.7688" y2="171.457" gradientUnits="userSpaceOnUse">
<stop stop-color="#888888"/>
<stop offset="0.08" stop-color="#ACACAC"/>
<stop offset="0.15" stop-color="#CACACA"/>
<stop offset="0.23" stop-color="#E1E1E1"/>
<stop offset="0.31" stop-color="#F2F2F2"/>
<stop offset="0.4" stop-color="#FBFBFB"/>
<stop offset="0.52" stop-color="white"/>
<stop offset="0.6" stop-color="#F9F9F9"/>
<stop offset="0.69" stop-color="#EBEBEB"/>
<stop offset="0.79" stop-color="#D2D2D2"/>
<stop offset="0.89" stop-color="#B0B0B0"/>
<stop offset="1" stop-color="#858585"/>
</linearGradient>
<linearGradient id="paint2_linear_3161_194" x1="130.776" y1="148.834" x2="98.6947" y2="86.5391" gradientUnits="userSpaceOnUse">
<stop offset="0.16" stop-color="#13589C"/>
<stop offset="0.53" stop-color="#125699"/>
<stop offset="0.68" stop-color="#115292"/>
<stop offset="0.8" stop-color="#104B86"/>
<stop offset="0.9" stop-color="#0D4174"/>
<stop offset="0.98" stop-color="#0A345D"/>
<stop offset="1" stop-color="#0A3157"/>
</linearGradient>
<linearGradient id="paint3_linear_3161_194" x1="114.115" y1="79.8662" x2="114.115" y2="168.823" gradientUnits="userSpaceOnUse">
<stop stop-color="#888888"/>
<stop offset="0.08" stop-color="#ACACAC"/>
<stop offset="0.15" stop-color="#CACACA"/>
<stop offset="0.23" stop-color="#E1E1E1"/>
<stop offset="0.31" stop-color="#F2F2F2"/>
<stop offset="0.4" stop-color="#FBFBFB"/>
<stop offset="0.52" stop-color="white"/>
<stop offset="0.6" stop-color="#F9F9F9"/>
<stop offset="0.69" stop-color="#EBEBEB"/>
<stop offset="0.79" stop-color="#D2D2D2"/>
<stop offset="0.89" stop-color="#B0B0B0"/>
<stop offset="1" stop-color="#858585"/>
</linearGradient>
<linearGradient id="paint4_linear_3161_194" x1="19.8306" y1="55.2713" x2="127.997" y2="55.2713" gradientUnits="userSpaceOnUse">
<stop stop-color="#9A9A9A"/>
<stop offset="1" stop-color="#7D7D7D"/>
</linearGradient>
<radialGradient id="paint5_radial_3161_194" cx="0" cy="0" r="1" gradientUnits="userSpaceOnUse" gradientTransform="translate(75.6115 51.8395) scale(71.1945 71.3312)">
<stop stop-color="#9A9A9A"/>
<stop offset="1" stop-color="#7D7D7D"/>
</radialGradient>
<linearGradient id="paint6_linear_3161_194" x1="29.4604" y1="54.504" x2="118.007" y2="54.504" gradientUnits="userSpaceOnUse">
<stop stop-color="#9A9A9A"/>
<stop offset="1" stop-color="#7D7D7D"/>
</linearGradient>
<linearGradient id="paint7_linear_3161_194" x1="32.4498" y1="55.0761" x2="122.153" y2="55.0761" gradientUnits="userSpaceOnUse">
<stop stop-color="#7D7D7D"/>
<stop offset="1" stop-color="#B0B0B0"/>
</linearGradient>
<radialGradient id="paint8_radial_3161_194" cx="0" cy="0" r="1" gradientUnits="userSpaceOnUse" gradientTransform="translate(77.2938 55.061) scale(41.8543 41.9347)">
<stop stop-color="#818181"/>
<stop offset="1" stop-color="#989898"/>
</radialGradient>
<linearGradient id="paint9_linear_3161_194" x1="44.874" y1="81.4471" x2="109.466" y2="29.0973" gradientUnits="userSpaceOnUse">
<stop stop-color="#F2F2F2"/>
<stop offset="0.43" stop-color="#F2F2F2"/>
<stop offset="0.5" stop-color="#F2F2F2"/>
<stop offset="0.55" stop-color="#F2F2F2"/>
<stop offset="1" stop-color="#F2F2F2"/>
</linearGradient>
<linearGradient id="paint10_linear_3161_194" x1="81.35" y1="13.3217" x2="73.1916" y2="96.9623" gradientUnits="userSpaceOnUse">
<stop stop-color="#F2F2F2"/>
<stop offset="0.5" stop-color="#F2F2F2"/>
<stop offset="0.55" stop-color="#F2F2F2"/>
<stop offset="1" stop-color="#F2F2F2"/>
</linearGradient>
</defs>
</svg>
