<svg width="83" height="79" viewBox="0 0 83 79" fill="none" xmlns="http://www.w3.org/2000/svg">
<path d="M66.4 0C70.8026 0 75.0249 1.75229 78.138 4.87139C81.2511 7.99049 83 12.2209 83 16.632V49.8959C83 54.307 81.2511 58.5374 78.138 61.6565C75.0249 64.7756 70.8026 66.5279 66.4 66.5279H46.7954L27.0331 78.4073C26.4379 78.7651 25.7627 78.9677 25.0692 78.9964C24.3757 79.0252 23.6861 78.8792 23.0635 78.5719C22.4408 78.2645 21.9051 77.8056 21.5053 77.2371C21.1055 76.6686 20.8543 76.0087 20.7749 75.3179L20.75 74.8439V66.5279H16.6C12.3411 66.5279 8.2451 64.8878 5.15923 61.9469C2.07336 59.006 0.233696 54.9893 0.0207505 50.7275L0 49.8959V16.632C0 12.2209 1.74892 7.99049 4.86203 4.87139C7.97513 1.75229 12.1974 0 16.6 0H66.4ZM49.8 37.4219H24.9C23.7994 37.4219 22.7438 37.86 21.9655 38.6398C21.1872 39.4196 20.75 40.4772 20.75 41.5799C20.75 42.6827 21.1872 43.7403 21.9655 44.5201C22.7438 45.2998 23.7994 45.7379 24.9 45.7379H49.8C50.9006 45.7379 51.9562 45.2998 52.7345 44.5201C53.5128 43.7403 53.95 42.6827 53.95 41.5799C53.95 40.4772 53.5128 39.4196 52.7345 38.6398C51.9562 37.86 50.9006 37.4219 49.8 37.4219ZM58.1 20.79H24.9C23.7994 20.79 22.7438 21.228 21.9655 22.0078C21.1872 22.7876 20.75 23.8452 20.75 24.948C20.75 26.0507 21.1872 27.1083 21.9655 27.8881C22.7438 28.6679 23.7994 29.1059 24.9 29.1059H58.1C59.2006 29.1059 60.2562 28.6679 61.0345 27.8881C61.8128 27.1083 62.25 26.0507 62.25 24.948C62.25 23.8452 61.8128 22.7876 61.0345 22.0078C60.2562 21.228 59.2006 20.79 58.1 20.79Z" fill="white"/>
</svg>
