<svg width="562" height="375" viewBox="0 0 562 375" fill="none" xmlns="http://www.w3.org/2000/svg">
<g filter="url(#filter0_d_3091_594)">
<path d="M24.6631 121.791C24.6631 92.5199 48.392 68.791 77.6631 68.791H497C526.271 68.791 550 92.5199 550 121.791V306.026C550 335.298 526.271 359.027 497 359.027H77.6631C48.392 359.027 24.6631 335.298 24.6631 306.027V121.791Z" fill="url(#paint0_linear_3091_594)"/>
</g>
<path fill-rule="evenodd" clip-rule="evenodd" d="M191.657 58.2822L184.207 58.2559L180.758 61.2308L181.048 78.8695L174.993 79.1064L170.043 80.607L171.965 107.065L164.172 110.514L164.067 134.918L155.09 139.789L158.012 155.558L155.09 161.956L169.885 214.898L246.495 219.848L253.551 216.688L238.624 161.929L229.936 128.574L220.011 110.303L209.559 78.4746L203.425 76.2368L191.657 58.2822Z" fill="url(#paint1_linear_3091_594)"/>
<path style="mix-blend-mode:multiply" opacity="0.5" fill-rule="evenodd" clip-rule="evenodd" d="M184.207 58.2559L197.607 80.2121L205.821 84.0558L217.51 115.805L220.642 127.021L219.51 117.938L226.724 131.996L234.2 171.012L246.495 219.848L253.55 216.688L229.936 128.574L219.484 108.724L209.559 78.4746L203.425 76.2368L191.657 58.2822L184.207 58.2559Z" fill="url(#paint2_linear_3091_594)"/>
<path style="mix-blend-mode:multiply" opacity="0.5" fill-rule="evenodd" clip-rule="evenodd" d="M232.227 218.373L227.461 218.609L215.167 160.112L209.138 150.924L205.558 112.198L188.867 96.5338L185.023 81.3697L170.043 80.6063L174.993 79.1057L187.893 78.6055L193.948 96.5074L210.007 110.539L211.85 147.791L219.063 159.243L232.227 218.373Z" fill="url(#paint3_linear_3091_594)"/>
<path style="mix-blend-mode:multiply" opacity="0.5" fill-rule="evenodd" clip-rule="evenodd" d="M155.09 139.788L191.657 139.393L195.396 142.632L212.639 217.662L224.644 218.425L199.002 140.868L194.448 137.893L164.067 134.918L155.09 139.788Z" fill="url(#paint4_linear_3091_594)"/>
<g style="mix-blend-mode:soft-light" opacity="0.5">
<path fill-rule="evenodd" clip-rule="evenodd" d="M173.176 111.673C173.86 122.335 173.623 131.944 176.203 133.182C178.757 134.419 189.893 136.973 189.893 131.839C189.893 109.409 182.416 86.7683 181.811 85.6362C180.889 83.8987 172.096 83.4248 171.78 84.4779C171.28 86.2944 172.544 101.406 173.176 111.673Z" fill="#E05D6C"/>
</g>
<g style="mix-blend-mode:soft-light" opacity="0.5">
<path fill-rule="evenodd" clip-rule="evenodd" d="M157.327 144.344C158.485 148.715 158.906 153.085 160.96 154.164C163.039 155.244 177.756 166.669 179.388 167.011C181.02 167.354 184.285 151.189 181.784 147.688C179.283 144.186 168.463 140.948 162.697 140.843C156.905 140.764 156.642 141.817 157.3 144.318L157.327 144.344Z" fill="#E05D6C"/>
</g>
<g style="mix-blend-mode:soft-light" opacity="0.5">
<path fill-rule="evenodd" clip-rule="evenodd" d="M158.88 159.745C159.776 164.063 163.251 180.122 164.567 181.175C165.883 182.228 181.627 184.887 180.942 182.07C180.284 179.253 172.307 166.906 168.384 164.826C164.462 162.746 158.433 157.56 158.88 159.719V159.745Z" fill="#E05D6C"/>
</g>
<g style="mix-blend-mode:soft-light" opacity="0.5">
<path fill-rule="evenodd" clip-rule="evenodd" d="M194.552 136.445C197.948 139.104 204.319 143.08 205.557 140.842C206.794 138.604 205.82 112.594 203.108 112.936C200.397 113.278 192.946 114.226 191.656 116.516C190.366 118.807 192.657 134.945 194.579 136.445H194.552Z" fill="#E05D6C"/>
</g>
<g style="mix-blend-mode:soft-light" opacity="0.5">
<path fill-rule="evenodd" clip-rule="evenodd" d="M188.945 104.037C189.339 107.644 189.261 112.146 190.787 112.856C192.314 113.567 201.95 110.777 201.107 109.276C200.265 107.775 188.181 97.2185 188.945 104.063V104.037Z" fill="#E05D6C"/>
</g>
<g style="mix-blend-mode:soft-light" opacity="0.5">
<path fill-rule="evenodd" clip-rule="evenodd" d="M187.892 145.238C185.68 150.556 183.522 207.816 184.891 210.449C186.286 213.081 207.637 212.923 207.979 210.449C208.321 207.974 193.684 131.338 187.892 145.238Z" fill="#E05D6C"/>
</g>
<path style="mix-blend-mode:multiply" opacity="0.5" fill-rule="evenodd" clip-rule="evenodd" d="M170.7 89.665C190.524 99.0636 191.287 137.632 191.287 137.632L182.731 136.737L171.753 139.606C171.753 139.606 179.098 168.592 159.064 175.331L155.115 161.957L158.037 155.56L155.115 139.791L164.092 134.92L164.197 110.516L171.99 107.067L170.726 89.665H170.7Z" fill="url(#paint5_linear_3091_594)"/>
<path d="M107.939 43.9356C106.385 39.6444 102.226 33.6946 101.173 34.0632C99.672 34.6161 96.0916 50.7542 101.936 51.3597C104.305 51.5966 108.965 46.7262 107.939 43.9356Z" fill="url(#paint6_linear_3091_594)"/>
<path d="M155.696 60.9163C157.644 68.314 157.302 81.2403 155.09 101.117C154.511 106.198 154.379 114.069 146.929 118.334C120.392 133.498 128 140.843 118.338 136.289C105.359 130.129 101.068 116.755 100.41 106.461C98.9621 83.794 97.2509 58.3889 107.939 51.7284C115.943 46.7527 149.798 38.5651 155.722 60.9163H155.696Z" fill="url(#paint7_linear_3091_594)"/>
<path style="mix-blend-mode:multiply" opacity="0.5" d="M153.405 88.3468C152.51 92.4011 151.614 96.3238 150.693 100.141C148.903 107.618 149.956 111.382 140.821 116.753C134.344 120.57 114.784 131.706 111.546 130.127C102.305 125.678 100.357 104.564 100.33 103.643C99.4354 71.261 115.968 53.7539 115.968 53.7539C110.045 80.4226 167.805 22.5834 153.405 88.3468Z" fill="url(#paint8_linear_3091_594)"/>
<path d="M125.236 85.2153C125.236 85.2153 127.395 85.7945 129.474 89.9278C131.528 94.0084 130.159 96.0092 128.316 97.2728C125.446 99.2736 114.626 99.6159 113.468 96.1671C112.309 92.692 111.046 65.6548 115.416 64.1542C119.786 62.6272 144.243 61.6268 145.981 68.6033C147.666 75.4482 145.639 103.696 142.111 105.013C138.61 106.329 125.157 104.934 116.759 101.748C116.759 101.748 124.92 102.88 129.448 101.696C134.371 100.406 135.872 94.4822 135.872 87.1898C135.872 73.6317 126.026 71.4992 122.024 71.2623C118.022 71.0254 117.496 76.5803 117.627 81.0821C117.733 85.5312 121.392 90.7176 123.867 90.428C126.341 90.1384 125.209 85.189 125.209 85.189L125.236 85.2153Z" fill="#FDBA45"/>
<path d="M125.841 163.615C124.024 168.512 127.157 175.567 128.631 175.567C130.105 175.567 131.448 166.616 130.184 165.59C128.921 164.563 127.525 159.087 125.841 163.615Z" fill="url(#paint9_linear_3091_594)"/>
<path d="M127.631 141.895C125.683 143.264 119.154 149.135 125.393 155.4C129.079 159.112 131.738 164.746 134.634 165.51C141.215 167.221 140.215 152.399 140.741 148.74C141.268 144.975 138.556 128.363 135.028 133.523C132.159 137.709 129.947 140.315 127.657 141.921L127.631 141.895Z" fill="url(#paint10_linear_3091_594)"/>
<path d="M112.755 18.4772C108.727 23.0843 107.095 7.81501 113.466 6.89358C115.309 6.63032 115.572 15.2654 112.755 18.4772Z" fill="url(#paint11_linear_3091_594)"/>
<path d="M110.308 37.4845C104.279 39.8012 103.226 22.6891 107.886 23.6105C109.334 23.9001 112.23 20.6882 114.836 21.715C120.602 23.9527 125.077 31.8243 110.308 37.4845Z" fill="url(#paint12_linear_3091_594)"/>
<path d="M107.543 1.5487C107.543 4.8395 109.939 4.97113 111.071 2.10155C111.992 -0.241501 107.543 -0.89966 107.543 1.5487Z" fill="url(#paint13_linear_3091_594)"/>
<path d="M141.11 130.76C141.163 131.497 145.006 134.578 145.928 130.76C146.849 126.943 140.715 126.179 141.11 130.76Z" fill="url(#paint14_linear_3091_594)"/>
<path style="mix-blend-mode:multiply" opacity="0.5" d="M124.762 134.286C115.469 141.71 96.7508 116.121 101.648 103.669C106.571 91.2162 119.023 115.042 131.712 113.673C144.402 112.277 145.797 117.674 140.795 120.912C135.793 124.151 128.79 131.074 124.762 134.313V134.286Z" fill="url(#paint15_linear_3091_594)"/>
<path style="mix-blend-mode:multiply" opacity="0.5" d="M131.711 119.834C114.52 124.467 102.725 108.698 103.041 115.779C103.357 122.861 117.731 139.737 124.26 134.024C130.789 128.311 141.741 117.148 131.711 119.834Z" fill="url(#paint16_linear_3091_594)"/>
<g style="mix-blend-mode:soft-light">
<path d="M115.127 65.1532C112.994 69.7867 113.126 73.9199 114.047 74.7624C114.969 75.6048 123.262 66.7591 121.656 64.9163C120.05 63.0734 115.706 63.8369 115.127 65.1532Z" fill="#FCD719"/>
</g>
<g style="mix-blend-mode:soft-light">
<path d="M130.581 65.9176C129.843 68.4187 141.348 81.7662 143.507 80.0023C145.666 78.2384 147.114 70.0772 144.033 67.7868C140.953 65.4701 131.344 63.3377 130.581 65.944V65.9176Z" fill="#FCD719"/>
</g>
<g style="mix-blend-mode:soft-light">
<path d="M132.764 102.748C131.79 106.117 142.926 103.142 143.532 100.431C144.137 97.7456 140.557 88.5839 138.74 89.7423C136.924 90.9007 133.449 100.352 132.764 102.748Z" fill="#FCD719"/>
</g>
<g style="mix-blend-mode:soft-light">
<path d="M114.415 95.9824C117.574 101.169 127.104 97.6673 127.183 95.9824C127.262 94.2975 117.258 85.6888 115.179 87.3737C113.099 89.0585 113.178 93.9816 114.415 95.9824Z" fill="#FCD719"/>
</g>
<path style="mix-blend-mode:multiply" opacity="0.5" d="M119.549 49.0151C116.021 54.8859 115.389 61.7044 120.365 60.862C125.341 60.0195 147.613 50.5683 142.611 48.4096C137.609 46.2508 121.629 45.5663 119.549 49.0151Z" fill="url(#paint17_linear_3091_594)"/>
<path style="mix-blend-mode:multiply" opacity="0.5" d="M113.546 52.1489C113.178 49.6479 106.543 51.3591 104.148 55.6503C101.252 60.8103 99.9882 70.0509 100.989 70.6037C101.989 71.1566 114.125 56.0452 113.546 52.1489Z" fill="url(#paint18_linear_3091_594)"/>
<path style="mix-blend-mode:multiply" opacity="0.5" d="M155.089 62.1525C150.824 50.016 135.581 46.0143 125.603 48.0152C113.678 50.4109 104.99 66.7333 130.553 60.9414C146.006 57.44 147.77 66.8912 148.692 76.711C149.587 86.5307 158.538 71.8932 155.115 62.1525H155.089Z" fill="url(#paint19_linear_3091_594)"/>
<path style="mix-blend-mode:multiply" opacity="0.5" d="M100.277 87.3734C98.0132 97.746 100.856 119.86 128.789 119.834C132.501 119.834 123.445 117.833 120.391 115.043C113.888 109.145 110.229 96.3507 109.834 86.531C109.413 76.7375 102.489 77.3957 100.304 87.3471L100.277 87.3734Z" fill="url(#paint20_linear_3091_594)"/>
<path style="mix-blend-mode:multiply" opacity="0.5" d="M119.866 105.512C112.442 107.934 128.001 125.493 145.297 116.7C155.749 111.356 154.327 100.668 150.22 102.326C146.113 103.985 147.351 109.829 137.11 107.986C126.869 106.144 123.999 104.195 119.892 105.538L119.866 105.512Z" fill="url(#paint21_linear_3091_594)"/>
<path style="mix-blend-mode:multiply" opacity="0.5" d="M101.91 89.1093C101.251 98.1656 98.3291 128.494 121.865 135.549C124.84 136.444 132.711 129.599 122.181 119.358C116.652 113.988 112.387 114.725 108.491 98.6921C105.2 85.2393 102.462 81.9221 101.936 89.1093H101.91Z" fill="url(#paint22_linear_3091_594)"/>
<path style="mix-blend-mode:multiply" opacity="0.5" d="M134.66 89.6639C135.739 81.6343 127.209 68.3921 119.891 74.8158C117.074 77.3168 117.969 84.267 123.339 83.5298C132.001 82.3188 133.844 95.5873 134.634 89.6639H134.66Z" fill="url(#paint23_linear_3091_594)"/>
<g style="mix-blend-mode:soft-light">
<path d="M127.499 68.5252C128.236 71.7107 135.265 72.2898 137.74 82.1359C140.188 91.982 142.057 98.0371 143.979 94.1934C145.901 90.3498 147.533 75.4227 143.637 70.6049C139.74 65.7609 126.472 64.0497 127.525 68.5252H127.499Z" fill="#FCD719"/>
</g>
<path opacity="0.54" d="M126.472 143.554C120.996 147.688 123.181 151.663 127.183 155.296C131.184 158.929 135.265 152.848 137.081 151.005C138.924 149.136 142.61 146.635 139.03 143.028C135.449 139.448 131.5 139.737 126.472 143.528V143.554Z" fill="url(#paint24_linear_3091_594)"/>
<path style="mix-blend-mode:multiply" opacity="0.5" d="M126.473 145.607C121.603 151.32 123.656 149.951 127.5 156.769C131.343 163.588 142.927 153.952 137.609 138.551C135.424 132.286 134.687 135.998 126.499 145.633L126.473 145.607Z" fill="url(#paint25_linear_3091_594)"/>
<path style="mix-blend-mode:multiply" opacity="0.5" d="M126.894 162.641C125.236 164.773 125.262 167.932 126.026 169.644C126.789 171.355 131.054 167.327 130.343 166.537C129.632 165.747 128.132 161.035 126.921 162.615L126.894 162.641Z" fill="url(#paint26_linear_3091_594)"/>
<g style="mix-blend-mode:soft-light">
<path d="M106.226 25.9002C104.647 29.349 105.305 36.5098 109.201 36.8257C113.098 37.1416 120.574 25.7423 116.283 24.3733C111.966 22.978 106.99 24.268 106.226 25.9002Z" fill="#FCD719"/>
</g>
<g style="mix-blend-mode:soft-light">
<path d="M99.8568 47.8565C101.463 50.0152 107.886 49.0938 107.097 45.2501C106.307 41.4065 104.464 36.7994 102.463 38.1683C100.462 39.5636 98.4615 46.0136 99.8568 47.8565Z" fill="#FCD719"/>
</g>
<path d="M112.862 7.0248C108.15 8.86765 110.229 14.7121 112.02 14.2382C113.81 13.7644 114.889 6.235 112.862 7.0248Z" fill="#FCD719"/>
<path opacity="0.54" d="M134.713 135.182C131.106 140.869 122.55 144.976 123.84 147.977C125.156 150.978 142.716 155.348 139.293 140.869C137.608 133.708 136.213 132.839 134.713 135.182Z" fill="url(#paint27_linear_3091_594)"/>
<path d="M101.41 205.132L78.3745 185.992L98.0667 184.86C102.016 190.257 125.709 191.968 125.709 191.968C112.678 197.313 101.41 205.132 101.41 205.132Z" fill="url(#paint28_linear_3091_594)"/>
<path d="M136.793 189.362L136.688 196.997L101.41 205.132L95.75 194.233L136.793 189.362Z" fill="url(#paint29_linear_3091_594)"/>
<path d="M105.07 194.101L122.234 192.6L136.872 189.862L132.344 188.546L100.541 183.518L78.3745 185.966L95.75 194.232L105.07 194.101Z" fill="url(#paint30_linear_3091_594)"/>
<path style="mix-blend-mode:multiply" opacity="0.5" d="M95.75 194.233L101.41 205.132L135.661 197.261C135.661 197.261 122.577 192.601 122.234 192.627C121.918 192.653 105.728 194.233 105.728 194.233H95.75Z" fill="url(#paint31_linear_3091_594)"/>
<g style="mix-blend-mode:soft-light" opacity="0.6">
<path d="M82.1911 186.413C85.9821 188.914 94.1433 193.074 96.3547 193.152C98.5661 193.231 122.207 192.415 121.681 191.152C121.154 189.888 104.305 184.096 100.356 184.254C96.4337 184.412 80.5325 185.36 82.1647 186.439L82.1911 186.413Z" fill="#EBA249"/>
</g>
<g style="mix-blend-mode:soft-light" opacity="0.6">
<path d="M116.889 187.098C115.757 187.098 122.892 191.231 123.839 191.231C124.787 191.231 131.843 190.204 131.369 189.678C130.895 189.151 120.154 187.124 116.889 187.098Z" fill="#EBA249"/>
</g>
<path d="M105.727 219.242L82.1914 201.077L110.44 200.208L168.016 205.105C143.664 219.031 105.701 219.216 105.701 219.216L105.727 219.242Z" fill="url(#paint32_linear_3091_594)"/>
<path style="mix-blend-mode:multiply" opacity="0.5" d="M106.833 207.988L105.728 218.203C105.728 218.203 125.393 217.071 135.134 215.149C155.616 211.147 168.016 204.092 168.016 204.092L106.807 207.988H106.833Z" fill="url(#paint33_linear_3091_594)"/>
<path d="M120.233 209.027L144.98 207.79L168.042 205.131L159.617 204.052L114.046 198.997L82.1914 201.077L106.833 209.027H120.233Z" fill="url(#paint34_linear_3091_594)"/>
<g style="mix-blend-mode:soft-light" opacity="0.6">
<path d="M102.989 205.133C100.488 205.712 105.464 208.134 107.491 208.134C109.518 208.134 130.684 208.792 129.868 206.95C129.052 205.107 109.518 203.606 102.989 205.133Z" fill="#EBA249"/>
</g>
<g style="mix-blend-mode:soft-light" opacity="0.6">
<path d="M123.392 200.945C121.602 200.998 131.343 205.815 132.896 206.395C134.449 206.974 156.695 206.395 154.642 205.473C152.562 204.578 131.554 200.708 123.392 200.945Z" fill="#EBA249"/>
</g>
<g style="mix-blend-mode:soft-light" opacity="0.6">
<path d="M120.285 202.052C116.442 203.052 121.865 204.658 123.181 204.5C124.524 204.342 126.209 200.498 120.285 202.052Z" fill="#EBA249"/>
</g>
<path d="M89.353 203.394L99.6467 209.027L105.728 208.659L96.5928 205.131L89.353 203.394Z" fill="#D65429"/>
<path fill-rule="evenodd" clip-rule="evenodd" d="M16.2178 217.347L21.2988 188.652L25.0635 188.099L30.9343 169.17L33.9618 168.722L40.833 170.881L53.9436 128.733L56.7868 127.601L68.4231 128.996L67.528 162.167L72.2404 168.959L69.5288 234.249L16.2178 217.347Z" fill="url(#paint35_linear_3091_594)"/>
<path style="mix-blend-mode:multiply" opacity="0.5" fill-rule="evenodd" clip-rule="evenodd" d="M56.7855 127.601L53.9423 128.733L61.5769 130.97L61.6033 165.484L52.4417 163.01L54.7584 164.853L67.4477 169.091L60.3659 228.457L69.6591 231.379L72.2391 168.959L67.5267 162.167L68.4218 128.996L56.7855 127.601Z" fill="url(#paint36_linear_3091_594)"/>
<path style="mix-blend-mode:multiply" opacity="0.5" fill-rule="evenodd" clip-rule="evenodd" d="M25.0635 188.098C25.748 188.545 42.281 195.601 42.281 195.601L41.7018 219.558L36.8841 217.083L38.0424 197.286L29.4337 192.863L21.2988 188.624L25.0635 188.098Z" fill="url(#paint37_linear_3091_594)"/>
<path style="mix-blend-mode:multiply" opacity="0.5" fill-rule="evenodd" clip-rule="evenodd" d="M30.9333 169.169L50.5202 176.751L45.1233 220.058L47.7823 221.006L55.2063 198.313L62.2881 187.255L56.1278 193.047L60.103 173.145L55.6539 174.513L40.8321 170.88L33.9609 168.722L30.9333 169.169Z" fill="url(#paint38_linear_3091_594)"/>
<path d="M255.498 202.737C257.078 198.367 252.997 178.411 245.363 178.411C238.386 178.411 231.41 189.889 231.41 189.889C231.41 189.889 226.829 182.702 215.614 182.544C204.425 182.413 194.632 200.473 194.632 200.473C194.632 200.473 176.545 192.127 174.703 210.398C174.703 210.398 164.225 205.343 156.037 212.899C145.77 222.35 146.612 244.201 146.612 244.201H159.065L168.042 243.49L206.215 244.096L255.525 202.71L255.498 202.737Z" fill="url(#paint39_linear_3091_594)"/>
<path d="M10.8465 211.949C-1.57958 204.577 8.92467 188.15 18.7181 194.547C18.7181 194.547 23.2199 185.201 34.1717 189.124C45.0709 193.046 41.938 210.053 41.938 210.053C41.938 210.053 45.5447 211.58 51.9684 214.002L68.1328 214.976C68.1328 214.976 70.2389 208.131 78.4265 206.868C86.614 205.604 91.537 214.029 92.1689 221.874C92.1689 221.874 101.383 216.582 113.151 224.533C113.151 224.533 119.496 214.502 125.603 214.029C139.951 212.87 142.215 224.348 142.215 224.348C142.215 224.348 149.113 213.95 159.038 215.819C173.202 218.478 177.282 238.038 177.282 238.038L106.438 244.804L10.8465 211.949Z" fill="url(#paint40_linear_3091_594)"/>
<g style="mix-blend-mode:soft-light">
<path d="M28.353 188.677C17.7698 190.415 15.1371 201.498 22.5349 203.604C29.9326 205.737 36.9618 207.422 38.594 203.104C42.0691 193.969 32.7759 187.966 28.3267 188.677H28.353Z" fill="#FCD719"/>
</g>
<g style="mix-blend-mode:soft-light">
<path d="M38.4104 204.315C33.1715 213.108 29.5647 204.868 30.9337 208.949C32.3027 213.029 39.832 213.556 41.4906 204.895C42.2541 200.919 40.9378 200.05 38.4104 204.315Z" fill="#FCD719"/>
</g>
<g style="mix-blend-mode:soft-light">
<path d="M77.3202 208.317C73.9768 209.396 72.2392 211.871 84.9549 215.109C90.773 216.583 91.3785 224.745 91.5365 222.402C91.7997 217.9 87.2453 205.079 77.3202 208.317Z" fill="#FCD719"/>
</g>
<g style="mix-blend-mode:soft-light">
<path d="M87.3778 211.318C85.4296 206.343 76.8735 205.158 70.3709 212.556C63.8682 219.953 72.319 210.344 79.4008 214.03C88.4308 218.742 89.1679 215.846 87.3778 211.318Z" fill="#FCD719"/>
</g>
<g style="mix-blend-mode:soft-light">
<path d="M13.2154 194.547C3.42193 196.838 4.92253 205.157 9.2664 206.71C13.6103 208.237 20.4288 192.862 13.2154 194.547Z" fill="#FCD719"/>
</g>
<g style="mix-blend-mode:soft-light">
<path d="M35.7522 190.73C23.642 186.017 18.1661 193.073 24.1686 198.891C29.8551 204.42 29.8551 216.187 36.463 211.58C43.0973 206.999 42.5181 193.362 35.7522 190.73Z" fill="#FCD719"/>
</g>
<g style="mix-blend-mode:soft-light">
<path d="M125.315 215.109C113.915 217.715 109.361 230.352 110.572 232.774C111.809 235.222 118.654 225.903 125.525 225.903C132.396 225.903 141.874 230.8 139.979 223.165C139.294 220.453 133.529 213.214 125.315 215.083V215.109Z" fill="#FCD719"/>
</g>
<g style="mix-blend-mode:soft-light">
<path d="M136.451 224.008C132.423 218.769 122.998 215.768 118.312 219.559C113.626 223.35 108.913 231.8 113.52 230.879C118.127 229.984 119.654 225.824 127.605 227.799C135.556 229.773 139.189 227.536 136.451 223.981V224.008Z" fill="#FCD719"/>
</g>
<g style="mix-blend-mode:soft-light">
<path d="M161.275 218.032C143.9 216.031 137.713 230.405 141.636 234.749C145.558 239.093 172.148 219.295 161.275 218.032Z" fill="#FCD719"/>
</g>
<g style="mix-blend-mode:soft-light">
<path d="M216.614 184.492C197.975 184.835 191.762 210.292 198.659 212.741C200.371 213.346 208.348 201.894 217.141 202.157C249.101 203.105 228.619 184.256 216.588 184.492H216.614Z" fill="#FCD719"/>
</g>
<g style="mix-blend-mode:soft-light">
<path d="M243.809 179.516C232.199 184.255 237.017 196.075 240.386 197.576C243.73 199.076 252.628 201.367 254.024 197.576C255.471 193.574 251.022 176.594 243.835 179.516H243.809Z" fill="#FCD719"/>
</g>
<g style="mix-blend-mode:soft-light">
<path d="M206.4 186.862C199.344 192.048 204.978 193.101 212.692 191.732C219.721 190.468 226.25 195.576 227.092 192.416C227.935 189.257 220.458 176.515 206.4 186.862Z" fill="#FCD719"/>
</g>
<g style="mix-blend-mode:soft-light">
<path d="M228.408 188.336C235.621 192.6 237.095 205.843 231.33 207.343C225.565 208.844 218.114 196.47 212.507 194.865C205.662 192.916 203.266 194.865 202.16 193.522C199.343 190.178 216.561 181.306 228.408 188.309V188.336Z" fill="#FCD719"/>
</g>
<g style="mix-blend-mode:soft-light">
<path d="M189.867 202.63C182.311 198.471 176.282 211.792 179.705 215.741C183.127 219.69 185.128 209.396 187.208 207.869C189.287 206.342 192.789 204.236 189.867 202.63Z" fill="#FCD719"/>
</g>
<g style="mix-blend-mode:soft-light">
<path d="M243.256 181.069C248.416 178.832 252.865 188.02 253.681 193.232C254.498 198.445 245.757 203.631 240.387 192.679C238.465 188.757 239.492 182.675 243.283 181.069H243.256Z" fill="#FCD719"/>
</g>
<g style="mix-blend-mode:soft-light">
<path d="M223.669 196.602C204.898 187.73 197.5 203.631 201.133 206.896C206.083 211.345 204.161 199.972 215.165 209.265C226.17 218.559 233.041 201.051 223.642 196.629L223.669 196.602Z" fill="#FCD719"/>
</g>
<path fill-rule="evenodd" clip-rule="evenodd" d="M32.9082 255.389L269.03 254.73L220.221 301.486L193.078 308.252L188.129 320.389L166.62 327.734L153.615 319.915L147.639 307.805L131.264 307.831L125.446 324.732L93.4064 340.16L78.1107 335.869L62.1306 311.253L37.568 301.802L32.9082 255.389Z" fill="url(#paint41_linear_3091_594)"/>
<path style="mix-blend-mode:multiply" opacity="0.5" fill-rule="evenodd" clip-rule="evenodd" d="M36.5409 291.64L54.7852 294.93L62.1302 311.253L69.449 294.457L91.0103 295.088L93.4061 340.159L125.445 324.732L131.263 307.83L147.639 307.804L153.615 319.914L166.62 327.733L188.129 320.388L193.078 308.252L220.221 301.486L269.03 254.73L31.7495 249.333L36.5409 291.64Z" fill="url(#paint42_linear_3091_594)"/>
<path style="mix-blend-mode:multiply" opacity="0.5" fill-rule="evenodd" clip-rule="evenodd" d="M36.1188 287.454L62.4452 288.191L64.0248 306.883L69.448 294.43L91.0094 295.062L105.463 289.876L117.231 282.873L131.263 307.804H147.638L144.478 290.981L166.277 299.853L166.619 327.733L188.154 320.388L193.103 308.252L198.816 284.742C198.816 284.742 222.563 283.926 222.431 285.4C222.299 286.848 220.22 301.486 220.22 301.486L269.055 254.73L31.7749 249.359L36.1451 287.454H36.1188Z" fill="url(#paint43_linear_3091_594)"/>
<path style="mix-blend-mode:multiply" opacity="0.5" fill-rule="evenodd" clip-rule="evenodd" d="M69.449 294.457L81.5591 272.975L99.3558 263.471L102.489 253.678L68.6592 254.231L69.449 294.457Z" fill="url(#paint44_linear_3091_594)"/>
<path style="mix-blend-mode:multiply" opacity="0.5" fill-rule="evenodd" clip-rule="evenodd" d="M147.638 307.804L144.479 291.008L155.088 273.58L120.101 267.262L117.231 282.873L131.263 307.831L147.638 307.804Z" fill="url(#paint45_linear_3091_594)"/>
<path style="mix-blend-mode:multiply" opacity="0.5" fill-rule="evenodd" clip-rule="evenodd" d="M252.471 270.578L200.371 261.232L199.239 278.213L166.278 299.88L166.62 327.733L188.129 320.388L193.078 308.251L220.221 301.486L252.471 270.578Z" fill="url(#paint46_linear_3091_594)"/>
<path fill-rule="evenodd" clip-rule="evenodd" d="M278.007 276.37L248.337 286.769L206.584 268.946L205.873 278.318L166.278 274.817L164.093 274.633L96.2758 268.657L98.5135 260.785L82.9283 262.523L64.5261 277.476L32.6185 287.348L12.742 274.317L3.92264 231.378L11.0308 228.298L0 203.42L19.5342 200.261L98.6978 220.821L107.859 235.828L164.514 235.301L164.751 235.485L166.515 237.012V235.301H166.488H166.515L189.577 235.09L191.499 215.846L261 201.63L258.341 193.811L274.164 217.847L261.843 246.437L275.375 250.096L278.007 276.37Z" fill="url(#paint47_linear_3091_594)"/>
<path fill-rule="evenodd" clip-rule="evenodd" d="M19.5342 200.261L98.6978 220.822L95.3017 226.692L73.0559 229.957L0 203.42L19.5342 200.261Z" fill="url(#paint48_linear_3091_594)"/>
<path fill-rule="evenodd" clip-rule="evenodd" d="M191.499 215.846L213.165 220.005L261.001 201.629L258.342 193.811L255.841 193.784L253.076 199.76L191.499 215.846Z" fill="url(#paint49_linear_3091_594)"/>
<path fill-rule="evenodd" clip-rule="evenodd" d="M208.322 245.305L182.311 244.726L179.336 250.334L175.387 244.595L103.753 243.041L107.86 235.828L164.514 235.301L164.751 235.486L166.515 237.013V235.301H166.489H166.515L189.577 235.091L208.322 245.305Z" fill="url(#paint50_linear_3091_594)"/>
<path style="mix-blend-mode:multiply" opacity="0.5" fill-rule="evenodd" clip-rule="evenodd" d="M12.7427 274.317L58.5244 267.182L58.4981 245.331L3.92334 231.378L11.0315 228.298L72.6617 242.383L73.0566 229.957L95.3024 226.692L103.753 243.041L175.387 244.594L179.336 250.333L182.311 244.726L198.055 245.068L208.322 245.305L208.48 263.444L214.193 230.826L213.166 220.005L261.001 201.63L258.342 193.811L274.164 217.847L261.843 246.437L220.063 261.47L244.784 263.865L275.375 250.096L278.008 276.37L248.338 286.769L206.584 268.946L205.873 278.318L96.2765 268.657L98.5142 260.785L82.929 262.523L64.5268 277.476L32.6192 287.348L12.7427 274.317Z" fill="url(#paint51_linear_3091_594)"/>
<path style="mix-blend-mode:multiply" opacity="0.5" fill-rule="evenodd" clip-rule="evenodd" d="M64.5263 277.476L58.5239 267.183L58.4975 245.332L13.2161 228.799L72.6612 242.383L98.5137 260.785L103.753 243.041L98.5137 260.785L82.9285 262.523L64.5263 277.476Z" fill="url(#paint52_linear_3091_594)"/>
<path style="mix-blend-mode:multiply" opacity="0.5" fill-rule="evenodd" clip-rule="evenodd" d="M214.192 230.826L274.164 217.847L261.843 246.437L271.663 249.096L231.12 262.47L244.784 263.865L248.338 286.769L206.584 268.946L208.479 263.444L214.192 230.826Z" fill="url(#paint53_linear_3091_594)"/>
<path style="mix-blend-mode:multiply" opacity="0.5" fill-rule="evenodd" clip-rule="evenodd" d="M82.9286 262.524L67.5276 245.069L53.6799 238.04L72.6613 242.384L93.7225 257.39L103.753 243.042L96.2761 268.658L137.582 272.291L205.873 278.32L206.584 268.947L239.492 283.006L233.174 289.061L215.219 277.345L198.818 284.769L195.764 294.642L187.761 285.112L151.298 279.794L145.98 288.561L118.469 276.082L73.925 286.533L69.1599 278.872L69.0546 273.791L82.9286 262.524Z" fill="url(#paint54_linear_3091_594)"/>
<path style="mix-blend-mode:multiply" opacity="0.5" fill-rule="evenodd" clip-rule="evenodd" d="M164.75 235.485L164.514 235.302L164.75 235.485Z" fill="url(#paint55_linear_3091_594)"/>
<path style="mix-blend-mode:multiply" opacity="0.5" fill-rule="evenodd" clip-rule="evenodd" d="M182.309 244.727L166.277 274.818H164.012L164.091 274.633L175.649 244.806L175.385 244.595L166.513 237.013V235.302L182.309 244.727Z" fill="url(#paint56_linear_3091_594)"/>
<path fill-rule="evenodd" clip-rule="evenodd" d="M164.751 235.485L166.515 237.012L164.751 235.485Z" fill="url(#paint57_linear_3091_594)"/>
<path style="mix-blend-mode:screen" opacity="0.6" fill-rule="evenodd" clip-rule="evenodd" d="M248.337 286.769L278.007 276.37L275.375 250.096L271.663 249.096L261.843 246.437L274.164 217.847L258.341 193.811L255.84 193.784L253.076 199.76L191.499 215.846L189.577 235.09L107.859 235.801L98.6978 220.821L19.5342 200.26L0 203.42L11.0308 228.298L3.92264 231.378L12.742 274.317L32.6185 287.348L35.9356 286.322L36.5411 291.64L37.5678 301.802L62.1304 311.253L78.1106 335.868L93.4062 340.159L125.445 324.732L131.264 307.83L147.639 307.804L153.615 319.914L166.62 327.733L188.129 320.388L193.078 308.252L220.221 301.486L233.173 289.06L239.492 283.004L248.337 286.769Z" fill="url(#paint58_linear_3091_594)"/>
<path d="M138.504 228.746L116.258 220.006L116.89 213.556L137.056 211.924L174.677 214.293L170.517 222.955C154.01 226.193 138.478 228.773 138.478 228.773L138.504 228.746Z" fill="url(#paint59_linear_3091_594)"/>
<path d="M160.829 218.241L174.703 214.292L139.031 210.633L116.89 213.555L139.057 220.479L160.829 218.241Z" fill="url(#paint60_linear_3091_594)"/>
<path style="mix-blend-mode:multiply" opacity="0.5" d="M139.057 220.48L138.504 228.773L164.778 224.086L170.543 222.981L174.703 214.319C174.703 214.319 161.356 218.242 160.829 218.268C160.302 218.268 139.057 220.506 139.057 220.506V220.48Z" fill="url(#paint61_linear_3091_594)"/>
<path d="M118.917 214.188L143.611 220.006L138.819 224.113L118.917 214.188Z" fill="#D65429"/>
<g style="mix-blend-mode:soft-light" opacity="0.6">
<path d="M127.551 214.293C141.425 218.479 140.398 219.11 145.769 219.242C151.139 219.347 168.752 215.714 166.435 214.898C164.145 214.082 144.373 211.028 139.556 211.344C134.738 211.634 120.838 212.292 127.524 214.319L127.551 214.293Z" fill="#EBA249"/>
</g>
<defs>
<filter id="filter0_d_3091_594" x="13.5631" y="61.691" width="547.537" height="312.435" filterUnits="userSpaceOnUse" color-interpolation-filters="sRGB">
<feFlood flood-opacity="0" result="BackgroundImageFix"/>
<feColorMatrix in="SourceAlpha" type="matrix" values="0 0 0 0 0 0 0 0 0 0 0 0 0 0 0 0 0 0 127 0" result="hardAlpha"/>
<feOffset dy="4"/>
<feGaussianBlur stdDeviation="5.55"/>
<feComposite in2="hardAlpha" operator="out"/>
<feColorMatrix type="matrix" values="0 0 0 0 0 0 0 0 0 0 0 0 0 0 0 0 0 0 0.6 0"/>
<feBlend mode="normal" in2="BackgroundImageFix" result="effect1_dropShadow_3091_594"/>
<feBlend mode="normal" in="SourceGraphic" in2="effect1_dropShadow_3091_594" result="shape"/>
</filter>
<linearGradient id="paint0_linear_3091_594" x1="287.331" y1="68.791" x2="287.331" y2="359.027" gradientUnits="userSpaceOnUse">
<stop stop-color="#5B174D"/>
<stop offset="1" stop-color="#A81A26"/>
</linearGradient>
<linearGradient id="paint1_linear_3091_594" x1="167.884" y1="170.328" x2="272.295" y2="103.037" gradientUnits="userSpaceOnUse">
<stop stop-color="#9B1F27"/>
<stop offset="1" stop-color="#3D003E"/>
</linearGradient>
<linearGradient id="paint2_linear_3091_594" x1="172.724" y1="136.329" x2="168.358" y2="251.603" gradientUnits="userSpaceOnUse">
<stop stop-color="#3445A1"/>
<stop offset="1" stop-color="#191E84"/>
</linearGradient>
<linearGradient id="paint3_linear_3091_594" x1="153.95" y1="132.587" x2="149.438" y2="251.795" gradientUnits="userSpaceOnUse">
<stop stop-color="#3445A1"/>
<stop offset="1" stop-color="#191E84"/>
</linearGradient>
<linearGradient id="paint4_linear_3091_594" x1="140.16" y1="122.727" x2="135.143" y2="254.647" gradientUnits="userSpaceOnUse">
<stop stop-color="#3445A1"/>
<stop offset="1" stop-color="#191E84"/>
</linearGradient>
<linearGradient id="paint5_linear_3091_594" x1="173.175" y1="217.032" x2="173.175" y2="96.2993" gradientUnits="userSpaceOnUse">
<stop stop-color="white"/>
<stop offset="1" stop-color="#191E84"/>
</linearGradient>
<linearGradient id="paint6_linear_3091_594" x1="103.937" y1="38.3807" x2="101.173" y2="68.2086" gradientUnits="userSpaceOnUse">
<stop stop-color="#FDA902"/>
<stop offset="0.13" stop-color="#FDA301"/>
<stop offset="0.3" stop-color="#FD9401"/>
<stop offset="0.48" stop-color="#FD7A01"/>
<stop offset="0.68" stop-color="#FD5600"/>
<stop offset="0.88" stop-color="#FD2800"/>
<stop offset="1" stop-color="#FD0C00"/>
</linearGradient>
<linearGradient id="paint7_linear_3091_594" x1="128.158" y1="55.1771" x2="128.158" y2="133.551" gradientUnits="userSpaceOnUse">
<stop stop-color="#FDA902"/>
<stop offset="0.13" stop-color="#FDA301"/>
<stop offset="0.3" stop-color="#FD9401"/>
<stop offset="0.48" stop-color="#FD7A01"/>
<stop offset="0.68" stop-color="#FD5600"/>
<stop offset="0.88" stop-color="#FD2800"/>
<stop offset="1" stop-color="#FD0C00"/>
</linearGradient>
<linearGradient id="paint8_linear_3091_594" x1="125.972" y1="118.175" x2="129.895" y2="53.9382" gradientUnits="userSpaceOnUse">
<stop stop-color="white"/>
<stop offset="1" stop-color="#E75A29"/>
</linearGradient>
<linearGradient id="paint9_linear_3091_594" x1="129.974" y1="177.436" x2="126.815" y2="161.904" gradientUnits="userSpaceOnUse">
<stop stop-color="#FDA902"/>
<stop offset="0.99" stop-color="#FD0C00"/>
</linearGradient>
<linearGradient id="paint10_linear_3091_594" x1="131.79" y1="174.434" x2="131.79" y2="149.108" gradientUnits="userSpaceOnUse">
<stop stop-color="#FDA902"/>
<stop offset="0.99" stop-color="#FD0C00"/>
</linearGradient>
<linearGradient id="paint11_linear_3091_594" x1="113.808" y1="25.1641" x2="118.126" y2="55.3079" gradientUnits="userSpaceOnUse">
<stop stop-color="#FDA902"/>
<stop offset="0.99" stop-color="#FD0C00"/>
</linearGradient>
<linearGradient id="paint12_linear_3091_594" x1="111.966" y1="24.4266" x2="116.626" y2="57.0714" gradientUnits="userSpaceOnUse">
<stop stop-color="#FDA902"/>
<stop offset="0.99" stop-color="#FD0C00"/>
</linearGradient>
<linearGradient id="paint13_linear_3091_594" x1="112.756" y1="25.2951" x2="117.073" y2="55.4389" gradientUnits="userSpaceOnUse">
<stop stop-color="#FDA902"/>
<stop offset="0.99" stop-color="#FD0C00"/>
</linearGradient>
<linearGradient id="paint14_linear_3091_594" x1="143.532" y1="133.972" x2="143.532" y2="130.128" gradientUnits="userSpaceOnUse">
<stop stop-color="#FDA902"/>
<stop offset="0.99" stop-color="#FD0C00"/>
</linearGradient>
<linearGradient id="paint15_linear_3091_594" x1="121.129" y1="129.811" x2="122.893" y2="100.852" gradientUnits="userSpaceOnUse">
<stop stop-color="white"/>
<stop offset="1" stop-color="#E75A29"/>
</linearGradient>
<linearGradient id="paint16_linear_3091_594" x1="119.548" y1="109.672" x2="119.285" y2="124.415" gradientUnits="userSpaceOnUse">
<stop stop-color="#F70715"/>
<stop offset="1" stop-color="#D01C5C"/>
</linearGradient>
<linearGradient id="paint17_linear_3091_594" x1="134.687" y1="43.4865" x2="125.446" y2="59.9932" gradientUnits="userSpaceOnUse">
<stop stop-color="white"/>
<stop offset="1" stop-color="#E75A29"/>
</linearGradient>
<linearGradient id="paint18_linear_3091_594" x1="104.174" y1="70.6301" x2="108.939" y2="52.6228" gradientUnits="userSpaceOnUse">
<stop stop-color="white"/>
<stop offset="1" stop-color="#E75A29"/>
</linearGradient>
<linearGradient id="paint19_linear_3091_594" x1="143.374" y1="49.5684" x2="133.949" y2="66.4437" gradientUnits="userSpaceOnUse">
<stop stop-color="white"/>
<stop offset="1" stop-color="#E75A29"/>
</linearGradient>
<linearGradient id="paint20_linear_3091_594" x1="123.102" y1="88.1632" x2="111.124" y2="109.567" gradientUnits="userSpaceOnUse">
<stop stop-color="white"/>
<stop offset="1" stop-color="#E75A29"/>
</linearGradient>
<linearGradient id="paint21_linear_3091_594" x1="141.98" y1="96.3238" x2="131.634" y2="114.858" gradientUnits="userSpaceOnUse">
<stop stop-color="white"/>
<stop offset="1" stop-color="#E75A29"/>
</linearGradient>
<linearGradient id="paint22_linear_3091_594" x1="108.149" y1="91.347" x2="116.152" y2="124.861" gradientUnits="userSpaceOnUse">
<stop stop-color="white"/>
<stop offset="1" stop-color="#E75A29"/>
</linearGradient>
<linearGradient id="paint23_linear_3091_594" x1="124.735" y1="75.4739" x2="127.736" y2="88.058" gradientUnits="userSpaceOnUse">
<stop stop-color="white"/>
<stop offset="1" stop-color="#E75A29"/>
</linearGradient>
<linearGradient id="paint24_linear_3091_594" x1="123.181" y1="148.478" x2="140.53" y2="148.478" gradientUnits="userSpaceOnUse">
<stop stop-color="#FDA902"/>
<stop offset="0.99" stop-color="#FD0C00"/>
</linearGradient>
<linearGradient id="paint25_linear_3091_594" x1="123.63" y1="147.213" x2="138.978" y2="147.213" gradientUnits="userSpaceOnUse">
<stop stop-color="white"/>
<stop offset="1" stop-color="#E75A29"/>
</linearGradient>
<linearGradient id="paint26_linear_3091_594" x1="125.499" y1="166.169" x2="130.396" y2="166.169" gradientUnits="userSpaceOnUse">
<stop stop-color="white"/>
<stop offset="1" stop-color="#E75A29"/>
</linearGradient>
<linearGradient id="paint27_linear_3091_594" x1="123.708" y1="142.501" x2="139.741" y2="142.501" gradientUnits="userSpaceOnUse">
<stop stop-color="#FDA902"/>
<stop offset="0.99" stop-color="#FD0C00"/>
</linearGradient>
<linearGradient id="paint28_linear_3091_594" x1="98.3563" y1="206.053" x2="101.7" y2="190.547" gradientUnits="userSpaceOnUse">
<stop stop-color="#9B1F27"/>
<stop offset="1" stop-color="#3D003E"/>
</linearGradient>
<linearGradient id="paint29_linear_3091_594" x1="116.522" y1="198.892" x2="116.153" y2="188.941" gradientUnits="userSpaceOnUse">
<stop stop-color="#B61922"/>
<stop offset="1" stop-color="#45003D"/>
</linearGradient>
<linearGradient id="paint30_linear_3091_594" x1="107.623" y1="247.122" x2="107.623" y2="181.464" gradientUnits="userSpaceOnUse">
<stop stop-color="#8D092D"/>
<stop offset="1" stop-color="#FD5925"/>
</linearGradient>
<linearGradient id="paint31_linear_3091_594" x1="125.499" y1="192.838" x2="101.305" y2="199.972" gradientUnits="userSpaceOnUse">
<stop stop-color="#F70715"/>
<stop offset="1" stop-color="#882785"/>
</linearGradient>
<linearGradient id="paint32_linear_3091_594" x1="82.1914" y1="209.738" x2="168.042" y2="209.738" gradientUnits="userSpaceOnUse">
<stop stop-color="#B61922"/>
<stop offset="1" stop-color="#45003D"/>
</linearGradient>
<linearGradient id="paint33_linear_3091_594" x1="164.041" y1="206.251" x2="100.778" y2="214.201" gradientUnits="userSpaceOnUse">
<stop stop-color="#F70715"/>
<stop offset="1" stop-color="#882785"/>
</linearGradient>
<linearGradient id="paint34_linear_3091_594" x1="125.13" y1="247.122" x2="125.13" y2="181.464" gradientUnits="userSpaceOnUse">
<stop stop-color="#8D092D"/>
<stop offset="1" stop-color="#FD5925"/>
</linearGradient>
<linearGradient id="paint35_linear_3091_594" x1="71.6258" y1="217.562" x2="8.79137" y2="150.555" gradientUnits="userSpaceOnUse">
<stop stop-color="#9B1F27"/>
<stop offset="1" stop-color="#3D003E"/>
</linearGradient>
<linearGradient id="paint36_linear_3091_594" x1="61.0351" y1="158.949" x2="60.8644" y2="254.578" gradientUnits="userSpaceOnUse">
<stop stop-color="#3445A1"/>
<stop offset="1" stop-color="#191E84"/>
</linearGradient>
<linearGradient id="paint37_linear_3091_594" x1="30.3918" y1="158.905" x2="30.2211" y2="254.534" gradientUnits="userSpaceOnUse">
<stop stop-color="#3445A1"/>
<stop offset="1" stop-color="#191E84"/>
</linearGradient>
<linearGradient id="paint38_linear_3091_594" x1="45.2708" y1="158.939" x2="45.1001" y2="254.568" gradientUnits="userSpaceOnUse">
<stop stop-color="#3445A1"/>
<stop offset="1" stop-color="#191E84"/>
</linearGradient>
<linearGradient id="paint39_linear_3091_594" x1="188.313" y1="179.885" x2="210.533" y2="248.282" gradientUnits="userSpaceOnUse">
<stop stop-color="#FDA902"/>
<stop offset="0.99" stop-color="#FD0C00"/>
</linearGradient>
<linearGradient id="paint40_linear_3091_594" x1="104.411" y1="247.068" x2="73.793" y2="185.017" gradientUnits="userSpaceOnUse">
<stop stop-color="#FDA902"/>
<stop offset="0.99" stop-color="#FD0C00"/>
</linearGradient>
<linearGradient id="paint41_linear_3091_594" x1="32.9082" y1="297.432" x2="269.03" y2="297.432" gradientUnits="userSpaceOnUse">
<stop stop-color="#9B1F27"/>
<stop offset="1" stop-color="#3D003E"/>
</linearGradient>
<linearGradient id="paint42_linear_3091_594" x1="139.741" y1="368.197" x2="148.534" y2="272.342" gradientUnits="userSpaceOnUse">
<stop stop-color="#3445A1"/>
<stop offset="1" stop-color="#191E84"/>
</linearGradient>
<linearGradient id="paint43_linear_3091_594" x1="141.898" y1="344.766" x2="149.033" y2="266.998" gradientUnits="userSpaceOnUse">
<stop stop-color="#3445A1"/>
<stop offset="1" stop-color="#191E84"/>
</linearGradient>
<linearGradient id="paint44_linear_3091_594" x1="68.6592" y1="274.054" x2="102.489" y2="274.054" gradientUnits="userSpaceOnUse">
<stop stop-color="#3445A1"/>
<stop offset="1" stop-color="#191E84"/>
</linearGradient>
<linearGradient id="paint45_linear_3091_594" x1="117.231" y1="287.533" x2="155.088" y2="287.533" gradientUnits="userSpaceOnUse">
<stop stop-color="#3445A1"/>
<stop offset="1" stop-color="#191E84"/>
</linearGradient>
<linearGradient id="paint46_linear_3091_594" x1="166.278" y1="294.483" x2="252.471" y2="294.483" gradientUnits="userSpaceOnUse">
<stop stop-color="#3445A1"/>
<stop offset="1" stop-color="#191E84"/>
</linearGradient>
<linearGradient id="paint47_linear_3091_594" x1="0" y1="240.566" x2="278.007" y2="240.566" gradientUnits="userSpaceOnUse">
<stop stop-color="#9B1F27"/>
<stop offset="1" stop-color="#3D003E"/>
</linearGradient>
<linearGradient id="paint48_linear_3091_594" x1="49.3621" y1="308.041" x2="49.3621" y2="153.847" gradientUnits="userSpaceOnUse">
<stop stop-color="#791130"/>
<stop offset="1" stop-color="#DD592D"/>
</linearGradient>
<linearGradient id="paint49_linear_3091_594" x1="226.25" y1="308.041" x2="226.25" y2="153.847" gradientUnits="userSpaceOnUse">
<stop stop-color="#791130"/>
<stop offset="1" stop-color="#DD592D"/>
</linearGradient>
<linearGradient id="paint50_linear_3091_594" x1="156.037" y1="344.109" x2="156.037" y2="113.673" gradientUnits="userSpaceOnUse">
<stop stop-color="#791130"/>
<stop offset="1" stop-color="#DD592D"/>
</linearGradient>
<linearGradient id="paint51_linear_3091_594" x1="3.92334" y1="240.566" x2="278.008" y2="240.566" gradientUnits="userSpaceOnUse">
<stop stop-color="#3445A1"/>
<stop offset="1" stop-color="#191E84"/>
</linearGradient>
<linearGradient id="paint52_linear_3091_594" x1="13.2161" y1="253.124" x2="103.753" y2="253.124" gradientUnits="userSpaceOnUse">
<stop stop-color="#3445A1"/>
<stop offset="1" stop-color="#191E84"/>
</linearGradient>
<linearGradient id="paint53_linear_3091_594" x1="206.584" y1="252.308" x2="274.164" y2="252.308" gradientUnits="userSpaceOnUse">
<stop stop-color="#3445A1"/>
<stop offset="1" stop-color="#191E84"/>
</linearGradient>
<linearGradient id="paint54_linear_3091_594" x1="143.006" y1="295.3" x2="146.718" y2="259.312" gradientUnits="userSpaceOnUse">
<stop stop-color="#3445A1"/>
<stop offset="1" stop-color="#191E84"/>
</linearGradient>
<linearGradient id="paint55_linear_3091_594" x1="164.619" y1="235.485" x2="164.645" y2="235.354" gradientUnits="userSpaceOnUse">
<stop stop-color="#3445A1"/>
<stop offset="1" stop-color="#191E84"/>
</linearGradient>
<linearGradient id="paint56_linear_3091_594" x1="170.594" y1="276.898" x2="173.78" y2="246.148" gradientUnits="userSpaceOnUse">
<stop stop-color="#3445A1"/>
<stop offset="1" stop-color="#191E84"/>
</linearGradient>
<linearGradient id="paint57_linear_3091_594" x1="165.567" y1="236.96" x2="165.672" y2="235.933" gradientUnits="userSpaceOnUse">
<stop stop-color="#3445A1"/>
<stop offset="1" stop-color="#191E84"/>
</linearGradient>
<linearGradient id="paint58_linear_3091_594" x1="139.004" y1="356.192" x2="139.004" y2="275.001" gradientUnits="userSpaceOnUse">
<stop stop-color="#3D56FD"/>
<stop offset="1"/>
</linearGradient>
<linearGradient id="paint59_linear_3091_594" x1="116.258" y1="220.348" x2="174.703" y2="220.348" gradientUnits="userSpaceOnUse">
<stop stop-color="#B61922"/>
<stop offset="1" stop-color="#45003D"/>
</linearGradient>
<linearGradient id="paint60_linear_3091_594" x1="145.797" y1="247.121" x2="145.797" y2="181.463" gradientUnits="userSpaceOnUse">
<stop stop-color="#8D092D"/>
<stop offset="1" stop-color="#FD5925"/>
</linearGradient>
<linearGradient id="paint61_linear_3091_594" x1="173.597" y1="220.638" x2="162.224" y2="221.243" gradientUnits="userSpaceOnUse">
<stop stop-color="#F70715"/>
<stop offset="1" stop-color="#882785"/>
</linearGradient>
</defs>
</svg>
