<svg width="696" height="446" viewBox="0 0 696 446" fill="none" xmlns="http://www.w3.org/2000/svg">
<g filter="url(#filter0_d_3200_1137)">
<rect x="12" y="71" width="650" height="359.11" rx="53" fill="url(#paint0_linear_3200_1137)"/>
</g>
<g filter="url(#filter1_d_3200_1137)">
<g filter="url(#filter2_d_3200_1137)">
<path fill-rule="evenodd" clip-rule="evenodd" d="M658.8 188.965C658.8 188.965 658.549 189.184 658.423 189.31C658.361 189.341 658.329 189.404 658.266 189.436C643.665 202.592 616.85 222.374 591.824 240.146C585.199 244.856 578.668 249.441 572.545 253.711C562.685 260.556 553.83 266.648 547.048 271.264C545.792 272.112 544.63 272.897 543.531 273.65C537.22 277.952 533.42 280.495 533.42 280.495L524.314 283.667L519.981 285.174L502.962 291.109L500.67 304.454L500.544 305.144H476.837L464.12 296.007L461.357 294.029H428.45C424.839 290.041 418.276 283.792 411.808 277.858L410.992 277.104C409.422 275.691 407.883 274.278 406.407 272.959C401.634 268.658 397.458 264.952 395.26 263.037C394.224 262.126 393.627 261.624 393.627 261.624L390.079 260.902L388.289 260.556L375.258 257.919L336.417 250.1L333.591 249.535C329.634 246.175 325.709 243.004 321.91 240.021C296.225 219.831 275.375 208.087 275.061 207.93C291.012 200.174 303.039 196.657 317.734 193.235C392.434 175.808 636.067 181.334 636.067 181.334L650.573 186.264L658.8 189.059V188.965Z" fill="url(#paint1_linear_3200_1137)"/>
<path style="mix-blend-mode:multiply" opacity="0.5" fill-rule="evenodd" clip-rule="evenodd" d="M444.56 216.313L413.85 227.712L418.686 254.245L408.669 254.527L411.747 277.889L410.93 277.135L406.346 272.99C401.573 268.689 397.397 264.983 395.199 263.068C394.163 262.157 393.566 261.655 393.566 261.655L390.018 260.933L388.228 260.587L375.197 257.95L336.355 250.131L333.529 249.566C329.573 246.206 325.648 243.035 321.849 240.052L329.73 213.676L432.314 215.78L445.439 216.062L444.528 216.408L444.56 216.313Z" fill="url(#paint2_linear_3200_1137)"/>
<path style="mix-blend-mode:multiply" opacity="0.5" fill-rule="evenodd" clip-rule="evenodd" d="M658.802 188.964C658.802 188.964 658.551 189.184 658.425 189.309C658.362 189.341 658.331 189.404 658.268 189.435C643.667 202.592 616.851 222.374 591.826 240.146C585.2 244.856 578.669 249.44 572.546 253.711C562.686 260.556 553.832 266.648 547.049 271.263C545.793 272.111 544.631 272.896 543.532 273.65C537.221 277.952 533.422 280.495 533.422 280.495L524.316 283.666L519.982 285.174L502.964 291.108L500.671 304.453L500.546 305.144H476.839L464.122 296.007L461.359 294.028L474.358 291.925L487.295 267.684L487.546 267.213C487.546 267.213 487.546 267.213 487.515 267.213C486.479 266.773 463.18 257.133 461.359 258.075C460.794 258.389 460.919 257.761 461.359 256.819C462.332 254.653 464.876 250.665 464.876 250.665L533.17 228.088L528.366 213.896L526.828 209.374L569.375 201.43L650.606 186.264L658.833 189.058L658.802 188.964Z" fill="url(#paint3_linear_3200_1137)"/>
<path fill-rule="evenodd" clip-rule="evenodd" d="M401.604 258.044L399.437 259.74L398.244 260.682L395.23 263.037L388.385 268.375V274.498C388.385 274.498 372.559 285.456 369.388 285.142C366.216 284.828 353.217 276.759 351.929 276.759C350.642 276.759 332.587 283.855 331.613 283.227C330.64 282.568 309.885 264.67 305.049 257.573L375.259 257.919L395.732 258.013H401.635L401.604 258.044Z" fill="url(#paint4_linear_3200_1137)"/>
<path style="mix-blend-mode:multiply" opacity="0.5" fill-rule="evenodd" clip-rule="evenodd" d="M398.213 260.683L395.198 263.038L388.353 268.376V274.499C388.353 274.499 372.528 285.457 369.356 285.143C366.185 284.829 353.185 276.759 351.898 276.759C350.61 276.759 332.555 283.856 331.582 283.228L326.307 260.745V259.646L388.259 260.526L392.938 260.588L398.244 260.651L398.213 260.683Z" fill="url(#paint5_linear_3200_1137)"/>
<path fill-rule="evenodd" clip-rule="evenodd" d="M399.437 259.739C399.437 259.739 397.271 260.147 392.938 260.618C392.058 260.713 391.085 260.807 390.049 260.901C381.696 261.686 367.755 262.471 348.381 261.906C339.401 261.655 332.147 261.215 326.338 260.744C310.167 259.394 305.049 257.573 305.049 257.573L336.418 250.099C336.606 250.068 344.425 248.718 362.291 249.628C376.327 250.351 389.515 255.343 395.732 258.044C398.087 259.08 399.469 259.771 399.469 259.771L399.437 259.739Z" fill="url(#paint6_radial_3200_1137)"/>
<path fill-rule="evenodd" clip-rule="evenodd" d="M625.517 241.747C619.677 247.713 603.726 275.157 603.726 275.157L592.265 276.758C573.864 289.663 531.6 304.924 531.6 304.924C531.443 304.641 525.509 294.844 519.951 285.205C515.743 277.888 511.724 270.635 510.625 267.715L513.325 267.118L514.393 266.867L523.907 264.732L551.696 258.452L572.514 253.742L625.486 241.778L625.517 241.747Z" fill="url(#paint7_linear_3200_1137)"/>
<path style="mix-blend-mode:multiply" opacity="0.5" fill-rule="evenodd" clip-rule="evenodd" d="M625.518 241.748C619.677 247.714 603.726 275.126 603.726 275.126L592.265 276.728C573.865 289.633 531.6 304.894 531.6 304.894L524.284 283.636L521.898 276.728L541.523 273.305L547.018 271.233L625.486 241.717L625.518 241.748Z" fill="url(#paint8_linear_3200_1137)"/>
<path fill-rule="evenodd" clip-rule="evenodd" d="M625.517 241.749C625.203 241.938 605.609 254.906 578.731 264.483C566.548 268.847 553.862 271.736 543.563 273.652C530.94 275.975 521.96 276.76 521.96 276.76C522.399 276.635 536.467 273.118 550.031 267.717C550.031 267.717 529.056 270.009 510.656 267.717C510.656 267.717 536.09 253.21 555.495 246.459L560.55 239.426C568.557 239.3 580.584 239.677 591.825 240.211C607.179 240.901 620.995 241.781 620.995 241.781H625.517V241.749Z" fill="url(#paint9_radial_3200_1137)"/>
<path style="mix-blend-mode:multiply" opacity="0.3" fill-rule="evenodd" clip-rule="evenodd" d="M620.995 241.748C620.995 241.748 607.148 240.869 591.825 240.178C580.584 239.676 568.557 239.267 560.55 239.393L555.495 246.427C536.09 253.209 510.656 267.684 510.656 267.684C529.056 269.977 550.031 267.684 550.031 267.684C536.467 273.117 522.399 276.633 521.96 276.728C521.96 276.728 530.972 275.943 543.563 273.619C553.862 271.735 566.548 268.815 578.731 264.45C605.609 254.842 625.203 241.905 625.517 241.717H620.995V241.748ZM551.727 254.214C551.727 254.214 549.686 255.69 547.111 255.69H539.041L551.727 254.214ZM541.585 262.095C541.585 262.095 531.945 263.383 523.938 264.701C520.61 265.267 517.532 265.8 515.586 266.303C518.914 264.701 525.822 261.53 536.278 259.677L551.758 258.453L541.616 262.127L541.585 262.095Z" fill="url(#paint10_linear_3200_1137)"/>
<path fill-rule="evenodd" clip-rule="evenodd" d="M488.393 267.59C435.484 271.609 408.7 254.496 408.7 254.496C416.111 253.523 460.447 255.124 466.916 258.044C473.384 260.964 488.393 267.59 488.393 267.59Z" fill="url(#paint11_radial_3200_1137)"/>
<path fill-rule="evenodd" clip-rule="evenodd" d="M506.072 307.405V307.468V307.562L505.977 307.688L505.82 308.065C504.973 310.106 502.115 316.763 496.777 324.518C490.309 333.876 481.925 347.158 481.925 347.158C479.978 340.124 476.116 334.19 476.116 334.19L472.254 336.921C472.254 336.921 448.39 316.135 442.581 304.925L506.103 307.405H506.072Z" fill="url(#paint12_linear_3200_1137)"/>
<path style="mix-blend-mode:multiply" opacity="0.5" fill-rule="evenodd" clip-rule="evenodd" d="M506.072 307.405V307.468V307.562L505.978 307.688L505.821 308.065C504.973 310.106 502.115 316.762 496.777 324.518C490.309 333.875 481.925 347.158 481.925 347.158C479.978 340.124 476.116 334.189 476.116 334.189L491.691 315.789L488.394 310.357C488.394 310.357 488.394 310.357 488.456 310.357L506.072 307.405Z" fill="url(#paint13_linear_3200_1137)"/>
<path fill-rule="evenodd" clip-rule="evenodd" d="M488.457 310.325H488.394L491.691 315.757C491.691 315.757 456.68 315.443 442.55 304.862C437.055 300.748 437.055 296.07 437.055 296.07C437.055 296.07 450.18 294.814 464.059 295.975C468.11 296.321 472.223 296.855 476.085 297.671C485.725 299.743 494.643 302.475 500.609 304.422C505.224 305.961 508.019 307.028 508.019 307.028C507.36 307.154 506.669 307.279 506.009 307.405C497.217 309.038 489.179 310.168 488.394 310.294L488.457 310.325Z" fill="url(#paint14_radial_3200_1137)"/>
<path style="mix-blend-mode:multiply" opacity="0.3" fill-rule="evenodd" clip-rule="evenodd" d="M399.437 259.739C399.437 259.739 397.271 260.147 392.938 260.618C392.058 260.713 391.085 260.807 390.049 260.901C381.696 261.686 367.755 262.471 348.381 261.906C339.401 261.655 332.147 261.215 326.338 260.744C310.167 259.394 305.049 257.573 305.049 257.573L336.418 250.099C336.606 250.068 344.425 248.718 362.291 249.628C376.327 250.351 389.515 255.343 395.732 258.044C398.087 259.08 399.469 259.771 399.469 259.771L399.437 259.739Z" fill="url(#paint15_linear_3200_1137)"/>
<path style="mix-blend-mode:multiply" opacity="0.3" fill-rule="evenodd" clip-rule="evenodd" d="M488.393 267.591C488.393 267.591 473.353 260.965 466.916 258.045C460.447 255.125 416.142 253.555 408.7 254.497C408.7 254.497 435.484 271.578 488.393 267.591Z" fill="url(#paint16_linear_3200_1137)"/>
<path style="mix-blend-mode:multiply" opacity="0.3" fill-rule="evenodd" clip-rule="evenodd" d="M488.457 310.325H488.394L491.691 315.757C491.691 315.757 456.68 315.443 442.55 304.862C437.055 300.748 437.055 296.07 437.055 296.07C437.055 296.07 450.18 294.814 464.059 295.975C468.11 296.321 472.223 296.855 476.085 297.671C485.725 299.743 494.643 302.475 500.609 304.422C505.224 305.961 508.019 307.028 508.019 307.028C507.36 307.154 506.669 307.279 506.009 307.405C497.217 309.038 489.179 310.168 488.394 310.294L488.457 310.325Z" fill="url(#paint17_linear_3200_1137)"/>
<path fill-rule="evenodd" clip-rule="evenodd" d="M515.586 266.271C513.796 267.151 513.042 267.559 513.356 267.088C513.482 266.868 514.298 266.585 515.586 266.271Z" fill="url(#paint18_linear_3200_1137)"/>
<path style="mix-blend-mode:multiply" opacity="0.5" fill-rule="evenodd" clip-rule="evenodd" d="M658.267 189.436C643.667 202.592 616.851 222.374 591.825 240.147C607.18 240.837 620.996 241.717 620.996 241.717H625.517C619.677 247.683 603.726 275.126 603.726 275.126L592.265 276.728C573.864 289.633 531.6 304.893 531.6 304.893C531.443 304.611 525.508 294.814 519.951 285.174L502.932 291.109L500.64 304.454C505.255 305.992 508.05 307.06 508.05 307.06C507.391 307.186 506.7 307.311 506.04 307.437V307.531L505.946 307.657L505.789 308.033C504.941 310.074 502.084 316.731 496.746 324.487C490.278 333.844 481.894 347.126 481.894 347.126C479.947 340.093 476.085 334.158 476.085 334.158L472.223 336.89C472.223 336.89 448.359 316.103 442.55 304.893C437.055 300.78 437.055 296.101 437.055 296.101C437.055 296.101 450.18 294.845 464.059 296.007L461.295 294.029H428.388C424.777 290.041 418.215 283.793 411.746 277.858L410.93 277.104L406.346 272.96C401.573 268.658 397.397 264.953 395.199 263.037L388.353 268.375V274.498C388.353 274.498 372.528 285.457 369.356 285.143C366.185 284.829 353.185 276.759 351.898 276.759C350.611 276.759 332.556 283.855 331.582 283.227C330.609 282.568 309.853 264.67 305.018 257.574L336.386 250.1L333.56 249.535C329.604 246.175 325.679 243.004 321.88 240.021C296.194 219.831 275.345 208.087 275.031 207.93L432.376 215.749L444.591 216.345L455.078 216.879L569.374 201.399L658.487 189.341L661.031 188.996H661.062C661.062 188.996 660.089 189.184 658.33 189.467L658.267 189.436Z" fill="url(#paint19_linear_3200_1137)"/>
<path style="mix-blend-mode:screen" opacity="0.6" fill-rule="evenodd" clip-rule="evenodd" d="M658.267 189.436C643.667 202.592 616.851 222.374 591.825 240.147C607.18 240.837 620.996 241.717 620.996 241.717H625.517C619.677 247.683 603.726 275.126 603.726 275.126L592.265 276.728C573.864 289.633 531.6 304.893 531.6 304.893C531.443 304.611 525.508 294.814 519.951 285.174L502.932 291.109L500.64 304.454C505.255 305.992 508.05 307.06 508.05 307.06C507.391 307.186 506.7 307.311 506.04 307.437V307.531L505.946 307.657L505.789 308.033C504.941 310.074 502.084 316.731 496.746 324.487C490.278 333.844 481.894 347.126 481.894 347.126C479.947 340.093 476.085 334.158 476.085 334.158L472.223 336.89C472.223 336.89 448.359 316.103 442.55 304.893C437.055 300.78 437.055 296.101 437.055 296.101C437.055 296.101 450.18 294.845 464.059 296.007L461.295 294.029H428.388C424.777 290.041 418.215 283.793 411.746 277.858L410.93 277.104L406.346 272.96C401.573 268.658 397.397 264.953 395.199 263.037L388.353 268.375V274.498C388.353 274.498 372.528 285.457 369.356 285.143C366.185 284.829 353.185 276.759 351.898 276.759C350.611 276.759 332.556 283.855 331.582 283.227C330.609 282.568 309.853 264.67 305.018 257.574L336.386 250.1L333.56 249.535C329.604 246.175 325.679 243.004 321.88 240.021C296.194 219.831 275.345 208.087 275.031 207.93L432.376 215.749L444.591 216.345L455.078 216.879L569.374 201.399L658.487 189.341L661.031 188.996H661.062C661.062 188.996 660.089 189.184 658.33 189.467L658.267 189.436Z" fill="url(#paint20_linear_3200_1137)"/>
<path fill-rule="evenodd" clip-rule="evenodd" d="M661.029 188.965H660.998L633.931 178.979C633.931 178.979 601.935 177.849 557.033 177.566C548.649 177.504 539.826 177.472 530.657 177.504C504.375 177.535 475.393 177.912 446.662 178.948C436.143 179.325 425.655 179.764 415.356 180.33C405.465 180.863 395.7 181.491 386.248 182.214C384.239 182.371 382.261 182.528 380.282 182.685C351.237 185.102 325.238 188.588 306.116 193.486C291.044 197.38 275.532 207.553 275.061 207.867C289.693 213.488 327.75 213.488 327.75 213.488C327.75 213.488 328.472 213.519 329.791 213.582C339.933 214.022 386.123 216.094 437.116 218.669C437.116 218.669 422.264 223.504 413.88 227.712C413.88 227.712 461.671 250.571 464.874 250.634C507.798 251.356 580.426 218.7 580.426 218.7C580.426 218.7 568.902 212.766 531.222 213.268C581.682 202.781 644.513 191.853 658.298 189.467C660.087 189.153 661.029 188.996 661.029 188.996V188.965Z" fill="url(#paint21_radial_3200_1137)"/>
<path fill-rule="evenodd" clip-rule="evenodd" d="M680.655 93.6977C680.498 94.3885 680.184 95.3305 679.713 96.5237C676.259 105.127 665.331 124.752 665.331 124.752L629.567 129.023L568.337 108.864C560.518 98.0309 559.262 80.6353 560.518 78.6257C560.644 78.4373 560.864 78.2489 561.178 78.0605C564.349 76.0823 576.627 73.6017 576.627 73.6017C576.627 73.6017 572.859 66.0343 576.627 60.5079C576.846 60.1939 577.16 59.8485 577.569 59.4403C584.634 52.6579 619.362 33.5982 622.219 34.1006C623.381 34.289 624.511 36.2986 625.516 38.7164C627.118 42.6727 628.279 47.6653 628.279 47.6653C628.279 47.6653 640.117 38.0884 645.424 39.0932C647.088 39.4072 647.528 41.8878 647.276 45.0906C646.805 52.0299 643.383 62.5175 643.383 62.5175C643.383 62.5175 652.206 61.7639 652.457 65.2807C652.457 65.5319 652.426 65.8459 652.3 66.2541C650.825 71.6235 638.579 90.1181 638.327 90.4635C639.364 89.8041 672.396 68.7975 676.855 68.2951C677.169 68.2637 677.42 68.3265 677.64 68.5149C677.986 68.8289 678.174 69.4569 678.237 70.2733C678.331 71.7177 678.048 73.7901 677.577 76.0823C676.227 82.6449 673.338 90.9659 673.338 90.9659C673.338 90.9659 679.65 90.2123 680.655 92.7243C680.717 92.9127 680.717 93.2267 680.623 93.6663L680.655 93.6977Z" fill="url(#paint22_radial_3200_1137)"/>
<g style="mix-blend-mode:soft-light" opacity="0.38">
<path fill-rule="evenodd" clip-rule="evenodd" d="M625.516 38.6851C623.224 49.4867 594.336 73.0053 585.607 70.1479C576.877 67.2905 574.742 63.1457 577.568 59.4091C584.633 52.6267 619.362 33.5669 622.219 34.0693C623.381 34.2577 624.511 36.2673 625.516 38.6851Z" fill="#ECFFB8"/>
</g>
<g style="mix-blend-mode:soft-light" opacity="0.38">
<path fill-rule="evenodd" clip-rule="evenodd" d="M647.276 45.0908C639.897 62.0154 614.683 72.8484 611.323 70.3992C607.964 67.95 618.388 55.704 628.279 47.6656C628.279 47.6656 640.117 38.0886 645.424 39.0934C647.088 39.4074 647.528 41.888 647.276 45.0908Z" fill="#ECFFB8"/>
</g>
<g style="mix-blend-mode:soft-light" opacity="0.38">
<path fill-rule="evenodd" clip-rule="evenodd" d="M652.301 66.2546C645.77 73.9476 616.002 76.2084 614.495 73.8534C612.988 71.4984 634.999 63.931 643.383 62.518C643.383 62.518 652.207 61.7644 652.458 65.2812C652.458 65.5324 652.426 65.8464 652.301 66.2546Z" fill="#ECFFB8"/>
</g>
<g style="mix-blend-mode:soft-light" opacity="0.38">
<path fill-rule="evenodd" clip-rule="evenodd" d="M582.405 79.7245C585.545 90.7459 609.628 85.0311 609.126 81.5457C608.624 78.0603 579.547 69.6451 582.405 79.7245Z" fill="#ECFFB8"/>
</g>
<g style="mix-blend-mode:soft-light" opacity="0.38">
<path fill-rule="evenodd" clip-rule="evenodd" d="M583.408 92.8183C582.56 95.5187 563.249 90.6518 560.486 78.6256C560.517 78.6256 560.737 78.3744 561.145 78.0604C564.317 76.0822 576.594 73.6016 576.594 73.6016C584.57 76.2078 584.224 90.1493 583.408 92.8497V92.8183Z" fill="#ECFFB8"/>
</g>
<g style="mix-blend-mode:soft-light" opacity="0.38">
<path fill-rule="evenodd" clip-rule="evenodd" d="M640.715 112.978C637.827 114.862 657.106 123.654 662.381 116.84C663.543 115.333 645.928 109.618 640.715 112.978Z" fill="#ECFFB8"/>
</g>
<g style="mix-blend-mode:soft-light" opacity="0.38">
<path fill-rule="evenodd" clip-rule="evenodd" d="M680.687 92.756C680.687 93.07 680.687 93.384 680.656 93.698C680.53 94.64 680.216 95.582 679.714 96.524C675.475 104.154 659.053 110.277 655.002 111.156C650.292 112.161 643.227 112.287 643.258 107.294C643.321 98.5964 673.402 90.9976 673.402 90.9976C673.402 90.9976 679.714 90.244 680.719 92.756H680.687Z" fill="#ECFFB8"/>
</g>
<g style="mix-blend-mode:soft-light" opacity="0.38">
<path fill-rule="evenodd" clip-rule="evenodd" d="M677.61 76.1142C676.197 80.6044 672.554 86.0052 664.736 89.6476C650.637 96.2102 639.93 97.7174 638.36 97.215C636.79 96.7126 632.143 96.0532 638.36 90.4954C639.396 89.836 672.429 68.8294 676.887 68.327C677.201 68.2956 677.453 68.3584 677.672 68.5468C677.924 68.8922 678.144 69.5202 678.269 70.3052C678.458 71.7496 678.332 73.822 677.61 76.1142Z" fill="#ECFFB8"/>
</g>
<path style="mix-blend-mode:multiply" opacity="0.5" fill-rule="evenodd" clip-rule="evenodd" d="M583.409 92.8188C584.759 99.6954 583.409 106.729 583.409 106.729L587.711 106.132V108.393L592.578 107.42L594.525 106.384C594.525 106.384 587.837 106.132 585.921 102.427C584.006 98.722 583.66 91.5 583.66 91.5L583.409 92.8502V92.8188Z" fill="url(#paint23_linear_3200_1137)"/>
<path style="mix-blend-mode:multiply" opacity="0.5" fill-rule="evenodd" clip-rule="evenodd" d="M609.127 91.4688C609.033 96.3357 607.086 101.266 607.086 101.266L618.201 97.6231C618.201 97.6231 614.999 98.5965 612.235 95.5821C609.472 92.5677 609.127 91.4688 609.127 91.4688Z" fill="url(#paint24_linear_3200_1137)"/>
<path style="mix-blend-mode:multiply" opacity="0.5" fill-rule="evenodd" clip-rule="evenodd" d="M645.832 78.6574C639.269 89.0822 630.258 94.0748 630.258 94.0748L632.173 93.541L634.183 121.864L635.344 94.9854C635.344 94.9854 635.313 92.9444 638.39 90.4324L645.832 78.626V78.6574Z" fill="url(#paint25_linear_3200_1137)"/>
<path style="mix-blend-mode:multiply" opacity="0.5" fill-rule="evenodd" clip-rule="evenodd" d="M662.38 116.839L662.443 122.302H666.682L668.283 119.382C668.283 119.382 665.269 120.481 663.856 119.382C662.443 118.283 662.443 116.839 662.443 116.839H662.38Z" fill="url(#paint26_linear_3200_1137)"/>
<path style="mix-blend-mode:multiply" opacity="0.5" fill-rule="evenodd" clip-rule="evenodd" d="M639.018 119.038V126.605L634.591 127.673C634.591 127.673 637.543 125.663 638.014 123.371C638.485 121.079 638.987 119.069 638.987 119.069L639.018 119.038Z" fill="url(#paint27_linear_3200_1137)"/>
<path style="mix-blend-mode:multiply" opacity="0.5" fill-rule="evenodd" clip-rule="evenodd" d="M610.665 69.7407C610.853 76.7115 609.126 84.9697 609.126 84.9697C609.126 84.9697 611.984 77.6535 614.087 73.2575C614.087 73.2575 616.128 71.6561 624.198 66.9775C624.198 66.9775 617.102 70.7455 613.554 70.7455C610.916 70.7455 610.665 69.7407 610.665 69.7407Z" fill="url(#paint28_linear_3200_1137)"/>
<path fill-rule="evenodd" clip-rule="evenodd" d="M314.156 155.744C321.566 175.746 321.911 190.912 322.853 191.226C323.827 191.54 398.025 193.487 445.47 187.018L441.263 194.115C441.263 194.115 453.886 198.04 460.951 198.95C470.842 200.238 489.336 197.663 489.336 197.663V195.088C489.336 195.088 510.625 197.569 527.738 197.506C544.851 197.443 566.454 195.716 566.454 195.716L577.287 193.33C577.287 193.33 616.475 187.018 639.365 182.497C639.365 182.497 663.104 146.387 676.197 122.177L631.672 128.457C631.672 128.457 630.196 108.801 628.564 84.78L571.667 108.142V100.888L548.18 104.185L543.909 92.944L466.885 73.79L464.216 91.688L391.148 90.7146C391.148 90.7146 395.984 123.622 403.237 146.858C403.237 146.858 357.739 148.302 340.312 150.72C322.885 153.138 314.124 155.681 314.124 155.681L314.156 155.744Z" fill="url(#paint29_linear_3200_1137)"/>
<path style="mix-blend-mode:multiply" opacity="0.5" fill-rule="evenodd" clip-rule="evenodd" d="M532.291 120.889L533.421 132.821L536.812 133.261L536.278 129.713C536.278 129.713 543.155 127.546 551.759 121.109C560.362 114.672 571.698 103.808 571.698 103.808V100.919L532.291 120.889Z" fill="url(#paint30_linear_3200_1137)"/>
<path style="mix-blend-mode:multiply" opacity="0.5" fill-rule="evenodd" clip-rule="evenodd" d="M581.84 115.552C576.25 121.769 568.086 147.423 568.086 147.423L557.159 157.345V163.468L631.703 128.489L628.751 91.1855L582.75 113.103L581.84 115.521V115.552Z" fill="url(#paint31_linear_3200_1137)"/>
<path style="mix-blend-mode:multiply" opacity="0.5" fill-rule="evenodd" clip-rule="evenodd" d="M486.133 192.889L489.367 197.693L479.036 198.51C488.55 199.044 522.776 199.232 531.474 197.348L479.036 188.085L486.133 192.889Z" fill="url(#paint32_linear_3200_1137)"/>
<path style="mix-blend-mode:multiply" opacity="0.5" fill-rule="evenodd" clip-rule="evenodd" d="M388.384 183.973V191.447C388.384 191.447 407.287 190.442 421.919 188.966L445.909 186.297L445.469 182.372L477.968 178.635L476.147 168.87L370.643 171.256L388.415 183.973H388.384Z" fill="url(#paint33_linear_3200_1137)"/>
<path style="mix-blend-mode:multiply" opacity="0.5" fill-rule="evenodd" clip-rule="evenodd" d="M533.892 152.668L523.875 181.619L531.474 183.66L529.056 178.322L553.8 165.228L614.433 136.905L567.459 151.569L560.551 136.905L533.892 152.668Z" fill="url(#paint34_linear_3200_1137)"/>
<path style="mix-blend-mode:multiply" opacity="0.5" fill-rule="evenodd" clip-rule="evenodd" d="M428.419 130.247C429.989 137.657 431.936 160.265 431.936 160.265L446.286 165.32L445.47 133.481L493.229 130.247L493.103 127.672L424.306 117.436L428.451 130.247H428.419Z" fill="url(#paint35_linear_3200_1137)"/>
<path style="mix-blend-mode:multiply" opacity="0.5" fill-rule="evenodd" clip-rule="evenodd" d="M547.112 179.545C554.523 186.077 567.428 195.968 567.428 195.968L641.972 181.932L676.198 122.209L547.112 179.545Z" fill="url(#paint36_linear_3200_1137)"/>
<path style="mix-blend-mode:multiply" opacity="0.5" fill-rule="evenodd" clip-rule="evenodd" d="M476.148 79.4424C493.261 106.384 517.659 105.065 517.659 105.065L550.221 104.029L545.919 98.1882L476.148 79.4424Z" fill="url(#paint37_linear_3200_1137)"/>
<path fill-rule="evenodd" clip-rule="evenodd" d="M476.148 168.838C467.544 172.292 456.052 176.028 446.663 178.917C437.055 181.869 429.582 183.973 429.582 183.973C425.217 182.685 420.35 181.461 415.357 180.33C395.764 175.84 374.318 172.543 374.318 172.543L386.25 182.214L388.416 183.973C388.416 183.973 385.402 183.627 380.284 182.685C374.883 181.712 367.096 180.079 357.958 177.473C327.406 168.838 314.187 155.744 314.187 155.744C311.675 154.017 312.585 148.334 312.585 148.334C333.718 145.696 403.3 146.921 403.3 146.921C443.366 153.891 476.179 168.869 476.179 168.869L476.148 168.838Z" fill="url(#paint38_radial_3200_1137)"/>
<path fill-rule="evenodd" clip-rule="evenodd" d="M391.148 90.7776C391.148 90.7776 400.63 108.33 408.355 117.373V110.591C408.355 110.591 411.683 120.262 428.419 130.279C428.419 130.279 429.801 123.748 431.026 123.308C434.071 122.209 470.307 128.018 493.543 128.018C493.543 128.018 477.089 117.059 476.116 115.772C475.143 114.485 476.116 106.415 476.116 106.415C476.116 106.415 494.83 118.849 511.598 117.939C528.366 117.028 541.271 114.799 541.271 114.799L532.228 120.922C532.228 120.922 561.022 109.366 571.635 100.951C571.635 100.951 563.282 102.082 547.425 102.396C474.797 103.809 463.839 96.7122 463.839 96.7122L464.184 91.751C464.184 91.751 458.658 89.239 440.917 87.826C423.176 86.413 394.225 89.6472 394.225 89.6472L391.116 90.809L391.148 90.7776Z" fill="url(#paint39_radial_3200_1137)"/>
<path fill-rule="evenodd" clip-rule="evenodd" d="M466.915 73.8231C476.461 81.2021 506.479 94.7355 545.918 98.2209L543.939 93.0085C543.939 93.0085 502.272 72.5357 486.791 71.0599C471.311 69.6155 466.915 71.0599 466.915 71.0599V73.8231Z" fill="url(#paint40_radial_3200_1137)"/>
<path style="mix-blend-mode:multiply" opacity="0.3" fill-rule="evenodd" clip-rule="evenodd" d="M466.915 73.8223C490.748 89.2711 523.875 95.1115 523.875 95.1115C523.875 95.1115 502.272 72.5035 486.792 71.0277C471.311 69.5833 466.915 71.0277 466.915 71.0277V73.7909V73.8223Z" fill="url(#paint41_linear_3200_1137)"/>
<path fill-rule="evenodd" clip-rule="evenodd" d="M561.305 136.434L533.892 152.668C533.892 152.668 514.864 150.344 494.297 146.764C473.887 143.216 451.938 138.443 445.501 133.451C445.501 133.451 493.575 127.956 512.603 130.217C524.818 131.661 541.46 133.796 551.79 135.146C557.537 135.9 561.336 136.402 561.336 136.402L561.305 136.434Z" fill="url(#paint42_radial_3200_1137)"/>
<path fill-rule="evenodd" clip-rule="evenodd" d="M536.246 129.714C536.246 129.714 546.388 128.239 559.262 124.502C579.075 118.787 629.253 92.0973 629.253 92.0973C629.253 92.0973 629.001 87.7641 628.562 84.8125C628.562 84.8125 590.505 95.1117 577.882 102.522C565.259 109.932 536.214 129.683 536.214 129.683L536.246 129.714Z" fill="url(#paint43_radial_3200_1137)"/>
<path fill-rule="evenodd" clip-rule="evenodd" d="M678.426 119.289C676.291 122.115 637.983 159.952 557.002 177.567C553.768 178.258 550.471 178.949 547.111 179.577L529.056 178.352C529.056 178.352 529.59 178.069 530.626 177.504C538.57 173.202 575.214 153.64 605.107 139.761C613.114 136.056 620.65 132.759 627.024 130.279C628.657 129.651 630.227 129.054 631.703 128.52C662.946 117.405 678.457 119.289 678.457 119.289H678.426Z" fill="url(#paint44_radial_3200_1137)"/>
<path fill-rule="evenodd" clip-rule="evenodd" d="M627.024 130.248C626.679 130.405 618.734 134.362 605.107 139.731C599.737 141.835 593.489 144.19 586.487 146.608C570.347 152.166 557.159 157.347 557.159 157.347C562.277 151.852 592.044 126.041 601.025 126.386C610.037 126.7 626.993 130.248 626.993 130.248H627.024Z" fill="url(#paint45_radial_3200_1137)"/>
<path fill-rule="evenodd" clip-rule="evenodd" d="M445.468 182.372C461.294 188.997 486.131 192.922 486.131 192.922L481.578 189.845C481.578 189.845 509.148 195.277 537.753 198.041C555.996 199.83 567.426 196 567.426 196C567.426 196 522.241 177.693 498.691 177.693C475.141 177.693 445.468 182.372 445.468 182.372Z" fill="url(#paint46_radial_3200_1137)"/>
<path style="mix-blend-mode:multiply" opacity="0.3" fill-rule="evenodd" clip-rule="evenodd" d="M477.969 178.604L476.148 168.838C476.148 168.838 378.714 154.331 338.648 147.392C338.648 147.392 333.686 145.696 312.554 148.334C312.554 148.334 311.675 154.049 314.156 155.744C314.156 155.744 327.375 168.838 357.927 177.473C367.065 180.048 374.852 181.681 380.253 182.686C351.208 185.103 325.208 188.589 306.086 193.487C290.763 197.412 275 207.868 275 207.868C289.632 213.489 327.689 213.489 327.689 213.489C327.689 213.489 379.311 215.75 437.055 218.638C437.055 218.638 422.203 223.474 413.819 227.682C413.819 227.682 461.61 250.541 464.813 250.604C507.736 251.326 580.365 218.67 580.365 218.67C580.365 218.67 568.841 212.735 531.161 213.238C588.152 201.369 660.968 188.966 660.968 188.966L634.718 183.345C634.718 183.345 577.256 193.362 567.396 195.968C511.128 175.369 506.669 177.567 477.907 178.604H477.969ZM317.39 152.667L405.467 162.715C405.467 162.715 351.27 172.826 317.39 152.667ZM310.607 203.127L330.86 202.75C330.86 202.75 319.651 206.078 310.607 203.127ZM437.087 230.037L465.095 225.484L457.748 227.996C461.265 227.996 468.016 229.974 468.016 229.974H437.087V230.037ZM486.981 241.749L476.713 240.744C476.713 240.744 488.112 238.389 495.176 240.744L486.981 241.749ZM484.94 222.72L415.515 213.238C424.558 210.003 491.094 213.238 491.094 213.238L444.56 216.346L484.94 222.689V222.72ZM536.656 227.807L511.159 229.88L525.477 227.807H536.656Z" fill="url(#paint47_linear_3200_1137)"/>
<path fill-rule="evenodd" clip-rule="evenodd" d="M488.394 124.5L493.104 127.703C491.88 126.886 488.551 124.657 488.394 124.531V124.5Z" fill="#D9DEF1"/>
<path fill-rule="evenodd" clip-rule="evenodd" d="M355.29 191.602C355.29 191.602 354.159 193.8 347.722 194.46C341.254 195.119 338.365 191.602 338.365 191.602L336.921 191.854L334.817 195.088C334.817 195.088 324.8 198.636 317.076 199.013C309.32 199.39 307.185 199.421 307.185 199.421L300.308 202.718C294.499 203.597 286.492 202.718 286.492 202.718C286.492 202.718 283.541 199.264 282.253 199.013C282.128 199.013 282.065 198.919 282.096 198.793C282.19 197.725 287.717 193.329 293.243 191.854C298.079 190.566 303.323 192.325 305.332 193.11C305.803 193.298 306.086 193.424 306.149 193.455C306.149 193.455 304.861 190.535 305.081 187.52C305.238 185.322 306.211 183.062 309.069 181.837C315.663 179.011 333.278 173.736 336.293 175.243C336.293 175.243 336.45 175.337 336.512 175.369C338.773 177.316 337.8 189.875 337.8 189.875C337.8 189.875 338.114 188.745 338.742 187.206C339.621 185.008 341.065 181.963 342.981 180.361C346.089 177.724 351.584 181.806 353.72 182.685C353.814 182.716 353.877 182.748 353.971 182.779C355.918 183.438 355.415 191.54 355.415 191.54L355.29 191.602Z" fill="url(#paint48_radial_3200_1137)"/>
<g style="mix-blend-mode:soft-light" opacity="0.38">
<path fill-rule="evenodd" clip-rule="evenodd" d="M282.033 198.825C282.127 197.758 287.653 193.362 293.18 191.886C298.015 190.599 303.259 192.357 305.269 193.142C305.583 193.299 305.865 193.425 306.085 193.487C309.288 194.649 290.071 201.494 282.033 198.794V198.825Z" fill="#ECFFB8"/>
</g>
<g style="mix-blend-mode:soft-light" opacity="0.38">
<path fill-rule="evenodd" clip-rule="evenodd" d="M313.903 191.351C306.587 194.114 305.896 193.361 305.017 187.583C305.174 185.385 306.147 183.124 309.005 181.9C315.599 179.074 333.214 173.798 336.228 175.306C338.238 181.083 321.627 188.431 313.934 191.351H313.903Z" fill="#ECFFB8"/>
</g>
<g style="mix-blend-mode:soft-light" opacity="0.38">
<path fill-rule="evenodd" clip-rule="evenodd" d="M338.646 187.3C339.525 185.102 340.97 182.057 342.885 180.455C345.994 177.818 351.489 181.9 353.624 182.779C354.064 191.288 341.095 189.53 338.646 187.3Z" fill="#ECFFB8"/>
</g>
<path style="mix-blend-mode:multiply" opacity="0.5" fill-rule="evenodd" clip-rule="evenodd" d="M300.276 202.749C307.058 197.914 306.085 193.486 306.085 193.486C306.085 193.486 307.058 195.59 307.153 199.421L300.276 202.718V202.749Z" fill="url(#paint49_linear_3200_1137)"/>
<path style="mix-blend-mode:multiply" opacity="0.5" fill-rule="evenodd" clip-rule="evenodd" d="M334.816 195.119C334.816 195.119 338.459 184.6 337.391 177.473C337.391 177.473 338.427 182.748 337.737 189.938L338.553 187.583C338.553 187.583 338.113 190.221 340.845 193.361C340.845 193.361 339.244 192.67 338.396 191.603L336.952 191.854C336.952 191.854 335.256 194.429 334.848 195.088L334.816 195.119Z" fill="url(#paint50_linear_3200_1137)"/>
<path style="mix-blend-mode:multiply" opacity="0.3" fill-rule="evenodd" clip-rule="evenodd" d="M476.147 106.383C491.219 101.359 505.286 102.552 505.286 102.552C505.286 102.552 480.103 101.171 463.932 96.6807L464.278 91.7195C464.278 91.7195 445.815 86.5071 426.472 87.4805C426.472 87.4805 461.295 112.82 482.929 120.764L476.147 115.74V106.383Z" fill="url(#paint51_linear_3200_1137)"/>
<path style="mix-blend-mode:multiply" opacity="0.3" fill-rule="evenodd" clip-rule="evenodd" d="M561.305 136.432C561.305 136.432 557.506 135.929 551.76 135.176L494.266 146.794C514.833 150.373 533.862 152.697 533.862 152.697L561.274 136.463L561.305 136.432Z" fill="url(#paint52_linear_3200_1137)"/>
<path style="mix-blend-mode:multiply" opacity="0.5" fill-rule="evenodd" clip-rule="evenodd" d="M518.946 150.657C514.456 150.657 491.252 146.669 455.864 138.16C455.361 138.034 454.137 160.265 454.137 160.265L476.148 168.838L477.969 178.603L504.408 177.692L523.845 181.617C523.845 181.617 535.369 191.634 548.933 193.487C562.498 195.339 566.455 195.779 566.455 195.779C566.455 195.779 633.65 183.219 634.718 183.376C635.817 183.533 643.761 180.456 643.761 180.456C643.761 180.456 676.449 123.716 678.395 119.32C678.395 119.32 658.237 117.279 631.641 128.551L628.532 84.874C628.532 84.874 581.715 115.301 566.831 121.926L565.764 149.401L591.135 130.31H626.931C626.931 130.31 601.717 142.901 571.196 144.817L565.764 149.401L561.242 136.464L551.916 126.51L536.185 129.776L538.132 133.513L558.542 136.967C558.542 136.967 532.951 150.845 518.852 150.751L518.946 150.657Z" fill="url(#paint53_linear_3200_1137)"/>
<path style="mix-blend-mode:multiply" opacity="0.5" fill-rule="evenodd" clip-rule="evenodd" d="M522.935 117.091L521.961 131.409L502.116 148.114L493.576 128.018L482.115 120.796L483.622 110.654C483.622 110.654 504.691 116.306 527.802 108.424C532.512 106.823 547.489 102.427 547.489 102.427L522.935 117.153V117.091Z" fill="url(#paint54_linear_3200_1137)"/>
<path fill-rule="evenodd" clip-rule="evenodd" d="M421.919 188.967C421.919 188.967 333.215 208.78 331.205 213.679C331.205 213.679 331.205 213.679 331.205 213.71C331.205 213.71 331.205 213.71 331.205 213.773C331.205 213.773 331.205 213.773 331.205 213.804C329.384 220.398 336.417 324.489 336.417 324.489L360.564 329.607C360.564 329.607 358.115 309.794 362.479 285.114C362.479 285.114 367.974 321.098 365.556 343.361L374.757 340.472C374.757 340.472 375.039 261.878 379.875 214.464C379.875 214.464 387.222 212.171 392.843 216.819L396.548 336.609L399.437 335.165C399.437 335.165 404.273 223.884 405.529 217.698C406.188 214.464 441.356 194.148 441.356 194.148L446.003 186.298C446.003 186.298 425.059 189.124 422.014 188.967H421.919ZM335.946 218.2C336.512 216.096 337.83 277.075 337.83 277.075C337.83 277.075 333.529 227.055 335.946 218.2ZM349.166 319.34L347.188 220.492C350.422 225.014 355.352 221.12 355.352 222.847C355.352 224.669 349.166 319.308 349.166 319.308V319.34Z" fill="#D9DEF1"/>
<path fill-rule="evenodd" clip-rule="evenodd" d="M564.601 101.926C558.855 102.68 547.457 102.366 547.457 102.366C538.791 104.156 518.569 115.02 518.569 115.679C518.569 115.836 518.569 116.684 518.569 117.94C518.569 118.034 518.569 118.129 518.569 118.191L518.663 123.843V124.471C518.726 127.203 518.757 129.715 518.757 130.657V130.971C518.757 132.039 503.497 145.541 502.21 147.55C502.147 147.645 502.084 147.833 502.053 148.084C501.268 152.417 504.376 177.663 504.376 177.663H500.451L499.823 147.707V146.608C499.823 146.608 501.079 135.273 477.906 143.782C477.906 143.782 477.875 143.782 477.843 143.782C476.053 144.442 481.391 178.322 481.391 178.322L477.906 178.573L476.085 168.808L469.302 166.641C469.302 166.641 468.643 142.809 466.853 143.782C465.032 144.756 464.341 164.004 464.341 164.004L457.684 161.523L459.192 139.167L493.198 130.218L493.512 127.957L496.212 128.051L507.83 128.899L508.584 117.877C508.584 117.877 500.074 109.211 488.362 112.665C488.362 112.665 488.205 123.812 488.362 124.44L484.94 122.116L485.254 109.87C485.254 109.87 499.007 103.088 509.997 100.859C520.987 98.5978 564.57 101.895 564.57 101.895L564.601 101.926Z" fill="#D9DEF1"/>
<path fill-rule="evenodd" clip-rule="evenodd" d="M549.906 134.928C551.319 135.116 553.077 135.336 554.742 135.587L549.906 134.959V134.928Z" fill="#D9DEF1"/>
<path fill-rule="evenodd" clip-rule="evenodd" d="M547.394 127.391L549.906 134.927C548.43 134.739 547.331 134.613 547.08 134.582C546.232 134.488 541.585 133.86 541.585 133.86C541.585 133.86 543.28 128.898 543.594 128.176C543.908 127.454 564.57 109.462 571.697 103.778C572.42 103.182 577.946 102.522 577.946 102.522C559.608 115.271 547.394 127.36 547.394 127.36V127.391Z" fill="#D9DEF1"/>
<path fill-rule="evenodd" clip-rule="evenodd" d="M630.603 364.147L627.118 363.582C627.118 363.582 628.562 198.732 626.647 195.121C626.552 194.964 626.458 194.807 626.333 194.681C623.632 191.761 612.391 194.179 612.768 196.754C612.768 196.911 612.831 197.162 612.831 197.539C613.239 203.536 613.867 236.004 613.459 241.719C613.459 241.719 613.459 241.719 613.459 241.75C613.364 242.943 596.251 251.829 590.882 255.692C575.873 266.525 568.714 267.529 568.368 270.418C568.054 273.307 566.641 356.705 566.641 356.705H549.968C549.968 356.705 551.255 312.243 549.654 309.668C548.052 307.093 545.132 357.302 545.132 357.302L541.898 356.705C541.898 356.705 541.898 284.799 542.62 275.128C542.652 274.657 542.683 274.343 542.714 274.186C543.468 270.952 587.868 246.837 597.445 240.274C598.418 239.615 599.015 239.112 599.203 238.861C601.15 235.972 597.382 205.263 596.754 202.783C596.094 200.302 573.643 196.409 571.916 194.179C570.189 191.95 566.327 175.402 566.327 175.402C566.327 175.402 553.076 165.605 553.736 165.26C554.395 164.914 555.243 159.765 555.117 158.791C554.898 156.75 562.12 153.705 563.187 149.403C564.255 145.101 561.523 137.848 560.487 136.937C560.016 136.529 557.441 136.026 554.678 135.618L561.24 136.466L565.762 149.403L557.096 157.41V163.533C557.096 163.533 575.841 169.248 588.558 169.122V187.774C588.558 187.774 626.866 192.295 630.352 194.179C630.446 194.242 630.509 194.273 630.54 194.305C632.236 196.095 630.54 364.147 630.54 364.147H630.603Z" fill="#D9DEF1"/>
<path style="mix-blend-mode:multiply" opacity="0.5" fill-rule="evenodd" clip-rule="evenodd" d="M347.188 218.138C342.039 218.357 335.57 215.783 331.237 213.679C331.237 213.679 331.237 213.679 331.237 213.71C331.237 213.71 331.237 213.71 331.237 213.773C331.237 213.773 331.237 213.773 331.237 213.804C329.416 220.398 336.45 324.489 336.45 324.489L360.596 329.607C360.596 329.607 358.147 309.794 362.512 285.114C362.512 285.114 368.007 321.098 365.589 343.361L374.789 340.472C374.789 340.472 375.072 261.878 379.907 214.464C379.907 214.464 352.432 217.918 347.251 218.106L347.188 218.138ZM349.167 319.34L347.188 220.492C350.423 225.014 355.352 221.12 355.352 222.847C355.352 224.669 349.167 319.308 349.167 319.308V319.34Z" fill="url(#paint55_linear_3200_1137)"/>
<path style="mix-blend-mode:multiply" opacity="0.5" fill-rule="evenodd" clip-rule="evenodd" d="M405.466 217.698C404.242 223.883 399.375 335.165 399.375 335.165L396.486 336.609L392.781 216.818L405.466 217.666V217.698Z" fill="url(#paint56_linear_3200_1137)"/>
<path style="mix-blend-mode:multiply" opacity="0.5" fill-rule="evenodd" clip-rule="evenodd" d="M542.684 275.128C542.684 275.128 554.961 273.464 568.4 270.418C568.086 273.307 566.673 356.705 566.673 356.705H550C550 356.705 551.288 312.243 549.686 309.668C548.085 307.093 545.165 357.302 545.165 357.302L541.93 356.705C541.93 356.705 541.93 284.799 542.652 275.128H542.684Z" fill="url(#paint57_linear_3200_1137)"/>
<path style="mix-blend-mode:multiply" opacity="0.5" fill-rule="evenodd" clip-rule="evenodd" d="M613.491 241.719L606.175 241.593L597.665 240.808C597.665 240.808 597.603 240.62 597.508 240.274C598.482 239.615 599.078 239.113 599.267 238.861C601.214 235.973 597.446 205.263 596.818 202.783C600.931 201.056 606.771 199.172 612.863 197.539C613.271 203.536 613.899 236.004 613.491 241.719Z" fill="url(#paint58_linear_3200_1137)"/>
<path style="mix-blend-mode:multiply" opacity="0.5" fill-rule="evenodd" clip-rule="evenodd" d="M630.604 364.148L627.119 363.583C627.119 363.583 628.563 198.733 626.648 195.122C626.553 194.965 626.459 194.808 626.334 194.682C627.747 194.462 629.128 194.305 630.416 194.18C630.51 194.242 630.573 194.274 630.604 194.305C632.3 196.095 630.604 364.148 630.604 364.148Z" fill="url(#paint59_linear_3200_1137)"/>
<path style="mix-blend-mode:multiply" opacity="0.5" fill-rule="evenodd" clip-rule="evenodd" d="M588.59 169.781C579.044 173.015 566.359 175.37 566.359 175.37C566.359 175.37 569.028 190.599 571.948 194.148L588.59 187.742V169.781Z" fill="url(#paint60_linear_3200_1137)"/>
<path style="mix-blend-mode:multiply" opacity="0.5" fill-rule="evenodd" clip-rule="evenodd" d="M488.393 112.727C488.393 112.727 488.236 123.874 488.393 124.502L484.97 122.179L485.284 109.933C487.263 112.507 488.393 112.727 488.393 112.727Z" fill="url(#paint61_linear_3200_1137)"/>
<path fill-rule="evenodd" clip-rule="evenodd" d="M496.243 128.114L507.861 128.962L493.543 127.988L496.243 128.114Z" fill="url(#paint62_linear_3200_1137)"/>
<path style="mix-blend-mode:multiply" opacity="0.5" fill-rule="evenodd" clip-rule="evenodd" d="M518.819 131.003L507.861 128.962L508.614 117.94H518.631V118.223L518.725 123.875V124.503L518.819 130.689V131.003Z" fill="url(#paint63_linear_3200_1137)"/>
<path style="mix-blend-mode:multiply" opacity="0.5" fill-rule="evenodd" clip-rule="evenodd" d="M481.454 178.353L477.969 178.604L476.147 168.839L469.365 166.672C469.365 166.672 468.706 142.84 466.916 143.813C465.095 144.786 464.404 164.035 464.404 164.035L457.747 161.554L459.254 139.197C461.955 140.422 469.648 142.149 477.969 143.782C477.969 143.782 477.937 143.782 477.906 143.782C476.116 144.441 481.454 178.322 481.454 178.322V178.353Z" fill="url(#paint64_linear_3200_1137)"/>
<path fill-rule="evenodd" clip-rule="evenodd" d="M504.407 177.694H500.482L499.854 147.738C500.67 147.864 501.424 147.989 502.083 148.115C501.298 152.448 504.407 177.694 504.407 177.694Z" fill="url(#paint65_linear_3200_1137)"/>
<path style="mix-blend-mode:multiply" opacity="0.5" fill-rule="evenodd" clip-rule="evenodd" d="M573.173 194.147C592.108 196.816 601.528 198.826 603.726 200.208C605.924 201.558 599.581 237.762 599.581 237.762C599.581 237.762 591.228 210.444 589.407 201.495L571.258 194.681L573.173 194.147Z" fill="url(#paint66_linear_3200_1137)"/>
<path style="mix-blend-mode:multiply" opacity="0.5" fill-rule="evenodd" clip-rule="evenodd" d="M398.213 200.49C396.423 200.49 360.125 216.85 360.125 216.85V318.366C360.125 318.366 361.757 286.558 362.417 285.145C363.076 283.732 364.583 217.226 364.583 217.226L398.213 200.49Z" fill="url(#paint67_linear_3200_1137)"/>
<path style="mix-blend-mode:multiply" opacity="0.5" fill-rule="evenodd" clip-rule="evenodd" d="M382.858 198.136L336.386 215.908C336.386 215.908 335.915 214.338 335.193 222.691C334.471 231.043 340.782 325.463 340.782 325.463L336.355 324.521C336.355 324.521 328.442 218.891 331.174 213.679C331.645 212.768 382.795 198.136 382.795 198.136H382.858Z" fill="url(#paint68_linear_3200_1137)"/>
<path style="mix-blend-mode:multiply" opacity="0.5" fill-rule="evenodd" clip-rule="evenodd" d="M505.82 133.263C484.845 136.246 472.473 142.683 472.473 142.683L480.198 178.604L481.485 178.353C481.485 178.353 475.645 143.844 480.512 141.395C490.12 136.56 505.851 133.263 505.851 133.263H505.82Z" fill="url(#paint69_linear_3200_1137)"/>
<path style="mix-blend-mode:multiply" opacity="0.5" fill-rule="evenodd" clip-rule="evenodd" d="M581.494 171.917C584.289 181.086 582.782 190.003 582.782 190.003C582.782 190.003 583.661 174.398 580.584 173.393C577.538 172.388 573.205 194.148 573.205 194.148C573.205 194.148 575.685 174.994 576.533 173.173C576.784 172.639 581.494 171.917 581.494 171.917Z" fill="url(#paint70_linear_3200_1137)"/>
<path style="mix-blend-mode:multiply" opacity="0.5" fill-rule="evenodd" clip-rule="evenodd" d="M508.113 108.236C501.079 109.838 494.265 111.722 494.265 111.722C494.265 111.722 500.859 109.995 508.113 108.236Z" fill="url(#paint71_linear_3200_1137)"/>
<path style="mix-blend-mode:multiply" opacity="0.5" fill-rule="evenodd" clip-rule="evenodd" d="M526.293 104.782C524.597 104.436 515.994 106.352 508.112 108.236C514.581 106.76 521.206 106.509 522.902 106.069C530.72 104.06 511.472 117.499 511.095 117.938C511.095 117.938 510.404 124.124 510.687 129.713H511.127C511.127 129.713 510.122 118.723 513.105 119.163C514.706 119.383 515.648 130.624 515.648 130.624H516.747C515.397 126.354 514.424 119.54 514.078 117.938C519.573 109.963 529.307 105.378 526.261 104.782H526.293Z" fill="url(#paint72_linear_3200_1137)"/>
<path fill-rule="evenodd" clip-rule="evenodd" d="M495.71 128.145C496.683 126.01 498.505 128.49 498.505 128.49C498.505 128.49 505.852 126.638 504.439 128.961C504.439 128.961 509.369 125.79 511.19 125.727C513.011 125.664 514.801 129.684 514.801 129.684C514.801 129.684 516.214 128.208 517.502 128.993C518.82 129.778 518.82 130.971 518.82 130.971C518.82 130.971 495.302 128.93 495.679 128.114L495.71 128.145Z" fill="url(#paint73_linear_3200_1137)"/>
<path fill-rule="evenodd" clip-rule="evenodd" d="M571.29 194.713C574.242 189.312 575.31 192.233 575.31 192.233C575.31 192.233 575.529 187.397 576.723 187.617C577.916 187.837 576.723 192.013 576.723 192.013C576.723 192.013 578.544 189.689 579.737 189.846C579.737 189.846 579.423 187.617 580.585 187.617C581.778 187.617 585.044 189.187 585.044 189.187C585.044 189.187 586.928 185.701 589.188 186.235C589.188 186.235 591.575 184.634 592.108 185.168C592.642 185.701 593.176 188.37 592.862 188.308C592.548 188.276 571.29 194.745 571.29 194.745V194.713Z" fill="url(#paint74_linear_3200_1137)"/>
<path fill-rule="evenodd" clip-rule="evenodd" d="M593.521 242.788C593.898 237.701 597.666 240.778 597.666 240.778C597.666 240.778 598.639 237.481 600.68 237.764C602.721 238.046 605.202 241.5 605.202 241.5C605.202 241.5 608.185 239.302 610.351 240.276C610.351 240.276 610.571 237.073 612.078 237.764C613.586 238.454 615.187 241.751 615.187 241.751L593.521 242.819V242.788Z" fill="url(#paint75_linear_3200_1137)"/>
<path fill-rule="evenodd" clip-rule="evenodd" d="M661.03 188.965C661.03 188.965 650.7 190.88 645.236 188.965L642.661 185.479C642.661 185.479 639.521 185.134 634.78 183.344C634.78 183.344 631.483 178.791 631.483 174.835C631.483 174.27 631.546 173.704 631.703 173.171C632.959 168.963 648.816 158.13 656.54 155.649C663.48 153.42 669.917 151.63 671.141 153.389C671.298 153.577 671.361 153.828 671.361 154.111C671.361 157 664.893 171.538 664.893 171.538C664.893 171.538 672.648 172.009 673.276 174.992C673.936 177.975 661.03 188.933 661.03 188.933V188.965Z" fill="url(#paint76_radial_3200_1137)"/>
<g style="mix-blend-mode:soft-light" opacity="0.38">
<path fill-rule="evenodd" clip-rule="evenodd" d="M671.141 153.389C671.141 153.546 671.141 153.703 671.11 153.891C670.136 159.355 647.152 178.854 631.483 174.835C631.483 174.27 631.546 173.704 631.703 173.171C632.959 168.963 648.816 158.13 656.54 155.649C663.48 153.42 669.917 151.63 671.141 153.389Z" fill="#ECFFB8"/>
</g>
<g style="mix-blend-mode:soft-light" opacity="0.38">
<path fill-rule="evenodd" clip-rule="evenodd" d="M673.276 175.023C672.302 178.822 648.878 185.573 643.791 179.544C642.504 178.037 664.86 171.537 664.86 171.537C664.86 171.537 672.616 172.008 673.244 174.991L673.276 175.023Z" fill="#ECFFB8"/>
</g>
<path style="mix-blend-mode:multiply" opacity="0.5" fill-rule="evenodd" clip-rule="evenodd" d="M643.823 179.545C643.289 182.088 642.63 185.48 642.63 185.48L645.204 188.965C645.204 188.965 647.12 189.656 649.286 189.719C649.286 189.719 644.796 189.216 644.137 185.197C643.477 181.178 643.823 179.545 643.823 179.545Z" fill="url(#paint77_linear_3200_1137)"/>
</g>
<path fill-rule="evenodd" clip-rule="evenodd" d="M529.023 31.8078C529.023 31.8078 555.933 34.5082 570.816 33.8488L567.394 31.8078C567.394 31.8078 567.645 13.062 558.351 12.0572C546.89 10.8326 537.689 29.6726 537.689 29.6726C537.689 29.6726 535.617 22.8902 531.19 24.8056C526.762 26.721 528.992 31.8392 528.992 31.8392L529.023 31.8078Z" fill="url(#paint78_linear_3200_1137)"/>
<path fill-rule="evenodd" clip-rule="evenodd" d="M529.024 31.8085C533.891 31.0235 538.067 30.8037 538.067 30.8037L536.937 31.3061C536.937 31.3061 560.047 31.4317 570.849 33.8495C570.849 33.8495 562.371 34.1635 547.142 33.2843C531.913 32.4051 529.055 31.8399 529.055 31.8399L529.024 31.8085Z" fill="url(#paint79_linear_3200_1137)"/>
<path fill-rule="evenodd" clip-rule="evenodd" d="M538.035 30.8034C538.035 30.8034 537.156 23.8954 532.571 24.4606C527.987 24.9944 527.924 28.6996 529.023 31.8082L538.066 30.8034H538.035Z" fill="url(#paint80_linear_3200_1137)"/>
<path fill-rule="evenodd" clip-rule="evenodd" d="M473.257 375.574C473.257 375.574 510.968 376.422 520.451 374.695C520.451 374.695 514.453 372.151 513.166 371.523C511.879 370.895 507.106 355.227 495.99 358.712C484.875 362.198 481.326 372.654 481.326 372.654C481.326 372.654 475.517 368.98 473.288 375.574H473.257Z" fill="url(#paint81_linear_3200_1137)"/>
<path fill-rule="evenodd" clip-rule="evenodd" d="M480.447 372.213C479.191 375.699 473.853 374.16 473.853 374.16L473.256 375.573C473.256 375.573 510.403 376.923 519.666 374.819L513.166 371.522L514.108 373.752C514.108 373.752 500.983 375.604 482.802 373.752L481.295 372.621L480.447 372.182V372.213Z" fill="url(#paint82_linear_3200_1137)"/>
<path fill-rule="evenodd" clip-rule="evenodd" d="M508.551 55.201C508.551 55.201 508.362 55.3266 508.08 55.4208H508.017C505.913 56.2058 496.838 58.6864 465.187 60.2564C431.778 61.8892 408.981 63.4592 392.496 58.4352C392.496 58.4352 396.735 51.1504 401.131 50.1456C405.527 49.1722 407.129 54.8556 407.129 54.8556C417.742 37.146 429.831 17.2071 454.543 16.9245C471.436 16.7361 473.54 33.0641 473.54 33.0641C473.54 33.0641 482.206 34.6026 483.996 37.146C487.827 42.5468 485.817 49.8944 485.817 49.8944L508.551 55.201Z" fill="url(#paint83_linear_3200_1137)"/>
<path fill-rule="evenodd" clip-rule="evenodd" d="M508.551 55.201L508.08 55.4208H508.017C505.913 56.2058 496.838 58.6864 465.187 60.2564C431.778 61.8892 408.981 63.4592 392.496 58.4353C404.146 55.8605 442.454 58.8121 443.333 58.8749C443.019 58.8435 437.744 58.2783 434.07 57.3049C434.07 57.3049 454.794 50.3027 482.834 54.0706L479.035 56.7397C479.035 56.7397 499.853 56.6141 508.551 55.2325V55.201Z" fill="url(#paint84_linear_3200_1137)"/>
<path fill-rule="evenodd" clip-rule="evenodd" d="M434.07 57.3049C439.283 51.4017 451.56 35.4191 473.54 33.0955C495.52 30.7406 486.634 51.4331 482.835 54.0707C482.835 54.0707 479.695 52.4065 461.985 53.0345C444.275 53.6311 434.07 57.3049 434.07 57.3049Z" fill="url(#paint85_linear_3200_1137)"/>
<path fill-rule="evenodd" clip-rule="evenodd" d="M320.403 336.86C333.748 345.401 398.118 343.423 415.231 340.691L405.654 335.133C405.654 335.133 414.477 316.921 399.436 301.567C390.236 292.209 364.08 323.233 364.08 323.233C364.08 323.233 356.23 318.774 349.856 319.151C343.45 319.527 336.95 324.583 336.95 324.583C336.95 324.583 333.339 322.667 330.419 323.17C327.499 323.672 325.018 334.537 325.018 334.537L320.465 336.86H320.403Z" fill="url(#paint86_linear_3200_1137)"/>
<path fill-rule="evenodd" clip-rule="evenodd" d="M320.403 336.86C323.919 335.039 339.054 332.872 352.085 334.317L345.617 336.86C345.617 336.86 357.769 336.326 369.983 336.86L359.087 333.846C359.087 333.846 381.633 331.899 405.622 335.133L386.971 338.022C386.971 338.022 403.801 338.995 415.231 340.691C415.231 340.691 405.559 343.36 366.498 343.36C327.436 343.36 320.403 336.829 320.403 336.829V336.86Z" fill="url(#paint87_linear_3200_1137)"/>
<path fill-rule="evenodd" clip-rule="evenodd" d="M359.119 333.878C365.273 314.033 382.606 296.103 395.7 298.867C408.794 301.598 411.274 328.069 405.654 335.165C405.654 335.165 401.069 333.878 381.444 333.375C361.819 332.904 359.119 333.878 359.119 333.878Z" fill="url(#paint88_linear_3200_1137)"/>
<path fill-rule="evenodd" clip-rule="evenodd" d="M352.085 334.349C350.138 329.984 335.977 319.465 330.356 323.202C324.736 326.938 324.956 334.568 324.956 334.568L320.403 336.892C320.403 336.892 327.939 334.694 337.484 333.878C347.03 333.061 352.085 334.349 352.085 334.349Z" fill="url(#paint89_linear_3200_1137)"/>
<path fill-rule="evenodd" clip-rule="evenodd" d="M519.792 360.755C519.792 360.755 593.205 370.677 634.622 363.769L623.82 360.755C623.82 360.755 621.528 329.48 612.171 326.497C602.814 323.514 590.285 336.074 590.285 336.074C590.285 336.074 580.865 329.543 570.22 329.292C561.617 329.072 557.252 341.381 557.252 341.381C557.252 341.381 544.724 336.545 535.806 355.668L539.26 359.31L519.729 360.755H519.792Z" fill="url(#paint90_linear_3200_1137)"/>
<path fill-rule="evenodd" clip-rule="evenodd" d="M535.838 355.666C555.337 352.715 570.849 355.133 570.849 355.133L562.245 358.367C562.245 358.367 577.191 359.026 587.428 358.367L576.752 352.715C576.752 352.715 607.147 354.662 621.842 357.707C630.571 359.529 634.591 363.768 634.591 363.768C634.591 363.768 603.442 371.523 519.761 360.753L539.292 359.309L535.838 355.666Z" fill="url(#paint91_linear_3200_1137)"/>
<path fill-rule="evenodd" clip-rule="evenodd" d="M570.881 355.165C570.787 350.329 562.403 338.397 550.565 341.223C538.727 344.049 535.87 355.699 535.87 355.699C535.87 355.699 542.213 354.474 554.396 354.223C568.966 353.909 570.912 355.196 570.912 355.196L570.881 355.165Z" fill="url(#paint92_linear_3200_1137)"/>
<path fill-rule="evenodd" clip-rule="evenodd" d="M576.783 352.747C576.783 352.747 593.456 323.545 609.376 325.335C625.296 327.125 634.621 363.8 634.621 363.8C634.621 363.8 618.702 355.699 576.783 352.747Z" fill="url(#paint93_linear_3200_1137)"/>
</g>
<g filter="url(#filter3_d_3200_1137)">
<path d="M130.062 316.805C130.062 319.93 129.496 322.918 128.363 325.77C127.23 328.582 125.727 331.238 123.852 333.738C122.016 336.199 119.906 338.484 117.523 340.594C115.18 342.664 112.797 344.539 110.375 346.219H128.891L127.484 370.594L72.6406 368.719V347.391C74.7109 346.688 76.8789 345.848 79.1445 344.871C81.4492 343.855 83.6953 342.703 85.8828 341.414C88.1094 340.125 90.1992 338.68 92.1523 337.078C94.1445 335.477 95.8828 333.738 97.3672 331.863C98.8906 329.949 100.082 327.879 100.941 325.652C101.84 323.426 102.289 321.023 102.289 318.445C102.289 316.961 102.016 315.652 101.469 314.52C100.961 313.387 100.238 312.449 99.3008 311.707C98.3633 310.926 97.2695 310.359 96.0195 310.008C94.8086 309.617 93.5 309.422 92.0938 309.422C90.9219 309.422 89.7305 309.559 88.5195 309.832C87.3086 310.066 86.1172 310.418 84.9453 310.887C83.7734 311.355 82.6602 311.941 81.6055 312.645C80.5898 313.309 79.6719 314.07 78.8516 314.93L73.6953 291.961C75.1406 290.516 76.8008 289.305 78.6758 288.328C80.5508 287.352 82.5234 286.57 84.5938 285.984C86.6641 285.359 88.7734 284.91 90.9219 284.637C93.0703 284.363 95.1797 284.227 97.25 284.227C101.859 284.227 106.156 285.066 110.141 286.746C114.125 288.387 117.582 290.672 120.512 293.602C123.48 296.492 125.805 299.93 127.484 303.914C129.203 307.898 130.062 312.195 130.062 316.805ZM220.255 289.852L198.809 369.07L169.747 370.711L143.38 294.188L171.153 291.609L182.403 336.141L193.302 288.094L220.255 289.852ZM292.048 316.805C292.048 319.93 291.482 322.918 290.349 325.77C289.216 328.582 287.712 331.238 285.837 333.738C284.002 336.199 281.892 338.484 279.509 340.594C277.166 342.664 274.783 344.539 272.361 346.219H290.877L289.47 370.594L234.627 368.719V347.391C236.697 346.688 238.865 345.848 241.13 344.871C243.435 343.855 245.681 342.703 247.869 341.414C250.095 340.125 252.185 338.68 254.138 337.078C256.13 335.477 257.869 333.738 259.353 331.863C260.877 329.949 262.068 327.879 262.927 325.652C263.826 323.426 264.275 321.023 264.275 318.445C264.275 316.961 264.002 315.652 263.455 314.52C262.947 313.387 262.224 312.449 261.287 311.707C260.349 310.926 259.255 310.359 258.005 310.008C256.795 309.617 255.486 309.422 254.08 309.422C252.908 309.422 251.716 309.559 250.505 309.832C249.295 310.066 248.103 310.418 246.931 310.887C245.759 311.355 244.646 311.941 243.591 312.645C242.576 313.309 241.658 314.07 240.837 314.93L235.681 291.961C237.127 290.516 238.787 289.305 240.662 288.328C242.537 287.352 244.509 286.57 246.58 285.984C248.65 285.359 250.759 284.91 252.908 284.637C255.056 284.363 257.166 284.227 259.236 284.227C263.845 284.227 268.142 285.066 272.127 286.746C276.111 288.387 279.568 290.672 282.498 293.602C285.466 296.492 287.791 299.93 289.47 303.914C291.189 307.898 292.048 312.195 292.048 316.805Z" fill="white"/>
</g>
<defs>
<filter id="filter0_d_3200_1137" x="0.9" y="63.9" width="672.2" height="381.309" filterUnits="userSpaceOnUse" color-interpolation-filters="sRGB">
<feFlood flood-opacity="0" result="BackgroundImageFix"/>
<feColorMatrix in="SourceAlpha" type="matrix" values="0 0 0 0 0 0 0 0 0 0 0 0 0 0 0 0 0 0 127 0" result="hardAlpha"/>
<feOffset dy="4"/>
<feGaussianBlur stdDeviation="5.55"/>
<feComposite in2="hardAlpha" operator="out"/>
<feColorMatrix type="matrix" values="0 0 0 0 0 0 0 0 0 0 0 0 0 0 0 0 0 0 0.6 0"/>
<feBlend mode="normal" in2="BackgroundImageFix" result="effect1_dropShadow_3200_1137"/>
<feBlend mode="normal" in="SourceGraphic" in2="effect1_dropShadow_3200_1137" result="shape"/>
</filter>
<filter id="filter1_d_3200_1137" x="250" y="0" width="445.719" height="404" filterUnits="userSpaceOnUse" color-interpolation-filters="sRGB">
<feFlood flood-opacity="0" result="BackgroundImageFix"/>
<feColorMatrix in="SourceAlpha" type="matrix" values="0 0 0 0 0 0 0 0 0 0 0 0 0 0 0 0 0 0 127 0" result="hardAlpha"/>
<feOffset dx="-5" dy="8"/>
<feGaussianBlur stdDeviation="10"/>
<feColorMatrix type="matrix" values="0 0 0 0 0 0 0 0 0 0 0 0 0 0 0 0 0 0 0.24 0"/>
<feBlend mode="normal" in2="BackgroundImageFix" result="effect1_dropShadow_3200_1137"/>
<feBlend mode="normal" in="SourceGraphic" in2="effect1_dropShadow_3200_1137" result="shape"/>
</filter>
<filter id="filter2_d_3200_1137" x="267.9" y="30.9596" width="419.919" height="344.288" filterUnits="userSpaceOnUse" color-interpolation-filters="sRGB">
<feFlood flood-opacity="0" result="BackgroundImageFix"/>
<feColorMatrix in="SourceAlpha" type="matrix" values="0 0 0 0 0 0 0 0 0 0 0 0 0 0 0 0 0 0 127 0" result="hardAlpha"/>
<feOffset dy="4"/>
<feGaussianBlur stdDeviation="3.55"/>
<feComposite in2="hardAlpha" operator="out"/>
<feColorMatrix type="matrix" values="0 0 0 0 0 0 0 0 0 0 0 0 0 0 0 0 0 0 0.25 0"/>
<feBlend mode="normal" in2="BackgroundImageFix" result="effect1_dropShadow_3200_1137"/>
<feBlend mode="normal" in="SourceGraphic" in2="effect1_dropShadow_3200_1137" result="shape"/>
</filter>
<filter id="filter3_d_3200_1137" x="59.6406" y="283.227" width="235.408" height="102.484" filterUnits="userSpaceOnUse" color-interpolation-filters="sRGB">
<feFlood flood-opacity="0" result="BackgroundImageFix"/>
<feColorMatrix in="SourceAlpha" type="matrix" values="0 0 0 0 0 0 0 0 0 0 0 0 0 0 0 0 0 0 127 0" result="hardAlpha"/>
<feOffset dx="-5" dy="7"/>
<feGaussianBlur stdDeviation="4"/>
<feComposite in2="hardAlpha" operator="out"/>
<feColorMatrix type="matrix" values="0 0 0 0 0 0 0 0 0 0 0 0 0 0 0 0 0 0 0.25 0"/>
<feBlend mode="normal" in2="BackgroundImageFix" result="effect1_dropShadow_3200_1137"/>
<feBlend mode="normal" in="SourceGraphic" in2="effect1_dropShadow_3200_1137" result="shape"/>
</filter>
<linearGradient id="paint0_linear_3200_1137" x1="337" y1="71" x2="337" y2="430.11" gradientUnits="userSpaceOnUse">
<stop stop-color="#494B14"/>
<stop offset="1" stop-color="#A7AA28"/>
</linearGradient>
<linearGradient id="paint1_linear_3200_1137" x1="274.998" y1="242.784" x2="658.8" y2="242.784" gradientUnits="userSpaceOnUse">
<stop stop-color="#871344"/>
<stop offset="1" stop-color="#6E1D41"/>
</linearGradient>
<linearGradient id="paint2_linear_3200_1137" x1="321.88" y1="245.735" x2="445.47" y2="245.735" gradientUnits="userSpaceOnUse">
<stop stop-color="#493D6F"/>
<stop offset="1" stop-color="#3B2A50"/>
</linearGradient>
<linearGradient id="paint3_linear_3200_1137" x1="460.951" y1="245.672" x2="658.802" y2="245.672" gradientUnits="userSpaceOnUse">
<stop stop-color="#493D6F"/>
<stop offset="1" stop-color="#3B2A50"/>
</linearGradient>
<linearGradient id="paint4_linear_3200_1137" x1="305.018" y1="271.358" x2="401.604" y2="271.358" gradientUnits="userSpaceOnUse">
<stop stop-color="#871344"/>
<stop offset="1" stop-color="#6E1D41"/>
</linearGradient>
<linearGradient id="paint5_linear_3200_1137" x1="326.307" y1="272.395" x2="398.213" y2="272.395" gradientUnits="userSpaceOnUse">
<stop stop-color="#493D6F"/>
<stop offset="1" stop-color="#3B2A50"/>
</linearGradient>
<radialGradient id="paint6_radial_3200_1137" cx="0" cy="0" r="1" gradientUnits="userSpaceOnUse" gradientTransform="translate(352.074 243.763) scale(43.803 43.803)">
<stop stop-color="#A19F26"/>
<stop offset="0.51" stop-color="#82861F"/>
<stop offset="1" stop-color="#616B19"/>
</radialGradient>
<linearGradient id="paint7_linear_3200_1137" x1="510.656" y1="273.335" x2="625.517" y2="273.335" gradientUnits="userSpaceOnUse">
<stop stop-color="#871344"/>
<stop offset="1" stop-color="#6E1D41"/>
</linearGradient>
<linearGradient id="paint8_linear_3200_1137" x1="521.961" y1="273.337" x2="625.518" y2="273.337" gradientUnits="userSpaceOnUse">
<stop stop-color="#493D6F"/>
<stop offset="1" stop-color="#3B2A50"/>
</linearGradient>
<radialGradient id="paint9_radial_3200_1137" cx="0" cy="0" r="1" gradientUnits="userSpaceOnUse" gradientTransform="translate(567.923 223.248) scale(67.8239 67.8239)">
<stop stop-color="#A19F26"/>
<stop offset="0.51" stop-color="#82861F"/>
<stop offset="1" stop-color="#616B19"/>
</radialGradient>
<linearGradient id="paint10_linear_3200_1137" x1="510.656" y1="258.045" x2="625.517" y2="258.045" gradientUnits="userSpaceOnUse">
<stop stop-color="#006633"/>
<stop offset="1" stop-color="#3B2A50"/>
</linearGradient>
<radialGradient id="paint11_radial_3200_1137" cx="0" cy="0" r="1" gradientUnits="userSpaceOnUse" gradientTransform="translate(448.44 248.229) scale(38.5466 38.5466)">
<stop stop-color="#A19F26"/>
<stop offset="0.51" stop-color="#82861F"/>
<stop offset="1" stop-color="#616B19"/>
</radialGradient>
<linearGradient id="paint12_linear_3200_1137" x1="442.581" y1="326.026" x2="506.072" y2="326.026" gradientUnits="userSpaceOnUse">
<stop stop-color="#871344"/>
<stop offset="1" stop-color="#6E1D41"/>
</linearGradient>
<linearGradient id="paint13_linear_3200_1137" x1="476.148" y1="327.281" x2="506.072" y2="327.281" gradientUnits="userSpaceOnUse">
<stop stop-color="#493D6F"/>
<stop offset="1" stop-color="#3B2A50"/>
</linearGradient>
<radialGradient id="paint14_radial_3200_1137" cx="0" cy="0" r="1" gradientUnits="userSpaceOnUse" gradientTransform="translate(472.462 286.832) scale(39.6205 39.6205)">
<stop stop-color="#A19F26"/>
<stop offset="0.51" stop-color="#82861F"/>
<stop offset="1" stop-color="#616B19"/>
</radialGradient>
<linearGradient id="paint15_linear_3200_1137" x1="305.018" y1="255.689" x2="399.437" y2="255.689" gradientUnits="userSpaceOnUse">
<stop stop-color="#006633"/>
<stop offset="1" stop-color="#3B2A50"/>
</linearGradient>
<linearGradient id="paint16_linear_3200_1137" x1="408.7" y1="261.185" x2="488.393" y2="261.185" gradientUnits="userSpaceOnUse">
<stop stop-color="#006633"/>
<stop offset="1" stop-color="#3B2A50"/>
</linearGradient>
<linearGradient id="paint17_linear_3200_1137" x1="437.086" y1="305.647" x2="508.082" y2="305.647" gradientUnits="userSpaceOnUse">
<stop stop-color="#006633"/>
<stop offset="1" stop-color="#3B2A50"/>
</linearGradient>
<linearGradient id="paint18_linear_3200_1137" x1="513.294" y1="266.774" x2="515.586" y2="266.774" gradientUnits="userSpaceOnUse">
<stop stop-color="#006633"/>
<stop offset="1" stop-color="#3B2A50"/>
</linearGradient>
<linearGradient id="paint19_linear_3200_1137" x1="430.712" y1="345.556" x2="453.948" y2="253.931" gradientUnits="userSpaceOnUse">
<stop stop-color="#653AB5"/>
<stop offset="1" stop-color="#5C2295"/>
</linearGradient>
<linearGradient id="paint20_linear_3200_1137" x1="430.712" y1="345.556" x2="453.948" y2="253.931" gradientUnits="userSpaceOnUse">
<stop stop-color="#433FFF"/>
<stop offset="1"/>
</linearGradient>
<radialGradient id="paint21_radial_3200_1137" cx="0" cy="0" r="1" gradientUnits="userSpaceOnUse" gradientTransform="translate(420.97 209.287) scale(199.402 199.402)">
<stop stop-color="#E0E02D"/>
<stop offset="0.23" stop-color="#C1C325"/>
<stop offset="0.74" stop-color="#747911"/>
<stop offset="1" stop-color="#4A5207"/>
</radialGradient>
<radialGradient id="paint22_radial_3200_1137" cx="0" cy="0" r="1" gradientUnits="userSpaceOnUse" gradientTransform="translate(598.726 39.7274) scale(48.7202 48.7202)">
<stop stop-color="#8F8E14"/>
<stop offset="0.38" stop-color="#70710E"/>
<stop offset="1" stop-color="#373D05"/>
</radialGradient>
<linearGradient id="paint23_linear_3200_1137" x1="588.967" y1="62.769" x2="588.967" y2="109.398" gradientUnits="userSpaceOnUse">
<stop stop-color="white"/>
<stop offset="1" stop-color="#5C2295"/>
</linearGradient>
<linearGradient id="paint24_linear_3200_1137" x1="612.644" y1="62.7692" x2="612.644" y2="109.398" gradientUnits="userSpaceOnUse">
<stop stop-color="white"/>
<stop offset="1" stop-color="#5C2295"/>
</linearGradient>
<linearGradient id="paint25_linear_3200_1137" x1="638.045" y1="62.769" x2="638.045" y2="109.398" gradientUnits="userSpaceOnUse">
<stop stop-color="white"/>
<stop offset="1" stop-color="#5C2295"/>
</linearGradient>
<linearGradient id="paint26_linear_3200_1137" x1="665.3" y1="62.7681" x2="665.3" y2="109.397" gradientUnits="userSpaceOnUse">
<stop stop-color="white"/>
<stop offset="1" stop-color="#5C2295"/>
</linearGradient>
<linearGradient id="paint27_linear_3200_1137" x1="636.82" y1="62.7693" x2="636.82" y2="109.398" gradientUnits="userSpaceOnUse">
<stop stop-color="white"/>
<stop offset="1" stop-color="#5C2295"/>
</linearGradient>
<linearGradient id="paint28_linear_3200_1137" x1="617.447" y1="47.9492" x2="615.783" y2="107.421" gradientUnits="userSpaceOnUse">
<stop stop-color="white"/>
<stop offset="1" stop-color="#5C2295"/>
</linearGradient>
<linearGradient id="paint29_linear_3200_1137" x1="495.177" y1="215.467" x2="495.177" y2="80.9178" gradientUnits="userSpaceOnUse">
<stop stop-color="#871344"/>
<stop offset="1" stop-color="#6E1D41"/>
</linearGradient>
<linearGradient id="paint30_linear_3200_1137" x1="532.291" y1="117.09" x2="571.666" y2="117.09" gradientUnits="userSpaceOnUse">
<stop stop-color="#493D6F"/>
<stop offset="1" stop-color="#3B2A50"/>
</linearGradient>
<linearGradient id="paint31_linear_3200_1137" x1="557.159" y1="127.358" x2="631.703" y2="127.358" gradientUnits="userSpaceOnUse">
<stop stop-color="#493D6F"/>
<stop offset="1" stop-color="#3B2A50"/>
</linearGradient>
<linearGradient id="paint32_linear_3200_1137" x1="479.036" y1="193.486" x2="531.474" y2="193.486" gradientUnits="userSpaceOnUse">
<stop stop-color="#493D6F"/>
<stop offset="1" stop-color="#3B2A50"/>
</linearGradient>
<linearGradient id="paint33_linear_3200_1137" x1="370.612" y1="180.143" x2="477.968" y2="180.143" gradientUnits="userSpaceOnUse">
<stop stop-color="#493D6F"/>
<stop offset="1" stop-color="#3B2A50"/>
</linearGradient>
<linearGradient id="paint34_linear_3200_1137" x1="523.875" y1="160.267" x2="614.433" y2="160.267" gradientUnits="userSpaceOnUse">
<stop stop-color="#493D6F"/>
<stop offset="1" stop-color="#3B2A50"/>
</linearGradient>
<linearGradient id="paint35_linear_3200_1137" x1="424.306" y1="141.394" x2="493.229" y2="141.394" gradientUnits="userSpaceOnUse">
<stop stop-color="#493D6F"/>
<stop offset="1" stop-color="#3B2A50"/>
</linearGradient>
<linearGradient id="paint36_linear_3200_1137" x1="547.112" y1="159.104" x2="676.229" y2="159.104" gradientUnits="userSpaceOnUse">
<stop stop-color="#493D6F"/>
<stop offset="1" stop-color="#3B2A50"/>
</linearGradient>
<linearGradient id="paint37_linear_3200_1137" x1="476.148" y1="92.285" x2="550.189" y2="92.285" gradientUnits="userSpaceOnUse">
<stop stop-color="#493D6F"/>
<stop offset="1" stop-color="#3B2A50"/>
</linearGradient>
<radialGradient id="paint38_radial_3200_1137" cx="0" cy="0" r="1" gradientUnits="userSpaceOnUse" gradientTransform="translate(467.431 155.141) scale(166.96)">
<stop stop-color="#A19F26"/>
<stop offset="0.51" stop-color="#82861F"/>
<stop offset="1" stop-color="#616B19"/>
</radialGradient>
<radialGradient id="paint39_radial_3200_1137" cx="0" cy="0" r="1" gradientUnits="userSpaceOnUse" gradientTransform="translate(406.898 89.013) scale(116.375 116.375)">
<stop stop-color="#CCCC33"/>
<stop offset="0.27" stop-color="#ADAF28"/>
<stop offset="0.84" stop-color="#60660E"/>
<stop offset="1" stop-color="#4A5207"/>
</radialGradient>
<radialGradient id="paint40_radial_3200_1137" cx="0" cy="0" r="1" gradientUnits="userSpaceOnUse" gradientTransform="translate(467.43 179.785) scale(203.359 203.359)">
<stop stop-color="#A19F26"/>
<stop offset="0.51" stop-color="#82861F"/>
<stop offset="1" stop-color="#616B19"/>
</radialGradient>
<linearGradient id="paint41_linear_3200_1137" x1="466.915" y1="82.7713" x2="523.875" y2="82.7713" gradientUnits="userSpaceOnUse">
<stop stop-color="#006633"/>
<stop offset="1" stop-color="#3B2A50"/>
</linearGradient>
<radialGradient id="paint42_radial_3200_1137" cx="0" cy="0" r="1" gradientUnits="userSpaceOnUse" gradientTransform="translate(467.431 155.764) scale(178.32 178.32)">
<stop stop-color="#A19F26"/>
<stop offset="0.51" stop-color="#82861F"/>
<stop offset="1" stop-color="#616B19"/>
</radialGradient>
<radialGradient id="paint43_radial_3200_1137" cx="0" cy="0" r="1" gradientUnits="userSpaceOnUse" gradientTransform="translate(468.391 151.242) scale(175.155 175.155)">
<stop stop-color="#A19F26"/>
<stop offset="0.51" stop-color="#82861F"/>
<stop offset="1" stop-color="#616B19"/>
</radialGradient>
<radialGradient id="paint44_radial_3200_1137" cx="0" cy="0" r="1" gradientUnits="userSpaceOnUse" gradientTransform="translate(467.431 155.763) scale(178.32 178.32)">
<stop stop-color="#A19F26"/>
<stop offset="0.51" stop-color="#82861F"/>
<stop offset="1" stop-color="#616B19"/>
</radialGradient>
<radialGradient id="paint45_radial_3200_1137" cx="0" cy="0" r="1" gradientUnits="userSpaceOnUse" gradientTransform="translate(461.892 155.764) scale(189.398 189.398)">
<stop stop-color="#A19F26"/>
<stop offset="0.51" stop-color="#82861F"/>
<stop offset="1" stop-color="#616B19"/>
</radialGradient>
<radialGradient id="paint46_radial_3200_1137" cx="0" cy="0" r="1" gradientUnits="userSpaceOnUse" gradientTransform="translate(467.543 148.36) scale(187.872 187.872)">
<stop stop-color="#A19F26"/>
<stop offset="0.51" stop-color="#82861F"/>
<stop offset="1" stop-color="#616B19"/>
</radialGradient>
<linearGradient id="paint47_linear_3200_1137" x1="275" y1="198.731" x2="661.031" y2="198.731" gradientUnits="userSpaceOnUse">
<stop stop-color="#006633"/>
<stop offset="1" stop-color="#3B2A50"/>
</linearGradient>
<radialGradient id="paint48_radial_3200_1137" cx="0" cy="0" r="1" gradientUnits="userSpaceOnUse" gradientTransform="translate(298.889 179.388) scale(27.7513)">
<stop stop-color="#A19F26"/>
<stop offset="0.38" stop-color="#82841B"/>
<stop offset="1" stop-color="#4A5207"/>
</radialGradient>
<linearGradient id="paint49_linear_3200_1137" x1="299.365" y1="184.286" x2="305.174" y2="205.167" gradientUnits="userSpaceOnUse">
<stop stop-color="white"/>
<stop offset="1" stop-color="#5C2295"/>
</linearGradient>
<linearGradient id="paint50_linear_3200_1137" x1="332.932" y1="174.961" x2="338.741" y2="195.842" gradientUnits="userSpaceOnUse">
<stop stop-color="white"/>
<stop offset="1" stop-color="#5C2295"/>
</linearGradient>
<linearGradient id="paint51_linear_3200_1137" x1="426.441" y1="104.06" x2="505.255" y2="104.06" gradientUnits="userSpaceOnUse">
<stop stop-color="#006633"/>
<stop offset="1" stop-color="#3B2A50"/>
</linearGradient>
<linearGradient id="paint52_linear_3200_1137" x1="494.266" y1="143.936" x2="561.305" y2="143.936" gradientUnits="userSpaceOnUse">
<stop stop-color="#006633"/>
<stop offset="1" stop-color="#3B2A50"/>
</linearGradient>
<linearGradient id="paint53_linear_3200_1137" x1="454.137" y1="140.295" x2="678.427" y2="140.295" gradientUnits="userSpaceOnUse">
<stop stop-color="#493D6F"/>
<stop offset="1" stop-color="#3B2A50"/>
</linearGradient>
<linearGradient id="paint54_linear_3200_1137" x1="482.115" y1="125.223" x2="547.489" y2="125.223" gradientUnits="userSpaceOnUse">
<stop stop-color="#493D6F"/>
<stop offset="1" stop-color="#3B2A50"/>
</linearGradient>
<linearGradient id="paint55_linear_3200_1137" x1="355.352" y1="351.148" x2="355.352" y2="136.56" gradientUnits="userSpaceOnUse">
<stop stop-color="#9F9FFF"/>
<stop offset="0.05" stop-color="#A1A2FE"/>
<stop offset="0.3" stop-color="#ACB2FB"/>
<stop offset="0.6" stop-color="#B2BCF9"/>
<stop offset="0.99" stop-color="#B5BFF9"/>
</linearGradient>
<linearGradient id="paint56_linear_3200_1137" x1="399.123" y1="351.147" x2="399.123" y2="136.56" gradientUnits="userSpaceOnUse">
<stop stop-color="#9F9FFF"/>
<stop offset="0.05" stop-color="#A1A2FE"/>
<stop offset="0.3" stop-color="#ACB2FB"/>
<stop offset="0.6" stop-color="#B2BCF9"/>
<stop offset="0.99" stop-color="#B5BFF9"/>
</linearGradient>
<linearGradient id="paint57_linear_3200_1137" x1="555.181" y1="351.147" x2="555.181" y2="136.56" gradientUnits="userSpaceOnUse">
<stop stop-color="#9F9FFF"/>
<stop offset="0.05" stop-color="#A1A2FE"/>
<stop offset="0.3" stop-color="#ACB2FB"/>
<stop offset="0.6" stop-color="#B2BCF9"/>
<stop offset="0.99" stop-color="#B5BFF9"/>
</linearGradient>
<linearGradient id="paint58_linear_3200_1137" x1="605.201" y1="351.148" x2="605.201" y2="136.56" gradientUnits="userSpaceOnUse">
<stop stop-color="#9F9FFF"/>
<stop offset="0.05" stop-color="#A1A2FE"/>
<stop offset="0.3" stop-color="#ACB2FB"/>
<stop offset="0.6" stop-color="#B2BCF9"/>
<stop offset="0.99" stop-color="#B5BFF9"/>
</linearGradient>
<linearGradient id="paint59_linear_3200_1137" x1="626.334" y1="279.148" x2="631.358" y2="279.148" gradientUnits="userSpaceOnUse">
<stop stop-color="#9F9FFF"/>
<stop offset="0.05" stop-color="#A1A2FE"/>
<stop offset="0.3" stop-color="#ACB2FB"/>
<stop offset="0.6" stop-color="#B2BCF9"/>
<stop offset="0.99" stop-color="#B5BFF9"/>
</linearGradient>
<linearGradient id="paint60_linear_3200_1137" x1="577.506" y1="351.148" x2="577.506" y2="136.56" gradientUnits="userSpaceOnUse">
<stop stop-color="#9F9FFF"/>
<stop offset="0.05" stop-color="#A1A2FE"/>
<stop offset="0.3" stop-color="#ACB2FB"/>
<stop offset="0.6" stop-color="#B2BCF9"/>
<stop offset="0.99" stop-color="#B5BFF9"/>
</linearGradient>
<linearGradient id="paint61_linear_3200_1137" x1="486.666" y1="351.147" x2="486.666" y2="136.56" gradientUnits="userSpaceOnUse">
<stop stop-color="#9F9FFF"/>
<stop offset="0.05" stop-color="#A1A2FE"/>
<stop offset="0.3" stop-color="#ACB2FB"/>
<stop offset="0.6" stop-color="#B2BCF9"/>
<stop offset="0.99" stop-color="#B5BFF9"/>
</linearGradient>
<linearGradient id="paint62_linear_3200_1137" x1="493.543" y1="128.491" x2="507.861" y2="128.491" gradientUnits="userSpaceOnUse">
<stop stop-color="#9F9FFF"/>
<stop offset="0.05" stop-color="#A1A2FE"/>
<stop offset="0.3" stop-color="#ACB2FB"/>
<stop offset="0.6" stop-color="#B2BCF9"/>
<stop offset="0.99" stop-color="#B5BFF9"/>
</linearGradient>
<linearGradient id="paint63_linear_3200_1137" x1="513.356" y1="351.148" x2="513.356" y2="136.561" gradientUnits="userSpaceOnUse">
<stop stop-color="#9F9FFF"/>
<stop offset="0.05" stop-color="#A1A2FE"/>
<stop offset="0.3" stop-color="#ACB2FB"/>
<stop offset="0.6" stop-color="#B2BCF9"/>
<stop offset="0.99" stop-color="#B5BFF9"/>
</linearGradient>
<linearGradient id="paint64_linear_3200_1137" x1="469.585" y1="351.147" x2="469.585" y2="136.56" gradientUnits="userSpaceOnUse">
<stop stop-color="#9F9FFF"/>
<stop offset="0.05" stop-color="#A1A2FE"/>
<stop offset="0.3" stop-color="#ACB2FB"/>
<stop offset="0.6" stop-color="#B2BCF9"/>
<stop offset="0.99" stop-color="#B5BFF9"/>
</linearGradient>
<linearGradient id="paint65_linear_3200_1137" x1="499.885" y1="162.716" x2="504.407" y2="162.716" gradientUnits="userSpaceOnUse">
<stop stop-color="#9F9FFF"/>
<stop offset="0.05" stop-color="#A1A2FE"/>
<stop offset="0.3" stop-color="#ACB2FB"/>
<stop offset="0.6" stop-color="#B2BCF9"/>
<stop offset="0.99" stop-color="#B5BFF9"/>
</linearGradient>
<linearGradient id="paint66_linear_3200_1137" x1="571.289" y1="215.97" x2="604.197" y2="215.97" gradientUnits="userSpaceOnUse">
<stop stop-color="#9F9FFF"/>
<stop offset="0.05" stop-color="#A1A2FE"/>
<stop offset="0.3" stop-color="#ACB2FB"/>
<stop offset="0.6" stop-color="#B2BCF9"/>
<stop offset="0.99" stop-color="#B5BFF9"/>
</linearGradient>
<linearGradient id="paint67_linear_3200_1137" x1="379.184" y1="308.883" x2="379.184" y2="237.103" gradientUnits="userSpaceOnUse">
<stop stop-color="#9F9FFF"/>
<stop offset="0.05" stop-color="#A1A2FE"/>
<stop offset="0.3" stop-color="#ACB2FB"/>
<stop offset="0.6" stop-color="#B2BCF9"/>
<stop offset="0.99" stop-color="#B5BFF9"/>
</linearGradient>
<linearGradient id="paint68_linear_3200_1137" x1="356.733" y1="315.226" x2="356.733" y2="237.7" gradientUnits="userSpaceOnUse">
<stop stop-color="#9F9FFF"/>
<stop offset="0.05" stop-color="#A1A2FE"/>
<stop offset="0.3" stop-color="#ACB2FB"/>
<stop offset="0.6" stop-color="#B2BCF9"/>
<stop offset="0.99" stop-color="#B5BFF9"/>
</linearGradient>
<linearGradient id="paint69_linear_3200_1137" x1="489.147" y1="174.962" x2="489.147" y2="147.361" gradientUnits="userSpaceOnUse">
<stop stop-color="#9F9FFF"/>
<stop offset="0.05" stop-color="#A1A2FE"/>
<stop offset="0.3" stop-color="#ACB2FB"/>
<stop offset="0.6" stop-color="#B2BCF9"/>
<stop offset="0.99" stop-color="#B5BFF9"/>
</linearGradient>
<linearGradient id="paint70_linear_3200_1137" x1="578.166" y1="192.358" x2="578.166" y2="178.825" gradientUnits="userSpaceOnUse">
<stop stop-color="#9F9FFF"/>
<stop offset="0.05" stop-color="#A1A2FE"/>
<stop offset="0.3" stop-color="#ACB2FB"/>
<stop offset="0.6" stop-color="#B2BCF9"/>
<stop offset="0.99" stop-color="#B5BFF9"/>
</linearGradient>
<linearGradient id="paint71_linear_3200_1137" x1="501.205" y1="111.408" x2="501.205" y2="109.304" gradientUnits="userSpaceOnUse">
<stop stop-color="#9F9FFF"/>
<stop offset="0.05" stop-color="#A1A2FE"/>
<stop offset="0.3" stop-color="#ACB2FB"/>
<stop offset="0.6" stop-color="#B2BCF9"/>
<stop offset="0.99" stop-color="#B5BFF9"/>
</linearGradient>
<linearGradient id="paint72_linear_3200_1137" x1="517.501" y1="128.552" x2="517.501" y2="112.789" gradientUnits="userSpaceOnUse">
<stop stop-color="#9F9FFF"/>
<stop offset="0.05" stop-color="#A1A2FE"/>
<stop offset="0.3" stop-color="#ACB2FB"/>
<stop offset="0.6" stop-color="#B2BCF9"/>
<stop offset="0.99" stop-color="#B5BFF9"/>
</linearGradient>
<linearGradient id="paint73_linear_3200_1137" x1="495.679" y1="128.365" x2="518.82" y2="128.365" gradientUnits="userSpaceOnUse">
<stop stop-color="#DCD7FF"/>
<stop offset="0.07" stop-color="#E2DCFF"/>
<stop offset="0.33" stop-color="#F2EAFF"/>
<stop offset="0.62" stop-color="#FBF2FF"/>
<stop offset="1" stop-color="#FFF5FF"/>
</linearGradient>
<linearGradient id="paint74_linear_3200_1137" x1="571.29" y1="189.846" x2="592.925" y2="189.846" gradientUnits="userSpaceOnUse">
<stop stop-color="#DCD7FF"/>
<stop offset="0.07" stop-color="#E2DCFF"/>
<stop offset="0.33" stop-color="#F2EAFF"/>
<stop offset="0.62" stop-color="#FBF2FF"/>
<stop offset="1" stop-color="#FFF5FF"/>
</linearGradient>
<linearGradient id="paint75_linear_3200_1137" x1="593.521" y1="240.244" x2="615.187" y2="240.244" gradientUnits="userSpaceOnUse">
<stop stop-color="#DCD7FF"/>
<stop offset="0.07" stop-color="#E2DCFF"/>
<stop offset="0.33" stop-color="#F2EAFF"/>
<stop offset="0.62" stop-color="#FBF2FF"/>
<stop offset="1" stop-color="#FFF5FF"/>
</linearGradient>
<radialGradient id="paint76_radial_3200_1137" cx="0" cy="0" r="1" gradientUnits="userSpaceOnUse" gradientTransform="translate(628.682 167.858) scale(27.2426 27.2426)">
<stop stop-color="#A19F26"/>
<stop offset="0.38" stop-color="#82841B"/>
<stop offset="1" stop-color="#4A5207"/>
</radialGradient>
<linearGradient id="paint77_linear_3200_1137" x1="645.958" y1="173.014" x2="645.958" y2="195.276" gradientUnits="userSpaceOnUse">
<stop stop-color="white"/>
<stop offset="1" stop-color="#5C2295"/>
</linearGradient>
<linearGradient id="paint78_linear_3200_1137" x1="509.178" y1="40.1288" x2="509.178" y2="4.52122" gradientUnits="userSpaceOnUse">
<stop stop-color="#C7B6FF"/>
<stop offset="0.19" stop-color="#CECBFF"/>
<stop offset="0.4" stop-color="#D4DBFF"/>
<stop offset="0.64" stop-color="#D7E4FF"/>
<stop offset="0.95" stop-color="#D9E8FF"/>
</linearGradient>
<linearGradient id="paint79_linear_3200_1137" x1="502.146" y1="54.1025" x2="510.655" y2="27.1299" gradientUnits="userSpaceOnUse">
<stop stop-color="#9F9FFF"/>
<stop offset="0.05" stop-color="#A1A2FE"/>
<stop offset="0.3" stop-color="#ACB2FB"/>
<stop offset="0.6" stop-color="#B2BCF9"/>
<stop offset="0.99" stop-color="#B5BFF9"/>
</linearGradient>
<linearGradient id="paint80_linear_3200_1137" x1="488.392" y1="28.103" x2="498.188" y2="28.103" gradientUnits="userSpaceOnUse">
<stop stop-color="#DCD7FF"/>
<stop offset="0.07" stop-color="#E2DCFF"/>
<stop offset="0.33" stop-color="#F2EAFF"/>
<stop offset="0.62" stop-color="#FBF2FF"/>
<stop offset="1" stop-color="#FFF5FF"/>
</linearGradient>
<linearGradient id="paint81_linear_3200_1137" x1="516.74" y1="366.33" x2="563.65" y2="368.788" gradientUnits="userSpaceOnUse">
<stop stop-color="#C7B6FF"/>
<stop offset="0.19" stop-color="#CECBFF"/>
<stop offset="0.4" stop-color="#D4DBFF"/>
<stop offset="0.64" stop-color="#D7E4FF"/>
<stop offset="0.95" stop-color="#D9E8FF"/>
</linearGradient>
<linearGradient id="paint82_linear_3200_1137" x1="522.9" y1="373.783" x2="569.246" y2="373.783" gradientUnits="userSpaceOnUse">
<stop stop-color="#9F9FFF"/>
<stop offset="0.05" stop-color="#A1A2FE"/>
<stop offset="0.3" stop-color="#ACB2FB"/>
<stop offset="0.6" stop-color="#B2BCF9"/>
<stop offset="0.99" stop-color="#B5BFF9"/>
</linearGradient>
<linearGradient id="paint83_linear_3200_1137" x1="419.689" y1="72.7222" x2="419.689" y2="21.2891" gradientUnits="userSpaceOnUse">
<stop stop-color="#C7B6FF"/>
<stop offset="0.19" stop-color="#CECBFF"/>
<stop offset="0.4" stop-color="#D4DBFF"/>
<stop offset="0.64" stop-color="#D7E4FF"/>
<stop offset="0.95" stop-color="#D9E8FF"/>
</linearGradient>
<linearGradient id="paint84_linear_3200_1137" x1="394.945" y1="135.083" x2="426.283" y2="35.8901" gradientUnits="userSpaceOnUse">
<stop stop-color="#9F9FFF"/>
<stop offset="0.05" stop-color="#A1A2FE"/>
<stop offset="0.3" stop-color="#ACB2FB"/>
<stop offset="0.6" stop-color="#B2BCF9"/>
<stop offset="0.99" stop-color="#B5BFF9"/>
</linearGradient>
<linearGradient id="paint85_linear_3200_1137" x1="407.851" y1="125.757" x2="439.628" y2="25.12" gradientUnits="userSpaceOnUse">
<stop stop-color="#DCD7FF"/>
<stop offset="0.07" stop-color="#E2DCFF"/>
<stop offset="0.33" stop-color="#F2EAFF"/>
<stop offset="0.62" stop-color="#FBF2FF"/>
<stop offset="1" stop-color="#FFF5FF"/>
</linearGradient>
<linearGradient id="paint86_linear_3200_1137" x1="413.378" y1="346.123" x2="413.378" y2="285.364" gradientUnits="userSpaceOnUse">
<stop stop-color="#C7B6FF"/>
<stop offset="0.19" stop-color="#CECBFF"/>
<stop offset="0.4" stop-color="#D4DBFF"/>
<stop offset="0.64" stop-color="#D7E4FF"/>
<stop offset="0.95" stop-color="#D9E8FF"/>
</linearGradient>
<linearGradient id="paint87_linear_3200_1137" x1="293.399" y1="362.263" x2="292.08" y2="331.93" gradientUnits="userSpaceOnUse">
<stop stop-color="#9F9FFF"/>
<stop offset="0.05" stop-color="#A1A2FE"/>
<stop offset="0.3" stop-color="#ACB2FB"/>
<stop offset="0.6" stop-color="#B2BCF9"/>
<stop offset="0.99" stop-color="#B5BFF9"/>
</linearGradient>
<linearGradient id="paint88_linear_3200_1137" x1="284.575" y1="316.859" x2="336.574" y2="316.859" gradientUnits="userSpaceOnUse">
<stop stop-color="#DCD7FF"/>
<stop offset="0.07" stop-color="#E2DCFF"/>
<stop offset="0.33" stop-color="#F2EAFF"/>
<stop offset="0.62" stop-color="#FBF2FF"/>
<stop offset="1" stop-color="#FFF5FF"/>
</linearGradient>
<linearGradient id="paint89_linear_3200_1137" x1="245.325" y1="329.639" x2="277.479" y2="329.639" gradientUnits="userSpaceOnUse">
<stop stop-color="#DCD7FF"/>
<stop offset="0.07" stop-color="#E2DCFF"/>
<stop offset="0.33" stop-color="#F2EAFF"/>
<stop offset="0.62" stop-color="#FBF2FF"/>
<stop offset="1" stop-color="#FFF5FF"/>
</linearGradient>
<linearGradient id="paint90_linear_3200_1137" x1="625.39" y1="377.522" x2="625.39" y2="300.498" gradientUnits="userSpaceOnUse">
<stop stop-color="#C7B6FF"/>
<stop offset="0.19" stop-color="#CECBFF"/>
<stop offset="0.4" stop-color="#D4DBFF"/>
<stop offset="0.64" stop-color="#D7E4FF"/>
<stop offset="0.95" stop-color="#D9E8FF"/>
</linearGradient>
<linearGradient id="paint91_linear_3200_1137" x1="567.771" y1="359.591" x2="682.978" y2="359.591" gradientUnits="userSpaceOnUse">
<stop stop-color="#9F9FFF"/>
<stop offset="0.05" stop-color="#A1A2FE"/>
<stop offset="0.3" stop-color="#ACB2FB"/>
<stop offset="0.6" stop-color="#B2BCF9"/>
<stop offset="0.99" stop-color="#B5BFF9"/>
</linearGradient>
<linearGradient id="paint92_linear_3200_1137" x1="583.284" y1="348.226" x2="618.232" y2="348.226" gradientUnits="userSpaceOnUse">
<stop stop-color="#DCD7FF"/>
<stop offset="0.07" stop-color="#E2DCFF"/>
<stop offset="0.33" stop-color="#F2EAFF"/>
<stop offset="0.62" stop-color="#FBF2FF"/>
<stop offset="1" stop-color="#FFF5FF"/>
</linearGradient>
<linearGradient id="paint93_linear_3200_1137" x1="623.883" y1="344.52" x2="682.977" y2="344.52" gradientUnits="userSpaceOnUse">
<stop stop-color="#DCD7FF"/>
<stop offset="0.07" stop-color="#E2DCFF"/>
<stop offset="0.33" stop-color="#F2EAFF"/>
<stop offset="0.62" stop-color="#FBF2FF"/>
<stop offset="1" stop-color="#FFF5FF"/>
</linearGradient>
</defs>
</svg>
