<svg width="570" height="366" viewBox="0 0 570 366" fill="none" xmlns="http://www.w3.org/2000/svg">
<g filter="url(#filter0_d_3091_705)">
<rect x="12" y="55.9688" width="533.449" height="294.717" rx="53" fill="url(#paint0_linear_3091_705)"/>
</g>
<g filter="url(#filter1_d_3091_705)">
<path fill-rule="evenodd" clip-rule="evenodd" d="M541.418 166.166C541.418 166.166 541.182 166.372 541.064 166.49C541.005 166.52 540.976 166.579 540.917 166.608C527.207 178.962 502.027 197.537 478.528 214.225C472.307 218.648 466.174 222.953 460.425 226.962C451.167 233.39 442.852 239.11 436.484 243.444C435.304 244.24 434.213 244.977 433.182 245.685C427.255 249.724 423.688 252.113 423.688 252.113L415.137 255.09L411.068 256.506L395.088 262.078L392.936 274.609L392.818 275.258H370.557L358.616 266.678L356.021 264.82H325.122C321.731 261.076 315.569 255.208 309.495 249.636L308.729 248.928C307.254 247.601 305.81 246.275 304.424 245.036C299.942 240.997 296.021 237.518 293.957 235.719C292.984 234.864 292.424 234.392 292.424 234.392L289.092 233.714L287.411 233.39L275.175 230.913L238.704 223.572L236.05 223.041C232.335 219.886 228.649 216.908 225.082 214.107C200.964 195.149 181.386 184.122 181.091 183.974C196.069 176.692 207.362 173.39 221.16 170.176C291.303 153.812 520.072 159.001 520.072 159.001L533.693 163.63L541.418 166.254V166.166Z" fill="url(#paint1_linear_3091_705)"/>
<path style="mix-blend-mode:multiply" opacity="0.5" fill-rule="evenodd" clip-rule="evenodd" d="M340.249 191.847L311.413 202.55L315.954 227.464L306.548 227.729L309.438 249.665L308.671 248.958L304.366 245.066C299.885 241.026 295.963 237.547 293.899 235.749C292.926 234.894 292.366 234.422 292.366 234.422L289.034 233.744L287.354 233.42L275.118 230.943L238.646 223.601L235.992 223.071C232.277 219.916 228.592 216.938 225.024 214.137L232.425 189.37L328.75 191.346L341.074 191.611L340.219 191.935L340.249 191.847Z" fill="url(#paint2_linear_3091_705)"/>
<path style="mix-blend-mode:multiply" opacity="0.5" fill-rule="evenodd" clip-rule="evenodd" d="M541.42 166.167C541.42 166.167 541.184 166.373 541.066 166.491C541.007 166.52 540.978 166.579 540.919 166.609C527.208 178.963 502.029 197.538 478.53 214.226C472.309 218.648 466.176 222.953 460.427 226.963C451.169 233.391 442.854 239.11 436.485 243.445C435.306 244.241 434.215 244.978 433.183 245.685C427.257 249.725 423.689 252.113 423.689 252.113L415.139 255.091L411.07 256.506L395.09 262.079L392.937 274.61L392.819 275.258H370.559L358.618 266.678L356.023 264.821L368.229 262.845L380.377 240.083L380.613 239.641C380.613 239.641 380.613 239.641 380.583 239.641C379.61 239.228 357.733 230.177 356.023 231.061C355.492 231.356 355.61 230.766 356.023 229.882C356.937 227.848 359.325 224.103 359.325 224.103L423.453 202.904L418.942 189.577L417.498 185.331L457.449 177.872L533.724 163.631L541.449 166.255L541.42 166.167Z" fill="url(#paint3_linear_3091_705)"/>
<path fill-rule="evenodd" clip-rule="evenodd" d="M299.914 231.032L297.879 232.624L296.759 233.509L293.928 235.72L287.501 240.732V246.482C287.501 246.482 272.641 256.772 269.663 256.477C266.685 256.182 254.479 248.605 253.27 248.605C252.061 248.605 235.107 255.268 234.193 254.678C233.279 254.059 213.79 237.253 209.25 230.59L275.176 230.914L294.4 231.003H299.943L299.914 231.032Z" fill="url(#paint4_linear_3091_705)"/>
<path style="mix-blend-mode:multiply" opacity="0.5" fill-rule="evenodd" clip-rule="evenodd" d="M296.73 233.508L293.899 235.719L287.472 240.732V246.481C287.472 246.481 272.611 256.771 269.634 256.476C266.656 256.182 254.449 248.604 253.24 248.604C252.031 248.604 235.078 255.268 234.164 254.678L229.211 233.567V232.535L287.383 233.361L291.776 233.42L296.759 233.479L296.73 233.508Z" fill="url(#paint5_linear_3091_705)"/>
<path fill-rule="evenodd" clip-rule="evenodd" d="M297.879 232.624C297.879 232.624 295.845 233.007 291.776 233.449C290.951 233.538 290.037 233.626 289.064 233.715C281.221 234.452 268.13 235.189 249.938 234.658C241.506 234.422 234.695 234.009 229.24 233.567C214.056 232.299 209.25 230.589 209.25 230.589L238.705 223.572C238.881 223.543 246.223 222.275 263 223.13C276.179 223.808 288.562 228.496 294.4 231.032C296.612 232.005 297.909 232.653 297.909 232.653L297.879 232.624Z" fill="url(#paint6_radial_3091_705)"/>
<path fill-rule="evenodd" clip-rule="evenodd" d="M510.166 215.729C504.682 221.331 489.704 247.101 489.704 247.101L478.942 248.604C461.665 260.722 421.979 275.052 421.979 275.052C421.831 274.786 416.259 265.587 411.04 256.536C407.089 249.666 403.315 242.855 402.283 240.113L404.819 239.553L405.822 239.317L414.755 237.312L440.849 231.415L460.397 226.992L510.137 215.759L510.166 215.729Z" fill="url(#paint7_linear_3091_705)"/>
<path style="mix-blend-mode:multiply" opacity="0.5" fill-rule="evenodd" clip-rule="evenodd" d="M510.167 215.731C504.683 221.333 489.705 247.072 489.705 247.072L478.943 248.576C461.665 260.694 421.979 275.023 421.979 275.023L415.109 255.063L412.869 248.576L431.296 245.362L436.456 243.416L510.137 215.701L510.167 215.731Z" fill="url(#paint8_linear_3091_705)"/>
<path fill-rule="evenodd" clip-rule="evenodd" d="M510.166 215.731C509.871 215.908 491.473 228.085 466.234 237.078C454.794 241.176 442.883 243.888 433.212 245.687C421.359 247.869 412.927 248.606 412.927 248.606C413.339 248.488 426.548 245.186 439.285 240.114C439.285 240.114 419.59 242.267 402.312 240.114C402.312 240.114 426.194 226.493 444.416 220.154L449.163 213.549C456.681 213.431 467.974 213.785 478.529 214.286C492.947 214.935 505.92 215.76 505.92 215.76H510.166V215.731Z" fill="url(#paint9_radial_3091_705)"/>
<path style="mix-blend-mode:multiply" opacity="0.3" fill-rule="evenodd" clip-rule="evenodd" d="M505.92 215.73C505.92 215.73 492.917 214.904 478.529 214.256C467.974 213.784 456.681 213.401 449.163 213.519L444.416 220.123C426.194 226.492 402.312 240.084 402.312 240.084C419.59 242.236 439.285 240.084 439.285 240.084C426.548 245.185 413.339 248.487 412.927 248.575C412.927 248.575 421.389 247.838 433.212 245.656C442.883 243.887 454.794 241.145 466.234 237.047C491.473 228.025 509.871 215.877 510.166 215.7H505.92V215.73ZM440.878 227.435C440.878 227.435 438.961 228.821 436.543 228.821H428.966L440.878 227.435ZM431.354 234.836C431.354 234.836 422.303 236.045 414.784 237.283C411.659 237.814 408.769 238.315 406.941 238.787C410.067 237.283 416.553 234.305 426.371 232.565L440.907 231.416L431.384 234.865L431.354 234.836Z" fill="url(#paint10_linear_3091_705)"/>
<path fill-rule="evenodd" clip-rule="evenodd" d="M381.408 239.995C331.727 243.769 306.577 227.7 306.577 227.7C313.535 226.786 355.167 228.29 361.241 231.032C367.315 233.774 381.408 239.995 381.408 239.995Z" fill="url(#paint11_radial_3091_705)"/>
<path fill-rule="evenodd" clip-rule="evenodd" d="M398.008 277.381V277.44V277.528L397.92 277.646L397.772 278C396.976 279.917 394.293 286.167 389.281 293.45C383.207 302.236 375.335 314.708 375.335 314.708C373.507 308.104 369.88 302.531 369.88 302.531L366.253 305.096C366.253 305.096 343.845 285.578 338.391 275.052L398.037 277.381H398.008Z" fill="url(#paint12_linear_3091_705)"/>
<path style="mix-blend-mode:multiply" opacity="0.5" fill-rule="evenodd" clip-rule="evenodd" d="M398.008 277.382V277.441V277.529L397.92 277.647L397.772 278.001C396.976 279.917 394.293 286.168 389.281 293.451C383.207 302.237 375.335 314.709 375.335 314.709C373.507 308.104 369.88 302.532 369.88 302.532L384.504 285.254L381.408 280.153C381.408 280.153 381.408 280.153 381.467 280.153L398.008 277.382Z" fill="url(#paint13_linear_3091_705)"/>
<path fill-rule="evenodd" clip-rule="evenodd" d="M381.468 280.124H381.409L384.505 285.225C384.505 285.225 351.63 284.93 338.362 274.994C333.202 271.131 333.202 266.738 333.202 266.738C333.202 266.738 345.527 265.559 358.559 266.649C362.362 266.974 366.224 267.475 369.851 268.242C378.903 270.188 387.276 272.753 392.878 274.581C397.212 276.025 399.837 277.028 399.837 277.028C399.217 277.146 398.569 277.264 397.95 277.382C389.694 278.915 382.146 279.976 381.409 280.094L381.468 280.124Z" fill="url(#paint14_radial_3091_705)"/>
<path style="mix-blend-mode:multiply" opacity="0.3" fill-rule="evenodd" clip-rule="evenodd" d="M297.879 232.624C297.879 232.624 295.845 233.007 291.776 233.449C290.951 233.538 290.037 233.626 289.064 233.715C281.221 234.452 268.13 235.189 249.938 234.658C241.506 234.422 234.695 234.009 229.24 233.567C214.056 232.299 209.25 230.589 209.25 230.589L238.705 223.572C238.881 223.543 246.223 222.275 263 223.13C276.179 223.808 288.562 228.496 294.4 231.032C296.612 232.005 297.909 232.653 297.909 232.653L297.879 232.624Z" fill="url(#paint15_linear_3091_705)"/>
<path style="mix-blend-mode:multiply" opacity="0.3" fill-rule="evenodd" clip-rule="evenodd" d="M381.408 239.997C381.408 239.997 367.285 233.776 361.241 231.034C355.167 228.291 313.565 226.817 306.577 227.702C306.577 227.702 331.727 243.741 381.408 239.997Z" fill="url(#paint16_linear_3091_705)"/>
<path style="mix-blend-mode:multiply" opacity="0.3" fill-rule="evenodd" clip-rule="evenodd" d="M381.468 280.124H381.409L384.505 285.225C384.505 285.225 351.63 284.93 338.362 274.994C333.202 271.131 333.202 266.738 333.202 266.738C333.202 266.738 345.527 265.559 358.559 266.649C362.362 266.974 366.224 267.475 369.851 268.242C378.903 270.188 387.276 272.753 392.878 274.581C397.212 276.025 399.837 277.028 399.837 277.028C399.217 277.146 398.569 277.264 397.95 277.382C389.694 278.915 382.146 279.976 381.409 280.094L381.468 280.124Z" fill="url(#paint17_linear_3091_705)"/>
<path fill-rule="evenodd" clip-rule="evenodd" d="M406.941 238.758C405.261 239.583 404.553 239.967 404.848 239.524C404.966 239.318 405.733 239.053 406.941 238.758Z" fill="url(#paint18_linear_3091_705)"/>
<path style="mix-blend-mode:multiply" opacity="0.5" fill-rule="evenodd" clip-rule="evenodd" d="M540.918 166.609C527.208 178.963 502.029 197.538 478.53 214.226C492.947 214.875 505.92 215.7 505.92 215.7H510.166C504.682 221.302 489.704 247.072 489.704 247.072L478.942 248.575C461.665 260.693 421.979 275.023 421.979 275.023C421.831 274.757 416.259 265.558 411.04 256.506L395.06 262.079L392.907 274.61C397.242 276.055 399.866 277.057 399.866 277.057C399.247 277.175 398.598 277.293 397.979 277.411V277.499L397.89 277.617L397.743 277.971C396.947 279.887 394.264 286.138 389.251 293.421C383.178 302.207 375.305 314.679 375.305 314.679C373.477 308.074 369.851 302.502 369.851 302.502L366.224 305.067C366.224 305.067 343.816 285.548 338.362 275.023C333.202 271.16 333.202 266.767 333.202 266.767C333.202 266.767 345.526 265.588 358.558 266.679L355.964 264.821H325.064C321.674 261.077 315.511 255.209 309.438 249.637L308.671 248.929L304.366 245.037C299.885 240.998 295.963 237.519 293.899 235.72L287.472 240.732V246.482C287.472 246.482 272.612 256.772 269.634 256.477C266.656 256.182 254.449 248.605 253.241 248.605C252.032 248.605 235.078 255.268 234.164 254.678C233.25 254.059 213.761 237.253 209.221 230.59L238.675 223.573L236.022 223.042C232.307 219.887 228.621 216.909 225.054 214.108C200.936 195.15 181.358 184.123 181.063 183.975L328.809 191.317L340.278 191.877L350.126 192.378L457.448 177.843L541.125 166.521L543.513 166.196H543.542C543.542 166.196 542.628 166.373 540.977 166.639L540.918 166.609Z" fill="url(#paint19_linear_3091_705)"/>
<path style="mix-blend-mode:screen" opacity="0.6" fill-rule="evenodd" clip-rule="evenodd" d="M540.918 166.609C527.208 178.963 502.029 197.538 478.53 214.226C492.947 214.875 505.92 215.7 505.92 215.7H510.166C504.682 221.302 489.704 247.072 489.704 247.072L478.942 248.575C461.665 260.693 421.979 275.023 421.979 275.023C421.831 274.757 416.259 265.558 411.04 256.506L395.06 262.079L392.907 274.61C397.242 276.055 399.866 277.057 399.866 277.057C399.247 277.175 398.598 277.293 397.979 277.411V277.499L397.89 277.617L397.743 277.971C396.947 279.887 394.264 286.138 389.251 293.421C383.178 302.207 375.305 314.679 375.305 314.679C373.477 308.074 369.851 302.502 369.851 302.502L366.224 305.067C366.224 305.067 343.816 285.548 338.362 275.023C333.202 271.16 333.202 266.767 333.202 266.767C333.202 266.767 345.526 265.588 358.558 266.679L355.964 264.821H325.064C321.674 261.077 315.511 255.209 309.438 249.637L308.671 248.929L304.366 245.037C299.885 240.998 295.963 237.519 293.899 235.72L287.472 240.732V246.482C287.472 246.482 272.612 256.772 269.634 256.477C266.656 256.182 254.449 248.605 253.241 248.605C252.032 248.605 235.078 255.268 234.164 254.678C233.25 254.059 213.761 237.253 209.221 230.59L238.675 223.573L236.022 223.042C232.307 219.887 228.621 216.909 225.054 214.108C200.936 195.15 181.358 184.123 181.063 183.975L328.809 191.317L340.278 191.877L350.126 192.378L457.448 177.843L541.125 166.521L543.513 166.196H543.542C543.542 166.196 542.628 166.373 540.977 166.639L540.918 166.609Z" fill="url(#paint20_linear_3091_705)"/>
<path fill-rule="evenodd" clip-rule="evenodd" d="M543.512 166.167H543.482L518.067 156.791C518.067 156.791 488.022 155.729 445.86 155.464C437.987 155.405 429.702 155.376 421.093 155.405C396.415 155.435 369.201 155.788 342.223 156.761C332.345 157.115 322.498 157.528 312.827 158.059C303.539 158.56 294.37 159.15 285.495 159.828C283.608 159.975 281.75 160.123 279.893 160.27C252.62 162.54 228.207 165.813 210.251 170.413C196.099 174.069 181.534 183.622 181.091 183.916C194.831 189.194 230.566 189.194 230.566 189.194C230.566 189.194 231.244 189.224 232.482 189.283C242.006 189.695 285.377 191.641 333.259 194.059C333.259 194.059 319.313 198.6 311.441 202.55C311.441 202.55 356.316 224.015 359.324 224.074C399.628 224.752 467.825 194.088 467.825 194.088C467.825 194.088 457.005 188.516 421.624 188.988C469.005 179.14 528.003 168.879 540.946 166.639C542.627 166.344 543.512 166.196 543.512 166.196V166.167Z" fill="url(#paint21_radial_3091_705)"/>
<path fill-rule="evenodd" clip-rule="evenodd" d="M561.94 76.7134C561.792 77.362 561.498 78.2466 561.055 79.367C557.812 87.4456 547.552 105.873 547.552 105.873L513.969 109.883L456.475 90.9543C449.133 80.7822 447.954 64.4479 449.133 62.561C449.251 62.384 449.457 62.2071 449.752 62.0302C452.73 60.1727 464.259 57.8435 464.259 57.8435C464.259 57.8435 460.72 50.7378 464.259 45.5486C464.465 45.2537 464.76 44.9294 465.143 44.5461C471.777 38.1775 504.387 20.2806 507.07 20.7523C508.161 20.9292 509.222 22.8162 510.165 25.0865C511.669 28.8015 512.76 33.4895 512.76 33.4895C512.76 33.4895 523.876 24.4968 528.858 25.4403C530.421 25.7352 530.834 28.0644 530.598 31.0718C530.156 37.5878 526.942 47.4355 526.942 47.4355C526.942 47.4355 535.227 46.7279 535.463 50.0302C535.463 50.266 535.433 50.5609 535.316 50.9442C533.93 55.986 522.431 73.3522 522.195 73.6765C523.168 73.0573 554.185 53.3324 558.372 52.8606C558.667 52.8312 558.903 52.8901 559.109 53.067C559.434 53.3619 559.611 53.9516 559.67 54.7181C559.758 56.0744 559.493 58.0204 559.05 60.1727C557.783 66.3349 555.07 74.1482 555.07 74.1482C555.07 74.1482 560.996 73.4406 561.94 75.7994C561.999 75.9763 561.999 76.2711 561.91 76.6839L561.94 76.7134Z" fill="url(#paint22_radial_3091_705)"/>
<g style="mix-blend-mode:soft-light" opacity="0.38">
<path fill-rule="evenodd" clip-rule="evenodd" d="M510.165 25.0562C508.013 35.1988 480.887 57.2825 472.69 54.5994C464.494 51.9164 462.489 48.0244 465.143 44.5158C471.776 38.1472 504.386 20.2503 507.069 20.722C508.16 20.8989 509.221 22.7859 510.165 25.0562Z" fill="#ECFFB8"/>
</g>
<g style="mix-blend-mode:soft-light" opacity="0.38">
<path fill-rule="evenodd" clip-rule="evenodd" d="M530.598 31.071C523.669 46.963 499.993 57.135 496.839 54.8353C493.684 52.5355 503.473 41.0366 512.76 33.4887C512.76 33.4887 523.876 24.496 528.858 25.4395C530.421 25.7343 530.834 28.0636 530.598 31.071Z" fill="#ECFFB8"/>
</g>
<g style="mix-blend-mode:soft-light" opacity="0.38">
<path fill-rule="evenodd" clip-rule="evenodd" d="M535.316 50.9424C529.183 58.1661 501.232 60.2889 499.817 58.0776C498.402 55.8663 519.07 48.7606 526.942 47.4338C526.942 47.4338 535.227 46.7262 535.463 50.0284C535.463 50.2643 535.434 50.5591 535.316 50.9424Z" fill="#ECFFB8"/>
</g>
<g style="mix-blend-mode:soft-light" opacity="0.38">
<path fill-rule="evenodd" clip-rule="evenodd" d="M469.684 63.5924C472.632 73.9413 495.247 68.5752 494.775 65.3025C494.303 62.0297 467.001 54.1279 469.684 63.5924Z" fill="#ECFFB8"/>
</g>
<g style="mix-blend-mode:soft-light" opacity="0.38">
<path fill-rule="evenodd" clip-rule="evenodd" d="M470.626 75.8871C469.83 78.4228 451.697 73.8527 449.103 62.5603C449.132 62.5603 449.339 62.3244 449.722 62.0295C452.7 60.172 464.228 57.8428 464.228 57.8428C471.717 60.29 471.393 73.381 470.626 75.9166V75.8871Z" fill="#ECFFB8"/>
</g>
<g style="mix-blend-mode:soft-light" opacity="0.38">
<path fill-rule="evenodd" clip-rule="evenodd" d="M524.437 94.8166C521.725 96.5857 539.828 104.841 544.781 98.4432C545.872 97.0279 529.332 91.6618 524.437 94.8166Z" fill="#ECFFB8"/>
</g>
<g style="mix-blend-mode:soft-light" opacity="0.38">
<path fill-rule="evenodd" clip-rule="evenodd" d="M561.97 75.8268C561.97 76.1216 561.97 76.4165 561.941 76.7113C561.823 77.5959 561.528 78.4804 561.056 79.3649C557.076 86.5296 541.656 92.279 537.852 93.1046C533.43 94.048 526.796 94.166 526.825 89.478C526.884 81.3109 555.13 74.1757 555.13 74.1757C555.13 74.1757 561.056 73.4681 562 75.8268H561.97Z" fill="#ECFFB8"/>
</g>
<g style="mix-blend-mode:soft-light" opacity="0.38">
<path fill-rule="evenodd" clip-rule="evenodd" d="M559.08 60.2012C557.754 64.4174 554.333 69.4887 546.992 72.9089C533.753 79.0711 523.699 80.4863 522.225 80.0146C520.751 79.5428 516.387 78.9237 522.225 73.7049C523.198 73.0858 554.215 53.3608 558.402 52.8891C558.697 52.8596 558.933 52.9186 559.139 53.0955C559.375 53.4198 559.582 54.0095 559.7 54.7466C559.876 56.1029 559.758 58.0488 559.08 60.2012Z" fill="#ECFFB8"/>
</g>
<path style="mix-blend-mode:multiply" opacity="0.5" fill-rule="evenodd" clip-rule="evenodd" d="M470.627 75.8868C471.895 82.3438 470.627 88.9483 470.627 88.9483L474.666 88.3881V90.511L479.236 89.5969L481.064 88.624C481.064 88.624 474.784 88.3881 472.986 84.9089C471.187 81.4298 470.863 74.6484 470.863 74.6484L470.627 75.9163V75.8868Z" fill="url(#paint23_linear_3091_705)"/>
<path style="mix-blend-mode:multiply" opacity="0.5" fill-rule="evenodd" clip-rule="evenodd" d="M494.776 74.6191C494.687 79.1892 492.859 83.8182 492.859 83.8182L503.297 80.398C503.297 80.398 500.289 81.3121 497.695 78.4816C495.1 75.6511 494.776 74.6191 494.776 74.6191Z" fill="url(#paint24_linear_3091_705)"/>
<path style="mix-blend-mode:multiply" opacity="0.5" fill-rule="evenodd" clip-rule="evenodd" d="M529.242 62.589C523.08 72.3778 514.618 77.0658 514.618 77.0658L516.416 76.5646L518.303 103.159L519.394 77.9209C519.394 77.9209 519.365 76.0044 522.254 73.6456L529.242 62.5596V62.589Z" fill="url(#paint25_linear_3091_705)"/>
<path style="mix-blend-mode:multiply" opacity="0.5" fill-rule="evenodd" clip-rule="evenodd" d="M544.78 98.4424L544.839 103.573H548.819L550.323 100.831C550.323 100.831 547.492 101.863 546.165 100.831C544.839 99.7987 544.839 98.4424 544.839 98.4424H544.78Z" fill="url(#paint26_linear_3091_705)"/>
<path style="mix-blend-mode:multiply" opacity="0.5" fill-rule="evenodd" clip-rule="evenodd" d="M522.844 100.506V107.612L518.686 108.614C518.686 108.614 521.458 106.727 521.9 104.575C522.342 102.422 522.814 100.535 522.814 100.535L522.844 100.506Z" fill="url(#paint27_linear_3091_705)"/>
<path style="mix-blend-mode:multiply" opacity="0.5" fill-rule="evenodd" clip-rule="evenodd" d="M496.219 54.2167C496.396 60.7622 494.775 68.5165 494.775 68.5165C494.775 68.5165 497.458 61.6467 499.433 57.5189C499.433 57.5189 501.35 56.0152 508.927 51.6221C508.927 51.6221 502.264 55.1602 498.932 55.1602C496.455 55.1602 496.219 54.2167 496.219 54.2167Z" fill="url(#paint28_linear_3091_705)"/>
<path fill-rule="evenodd" clip-rule="evenodd" d="M217.801 134.972C224.759 153.754 225.083 167.995 225.968 168.29C226.882 168.584 296.553 170.412 341.104 164.339L337.153 171.002C337.153 171.002 349.006 174.688 355.64 175.543C364.927 176.752 382.293 174.334 382.293 174.334V171.916C382.293 171.916 402.284 174.245 418.352 174.186C434.421 174.127 454.707 172.506 454.707 172.506L464.879 170.265C464.879 170.265 501.675 164.339 523.169 160.093C523.169 160.093 545.459 126.186 557.754 103.454L515.945 109.351C515.945 109.351 514.56 90.8935 513.026 68.338L459.601 90.2743V83.4634L437.547 86.5593L433.537 76.0039L361.212 58.0186L358.706 74.8246L290.096 73.9106C290.096 73.9106 294.637 104.81 301.448 126.628C301.448 126.628 258.725 127.985 242.361 130.255C225.997 132.525 217.771 134.913 217.771 134.913L217.801 134.972Z" fill="url(#paint29_linear_3091_705)"/>
<path style="mix-blend-mode:multiply" opacity="0.5" fill-rule="evenodd" clip-rule="evenodd" d="M422.627 102.244L423.688 113.448L426.872 113.861L426.371 110.529C426.371 110.529 432.828 108.495 440.907 102.451C448.986 96.4063 459.629 86.2047 459.629 86.2047V83.4922L422.627 102.244Z" fill="url(#paint30_linear_3091_705)"/>
<path style="mix-blend-mode:multiply" opacity="0.5" fill-rule="evenodd" clip-rule="evenodd" d="M469.153 97.2323C463.905 103.07 456.239 127.159 456.239 127.159L445.978 136.476V142.225L515.974 109.38L513.202 74.3525L470.008 94.9325L469.153 97.2028V97.2323Z" fill="url(#paint31_linear_3091_705)"/>
<path style="mix-blend-mode:multiply" opacity="0.5" fill-rule="evenodd" clip-rule="evenodd" d="M379.285 169.852L382.322 174.363L372.622 175.13C381.555 175.631 413.693 175.808 421.86 174.039L372.622 165.341L379.285 169.852Z" fill="url(#paint32_linear_3091_705)"/>
<path style="mix-blend-mode:multiply" opacity="0.5" fill-rule="evenodd" clip-rule="evenodd" d="M287.5 161.479V168.496C287.5 168.496 305.25 167.553 318.989 166.167L341.515 163.661L341.102 159.975L371.619 156.466L369.909 147.297L270.842 149.538L287.53 161.479H287.5Z" fill="url(#paint33_linear_3091_705)"/>
<path style="mix-blend-mode:multiply" opacity="0.5" fill-rule="evenodd" clip-rule="evenodd" d="M424.131 132.084L414.725 159.269L421.86 161.185L419.59 156.173L442.824 143.878L499.758 117.283L455.649 131.052L449.163 117.283L424.131 132.084Z" fill="url(#paint34_linear_3091_705)"/>
<path style="mix-blend-mode:multiply" opacity="0.5" fill-rule="evenodd" clip-rule="evenodd" d="M325.093 111.033C326.567 117.991 328.395 139.219 328.395 139.219L341.869 143.966L341.103 114.069L385.948 111.033L385.83 108.615L321.23 99.0029L325.122 111.033H325.093Z" fill="url(#paint35_linear_3091_705)"/>
<path style="mix-blend-mode:multiply" opacity="0.5" fill-rule="evenodd" clip-rule="evenodd" d="M436.544 157.322C443.503 163.454 455.621 172.742 455.621 172.742L525.616 159.562L557.754 103.483L436.544 157.322Z" fill="url(#paint36_linear_3091_705)"/>
<path style="mix-blend-mode:multiply" opacity="0.5" fill-rule="evenodd" clip-rule="evenodd" d="M369.91 63.3281C385.979 88.6256 408.888 87.3873 408.888 87.3873L439.463 86.4143L435.424 80.9302L369.91 63.3281Z" fill="url(#paint37_linear_3091_705)"/>
<path fill-rule="evenodd" clip-rule="evenodd" d="M369.91 147.27C361.831 150.514 351.04 154.022 342.224 156.735C333.202 159.506 326.185 161.482 326.185 161.482C322.087 160.273 317.516 159.123 312.828 158.062C294.43 153.845 274.293 150.75 274.293 150.75L285.497 159.831L287.531 161.482C287.531 161.482 284.701 161.157 279.895 160.273C274.823 159.359 267.511 157.826 258.931 155.379C230.243 147.27 217.83 134.975 217.83 134.975C215.472 133.354 216.327 128.017 216.327 128.017C236.169 125.541 301.507 126.69 301.507 126.69C339.128 133.236 369.939 147.3 369.939 147.3L369.91 147.27Z" fill="url(#paint38_radial_3091_705)"/>
<path fill-rule="evenodd" clip-rule="evenodd" d="M290.096 73.9722C290.096 73.9722 299 90.4539 306.253 98.9454V92.5768C306.253 92.5768 309.379 101.658 325.094 111.063C325.094 111.063 326.391 104.931 327.541 104.518C330.401 103.486 364.426 108.941 386.244 108.941C386.244 108.941 370.794 98.6505 369.88 97.4417C368.966 96.2328 369.88 88.6554 369.88 88.6554C369.88 88.6554 387.453 100.331 403.197 99.4761C418.942 98.6211 431.06 96.5277 431.06 96.5277L422.569 102.277C422.569 102.277 449.606 91.4269 459.571 83.5251C459.571 83.5251 451.728 84.5866 436.839 84.8814C368.642 86.2082 358.352 79.5448 358.352 79.5448L358.676 74.8862C358.676 74.8862 353.487 72.5275 336.828 71.2007C320.17 69.8739 292.985 72.9108 292.985 72.9108L290.066 74.0017L290.096 73.9722Z" fill="url(#paint39_radial_3091_705)"/>
<path fill-rule="evenodd" clip-rule="evenodd" d="M361.241 58.0509C370.204 64.9797 398.391 77.6874 435.423 80.9602L433.566 76.0658C433.566 76.0658 394.44 56.8421 379.904 55.4563C365.369 54.1 361.241 55.4563 361.241 55.4563V58.0509Z" fill="url(#paint40_radial_3091_705)"/>
<path style="mix-blend-mode:multiply" opacity="0.3" fill-rule="evenodd" clip-rule="evenodd" d="M361.241 58.0501C383.619 72.5564 414.725 78.0404 414.725 78.0404C414.725 78.0404 394.44 56.8118 379.904 55.426C365.369 54.0698 361.241 55.426 361.241 55.426V58.0206V58.0501Z" fill="url(#paint41_linear_3091_705)"/>
<path fill-rule="evenodd" clip-rule="evenodd" d="M449.871 116.842L424.131 132.086C424.131 132.086 406.263 129.904 386.951 126.543C367.787 123.211 347.177 118.729 341.133 114.041C341.133 114.041 386.273 108.882 404.141 111.005C415.61 112.361 431.237 114.366 440.937 115.634C446.333 116.341 449.9 116.813 449.9 116.813L449.871 116.842Z" fill="url(#paint42_radial_3091_705)"/>
<path fill-rule="evenodd" clip-rule="evenodd" d="M426.341 110.532C426.341 110.532 435.865 109.146 447.953 105.637C466.558 100.271 513.674 75.2095 513.674 75.2095C513.674 75.2095 513.438 71.1407 513.025 68.3691C513.025 68.3691 477.29 78.04 465.437 84.9982C453.585 91.9565 426.312 110.502 426.312 110.502L426.341 110.532Z" fill="url(#paint43_radial_3091_705)"/>
<path fill-rule="evenodd" clip-rule="evenodd" d="M559.847 100.744C557.842 103.398 521.871 138.926 445.831 155.467C442.794 156.116 439.699 156.764 436.544 157.354L419.59 156.204C419.59 156.204 420.092 155.939 421.065 155.408C428.524 151.369 462.932 133 491.001 119.968C498.52 116.489 505.596 113.393 511.581 111.064C513.114 110.474 514.589 109.914 515.974 109.413C545.311 98.9752 559.876 100.744 559.876 100.744H559.847Z" fill="url(#paint44_radial_3091_705)"/>
<path fill-rule="evenodd" clip-rule="evenodd" d="M511.581 111.034C511.257 111.182 503.797 114.897 491.001 119.938C485.959 121.914 480.092 124.125 473.517 126.395C458.362 131.614 445.979 136.479 445.979 136.479C450.784 131.319 478.736 107.083 487.168 107.408C495.63 107.702 511.551 111.034 511.551 111.034H511.581Z" fill="url(#paint45_radial_3091_705)"/>
<path fill-rule="evenodd" clip-rule="evenodd" d="M341.103 159.977C355.963 166.198 379.285 169.884 379.285 169.884L375.009 166.994C375.009 166.994 400.897 172.095 427.757 174.69C444.887 176.37 455.619 172.773 455.619 172.773C455.619 172.773 413.191 155.584 391.078 155.584C368.965 155.584 341.103 159.977 341.103 159.977Z" fill="url(#paint46_radial_3091_705)"/>
<path style="mix-blend-mode:multiply" opacity="0.3" fill-rule="evenodd" clip-rule="evenodd" d="M371.62 156.438L369.91 147.268C369.91 147.268 278.42 133.647 240.798 127.131C240.798 127.131 236.14 125.539 216.297 128.015C216.297 128.015 215.472 133.381 217.801 134.974C217.801 134.974 230.214 147.268 258.902 155.377C267.482 157.794 274.794 159.327 279.865 160.271C252.592 162.541 228.179 165.814 210.223 170.414C195.835 174.099 181.034 183.917 181.034 183.917C194.774 189.195 230.508 189.195 230.508 189.195C230.508 189.195 278.981 191.318 333.202 194.03C333.202 194.03 319.256 198.571 311.384 202.522C311.384 202.522 356.259 223.986 359.266 224.045C399.571 224.724 467.768 194.06 467.768 194.06C467.768 194.06 456.947 188.487 421.566 188.959C475.08 177.814 543.454 166.168 543.454 166.168L518.805 160.89C518.805 160.89 464.849 170.296 455.591 172.743C402.755 153.401 398.569 155.465 371.561 156.438H371.62ZM220.838 132.084L303.541 141.519C303.541 141.519 252.651 151.013 220.838 132.084ZM214.469 179.465L233.486 179.111C233.486 179.111 222.961 182.237 214.469 179.465ZM333.232 204.733L359.531 200.458L352.632 202.817C355.934 202.817 362.274 204.674 362.274 204.674H333.232V204.733ZM380.082 215.731L370.441 214.787C370.441 214.787 381.143 212.576 387.777 214.787L380.082 215.731ZM378.166 197.863L312.976 188.959C321.467 185.922 383.944 188.959 383.944 188.959L340.249 191.878L378.166 197.834V197.863ZM426.726 202.64L402.785 204.586L416.23 202.64H426.726Z" fill="url(#paint47_linear_3091_705)"/>
<path fill-rule="evenodd" clip-rule="evenodd" d="M381.409 105.636L385.831 108.643C384.681 107.877 381.556 105.783 381.409 105.665V105.636Z" fill="#D9DEF1"/>
<path fill-rule="evenodd" clip-rule="evenodd" d="M256.425 168.644C256.425 168.644 255.364 170.708 249.319 171.327C243.246 171.946 240.533 168.644 240.533 168.644L239.177 168.88L237.201 171.917C237.201 171.917 227.796 175.248 220.543 175.602C213.26 175.956 211.255 175.985 211.255 175.985L204.798 179.081C199.343 179.907 191.825 179.081 191.825 179.081C191.825 179.081 189.053 175.838 187.845 175.602C187.727 175.602 187.668 175.514 187.697 175.396C187.786 174.393 192.975 170.265 198.164 168.88C202.705 167.671 207.629 169.322 209.516 170.059C209.958 170.236 210.223 170.354 210.282 170.383C210.282 170.383 209.073 167.641 209.28 164.811C209.427 162.747 210.341 160.624 213.024 159.474C219.216 156.821 235.757 151.867 238.587 153.283C238.587 153.283 238.734 153.371 238.793 153.401C240.916 155.229 240.002 167.022 240.002 167.022C240.002 167.022 240.297 165.961 240.887 164.516C241.712 162.452 243.069 159.592 244.867 158.088C247.786 155.612 252.946 159.445 254.951 160.27C255.039 160.3 255.098 160.329 255.187 160.359C257.015 160.978 256.543 168.585 256.543 168.585L256.425 168.644Z" fill="url(#paint48_radial_3091_705)"/>
<g style="mix-blend-mode:soft-light" opacity="0.38">
<path fill-rule="evenodd" clip-rule="evenodd" d="M187.637 175.426C187.726 174.423 192.915 170.296 198.104 168.91C202.645 167.701 207.569 169.352 209.456 170.089C209.751 170.237 210.016 170.355 210.222 170.414C213.23 171.505 195.185 177.932 187.637 175.396V175.426Z" fill="#ECFFB8"/>
</g>
<g style="mix-blend-mode:soft-light" opacity="0.38">
<path fill-rule="evenodd" clip-rule="evenodd" d="M217.563 168.408C210.693 171.002 210.045 170.295 209.219 164.87C209.367 162.806 210.281 160.683 212.964 159.533C219.155 156.879 235.696 151.926 238.527 153.341C240.414 158.766 224.816 165.666 217.593 168.408H217.563Z" fill="#ECFFB8"/>
</g>
<g style="mix-blend-mode:soft-light" opacity="0.38">
<path fill-rule="evenodd" clip-rule="evenodd" d="M240.797 164.605C241.623 162.541 242.979 159.681 244.777 158.177C247.696 155.701 252.856 159.534 254.861 160.359C255.274 168.349 243.097 166.698 240.797 164.605Z" fill="#ECFFB8"/>
</g>
<path style="mix-blend-mode:multiply" opacity="0.5" fill-rule="evenodd" clip-rule="evenodd" d="M204.768 179.111C211.137 174.57 210.223 170.413 210.223 170.413C210.223 170.413 211.137 172.389 211.225 175.986L204.768 179.081V179.111Z" fill="url(#paint49_linear_3091_705)"/>
<path style="mix-blend-mode:multiply" opacity="0.5" fill-rule="evenodd" clip-rule="evenodd" d="M237.201 171.946C237.201 171.946 240.621 162.069 239.618 155.376C239.618 155.376 240.591 160.329 239.943 167.081L240.709 164.87C240.709 164.87 240.297 167.347 242.862 170.295C242.862 170.295 241.358 169.646 240.562 168.644L239.206 168.88C239.206 168.88 237.613 171.297 237.23 171.917L237.201 171.946Z" fill="url(#paint50_linear_3091_705)"/>
<path style="mix-blend-mode:multiply" opacity="0.3" fill-rule="evenodd" clip-rule="evenodd" d="M369.909 88.625C384.061 83.9075 397.27 85.0279 397.27 85.0279C397.27 85.0279 373.624 83.7306 358.44 79.5144L358.764 74.8558C358.764 74.8558 341.427 69.9615 323.265 70.8755C323.265 70.8755 355.963 94.6692 376.278 102.129L369.909 97.4113V88.625Z" fill="url(#paint51_linear_3091_705)"/>
<path style="mix-blend-mode:multiply" opacity="0.3" fill-rule="evenodd" clip-rule="evenodd" d="M449.872 116.84C449.872 116.84 446.304 116.368 440.908 115.66L386.923 126.569C406.235 129.931 424.102 132.112 424.102 132.112L449.842 116.869L449.872 116.84Z" fill="url(#paint52_linear_3091_705)"/>
<path style="mix-blend-mode:multiply" opacity="0.5" fill-rule="evenodd" clip-rule="evenodd" d="M410.097 130.196C405.881 130.196 384.092 126.452 350.863 118.461C350.391 118.344 349.241 139.218 349.241 139.218L369.91 147.268L371.62 156.437L396.446 155.582L414.696 159.268C414.696 159.268 425.517 168.673 438.254 170.413C450.992 172.152 454.707 172.565 454.707 172.565C454.707 172.565 517.803 160.771 518.805 160.919C519.837 161.066 527.297 158.177 527.297 158.177C527.297 158.177 557.99 104.899 559.818 100.771C559.818 100.771 540.889 98.8545 515.916 109.439L512.997 68.4268C512.997 68.4268 469.036 96.997 455.06 103.218L454.058 129.017L477.881 111.09H511.493C511.493 111.09 487.817 122.914 459.159 124.712L454.058 129.017L449.812 116.869L441.055 107.523L426.284 110.589L428.112 114.098L447.277 117.341C447.277 117.341 423.247 130.373 410.008 130.285L410.097 130.196Z" fill="url(#paint53_linear_3091_705)"/>
<path style="mix-blend-mode:multiply" opacity="0.5" fill-rule="evenodd" clip-rule="evenodd" d="M413.842 98.6783L412.928 112.123L394.294 127.809L386.274 108.939L375.512 102.157L376.927 92.634C376.927 92.634 396.711 97.9412 418.412 90.5407C422.834 89.037 436.898 84.9092 436.898 84.9092L413.842 98.7373V98.6783Z" fill="url(#paint54_linear_3091_705)"/>
<path fill-rule="evenodd" clip-rule="evenodd" d="M318.99 166.169C318.99 166.169 235.697 184.774 233.81 189.373C233.81 189.373 233.81 189.373 233.81 189.403C233.81 189.403 233.81 189.403 233.81 189.462C233.81 189.462 233.81 189.462 233.81 189.491C232.1 195.683 238.704 293.423 238.704 293.423L261.378 298.229C261.378 298.229 259.078 279.625 263.176 256.45C263.176 256.45 268.336 290.239 266.066 311.143L274.705 308.431C274.705 308.431 274.97 234.632 279.51 190.11C279.51 190.11 286.41 187.958 291.687 192.322L295.167 304.804L297.879 303.448C297.879 303.448 302.42 198.956 303.599 193.147C304.218 190.11 337.241 171.034 337.241 171.034L341.604 163.663C341.604 163.663 321.938 166.317 319.078 166.169H318.99ZM238.262 193.619C238.793 191.644 240.031 248.902 240.031 248.902C240.031 248.902 235.992 201.934 238.262 193.619ZM250.675 288.588L248.817 195.771C251.854 200.017 256.483 196.361 256.483 197.983C256.483 199.693 250.675 288.558 250.675 288.558V288.588Z" fill="#D9DEF1"/>
<path fill-rule="evenodd" clip-rule="evenodd" d="M452.967 84.4387C447.571 85.1463 436.868 84.8514 436.868 84.8514C428.731 86.532 409.743 96.7336 409.743 97.3528C409.743 97.5002 409.743 98.2963 409.743 99.4756C409.743 99.5641 409.743 99.6525 409.743 99.7115L409.831 105.019V105.608C409.89 108.173 409.92 110.532 409.92 111.417V111.712C409.92 112.714 395.59 125.392 394.382 127.279C394.323 127.368 394.264 127.545 394.234 127.78C393.497 131.849 396.416 155.555 396.416 155.555H392.731L392.141 127.427V126.395C392.141 126.395 393.32 115.751 371.561 123.741C371.561 123.741 371.531 123.741 371.502 123.741C369.821 124.36 374.834 156.174 374.834 156.174L371.561 156.41L369.851 147.24L363.482 145.206C363.482 145.206 362.863 122.827 361.182 123.741C359.472 124.655 358.824 142.729 358.824 142.729L352.573 140.4L353.988 119.407L385.92 111.004L386.215 108.881L388.75 108.97L399.659 109.766L400.367 99.4167C400.367 99.4167 392.377 91.279 381.379 94.5223C381.379 94.5223 381.232 104.989 381.379 105.579L378.165 103.397L378.46 91.8982C378.46 91.8982 391.374 85.5296 401.694 83.4362C412.013 81.3133 452.937 84.4092 452.937 84.4092L452.967 84.4387Z" fill="#D9DEF1"/>
<path fill-rule="evenodd" clip-rule="evenodd" d="M439.168 115.427C440.495 115.604 442.146 115.81 443.709 116.046L439.168 115.456V115.427Z" fill="#D9DEF1"/>
<path fill-rule="evenodd" clip-rule="evenodd" d="M436.809 108.351L439.168 115.427C437.782 115.25 436.75 115.132 436.514 115.102C435.718 115.014 431.354 114.424 431.354 114.424C431.354 114.424 432.947 109.766 433.241 109.088C433.536 108.41 452.937 91.515 459.63 86.1784C460.308 85.6182 465.497 84.999 465.497 84.999C448.278 96.9696 436.809 108.321 436.809 108.321V108.351Z" fill="#D9DEF1"/>
<path fill-rule="evenodd" clip-rule="evenodd" d="M514.942 330.661L511.669 330.131C511.669 330.131 513.025 175.338 511.227 171.948C511.138 171.8 511.05 171.653 510.932 171.535C508.396 168.793 497.841 171.063 498.195 173.481C498.195 173.628 498.254 173.864 498.254 174.218C498.637 179.85 499.227 210.336 498.843 215.702C498.843 215.702 498.843 215.702 498.843 215.732C498.755 216.852 482.686 225.196 477.644 228.823C463.551 238.995 456.828 239.938 456.504 242.651C456.209 245.364 454.882 323.674 454.882 323.674H439.226C439.226 323.674 440.435 281.924 438.931 279.506C437.428 277.089 434.686 324.234 434.686 324.234L431.649 323.674C431.649 323.674 431.649 256.155 432.327 247.074C432.356 246.631 432.386 246.337 432.415 246.189C433.123 243.152 474.814 220.508 483.806 214.346C484.72 213.727 485.281 213.255 485.457 213.019C487.285 210.307 483.747 181.471 483.158 179.142C482.538 176.813 461.457 173.157 459.836 171.063C458.214 168.97 454.587 153.432 454.587 153.432C454.587 153.432 442.145 144.233 442.764 143.908C443.383 143.584 444.179 138.749 444.062 137.835C443.855 135.918 450.637 133.058 451.639 129.019C452.641 124.979 450.076 118.169 449.103 117.314C448.661 116.93 446.243 116.458 443.649 116.075L449.811 116.871L454.057 129.019L445.919 136.537V142.287C445.919 142.287 463.521 147.653 475.462 147.535V165.049C475.462 165.049 511.433 169.294 514.706 171.063C514.794 171.122 514.853 171.152 514.883 171.181C516.475 172.862 514.883 330.661 514.883 330.661H514.942Z" fill="#D9DEF1"/>
<path style="mix-blend-mode:multiply" opacity="0.5" fill-rule="evenodd" clip-rule="evenodd" d="M248.818 193.56C243.983 193.766 237.909 191.348 233.84 189.373C233.84 189.373 233.84 189.373 233.84 189.403C233.84 189.403 233.84 189.403 233.84 189.461C233.84 189.461 233.84 189.462 233.84 189.491C232.13 195.683 238.735 293.423 238.735 293.423L261.408 298.229C261.408 298.229 259.108 279.624 263.207 256.45C263.207 256.45 268.366 290.239 266.096 311.143L274.735 308.43C274.735 308.43 275 234.631 279.541 190.11C279.541 190.11 253.742 193.353 248.877 193.53L248.818 193.56ZM250.676 288.587L248.818 195.771C251.855 200.017 256.484 196.361 256.484 197.982C256.484 199.693 250.676 288.558 250.676 288.558V288.587Z" fill="url(#paint55_linear_3091_705)"/>
<path style="mix-blend-mode:multiply" opacity="0.5" fill-rule="evenodd" clip-rule="evenodd" d="M303.54 193.148C302.39 198.956 297.82 303.448 297.82 303.448L295.108 304.805L291.629 192.322L303.54 193.118V193.148Z" fill="url(#paint56_linear_3091_705)"/>
<path style="mix-blend-mode:multiply" opacity="0.5" fill-rule="evenodd" clip-rule="evenodd" d="M432.387 247.072C432.387 247.072 443.915 245.509 456.534 242.649C456.24 245.362 454.913 323.672 454.913 323.672H439.257C439.257 323.672 440.466 281.922 438.962 279.505C437.458 277.087 434.716 324.232 434.716 324.232L431.679 323.672C431.679 323.672 431.679 256.153 432.357 247.072H432.387Z" fill="url(#paint57_linear_3091_705)"/>
<path style="mix-blend-mode:multiply" opacity="0.5" fill-rule="evenodd" clip-rule="evenodd" d="M498.874 215.702L492.004 215.584L484.014 214.847C484.014 214.847 483.955 214.67 483.866 214.346C484.78 213.727 485.341 213.255 485.518 213.019C487.346 210.306 483.807 181.471 483.218 179.142C487.08 177.52 492.564 175.751 498.284 174.218C498.668 179.849 499.257 210.336 498.874 215.702Z" fill="url(#paint58_linear_3091_705)"/>
<path style="mix-blend-mode:multiply" opacity="0.5" fill-rule="evenodd" clip-rule="evenodd" d="M514.942 330.662L511.67 330.131C511.67 330.131 513.026 175.339 511.227 171.948C511.139 171.801 511.051 171.653 510.933 171.535C512.259 171.329 513.557 171.181 514.766 171.063C514.854 171.122 514.913 171.152 514.942 171.181C516.535 172.862 514.942 330.662 514.942 330.662Z" fill="url(#paint59_linear_3091_705)"/>
<path style="mix-blend-mode:multiply" opacity="0.5" fill-rule="evenodd" clip-rule="evenodd" d="M475.492 148.154C466.528 151.191 454.617 153.403 454.617 153.403C454.617 153.403 457.123 167.702 459.865 171.034L475.492 165.019V148.154Z" fill="url(#paint60_linear_3091_705)"/>
<path style="mix-blend-mode:multiply" opacity="0.5" fill-rule="evenodd" clip-rule="evenodd" d="M381.408 94.5811C381.408 94.5811 381.26 105.048 381.408 105.638L378.194 103.456L378.489 91.957C380.346 94.3747 381.408 94.5811 381.408 94.5811Z" fill="url(#paint61_linear_3091_705)"/>
<path fill-rule="evenodd" clip-rule="evenodd" d="M388.779 109.028L399.688 109.824L386.243 108.91L388.779 109.028Z" fill="url(#paint62_linear_3091_705)"/>
<path style="mix-blend-mode:multiply" opacity="0.5" fill-rule="evenodd" clip-rule="evenodd" d="M409.978 111.742L399.688 109.826L400.395 99.4766H409.801V99.7419L409.889 105.049V105.639L409.978 111.447V111.742Z" fill="url(#paint63_linear_3091_705)"/>
<path style="mix-blend-mode:multiply" opacity="0.5" fill-rule="evenodd" clip-rule="evenodd" d="M374.892 156.203L371.62 156.439L369.91 147.27L363.541 145.235C363.541 145.235 362.922 122.857 361.241 123.771C359.531 124.685 358.882 142.759 358.882 142.759L352.632 140.429L354.047 119.437C356.583 120.586 363.806 122.208 371.62 123.741C371.62 123.741 371.59 123.741 371.561 123.741C369.88 124.36 374.892 156.174 374.892 156.174V156.203Z" fill="url(#paint64_linear_3091_705)"/>
<path fill-rule="evenodd" clip-rule="evenodd" d="M396.445 155.585H392.76L392.17 127.457C392.937 127.575 393.644 127.693 394.263 127.811C393.526 131.88 396.445 155.585 396.445 155.585Z" fill="url(#paint65_linear_3091_705)"/>
<path style="mix-blend-mode:multiply" opacity="0.5" fill-rule="evenodd" clip-rule="evenodd" d="M461.016 171.033C478.795 173.539 487.64 175.426 489.704 176.724C491.768 177.991 485.812 211.987 485.812 211.987C485.812 211.987 477.969 186.336 476.259 177.933L459.217 171.534L461.016 171.033Z" fill="url(#paint66_linear_3091_705)"/>
<path style="mix-blend-mode:multiply" opacity="0.5" fill-rule="evenodd" clip-rule="evenodd" d="M296.729 176.988C295.049 176.988 260.965 192.35 260.965 192.35V287.672C260.965 287.672 262.498 257.805 263.117 256.478C263.737 255.151 265.152 192.703 265.152 192.703L296.729 176.988Z" fill="url(#paint67_linear_3091_705)"/>
<path style="mix-blend-mode:multiply" opacity="0.5" fill-rule="evenodd" clip-rule="evenodd" d="M282.312 174.779L238.675 191.467C238.675 191.467 238.233 189.993 237.555 197.836C236.876 205.679 242.803 294.338 242.803 294.338L238.645 293.453C238.645 293.453 231.215 194.268 233.781 189.374C234.223 188.519 282.253 174.779 282.253 174.779H282.312Z" fill="url(#paint68_linear_3091_705)"/>
<path style="mix-blend-mode:multiply" opacity="0.5" fill-rule="evenodd" clip-rule="evenodd" d="M397.772 113.863C378.077 116.664 366.46 122.709 366.46 122.709L373.713 156.439L374.922 156.203C374.922 156.203 369.438 123.799 374.008 121.5C383.03 116.959 397.801 113.863 397.801 113.863H397.772Z" fill="url(#paint69_linear_3091_705)"/>
<path style="mix-blend-mode:multiply" opacity="0.5" fill-rule="evenodd" clip-rule="evenodd" d="M468.829 150.159C471.453 158.769 470.038 167.142 470.038 167.142C470.038 167.142 470.863 152.488 467.974 151.545C465.114 150.601 461.045 171.034 461.045 171.034C461.045 171.034 463.374 153.049 464.17 151.339C464.406 150.837 468.829 150.159 468.829 150.159Z" fill="url(#paint70_linear_3091_705)"/>
<path style="mix-blend-mode:multiply" opacity="0.5" fill-rule="evenodd" clip-rule="evenodd" d="M399.925 90.3643C393.32 91.868 386.922 93.637 386.922 93.637C386.922 93.637 393.114 92.0154 399.925 90.3643Z" fill="url(#paint71_linear_3091_705)"/>
<path style="mix-blend-mode:multiply" opacity="0.5" fill-rule="evenodd" clip-rule="evenodd" d="M416.996 87.1212C415.404 86.7969 407.325 88.5954 399.925 90.3645C405.998 88.9787 412.22 88.7428 413.812 88.33C421.153 86.4431 403.079 99.0623 402.726 99.4751C402.726 99.4751 402.077 105.283 402.342 110.532H402.755C402.755 110.532 401.812 100.212 404.613 100.625C406.116 100.831 407.001 111.387 407.001 111.387H408.033C406.765 107.377 405.851 100.979 405.527 99.4751C410.686 91.9861 419.826 87.6814 416.966 87.1212H416.996Z" fill="url(#paint72_linear_3091_705)"/>
<path fill-rule="evenodd" clip-rule="evenodd" d="M388.279 109.058C389.193 107.053 390.903 109.382 390.903 109.382C390.903 109.382 397.802 107.643 396.475 109.825C396.475 109.825 401.104 106.847 402.814 106.788C404.524 106.729 406.205 110.503 406.205 110.503C406.205 110.503 407.532 109.117 408.741 109.854C409.979 110.591 409.979 111.712 409.979 111.712C409.979 111.712 387.895 109.795 388.249 109.029L388.279 109.058Z" fill="url(#paint73_linear_3091_705)"/>
<path fill-rule="evenodd" clip-rule="evenodd" d="M459.248 171.566C462.019 166.495 463.022 169.237 463.022 169.237C463.022 169.237 463.228 164.697 464.349 164.903C465.469 165.109 464.349 169.031 464.349 169.031C464.349 169.031 466.059 166.849 467.179 166.996C467.179 166.996 466.884 164.903 467.975 164.903C469.096 164.903 472.162 166.377 472.162 166.377C472.162 166.377 473.931 163.105 476.054 163.606C476.054 163.606 478.295 162.102 478.796 162.603C479.297 163.105 479.798 165.611 479.503 165.552C479.209 165.522 459.248 171.596 459.248 171.596V171.566Z" fill="url(#paint74_linear_3091_705)"/>
<path fill-rule="evenodd" clip-rule="evenodd" d="M480.122 216.705C480.476 211.928 484.014 214.818 484.014 214.818C484.014 214.818 484.928 211.722 486.844 211.987C488.761 212.253 491.09 215.496 491.09 215.496C491.09 215.496 493.891 213.432 495.925 214.346C495.925 214.346 496.132 211.338 497.547 211.987C498.962 212.636 500.466 215.732 500.466 215.732L480.122 216.734V216.705Z" fill="url(#paint75_linear_3091_705)"/>
<path fill-rule="evenodd" clip-rule="evenodd" d="M543.512 166.169C543.512 166.169 533.812 167.967 528.682 166.169L526.264 162.896C526.264 162.896 523.316 162.572 518.863 160.891C518.863 160.891 515.768 156.616 515.768 152.901C515.768 152.37 515.827 151.839 515.974 151.338C517.153 147.387 532.043 137.215 539.296 134.886C545.812 132.793 551.856 131.112 553.006 132.763C553.154 132.94 553.213 133.176 553.213 133.441C553.213 136.154 547.139 149.805 547.139 149.805C547.139 149.805 554.421 150.247 555.011 153.048C555.63 155.849 543.512 166.139 543.512 166.139V166.169Z" fill="url(#paint76_radial_3091_705)"/>
<g style="mix-blend-mode:soft-light" opacity="0.38">
<path fill-rule="evenodd" clip-rule="evenodd" d="M553.006 132.763C553.006 132.911 553.006 133.058 552.977 133.235C552.063 138.365 530.48 156.675 515.768 152.901C515.768 152.37 515.827 151.839 515.974 151.338C517.153 147.387 532.043 137.215 539.296 134.886C545.812 132.793 551.856 131.112 553.006 132.763Z" fill="#ECFFB8"/>
</g>
<g style="mix-blend-mode:soft-light" opacity="0.38">
<path fill-rule="evenodd" clip-rule="evenodd" d="M555.01 153.077C554.096 156.645 532.101 162.984 527.324 157.323C526.116 155.908 547.108 149.805 547.108 149.805C547.108 149.805 554.391 150.247 554.981 153.048L555.01 153.077Z" fill="#ECFFB8"/>
</g>
<path style="mix-blend-mode:multiply" opacity="0.5" fill-rule="evenodd" clip-rule="evenodd" d="M527.354 157.324C526.853 159.712 526.234 162.897 526.234 162.897L528.651 166.169C528.651 166.169 530.45 166.818 532.484 166.877C532.484 166.877 528.268 166.405 527.649 162.631C527.03 158.857 527.354 157.324 527.354 157.324Z" fill="url(#paint77_linear_3091_705)"/>
</g>
<path fill-rule="evenodd" clip-rule="evenodd" d="M419.559 18.5993C419.559 18.5993 444.827 21.1349 458.803 20.5158L455.589 18.5993C455.589 18.5993 455.825 0.997218 447.098 0.0537227C436.336 -1.09616 427.697 16.5944 427.697 16.5944C427.697 16.5944 425.751 10.2258 421.594 12.0243C417.437 13.8229 419.53 18.6288 419.53 18.6288L419.559 18.5993Z" fill="url(#paint78_linear_3091_705)"/>
<path fill-rule="evenodd" clip-rule="evenodd" d="M419.56 18.5988C424.13 17.8617 428.052 17.6553 428.052 17.6553L426.99 18.127C426.99 18.127 448.69 18.245 458.833 20.5152C458.833 20.5152 450.872 20.8101 436.572 19.9845C422.273 19.159 419.59 18.6283 419.59 18.6283L419.56 18.5988Z" fill="url(#paint79_linear_3091_705)"/>
<path fill-rule="evenodd" clip-rule="evenodd" d="M428.022 17.6566C428.022 17.6566 427.196 11.1701 422.892 11.7008C418.587 12.202 418.528 15.6812 419.56 18.6001L428.051 17.6566H428.022Z" fill="url(#paint80_linear_3091_705)"/>
<path fill-rule="evenodd" clip-rule="evenodd" d="M367.196 341.393C367.196 341.393 402.606 342.189 411.51 340.568C411.51 340.568 405.879 338.18 404.67 337.59C403.461 337 398.98 322.288 388.542 325.56C378.105 328.833 374.773 338.651 374.773 338.651C374.773 338.651 369.318 335.202 367.225 341.393H367.196Z" fill="url(#paint81_linear_3091_705)"/>
<path fill-rule="evenodd" clip-rule="evenodd" d="M373.947 338.239C372.768 341.511 367.755 340.067 367.755 340.067L367.195 341.393C367.195 341.393 402.075 342.661 410.773 340.686L404.67 337.59L405.554 339.683C405.554 339.683 393.23 341.423 376.159 339.683L374.743 338.622L373.947 338.209V338.239Z" fill="url(#paint82_linear_3091_705)"/>
<path fill-rule="evenodd" clip-rule="evenodd" d="M400.336 40.5639C400.336 40.5639 400.159 40.6818 399.894 40.7703H399.835C397.86 41.5074 389.339 43.8366 359.619 45.3108C328.247 46.844 306.842 48.3182 291.363 43.6008C291.363 43.6008 295.343 36.7604 299.471 35.8169C303.599 34.9029 305.102 40.2396 305.102 40.2396C315.068 23.6105 326.419 4.88797 349.623 4.62261C365.486 4.44571 367.461 19.7775 367.461 19.7775C367.461 19.7775 375.599 21.2222 377.28 23.6105C380.877 28.6817 378.99 35.5811 378.99 35.5811L400.336 40.5639Z" fill="url(#paint83_linear_3091_705)"/>
<path fill-rule="evenodd" clip-rule="evenodd" d="M400.336 40.5641L399.894 40.7705H399.835C397.86 41.5076 389.339 43.8369 359.619 45.3111C328.247 46.8443 306.842 48.3185 291.363 43.601C302.301 41.1833 338.272 43.9548 339.098 44.0138C338.803 43.9843 333.849 43.4536 330.4 42.5396C330.4 42.5396 349.859 35.9646 376.189 39.5027L372.621 42.0089C372.621 42.0089 392.169 41.8909 400.336 40.5936V40.5641Z" fill="url(#paint84_linear_3091_705)"/>
<path fill-rule="evenodd" clip-rule="evenodd" d="M330.4 42.5402C335.295 36.9971 346.823 21.9896 367.462 19.8078C388.101 17.5965 379.757 37.0266 376.189 39.5033C376.189 39.5033 373.241 37.9406 356.612 38.5303C339.983 39.0905 330.4 42.5402 330.4 42.5402Z" fill="url(#paint85_linear_3091_705)"/>
<path fill-rule="evenodd" clip-rule="evenodd" d="M223.667 305.04C236.198 313.06 296.64 311.202 312.709 308.637L303.717 303.418C303.717 303.418 312.002 286.318 297.879 271.9C289.24 263.113 264.68 292.244 264.68 292.244C264.68 292.244 257.309 288.057 251.323 288.411C245.308 288.765 239.205 293.512 239.205 293.512C239.205 293.512 235.814 291.713 233.072 292.185C230.33 292.657 228.001 302.858 228.001 302.858L223.726 305.04H223.667Z" fill="url(#paint86_linear_3091_705)"/>
<path fill-rule="evenodd" clip-rule="evenodd" d="M223.667 305.039C226.969 303.329 241.181 301.295 253.417 302.651L247.343 305.039C247.343 305.039 258.753 304.538 270.223 305.039L259.992 302.209C259.992 302.209 281.161 300.381 303.687 303.417L286.174 306.13C286.174 306.13 301.977 307.044 312.709 308.636C312.709 308.636 303.628 311.142 266.95 311.142C230.271 311.142 223.667 305.01 223.667 305.01V305.039Z" fill="url(#paint87_linear_3091_705)"/>
<path fill-rule="evenodd" clip-rule="evenodd" d="M260.021 302.239C265.8 283.605 282.075 266.769 294.37 269.364C306.665 271.929 308.995 296.784 303.717 303.448C303.717 303.448 299.412 302.239 280.985 301.767C262.557 301.325 260.021 302.239 260.021 302.239Z" fill="url(#paint88_linear_3091_705)"/>
<path fill-rule="evenodd" clip-rule="evenodd" d="M253.417 302.681C251.589 298.583 238.291 288.705 233.013 292.214C227.736 295.723 227.942 302.887 227.942 302.887L223.667 305.069C223.667 305.069 230.743 303.005 239.706 302.239C248.67 301.472 253.417 302.681 253.417 302.681Z" fill="url(#paint89_linear_3091_705)"/>
<path fill-rule="evenodd" clip-rule="evenodd" d="M410.892 327.477C410.892 327.477 479.826 336.794 518.715 330.308L508.573 327.477C508.573 327.477 506.42 298.111 497.634 295.31C488.848 292.509 477.084 304.303 477.084 304.303C477.084 304.303 468.238 298.17 458.243 297.934C450.164 297.728 446.066 309.286 446.066 309.286C446.066 309.286 434.302 304.745 425.928 322.701L429.172 326.121L410.833 327.477H410.892Z" fill="url(#paint90_linear_3091_705)"/>
<path fill-rule="evenodd" clip-rule="evenodd" d="M425.958 322.701C444.268 319.93 458.833 322.2 458.833 322.2L450.754 325.237C450.754 325.237 464.789 325.856 474.401 325.237L464.376 319.93C464.376 319.93 492.917 321.758 506.715 324.618C514.912 326.328 518.686 330.308 518.686 330.308C518.686 330.308 489.438 337.591 410.862 327.478L429.201 326.121L425.958 322.701Z" fill="url(#paint91_linear_3091_705)"/>
<path fill-rule="evenodd" clip-rule="evenodd" d="M458.863 322.23C458.775 317.689 450.902 306.485 439.787 309.139C428.671 311.792 425.988 322.731 425.988 322.731C425.988 322.731 431.944 321.581 443.384 321.345C457.065 321.05 458.893 322.259 458.893 322.259L458.863 322.23Z" fill="url(#paint92_linear_3091_705)"/>
<path fill-rule="evenodd" clip-rule="evenodd" d="M464.405 319.958C464.405 319.958 480.061 292.538 495.01 294.219C509.958 295.899 518.715 330.337 518.715 330.337C518.715 330.337 503.766 322.73 464.405 319.958Z" fill="url(#paint93_linear_3091_705)"/>
<defs>
<filter id="filter0_d_3091_705" x="0.9" y="48.8687" width="555.649" height="316.917" filterUnits="userSpaceOnUse" color-interpolation-filters="sRGB">
<feFlood flood-opacity="0" result="BackgroundImageFix"/>
<feColorMatrix in="SourceAlpha" type="matrix" values="0 0 0 0 0 0 0 0 0 0 0 0 0 0 0 0 0 0 127 0" result="hardAlpha"/>
<feOffset dy="4"/>
<feGaussianBlur stdDeviation="5.55"/>
<feComposite in2="hardAlpha" operator="out"/>
<feColorMatrix type="matrix" values="0 0 0 0 0 0 0 0 0 0 0 0 0 0 0 0 0 0 0.6 0"/>
<feBlend mode="normal" in2="BackgroundImageFix" result="effect1_dropShadow_3091_705"/>
<feBlend mode="normal" in="SourceGraphic" in2="effect1_dropShadow_3091_705" result="shape"/>
</filter>
<filter id="filter1_d_3091_705" x="173.934" y="17.6129" width="395.166" height="324.149" filterUnits="userSpaceOnUse" color-interpolation-filters="sRGB">
<feFlood flood-opacity="0" result="BackgroundImageFix"/>
<feColorMatrix in="SourceAlpha" type="matrix" values="0 0 0 0 0 0 0 0 0 0 0 0 0 0 0 0 0 0 127 0" result="hardAlpha"/>
<feOffset dy="4"/>
<feGaussianBlur stdDeviation="3.55"/>
<feComposite in2="hardAlpha" operator="out"/>
<feColorMatrix type="matrix" values="0 0 0 0 0 0 0 0 0 0 0 0 0 0 0 0 0 0 0.25 0"/>
<feBlend mode="normal" in2="BackgroundImageFix" result="effect1_dropShadow_3091_705"/>
<feBlend mode="normal" in="SourceGraphic" in2="effect1_dropShadow_3091_705" result="shape"/>
</filter>
<linearGradient id="paint0_linear_3091_705" x1="278.724" y1="55.9687" x2="278.724" y2="350.686" gradientUnits="userSpaceOnUse">
<stop stop-color="#494B14"/>
<stop offset="1" stop-color="#A7AA28"/>
</linearGradient>
<linearGradient id="paint1_linear_3091_705" x1="181.032" y1="216.702" x2="541.418" y2="216.702" gradientUnits="userSpaceOnUse">
<stop stop-color="#871344"/>
<stop offset="1" stop-color="#6E1D41"/>
</linearGradient>
<linearGradient id="paint2_linear_3091_705" x1="225.054" y1="219.474" x2="341.104" y2="219.474" gradientUnits="userSpaceOnUse">
<stop stop-color="#493D6F"/>
<stop offset="1" stop-color="#3B2A50"/>
</linearGradient>
<linearGradient id="paint3_linear_3091_705" x1="355.64" y1="219.415" x2="541.42" y2="219.415" gradientUnits="userSpaceOnUse">
<stop stop-color="#493D6F"/>
<stop offset="1" stop-color="#3B2A50"/>
</linearGradient>
<linearGradient id="paint4_linear_3091_705" x1="209.22" y1="243.533" x2="299.914" y2="243.533" gradientUnits="userSpaceOnUse">
<stop stop-color="#871344"/>
<stop offset="1" stop-color="#6E1D41"/>
</linearGradient>
<linearGradient id="paint5_linear_3091_705" x1="229.211" y1="244.506" x2="296.73" y2="244.506" gradientUnits="userSpaceOnUse">
<stop stop-color="#493D6F"/>
<stop offset="1" stop-color="#3B2A50"/>
</linearGradient>
<radialGradient id="paint6_radial_3091_705" cx="0" cy="0" r="1" gradientUnits="userSpaceOnUse" gradientTransform="translate(253.405 217.622) scale(41.1305 41.1305)">
<stop stop-color="#A19F26"/>
<stop offset="0.51" stop-color="#82861F"/>
<stop offset="1" stop-color="#616B19"/>
</radialGradient>
<linearGradient id="paint7_linear_3091_705" x1="402.313" y1="245.391" x2="510.166" y2="245.391" gradientUnits="userSpaceOnUse">
<stop stop-color="#871344"/>
<stop offset="1" stop-color="#6E1D41"/>
</linearGradient>
<linearGradient id="paint8_linear_3091_705" x1="412.928" y1="245.392" x2="510.167" y2="245.392" gradientUnits="userSpaceOnUse">
<stop stop-color="#493D6F"/>
<stop offset="1" stop-color="#3B2A50"/>
</linearGradient>
<radialGradient id="paint9_radial_3091_705" cx="0" cy="0" r="1" gradientUnits="userSpaceOnUse" gradientTransform="translate(456.086 198.359) scale(63.6859 63.6859)">
<stop stop-color="#A19F26"/>
<stop offset="0.51" stop-color="#82861F"/>
<stop offset="1" stop-color="#616B19"/>
</radialGradient>
<linearGradient id="paint10_linear_3091_705" x1="402.312" y1="231.032" x2="510.166" y2="231.032" gradientUnits="userSpaceOnUse">
<stop stop-color="#006633"/>
<stop offset="1" stop-color="#3B2A50"/>
</linearGradient>
<radialGradient id="paint11_radial_3091_705" cx="0" cy="0" r="1" gradientUnits="userSpaceOnUse" gradientTransform="translate(343.892 221.815) scale(36.1949 36.1948)">
<stop stop-color="#A19F26"/>
<stop offset="0.51" stop-color="#82861F"/>
<stop offset="1" stop-color="#616B19"/>
</radialGradient>
<linearGradient id="paint12_linear_3091_705" x1="338.391" y1="294.865" x2="398.008" y2="294.865" gradientUnits="userSpaceOnUse">
<stop stop-color="#871344"/>
<stop offset="1" stop-color="#6E1D41"/>
</linearGradient>
<linearGradient id="paint13_linear_3091_705" x1="369.91" y1="296.045" x2="398.008" y2="296.045" gradientUnits="userSpaceOnUse">
<stop stop-color="#493D6F"/>
<stop offset="1" stop-color="#3B2A50"/>
</linearGradient>
<radialGradient id="paint14_radial_3091_705" cx="0" cy="0" r="1" gradientUnits="userSpaceOnUse" gradientTransform="translate(366.449 258.064) scale(37.2032 37.2032)">
<stop stop-color="#A19F26"/>
<stop offset="0.51" stop-color="#82861F"/>
<stop offset="1" stop-color="#616B19"/>
</radialGradient>
<linearGradient id="paint15_linear_3091_705" x1="209.22" y1="228.82" x2="297.879" y2="228.82" gradientUnits="userSpaceOnUse">
<stop stop-color="#006633"/>
<stop offset="1" stop-color="#3B2A50"/>
</linearGradient>
<linearGradient id="paint16_linear_3091_705" x1="306.577" y1="233.982" x2="381.408" y2="233.982" gradientUnits="userSpaceOnUse">
<stop stop-color="#006633"/>
<stop offset="1" stop-color="#3B2A50"/>
</linearGradient>
<linearGradient id="paint17_linear_3091_705" x1="333.232" y1="275.731" x2="399.895" y2="275.731" gradientUnits="userSpaceOnUse">
<stop stop-color="#006633"/>
<stop offset="1" stop-color="#3B2A50"/>
</linearGradient>
<linearGradient id="paint18_linear_3091_705" x1="404.789" y1="239.23" x2="406.941" y2="239.23" gradientUnits="userSpaceOnUse">
<stop stop-color="#006633"/>
<stop offset="1" stop-color="#3B2A50"/>
</linearGradient>
<linearGradient id="paint19_linear_3091_705" x1="327.246" y1="313.205" x2="349.064" y2="227.17" gradientUnits="userSpaceOnUse">
<stop stop-color="#653AB5"/>
<stop offset="1" stop-color="#5C2295"/>
</linearGradient>
<linearGradient id="paint20_linear_3091_705" x1="327.246" y1="313.205" x2="349.064" y2="227.17" gradientUnits="userSpaceOnUse">
<stop stop-color="#433FFF"/>
<stop offset="1"/>
</linearGradient>
<radialGradient id="paint21_radial_3091_705" cx="0" cy="0" r="1" gradientUnits="userSpaceOnUse" gradientTransform="translate(318.099 185.249) scale(187.237 187.237)">
<stop stop-color="#E0E02D"/>
<stop offset="0.23" stop-color="#C1C325"/>
<stop offset="0.74" stop-color="#747911"/>
<stop offset="1" stop-color="#4A5207"/>
</radialGradient>
<radialGradient id="paint22_radial_3091_705" cx="0" cy="0" r="1" gradientUnits="userSpaceOnUse" gradientTransform="translate(485.01 26.0359) scale(45.7477 45.7477)">
<stop stop-color="#8F8E14"/>
<stop offset="0.38" stop-color="#70710E"/>
<stop offset="1" stop-color="#373D05"/>
</radialGradient>
<linearGradient id="paint23_linear_3091_705" x1="475.846" y1="47.6704" x2="475.846" y2="91.4545" gradientUnits="userSpaceOnUse">
<stop stop-color="white"/>
<stop offset="1" stop-color="#5C2295"/>
</linearGradient>
<linearGradient id="paint24_linear_3091_705" x1="498.078" y1="47.6706" x2="498.078" y2="91.4546" gradientUnits="userSpaceOnUse">
<stop stop-color="white"/>
<stop offset="1" stop-color="#5C2295"/>
</linearGradient>
<linearGradient id="paint25_linear_3091_705" x1="521.93" y1="47.67" x2="521.93" y2="91.4541" gradientUnits="userSpaceOnUse">
<stop stop-color="white"/>
<stop offset="1" stop-color="#5C2295"/>
</linearGradient>
<linearGradient id="paint26_linear_3091_705" x1="547.522" y1="47.6705" x2="547.522" y2="91.4546" gradientUnits="userSpaceOnUse">
<stop stop-color="white"/>
<stop offset="1" stop-color="#5C2295"/>
</linearGradient>
<linearGradient id="paint27_linear_3091_705" x1="520.78" y1="47.6701" x2="520.78" y2="91.4542" gradientUnits="userSpaceOnUse">
<stop stop-color="white"/>
<stop offset="1" stop-color="#5C2295"/>
</linearGradient>
<linearGradient id="paint28_linear_3091_705" x1="502.588" y1="33.7546" x2="501.025" y2="89.5978" gradientUnits="userSpaceOnUse">
<stop stop-color="white"/>
<stop offset="1" stop-color="#5C2295"/>
</linearGradient>
<linearGradient id="paint29_linear_3091_705" x1="387.777" y1="191.051" x2="387.777" y2="64.7115" gradientUnits="userSpaceOnUse">
<stop stop-color="#871344"/>
<stop offset="1" stop-color="#6E1D41"/>
</linearGradient>
<linearGradient id="paint30_linear_3091_705" x1="422.627" y1="98.6766" x2="459.6" y2="98.6766" gradientUnits="userSpaceOnUse">
<stop stop-color="#493D6F"/>
<stop offset="1" stop-color="#3B2A50"/>
</linearGradient>
<linearGradient id="paint31_linear_3091_705" x1="445.978" y1="108.318" x2="515.974" y2="108.318" gradientUnits="userSpaceOnUse">
<stop stop-color="#493D6F"/>
<stop offset="1" stop-color="#3B2A50"/>
</linearGradient>
<linearGradient id="paint32_linear_3091_705" x1="372.622" y1="170.412" x2="421.86" y2="170.412" gradientUnits="userSpaceOnUse">
<stop stop-color="#493D6F"/>
<stop offset="1" stop-color="#3B2A50"/>
</linearGradient>
<linearGradient id="paint33_linear_3091_705" x1="270.812" y1="157.882" x2="371.619" y2="157.882" gradientUnits="userSpaceOnUse">
<stop stop-color="#493D6F"/>
<stop offset="1" stop-color="#3B2A50"/>
</linearGradient>
<linearGradient id="paint34_linear_3091_705" x1="414.725" y1="139.219" x2="499.758" y2="139.219" gradientUnits="userSpaceOnUse">
<stop stop-color="#493D6F"/>
<stop offset="1" stop-color="#3B2A50"/>
</linearGradient>
<linearGradient id="paint35_linear_3091_705" x1="321.23" y1="121.499" x2="385.948" y2="121.499" gradientUnits="userSpaceOnUse">
<stop stop-color="#493D6F"/>
<stop offset="1" stop-color="#3B2A50"/>
</linearGradient>
<linearGradient id="paint36_linear_3091_705" x1="436.544" y1="138.127" x2="557.784" y2="138.127" gradientUnits="userSpaceOnUse">
<stop stop-color="#493D6F"/>
<stop offset="1" stop-color="#3B2A50"/>
</linearGradient>
<linearGradient id="paint37_linear_3091_705" x1="369.91" y1="75.3872" x2="439.434" y2="75.3872" gradientUnits="userSpaceOnUse">
<stop stop-color="#493D6F"/>
<stop offset="1" stop-color="#3B2A50"/>
</linearGradient>
<radialGradient id="paint38_radial_3091_705" cx="0" cy="0" r="1" gradientUnits="userSpaceOnUse" gradientTransform="translate(361.725 134.409) scale(156.774 156.774)">
<stop stop-color="#A19F26"/>
<stop offset="0.51" stop-color="#82861F"/>
<stop offset="1" stop-color="#616B19"/>
</radialGradient>
<radialGradient id="paint39_radial_3091_705" cx="0" cy="0" r="1" gradientUnits="userSpaceOnUse" gradientTransform="translate(304.885 72.3152) scale(109.274 109.274)">
<stop stop-color="#CCCC33"/>
<stop offset="0.27" stop-color="#ADAF28"/>
<stop offset="0.84" stop-color="#60660E"/>
<stop offset="1" stop-color="#4A5207"/>
</radialGradient>
<radialGradient id="paint40_radial_3091_705" cx="0" cy="0" r="1" gradientUnits="userSpaceOnUse" gradientTransform="translate(361.724 157.548) scale(190.952 190.952)">
<stop stop-color="#A19F26"/>
<stop offset="0.51" stop-color="#82861F"/>
<stop offset="1" stop-color="#616B19"/>
</radialGradient>
<linearGradient id="paint41_linear_3091_705" x1="361.241" y1="66.4531" x2="414.725" y2="66.4531" gradientUnits="userSpaceOnUse">
<stop stop-color="#006633"/>
<stop offset="1" stop-color="#3B2A50"/>
</linearGradient>
<radialGradient id="paint42_radial_3091_705" cx="0" cy="0" r="1" gradientUnits="userSpaceOnUse" gradientTransform="translate(361.725 134.993) scale(167.441 167.441)">
<stop stop-color="#A19F26"/>
<stop offset="0.51" stop-color="#82861F"/>
<stop offset="1" stop-color="#616B19"/>
</radialGradient>
<radialGradient id="paint43_radial_3091_705" cx="0" cy="0" r="1" gradientUnits="userSpaceOnUse" gradientTransform="translate(362.626 130.746) scale(164.469 164.469)">
<stop stop-color="#A19F26"/>
<stop offset="0.51" stop-color="#82861F"/>
<stop offset="1" stop-color="#616B19"/>
</radialGradient>
<radialGradient id="paint44_radial_3091_705" cx="0" cy="0" r="1" gradientUnits="userSpaceOnUse" gradientTransform="translate(361.725 134.993) scale(167.441 167.441)">
<stop stop-color="#A19F26"/>
<stop offset="0.51" stop-color="#82861F"/>
<stop offset="1" stop-color="#616B19"/>
</radialGradient>
<radialGradient id="paint45_radial_3091_705" cx="0" cy="0" r="1" gradientUnits="userSpaceOnUse" gradientTransform="translate(356.523 134.993) scale(177.843 177.843)">
<stop stop-color="#A19F26"/>
<stop offset="0.51" stop-color="#82861F"/>
<stop offset="1" stop-color="#616B19"/>
</radialGradient>
<radialGradient id="paint46_radial_3091_705" cx="0" cy="0" r="1" gradientUnits="userSpaceOnUse" gradientTransform="translate(361.83 128.04) scale(176.41 176.41)">
<stop stop-color="#A19F26"/>
<stop offset="0.51" stop-color="#82861F"/>
<stop offset="1" stop-color="#616B19"/>
</radialGradient>
<linearGradient id="paint47_linear_3091_705" x1="181.034" y1="175.337" x2="543.513" y2="175.337" gradientUnits="userSpaceOnUse">
<stop stop-color="#006633"/>
<stop offset="1" stop-color="#3B2A50"/>
</linearGradient>
<radialGradient id="paint48_radial_3091_705" cx="0" cy="0" r="1" gradientUnits="userSpaceOnUse" gradientTransform="translate(203.465 157.174) scale(26.0582 26.0582)">
<stop stop-color="#A19F26"/>
<stop offset="0.38" stop-color="#82841B"/>
<stop offset="1" stop-color="#4A5207"/>
</radialGradient>
<linearGradient id="paint49_linear_3091_705" x1="203.913" y1="161.774" x2="209.368" y2="181.381" gradientUnits="userSpaceOnUse">
<stop stop-color="white"/>
<stop offset="1" stop-color="#5C2295"/>
</linearGradient>
<linearGradient id="paint50_linear_3091_705" x1="235.432" y1="153.017" x2="240.886" y2="172.624" gradientUnits="userSpaceOnUse">
<stop stop-color="white"/>
<stop offset="1" stop-color="#5C2295"/>
</linearGradient>
<linearGradient id="paint51_linear_3091_705" x1="323.235" y1="86.4431" x2="397.241" y2="86.4431" gradientUnits="userSpaceOnUse">
<stop stop-color="#006633"/>
<stop offset="1" stop-color="#3B2A50"/>
</linearGradient>
<linearGradient id="paint52_linear_3091_705" x1="386.923" y1="123.886" x2="449.872" y2="123.886" gradientUnits="userSpaceOnUse">
<stop stop-color="#006633"/>
<stop offset="1" stop-color="#3B2A50"/>
</linearGradient>
<linearGradient id="paint53_linear_3091_705" x1="349.241" y1="120.466" x2="559.847" y2="120.466" gradientUnits="userSpaceOnUse">
<stop stop-color="#493D6F"/>
<stop offset="1" stop-color="#3B2A50"/>
</linearGradient>
<linearGradient id="paint54_linear_3091_705" x1="375.512" y1="106.315" x2="436.898" y2="106.315" gradientUnits="userSpaceOnUse">
<stop stop-color="#493D6F"/>
<stop offset="1" stop-color="#3B2A50"/>
</linearGradient>
<linearGradient id="paint55_linear_3091_705" x1="256.484" y1="318.455" x2="256.484" y2="116.96" gradientUnits="userSpaceOnUse">
<stop stop-color="#9F9FFF"/>
<stop offset="0.05" stop-color="#A1A2FE"/>
<stop offset="0.3" stop-color="#ACB2FB"/>
<stop offset="0.6" stop-color="#B2BCF9"/>
<stop offset="0.99" stop-color="#B5BFF9"/>
</linearGradient>
<linearGradient id="paint56_linear_3091_705" x1="297.584" y1="318.456" x2="297.584" y2="116.961" gradientUnits="userSpaceOnUse">
<stop stop-color="#9F9FFF"/>
<stop offset="0.05" stop-color="#A1A2FE"/>
<stop offset="0.3" stop-color="#ACB2FB"/>
<stop offset="0.6" stop-color="#B2BCF9"/>
<stop offset="0.99" stop-color="#B5BFF9"/>
</linearGradient>
<linearGradient id="paint57_linear_3091_705" x1="444.122" y1="318.453" x2="444.122" y2="116.958" gradientUnits="userSpaceOnUse">
<stop stop-color="#9F9FFF"/>
<stop offset="0.05" stop-color="#A1A2FE"/>
<stop offset="0.3" stop-color="#ACB2FB"/>
<stop offset="0.6" stop-color="#B2BCF9"/>
<stop offset="0.99" stop-color="#B5BFF9"/>
</linearGradient>
<linearGradient id="paint58_linear_3091_705" x1="491.09" y1="318.455" x2="491.09" y2="116.959" gradientUnits="userSpaceOnUse">
<stop stop-color="#9F9FFF"/>
<stop offset="0.05" stop-color="#A1A2FE"/>
<stop offset="0.3" stop-color="#ACB2FB"/>
<stop offset="0.6" stop-color="#B2BCF9"/>
<stop offset="0.99" stop-color="#B5BFF9"/>
</linearGradient>
<linearGradient id="paint59_linear_3091_705" x1="510.933" y1="250.848" x2="515.65" y2="250.848" gradientUnits="userSpaceOnUse">
<stop stop-color="#9F9FFF"/>
<stop offset="0.05" stop-color="#A1A2FE"/>
<stop offset="0.3" stop-color="#ACB2FB"/>
<stop offset="0.6" stop-color="#B2BCF9"/>
<stop offset="0.99" stop-color="#B5BFF9"/>
</linearGradient>
<linearGradient id="paint60_linear_3091_705" x1="465.084" y1="318.455" x2="465.084" y2="116.96" gradientUnits="userSpaceOnUse">
<stop stop-color="#9F9FFF"/>
<stop offset="0.05" stop-color="#A1A2FE"/>
<stop offset="0.3" stop-color="#ACB2FB"/>
<stop offset="0.6" stop-color="#B2BCF9"/>
<stop offset="0.99" stop-color="#B5BFF9"/>
</linearGradient>
<linearGradient id="paint61_linear_3091_705" x1="379.786" y1="318.455" x2="379.786" y2="116.96" gradientUnits="userSpaceOnUse">
<stop stop-color="#9F9FFF"/>
<stop offset="0.05" stop-color="#A1A2FE"/>
<stop offset="0.3" stop-color="#ACB2FB"/>
<stop offset="0.6" stop-color="#B2BCF9"/>
<stop offset="0.99" stop-color="#B5BFF9"/>
</linearGradient>
<linearGradient id="paint62_linear_3091_705" x1="386.243" y1="109.382" x2="399.688" y2="109.382" gradientUnits="userSpaceOnUse">
<stop stop-color="#9F9FFF"/>
<stop offset="0.05" stop-color="#A1A2FE"/>
<stop offset="0.3" stop-color="#ACB2FB"/>
<stop offset="0.6" stop-color="#B2BCF9"/>
<stop offset="0.99" stop-color="#B5BFF9"/>
</linearGradient>
<linearGradient id="paint63_linear_3091_705" x1="404.847" y1="318.456" x2="404.847" y2="116.961" gradientUnits="userSpaceOnUse">
<stop stop-color="#9F9FFF"/>
<stop offset="0.05" stop-color="#A1A2FE"/>
<stop offset="0.3" stop-color="#ACB2FB"/>
<stop offset="0.6" stop-color="#B2BCF9"/>
<stop offset="0.99" stop-color="#B5BFF9"/>
</linearGradient>
<linearGradient id="paint64_linear_3091_705" x1="363.747" y1="318.455" x2="363.747" y2="116.96" gradientUnits="userSpaceOnUse">
<stop stop-color="#9F9FFF"/>
<stop offset="0.05" stop-color="#A1A2FE"/>
<stop offset="0.3" stop-color="#ACB2FB"/>
<stop offset="0.6" stop-color="#B2BCF9"/>
<stop offset="0.99" stop-color="#B5BFF9"/>
</linearGradient>
<linearGradient id="paint65_linear_3091_705" x1="392.199" y1="141.521" x2="396.445" y2="141.521" gradientUnits="userSpaceOnUse">
<stop stop-color="#9F9FFF"/>
<stop offset="0.05" stop-color="#A1A2FE"/>
<stop offset="0.3" stop-color="#ACB2FB"/>
<stop offset="0.6" stop-color="#B2BCF9"/>
<stop offset="0.99" stop-color="#B5BFF9"/>
</linearGradient>
<linearGradient id="paint66_linear_3091_705" x1="459.247" y1="191.525" x2="490.146" y2="191.525" gradientUnits="userSpaceOnUse">
<stop stop-color="#9F9FFF"/>
<stop offset="0.05" stop-color="#A1A2FE"/>
<stop offset="0.3" stop-color="#ACB2FB"/>
<stop offset="0.6" stop-color="#B2BCF9"/>
<stop offset="0.99" stop-color="#B5BFF9"/>
</linearGradient>
<linearGradient id="paint67_linear_3091_705" x1="278.862" y1="278.768" x2="278.862" y2="211.367" gradientUnits="userSpaceOnUse">
<stop stop-color="#9F9FFF"/>
<stop offset="0.05" stop-color="#A1A2FE"/>
<stop offset="0.3" stop-color="#ACB2FB"/>
<stop offset="0.6" stop-color="#B2BCF9"/>
<stop offset="0.99" stop-color="#B5BFF9"/>
</linearGradient>
<linearGradient id="paint68_linear_3091_705" x1="257.781" y1="284.726" x2="257.781" y2="211.929" gradientUnits="userSpaceOnUse">
<stop stop-color="#9F9FFF"/>
<stop offset="0.05" stop-color="#A1A2FE"/>
<stop offset="0.3" stop-color="#ACB2FB"/>
<stop offset="0.6" stop-color="#B2BCF9"/>
<stop offset="0.99" stop-color="#B5BFF9"/>
</linearGradient>
<linearGradient id="paint69_linear_3091_705" x1="382.116" y1="153.018" x2="382.116" y2="127.102" gradientUnits="userSpaceOnUse">
<stop stop-color="#9F9FFF"/>
<stop offset="0.05" stop-color="#A1A2FE"/>
<stop offset="0.3" stop-color="#ACB2FB"/>
<stop offset="0.6" stop-color="#B2BCF9"/>
<stop offset="0.99" stop-color="#B5BFF9"/>
</linearGradient>
<linearGradient id="paint70_linear_3091_705" x1="465.704" y1="169.353" x2="465.704" y2="156.646" gradientUnits="userSpaceOnUse">
<stop stop-color="#9F9FFF"/>
<stop offset="0.05" stop-color="#A1A2FE"/>
<stop offset="0.3" stop-color="#ACB2FB"/>
<stop offset="0.6" stop-color="#B2BCF9"/>
<stop offset="0.99" stop-color="#B5BFF9"/>
</linearGradient>
<linearGradient id="paint71_linear_3091_705" x1="393.438" y1="93.3422" x2="393.438" y2="91.3667" gradientUnits="userSpaceOnUse">
<stop stop-color="#9F9FFF"/>
<stop offset="0.05" stop-color="#A1A2FE"/>
<stop offset="0.3" stop-color="#ACB2FB"/>
<stop offset="0.6" stop-color="#B2BCF9"/>
<stop offset="0.99" stop-color="#B5BFF9"/>
</linearGradient>
<linearGradient id="paint72_linear_3091_705" x1="408.74" y1="109.441" x2="408.74" y2="94.6397" gradientUnits="userSpaceOnUse">
<stop stop-color="#9F9FFF"/>
<stop offset="0.05" stop-color="#A1A2FE"/>
<stop offset="0.3" stop-color="#ACB2FB"/>
<stop offset="0.6" stop-color="#B2BCF9"/>
<stop offset="0.99" stop-color="#B5BFF9"/>
</linearGradient>
<linearGradient id="paint73_linear_3091_705" x1="388.249" y1="109.264" x2="409.979" y2="109.264" gradientUnits="userSpaceOnUse">
<stop stop-color="#DCD7FF"/>
<stop offset="0.07" stop-color="#E2DCFF"/>
<stop offset="0.33" stop-color="#F2EAFF"/>
<stop offset="0.62" stop-color="#FBF2FF"/>
<stop offset="1" stop-color="#FFF5FF"/>
</linearGradient>
<linearGradient id="paint74_linear_3091_705" x1="459.248" y1="166.996" x2="479.562" y2="166.996" gradientUnits="userSpaceOnUse">
<stop stop-color="#DCD7FF"/>
<stop offset="0.07" stop-color="#E2DCFF"/>
<stop offset="0.33" stop-color="#F2EAFF"/>
<stop offset="0.62" stop-color="#FBF2FF"/>
<stop offset="1" stop-color="#FFF5FF"/>
</linearGradient>
<linearGradient id="paint75_linear_3091_705" x1="480.122" y1="214.316" x2="500.466" y2="214.316" gradientUnits="userSpaceOnUse">
<stop stop-color="#DCD7FF"/>
<stop offset="0.07" stop-color="#E2DCFF"/>
<stop offset="0.33" stop-color="#F2EAFF"/>
<stop offset="0.62" stop-color="#FBF2FF"/>
<stop offset="1" stop-color="#FFF5FF"/>
</linearGradient>
<radialGradient id="paint76_radial_3091_705" cx="0" cy="0" r="1" gradientUnits="userSpaceOnUse" gradientTransform="translate(513.138 146.349) scale(25.5805 25.5805)">
<stop stop-color="#A19F26"/>
<stop offset="0.38" stop-color="#82841B"/>
<stop offset="1" stop-color="#4A5207"/>
</radialGradient>
<linearGradient id="paint77_linear_3091_705" x1="529.359" y1="151.191" x2="529.359" y2="172.096" gradientUnits="userSpaceOnUse">
<stop stop-color="white"/>
<stop offset="1" stop-color="#5C2295"/>
</linearGradient>
<linearGradient id="paint78_linear_3091_705" x1="400.925" y1="26.4126" x2="400.925" y2="-7.02249" gradientUnits="userSpaceOnUse">
<stop stop-color="#C7B6FF"/>
<stop offset="0.19" stop-color="#CECBFF"/>
<stop offset="0.4" stop-color="#D4DBFF"/>
<stop offset="0.64" stop-color="#D7E4FF"/>
<stop offset="0.95" stop-color="#D9E8FF"/>
</linearGradient>
<linearGradient id="paint79_linear_3091_705" x1="394.322" y1="39.5326" x2="402.312" y2="14.2056" gradientUnits="userSpaceOnUse">
<stop stop-color="#9F9FFF"/>
<stop offset="0.05" stop-color="#A1A2FE"/>
<stop offset="0.3" stop-color="#ACB2FB"/>
<stop offset="0.6" stop-color="#B2BCF9"/>
<stop offset="0.99" stop-color="#B5BFF9"/>
</linearGradient>
<linearGradient id="paint80_linear_3091_705" x1="381.407" y1="15.121" x2="390.606" y2="15.121" gradientUnits="userSpaceOnUse">
<stop stop-color="#DCD7FF"/>
<stop offset="0.07" stop-color="#E2DCFF"/>
<stop offset="0.33" stop-color="#F2EAFF"/>
<stop offset="0.62" stop-color="#FBF2FF"/>
<stop offset="1" stop-color="#FFF5FF"/>
</linearGradient>
<linearGradient id="paint81_linear_3091_705" x1="408.026" y1="332.713" x2="452.074" y2="335.022" gradientUnits="userSpaceOnUse">
<stop stop-color="#C7B6FF"/>
<stop offset="0.19" stop-color="#CECBFF"/>
<stop offset="0.4" stop-color="#D4DBFF"/>
<stop offset="0.64" stop-color="#D7E4FF"/>
<stop offset="0.95" stop-color="#D9E8FF"/>
</linearGradient>
<linearGradient id="paint82_linear_3091_705" x1="413.81" y1="339.713" x2="457.329" y2="339.713" gradientUnits="userSpaceOnUse">
<stop stop-color="#9F9FFF"/>
<stop offset="0.05" stop-color="#A1A2FE"/>
<stop offset="0.3" stop-color="#ACB2FB"/>
<stop offset="0.6" stop-color="#B2BCF9"/>
<stop offset="0.99" stop-color="#B5BFF9"/>
</linearGradient>
<linearGradient id="paint83_linear_3091_705" x1="316.896" y1="57.0161" x2="316.896" y2="8.72092" gradientUnits="userSpaceOnUse">
<stop stop-color="#C7B6FF"/>
<stop offset="0.19" stop-color="#CECBFF"/>
<stop offset="0.4" stop-color="#D4DBFF"/>
<stop offset="0.64" stop-color="#D7E4FF"/>
<stop offset="0.95" stop-color="#D9E8FF"/>
</linearGradient>
<linearGradient id="paint84_linear_3091_705" x1="293.662" y1="115.572" x2="323.088" y2="22.4313" gradientUnits="userSpaceOnUse">
<stop stop-color="#9F9FFF"/>
<stop offset="0.05" stop-color="#A1A2FE"/>
<stop offset="0.3" stop-color="#ACB2FB"/>
<stop offset="0.6" stop-color="#B2BCF9"/>
<stop offset="0.99" stop-color="#B5BFF9"/>
</linearGradient>
<linearGradient id="paint85_linear_3091_705" x1="305.781" y1="106.816" x2="335.619" y2="12.3188" gradientUnits="userSpaceOnUse">
<stop stop-color="#DCD7FF"/>
<stop offset="0.07" stop-color="#E2DCFF"/>
<stop offset="0.33" stop-color="#F2EAFF"/>
<stop offset="0.62" stop-color="#FBF2FF"/>
<stop offset="1" stop-color="#FFF5FF"/>
</linearGradient>
<linearGradient id="paint86_linear_3091_705" x1="310.97" y1="313.738" x2="310.97" y2="256.686" gradientUnits="userSpaceOnUse">
<stop stop-color="#C7B6FF"/>
<stop offset="0.19" stop-color="#CECBFF"/>
<stop offset="0.4" stop-color="#D4DBFF"/>
<stop offset="0.64" stop-color="#D7E4FF"/>
<stop offset="0.95" stop-color="#D9E8FF"/>
</linearGradient>
<linearGradient id="paint87_linear_3091_705" x1="198.311" y1="328.892" x2="197.072" y2="300.41" gradientUnits="userSpaceOnUse">
<stop stop-color="#9F9FFF"/>
<stop offset="0.05" stop-color="#A1A2FE"/>
<stop offset="0.3" stop-color="#ACB2FB"/>
<stop offset="0.6" stop-color="#B2BCF9"/>
<stop offset="0.99" stop-color="#B5BFF9"/>
</linearGradient>
<linearGradient id="paint88_linear_3091_705" x1="190.026" y1="286.258" x2="238.852" y2="286.258" gradientUnits="userSpaceOnUse">
<stop stop-color="#DCD7FF"/>
<stop offset="0.07" stop-color="#E2DCFF"/>
<stop offset="0.33" stop-color="#F2EAFF"/>
<stop offset="0.62" stop-color="#FBF2FF"/>
<stop offset="1" stop-color="#FFF5FF"/>
</linearGradient>
<linearGradient id="paint89_linear_3091_705" x1="153.17" y1="298.258" x2="183.362" y2="298.258" gradientUnits="userSpaceOnUse">
<stop stop-color="#DCD7FF"/>
<stop offset="0.07" stop-color="#E2DCFF"/>
<stop offset="0.33" stop-color="#F2EAFF"/>
<stop offset="0.62" stop-color="#FBF2FF"/>
<stop offset="1" stop-color="#FFF5FF"/>
</linearGradient>
<linearGradient id="paint90_linear_3091_705" x1="510.047" y1="343.222" x2="510.047" y2="270.897" gradientUnits="userSpaceOnUse">
<stop stop-color="#C7B6FF"/>
<stop offset="0.19" stop-color="#CECBFF"/>
<stop offset="0.4" stop-color="#D4DBFF"/>
<stop offset="0.64" stop-color="#D7E4FF"/>
<stop offset="0.95" stop-color="#D9E8FF"/>
</linearGradient>
<linearGradient id="paint91_linear_3091_705" x1="455.943" y1="326.387" x2="564.121" y2="326.387" gradientUnits="userSpaceOnUse">
<stop stop-color="#9F9FFF"/>
<stop offset="0.05" stop-color="#A1A2FE"/>
<stop offset="0.3" stop-color="#ACB2FB"/>
<stop offset="0.6" stop-color="#B2BCF9"/>
<stop offset="0.99" stop-color="#B5BFF9"/>
</linearGradient>
<linearGradient id="paint92_linear_3091_705" x1="470.509" y1="315.714" x2="503.325" y2="315.714" gradientUnits="userSpaceOnUse">
<stop stop-color="#DCD7FF"/>
<stop offset="0.07" stop-color="#E2DCFF"/>
<stop offset="0.33" stop-color="#F2EAFF"/>
<stop offset="0.62" stop-color="#FBF2FF"/>
<stop offset="1" stop-color="#FFF5FF"/>
</linearGradient>
<linearGradient id="paint93_linear_3091_705" x1="508.631" y1="312.234" x2="564.121" y2="312.234" gradientUnits="userSpaceOnUse">
<stop stop-color="#DCD7FF"/>
<stop offset="0.07" stop-color="#E2DCFF"/>
<stop offset="0.33" stop-color="#F2EAFF"/>
<stop offset="0.62" stop-color="#FBF2FF"/>
<stop offset="1" stop-color="#FFF5FF"/>
</linearGradient>
</defs>
</svg>
