<svg width="562" height="343" viewBox="0 0 562 343" fill="none" xmlns="http://www.w3.org/2000/svg">
<g filter="url(#filter0_d_3091_983)">
<rect x="31.5569" y="40.6816" width="518.443" height="286.427" rx="53" fill="url(#paint0_linear_3091_983)"/>
</g>
<path style="mix-blend-mode:screen" opacity="0.2" fill-rule="evenodd" clip-rule="evenodd" d="M2.45519 152.347C16.1565 172.213 42.2741 175.023 54.908 160.146C67.0192 145.9 62.9241 107.845 62.9241 107.845C62.9241 107.845 29.5965 140.018 16.614 120.153C4.28494 101.289 50.6604 85.6269 73.5105 89.722C97.2319 93.9914 61.1161 157.314 103.701 170.514C153.039 185.806 300.595 111.505 273.955 67.3947C263.194 49.5765 201.571 89.7438 203.466 39.7525C204.163 21.3461 228.146 33.8711 231.217 39.1208C232.35 41.0594 232.023 22.5223 223.528 22.1084C199.937 20.954 178.046 68.7671 197.672 78.7435C213.573 86.8249 267.181 53.0181 264.197 80.3772C262.759 93.4251 172.6 172.104 133.609 156.355C110.193 146.902 95.0754 99.1104 84.3147 84.8209C74.4471 71.7295 58.8072 58.1153 44.2999 69.7473C27.244 83.4268 -9.85205 134.486 2.45519 152.326V152.347ZM20.1864 125.99C31.7312 137.884 56.9992 115.687 56.1279 117.974C40.3354 160.342 16.4615 158.425 11.9307 134.616C9.92668 124.117 11.9743 117.517 20.1864 125.99Z" fill="url(#paint1_radial_3091_983)"/>
<path fill-rule="evenodd" clip-rule="evenodd" d="M219.171 253.726L223.571 246.037L35.4988 244.272L40.1385 257.865L61.5945 293.196L87.6684 302.04L106.75 295.2L121.323 295.68L123.305 301.844L146.395 305.286L160.771 295.462L164.54 286.444L173.972 288.491L195.645 277.818L202.986 284.222L227.601 271.305L240.169 250.807L219.171 253.726Z" fill="url(#paint2_linear_3091_983)"/>
<path fill-rule="evenodd" clip-rule="evenodd" d="M87.6682 302.04L82.5492 250.851L36.958 248.542L40.1383 257.865L61.5943 293.197L87.6682 302.04Z" fill="url(#paint3_linear_3091_983)"/>
<path fill-rule="evenodd" clip-rule="evenodd" d="M27.0034 251.135L35.4769 275.531L46.9564 275.292L57.1942 273.549L65.036 253.596L27.0034 251.135Z" fill="url(#paint4_linear_3091_983)"/>
<path fill-rule="evenodd" clip-rule="evenodd" d="M119.688 289.187L121.518 256.448L158.767 256.121L153.495 283.807L148.725 294.35L119.688 289.187Z" fill="url(#paint5_linear_3091_983)"/>
<path style="mix-blend-mode:screen" opacity="0.6" fill-rule="evenodd" clip-rule="evenodd" d="M167.262 268.43L195.166 260.74L206.275 263.267L184.427 274.79L167.262 268.43Z" fill="url(#paint6_linear_3091_983)"/>
<g style="mix-blend-mode:multiply" opacity="0.5">
<path fill-rule="evenodd" clip-rule="evenodd" d="M61.5942 293.196L86.4047 289.515L82.5492 250.851L89.6068 251.221L92.4386 271.305L102.328 275.857L120.015 283.242L119.689 289.188L142.408 293.218L153.496 283.808L158.767 256.122L202.332 245.841L223.571 246.037L221.327 249.936L204.772 255.73L200.546 261.96L206.275 263.267L202.986 284.222L195.645 277.818L173.971 288.491L184.427 274.79L167.262 268.43L164.539 286.444L160.771 295.462L146.394 305.286L123.305 301.844L121.322 295.68L106.75 295.2L87.6682 302.04L61.5942 293.196Z" fill="#311565"/>
</g>
<g style="mix-blend-mode:multiply" opacity="0.5">
<path fill-rule="evenodd" clip-rule="evenodd" d="M106.75 295.2L102.328 275.857L120.015 283.242L119.688 289.188L121.322 295.68L106.75 295.2Z" fill="#311565"/>
</g>
<path fill-rule="evenodd" clip-rule="evenodd" d="M204.772 255.731C205.208 255.579 214.379 256.886 214.379 256.886L240.169 250.83L223.789 249.109L204.794 255.731H204.772Z" fill="url(#paint7_linear_3091_983)"/>
<g style="mix-blend-mode:multiply" opacity="0.5">
<path fill-rule="evenodd" clip-rule="evenodd" d="M35.4763 275.532L47.5658 270.652L48.742 252.551L65.0355 253.596L57.1937 273.549L46.9559 275.292L35.4763 275.532Z" fill="#311565"/>
</g>
<g style="mix-blend-mode:multiply" opacity="0.5">
<path fill-rule="evenodd" clip-rule="evenodd" d="M57.1937 273.548L47.5658 270.651L35.4763 275.531L46.9559 275.291L57.1937 273.548Z" fill="#311565"/>
</g>
<path fill-rule="evenodd" clip-rule="evenodd" d="M161.926 299.207C162.47 299.098 172.098 295.134 172.098 295.134L186.061 293.413L179.635 305.524L169.005 312.277L163.625 312.538L161.926 299.207Z" fill="url(#paint8_linear_3091_983)"/>
<g style="mix-blend-mode:multiply" opacity="0.5">
<path fill-rule="evenodd" clip-rule="evenodd" d="M161.926 299.208L172.599 300.101L186.061 293.436L179.613 305.547L168.983 312.299L163.625 312.539L161.926 299.208Z" fill="#311565"/>
</g>
<g style="mix-blend-mode:multiply" opacity="0.5">
<path fill-rule="evenodd" clip-rule="evenodd" d="M172.599 300.101L168.983 312.299L179.613 305.547L186.06 293.436L172.599 300.101Z" fill="#311565"/>
</g>
<g style="mix-blend-mode:multiply" opacity="0.5">
<path fill-rule="evenodd" clip-rule="evenodd" d="M176.738 294.567L168.155 299.73L161.926 299.207L172.098 295.134L176.738 294.567Z" fill="#311565"/>
</g>
<g style="mix-blend-mode:multiply" opacity="0.5">
<path fill-rule="evenodd" clip-rule="evenodd" d="M195.645 277.816L206.275 263.266L184.427 274.789L173.971 288.49L195.645 277.816Z" fill="#311565"/>
</g>
<g style="mix-blend-mode:multiply" opacity="0.5">
<path fill-rule="evenodd" clip-rule="evenodd" d="M30.9897 262.635L48.1545 261.437L60.0043 265.336L83.7474 263.027L92.1774 269.475L120.473 274.855L121.127 263.115L157.874 262.635L166.173 275.618C166.173 275.618 172.817 270.521 173.122 270.63C173.427 270.739 198.15 261.437 198.15 261.437L200.546 261.982L204.772 255.73L221.327 249.958L226.294 241.419L24.9341 242.617L30.9897 262.657V262.635Z" fill="#311565"/>
</g>
<g style="mix-blend-mode:multiply" opacity="0.5">
<path fill-rule="evenodd" clip-rule="evenodd" d="M214.379 256.862L202.986 284.221L227.601 271.304L240.169 250.807L214.379 256.862Z" fill="#311565"/>
</g>
<g style="mix-blend-mode:screen" opacity="0.6">
<path style="mix-blend-mode:screen" opacity="0.6" fill-rule="evenodd" clip-rule="evenodd" d="M223.788 249.086L221.327 249.935L226.315 241.396L24.9338 242.595L27.526 251.177L27.0032 251.133L35.4767 275.53L46.9562 275.29L50.376 274.702L61.5942 293.196L87.6681 302.04L106.75 295.2L121.322 295.679L123.305 301.844L146.394 305.285L160.771 295.461L164.539 286.443L173.971 288.491L195.645 277.817L202.986 284.221L227.6 271.304L240.169 250.807L223.788 249.086Z" fill="url(#paint9_linear_3091_983)"/>
<path style="mix-blend-mode:multiply" opacity="0.5" fill-rule="evenodd" clip-rule="evenodd" d="M176.738 294.569L172.098 295.136L161.925 299.209L163.624 312.54L168.983 312.3L179.613 305.548L186.061 293.437L176.738 294.569Z" fill="url(#paint10_linear_3091_983)"/>
</g>
<path fill-rule="evenodd" clip-rule="evenodd" d="M43.0578 160.713C43.0578 160.713 51.2699 191.819 62.5969 229.895L66.6484 227.825C66.6484 227.825 49.8976 180.404 46.6084 160.234C46.6084 160.234 53.7749 160.343 53.3828 159.428C52.8818 158.273 44.3865 149.408 42.3825 148.514C40.3785 147.6 35.4774 159.624 36.5448 160.321C38.0478 161.279 43.0796 160.713 43.0796 160.713H43.0578Z" fill="#19264D"/>
<path fill-rule="evenodd" clip-rule="evenodd" d="M118.295 159.362C118.295 159.362 117.402 189.575 117.358 228.892L121.388 228.021C121.388 228.021 119.101 178.596 121.323 159.297C121.323 159.297 126.202 160.516 126.093 159.602C125.941 158.447 121.17 150.235 119.776 149.298C118.382 148.362 113.285 157.706 113.916 158.404C114.831 159.406 118.317 159.384 118.317 159.384L118.295 159.362Z" fill="#19264D"/>
<path fill-rule="evenodd" clip-rule="evenodd" d="M32.7979 188.333L107.73 182.952L144.238 185.828L144.391 184.303L108.34 181.166C108.34 181.166 70.3295 184.128 29.5522 186.198L32.7979 188.333Z" fill="#19264D"/>
<path d="M212.702 43.9138C212.702 43.9138 192.03 27.7946 178.263 27.2936C164.475 26.8144 156.851 33.9591 156.851 33.9591L154.586 76.675C154.586 76.675 142.736 79.8335 132.65 87.4357C132.65 87.4357 122.042 82.687 120.844 82.8395C119.646 82.992 106.903 92.7942 106.533 95.3646C106.163 97.935 104.289 128.605 106.533 131.655C108.777 134.704 114.941 133.833 124.351 135.467C133.783 137.1 134.742 137.296 134.742 137.296C134.742 137.296 136.201 144.201 138.314 148.035C140.427 151.869 144.391 156.269 144.391 156.269C144.391 156.269 141.647 167.836 140.558 177.965C139.468 188.094 138.88 192.973 138.88 192.973L124.721 194.672L142.017 202.753L174.059 206.043L178.939 154.94C178.939 154.94 151.166 153.612 149.706 132.526C148.247 111.44 148.595 97.6082 165.303 89.7447C182.032 81.8811 202.987 63.4311 202.987 63.4311L212.724 43.892L212.702 43.9138Z" fill="#1BACE0"/>
<path fill-rule="evenodd" clip-rule="evenodd" d="M230.869 149.864L221.001 151.28L200.024 150.779L211.504 144.832L230.869 149.864Z" fill="url(#paint11_linear_3091_983)"/>
<path d="M140.34 200.553L145.894 154.875C145.894 154.875 138.227 149.451 135.373 138.233L107.818 133.419C107.818 133.419 104.703 115.426 108.188 95.1028L121.824 83.7976L133.543 89.1561C133.543 89.1561 139.795 82.4688 155.479 77.5895L158.528 34.525C158.528 34.525 169.049 27.2496 177.479 28.4912L171.729 78.0687L145.175 111.418L162.231 152.065L159.029 202.797L140.34 200.575V200.553Z" fill="url(#paint12_linear_3091_983)"/>
<path d="M219.15 100.309L210.742 104.818L209.435 109.784L207.17 113.487L217.081 114.402L219.15 100.309Z" fill="url(#paint13_linear_3091_983)"/>
<path fill-rule="evenodd" clip-rule="evenodd" d="M236.597 117.43L224.094 113.073C224.094 113.073 220.957 103.053 219.149 100.308L215.86 110.525L207.082 111.243L206.537 112.136C210 119.107 211.133 126.775 208.519 132.503C205.905 138.254 201.004 141.979 195.188 143.721C191.964 144.702 188.436 145.072 184.841 144.854C184.123 144.811 183.382 144.745 182.641 144.636C181.552 144.506 180.463 144.31 179.374 144.048C178.132 143.765 176.934 143.395 175.78 142.981C174.778 142.611 173.798 142.197 172.861 141.717C163.494 137.034 157.744 127.515 160.684 116.471C161.381 113.857 162.296 111.331 163.429 108.978C163.429 108.978 163.429 101.724 166.087 100.112C168.766 98.5005 169.855 99.7857 169.855 99.7857C171.859 97.8688 174.081 96.344 176.542 95.3856C177.522 95.0153 178.546 94.7103 179.592 94.5143C180.202 94.4054 180.812 94.3182 181.443 94.2747C182.576 94.1875 183.731 94.2311 184.929 94.3836C185.822 94.4925 186.737 94.6885 187.673 94.9499C188.697 95.2331 189.721 95.6034 190.788 96.0826C194.448 97.7163 197.846 100.352 200.721 103.576L201.527 103.467C205.905 94.8628 210.458 86.6507 210.458 86.6507L210.85 86.8032C209.565 85.3655 208.389 84.1675 207.365 83.0566L214.597 45.416C214.597 45.416 205.099 37.2257 190.592 31.9325C188.414 31.1265 186.105 30.4077 183.709 29.776H183.687C182.554 29.4711 181.4 29.2097 180.245 28.9701C179.352 28.774 178.437 28.5997 177.501 28.4473L169.746 75.7593C169.746 75.7593 149.51 80.9001 140.557 92.336L121.824 83.7754C121.824 83.7754 119.079 108.412 119.842 128.561L144.543 131.915C144.543 131.915 149.597 144.31 157.068 152.304L149.553 200.444L185.234 201.664L194.84 160.647C194.84 160.647 206.602 156.334 213.442 147.185L230.847 149.864C230.847 149.864 238.079 132.961 236.576 117.43H236.597Z" fill="url(#paint14_radial_3091_983)"/>
<path style="mix-blend-mode:screen" opacity="0.6" d="M187.673 94.95C186.736 94.6887 185.821 94.4926 184.928 94.3837C186.257 72.0564 188.109 49.6638 190.592 31.9326L194.818 34.4376C194.818 34.4376 190.81 56.155 187.673 94.95Z" fill="url(#paint15_linear_3091_983)"/>
<path style="mix-blend-mode:screen" opacity="0.6" d="M185.256 201.686L181.509 199.769C181.509 199.769 181.618 176.157 182.642 144.659C183.382 144.746 184.101 144.833 184.842 144.877C183.252 189.466 185.256 201.708 185.256 201.708V201.686Z" fill="url(#paint16_linear_3091_983)"/>
<path style="mix-blend-mode:screen" opacity="0.6" d="M176.281 72.1005C176.281 72.1005 177.457 44.3493 180.224 28.9707L183.665 29.7767H183.687C183.687 29.7767 177.784 51.0802 178.241 75.0194C178.416 84.582 179.047 90.3327 179.592 94.5149C178.546 94.711 177.522 94.9942 176.542 95.3863C177.087 77.7205 176.259 72.1005 176.259 72.1005H176.281Z" fill="url(#paint17_linear_3091_983)"/>
<path style="mix-blend-mode:screen" opacity="0.6" d="M175.214 200.444L162.231 198.701C162.231 198.701 168.613 175.524 172.861 141.739C173.798 142.218 174.778 142.632 175.78 143.003C173.863 163.871 172.643 188.093 175.192 200.444H175.214Z" fill="url(#paint18_linear_3091_983)"/>
<path d="M200.722 103.555L194.906 104.361C189.482 98.0438 182.86 94.2972 181.357 94.2972C181.379 94.2972 181.423 94.2972 181.444 94.2972C184.734 93.7526 188.611 94.9507 192.249 96.5844C195.647 98.0874 198.805 100.505 201.528 103.468L200.722 103.577V103.555Z" fill="url(#paint19_linear_3091_983)"/>
<path d="M209.652 132.373C206.842 138.559 201.44 142.284 195.189 143.744C194.448 143.918 193.685 144.07 192.923 144.179C192.923 144.179 204.337 137.035 202.268 119.826C202.246 119.63 202.224 119.434 202.181 119.216L206.537 112.137L207.082 111.266C210.937 118.432 212.331 126.47 209.652 132.373Z" fill="url(#paint20_linear_3091_983)"/>
<path style="mix-blend-mode:soft-light" opacity="0.3" fill-rule="evenodd" clip-rule="evenodd" d="M123.349 88.0457C120.517 95.343 119.689 124.183 122.848 126.078C127.988 129.193 154.89 121.7 158.005 112.442C161.163 103.01 124.982 83.8199 123.37 88.024L123.349 88.0457ZM126.028 96.345C126.594 91.1389 130.668 91.1389 134.414 99.2639C138.161 107.389 125.2 104.078 126.028 96.345ZM135.874 97.3252C135.394 94.4063 139.119 95.3865 140.535 97.3252C141.951 99.2639 136.375 100.397 135.874 97.3252Z" fill="url(#paint21_linear_3091_983)"/>
<g style="mix-blend-mode:soft-light" opacity="0.5">
<path fill-rule="evenodd" clip-rule="evenodd" d="M117.62 129.257C110.693 131.588 106.031 131.566 109.712 133.026C113.35 134.485 127.182 136.358 133.042 137.208C138.836 138.057 144.935 133.091 143.432 132.394C139.773 130.695 117.62 129.235 117.62 129.235V129.257Z" fill="#7A369E"/>
</g>
<path style="mix-blend-mode:soft-light" opacity="0.3" fill-rule="evenodd" clip-rule="evenodd" d="M209.5 45.1544C205.753 42.1919 187.129 30.451 181.77 33.6313C176.564 36.7245 170.443 78.482 172.317 82.2722C174.168 86.0188 199.654 85.9317 204.381 76.5215C209.195 66.9589 213.225 48.0951 209.5 45.1544ZM200.199 55.0873C200.351 56.3943 197.28 58.7032 197.28 56.1764C197.28 54.6517 200.046 53.8021 200.199 55.0873ZM196.626 73.9294C194.034 72.1432 193.054 71.8164 192.923 67.4381C192.792 63.0598 200.852 62.733 201.963 68.4183C203.096 74.1036 199.022 75.5849 196.626 73.9511V73.9294ZM201.527 52.4952C201.07 47.9426 207.343 48.7703 207.997 53.8021C208.65 58.8339 202.464 61.731 201.527 52.4952Z" fill="url(#paint22_linear_3091_983)"/>
<path d="M140.535 92.3376C147.114 88.9612 166.631 76.6758 166.631 76.6758C166.631 76.6758 151.71 81.8601 146.591 86.5434C141.494 91.2049 140.535 92.3376 140.535 92.3376Z" fill="#09AC61"/>
<path d="M175.802 142.98C175.802 142.98 178.873 147.032 188.262 146.618C197.541 146.226 204.62 139.06 204.62 139.06C204.62 139.06 192.923 148.23 175.78 142.98H175.802Z" fill="#09AC61"/>
<path d="M121.236 89.7666C121.236 89.7666 117.664 103.163 117.533 108.87C117.402 114.512 119.711 121.613 119.711 121.613C119.711 121.613 121.65 114.098 121.672 107.236C121.693 100.266 121.236 89.7666 121.236 89.7666Z" fill="#15524F"/>
<path d="M156.677 154.962C156.677 154.962 151.711 167.117 151.471 169.927C151.232 172.715 152.647 180.796 152.647 180.796C152.647 180.796 156.612 171.647 157.265 165.788C157.919 159.863 156.655 154.962 156.655 154.962H156.677Z" fill="#15524F"/>
<path style="mix-blend-mode:screen" opacity="0.6" fill-rule="evenodd" clip-rule="evenodd" d="M146.177 128.365C147.07 135.554 159.748 152.109 162.623 153.524C165.477 154.94 172.055 147.033 166.609 140.172C161.033 133.136 145.567 123.421 146.177 128.365Z" fill="url(#paint23_linear_3091_983)"/>
<path style="mix-blend-mode:multiply" opacity="0.7" d="M189.568 183.301C191.093 181.188 171.859 175.133 169.332 176.004C163.102 178.161 151.449 186.743 151.449 186.743L149.575 200.466L185.255 201.686L189.547 183.301H189.568Z" fill="url(#paint24_linear_3091_983)"/>
<path style="mix-blend-mode:screen" opacity="0.6" fill-rule="evenodd" clip-rule="evenodd" d="M236.597 117.43L224.094 113.073C224.094 113.073 220.957 103.053 219.149 100.308L210.741 104.818L209.434 109.762L208.628 111.113L207.103 111.243L206.559 112.137L202.202 119.216C202.224 119.412 202.268 119.608 202.289 119.826C204.141 135.161 195.297 142.48 193.337 143.918C188.654 144.92 182.707 145.116 175.824 143.003C174.822 142.632 173.841 142.218 172.905 141.739C163.538 137.056 157.787 127.537 160.728 116.493C161.425 113.879 162.34 111.352 163.473 109C163.473 109 163.473 101.746 166.13 100.134C168.809 98.5223 169.899 99.8075 169.899 99.8075C171.903 97.8906 174.124 96.3658 176.586 95.4074C177.566 95.0371 178.59 94.7321 179.636 94.5361C180.245 94.4272 180.855 94.34 181.487 94.2965C181.465 94.2965 181.422 94.2965 181.4 94.2965C182.903 94.2965 189.525 98.0431 194.949 104.36L200.765 103.554L201.571 103.445C205.949 94.841 210.502 86.6289 210.502 86.6289L210.894 86.7814C209.608 85.3438 208.432 84.1457 207.408 83.0348L214.64 45.3942C214.64 45.3942 211.329 42.5407 205.644 39.1208C198.87 34.9167 189.089 29.9285 179.527 28.8176C178.873 28.6869 178.198 28.5562 177.544 28.4473C169.114 27.2057 158.593 34.4811 158.593 34.4811L155.544 77.5455C139.838 82.4249 133.609 89.1122 133.609 89.1122L127.204 86.1933L121.889 83.7536L108.253 95.0589C104.768 115.382 107.883 133.375 107.883 133.375L135.438 138.189C138.292 149.407 145.959 154.831 145.959 154.831L140.405 200.509L159.094 202.731L159.225 200.749L185.321 201.642L194.927 160.625C194.927 160.625 203.422 157.51 210.153 150.975L221.088 151.237L230.956 149.821C230.956 149.821 238.187 132.917 236.684 117.386L236.597 117.43Z" fill="url(#paint25_linear_3091_983)"/>
<path d="M68.3909 162.607C68.3909 162.607 78.0406 168.075 91.0884 171.299L95.2489 194.955L66.6265 195.848C66.6265 195.848 70.678 180.295 68.3909 162.629V162.607Z" fill="url(#paint26_radial_3091_983)"/>
<path d="M68.3902 162.608C66.0159 162.869 84.8579 173.02 91.0878 171.299C91.0878 171.299 75.927 161.78 68.3902 162.608Z" fill="#F6D8B6"/>
<path d="M79.3038 167.421L80.088 167.857C80.088 167.857 79.3474 163.958 79.7395 159.906C80.1316 155.833 84.401 153.654 84.401 153.654C84.401 153.654 84.5099 151.454 82.2227 150.932C82.2227 150.932 79.1514 155.55 78.9553 160.734C78.7593 165.722 79.3256 167.443 79.3256 167.443L79.3038 167.421Z" fill="url(#paint27_linear_3091_983)"/>
<g style="mix-blend-mode:multiply" opacity="0.5">
<path d="M68.848 180.948C67.846 189.683 83.2246 194.475 89.4763 191.534C91.1318 190.75 92.2427 177.681 92.2427 177.681L95.2705 194.954L66.6479 195.847C66.6479 195.847 67.2361 194.366 67.9549 189.029C68.6955 183.627 68.848 180.948 68.848 180.948Z" fill="#E5A3E5"/>
</g>
<path d="M78.8893 168.728C78.8893 168.728 78.2794 174.565 81.6339 175.415C84.9884 176.264 87.0578 171.755 86.9707 171.494C86.8836 171.233 82.3746 170.252 78.8893 168.728Z" fill="white"/>
<path d="M79.6527 161.279C71.1793 154.831 83.4647 151.411 81.831 144.332C81.831 144.332 85.948 155.964 84.4014 156.77C79.0864 159.58 79.6527 161.279 79.6527 161.279Z" fill="url(#paint28_linear_3091_983)"/>
<path d="M247.272 206.066C247.446 205.739 249.276 202.341 249.145 199.64C249.014 196.917 248.078 195.828 248.078 195.828C248.078 195.828 247.032 196.351 246.618 197.745C246.618 197.745 248.274 198.137 248.296 200.991C248.296 203.844 246.793 206.044 246.793 206.044H247.294L247.272 206.066Z" fill="url(#paint29_linear_3091_983)"/>
<path d="M249.886 224.799C244.919 225.866 239.865 224.668 239.865 224.668C241.216 219.375 241.303 214.147 241.194 211.01C241.129 209.181 240.976 208.07 240.976 208.07C245.638 204.149 252.935 204.192 252.935 204.192C252.935 204.998 252.935 205.848 252.87 206.741C252.87 206.741 252.87 206.763 252.87 206.785C252.412 214.626 249.864 224.799 249.864 224.799H249.886Z" fill="url(#paint30_radial_3091_983)"/>
<g style="mix-blend-mode:multiply" opacity="0.5">
<path d="M249.886 224.799C244.919 225.867 239.865 224.669 239.865 224.669C241.216 219.376 241.303 214.148 241.194 211.011C241.194 211.011 241.739 217.263 241.804 222.382C241.804 223.34 247.86 223.601 248.949 222.055C250.038 220.508 252.412 214.278 252.892 206.785C252.434 214.627 249.886 224.799 249.886 224.799Z" fill="#E5A3E5"/>
</g>
<path fill-rule="evenodd" clip-rule="evenodd" d="M165.324 193.997L38.8103 196.154L44.757 236.125L159.966 232.095L230.215 223.818L232.742 206.152L165.324 193.997Z" fill="url(#paint31_linear_3091_983)"/>
<path fill-rule="evenodd" clip-rule="evenodd" d="M10.6013 238.674L25.2393 258.234L70.1771 257.821L81.308 254.858L81.6348 260.151L168.504 259.193L201.461 249.674L208.214 250.48L238.579 245.753L246.007 237.41L230.607 236.648L249.405 234.252L257.138 225.299L252.215 223.927L122.652 223.796L83.5952 225.234L83.1378 232.465L75.3178 231.442C75.3178 231.442 12.235 238.412 10.6013 238.652V238.674Z" fill="url(#paint32_linear_3091_983)"/>
<path fill-rule="evenodd" clip-rule="evenodd" d="M209.629 245.818L246.028 237.432L207.103 235.515L175.474 239.261L202.811 241.483L202.332 245.84L209.629 245.818Z" fill="url(#paint33_linear_3091_983)"/>
<path fill-rule="evenodd" clip-rule="evenodd" d="M10.6013 238.672C10.6013 238.672 52.4459 242.615 71.0266 242.615L117.925 235.056L75.3178 231.462L10.6013 238.672Z" fill="url(#paint34_linear_3091_983)"/>
<path fill-rule="evenodd" clip-rule="evenodd" d="M80.5454 242.615C80.5454 242.615 168.983 248.104 169.68 248.104C170.377 248.104 203.661 241.591 202.812 241.482C201.962 241.373 125.44 235.23 125.44 235.23L80.5672 242.637L80.5454 242.615Z" fill="url(#paint35_linear_3091_983)"/>
<path style="mix-blend-mode:multiply" opacity="0.7" fill-rule="evenodd" clip-rule="evenodd" d="M201.483 249.695L202.812 241.482L169.681 248.104L139.817 246.275L121.497 259.715L168.526 259.214L201.483 249.695Z" fill="url(#paint36_linear_3091_983)"/>
<path d="M87.4497 230.309L149.465 219.047L190.286 221.704L135.829 233.554L87.4497 230.309Z" fill="url(#paint37_linear_3091_983)"/>
<path d="M190.286 221.704L135.829 233.554L87.4497 230.308L87.8418 232.508L117.946 235.035V236.451L125.417 235.209L164.43 238.346L166.325 228.195L190.09 223.882L190.286 221.704Z" fill="#076249"/>
<path d="M166.326 228.196L209.259 230.679L226.359 231.942L257.16 225.32L252.215 223.948L190.091 223.883L166.326 228.196Z" fill="url(#paint38_linear_3091_983)"/>
<path style="mix-blend-mode:multiply" opacity="0.7" d="M166.326 228.195L226.359 231.942L226.991 236.495L206.624 235.514L175.475 239.261L164.431 238.346L166.326 228.195Z" fill="url(#paint39_linear_3091_983)"/>
<path d="M243.35 217.369L233.875 213.797L212.005 212.533L206.821 225.102C206.821 225.102 230.716 227.171 231.195 227.171L242.98 224.688L243.328 217.369H243.35Z" fill="url(#paint40_linear_3091_983)"/>
<path style="mix-blend-mode:multiply" opacity="0.7" fill-rule="evenodd" clip-rule="evenodd" d="M165.325 193.997L162.166 219.875L190.309 221.705L190.113 223.883L200.416 225.647L232.851 230.57L257.16 225.342L252.238 223.97H243.132L243.372 217.392L233.897 213.819L231.217 227.194L213.726 225.713C213.726 225.713 215.098 212.73 215.316 212.73C215.534 212.73 231.675 213.689 231.675 213.689L232.742 206.152L165.325 193.997Z" fill="url(#paint41_linear_3091_983)"/>
<path style="mix-blend-mode:multiply" opacity="0.7" d="M70.1766 257.798L71.0261 242.594C72.0281 242.115 117.924 235.035 117.924 235.035L87.8205 232.509L87.4285 230.287L135.808 233.532L190.286 221.683L190.09 223.861L166.304 228.174L175.452 239.24L164.409 238.346L125.396 235.21L80.5234 242.616L81.2857 254.858L70.1548 257.82L70.1766 257.798Z" fill="url(#paint42_linear_3091_983)"/>
<path style="mix-blend-mode:multiply" opacity="0.7" d="M204.86 250.087L201.483 249.695L168.526 259.214L169.681 248.104L202.812 241.482L202.333 245.839L204.86 250.087Z" fill="url(#paint43_linear_3091_983)"/>
<path style="mix-blend-mode:multiply" opacity="0.7" d="M209.631 245.819L208.215 250.502L238.602 245.775L246.03 237.433L209.631 245.819Z" fill="url(#paint44_linear_3091_983)"/>
<path style="mix-blend-mode:multiply" opacity="0.7" fill-rule="evenodd" clip-rule="evenodd" d="M133.935 194.497L146.308 219.613L134.436 221.769L148.399 230.809L135.83 233.554L135.504 236.015L125.418 235.209L117.947 236.451V235.035L74.5772 231.397L60.4185 233.118L72.6603 195.586L133.935 194.497Z" fill="url(#paint45_linear_3091_983)"/>
<path style="mix-blend-mode:multiply" opacity="0.7" d="M194.012 251.83L185.931 244.925L142.387 246.45L123.632 259.694L121.497 259.715L139.817 246.275L187.194 244.271L196.778 251.046L194.012 251.83Z" fill="url(#paint46_linear_3091_983)"/>
<path d="M129.6 255.467C129.6 255.467 137.638 251.503 137.79 251.22C137.965 250.937 140.47 247.8 140.47 247.8L134.022 251.655L129.6 255.489V255.467Z" fill="url(#paint47_linear_3091_983)"/>
<path style="mix-blend-mode:multiply" opacity="0.15" d="M71.0263 242.615L70.1768 257.82L51.2476 257.994C51.2476 257.994 38.3522 240.982 39.0492 241.047C39.7463 241.091 71.0481 242.637 71.0481 242.637L71.0263 242.615Z" fill="url(#paint48_linear_3091_983)"/>
<path style="mix-blend-mode:multiply" opacity="0.15" d="M80.5454 242.616L81.6564 260.151L95.8805 259.999L132.214 245.971L80.5454 242.616Z" fill="url(#paint49_linear_3091_983)"/>
<path d="M125.418 235.21L80.5454 242.616L108.057 244.315C108.057 244.315 86.7317 242.616 88.7357 242.159C90.7397 241.701 125.418 235.21 125.418 235.21Z" fill="#83FFEA"/>
<g style="mix-blend-mode:soft-light" opacity="0.52">
<path fill-rule="evenodd" clip-rule="evenodd" d="M59.0459 202.404C59.0459 209.483 65.4282 207.566 65.0361 204.56C64.6441 201.554 59.0459 199.267 59.0459 202.404Z" fill="#0E3E47"/>
</g>
<g style="mix-blend-mode:soft-light" opacity="0.52">
<path fill-rule="evenodd" clip-rule="evenodd" d="M64.2516 197.983C63.6199 198.985 64.5783 200.88 65.6239 200.096C66.6694 199.312 65.5368 195.913 64.2516 197.983Z" fill="#0E3E47"/>
</g>
<path d="M53.7539 212.468C53.0133 210.072 52.338 206.499 53.1658 204.844C53.1658 204.844 54.647 204.365 55.3223 206.238C55.3223 206.238 53.5143 206.892 53.5143 209.309C53.5143 211.727 54.538 212.969 54.538 212.969L53.7539 212.468Z" fill="url(#paint50_linear_3091_983)"/>
<path d="M63.0763 235.797L48.1116 235.296C48.1116 235.296 48.5036 227.563 48.5036 219.94C48.5036 217.435 48.4383 214.951 48.3294 212.751C48.3294 212.751 52.2067 210.181 60.1356 214.363C60.1356 214.363 60.1356 217.151 60.4188 220.92C60.7455 225.472 61.4862 231.463 63.0981 235.754L63.0763 235.797Z" fill="url(#paint51_radial_3091_983)"/>
<g style="mix-blend-mode:multiply" opacity="0.5">
<path d="M63.0763 235.797L48.1116 235.296C48.1116 235.296 48.5036 227.563 48.5036 219.939C49.571 227.019 50.7473 231.201 51.5097 231.506C52.2939 231.811 59.8742 232.29 60.1356 231.288C60.397 230.286 60.397 220.941 60.397 220.941C60.7237 225.494 61.4644 231.484 63.0763 235.775V235.797Z" fill="#E5A3E5"/>
</g>
<path d="M52.076 238.218C41.6856 239.307 25.2179 238.131 25.2179 238.131C25.8496 228.22 25.3268 220.204 24.4337 214.105C22.9743 204.106 20.5781 199.314 20.5781 199.314C35.1726 197.659 44.3213 193.062 44.3213 193.062C44.5827 195.938 45.062 199.597 45.6719 203.562C48.0026 218.723 52.0542 238.218 52.0542 238.218H52.076Z" fill="url(#paint52_radial_3091_983)"/>
<path d="M20.5565 199.314C20.5565 199.314 23.911 192.278 44.2996 193.062C44.2996 193.062 40.6183 197.266 31.731 198.704C22.8 200.163 20.5347 199.314 20.5347 199.314H20.5565Z" fill="#F6D8B6"/>
<path d="M32.4928 196.264C32.4928 196.264 30.2057 191.951 29.3126 187.616C28.3977 183.238 29.9878 179.753 29.9878 179.753C29.9878 179.753 29.0512 177.248 26.0452 178.62C26.0452 178.62 27.0254 184.436 29.1165 190.317C31.1641 196.111 31.9265 196.961 31.9265 196.961L32.5146 196.264H32.4928Z" fill="url(#paint53_linear_3091_983)"/>
<g style="mix-blend-mode:multiply" opacity="0.5">
<path d="M52.0764 238.217C41.686 239.306 25.2182 238.13 25.2182 238.13C25.8499 228.219 25.3272 220.203 24.4341 214.103C27.0916 224.232 27.4619 232.967 28.1589 234.296C28.8342 235.625 41.4028 235.407 44.4088 232.031C47.3713 228.72 45.7375 204.345 45.694 203.561C48.0247 218.721 52.0764 238.217 52.0764 238.217Z" fill="#E5A3E5"/>
</g>
<mask id="mask0_3091_983" style="mask-type:luminance" maskUnits="userSpaceOnUse" x="28" y="169" width="130" height="68">
<path d="M143.803 236.692L125.419 235.211L117.947 236.453V235.037L103.44 233.817L75.3184 231.464L28.1152 236.649L34.6936 169.819L142.148 176.311L157.221 207.569L143.803 236.692Z" fill="white"/>
</mask>
<g mask="url(#mask0_3091_983)">
<path d="M146.002 231.228C145.654 232.491 142.19 236.042 139.925 237.109C139.925 237.109 132.257 241.182 118.186 243.317L146.002 231.228Z" fill="#680000"/>
<path fill-rule="evenodd" clip-rule="evenodd" d="M138.03 222.797C138.901 223.712 139.62 224.735 140.208 225.781L140.491 226.282C144.456 228.809 146.155 231.27 146.09 231.357C144.216 233.427 141.232 233.187 141.232 233.187C138.509 236.716 125.331 241.791 120.212 242.902C118.97 243.185 118.229 243.316 118.229 243.316C115.594 240.811 115.877 237.609 115.899 237.435C113.786 234.233 110.235 235.126 110.235 235.126C110.235 235.126 98.1457 241.682 95.4447 243.294C92.7436 244.906 84.8147 243.817 79.9572 242.946C75.0561 242.053 64.8835 226.935 64.6439 224.953C64.4043 222.971 73.1828 200.97 93.5714 192.453C119.319 181.693 126.921 197.725 126.921 197.725C127.879 205.218 131.19 213.191 131.19 213.191C131.19 213.191 132.758 211.971 135.198 211.6C137.638 211.23 140.644 216.284 140.339 217.656C140.121 218.702 136.418 221.141 138.03 222.819V222.797Z" fill="url(#paint54_linear_3091_983)"/>
<path d="M97.928 231.182C103.025 232.903 108.34 230.289 112.261 228.96C116.182 227.61 118.665 219.746 118.796 217.633C118.926 215.499 116.661 206.11 112 203.692C107.273 201.253 96.7081 202.93 92.0902 210.685C87.5376 218.33 92.6783 227.131 93.9417 228.764C95.2051 230.398 97.9498 231.204 97.9498 231.204L97.928 231.182Z" fill="url(#paint55_linear_3091_983)"/>
<path d="M131.168 213.169L129.513 214.585C129.513 214.585 122.934 210.817 121.213 204.521C119.471 198.117 122.106 196.44 122.891 195.983C126.986 193.565 131.451 206.308 131.168 213.169Z" fill="url(#paint56_linear_3091_983)"/>
<path d="M123.588 228.483C122.739 228.635 127.183 219.508 130.232 218.31C133.282 217.112 134.698 223.778 134.698 223.778C134.698 223.778 127.313 227.764 123.588 228.483Z" fill="url(#paint57_linear_3091_983)"/>
<path d="M90.4561 218.833C92.264 202.692 111.977 203.694 113.894 215.326C114.94 221.6 112.478 232.251 100.476 231.707C90.652 231.249 90.4561 218.833 90.4561 218.833Z" fill="url(#paint58_linear_3091_983)"/>
<path d="M127.553 201.449C124.612 197.332 119.406 199.184 121.737 206.002C123.174 210.206 129.513 214.562 129.513 214.562L131.169 213.147C131.169 213.147 129.688 204.412 127.553 201.449Z" fill="url(#paint59_linear_3091_983)"/>
<path d="M123.588 228.482C122.913 228.612 125.069 222.644 128.053 220.117C128.053 220.117 131.473 219.377 133.303 224.517C133.303 224.517 126.376 228.002 123.588 228.482Z" fill="#680000"/>
<path opacity="0.5" d="M66.8225 225.129C69.7196 233.319 80.1536 244.101 85.1854 241.117C90.239 238.111 94.4866 230.966 88.8013 223.734C82.9635 216.307 63.8819 216.851 66.8225 225.129Z" fill="#E26680"/>
<path opacity="0.5" d="M110.214 235.105C104.18 236.39 117.664 224.497 118.034 232.295C118.143 234.691 115.856 237.392 115.856 237.392C115.856 237.392 114.157 234.256 110.192 235.083L110.214 235.105Z" fill="#E26680"/>
<path opacity="0.5" d="M140.47 226.282C139.098 227.197 139.185 229.55 139.185 229.55C139.185 229.55 138.183 228.853 135.198 229.593C132.214 230.334 131.713 231.793 131.713 231.793C131.713 231.793 129.84 230.595 126.921 231.924C124.024 233.253 124.002 234.385 124.002 234.385C124.002 234.385 119.537 234.385 118.208 236.629C117.228 238.306 119.972 242.598 119.972 242.598L120.19 242.881C118.949 243.164 118.208 243.295 118.208 243.295C115.572 240.79 115.855 237.587 115.877 237.413C123.436 230.094 139.119 228.068 140.208 225.781L140.339 226.043L140.47 226.304V226.282Z" fill="#E26680"/>
<path opacity="0.5" d="M140.316 217.635C136.396 217.94 134.544 216.111 133.694 217.352C132.845 218.594 137.768 222.471 137.768 222.471C137.768 222.471 136.962 221.643 138.095 220.554C139.227 219.487 140.316 217.614 140.316 217.614V217.635Z" fill="#E26680"/>
<path d="M118.904 236.302C117.793 237.043 121.431 241.661 123.086 241.312C124.742 240.964 126.768 241.312 126.397 239.156C126.027 236.978 125.178 232.098 118.904 236.302Z" fill="#F7DAD2"/>
<path d="M126.964 232.512C125.309 233.558 127.901 238.981 130.036 239.09C132.17 239.199 133.477 237.827 133.238 236.868C132.998 235.91 133.129 228.635 126.964 232.512Z" fill="#F7DAD2"/>
<path d="M140.469 231.923C139.271 228.503 135.982 228.808 134.218 229.876C132.475 230.965 134.849 235.757 136.505 235.692C138.16 235.605 141.21 234.102 140.447 231.923H140.469Z" fill="#F7DAD2"/>
<path d="M75.7317 206.984C72.9 210.796 114.875 195.591 118.208 192.411C122.085 188.73 92.5698 184.286 75.7317 206.984Z" fill="#F7DAD2"/>
<path d="M120.038 217.416C117.489 223.58 115.594 228.808 117.184 228.982C118.753 229.157 128.686 218.483 128.337 217.851C126.747 214.911 120.386 216.566 120.038 217.416Z" fill="#F7DAD2"/>
<path opacity="0.5" d="M76.4503 236.477C75.8622 239.418 81.7 241.226 83.9872 240.812C86.2744 240.398 93.9419 232.752 90.1081 226.762C89.1279 225.215 87.1239 230.748 82.702 231.924C78.2583 233.101 76.9078 234.233 76.4503 236.477Z" fill="#E26680"/>
<g style="mix-blend-mode:soft-light" opacity="0.5">
<path d="M99.8007 206.198C105.551 206.743 107.664 207.048 112.348 210.01C116.966 212.929 117.031 210.359 115.266 206.917C113.437 203.366 108.688 201.428 102.48 203.258C96.2283 205.087 97.7531 206.002 99.8225 206.198H99.8007Z" fill="#722E8C"/>
</g>
<path d="M139.838 226.935C138.858 228.656 142.191 232.642 143.128 232.686C144.043 232.73 146.112 231.619 146.003 231.227C145.916 230.834 141.799 226.696 140.514 226.63C140.078 226.63 140.034 226.565 139.838 226.935Z" fill="#F7DAD2"/>
<path d="M100.238 192.018C96.0553 195.786 111.456 196.287 110.105 190.188C110.105 190.188 103.875 188.728 100.238 192.018Z" fill="white"/>
<path style="mix-blend-mode:color-dodge" d="M111.63 218.025C112.981 225.061 108.188 231.596 100.891 232.729C93.5503 233.861 86.2967 229.156 84.7283 222.077C83.1164 214.889 87.9522 208.071 95.5326 206.981C103.069 205.892 110.279 210.88 111.652 218.025H111.63Z" fill="url(#paint60_radial_3091_983)"/>
<path style="mix-blend-mode:color-dodge" d="M136.243 206.634C137.158 212.428 133.15 217.786 127.291 218.68C121.409 219.573 115.746 215.652 114.657 209.814C113.546 203.889 117.575 198.313 123.653 197.463C129.687 196.614 135.307 200.752 136.243 206.634Z" fill="url(#paint61_radial_3091_983)"/>
</g>
<path d="M144.87 17.9052C143.912 25.9866 136.31 32.9353 127.575 32.1947C118.666 31.4541 110.171 23.1113 111.129 14.7031C112.087 6.27323 120.408 -0.980416 129.383 0.108721C138.183 1.17607 145.829 9.80204 144.87 17.9052Z" fill="#98FFEE"/>
<g style="mix-blend-mode:multiply" opacity="0.2">
<path d="M134.24 25.6165C133.913 28.3393 131.3 30.3434 128.359 30.082C125.396 29.8206 123.24 27.3809 123.567 24.6145C123.893 21.8481 126.551 19.8441 129.513 20.1273C132.454 20.4104 134.567 22.8719 134.24 25.5947V25.6165Z" fill="#594275"/>
</g>
<g style="mix-blend-mode:multiply" opacity="0.2">
<path d="M118.339 19.9954C118.165 21.542 116.902 22.6964 115.508 22.5658C114.114 22.4351 113.133 21.0627 113.308 19.5162C113.482 17.9478 114.745 16.8151 116.139 16.9458C117.533 17.0765 118.492 18.4488 118.318 19.9954H118.339Z" fill="#594275"/>
</g>
<g style="mix-blend-mode:multiply" opacity="0.5">
<path d="M25.4569 232.835L25.3261 237.039L10.6228 238.673L39.0711 241.025C39.0711 241.025 50.1585 239.544 52.0971 238.215C52.0971 238.215 37.4592 238.586 30.0095 236.974C26.1322 236.124 25.4786 232.857 25.4786 232.857L25.4569 232.835Z" fill="#311565"/>
</g>
<g style="mix-blend-mode:multiply" opacity="0.5">
<path d="M63.0757 235.798L51.814 236.996L51.0081 233.01C51.0081 233.01 52.7289 234.23 55.5824 234.84C58.3271 235.449 63.0757 235.776 63.0757 235.776V235.798Z" fill="#311565"/>
</g>
<path style="mix-blend-mode:screen" opacity="0.86" fill-rule="evenodd" clip-rule="evenodd" d="M193.054 240.808L236.794 180.077L201.506 168.729L182.272 239.74L193.054 240.808Z" fill="url(#paint62_linear_3091_983)"/>
<defs>
<filter id="filter0_d_3091_983" x="20.4569" y="33.5816" width="540.643" height="308.627" filterUnits="userSpaceOnUse" color-interpolation-filters="sRGB">
<feFlood flood-opacity="0" result="BackgroundImageFix"/>
<feColorMatrix in="SourceAlpha" type="matrix" values="0 0 0 0 0 0 0 0 0 0 0 0 0 0 0 0 0 0 127 0" result="hardAlpha"/>
<feOffset dy="4"/>
<feGaussianBlur stdDeviation="5.55"/>
<feComposite in2="hardAlpha" operator="out"/>
<feColorMatrix type="matrix" values="0 0 0 0 0 0 0 0 0 0 0 0 0 0 0 0 0 0 0.6 0"/>
<feBlend mode="normal" in2="BackgroundImageFix" result="effect1_dropShadow_3091_983"/>
<feBlend mode="normal" in="SourceGraphic" in2="effect1_dropShadow_3091_983" result="shape"/>
</filter>
<linearGradient id="paint0_linear_3091_983" x1="290.778" y1="40.6816" x2="290.778" y2="327.109" gradientUnits="userSpaceOnUse">
<stop stop-color="#4A0B48"/>
<stop offset="1" stop-color="#059CA0"/>
</linearGradient>
<radialGradient id="paint1_radial_3091_983" cx="0" cy="0" r="1" gradientUnits="userSpaceOnUse" gradientTransform="translate(120.527 88.5283) scale(159.227 154.091)">
<stop stop-color="#00FFFF"/>
<stop offset="0.18" stop-color="#00C2C2"/>
<stop offset="0.41" stop-color="#007E7E"/>
<stop offset="0.61" stop-color="#004747"/>
<stop offset="0.78" stop-color="#002020"/>
<stop offset="0.92" stop-color="#000808"/>
<stop offset="1"/>
</radialGradient>
<linearGradient id="paint2_linear_3091_983" x1="132.214" y1="301.67" x2="137.616" y2="249.718" gradientUnits="userSpaceOnUse">
<stop stop-color="#74095C"/>
<stop offset="1" stop-color="#8B0012"/>
</linearGradient>
<linearGradient id="paint3_linear_3091_983" x1="36.958" y1="275.291" x2="87.6682" y2="275.291" gradientUnits="userSpaceOnUse">
<stop stop-color="#AE282F"/>
<stop offset="1" stop-color="#961037"/>
</linearGradient>
<linearGradient id="paint4_linear_3091_983" x1="27.0034" y1="263.333" x2="65.036" y2="263.333" gradientUnits="userSpaceOnUse">
<stop stop-color="#AE282F"/>
<stop offset="1" stop-color="#961037"/>
</linearGradient>
<linearGradient id="paint5_linear_3091_983" x1="139.228" y1="259.323" x2="139.228" y2="298.009" gradientUnits="userSpaceOnUse">
<stop stop-color="#AE282F"/>
<stop offset="1" stop-color="#961037"/>
</linearGradient>
<linearGradient id="paint6_linear_3091_983" x1="192.203" y1="284.832" x2="186.867" y2="266.208" gradientUnits="userSpaceOnUse">
<stop stop-color="#354EEB"/>
<stop offset="0.03" stop-color="#334BE2"/>
<stop offset="0.71" stop-color="#0E1541"/>
<stop offset="1"/>
</linearGradient>
<linearGradient id="paint7_linear_3091_983" x1="204.772" y1="252.987" x2="240.169" y2="252.987" gradientUnits="userSpaceOnUse">
<stop stop-color="#AE282F"/>
<stop offset="1" stop-color="#961037"/>
</linearGradient>
<linearGradient id="paint8_linear_3091_983" x1="173.383" y1="302.148" x2="178.306" y2="254.727" gradientUnits="userSpaceOnUse">
<stop stop-color="#74095C"/>
<stop offset="1" stop-color="#8B0012"/>
</linearGradient>
<linearGradient id="paint9_linear_3091_983" x1="76.145" y1="318.856" x2="119.166" y2="265.706" gradientUnits="userSpaceOnUse">
<stop stop-color="#4757F7"/>
<stop offset="1"/>
</linearGradient>
<linearGradient id="paint10_linear_3091_983" x1="171.706" y1="304.611" x2="186.104" y2="252.354" gradientUnits="userSpaceOnUse">
<stop stop-color="#4757F7"/>
<stop offset="1"/>
</linearGradient>
<linearGradient id="paint11_linear_3091_983" x1="200.024" y1="148.056" x2="230.869" y2="148.056" gradientUnits="userSpaceOnUse">
<stop stop-color="#002E45"/>
<stop offset="0.33" stop-color="#054540"/>
<stop offset="0.53" stop-color="#074F3F"/>
<stop offset="1" stop-color="#0B8141"/>
</linearGradient>
<linearGradient id="paint12_linear_3091_983" x1="147.31" y1="54.7394" x2="128.795" y2="181.929" gradientUnits="userSpaceOnUse">
<stop stop-color="#002134"/>
<stop offset="1" stop-color="#04382D"/>
</linearGradient>
<linearGradient id="paint13_linear_3091_983" x1="216.079" y1="105.798" x2="204.186" y2="126.753" gradientUnits="userSpaceOnUse">
<stop stop-color="#002134"/>
<stop offset="1" stop-color="#004F59"/>
</linearGradient>
<radialGradient id="paint14_radial_3091_983" cx="0" cy="0" r="1" gradientUnits="userSpaceOnUse" gradientTransform="translate(159.103 171.769) scale(110.687 110.687)">
<stop stop-color="#55C9BF"/>
<stop offset="0.35" stop-color="#0B8141"/>
<stop offset="0.98" stop-color="#074F3F"/>
</radialGradient>
<linearGradient id="paint15_linear_3091_983" x1="219.497" y1="88.2845" x2="146.024" y2="29.079" gradientUnits="userSpaceOnUse">
<stop stop-color="#3D56FD"/>
<stop offset="0.1" stop-color="#364DE2"/>
<stop offset="0.73" stop-color="#0F1641"/>
<stop offset="1"/>
</linearGradient>
<linearGradient id="paint16_linear_3091_983" x1="164.126" y1="156.966" x2="90.6751" y2="97.7609" gradientUnits="userSpaceOnUse">
<stop stop-color="#3D56FD"/>
<stop offset="0.1" stop-color="#364DE2"/>
<stop offset="0.73" stop-color="#0F1641"/>
<stop offset="1"/>
</linearGradient>
<linearGradient id="paint17_linear_3091_983" x1="216.535" y1="91.9446" x2="143.084" y2="32.7391" gradientUnits="userSpaceOnUse">
<stop stop-color="#3D56FD"/>
<stop offset="0.1" stop-color="#364DE2"/>
<stop offset="0.73" stop-color="#0F1641"/>
<stop offset="1"/>
</linearGradient>
<linearGradient id="paint18_linear_3091_983" x1="159.269" y1="162.999" x2="85.8171" y2="103.794" gradientUnits="userSpaceOnUse">
<stop stop-color="#3D56FD"/>
<stop offset="0.1" stop-color="#364DE2"/>
<stop offset="0.73" stop-color="#0F1641"/>
<stop offset="1"/>
</linearGradient>
<linearGradient id="paint19_linear_3091_983" x1="191.704" y1="98.4359" x2="187.87" y2="105.189" gradientUnits="userSpaceOnUse">
<stop stop-color="#002134"/>
<stop offset="1" stop-color="#004F59"/>
</linearGradient>
<linearGradient id="paint20_linear_3091_983" x1="206.102" y1="125.533" x2="181.727" y2="168.467" gradientUnits="userSpaceOnUse">
<stop stop-color="#002134"/>
<stop offset="1" stop-color="#004F59"/>
</linearGradient>
<linearGradient id="paint21_linear_3091_983" x1="185.604" y1="187.005" x2="97.8846" y2="52.4964" gradientUnits="userSpaceOnUse">
<stop stop-color="#4757F7"/>
<stop offset="1"/>
</linearGradient>
<linearGradient id="paint22_linear_3091_983" x1="245.768" y1="147.751" x2="158.071" y2="13.2428" gradientUnits="userSpaceOnUse">
<stop stop-color="#3D56FD"/>
<stop offset="0.1" stop-color="#364DE2"/>
<stop offset="0.73" stop-color="#0F1641"/>
<stop offset="1"/>
</linearGradient>
<linearGradient id="paint23_linear_3091_983" x1="188.501" y1="185.109" x2="100.782" y2="50.601" gradientUnits="userSpaceOnUse">
<stop stop-color="#3D56FD"/>
<stop offset="0.1" stop-color="#364DE2"/>
<stop offset="0.73" stop-color="#0F1641"/>
<stop offset="1"/>
</linearGradient>
<linearGradient id="paint24_linear_3091_983" x1="171.598" y1="177.572" x2="167.982" y2="202.797" gradientUnits="userSpaceOnUse">
<stop stop-color="#C079B1"/>
<stop offset="1" stop-color="#90426D"/>
</linearGradient>
<linearGradient id="paint25_linear_3091_983" x1="171.663" y1="218.001" x2="171.663" y2="54.3687" gradientUnits="userSpaceOnUse">
<stop stop-color="#3D56FD"/>
<stop offset="0.1" stop-color="#364DE2"/>
<stop offset="0.73" stop-color="#0F1641"/>
<stop offset="1"/>
</linearGradient>
<radialGradient id="paint26_radial_3091_983" cx="0" cy="0" r="1" gradientUnits="userSpaceOnUse" gradientTransform="translate(85.7038 177.219) scale(19.8789 19.8789)">
<stop stop-color="#F7E789"/>
<stop offset="1" stop-color="#F79A6F"/>
</radialGradient>
<linearGradient id="paint27_linear_3091_983" x1="78.89" y1="159.405" x2="84.401" y2="159.405" gradientUnits="userSpaceOnUse">
<stop stop-color="#8E6160"/>
<stop offset="1" stop-color="#1F0A0F"/>
</linearGradient>
<linearGradient id="paint28_linear_3091_983" x1="85.9044" y1="158.818" x2="81.7657" y2="154.156" gradientUnits="userSpaceOnUse">
<stop stop-color="#FDBB01"/>
<stop offset="0.23" stop-color="#FDBF01"/>
<stop offset="0.48" stop-color="#FDCD01"/>
<stop offset="0.75" stop-color="#FEE301"/>
<stop offset="1" stop-color="#FFFF01"/>
</linearGradient>
<linearGradient id="paint29_linear_3091_983" x1="248.23" y1="205.805" x2="247.446" y2="197.07" gradientUnits="userSpaceOnUse">
<stop stop-color="#1F0A0F"/>
<stop offset="1" stop-color="#8E6160"/>
</linearGradient>
<radialGradient id="paint30_radial_3091_983" cx="0" cy="0" r="1" gradientUnits="userSpaceOnUse" gradientTransform="translate(247.951 210.078) scale(11.4098)">
<stop stop-color="#F7E789"/>
<stop offset="1" stop-color="#F79A6F"/>
</radialGradient>
<linearGradient id="paint31_linear_3091_983" x1="232.742" y1="215.061" x2="38.8103" y2="215.061" gradientUnits="userSpaceOnUse">
<stop stop-color="#002E45"/>
<stop offset="0.33" stop-color="#054540"/>
<stop offset="0.53" stop-color="#074F3F"/>
<stop offset="1" stop-color="#0B8141"/>
</linearGradient>
<linearGradient id="paint32_linear_3091_983" x1="257.16" y1="241.984" x2="10.6013" y2="241.984" gradientUnits="userSpaceOnUse">
<stop stop-color="#002E45"/>
<stop offset="0.33" stop-color="#054540"/>
<stop offset="0.53" stop-color="#074F3F"/>
<stop offset="1" stop-color="#0B8141"/>
</linearGradient>
<linearGradient id="paint33_linear_3091_983" x1="250.603" y1="240.677" x2="184.645" y2="240.677" gradientUnits="userSpaceOnUse">
<stop stop-color="#002E45"/>
<stop offset="0.33" stop-color="#054540"/>
<stop offset="0.53" stop-color="#074F3F"/>
<stop offset="1" stop-color="#0B8141"/>
</linearGradient>
<linearGradient id="paint34_linear_3091_983" x1="10.6013" y1="237.038" x2="117.947" y2="237.038" gradientUnits="userSpaceOnUse">
<stop stop-color="#0BBDAE"/>
<stop offset="1" stop-color="#00B48F"/>
</linearGradient>
<linearGradient id="paint35_linear_3091_983" x1="80.5454" y1="241.656" x2="202.834" y2="241.656" gradientUnits="userSpaceOnUse">
<stop stop-color="#0BBDAE"/>
<stop offset="1" stop-color="#00B48F"/>
</linearGradient>
<linearGradient id="paint36_linear_3091_983" x1="161.098" y1="244.619" x2="165.063" y2="267.055" gradientUnits="userSpaceOnUse">
<stop stop-color="#C079B1"/>
<stop offset="1" stop-color="#90426D"/>
</linearGradient>
<linearGradient id="paint37_linear_3091_983" x1="87.4497" y1="226.301" x2="190.286" y2="226.301" gradientUnits="userSpaceOnUse">
<stop stop-color="#0BBDAE"/>
<stop offset="1" stop-color="#00B48F"/>
</linearGradient>
<linearGradient id="paint38_linear_3091_983" x1="166.326" y1="227.913" x2="257.16" y2="227.913" gradientUnits="userSpaceOnUse">
<stop stop-color="#0BBDAE"/>
<stop offset="1" stop-color="#00B48F"/>
</linearGradient>
<linearGradient id="paint39_linear_3091_983" x1="195.711" y1="219.003" x2="195.711" y2="238.194" gradientUnits="userSpaceOnUse">
<stop stop-color="#C079B1"/>
<stop offset="1" stop-color="#90426D"/>
</linearGradient>
<linearGradient id="paint40_linear_3091_983" x1="240.322" y1="219.852" x2="207.104" y2="219.852" gradientUnits="userSpaceOnUse">
<stop stop-color="#002E45"/>
<stop offset="0.33" stop-color="#054540"/>
<stop offset="0.53" stop-color="#074F3F"/>
<stop offset="1" stop-color="#0B8141"/>
</linearGradient>
<linearGradient id="paint41_linear_3091_983" x1="209.652" y1="201.469" x2="209.652" y2="225.909" gradientUnits="userSpaceOnUse">
<stop stop-color="#C079B1"/>
<stop offset="1" stop-color="#90426D"/>
</linearGradient>
<linearGradient id="paint42_linear_3091_983" x1="70.1766" y1="239.762" x2="190.287" y2="239.762" gradientUnits="userSpaceOnUse">
<stop stop-color="#C079B1"/>
<stop offset="1" stop-color="#90426D"/>
</linearGradient>
<linearGradient id="paint43_linear_3091_983" x1="186.693" y1="226.757" x2="186.693" y2="257.515" gradientUnits="userSpaceOnUse">
<stop stop-color="#C079B1"/>
<stop offset="1" stop-color="#90426D"/>
</linearGradient>
<linearGradient id="paint44_linear_3091_983" x1="227.122" y1="226.585" x2="227.122" y2="249.261" gradientUnits="userSpaceOnUse">
<stop stop-color="#C079B1"/>
<stop offset="1" stop-color="#90426D"/>
</linearGradient>
<linearGradient id="paint45_linear_3091_983" x1="60.4185" y1="215.474" x2="148.399" y2="215.474" gradientUnits="userSpaceOnUse">
<stop stop-color="#C079B1"/>
<stop offset="1" stop-color="#90426D"/>
</linearGradient>
<linearGradient id="paint46_linear_3091_983" x1="150.359" y1="273.613" x2="168.766" y2="235.384" gradientUnits="userSpaceOnUse">
<stop stop-color="#C57CBB"/>
<stop offset="1" stop-color="#954577"/>
</linearGradient>
<linearGradient id="paint47_linear_3091_983" x1="132.519" y1="256.883" x2="137.573" y2="246.384" gradientUnits="userSpaceOnUse">
<stop stop-color="#0A3D48"/>
<stop offset="1" stop-color="#006B6D"/>
</linearGradient>
<linearGradient id="paint48_linear_3091_983" x1="50.6159" y1="257.689" x2="60.3528" y2="237.475" gradientUnits="userSpaceOnUse">
<stop stop-color="#C57CBB"/>
<stop offset="1" stop-color="#954577"/>
</linearGradient>
<linearGradient id="paint49_linear_3091_983" x1="95.5319" y1="266.839" x2="110.584" y2="235.559" gradientUnits="userSpaceOnUse">
<stop stop-color="#C57CBB"/>
<stop offset="1" stop-color="#954577"/>
</linearGradient>
<linearGradient id="paint50_linear_3091_983" x1="52.7737" y1="208.874" x2="55.3223" y2="208.874" gradientUnits="userSpaceOnUse">
<stop stop-color="#8E6160"/>
<stop offset="1" stop-color="#1F0A0F"/>
</linearGradient>
<radialGradient id="paint51_radial_3091_983" cx="0" cy="0" r="1" gradientUnits="userSpaceOnUse" gradientTransform="translate(56.5328 219.29) scale(12.4292 12.4292)">
<stop stop-color="#F7E789"/>
<stop offset="1" stop-color="#F79A6F"/>
</radialGradient>
<radialGradient id="paint52_radial_3091_983" cx="0" cy="0" r="1" gradientUnits="userSpaceOnUse" gradientTransform="translate(31.439 212.745) scale(24.9761 24.9761)">
<stop stop-color="#F7E789"/>
<stop offset="1" stop-color="#F79A6F"/>
</radialGradient>
<linearGradient id="paint53_linear_3091_983" x1="30.4235" y1="197.179" x2="28.8987" y2="184.479" gradientUnits="userSpaceOnUse">
<stop stop-color="#1F0A0F"/>
<stop offset="1" stop-color="#8E6160"/>
</linearGradient>
<linearGradient id="paint54_linear_3091_983" x1="98.7484" y1="190.145" x2="108.3" y2="245.04" gradientUnits="userSpaceOnUse">
<stop stop-color="#F5CEB3"/>
<stop offset="1" stop-color="#F7B0B8"/>
</linearGradient>
<linearGradient id="paint55_linear_3091_983" x1="90.367" y1="219.615" x2="118.459" y2="214.728" gradientUnits="userSpaceOnUse">
<stop stop-color="#F16D73"/>
<stop offset="1" stop-color="#E3786E"/>
</linearGradient>
<linearGradient id="paint56_linear_3091_983" x1="121.412" y1="206.034" x2="130.146" y2="204.515" gradientUnits="userSpaceOnUse">
<stop stop-color="#F16D73"/>
<stop offset="1" stop-color="#E3786E"/>
</linearGradient>
<linearGradient id="paint57_linear_3091_983" x1="122.766" y1="224.106" x2="134.44" y2="222.075" gradientUnits="userSpaceOnUse">
<stop stop-color="#F16D73"/>
<stop offset="1" stop-color="#E3786E"/>
</linearGradient>
<linearGradient id="paint58_linear_3091_983" x1="90.4561" y1="219.203" x2="114.112" y2="219.203" gradientUnits="userSpaceOnUse">
<stop stop-color="#023536"/>
<stop offset="1" stop-color="#00635B"/>
</linearGradient>
<linearGradient id="paint59_linear_3091_983" x1="121.149" y1="206.917" x2="131.169" y2="206.917" gradientUnits="userSpaceOnUse">
<stop stop-color="#023536"/>
<stop offset="1" stop-color="#00635B"/>
</linearGradient>
<radialGradient id="paint60_radial_3091_983" cx="0" cy="0" r="1" gradientUnits="userSpaceOnUse" gradientTransform="translate(98.2273 219.865) rotate(-9.87) scale(13.3702 13.3702)">
<stop stop-color="#00FFFF"/>
<stop offset="0.12" stop-color="#00D0D0"/>
<stop offset="0.3" stop-color="#009292"/>
<stop offset="0.48" stop-color="#005D5D"/>
<stop offset="0.64" stop-color="#003535"/>
<stop offset="0.78" stop-color="#001818"/>
<stop offset="0.91" stop-color="#000606"/>
<stop offset="1"/>
</radialGradient>
<radialGradient id="paint61_radial_3091_983" cx="0" cy="0" r="1" gradientUnits="userSpaceOnUse" gradientTransform="translate(125.506 208.076) rotate(-9.86999) scale(10.8217 10.8217)">
<stop stop-color="#00FFFF"/>
<stop offset="0.12" stop-color="#00D0D0"/>
<stop offset="0.3" stop-color="#009292"/>
<stop offset="0.48" stop-color="#005D5D"/>
<stop offset="0.64" stop-color="#003535"/>
<stop offset="0.78" stop-color="#001818"/>
<stop offset="0.91" stop-color="#000606"/>
<stop offset="1"/>
</radialGradient>
<linearGradient id="paint62_linear_3091_983" x1="203.75" y1="242.267" x2="216.013" y2="173.673" gradientUnits="userSpaceOnUse">
<stop stop-color="#006633"/>
<stop offset="0.23" stop-color="#004723"/>
<stop offset="0.57" stop-color="#002010"/>
<stop offset="0.83" stop-color="#000804"/>
<stop offset="1"/>
</linearGradient>
</defs>
</svg>
