<svg width="43" height="42" viewBox="0 0 43 42" fill="none" xmlns="http://www.w3.org/2000/svg">
<path d="M12.1563 15.5625C14.1039 15.5625 15.9718 14.7888 17.3491 13.4116C18.7263 12.0343 19.5 10.1664 19.5 8.21875C19.5 6.27107 18.7263 4.40315 17.3491 3.02593C15.9718 1.64871 14.1039 0.875 12.1563 0.875C10.2086 0.875 8.34066 1.64871 6.96344 3.02593C5.58621 4.40315 4.8125 6.27107 4.8125 8.21875C4.8125 10.1664 5.58621 12.0343 6.96344 13.4116C8.34066 14.7888 10.2086 15.5625 12.1563 15.5625ZM25.1459 13.3006C26.65 12.8514 28.2115 12.6238 29.7813 12.625C31.351 12.6238 32.9125 12.8514 34.4166 13.3006C35.093 12.4328 35.5121 11.3924 35.6261 10.298C35.7401 9.20364 35.5445 8.09923 35.0616 7.11058C34.5787 6.12192 33.8278 5.28875 32.8945 4.70596C31.9612 4.12317 30.883 3.81418 29.7827 3.81418C28.6824 3.81418 27.6042 4.12317 26.6709 4.70596C25.7377 5.28875 24.9868 6.12192 24.5039 7.11058C24.0209 8.09923 23.8253 9.20364 23.9394 10.298C24.0534 11.3924 24.4724 12.4328 25.1488 13.3006M17.3174 18.5H4.8125C3.64389 18.5 2.52314 18.9642 1.69681 19.7906C0.870479 20.6169 0.40625 21.7376 0.40625 22.9062V23.1266C0.40625 23.1266 0.40625 31.7188 12.1563 31.7188C12.7614 31.7188 13.3361 31.6962 13.8806 31.6512C13.7101 30.7041 13.6245 29.7436 13.625 28.7812C13.625 24.8744 15.0115 21.2906 17.3174 18.5ZM29.7813 42C32.6813 41.9997 35.5007 41.0458 37.8052 39.2852C40.1096 37.5246 41.7711 35.055 42.5336 32.257C43.2962 29.4591 43.1175 26.488 42.025 23.8016C40.9325 21.1152 38.9869 18.8626 36.488 17.391C33.9892 15.9193 31.0757 15.3103 28.1965 15.6577C25.3174 16.0051 22.6324 17.2897 20.5553 19.3135C18.4782 21.3373 17.1242 23.988 16.7021 26.8571C16.28 29.7262 16.8131 32.6546 18.2193 35.1909L16.6183 40.4461C16.5563 40.6541 16.5517 40.875 16.605 41.0855C16.6583 41.2959 16.7674 41.4881 16.9209 41.6416C17.0744 41.7951 17.2666 41.9042 17.477 41.9575C17.6875 42.0108 17.9084 42.0062 18.1164 41.9442L23.3746 40.3462C25.3354 41.4317 27.54 42.0008 29.7813 42ZM22.4375 25.8438C22.4375 25.4542 22.5922 25.0806 22.8677 24.8052C23.1431 24.5297 23.5167 24.375 23.9063 24.375H35.6563C36.0458 24.375 36.4194 24.5297 36.6948 24.8052C36.9703 25.0806 37.125 25.4542 37.125 25.8438C37.125 26.2333 36.9703 26.6069 36.6948 26.8823C36.4194 27.1578 36.0458 27.3125 35.6563 27.3125H23.9063C23.5167 27.3125 23.1431 27.1578 22.8677 26.8823C22.5922 26.6069 22.4375 26.2333 22.4375 25.8438ZM23.9063 33.1875C23.5167 33.1875 23.1431 33.0328 22.8677 32.7573C22.5922 32.4819 22.4375 32.1083 22.4375 31.7188C22.4375 31.3292 22.5922 30.9556 22.8677 30.6802C23.1431 30.4047 23.5167 30.25 23.9063 30.25H29.7813C30.1708 30.25 30.5444 30.4047 30.8198 30.6802C31.0953 30.9556 31.25 31.3292 31.25 31.7188C31.25 32.1083 31.0953 32.4819 30.8198 32.7573C30.5444 33.0328 30.1708 33.1875 29.7813 33.1875H23.9063Z" fill="white"/>
</svg>
