<svg width="90" height="71" viewBox="0 0 90 71" fill="none" xmlns="http://www.w3.org/2000/svg">
<path fill-rule="evenodd" clip-rule="evenodd" d="M89.4599 4.38307C88.9221 3.08555 88.0112 1.97657 86.8426 1.19638C85.674 0.416186 84.3001 -0.000159383 82.8946 4.57697e-08H35.5263C26.1041 4.57697e-08 17.0679 3.74017 10.4054 10.3977C3.74293 17.0553 -6.02144e-07 26.0848 -6.02144e-07 35.5C-6.02144e-07 44.9152 3.74293 53.9447 10.4054 60.6023C17.0679 67.2598 26.1041 71 35.5263 71H78.1578C80.0422 71 81.8495 70.252 83.182 68.9205C84.5144 67.5889 85.263 65.783 85.263 63.9C85.263 62.017 84.5144 60.2111 83.182 58.8795C81.8495 57.548 80.0422 56.8 78.1578 56.8H35.5263C29.873 56.8 24.4512 54.5559 20.4537 50.5614C16.4563 46.5668 14.2105 41.1491 14.2105 35.5C14.2105 29.8509 16.4563 24.4332 20.4537 20.4386C24.4512 16.4441 29.873 14.2 35.5263 14.2H65.7425L61.2899 18.6493C59.9963 19.989 59.2809 21.7828 59.298 23.6444C59.315 25.506 60.0631 27.2865 61.3811 28.6022C62.6991 29.918 64.4816 30.6639 66.3446 30.6792C68.2076 30.6945 70.002 29.978 71.3415 28.684L87.9204 12.1173C88.9133 11.1246 89.5895 9.86001 89.8635 8.48341C90.1375 7.10681 89.997 5.67994 89.4599 4.38307Z" fill="white"/>
</svg>
