<svg width="31" height="31" viewBox="0 0 31 31" fill="none" xmlns="http://www.w3.org/2000/svg">
<path d="M1.64551 15.5002C1.64551 8.96975 1.64551 5.70308 3.67405 3.67454C5.70259 1.646 8.9678 1.646 15.4997 1.646C22.0301 1.646 25.2968 1.646 27.3253 3.67454C29.3538 5.70308 29.3538 8.96829 29.3538 15.5002C29.3538 22.0306 29.3538 25.2972 27.3253 27.3258C25.2968 29.3543 22.0315 29.3543 15.4997 29.3543C8.96926 29.3543 5.70259 29.3543 3.67405 27.3258C1.64551 25.2972 1.64551 22.032 1.64551 15.5002Z" stroke="white" stroke-width="3" stroke-linecap="round" stroke-linejoin="round"/>
<path d="M12.583 10.396C12.583 9.81584 12.3525 9.25944 11.9423 8.8492C11.5321 8.43896 10.9757 8.2085 10.3955 8.2085C9.81535 8.2085 9.25895 8.43896 8.84871 8.8492C8.43848 9.25944 8.20801 9.81584 8.20801 10.396C8.20801 10.9762 8.43848 11.5326 8.84871 11.9428C9.25895 12.353 9.81535 12.5835 10.3955 12.5835C10.9757 12.5835 11.5321 12.353 11.9423 11.9428C12.3525 11.5326 12.583 10.9762 12.583 10.396ZM12.583 10.396H22.7913M18.4163 20.6043C18.4163 20.0242 18.6468 19.4678 19.057 19.0575C19.4673 18.6473 20.0237 18.4168 20.6038 18.4168C21.184 18.4168 21.7404 18.6473 22.1506 19.0575C22.5609 19.4678 22.7913 20.0242 22.7913 20.6043C22.7913 21.1845 22.5609 21.7409 22.1506 22.1511C21.7404 22.5614 21.184 22.7918 20.6038 22.7918C20.0237 22.7918 19.4673 22.5614 19.057 22.1511C18.6468 21.7409 18.4163 21.1845 18.4163 20.6043ZM18.4163 20.6043H8.20801" stroke="white" stroke-width="3" stroke-linecap="round" stroke-linejoin="round"/>
</svg>
