<svg width="562" height="349" viewBox="0 0 562 349" fill="none" xmlns="http://www.w3.org/2000/svg">
<g filter="url(#filter0_d_3091_838)">
<rect x="546.355" y="333.62" width="534.355" height="295.218" rx="53" transform="rotate(180 546.355 333.62)" fill="url(#paint0_linear_3091_838)"/>
</g>
<path fill-rule="evenodd" clip-rule="evenodd" d="M417.066 168.013H418.912L417.066 154.781C417.066 154.781 416.604 153.525 415.861 151.55C415.502 150.576 415.066 149.422 414.527 148.268C405.296 141.883 404.501 131.087 402.398 121.061C402.398 122.368 402.398 123.702 402.321 125.086C402.295 126.317 402.244 127.805 402.219 129.42C401.911 140.831 401.424 159.833 401.424 159.833L407.219 162.628C407.219 162.628 406.193 151.371 405.27 141.242C405.193 140.318 405.091 139.421 404.988 138.523C403.988 134.241 404.116 131.19 403.834 126.728C403.962 134.01 407.398 140.549 411.347 147.498C411.681 148.37 411.988 149.242 412.296 150.088C414.501 156.063 416.476 161.371 416.476 161.371L417.04 168.013H417.066Z" fill="#9DECFD"/>
<path fill-rule="evenodd" clip-rule="evenodd" d="M311.006 139.78L317.57 155.448H332.418L339.726 139.78L340.752 117.266L319.955 122.292L311.006 139.78Z" fill="url(#paint1_linear_3091_838)"/>
<path fill-rule="evenodd" clip-rule="evenodd" d="M340.752 117.266L332.188 134.677L332.418 155.448L339.727 139.78L340.752 117.266Z" fill="url(#paint2_linear_3091_838)"/>
<path style="mix-blend-mode:multiply" opacity="0.5" fill-rule="evenodd" clip-rule="evenodd" d="M332.187 134.677L311.006 139.78L319.955 122.292L340.752 117.266L332.187 134.677Z" fill="url(#paint3_linear_3091_838)"/>
<path fill-rule="evenodd" clip-rule="evenodd" d="M256.361 122.292L282.696 155.448L296.081 158.833L303.364 129.831L301.774 101.29L284.516 96.7256L256.361 122.292Z" fill="url(#paint4_linear_3091_838)"/>
<path fill-rule="evenodd" clip-rule="evenodd" d="M301.774 101.29L287.979 129.19L296.082 158.833L303.364 129.831L301.774 101.29Z" fill="url(#paint5_linear_3091_838)"/>
<path style="mix-blend-mode:multiply" opacity="0.5" fill-rule="evenodd" clip-rule="evenodd" d="M256.361 122.292L287.978 129.19L301.774 101.29L284.516 96.7256L256.361 122.292Z" fill="url(#paint6_linear_3091_838)"/>
<path fill-rule="evenodd" clip-rule="evenodd" d="M298.262 26.7719L320.52 59.0308L341.24 64.9543L358.421 55.0818L365.652 2.64194L343.214 0.0263672L298.262 26.7719Z" fill="url(#paint7_linear_3091_838)"/>
<path fill-rule="evenodd" clip-rule="evenodd" d="M318.7 31.1822L332.137 55.7738L358.421 55.0814L365.653 2.6416L318.7 31.1822Z" fill="url(#paint8_linear_3091_838)"/>
<path fill-rule="evenodd" clip-rule="evenodd" d="M358.421 55.0801L332.137 55.7724L320.521 59.0291L341.24 64.9526L358.421 55.0801Z" fill="url(#paint9_linear_3091_838)"/>
<path style="mix-blend-mode:multiply" opacity="0.5" fill-rule="evenodd" clip-rule="evenodd" d="M298.262 26.7712C298.262 26.7712 317.34 32.0024 318.699 31.1818C320.059 30.3612 365.652 2.61558 365.652 2.61558L343.24 0L298.288 26.7456L298.262 26.7712Z" fill="url(#paint10_linear_3091_838)"/>
<path fill-rule="evenodd" clip-rule="evenodd" d="M470.48 12.8711H512.432L529.715 26.7696L519.663 52.0022L486.404 67.6957L463.941 70.1318L470.48 12.8711Z" fill="url(#paint11_linear_3091_838)"/>
<path fill-rule="evenodd" clip-rule="evenodd" d="M470.48 12.8711L487.507 30.1031L481.096 55.7717L463.941 70.1318L470.48 12.8711Z" fill="url(#paint12_linear_3091_838)"/>
<path fill-rule="evenodd" clip-rule="evenodd" d="M519.663 52.001L481.096 55.7705L463.941 70.1305L486.404 67.6945L519.663 52.001Z" fill="url(#paint13_linear_3091_838)"/>
<path style="mix-blend-mode:multiply" opacity="0.5" fill-rule="evenodd" clip-rule="evenodd" d="M470.479 12.8711L487.506 30.1031L529.714 26.7696L512.431 12.8711H470.479Z" fill="url(#paint14_linear_3091_838)"/>
<path fill-rule="evenodd" clip-rule="evenodd" d="M255.361 184.091L294.082 187.707L306.904 182.501L277.414 179.193L255.361 184.091Z" fill="url(#paint15_linear_3091_838)"/>
<path fill-rule="evenodd" clip-rule="evenodd" d="M301.391 223.786L308.546 222.171L320.111 224.71V226.428L313.264 230.813L301.391 223.786Z" fill="url(#paint16_linear_3091_838)"/>
<path fill-rule="evenodd" clip-rule="evenodd" d="M332.06 246.48L338.42 253.584L366.729 255.045L368.165 249.224L332.06 246.48Z" fill="url(#paint17_linear_3091_838)"/>
<path fill-rule="evenodd" clip-rule="evenodd" d="M320.11 224.042L374.935 242.634L394.398 227.325L389.936 220.093L362.447 218.145L353.292 218.35L320.11 224.042Z" fill="url(#paint18_linear_3091_838)"/>
<path fill-rule="evenodd" clip-rule="evenodd" d="M395.732 211.401L430.76 207.811L438.068 208.888L466.455 217.068L412.81 222.171L395.732 211.401Z" fill="url(#paint19_linear_3091_838)"/>
<path fill-rule="evenodd" clip-rule="evenodd" d="M357.625 197.476L420.22 196.219L434.016 185.629H425.99L386.935 184.859H379.653L357.625 197.476Z" fill="url(#paint20_linear_3091_838)"/>
<path fill-rule="evenodd" clip-rule="evenodd" d="M416.374 168.012L395.167 170.32L405.732 174.653L433.401 174.14L423.784 170.32L416.374 168.012Z" fill="url(#paint21_linear_3091_838)"/>
<path fill-rule="evenodd" clip-rule="evenodd" d="M383.807 157.986L405.475 162.884L416.502 161.371L394.962 155.447L383.807 157.986Z" fill="url(#paint22_linear_3091_838)"/>
<path fill-rule="evenodd" clip-rule="evenodd" d="M382.576 259.533L403.732 263.944L448.299 250.789L412.194 249.635L405.552 252.148L382.576 259.533Z" fill="url(#paint23_linear_3091_838)"/>
<path fill-rule="evenodd" clip-rule="evenodd" d="M507.894 201.22L486.662 209.246L518.1 210.426L531.793 201.22H507.894Z" fill="url(#paint24_linear_3091_838)"/>
<path fill-rule="evenodd" clip-rule="evenodd" d="M438.811 195.604L464.121 201.22L512.201 191.424L481.943 189.501L438.811 195.604Z" fill="url(#paint25_linear_3091_838)"/>
<path fill-rule="evenodd" clip-rule="evenodd" d="M411.681 274.816L428.657 271.79L427.323 280.868L408.425 290.997L377.91 286.663L411.681 274.816Z" fill="url(#paint26_linear_3091_838)"/>
<path style="mix-blend-mode:multiply" opacity="0.5" fill-rule="evenodd" clip-rule="evenodd" d="M294.082 187.706L295.057 203.4H266.619L255.361 184.091L294.082 187.706Z" fill="url(#paint27_linear_3091_838)"/>
<path style="mix-blend-mode:multiply" opacity="0.5" fill-rule="evenodd" clip-rule="evenodd" d="M282.543 214.708L290.774 246.172L276.85 241.043L260.542 205.989L282.543 214.708Z" fill="url(#paint28_linear_3091_838)"/>
<path style="mix-blend-mode:multiply" opacity="0.5" fill-rule="evenodd" clip-rule="evenodd" d="M313.263 230.811L315.109 242.658L320.982 240.427L320.11 226.426L313.263 230.811Z" fill="url(#paint29_linear_3091_838)"/>
<path style="mix-blend-mode:multiply" opacity="0.5" fill-rule="evenodd" clip-rule="evenodd" d="M420.221 196.218L418.913 209.014L430.76 207.809L434.016 185.628L420.221 196.218Z" fill="url(#paint30_linear_3091_838)"/>
<path style="mix-blend-mode:multiply" opacity="0.5" fill-rule="evenodd" clip-rule="evenodd" d="M395.167 170.32L395.372 185.039L404.168 185.193L405.732 174.654L395.167 170.32Z" fill="url(#paint31_linear_3091_838)"/>
<path style="mix-blend-mode:multiply" opacity="0.5" fill-rule="evenodd" clip-rule="evenodd" d="M405.476 162.884V169.218L416.374 168.013L416.502 161.371L405.476 162.884Z" fill="url(#paint32_linear_3091_838)"/>
<path style="mix-blend-mode:multiply" opacity="0.5" fill-rule="evenodd" clip-rule="evenodd" d="M332.06 246.48L331.213 264.354L331.854 269.072L344.907 279.15L338.419 253.584L332.06 246.48Z" fill="url(#paint33_linear_3091_838)"/>
<path style="mix-blend-mode:multiply" opacity="0.5" fill-rule="evenodd" clip-rule="evenodd" d="M450.889 232.812L455.53 251.84L457.351 261.353L468.634 265.533L470.147 239.634L450.889 232.812Z" fill="url(#paint34_linear_3091_838)"/>
<path style="mix-blend-mode:multiply" opacity="0.5" fill-rule="evenodd" clip-rule="evenodd" d="M486.662 209.246L487.739 220.785L495.996 222.657L511.586 224.042L518.1 210.426L486.662 209.246Z" fill="url(#paint35_linear_3091_838)"/>
<path style="mix-blend-mode:multiply" opacity="0.5" fill-rule="evenodd" clip-rule="evenodd" d="M408.425 290.996L405.399 321.742L388.423 316.434L377.91 286.662L408.425 290.996Z" fill="url(#paint36_linear_3091_838)"/>
<path style="mix-blend-mode:multiply" opacity="0.5" fill-rule="evenodd" clip-rule="evenodd" d="M403.732 263.944V277.611L389.064 282.766L382.576 259.533L403.732 263.944Z" fill="url(#paint37_linear_3091_838)"/>
<path style="mix-blend-mode:multiply" opacity="0.5" fill-rule="evenodd" clip-rule="evenodd" d="M301.392 223.784L293.699 244.375L305.469 237.119L315.111 242.657L320.983 240.426L320.111 226.425L313.264 230.81L301.392 223.784Z" fill="url(#paint38_linear_3091_838)"/>
<path style="mix-blend-mode:multiply" opacity="0.5" fill-rule="evenodd" clip-rule="evenodd" d="M374.935 242.633L363.114 270.251L366.729 255.044L368.165 249.223L332.06 246.48L338.419 253.583L344.907 279.149L331.855 269.071L331.214 264.353L321.905 257.993L320.11 224.042L374.935 242.633Z" fill="url(#paint39_linear_3091_838)"/>
<path style="mix-blend-mode:multiply" opacity="0.5" fill-rule="evenodd" clip-rule="evenodd" d="M282.543 214.708L317.289 206.707L313.981 223.375L308.545 222.17L301.391 223.785L305.468 237.12L290.774 246.172L276.85 241.043L260.542 205.989L282.543 214.708Z" fill="url(#paint40_linear_3091_838)"/>
<path style="mix-blend-mode:multiply" opacity="0.5" fill-rule="evenodd" clip-rule="evenodd" d="M306.237 200.092L295.057 203.4L263.772 207.272L260.541 205.99L266.619 203.4L255.361 184.091L294.082 187.706L306.904 182.501L306.237 200.092Z" fill="url(#paint41_linear_3091_838)"/>
<path style="mix-blend-mode:multiply" opacity="0.5" fill-rule="evenodd" clip-rule="evenodd" d="M394.398 227.323L388.09 239.735L397.193 240.068L395.731 211.399L399.988 214.092H424.451L438.068 208.886L430.759 207.809L434.016 185.628L420.22 196.218L357.626 197.475L362.447 218.143L353.292 218.348L329.008 222.502L371.781 227.503L392.218 223.785L394.398 227.323Z" fill="url(#paint42_linear_3091_838)"/>
<path style="mix-blend-mode:multiply" opacity="0.5" fill-rule="evenodd" clip-rule="evenodd" d="M412.809 222.171L412.194 249.635L403.142 252.943L438.35 253.738L448.299 250.789L444.299 255.866L452.53 254.943L455.53 251.84L450.889 232.813L465.275 228.326L466.454 217.068L412.809 222.171Z" fill="url(#paint43_linear_3091_838)"/>
<path style="mix-blend-mode:multiply" opacity="0.5" fill-rule="evenodd" clip-rule="evenodd" d="M450.889 232.812L455.53 251.839L457.351 261.353L468.634 265.533L486.738 258.327L502.944 228.453L470.147 239.633L450.889 232.812Z" fill="url(#paint44_linear_3091_838)"/>
<path style="mix-blend-mode:multiply" opacity="0.5" fill-rule="evenodd" clip-rule="evenodd" d="M494.457 225.734L484.79 222.939L465.275 228.324L466.455 217.067L461.07 215.528L464.122 201.219L512.202 191.424L507.894 201.219L486.662 209.246L487.739 220.785L495.996 222.657L494.457 225.734Z" fill="url(#paint45_linear_3091_838)"/>
<path style="mix-blend-mode:multiply" opacity="0.5" fill-rule="evenodd" clip-rule="evenodd" d="M512.202 191.424L464.122 201.219L461.07 215.528L466.455 217.067L465.275 228.324L499.534 227.375L494.457 225.734L495.996 222.657L487.739 220.785L486.662 209.246L507.894 201.219L512.202 191.424Z" fill="url(#paint46_linear_3091_838)"/>
<path style="mix-blend-mode:multiply" opacity="0.51" d="M260.542 205.988L282.543 214.707L317.289 206.706L313.981 223.349L320.11 224.682V224.015L374.935 242.632L394.398 227.298L389.936 220.092L362.447 218.118C362.447 218.118 356.959 197.552 357.626 197.475C358.292 197.398 420.22 196.193 420.22 196.193L434.016 185.628L430.759 207.783L438.093 208.86L438.837 195.577L464.121 201.193L512.227 191.398L507.919 201.193H531.792L523.689 217.425L511.586 224.015L495.995 222.631L494.431 225.708L484.763 222.913L450.863 232.785L455.505 251.812L452.505 254.915L444.273 255.838L427.759 275.994L428.657 271.763L411.681 274.788L389.064 282.738L382.576 259.505L405.552 252.12L397.27 246.453L397.193 240.017L388.089 239.683L372.447 265.48L363.113 270.198L368.165 249.171L332.06 246.427L331.213 264.3L321.879 257.967L320.956 240.401L315.11 242.632L305.468 237.093L290.774 246.145L276.85 241.017L260.542 205.963V205.988Z" fill="url(#paint47_linear_3091_838)"/>
<path style="mix-blend-mode:screen" opacity="0.6" fill-rule="evenodd" clip-rule="evenodd" d="M260.541 205.99L276.85 241.044C276.85 241.044 282.902 243.301 290.774 246.173L305.468 237.121L315.109 242.66L320.956 240.429L321.879 257.994L331.213 264.328L331.829 269.046L344.881 279.098H360.523L363.113 270.2L372.447 265.482L388.089 239.685L397.192 240.018L397.269 246.455L405.552 252.122L382.576 259.507L389.064 282.74L377.909 286.663L388.423 316.409L405.372 321.717L420.451 309.716L427.605 279.688L427.759 275.995L444.273 255.84L452.504 254.917L455.504 251.814L457.325 261.328L468.608 265.507L486.712 258.302L502.918 228.453L494.43 225.735L495.995 222.658L511.585 224.043L523.689 217.453L531.792 201.221H507.919L512.227 191.425L481.942 189.502L438.836 195.605L438.093 208.888L430.759 207.811L434.016 185.655H425.989L433.4 174.167L423.784 170.347L416.373 168.039L416.502 161.397L394.961 155.474L383.807 158.038L386.935 184.912H379.653L357.625 197.528L362.446 218.171H354.471L320.11 224.068V226.453L313.904 223.812L317.289 206.734L306.263 200.118L306.929 182.527L277.44 179.219L255.413 184.091L266.67 203.4L260.593 205.99H260.541Z" fill="url(#paint48_linear_3091_838)"/>
<path fill-rule="evenodd" clip-rule="evenodd" d="M532.741 102.879L562 109.495L561.359 136.881L547.05 154.78L525.433 158.832L525.305 144.164L532.741 102.879Z" fill="url(#paint49_linear_3091_838)"/>
<path fill-rule="evenodd" clip-rule="evenodd" d="M532.741 102.879L540.075 129.189L525.433 158.832L525.305 144.164L532.741 102.879Z" fill="url(#paint50_linear_3091_838)"/>
<path style="mix-blend-mode:multiply" opacity="0.5" fill-rule="evenodd" clip-rule="evenodd" d="M532.741 102.879L540.075 129.189L556.59 125.034L562 109.495L532.741 102.879Z" fill="url(#paint51_linear_3091_838)"/>
<path style="mix-blend-mode:multiply" opacity="0.5" fill-rule="evenodd" clip-rule="evenodd" d="M556.59 125.034L547.05 154.78L561.359 136.881L562 109.495L532.741 102.879L540.075 129.189L556.59 125.034Z" fill="url(#paint52_linear_3091_838)"/>
<path style="mix-blend-mode:soft-light" opacity="0.91" d="M384.063 183.474L358.42 55.0801L351.061 59.3112L359.369 111.136H357.6L341.239 64.9526L320.52 59.0291L353.369 140.984L351.394 128.521L342.163 101.853L332.957 66.5425L332.367 64.9783L340.752 66.3886L379.473 183.474H384.063Z" fill="url(#paint53_linear_3091_838)"/>
<path d="M487.661 157.166L480.404 167.859L483.353 145.703L483.404 145.319C483.173 139.985 484.532 132.523 485.942 126.368C486.301 124.83 486.635 123.368 486.968 122.06C487.301 120.753 487.635 119.573 487.891 118.599C488.43 116.624 488.789 115.419 488.789 115.419C495.123 103.136 496.174 88.3912 505.611 77.7494C505.995 76.775 506.329 75.7236 506.636 74.6723C509.534 65.2613 512.175 56.7222 512.175 56.7222L519.637 52.0039L486.378 67.6974L463.915 70.1078H485.224L505.354 60.0302L501.533 79.0059C501.354 79.9547 501.149 80.9035 500.944 81.8267C496.943 91.8018 494.302 102.597 489.43 112.419C488.532 113.855 488.019 114.675 488.019 114.675L482.942 134.651C480.916 138.139 460.864 158.832 460.864 158.832C457.71 166.884 450.76 180.603 450.76 180.603L458.12 174.654L440.529 195.348L448.504 193.963L461.582 171.321L452.607 177.757L461.864 158.832L482.66 137.19C481.532 154.217 479.942 169.192 479.942 169.192L486.635 159.858C486.071 165.884 481.942 189.501 481.942 189.501H484.096C484.096 189.501 484.327 184.963 484.814 181.116C485.301 177.218 487.661 157.166 487.661 157.166Z" fill="#9DECFD"/>
<path d="M518.021 162.268L521.663 165.269C518.868 167.192 516.765 170.115 514.2 172.372C513.585 172.936 512.97 173.526 512.329 174.141C504.661 181.347 495.096 190.373 495.096 190.373L503.072 190.886C503.072 190.886 503.405 190.476 503.969 189.783C504.533 189.091 505.354 188.091 506.328 186.886C510.431 178.552 515.457 169.859 523.56 164.705L520.355 162.935L525.073 159.217V154.832L518.047 162.294L518.021 162.268Z" fill="#9DECFD"/>
<path d="M525.305 144.164L532.741 102.879L532.075 104.674L520.33 162.883L525.433 158.832L545.665 155.883L547.05 154.78L525.433 158.832L525.305 144.164Z" fill="#9DECFD"/>
<path fill-rule="evenodd" clip-rule="evenodd" d="M394.961 155.448L413.322 159.192L417.066 159.859L416.373 168.013L416.502 161.372L394.961 155.448Z" fill="#9DECFD"/>
<path fill-rule="evenodd" clip-rule="evenodd" d="M438.811 195.604L481.943 189.501L512.201 191.424L509.509 197.553L513.637 190.655L480.507 188.424L438.811 195.604Z" fill="#9DECFD"/>
<path fill-rule="evenodd" clip-rule="evenodd" d="M302.671 117.266L305.005 133.318C305.005 133.318 310.031 146.781 314.621 159.115C314.98 160.064 315.313 161.012 315.672 161.936C317.801 166.398 319.109 171.141 320.827 175.808C321.622 177.937 322.083 179.219 322.083 179.219L319.698 176.142C322.263 182.245 324.365 188.553 326.186 195.271C326.545 196.169 326.904 197.092 327.289 197.99C331.75 208.862 336.212 219.76 336.212 219.76L353.265 218.376L320.109 224.068V224.735L313.98 223.402L314.211 222.222L319.365 223.838L319.852 222.222L332.058 220.786C332.058 220.786 331.135 213.914 328.161 205.529C327.827 204.605 327.494 203.657 327.16 202.682C326.878 201.682 326.596 200.708 326.289 199.733C324.647 192.015 323.314 185.681 319.903 177.527C319.237 175.885 318.16 174.193 317.365 172.603C317.903 173.654 319.903 175.142 320.442 176.475C318.596 169.629 315.442 163.295 311.005 157.756C310.518 156.858 310.057 155.935 309.595 155.012C305.518 146.729 301.8 139.19 301.8 139.19C301.8 139.19 299.851 145.909 298.261 151.499C298.03 152.294 297.799 153.063 297.594 153.807C296.671 156.294 295.62 156.704 295.62 156.704C295.62 156.704 296.492 156.781 297.261 154.397C297.594 153.038 298.004 151.448 298.44 149.755C300.569 141.242 303.415 129.908 303.415 129.908L302.723 117.343L302.671 117.266Z" fill="#9DECFD"/>
<path fill-rule="evenodd" clip-rule="evenodd" d="M340.008 133.651L340.367 130.984L349.573 168.423L352.035 158.833C352.035 158.833 355.086 165.423 358.42 172.68C358.804 173.475 359.163 174.295 359.548 175.116C361.523 179.552 363.625 183.501 365.497 188.014C366.472 190.091 367.061 191.399 367.061 191.399L365.625 192.322C365.625 192.322 362.856 195.348 362.651 195.04C362.83 188.784 362.01 182.296 359.676 176.398C355.65 166.243 352.753 161.346 352.753 161.346C352.753 161.346 351.291 161.705 350.291 170.398C350.188 171.295 349.983 171.552 349.983 171.552C349.983 171.552 349.188 170.244 348.188 167.526C347.932 166.833 347.675 166.115 347.393 165.32C344.239 156.756 339.213 143.037 339.213 143.037L332.418 155.396L339.752 139.754L340.034 133.6L340.008 133.651Z" fill="#9DECFD"/>
<path fill-rule="evenodd" clip-rule="evenodd" d="M375.96 75.1094C375.96 75.1094 376.678 76.9044 377.498 78.6994C378.319 80.4687 379.114 82.2637 379.114 82.2637C379.114 82.2637 378.857 83.5203 378.447 85.6486C378.242 86.7256 377.985 88.0078 377.703 89.4951C377.549 90.4695 377.396 91.4183 377.242 92.3671C377.114 93.3159 377.062 94.239 376.985 95.1878C377.37 108.189 376.831 121.626 369.216 132.678C368.908 134.293 368.6 135.755 368.344 137.088C367.574 141.037 367.087 143.499 367.087 143.499L372.472 141.14L372.857 187.759L379.447 183.528L411.321 185.425L379.652 184.912C379.652 184.912 374.139 188.067 368.626 191.221C367.241 192.016 365.882 192.81 364.651 193.554C362.574 194.888 361.01 196.734 359.676 198.837C359.676 198.042 360.728 197.785 360.779 197.118C361.497 196.144 361.907 194.759 363.343 193.836C366.215 191.99 369.087 190.169 369.087 190.169L371.549 144.038L366.267 145.499C366.267 145.499 366.574 143.32 367.061 139.755C367.215 138.55 367.421 137.217 367.6 135.729C368.113 134.575 367.6 133.242 368.113 132.473C377.601 121.677 377.601 107.702 376.447 94.598C376.447 93.2389 376.37 91.9311 376.447 90.5721C376.831 86.4692 376.755 82.315 376.088 78.1609C375.985 76.2377 375.96 75.1607 375.96 75.1607V75.1094Z" fill="#9DECFD"/>
<path fill-rule="evenodd" clip-rule="evenodd" d="M365.651 2.64088L363.754 34.951C363.754 34.951 364.6 37.3614 365.933 41.1309C366.369 42.3874 366.856 43.7978 367.267 45.3364C368.138 52.8754 371.831 59.4656 374.806 66.3636C375.113 67.2098 375.395 68.056 375.677 68.8766C378.857 77.9542 381.447 85.2881 381.447 85.2881C381.447 85.2881 383.55 81.5186 385.653 77.7234C386.345 76.4669 387.063 75.2104 387.678 74.0821C388.909 72.1589 389.884 71.646 389.884 71.646C389.884 71.646 390.089 71.646 390.499 72.4153C390.704 72.9795 390.935 73.7744 391.217 74.7232C393.192 81.3647 402.115 115.598 402.808 119.06C403.038 120.214 403.295 121.342 403.551 122.47C403.962 124.804 403.705 126.932 403.962 129.291C403.962 127.445 403.244 128.137 403.039 126.265C402.808 125.445 402.705 122.342 402.397 121.47C401.423 118.906 400.91 116.213 400.474 113.418C400.269 112.649 400.064 111.829 399.859 110.982C397.32 100.905 393.499 85.7753 391.448 77.5952C391.166 76.4156 390.884 75.4155 390.679 74.5437C390.243 72.8769 390.012 72.1589 390.012 72.1589C390.012 72.1589 389.781 72.441 389.422 73.1846C389.063 74.0052 388.55 75.1848 387.96 76.5182C385.601 81.8519 382.063 89.8525 382.063 89.8525C382.063 89.8525 380.396 86.1087 378.062 80.7749C377.729 80.0056 377.37 79.2107 377.011 78.4158C374.985 70.7485 370.78 64.1583 367.651 57.1578C367.292 56.3372 366.933 55.5423 366.6 54.7986C364.266 49.4905 362.6 45.721 362.6 45.721C362.6 45.721 360.958 51.3881 360.163 54.2088C359.881 55.1576 359.702 55.7731 359.702 55.7731C358.112 56.7731 356.266 57.5681 354.163 57.5681C354.958 57.5681 355.471 57.0296 356.343 56.6706C357.394 56.0295 358.445 55.0807 358.445 55.0807L365.651 2.61523V2.64088Z" fill="#9DECFD"/>
<path fill-rule="evenodd" clip-rule="evenodd" d="M470.48 12.874C470.48 12.874 465.583 42.5429 462.787 59.4672C462.505 61.1597 462.249 62.7239 462.044 64.1343C462.736 73.3657 461.146 82.5972 456.3 90.5465C455.915 92.2133 455.531 93.7775 455.223 95.1366C454.582 97.8291 454.172 99.5984 454.172 99.5984C454.172 99.5984 453.684 99.1369 452.941 98.4701C452.197 97.7778 445.684 91.3414 445.684 91.3414C445.632 91.803 445.35 119.626 445.068 123.318C444.709 128.139 442.76 133.857 442.299 135.011C440.606 139.807 437.427 144.012 434.606 147.858C434.221 148.833 433.862 149.807 433.503 150.782C429.477 161.347 426.144 170.04 426.144 170.04L430.99 171.604C430.99 171.604 433.76 162.449 437.119 151.32C437.427 150.32 437.734 149.269 438.042 148.243C440.837 140.319 445.325 132.678 445.376 124.011C445.632 123.139 446.684 99.7523 446.684 98.2137C446.735 95.6238 446.889 93.9314 446.889 93.9314C446.889 93.9314 448.402 95.2648 449.043 96.0084C449.71 96.7777 450.607 97.8034 451.479 98.8035C453.248 100.855 455.043 102.881 455.043 102.881C455.043 102.881 456.736 97.0341 458.659 90.4439C458.941 89.4951 459.198 88.5463 459.48 87.5975C460.326 84.187 461.89 80.7509 462.531 77.0839C462.941 75.6479 463.3 74.4427 463.531 73.6221C463.762 72.7759 463.916 72.3144 463.916 72.3144L472.968 70.1347H463.916L470.455 12.8997L470.48 12.874Z" fill="#9DECFD"/>
<path style="mix-blend-mode:soft-light" opacity="0.91" fill-rule="evenodd" clip-rule="evenodd" d="M287.979 156.779L298.261 181.525L301.774 181.935L294.876 162.985L301.774 164.011L324.084 221.682L325.879 221.476L303.364 150.317L302.416 133.649L295.671 157.343L287.979 156.779Z" fill="url(#paint54_linear_3091_838)"/>
<path style="mix-blend-mode:soft-light" opacity="0.91" d="M505.405 60.0557L457.709 192.348L449.657 193.732L466.453 134.369L462.453 119.291L431.092 203.4L432.245 196.425L433.322 190.347L433.912 192.989L463.94 72.2873L476.915 70.1333L450.888 142.164L481.429 70.1333H485.275L505.405 60.0557Z" fill="url(#paint55_linear_3091_838)"/>
<path style="mix-blend-mode:soft-light" opacity="0.91" d="M545.665 155.884L513.662 201.221H507.918L513.662 190.656L528.612 158.269L534.92 157.192C534.92 157.192 513.842 194.836 514.637 195.374C515.432 195.913 543.613 155.448 543.613 155.448L545.665 155.884Z" fill="url(#paint56_linear_3091_838)"/>
<path fill-rule="evenodd" clip-rule="evenodd" d="M448.607 109.958C448.53 109.778 448.607 109.599 448.786 109.522C448.966 109.445 449.145 109.522 449.222 109.701C449.299 109.881 449.222 110.06 449.043 110.137C448.863 110.214 448.684 110.137 448.607 109.958Z" fill="#D2FFF1"/>
<path fill-rule="evenodd" clip-rule="evenodd" d="M439.785 140.807C439.708 140.628 439.785 140.448 439.964 140.372C440.144 140.295 440.323 140.372 440.4 140.551C440.477 140.731 440.4 140.91 440.221 140.987C440.041 141.064 439.862 140.987 439.785 140.807Z" fill="#D2FFF1"/>
<path fill-rule="evenodd" clip-rule="evenodd" d="M423.04 155.935C422.963 155.756 423.04 155.576 423.22 155.499C423.399 155.423 423.579 155.499 423.656 155.679C423.733 155.858 423.656 156.038 423.476 156.115C423.297 156.192 423.117 156.115 423.04 155.935Z" fill="#D2FFF1"/>
<path fill-rule="evenodd" clip-rule="evenodd" d="M440.555 107.598C440.35 107.111 440.58 106.572 441.068 106.367C441.555 106.162 442.093 106.393 442.299 106.88C442.504 107.367 442.273 107.905 441.786 108.111C441.299 108.316 440.76 108.085 440.555 107.598Z" fill="#D2FFF1"/>
<path fill-rule="evenodd" clip-rule="evenodd" d="M444.17 136.575C444.042 136.267 444.17 135.933 444.478 135.805C444.785 135.677 445.119 135.805 445.247 136.113C445.375 136.421 445.247 136.754 444.939 136.882C444.632 137.01 444.298 136.882 444.17 136.575Z" fill="#D2FFF1"/>
<path fill-rule="evenodd" clip-rule="evenodd" d="M431.322 131.832C431.168 131.473 431.322 131.088 431.681 130.934C432.04 130.781 432.425 130.934 432.579 131.293C432.732 131.652 432.579 132.037 432.22 132.191C431.861 132.345 431.476 132.191 431.322 131.832Z" fill="#D2FFF1"/>
<path fill-rule="evenodd" clip-rule="evenodd" d="M439.555 104.086C439.452 103.804 439.555 103.496 439.837 103.393C440.119 103.291 440.427 103.393 440.529 103.675C440.632 103.958 440.529 104.265 440.247 104.368C439.965 104.47 439.657 104.368 439.555 104.086Z" fill="#D2FFF1"/>
<path fill-rule="evenodd" clip-rule="evenodd" d="M433.042 134.499C432.939 134.268 433.041 133.986 433.298 133.909C433.529 133.807 433.811 133.909 433.888 134.166C433.99 134.397 433.888 134.679 433.631 134.756C433.4 134.858 433.118 134.756 433.042 134.499Z" fill="#D2FFF1"/>
<path fill-rule="evenodd" clip-rule="evenodd" d="M397.962 96.9571C397.859 96.7263 397.962 96.4443 398.218 96.3673C398.475 96.2904 398.731 96.3673 398.808 96.6238C398.885 96.8802 398.808 97.1366 398.552 97.2135C398.321 97.3161 398.039 97.2135 397.962 96.9571Z" fill="#D2FFF1"/>
<path fill-rule="evenodd" clip-rule="evenodd" d="M424.554 117.523C424.451 117.292 424.554 117.01 424.81 116.933C425.067 116.856 425.323 116.933 425.4 117.189C425.503 117.42 425.4 117.702 425.144 117.779C424.913 117.882 424.631 117.779 424.554 117.523Z" fill="#D2FFF1"/>
<path fill-rule="evenodd" clip-rule="evenodd" d="M456.017 152.012C455.915 151.756 456.017 151.448 456.299 151.346C456.581 151.243 456.863 151.346 456.966 151.628C457.069 151.91 456.966 152.192 456.684 152.294C456.427 152.397 456.12 152.294 456.017 152.012Z" fill="#D2FFF1"/>
<path fill-rule="evenodd" clip-rule="evenodd" d="M429.016 136.165C428.939 135.985 429.016 135.78 429.195 135.729C429.375 135.652 429.58 135.729 429.631 135.908C429.708 136.088 429.631 136.293 429.451 136.344C429.272 136.421 429.067 136.344 429.016 136.165Z" fill="#D2FFF1"/>
<path fill-rule="evenodd" clip-rule="evenodd" d="M442.914 158.577C442.811 158.32 442.914 158.013 443.196 157.91C443.478 157.807 443.76 157.91 443.862 158.192C443.965 158.474 443.862 158.756 443.58 158.859C443.298 158.961 443.016 158.859 442.914 158.577Z" fill="#D2FFF1"/>
<path fill-rule="evenodd" clip-rule="evenodd" d="M440.683 157.296C440.606 157.116 440.683 156.911 440.888 156.834C441.068 156.757 441.273 156.834 441.35 157.039C441.427 157.219 441.35 157.424 441.145 157.501C440.94 157.578 440.76 157.501 440.683 157.296Z" fill="#D2FFF1"/>
<path fill-rule="evenodd" clip-rule="evenodd" d="M441.836 146.755C441.759 146.576 441.836 146.371 442.041 146.294C442.246 146.217 442.426 146.294 442.503 146.499C442.58 146.679 442.503 146.884 442.298 146.961C442.118 147.038 441.913 146.961 441.836 146.755Z" fill="#D2FFF1"/>
<path fill-rule="evenodd" clip-rule="evenodd" d="M464.146 109.086C464.069 108.906 464.146 108.701 464.351 108.624C464.531 108.547 464.736 108.624 464.813 108.829C464.89 109.009 464.813 109.214 464.608 109.291C464.428 109.368 464.223 109.291 464.146 109.086Z" fill="#D2FFF1"/>
<path style="mix-blend-mode:screen" opacity="0.5" fill-rule="evenodd" clip-rule="evenodd" d="M428.528 136.37C428.349 135.934 428.554 135.421 428.99 135.242C429.426 135.062 429.939 135.267 430.118 135.703C430.298 136.139 430.093 136.652 429.657 136.832C429.221 137.011 428.708 136.806 428.528 136.37Z" fill="url(#paint57_radial_3091_838)"/>
<path style="mix-blend-mode:screen" opacity="0.5" fill-rule="evenodd" clip-rule="evenodd" d="M438.298 108.908C437.554 107.113 438.4 105.061 440.195 104.318C441.99 103.574 444.042 104.42 444.785 106.215C445.529 108.01 444.683 110.062 442.888 110.805C441.093 111.549 439.041 110.703 438.298 108.908Z" fill="url(#paint58_radial_3091_838)"/>
<path style="mix-blend-mode:screen" opacity="0.5" fill-rule="evenodd" clip-rule="evenodd" d="M441.811 159.09C441.452 158.218 441.862 157.193 442.759 156.834C443.631 156.475 444.657 156.885 445.016 157.782C445.375 158.68 444.965 159.68 444.067 160.039C443.195 160.398 442.17 159.988 441.811 159.09Z" fill="url(#paint59_radial_3091_838)"/>
<path style="mix-blend-mode:screen" opacity="0.5" fill-rule="evenodd" clip-rule="evenodd" d="M435.092 111.522C435.323 110.445 436.4 109.753 437.477 109.984C438.554 110.215 439.246 111.292 439.016 112.369C438.785 113.446 437.708 114.138 436.631 113.907C435.554 113.676 434.861 112.599 435.092 111.522Z" fill="url(#paint60_radial_3091_838)"/>
<path style="mix-blend-mode:screen" opacity="0.15" fill-rule="evenodd" clip-rule="evenodd" d="M426.246 161.218C426.81 158.602 429.4 156.935 432.015 157.525C434.631 158.089 436.298 160.679 435.708 163.295C435.118 165.91 432.554 167.577 429.938 166.987C427.323 166.423 425.656 163.833 426.246 161.218Z" fill="url(#paint61_radial_3091_838)"/>
<path style="mix-blend-mode:screen" opacity="0.15" fill-rule="evenodd" clip-rule="evenodd" d="M463.172 104.547C463.428 103.368 464.608 102.599 465.787 102.855C466.967 103.111 467.736 104.291 467.48 105.471C467.223 106.65 466.044 107.419 464.864 107.163C463.684 106.907 462.915 105.727 463.172 104.547Z" fill="url(#paint62_radial_3091_838)"/>
<path fill-rule="evenodd" clip-rule="evenodd" d="M386.935 184.859L383.806 157.985L394.961 155.447L401.756 157.319V155.447L393.166 154.113L381.473 157.934L384.165 184.372L386.935 184.859Z" fill="#9DECFD"/>
<path fill-rule="evenodd" clip-rule="evenodd" d="M417.066 159.858C417.066 159.858 418.04 168.244 418.912 168.013C419.784 167.782 434.426 172.706 434.426 172.706L428.579 184.835H436.298L431.093 205.964L436.298 207.247L438.093 194.861L452.453 193.22L438.837 195.579L438.093 208.862L430.759 207.785L434.016 185.63H425.99L433.4 174.142L416.374 168.039V160.807L417.066 159.884V159.858Z" fill="#9DECFD"/>
<path fill-rule="evenodd" clip-rule="evenodd" d="M416.374 168.013L395.167 170.321L416.502 166.525L416.374 168.013Z" fill="#9DECFD"/>
<path d="M358.856 52.0039L358.42 55.0811L341.239 64.9536L320.52 59.0301L341.855 66.646L359.702 55.7734L358.856 52.0039Z" fill="url(#paint63_linear_3091_838)"/>
<path d="M340.752 117.266L340.829 142.319L340.009 133.651L340.752 117.266Z" fill="url(#paint64_linear_3091_838)"/>
<path fill-rule="evenodd" clip-rule="evenodd" d="M538.793 71.3133C539.844 70.0311 540.126 69.2362 539.1 70.0568C538.075 70.8773 538.023 72.262 538.793 71.3133Z" fill="#9DECFD"/>
<path fill-rule="evenodd" clip-rule="evenodd" d="M544.536 69.1849C545.715 66.4411 544.767 66.9796 543.51 68.5695C542.254 70.1593 543.92 70.6466 544.536 69.1849Z" fill="#9DECFD"/>
<path fill-rule="evenodd" clip-rule="evenodd" d="M539.664 64.6208C537.921 65.7748 538.69 66.9031 538.921 67.339C539.1 67.6211 541.228 63.5951 539.664 64.6208Z" fill="#9DECFD"/>
<path fill-rule="evenodd" clip-rule="evenodd" d="M336.88 205.144C334.598 202.888 334.008 203.375 334.264 203.939C335.418 206.554 336.88 205.144 336.88 205.144Z" fill="#9DECFD"/>
<path fill-rule="evenodd" clip-rule="evenodd" d="M540.895 70.0825C540.664 70.2877 540.126 70.9544 541.151 70.6467C542.151 70.339 541.151 69.8517 540.895 70.0825Z" fill="#9DECFD"/>
<path fill-rule="evenodd" clip-rule="evenodd" d="M546.126 63.6968C544.921 64.184 544.229 65.7226 545.024 65.4149C545.819 65.1072 547.306 63.2353 546.126 63.6968Z" fill="#9DECFD"/>
<path fill-rule="evenodd" clip-rule="evenodd" d="M278.364 71.2097C279.569 71.8508 282.338 73.4919 280.158 71.0046C277.979 68.4915 277.133 70.5686 278.364 71.2097Z" fill="#9DECFD"/>
<path fill-rule="evenodd" clip-rule="evenodd" d="M341.188 195.193C341.239 191.911 337.495 194.706 338.572 195.475C339.444 196.116 341.188 196.142 341.188 195.193Z" fill="#9DECFD"/>
<path fill-rule="evenodd" clip-rule="evenodd" d="M276.208 73.0304C275.516 73.4663 277.08 74.3382 277.029 73.7741C276.977 73.2099 276.721 72.6971 276.208 73.0304Z" fill="#9DECFD"/>
<path fill-rule="evenodd" clip-rule="evenodd" d="M280.644 69.4668C279.926 69.8258 281.337 70.5438 281.337 70.5438C281.337 70.5438 281.157 69.236 280.644 69.4668Z" fill="#9DECFD"/>
<path fill-rule="evenodd" clip-rule="evenodd" d="M279.747 76.2888C280.183 77.0581 281.568 77.5966 280.876 76.2888C280.209 74.981 279.286 75.4682 279.747 76.2888Z" fill="#9DECFD"/>
<path fill-rule="evenodd" clip-rule="evenodd" d="M536.51 85.0062C533.176 86.314 536.51 73.3643 540.074 77.5954C543.613 81.8264 543.613 82.2367 536.51 85.0062Z" fill="#9DECFD"/>
<path fill-rule="evenodd" clip-rule="evenodd" d="M512.201 136.343C511.637 140.394 521.407 133.778 519.663 131.727C517.92 129.676 512.791 131.983 512.201 136.343Z" fill="#9DECFD"/>
<path fill-rule="evenodd" clip-rule="evenodd" d="M447.273 54.0795C444.683 57.131 452.196 58.8491 454.453 56.9771C456.71 55.1052 452.043 48.438 447.273 54.0795Z" fill="#9DECFD"/>
<path fill-rule="evenodd" clip-rule="evenodd" d="M287.979 75.1337C281.107 84.5959 299.134 84.5959 298.262 82.6214C297.39 80.6469 295.159 65.2611 287.979 75.1337Z" fill="#9DECFD"/>
<path fill-rule="evenodd" clip-rule="evenodd" d="M405.757 90.134C409.424 92.9547 412.911 90.2109 408.373 88.4415C403.834 86.6465 402.603 87.6979 405.757 90.134Z" fill="#9DECFD"/>
<path fill-rule="evenodd" clip-rule="evenodd" d="M344.085 200.938C341.931 201.605 339.546 203.708 341.316 204.708C343.111 205.708 343.854 206.323 345.47 205.81C347.085 205.297 346.47 200.194 344.085 200.938Z" fill="#9DECFD"/>
<path fill-rule="evenodd" clip-rule="evenodd" d="M395.14 21.4883L397.859 39.0793L411.09 51.8495L426.45 35.1816L425.886 28.4632L418.065 21.5396L395.14 21.4883Z" fill="url(#paint65_linear_3091_838)"/>
<path fill-rule="evenodd" clip-rule="evenodd" d="M425.886 28.4629L408.013 31.4888L411.09 51.8493L426.451 35.1813L425.886 28.4629Z" fill="url(#paint66_linear_3091_838)"/>
<path style="mix-blend-mode:multiply" opacity="0.5" fill-rule="evenodd" clip-rule="evenodd" d="M395.14 21.4883L408.013 31.489L425.886 28.4632L418.065 21.5396L395.14 21.4883Z" fill="url(#paint67_linear_3091_838)"/>
<path fill-rule="evenodd" clip-rule="evenodd" d="M432.733 56.1835L431.348 65.0559L427.22 67.3125L422.117 65.2098L420.194 52.7217H426.246L432.733 56.1835Z" fill="url(#paint68_linear_3091_838)"/>
<path fill-rule="evenodd" clip-rule="evenodd" d="M420.194 52.7217L427.04 57.2092L427.22 67.3125L422.117 65.2098L420.194 52.7217Z" fill="url(#paint69_linear_3091_838)"/>
<path style="mix-blend-mode:multiply" opacity="0.5" fill-rule="evenodd" clip-rule="evenodd" d="M432.733 56.1835L427.04 57.2092L420.194 52.7217H426.246L432.733 56.1835Z" fill="url(#paint70_linear_3091_838)"/>
<defs>
<filter id="filter0_d_3091_838" x="0.9" y="31.3023" width="556.555" height="317.418" filterUnits="userSpaceOnUse" color-interpolation-filters="sRGB">
<feFlood flood-opacity="0" result="BackgroundImageFix"/>
<feColorMatrix in="SourceAlpha" type="matrix" values="0 0 0 0 0 0 0 0 0 0 0 0 0 0 0 0 0 0 127 0" result="hardAlpha"/>
<feOffset dy="4"/>
<feGaussianBlur stdDeviation="5.55"/>
<feComposite in2="hardAlpha" operator="out"/>
<feColorMatrix type="matrix" values="0 0 0 0 0 0 0 0 0 0 0 0 0 0 0 0 0 0 0.6 0"/>
<feBlend mode="normal" in2="BackgroundImageFix" result="effect1_dropShadow_3091_838"/>
<feBlend mode="normal" in="SourceGraphic" in2="effect1_dropShadow_3091_838" result="shape"/>
</filter>
<linearGradient id="paint0_linear_3091_838" x1="813.533" y1="333.62" x2="813.533" y2="628.838" gradientUnits="userSpaceOnUse">
<stop stop-color="#4F0170"/>
<stop offset="0.892966" stop-color="#5384A6"/>
</linearGradient>
<linearGradient id="paint1_linear_3091_838" x1="325.879" y1="25.2331" x2="325.879" y2="202.246" gradientUnits="userSpaceOnUse">
<stop stop-color="#5612A1"/>
<stop offset="1" stop-color="#9000B0"/>
</linearGradient>
<linearGradient id="paint2_linear_3091_838" x1="325.854" y1="196.528" x2="344.368" y2="87.9814" gradientUnits="userSpaceOnUse">
<stop stop-color="#4F0BC0"/>
<stop offset="1" stop-color="#B10CD9"/>
</linearGradient>
<linearGradient id="paint3_linear_3091_838" x1="328.033" y1="136.831" x2="327.34" y2="134.087" gradientUnits="userSpaceOnUse">
<stop stop-color="#3445A1"/>
<stop offset="1" stop-color="#191E84"/>
</linearGradient>
<linearGradient id="paint4_linear_3091_838" x1="279.875" y1="25.2331" x2="279.875" y2="202.246" gradientUnits="userSpaceOnUse">
<stop stop-color="#5612A1"/>
<stop offset="1" stop-color="#9000B0"/>
</linearGradient>
<linearGradient id="paint5_linear_3091_838" x1="280.465" y1="218.581" x2="307.852" y2="58.133" gradientUnits="userSpaceOnUse">
<stop stop-color="#4F0BC0"/>
<stop offset="1" stop-color="#B10CD9"/>
</linearGradient>
<linearGradient id="paint6_linear_3091_838" x1="284.44" y1="132.421" x2="282.927" y2="126.548" gradientUnits="userSpaceOnUse">
<stop stop-color="#3445A1"/>
<stop offset="1" stop-color="#191E84"/>
</linearGradient>
<linearGradient id="paint7_linear_3091_838" x1="331.957" y1="25.2334" x2="331.957" y2="202.247" gradientUnits="userSpaceOnUse">
<stop stop-color="#5612A1"/>
<stop offset="1" stop-color="#9000B0"/>
</linearGradient>
<linearGradient id="paint8_linear_3091_838" x1="325.88" y1="117.445" x2="353.395" y2="-43.8747" gradientUnits="userSpaceOnUse">
<stop stop-color="#4F0BC0"/>
<stop offset="1" stop-color="#B10CD9"/>
</linearGradient>
<linearGradient id="paint9_linear_3091_838" x1="335.958" y1="77.6971" x2="341.933" y2="42.6176" gradientUnits="userSpaceOnUse">
<stop stop-color="#4F0BC0"/>
<stop offset="1" stop-color="#C822F0"/>
</linearGradient>
<linearGradient id="paint10_linear_3091_838" x1="335.547" y1="28.5149" x2="334.419" y2="24.1556" gradientUnits="userSpaceOnUse">
<stop stop-color="#3445A1"/>
<stop offset="1" stop-color="#191E84"/>
</linearGradient>
<linearGradient id="paint11_linear_3091_838" x1="496.841" y1="25.231" x2="496.841" y2="202.244" gradientUnits="userSpaceOnUse">
<stop stop-color="#5612A1"/>
<stop offset="1" stop-color="#9000B0"/>
</linearGradient>
<linearGradient id="paint12_linear_3091_838" x1="460.197" y1="131.7" x2="487.481" y2="-28.2602" gradientUnits="userSpaceOnUse">
<stop stop-color="#4F0BC0"/>
<stop offset="1" stop-color="#B10CD9"/>
</linearGradient>
<linearGradient id="paint13_linear_3091_838" x1="484.635" y1="103.107" x2="497.559" y2="27.3838" gradientUnits="userSpaceOnUse">
<stop stop-color="#4F0BC0"/>
<stop offset="1" stop-color="#C822F0"/>
</linearGradient>
<linearGradient id="paint14_linear_3091_838" x1="504.174" y1="35.4625" x2="502.841" y2="30.3083" gradientUnits="userSpaceOnUse">
<stop stop-color="#3445A1"/>
<stop offset="1" stop-color="#191E84"/>
</linearGradient>
<linearGradient id="paint15_linear_3091_838" x1="278.44" y1="199.067" x2="283.287" y2="170.654" gradientUnits="userSpaceOnUse">
<stop stop-color="#4F0BC0"/>
<stop offset="1" stop-color="#B10CD9"/>
</linearGradient>
<linearGradient id="paint16_linear_3091_838" x1="308.494" y1="238.326" x2="312.136" y2="216.888" gradientUnits="userSpaceOnUse">
<stop stop-color="#4F0BC0"/>
<stop offset="1" stop-color="#B10CD9"/>
</linearGradient>
<linearGradient id="paint17_linear_3091_838" x1="347.164" y1="265.149" x2="351.575" y2="239.275" gradientUnits="userSpaceOnUse">
<stop stop-color="#4F0BC0"/>
<stop offset="1" stop-color="#B10CD9"/>
</linearGradient>
<linearGradient id="paint18_linear_3091_838" x1="350.523" y1="265.225" x2="362.242" y2="196.425" gradientUnits="userSpaceOnUse">
<stop stop-color="#4F0BC0"/>
<stop offset="1" stop-color="#B10CD9"/>
</linearGradient>
<linearGradient id="paint19_linear_3091_838" x1="426.144" y1="243.223" x2="434.376" y2="194.989" gradientUnits="userSpaceOnUse">
<stop stop-color="#4F0BC0"/>
<stop offset="1" stop-color="#B10CD9"/>
</linearGradient>
<linearGradient id="paint20_linear_3091_838" x1="389.371" y1="229.427" x2="401.013" y2="161.242" gradientUnits="userSpaceOnUse">
<stop stop-color="#4F0BC0"/>
<stop offset="1" stop-color="#B10CD9"/>
</linearGradient>
<linearGradient id="paint21_linear_3091_838" x1="412.143" y1="184.757" x2="416.092" y2="161.601" gradientUnits="userSpaceOnUse">
<stop stop-color="#4F0BC0"/>
<stop offset="1" stop-color="#B10CD9"/>
</linearGradient>
<linearGradient id="paint22_linear_3091_838" x1="398.782" y1="167.756" x2="401.424" y2="152.268" gradientUnits="userSpaceOnUse">
<stop stop-color="#4F0BC0"/>
<stop offset="1" stop-color="#B10CD9"/>
</linearGradient>
<linearGradient id="paint23_linear_3091_838" x1="409.988" y1="287.125" x2="419.681" y2="230.249" gradientUnits="userSpaceOnUse">
<stop stop-color="#4F0BC0"/>
<stop offset="1" stop-color="#B10CD9"/>
</linearGradient>
<linearGradient id="paint24_linear_3091_838" x1="505.125" y1="229.145" x2="512.484" y2="186.065" gradientUnits="userSpaceOnUse">
<stop stop-color="#4F0BC0"/>
<stop offset="1" stop-color="#B10CD9"/>
</linearGradient>
<linearGradient id="paint25_linear_3091_838" x1="470.737" y1="221.529" x2="479.148" y2="172.218" gradientUnits="userSpaceOnUse">
<stop stop-color="#4F0BC0"/>
<stop offset="1" stop-color="#B10CD9"/>
</linearGradient>
<linearGradient id="paint26_linear_3091_838" x1="397.27" y1="315.075" x2="408.297" y2="250.532" gradientUnits="userSpaceOnUse">
<stop stop-color="#4F0BC0"/>
<stop offset="1" stop-color="#B10CD9"/>
</linearGradient>
<linearGradient id="paint27_linear_3091_838" x1="280.799" y1="209.17" x2="279.44" y2="203.938" gradientUnits="userSpaceOnUse">
<stop stop-color="#3445A1"/>
<stop offset="1" stop-color="#191E84"/>
</linearGradient>
<linearGradient id="paint28_linear_3091_838" x1="282.338" y1="251.685" x2="280.133" y2="243.248" gradientUnits="userSpaceOnUse">
<stop stop-color="#3445A1"/>
<stop offset="1" stop-color="#191E84"/>
</linearGradient>
<linearGradient id="paint29_linear_3091_838" x1="319.7" y1="242.504" x2="319.007" y2="239.863" gradientUnits="userSpaceOnUse">
<stop stop-color="#3445A1"/>
<stop offset="1" stop-color="#191E84"/>
</linearGradient>
<linearGradient id="paint30_linear_3091_838" x1="429.657" y1="209.553" x2="428.683" y2="205.809" gradientUnits="userSpaceOnUse">
<stop stop-color="#3445A1"/>
<stop offset="1" stop-color="#191E84"/>
</linearGradient>
<linearGradient id="paint31_linear_3091_838" x1="402.373" y1="186.86" x2="401.603" y2="183.834" gradientUnits="userSpaceOnUse">
<stop stop-color="#3445A1"/>
<stop offset="1" stop-color="#191E84"/>
</linearGradient>
<linearGradient id="paint32_linear_3091_838" x1="412.117" y1="169.679" x2="411.758" y2="168.269" gradientUnits="userSpaceOnUse">
<stop stop-color="#3445A1"/>
<stop offset="1" stop-color="#191E84"/>
</linearGradient>
<linearGradient id="paint33_linear_3091_838" x1="340.701" y1="282.714" x2="339.06" y2="276.38" gradientUnits="userSpaceOnUse">
<stop stop-color="#3445A1"/>
<stop offset="1" stop-color="#191E84"/>
</linearGradient>
<linearGradient id="paint34_linear_3091_838" x1="468.377" y1="268.174" x2="466.659" y2="261.61" gradientUnits="userSpaceOnUse">
<stop stop-color="#3445A1"/>
<stop offset="1" stop-color="#191E84"/>
</linearGradient>
<linearGradient id="paint35_linear_3091_838" x1="505.868" y1="226.991" x2="504.894" y2="223.247" gradientUnits="userSpaceOnUse">
<stop stop-color="#3445A1"/>
<stop offset="1" stop-color="#191E84"/>
</linearGradient>
<linearGradient id="paint36_linear_3091_838" x1="402.681" y1="325.357" x2="400.757" y2="317.947" gradientUnits="userSpaceOnUse">
<stop stop-color="#3445A1"/>
<stop offset="1" stop-color="#191E84"/>
</linearGradient>
<linearGradient id="paint37_linear_3091_838" x1="398.449" y1="282.022" x2="397.295" y2="277.663" gradientUnits="userSpaceOnUse">
<stop stop-color="#3445A1"/>
<stop offset="1" stop-color="#191E84"/>
</linearGradient>
<linearGradient id="paint38_linear_3091_838" x1="309.572" y1="245.658" x2="308.546" y2="241.709" gradientUnits="userSpaceOnUse">
<stop stop-color="#3445A1"/>
<stop offset="1" stop-color="#191E84"/>
</linearGradient>
<linearGradient id="paint39_linear_3091_838" x1="347.523" y1="273.533" x2="347.523" y2="214.067" gradientUnits="userSpaceOnUse">
<stop stop-color="#3445A1"/>
<stop offset="1" stop-color="#191E84"/>
</linearGradient>
<linearGradient id="paint40_linear_3091_838" x1="299.57" y1="247.197" x2="297.365" y2="238.735" gradientUnits="userSpaceOnUse">
<stop stop-color="#3445A1"/>
<stop offset="1" stop-color="#191E84"/>
</linearGradient>
<linearGradient id="paint41_linear_3091_838" x1="272.132" y1="242.941" x2="287.159" y2="154.909" gradientUnits="userSpaceOnUse">
<stop stop-color="#3445A1"/>
<stop offset="1" stop-color="#191E84"/>
</linearGradient>
<linearGradient id="paint42_linear_3091_838" x1="368.729" y1="302.457" x2="397.706" y2="132.701" gradientUnits="userSpaceOnUse">
<stop stop-color="#3445A1"/>
<stop offset="1" stop-color="#191E84"/>
</linearGradient>
<linearGradient id="paint43_linear_3091_838" x1="441.504" y1="260.79" x2="439.529" y2="253.225" gradientUnits="userSpaceOnUse">
<stop stop-color="#3445A1"/>
<stop offset="1" stop-color="#191E84"/>
</linearGradient>
<linearGradient id="paint44_linear_3091_838" x1="485.071" y1="263.815" x2="483.378" y2="257.25" gradientUnits="userSpaceOnUse">
<stop stop-color="#3445A1"/>
<stop offset="1" stop-color="#191E84"/>
</linearGradient>
<linearGradient id="paint45_linear_3091_838" x1="473.968" y1="277.661" x2="494.97" y2="154.601" gradientUnits="userSpaceOnUse">
<stop stop-color="#3445A1"/>
<stop offset="1" stop-color="#191E84"/>
</linearGradient>
<linearGradient id="paint46_linear_3091_838" x1="493.893" y1="231.299" x2="492.278" y2="225.067" gradientUnits="userSpaceOnUse">
<stop stop-color="#3445A1"/>
<stop offset="1" stop-color="#191E84"/>
</linearGradient>
<linearGradient id="paint47_linear_3091_838" x1="405.475" y1="287.764" x2="394.91" y2="192.398" gradientUnits="userSpaceOnUse">
<stop stop-color="#3445A1"/>
<stop offset="1" stop-color="#191E84"/>
</linearGradient>
<linearGradient id="paint48_linear_3091_838" x1="381.396" y1="326.666" x2="393.525" y2="193.323" gradientUnits="userSpaceOnUse">
<stop stop-color="#433FFF"/>
<stop offset="1"/>
</linearGradient>
<linearGradient id="paint49_linear_3091_838" x1="543.639" y1="25.2321" x2="543.639" y2="202.245" gradientUnits="userSpaceOnUse">
<stop stop-color="#5612A1"/>
<stop offset="1" stop-color="#9000B0"/>
</linearGradient>
<linearGradient id="paint50_linear_3091_838" x1="518.689" y1="218.657" x2="545.46" y2="61.9015" gradientUnits="userSpaceOnUse">
<stop stop-color="#4F0BC0"/>
<stop offset="1" stop-color="#C822F0"/>
</linearGradient>
<linearGradient id="paint51_linear_3091_838" x1="553.051" y1="127.906" x2="551.743" y2="122.932" gradientUnits="userSpaceOnUse">
<stop stop-color="#3445A1"/>
<stop offset="1" stop-color="#191E84"/>
</linearGradient>
<linearGradient id="paint52_linear_3091_838" x1="560.154" y1="155.216" x2="557.615" y2="145.421" gradientUnits="userSpaceOnUse">
<stop stop-color="#3445A1"/>
<stop offset="1" stop-color="#191E84"/>
</linearGradient>
<linearGradient id="paint53_linear_3091_838" x1="358.01" y1="175.499" x2="346.06" y2="62.1575" gradientUnits="userSpaceOnUse">
<stop offset="0.03" stop-color="#83FFEA"/>
<stop offset="1" stop-color="#67DBFF"/>
</linearGradient>
<linearGradient id="paint54_linear_3091_838" x1="287.979" y1="177.653" x2="325.879" y2="177.653" gradientUnits="userSpaceOnUse">
<stop offset="0.03" stop-color="#83FFEA"/>
<stop offset="1" stop-color="#67DBFF"/>
</linearGradient>
<linearGradient id="paint55_linear_3091_838" x1="474.146" y1="187.758" x2="461.812" y2="70.6462" gradientUnits="userSpaceOnUse">
<stop offset="0.03" stop-color="#83FFEA"/>
<stop offset="1" stop-color="#67DBFF"/>
</linearGradient>
<linearGradient id="paint56_linear_3091_838" x1="528.638" y1="196.144" x2="524.74" y2="159.32" gradientUnits="userSpaceOnUse">
<stop offset="0.03" stop-color="#83FFEA"/>
<stop offset="1" stop-color="#67DBFF"/>
</linearGradient>
<radialGradient id="paint57_radial_3091_838" cx="0" cy="0" r="1" gradientUnits="userSpaceOnUse" gradientTransform="translate(429.524 136.547) rotate(157.57) scale(0.876986 0.876991)">
<stop stop-color="#00FFFF"/>
<stop offset="1"/>
</radialGradient>
<radialGradient id="paint58_radial_3091_838" cx="0" cy="0" r="1" gradientUnits="userSpaceOnUse" gradientTransform="translate(441.786 108.067) rotate(157.57) scale(3.50792 3.50795)">
<stop stop-color="#00FFFF"/>
<stop offset="1"/>
</radialGradient>
<radialGradient id="paint59_radial_3091_838" cx="0" cy="0" r="1" gradientUnits="userSpaceOnUse" gradientTransform="translate(443.612 158.945) rotate(157.57) scale(1.70782)">
<stop stop-color="#00FFFF"/>
<stop offset="1"/>
</radialGradient>
<radialGradient id="paint60_radial_3091_838" cx="0" cy="0" r="1" gradientUnits="userSpaceOnUse" gradientTransform="translate(436.943 111.146) rotate(-167.69) scale(1.98473 1.98476)">
<stop stop-color="#00FFFF"/>
<stop offset="1"/>
</radialGradient>
<radialGradient id="paint61_radial_3091_838" cx="0" cy="0" r="1" gradientUnits="userSpaceOnUse" gradientTransform="translate(430.877 161.459) rotate(-167.69) scale(4.84652)">
<stop stop-color="#00FFFF"/>
<stop offset="0.37" stop-color="#00FDFD"/>
<stop offset="0.51" stop-color="#00F6F6"/>
<stop offset="0.6" stop-color="#00EAEA"/>
<stop offset="0.68" stop-color="#00D9D9"/>
<stop offset="0.75" stop-color="#00C3C3"/>
<stop offset="0.8" stop-color="#00A8A8"/>
<stop offset="0.86" stop-color="#008787"/>
<stop offset="0.91" stop-color="#006262"/>
<stop offset="0.95" stop-color="#003737"/>
<stop offset="0.99" stop-color="#000909"/>
<stop offset="1"/>
</radialGradient>
<radialGradient id="paint62_radial_3091_838" cx="0" cy="0" r="1" gradientUnits="userSpaceOnUse" gradientTransform="translate(465.239 104.235) rotate(-167.69) scale(2.21554 2.21555)">
<stop stop-color="#00FFFF"/>
<stop offset="0.37" stop-color="#00FDFD"/>
<stop offset="0.51" stop-color="#00F6F6"/>
<stop offset="0.6" stop-color="#00EAEA"/>
<stop offset="0.68" stop-color="#00D9D9"/>
<stop offset="0.75" stop-color="#00C3C3"/>
<stop offset="0.8" stop-color="#00A8A8"/>
<stop offset="0.86" stop-color="#008787"/>
<stop offset="0.91" stop-color="#006262"/>
<stop offset="0.95" stop-color="#003737"/>
<stop offset="0.99" stop-color="#000909"/>
<stop offset="1"/>
</radialGradient>
<linearGradient id="paint63_linear_3091_838" x1="340.983" y1="65.6972" x2="339.803" y2="54.5938" gradientUnits="userSpaceOnUse">
<stop offset="0.03" stop-color="#83FFEA"/>
<stop offset="1" stop-color="#67DBFF"/>
</linearGradient>
<linearGradient id="paint64_linear_3091_838" x1="341.881" y1="140.165" x2="339.598" y2="118.496" gradientUnits="userSpaceOnUse">
<stop offset="0.03" stop-color="#83FFEA"/>
<stop offset="1" stop-color="#67DBFF"/>
</linearGradient>
<linearGradient id="paint65_linear_3091_838" x1="559.534" y1="-259.756" x2="478.304" y2="-102.51" gradientUnits="userSpaceOnUse">
<stop stop-color="#5612A1"/>
<stop offset="1" stop-color="#9000B0"/>
</linearGradient>
<linearGradient id="paint66_linear_3091_838" x1="388.249" y1="71.7079" x2="435.127" y2="9.51062" gradientUnits="userSpaceOnUse">
<stop stop-color="#4F0BC0"/>
<stop offset="1" stop-color="#B10CD9"/>
</linearGradient>
<linearGradient id="paint67_linear_3091_838" x1="408.696" y1="32.6279" x2="409.195" y2="30.4325" gradientUnits="userSpaceOnUse">
<stop stop-color="#3445A1"/>
<stop offset="1" stop-color="#191E84"/>
</linearGradient>
<linearGradient id="paint68_linear_3091_838" x1="558.851" y1="315.128" x2="640.094" y2="472.396" gradientUnits="userSpaceOnUse">
<stop stop-color="#5612A1"/>
<stop offset="1" stop-color="#9000B0"/>
</linearGradient>
<linearGradient id="paint69_linear_3091_838" x1="438.832" y1="80.221" x2="411.856" y2="44.4267" gradientUnits="userSpaceOnUse">
<stop stop-color="#4F0BC0"/>
<stop offset="1" stop-color="#B10CD9"/>
</linearGradient>
<linearGradient id="paint70_linear_3091_838" x1="427.394" y1="58.1909" x2="427.127" y2="57.059" gradientUnits="userSpaceOnUse">
<stop stop-color="#3445A1"/>
<stop offset="1" stop-color="#191E84"/>
</linearGradient>
</defs>
</svg>
