<svg width="313" height="233" viewBox="0 0 313 233" fill="none" xmlns="http://www.w3.org/2000/svg">
<path d="M9.65516 34.47C4.9679 17.7359 18.362 1.4426 35.6867 2.8037L286.675 22.5225C300.975 23.646 311.4 36.5457 309.496 50.7628L288.94 204.317C287.278 216.731 276.686 226 264.161 226H82.263C71.0528 226 61.2132 218.538 58.1895 207.743L9.65516 34.47Z" fill="white"/>
<path d="M227.112 49.6572L226.602 55.6328C226.328 55.5573 226.059 55.5054 225.795 55.4771C225.531 55.4487 225.262 55.4346 224.988 55.4346C224.318 55.4346 223.676 55.5195 223.062 55.6895C222.458 55.8594 221.92 56.119 221.448 56.4683C220.985 56.8175 220.612 57.2612 220.329 57.7993C220.055 58.328 219.918 58.9557 219.918 59.6826C219.918 60.2113 219.994 60.6738 220.145 61.0703C220.306 61.4574 220.527 61.783 220.811 62.0474C221.103 62.3022 221.452 62.4958 221.858 62.6279C222.274 62.7601 222.732 62.8262 223.232 62.8262C223.581 62.8262 223.94 62.7931 224.308 62.7271C224.676 62.6515 225.044 62.5524 225.413 62.4297C225.781 62.307 226.135 62.1654 226.475 62.0049C226.814 61.8444 227.131 61.6745 227.423 61.4951L227.197 68.1504C226.829 68.3392 226.432 68.5091 226.007 68.6602C225.583 68.8018 225.144 68.9245 224.69 69.0283C224.247 69.1416 223.798 69.2266 223.345 69.2832C222.902 69.3398 222.477 69.3682 222.071 69.3682C220.73 69.3682 219.508 69.118 218.403 68.6177C217.308 68.1174 216.364 67.4377 215.571 66.5786C214.788 65.7101 214.179 64.7048 213.745 63.5625C213.31 62.4202 213.093 61.2025 213.093 59.9092C213.093 58.361 213.31 56.9167 213.745 55.5762C214.188 54.2357 214.835 53.0745 215.685 52.0928C216.544 51.1016 217.601 50.3275 218.856 49.7705C220.121 49.2041 221.57 48.9209 223.204 48.9209C223.855 48.9209 224.516 48.9728 225.186 49.0767C225.856 49.1805 226.498 49.374 227.112 49.6572ZM245.931 49.8271L239.275 60.7021L239.474 68.7168H232.195L232.365 60.7588L227.183 50.252L234.404 49.3457L236.67 55.4629L239.134 49.3457L245.931 49.8271ZM261.507 67.7822L254.483 68.6885L253.634 65.4883H250.405L249.697 68.6885L242.476 67.9805L248.111 49.1191L255.984 48.7227L261.507 67.7822ZM253.124 61.1553L252.048 56.2275L251 61.1553H253.124ZM279.377 61.835C279.377 62.9017 279.363 63.959 279.334 65.0068C279.316 66.0452 279.283 67.0931 279.235 68.1504L271.079 68.0088C271.362 66.3379 271.608 64.6717 271.815 63.0103C272.023 61.3394 272.127 59.6543 272.127 57.9551C272.127 57.8324 272.122 57.6341 272.113 57.3604C272.103 57.0866 272.084 56.7798 272.056 56.4399C272.028 56.0907 271.985 55.7367 271.929 55.3779C271.882 55.0098 271.811 54.6746 271.716 54.3726C271.631 54.0705 271.523 53.825 271.391 53.6362C271.268 53.438 271.117 53.3389 270.938 53.3389C270.617 53.3389 270.343 53.4333 270.116 53.6221C269.899 53.8109 269.715 54.0563 269.564 54.3584C269.422 54.651 269.309 54.9814 269.224 55.3496C269.139 55.7178 269.073 56.0859 269.026 56.4541C268.988 56.8223 268.96 57.1715 268.941 57.502C268.931 57.8229 268.927 58.0872 268.927 58.2949C268.88 59.9658 268.842 61.6273 268.813 63.2793C268.785 64.9219 268.747 66.5833 268.7 68.2637L261.479 68.5752C261.667 65.2428 261.847 61.9294 262.017 58.6348C262.196 55.3402 262.338 52.0267 262.441 48.6943L269.125 48.3545L269.068 50.6201C269.333 50.2992 269.616 49.9971 269.918 49.7139C270.229 49.4307 270.56 49.1899 270.909 48.9917C271.258 48.784 271.627 48.6235 272.014 48.5103C272.41 48.3875 272.826 48.3262 273.26 48.3262C274.062 48.3262 274.765 48.4583 275.37 48.7227C275.974 48.987 276.493 49.3457 276.927 49.7988C277.361 50.252 277.725 50.79 278.018 51.4131C278.31 52.0267 278.546 52.6828 278.726 53.3813C278.905 54.0799 279.042 54.8115 279.136 55.5762C279.231 56.3314 279.292 57.0771 279.32 57.8135C279.358 58.5498 279.377 59.2625 279.377 59.9517C279.377 60.6408 279.377 61.2686 279.377 61.835ZM199.599 84.3779C199.599 85.2936 199.462 86.1055 199.188 86.8135C198.914 87.5215 198.537 88.1398 198.055 88.6685C197.583 89.1971 197.026 89.6455 196.384 90.0137C195.742 90.3818 195.053 90.6839 194.317 90.9199C193.59 91.1465 192.835 91.3164 192.051 91.4297C191.268 91.5335 190.498 91.5902 189.743 91.5996V98.1982H183.145C183.145 96.0365 183.149 93.8841 183.159 91.7412C183.168 89.5983 183.182 87.4365 183.201 85.2559C183.22 84.1042 183.225 82.9525 183.215 81.8008C183.206 80.6491 183.229 79.488 183.286 78.3174C184.494 77.9587 185.703 77.6896 186.911 77.5103C188.119 77.3309 189.366 77.2412 190.649 77.2412C191.376 77.2412 192.103 77.3026 192.83 77.4253C193.557 77.5386 194.251 77.7227 194.912 77.9775C195.582 78.2324 196.2 78.5534 196.767 78.9404C197.342 79.318 197.838 79.7712 198.253 80.2998C198.669 80.8285 198.994 81.4326 199.23 82.1123C199.476 82.7826 199.599 83.5378 199.599 84.3779ZM193.312 84.8594C193.312 84.2458 193.123 83.769 192.745 83.4292C192.377 83.0799 191.896 82.9053 191.301 82.9053C191.103 82.9053 190.895 82.9242 190.678 82.9619C190.47 82.9902 190.272 83.028 190.083 83.0752L189.913 87.21C190.045 87.2288 190.173 87.2383 190.295 87.2383C190.418 87.2383 190.546 87.2383 190.678 87.2383C191.018 87.2383 191.343 87.1816 191.655 87.0684C191.976 86.9551 192.259 86.7946 192.504 86.5869C192.75 86.3698 192.943 86.1196 193.085 85.8364C193.236 85.5438 193.312 85.2181 193.312 84.8594ZM216.732 96.7822L209.709 97.6885L208.859 94.4883H205.631L204.923 97.6885L197.701 96.9805L203.337 78.1191L211.21 77.7227L216.732 96.7822ZM208.35 90.1553L207.273 85.2275L206.226 90.1553H208.35ZM233.073 86.7568C233.073 88.0785 232.903 89.2632 232.563 90.311C232.224 91.3589 231.747 92.2887 231.133 93.1006C230.529 93.903 229.807 94.5874 228.967 95.1538C228.127 95.7202 227.206 96.1875 226.206 96.5557C225.205 96.9144 224.138 97.1787 223.005 97.3486C221.882 97.5186 220.726 97.6035 219.536 97.6035C219.092 97.6035 218.658 97.5941 218.233 97.5752C217.809 97.5469 217.374 97.5091 216.931 97.4619L217.327 79.0254C218.366 78.695 219.432 78.4637 220.527 78.3315C221.632 78.1899 222.727 78.1191 223.812 78.1191C225.162 78.1191 226.404 78.3079 227.537 78.6855C228.669 79.0632 229.646 79.6201 230.468 80.3564C231.289 81.0833 231.926 81.9849 232.379 83.061C232.842 84.1278 233.073 85.3597 233.073 86.7568ZM223.444 92.1943C224.011 92.1094 224.525 91.9395 224.988 91.6846C225.46 91.4202 225.866 91.0993 226.206 90.7217C226.545 90.3346 226.805 89.9004 226.984 89.4189C227.173 88.9281 227.268 88.4089 227.268 87.8613C227.268 87.3232 227.211 86.8229 227.098 86.3604C226.984 85.8883 226.8 85.4824 226.545 85.1426C226.291 84.7933 225.955 84.5195 225.54 84.3213C225.125 84.1136 224.615 84.0003 224.011 83.9814L223.444 92.1943ZM250.009 86.7568C250.009 88.0785 249.839 89.2632 249.499 90.311C249.159 91.3589 248.682 92.2887 248.069 93.1006C247.465 93.903 246.743 94.5874 245.902 95.1538C245.062 95.7202 244.142 96.1875 243.141 96.5557C242.14 96.9144 241.074 97.1787 239.941 97.3486C238.818 97.5186 237.661 97.6035 236.472 97.6035C236.028 97.6035 235.594 97.5941 235.169 97.5752C234.744 97.5469 234.31 97.5091 233.866 97.4619L234.263 79.0254C235.301 78.695 236.368 78.4637 237.463 78.3315C238.567 78.1899 239.662 78.1191 240.748 78.1191C242.098 78.1191 243.339 78.3079 244.472 78.6855C245.605 79.0632 246.582 79.6201 247.403 80.3564C248.225 81.0833 248.862 81.9849 249.315 83.061C249.778 84.1278 250.009 85.3597 250.009 86.7568ZM240.38 92.1943C240.946 92.1094 241.461 91.9395 241.923 91.6846C242.395 91.4202 242.801 91.0993 243.141 90.7217C243.481 90.3346 243.741 89.9004 243.92 89.4189C244.109 88.9281 244.203 88.4089 244.203 87.8613C244.203 87.3232 244.146 86.8229 244.033 86.3604C243.92 85.8883 243.736 85.4824 243.481 85.1426C243.226 84.7933 242.891 84.5195 242.476 84.3213C242.06 84.1136 241.55 84.0003 240.946 83.9814L240.38 92.1943ZM263.319 90.4951L262.725 96.7822L250.802 97.7168L251.255 77.4961H258.618L257.57 90.4951H263.319ZM279.788 86.5586C279.788 87.3799 279.731 88.2012 279.618 89.0225C278.003 89.1263 276.399 89.2962 274.803 89.5322C273.208 89.7588 271.612 89.9854 270.017 90.2119C270.263 90.8916 270.645 91.4344 271.164 91.8403C271.693 92.2463 272.32 92.4492 273.047 92.4492C273.425 92.4492 273.836 92.3784 274.279 92.2368C274.732 92.0952 275.181 91.9206 275.625 91.7129C276.068 91.4958 276.493 91.2645 276.899 91.019C277.305 90.7736 277.654 90.5518 277.947 90.3535L277.267 96.7822C276.899 97.0654 276.498 97.3062 276.063 97.5044C275.639 97.7026 275.195 97.8631 274.732 97.9858C274.27 98.1086 273.803 98.1982 273.331 98.2549C272.859 98.3115 272.396 98.3398 271.943 98.3398C271.008 98.3398 270.154 98.2124 269.38 97.9575C268.606 97.7026 267.903 97.3486 267.27 96.8955C266.647 96.4329 266.099 95.8901 265.627 95.2671C265.155 94.644 264.764 93.9644 264.452 93.228C264.141 92.4917 263.905 91.7129 263.744 90.8916C263.584 90.0703 263.503 89.2396 263.503 88.3994C263.503 87.5215 263.584 86.6436 263.744 85.7656C263.905 84.8877 264.145 84.0428 264.466 83.231C264.797 82.4191 265.207 81.6686 265.698 80.9795C266.199 80.2809 266.779 79.672 267.44 79.1528C268.101 78.6336 268.847 78.2277 269.677 77.9351C270.517 77.6424 271.443 77.4961 272.453 77.4961C273.293 77.4961 274.057 77.6141 274.747 77.8501C275.445 78.0767 276.063 78.3976 276.602 78.813C277.149 79.2189 277.621 79.7051 278.018 80.2715C278.424 80.8379 278.754 81.4609 279.009 82.1406C279.273 82.8109 279.467 83.5236 279.589 84.2788C279.722 85.0246 279.788 85.7845 279.788 86.5586ZM274.124 85.8223C274.124 85.5579 274.095 85.2889 274.039 85.0151C273.982 84.7319 273.888 84.4771 273.755 84.2505C273.633 84.0239 273.467 83.8398 273.26 83.6982C273.052 83.5472 272.792 83.4717 272.481 83.4717C272.103 83.4717 271.768 83.5755 271.476 83.7832C271.192 83.9814 270.947 84.2363 270.739 84.5479C270.532 84.8499 270.362 85.1803 270.229 85.5391C270.097 85.8978 269.998 86.2282 269.932 86.5303L274.124 86.1338V85.8223Z" fill="black"/>
<g filter="url(#filter0_d_3993_136)">
<rect x="192.045" y="212.677" width="198.33" height="20.2654" rx="10.1327" transform="rotate(-132.132 192.045 212.677)" fill="#2BBDB6"/>
</g>
<defs>
<filter id="filter0_d_3993_136" x="31.0758" y="54.0797" width="171.819" height="178.518" filterUnits="userSpaceOnUse" color-interpolation-filters="sRGB">
<feFlood flood-opacity="0" result="BackgroundImageFix"/>
<feColorMatrix in="SourceAlpha" type="matrix" values="0 0 0 0 0 0 0 0 0 0 0 0 0 0 0 0 0 0 127 0" result="hardAlpha"/>
<feOffset dx="-19" dy="11"/>
<feGaussianBlur stdDeviation="6.55"/>
<feComposite in2="hardAlpha" operator="out"/>
<feColorMatrix type="matrix" values="0 0 0 0 0 0 0 0 0 0 0 0 0 0 0 0 0 0 0.28 0"/>
<feBlend mode="normal" in2="BackgroundImageFix" result="effect1_dropShadow_3993_136"/>
<feBlend mode="normal" in="SourceGraphic" in2="effect1_dropShadow_3993_136" result="shape"/>
</filter>
</defs>
</svg>
