<svg width="313" height="233" viewBox="0 0 313 233" fill="none" xmlns="http://www.w3.org/2000/svg">
<path d="M9.65516 34.47C4.9679 17.7359 18.362 1.4426 35.6867 2.8037L286.675 22.5225C300.975 23.646 311.4 36.5457 309.496 50.7628L288.94 204.317C287.278 216.731 276.686 226 264.161 226H82.263C71.0528 226 61.2132 218.538 58.1895 207.743L9.65516 34.47Z" fill="white"/>
<path d="M209.794 66.1113C209.35 66.6683 208.803 67.1545 208.151 67.5698C207.5 67.9852 206.801 68.3298 206.056 68.6035C205.31 68.8773 204.545 69.0802 203.762 69.2124C202.978 69.354 202.232 69.4248 201.524 69.4248C200.156 69.4248 198.895 69.1794 197.744 68.6885C196.592 68.1976 195.596 67.5226 194.756 66.6636C193.925 65.7951 193.274 64.7756 192.802 63.605C192.33 62.4344 192.094 61.1742 192.094 59.8242C192.094 58.7952 192.212 57.7899 192.448 56.8081C192.684 55.8169 193.019 54.887 193.453 54.0186C193.897 53.1406 194.435 52.3382 195.067 51.6113C195.7 50.875 196.417 50.2425 197.22 49.7139C198.022 49.1852 198.9 48.7746 199.854 48.4819C200.807 48.1893 201.826 48.043 202.912 48.043C203.318 48.043 203.752 48.0618 204.215 48.0996C204.677 48.1279 205.135 48.1846 205.588 48.2695C206.051 48.3451 206.499 48.4536 206.934 48.5952C207.368 48.7368 207.764 48.9115 208.123 49.1191L207.727 54.5283C207.198 54.3301 206.65 54.1979 206.084 54.1318C205.527 54.0563 204.979 54.0186 204.441 54.0186C203.686 54.0186 202.978 54.1366 202.317 54.3726C201.666 54.5991 201.095 54.9295 200.604 55.3638C200.123 55.798 199.74 56.3267 199.457 56.9497C199.174 57.5728 199.032 58.276 199.032 59.0596C199.032 59.5505 199.098 60.0272 199.23 60.4897C199.363 60.9429 199.561 61.3488 199.825 61.7075C200.099 62.0568 200.434 62.34 200.831 62.5571C201.236 62.7743 201.704 62.8828 202.232 62.8828C202.591 62.8828 202.959 62.8356 203.337 62.7412C203.724 62.6468 204.054 62.4863 204.328 62.2598L204.385 61.1553L200.986 61.0986L201.156 56.8506C202.563 56.8034 203.969 56.7656 205.376 56.7373C206.783 56.6995 208.199 56.6523 209.624 56.5957L209.794 66.1113ZM227.48 55.3496C227.48 56.0859 227.414 56.7562 227.282 57.3604C227.159 57.9551 226.961 58.5026 226.687 59.0029C226.413 59.5033 226.059 59.9658 225.625 60.3906C225.191 60.8154 224.667 61.2214 224.053 61.6084L227.423 67.6123L221.051 68.8584L218.871 62.8262L217.115 62.8828L216.86 68.7734H210.771C210.818 66.6211 210.861 64.4782 210.898 62.3447C210.946 60.2113 210.998 58.0684 211.054 55.916C211.073 54.8304 211.092 53.7542 211.111 52.6875C211.13 51.6208 211.167 50.5446 211.224 49.459C211.885 49.2135 212.536 49.0106 213.178 48.8501C213.82 48.6896 214.462 48.5669 215.104 48.4819C215.755 48.3875 216.411 48.3262 217.072 48.2979C217.743 48.2601 218.427 48.2412 219.125 48.2412C220.202 48.2412 221.24 48.3923 222.241 48.6943C223.251 48.987 224.143 49.4307 224.917 50.0254C225.691 50.6201 226.309 51.3612 226.772 52.2485C227.244 53.1359 227.48 54.1696 227.48 55.3496ZM221.136 55.8027C221.136 55.4062 221.08 55.0428 220.966 54.7124C220.862 54.382 220.702 54.0988 220.485 53.8628C220.277 53.6174 220.013 53.4285 219.692 53.2964C219.38 53.1548 219.012 53.084 218.587 53.084C218.399 53.084 218.215 53.0981 218.035 53.1265C217.856 53.1453 217.681 53.1784 217.511 53.2256L217.285 58.4932H217.625C218.03 58.4932 218.441 58.4412 218.856 58.3374C219.281 58.2336 219.659 58.0731 219.989 57.856C220.329 57.6388 220.603 57.3604 220.811 57.0205C221.028 56.6807 221.136 56.2747 221.136 55.8027ZM244.132 57.5586C244.132 58.3799 244.076 59.2012 243.962 60.0225C242.348 60.1263 240.743 60.2962 239.148 60.5322C237.553 60.7588 235.957 60.9854 234.362 61.2119C234.607 61.8916 234.99 62.4344 235.509 62.8403C236.037 63.2463 236.665 63.4492 237.392 63.4492C237.77 63.4492 238.18 63.3784 238.624 63.2368C239.077 63.0952 239.526 62.9206 239.969 62.7129C240.413 62.4958 240.838 62.2645 241.244 62.019C241.65 61.7736 241.999 61.5518 242.292 61.3535L241.612 67.7822C241.244 68.0654 240.842 68.3062 240.408 68.5044C239.983 68.7026 239.54 68.8631 239.077 68.9858C238.615 69.1086 238.147 69.1982 237.675 69.2549C237.203 69.3115 236.741 69.3398 236.288 69.3398C235.353 69.3398 234.499 69.2124 233.725 68.9575C232.951 68.7026 232.247 68.3486 231.615 67.8955C230.992 67.4329 230.444 66.8901 229.972 66.2671C229.5 65.644 229.108 64.9644 228.797 64.228C228.485 63.4917 228.249 62.7129 228.089 61.8916C227.928 61.0703 227.848 60.2396 227.848 59.3994C227.848 58.5215 227.928 57.6436 228.089 56.7656C228.249 55.8877 228.49 55.0428 228.811 54.231C229.141 53.4191 229.552 52.6686 230.043 51.9795C230.543 51.2809 231.124 50.672 231.785 50.1528C232.445 49.6336 233.191 49.2277 234.022 48.9351C234.862 48.6424 235.787 48.4961 236.797 48.4961C237.638 48.4961 238.402 48.6141 239.091 48.8501C239.79 49.0767 240.408 49.3976 240.946 49.813C241.494 50.2189 241.966 50.7051 242.362 51.2715C242.768 51.8379 243.099 52.4609 243.354 53.1406C243.618 53.8109 243.811 54.5236 243.934 55.2788C244.066 56.0246 244.132 56.7845 244.132 57.5586ZM238.468 56.8223C238.468 56.5579 238.44 56.2889 238.383 56.0151C238.327 55.7319 238.232 55.4771 238.1 55.2505C237.977 55.0239 237.812 54.8398 237.604 54.6982C237.397 54.5472 237.137 54.4717 236.826 54.4717C236.448 54.4717 236.113 54.5755 235.82 54.7832C235.537 54.9814 235.292 55.2363 235.084 55.5479C234.876 55.8499 234.706 56.1803 234.574 56.5391C234.442 56.8978 234.343 57.2282 234.277 57.5303L238.468 57.1338V56.8223ZM260.87 57.5586C260.87 58.3799 260.813 59.2012 260.7 60.0225C259.085 60.1263 257.481 60.2962 255.885 60.5322C254.29 60.7588 252.694 60.9854 251.099 61.2119C251.345 61.8916 251.727 62.4344 252.246 62.8403C252.775 63.2463 253.403 63.4492 254.129 63.4492C254.507 63.4492 254.918 63.3784 255.361 63.2368C255.814 63.0952 256.263 62.9206 256.707 62.7129C257.15 62.4958 257.575 62.2645 257.981 62.019C258.387 61.7736 258.736 61.5518 259.029 61.3535L258.349 67.7822C257.981 68.0654 257.58 68.3062 257.146 68.5044C256.721 68.7026 256.277 68.8631 255.814 68.9858C255.352 69.1086 254.885 69.1982 254.413 69.2549C253.941 69.3115 253.478 69.3398 253.025 69.3398C252.09 69.3398 251.236 69.2124 250.462 68.9575C249.688 68.7026 248.985 68.3486 248.352 67.8955C247.729 67.4329 247.181 66.8901 246.709 66.2671C246.237 65.644 245.846 64.9644 245.534 64.228C245.223 63.4917 244.987 62.7129 244.826 61.8916C244.666 61.0703 244.585 60.2396 244.585 59.3994C244.585 58.5215 244.666 57.6436 244.826 56.7656C244.987 55.8877 245.227 55.0428 245.548 54.231C245.879 53.4191 246.289 52.6686 246.78 51.9795C247.281 51.2809 247.861 50.672 248.522 50.1528C249.183 49.6336 249.929 49.2277 250.759 48.9351C251.599 48.6424 252.525 48.4961 253.535 48.4961C254.375 48.4961 255.139 48.6141 255.829 48.8501C256.527 49.0767 257.146 49.3976 257.684 49.813C258.231 50.2189 258.703 50.7051 259.1 51.2715C259.506 51.8379 259.836 52.4609 260.091 53.1406C260.355 53.8109 260.549 54.5236 260.671 55.2788C260.804 56.0246 260.87 56.7845 260.87 57.5586ZM255.206 56.8223C255.206 56.5579 255.177 56.2889 255.121 56.0151C255.064 55.7319 254.97 55.4771 254.837 55.2505C254.715 55.0239 254.549 54.8398 254.342 54.6982C254.134 54.5472 253.875 54.4717 253.563 54.4717C253.185 54.4717 252.85 54.5755 252.558 54.7832C252.274 54.9814 252.029 55.2363 251.821 55.5479C251.614 55.8499 251.444 56.1803 251.312 56.5391C251.179 56.8978 251.08 57.2282 251.014 57.5303L255.206 57.1338V56.8223ZM279.377 61.835C279.377 62.9017 279.363 63.959 279.334 65.0068C279.316 66.0452 279.283 67.0931 279.235 68.1504L271.079 68.0088C271.362 66.3379 271.608 64.6717 271.815 63.0103C272.023 61.3394 272.127 59.6543 272.127 57.9551C272.127 57.8324 272.122 57.6341 272.113 57.3604C272.103 57.0866 272.084 56.7798 272.056 56.4399C272.028 56.0907 271.985 55.7367 271.929 55.3779C271.882 55.0098 271.811 54.6746 271.716 54.3726C271.631 54.0705 271.523 53.825 271.391 53.6362C271.268 53.438 271.117 53.3389 270.938 53.3389C270.617 53.3389 270.343 53.4333 270.116 53.6221C269.899 53.8109 269.715 54.0563 269.564 54.3584C269.422 54.651 269.309 54.9814 269.224 55.3496C269.139 55.7178 269.073 56.0859 269.026 56.4541C268.988 56.8223 268.96 57.1715 268.941 57.502C268.931 57.8229 268.927 58.0872 268.927 58.2949C268.88 59.9658 268.842 61.6273 268.813 63.2793C268.785 64.9219 268.747 66.5833 268.7 68.2637L261.479 68.5752C261.667 65.2428 261.847 61.9294 262.017 58.6348C262.196 55.3402 262.338 52.0267 262.441 48.6943L269.125 48.3545L269.068 50.6201C269.333 50.2992 269.616 49.9971 269.918 49.7139C270.229 49.4307 270.56 49.1899 270.909 48.9917C271.258 48.784 271.627 48.6235 272.014 48.5103C272.41 48.3875 272.826 48.3262 273.26 48.3262C274.062 48.3262 274.765 48.4583 275.37 48.7227C275.974 48.987 276.493 49.3457 276.927 49.7988C277.361 50.252 277.725 50.79 278.018 51.4131C278.31 52.0267 278.546 52.6828 278.726 53.3813C278.905 54.0799 279.042 54.8115 279.136 55.5762C279.231 56.3314 279.292 57.0771 279.32 57.8135C279.358 58.5498 279.377 59.2625 279.377 59.9517C279.377 60.6408 279.377 61.2686 279.377 61.835ZM199.599 84.3779C199.599 85.2936 199.462 86.1055 199.188 86.8135C198.914 87.5215 198.537 88.1398 198.055 88.6685C197.583 89.1971 197.026 89.6455 196.384 90.0137C195.742 90.3818 195.053 90.6839 194.317 90.9199C193.59 91.1465 192.835 91.3164 192.051 91.4297C191.268 91.5335 190.498 91.5902 189.743 91.5996V98.1982H183.145C183.145 96.0365 183.149 93.8841 183.159 91.7412C183.168 89.5983 183.182 87.4365 183.201 85.2559C183.22 84.1042 183.225 82.9525 183.215 81.8008C183.206 80.6491 183.229 79.488 183.286 78.3174C184.494 77.9587 185.703 77.6896 186.911 77.5103C188.119 77.3309 189.366 77.2412 190.649 77.2412C191.376 77.2412 192.103 77.3026 192.83 77.4253C193.557 77.5386 194.251 77.7227 194.912 77.9775C195.582 78.2324 196.2 78.5534 196.767 78.9404C197.342 79.318 197.838 79.7712 198.253 80.2998C198.669 80.8285 198.994 81.4326 199.23 82.1123C199.476 82.7826 199.599 83.5378 199.599 84.3779ZM193.312 84.8594C193.312 84.2458 193.123 83.769 192.745 83.4292C192.377 83.0799 191.896 82.9053 191.301 82.9053C191.103 82.9053 190.895 82.9242 190.678 82.9619C190.47 82.9902 190.272 83.028 190.083 83.0752L189.913 87.21C190.045 87.2288 190.173 87.2383 190.295 87.2383C190.418 87.2383 190.546 87.2383 190.678 87.2383C191.018 87.2383 191.343 87.1816 191.655 87.0684C191.976 86.9551 192.259 86.7946 192.504 86.5869C192.75 86.3698 192.943 86.1196 193.085 85.8364C193.236 85.5438 193.312 85.2181 193.312 84.8594ZM216.732 96.7822L209.709 97.6885L208.859 94.4883H205.631L204.923 97.6885L197.701 96.9805L203.337 78.1191L211.21 77.7227L216.732 96.7822ZM208.35 90.1553L207.273 85.2275L206.226 90.1553H208.35ZM233.073 86.7568C233.073 88.0785 232.903 89.2632 232.563 90.311C232.224 91.3589 231.747 92.2887 231.133 93.1006C230.529 93.903 229.807 94.5874 228.967 95.1538C228.127 95.7202 227.206 96.1875 226.206 96.5557C225.205 96.9144 224.138 97.1787 223.005 97.3486C221.882 97.5186 220.726 97.6035 219.536 97.6035C219.092 97.6035 218.658 97.5941 218.233 97.5752C217.809 97.5469 217.374 97.5091 216.931 97.4619L217.327 79.0254C218.366 78.695 219.432 78.4637 220.527 78.3315C221.632 78.1899 222.727 78.1191 223.812 78.1191C225.162 78.1191 226.404 78.3079 227.537 78.6855C228.669 79.0632 229.646 79.6201 230.468 80.3564C231.289 81.0833 231.926 81.9849 232.379 83.061C232.842 84.1278 233.073 85.3597 233.073 86.7568ZM223.444 92.1943C224.011 92.1094 224.525 91.9395 224.988 91.6846C225.46 91.4202 225.866 91.0993 226.206 90.7217C226.545 90.3346 226.805 89.9004 226.984 89.4189C227.173 88.9281 227.268 88.4089 227.268 87.8613C227.268 87.3232 227.211 86.8229 227.098 86.3604C226.984 85.8883 226.8 85.4824 226.545 85.1426C226.291 84.7933 225.955 84.5195 225.54 84.3213C225.125 84.1136 224.615 84.0003 224.011 83.9814L223.444 92.1943ZM250.009 86.7568C250.009 88.0785 249.839 89.2632 249.499 90.311C249.159 91.3589 248.682 92.2887 248.069 93.1006C247.465 93.903 246.743 94.5874 245.902 95.1538C245.062 95.7202 244.142 96.1875 243.141 96.5557C242.14 96.9144 241.074 97.1787 239.941 97.3486C238.818 97.5186 237.661 97.6035 236.472 97.6035C236.028 97.6035 235.594 97.5941 235.169 97.5752C234.744 97.5469 234.31 97.5091 233.866 97.4619L234.263 79.0254C235.301 78.695 236.368 78.4637 237.463 78.3315C238.567 78.1899 239.662 78.1191 240.748 78.1191C242.098 78.1191 243.339 78.3079 244.472 78.6855C245.605 79.0632 246.582 79.6201 247.403 80.3564C248.225 81.0833 248.862 81.9849 249.315 83.061C249.778 84.1278 250.009 85.3597 250.009 86.7568ZM240.38 92.1943C240.946 92.1094 241.461 91.9395 241.923 91.6846C242.395 91.4202 242.801 91.0993 243.141 90.7217C243.481 90.3346 243.741 89.9004 243.92 89.4189C244.109 88.9281 244.203 88.4089 244.203 87.8613C244.203 87.3232 244.146 86.8229 244.033 86.3604C243.92 85.8883 243.736 85.4824 243.481 85.1426C243.226 84.7933 242.891 84.5195 242.476 84.3213C242.06 84.1136 241.55 84.0003 240.946 83.9814L240.38 92.1943ZM263.319 90.4951L262.725 96.7822L250.802 97.7168L251.255 77.4961H258.618L257.57 90.4951H263.319ZM279.788 86.5586C279.788 87.3799 279.731 88.2012 279.618 89.0225C278.003 89.1263 276.399 89.2962 274.803 89.5322C273.208 89.7588 271.612 89.9854 270.017 90.2119C270.263 90.8916 270.645 91.4344 271.164 91.8403C271.693 92.2463 272.32 92.4492 273.047 92.4492C273.425 92.4492 273.836 92.3784 274.279 92.2368C274.732 92.0952 275.181 91.9206 275.625 91.7129C276.068 91.4958 276.493 91.2645 276.899 91.019C277.305 90.7736 277.654 90.5518 277.947 90.3535L277.267 96.7822C276.899 97.0654 276.498 97.3062 276.063 97.5044C275.639 97.7026 275.195 97.8631 274.732 97.9858C274.27 98.1086 273.803 98.1982 273.331 98.2549C272.859 98.3115 272.396 98.3398 271.943 98.3398C271.008 98.3398 270.154 98.2124 269.38 97.9575C268.606 97.7026 267.903 97.3486 267.27 96.8955C266.647 96.4329 266.099 95.8901 265.627 95.2671C265.155 94.644 264.764 93.9644 264.452 93.228C264.141 92.4917 263.905 91.7129 263.744 90.8916C263.584 90.0703 263.503 89.2396 263.503 88.3994C263.503 87.5215 263.584 86.6436 263.744 85.7656C263.905 84.8877 264.145 84.0428 264.466 83.231C264.797 82.4191 265.207 81.6686 265.698 80.9795C266.199 80.2809 266.779 79.672 267.44 79.1528C268.101 78.6336 268.847 78.2277 269.677 77.9351C270.517 77.6424 271.443 77.4961 272.453 77.4961C273.293 77.4961 274.057 77.6141 274.747 77.8501C275.445 78.0767 276.063 78.3976 276.602 78.813C277.149 79.2189 277.621 79.7051 278.018 80.2715C278.424 80.8379 278.754 81.4609 279.009 82.1406C279.273 82.8109 279.467 83.5236 279.589 84.2788C279.722 85.0246 279.788 85.7845 279.788 86.5586ZM274.124 85.8223C274.124 85.5579 274.095 85.2889 274.039 85.0151C273.982 84.7319 273.888 84.4771 273.755 84.2505C273.633 84.0239 273.467 83.8398 273.26 83.6982C273.052 83.5472 272.792 83.4717 272.481 83.4717C272.103 83.4717 271.768 83.5755 271.476 83.7832C271.192 83.9814 270.947 84.2363 270.739 84.5479C270.532 84.8499 270.362 85.1803 270.229 85.5391C270.097 85.8978 269.998 86.2282 269.932 86.5303L274.124 86.1338V85.8223Z" fill="black"/>
<g filter="url(#filter0_d_3993_131)">
<rect x="192.045" y="212.677" width="198.33" height="20.2654" rx="10.1327" transform="rotate(-132.132 192.045 212.677)" fill="#24BA26"/>
</g>
<defs>
<filter id="filter0_d_3993_131" x="31.0758" y="54.0797" width="171.819" height="178.518" filterUnits="userSpaceOnUse" color-interpolation-filters="sRGB">
<feFlood flood-opacity="0" result="BackgroundImageFix"/>
<feColorMatrix in="SourceAlpha" type="matrix" values="0 0 0 0 0 0 0 0 0 0 0 0 0 0 0 0 0 0 127 0" result="hardAlpha"/>
<feOffset dx="-19" dy="11"/>
<feGaussianBlur stdDeviation="6.55"/>
<feComposite in2="hardAlpha" operator="out"/>
<feColorMatrix type="matrix" values="0 0 0 0 0 0 0 0 0 0 0 0 0 0 0 0 0 0 0.28 0"/>
<feBlend mode="normal" in2="BackgroundImageFix" result="effect1_dropShadow_3993_131"/>
<feBlend mode="normal" in="SourceGraphic" in2="effect1_dropShadow_3993_131" result="shape"/>
</filter>
</defs>
</svg>
