<svg width="313" height="233" viewBox="0 0 313 233" fill="none" xmlns="http://www.w3.org/2000/svg">
<path d="M9.65516 34.47C4.9679 17.7359 18.362 1.4426 35.6867 2.8037L286.675 22.5225C300.975 23.646 311.4 36.5457 309.496 50.7628L288.94 204.317C287.278 216.731 276.686 226 264.161 226H82.263C71.0528 226 61.2132 218.538 58.1895 207.743L9.65516 34.47Z" fill="white"/>
<path d="M144.615 48.6943L143.595 67.8955L136.175 68.5752L132.21 58.2949L131.587 68.7734H125.215L125.725 48.6943L132.805 48.3545L137.705 58.5498L137.931 48.9209L144.615 48.6943ZM146.031 61.1836L145.974 56.9355L155.122 56.5107L155.178 61.3535L146.031 61.1836ZM173.36 63.959C173.36 64.7425 173.214 65.4175 172.921 65.9839C172.638 66.5503 172.255 67.0317 171.774 67.4282C171.292 67.8247 170.736 68.1504 170.103 68.4053C169.48 68.6507 168.829 68.8442 168.149 68.9858C167.469 69.1274 166.785 69.2218 166.096 69.269C165.416 69.3162 164.779 69.3398 164.184 69.3398C163.599 69.3398 162.99 69.3162 162.357 69.269C161.734 69.2313 161.111 69.1605 160.488 69.0566C159.865 68.9528 159.252 68.8159 158.647 68.646C158.043 68.4666 157.472 68.2448 156.934 67.9805L156.906 49.7422C157.434 49.5251 157.996 49.3315 158.591 49.1616C159.186 48.9823 159.79 48.8359 160.403 48.7227C161.026 48.5999 161.645 48.5103 162.258 48.4536C162.872 48.3875 163.467 48.3545 164.042 48.3545C164.713 48.3545 165.388 48.397 166.067 48.4819C166.757 48.5669 167.417 48.7085 168.05 48.9067C168.682 49.105 169.272 49.3646 169.82 49.6855C170.367 49.9971 170.844 50.3841 171.25 50.8467C171.665 51.3092 171.986 51.8473 172.213 52.4609C172.449 53.0745 172.567 53.7826 172.567 54.585C172.567 55.1136 172.491 55.6092 172.34 56.0718C172.189 56.5343 171.972 56.9497 171.689 57.3179C171.406 57.686 171.061 58.0023 170.655 58.2666C170.249 58.5215 169.792 58.7103 169.282 58.833C169.895 58.9935 170.452 59.2295 170.953 59.541C171.462 59.8525 171.892 60.2301 172.241 60.6738C172.6 61.1175 172.874 61.6178 173.062 62.1748C173.261 62.7318 173.36 63.3265 173.36 63.959ZM166.167 55.8877C166.167 55.6139 166.11 55.3826 165.997 55.1938C165.883 54.9956 165.742 54.8351 165.572 54.7124C165.411 54.5897 165.232 54.5 165.034 54.4434C164.845 54.3867 164.675 54.3584 164.524 54.3584C164.335 54.3584 164.151 54.3867 163.972 54.4434C163.792 54.5 163.618 54.5661 163.448 54.6416L163.363 57.7852C163.58 57.7852 163.849 57.7663 164.17 57.7285C164.491 57.6908 164.798 57.6105 165.09 57.4878C165.392 57.3556 165.647 57.1668 165.855 56.9214C166.063 56.6665 166.167 56.3219 166.167 55.8877ZM164.156 60.5039C163.882 60.5039 163.618 60.5322 163.363 60.5889L163.306 63.8174C163.448 63.8457 163.585 63.874 163.717 63.9023C163.858 63.9212 163.995 63.9307 164.127 63.9307C164.326 63.9307 164.543 63.9118 164.779 63.874C165.015 63.8268 165.237 63.7419 165.444 63.6191C165.652 63.487 165.822 63.3123 165.954 63.0952C166.096 62.8781 166.167 62.5902 166.167 62.2314C166.167 61.8727 166.096 61.5801 165.954 61.3535C165.822 61.127 165.657 60.9523 165.458 60.8296C165.26 60.6974 165.043 60.6125 164.807 60.5747C164.571 60.5275 164.354 60.5039 164.156 60.5039ZM186.543 61.4951L185.948 67.7822L174.025 68.7168L174.479 48.4961H181.842L180.794 61.4951H186.543ZM204.71 58.1533C204.71 59.0124 204.611 59.8431 204.413 60.6455C204.215 61.4385 203.927 62.1842 203.549 62.8828C203.181 63.5814 202.728 64.2233 202.19 64.8086C201.661 65.3844 201.062 65.88 200.392 66.2954C199.731 66.7108 199.009 67.0365 198.225 67.2725C197.442 67.499 196.611 67.6123 195.733 67.6123C194.883 67.6123 194.071 67.5037 193.297 67.2866C192.533 67.0695 191.815 66.7674 191.145 66.3804C190.475 65.9839 189.866 65.5119 189.318 64.9644C188.78 64.4074 188.318 63.7938 187.931 63.1235C187.553 62.4438 187.256 61.717 187.039 60.9429C186.831 60.1688 186.727 59.3617 186.727 58.5215C186.727 57.7002 186.826 56.8978 187.024 56.1143C187.223 55.3213 187.506 54.5755 187.874 53.877C188.252 53.1784 188.705 52.5365 189.233 51.9512C189.762 51.3659 190.352 50.8608 191.003 50.436C191.664 50.0112 192.377 49.6808 193.142 49.4448C193.906 49.2088 194.713 49.0908 195.563 49.0908C196.932 49.0908 198.178 49.3032 199.301 49.728C200.434 50.1528 201.397 50.7617 202.19 51.5547C202.992 52.3382 203.611 53.2917 204.045 54.415C204.489 55.529 204.71 56.7751 204.71 58.1533ZM198.423 58.5215C198.423 58.1156 198.362 57.7238 198.239 57.3462C198.126 56.9591 197.956 56.6193 197.729 56.3267C197.503 56.0246 197.22 55.7839 196.88 55.6045C196.549 55.4157 196.167 55.3213 195.733 55.3213C195.289 55.3213 194.893 55.4015 194.543 55.562C194.194 55.7225 193.892 55.9443 193.637 56.2275C193.392 56.5013 193.203 56.827 193.071 57.2046C192.939 57.5728 192.873 57.9645 192.873 58.3799C192.873 58.7764 192.929 59.1729 193.042 59.5693C193.156 59.9658 193.326 60.3245 193.552 60.6455C193.779 60.9665 194.057 61.2261 194.388 61.4243C194.728 61.6226 195.119 61.7217 195.563 61.7217C196.007 61.7217 196.403 61.6367 196.752 61.4668C197.111 61.2874 197.413 61.0514 197.659 60.7588C197.904 60.4567 198.093 60.1121 198.225 59.7251C198.357 59.3381 198.423 58.9368 198.423 58.5215ZM220.216 61.75C220.216 63.0433 219.989 64.1619 219.536 65.106C219.092 66.0405 218.479 66.8146 217.695 67.4282C216.921 68.0324 216.01 68.4808 214.962 68.7734C213.924 69.0566 212.805 69.1982 211.606 69.1982C211.144 69.1982 210.634 69.1369 210.077 69.0142C209.53 68.8914 208.973 68.7404 208.406 68.561C207.84 68.3722 207.292 68.174 206.764 67.9663C206.244 67.7492 205.782 67.5462 205.376 67.3574L205.999 61.8066C206.801 62.2881 207.689 62.6562 208.661 62.9111C209.643 63.1566 210.606 63.2793 211.55 63.2793C211.729 63.2793 211.946 63.2746 212.201 63.2651C212.456 63.2463 212.697 63.2038 212.923 63.1377C213.159 63.0622 213.358 62.9536 213.518 62.812C213.679 62.6704 213.759 62.4674 213.759 62.2031C213.759 62.0238 213.702 61.8727 213.589 61.75C213.476 61.6178 213.329 61.514 213.15 61.4385C212.971 61.3535 212.768 61.2922 212.541 61.2544C212.314 61.2072 212.093 61.1742 211.875 61.1553C211.658 61.1364 211.455 61.127 211.267 61.127C211.078 61.127 210.927 61.127 210.813 61.127C210.002 61.127 209.261 60.9995 208.59 60.7446C207.93 60.4897 207.358 60.131 206.877 59.6685C206.405 59.1965 206.037 58.63 205.772 57.9692C205.508 57.299 205.376 56.5579 205.376 55.7461C205.376 54.6322 205.598 53.6362 206.042 52.7583C206.495 51.8709 207.094 51.1204 207.84 50.5068C208.595 49.8838 209.459 49.4071 210.431 49.0767C211.403 48.7463 212.409 48.5811 213.447 48.5811C213.91 48.5811 214.387 48.5999 214.877 48.6377C215.368 48.666 215.854 48.7227 216.336 48.8076C216.827 48.8926 217.304 49.0011 217.766 49.1333C218.229 49.2655 218.668 49.4307 219.083 49.6289L218.545 55.3779C217.903 55.1608 217.228 54.9814 216.52 54.8398C215.821 54.6888 215.137 54.6133 214.467 54.6133C214.344 54.6133 214.184 54.618 213.985 54.6274C213.797 54.6274 213.594 54.6416 213.376 54.6699C213.169 54.6888 212.956 54.7218 212.739 54.769C212.522 54.8162 212.329 54.8823 212.159 54.9673C211.989 55.0428 211.852 55.1466 211.748 55.2788C211.644 55.411 211.597 55.5667 211.606 55.7461C211.616 55.9538 211.691 56.1143 211.833 56.2275C211.984 56.3408 212.173 56.4258 212.399 56.4824C212.635 56.5296 212.89 56.5532 213.164 56.5532C213.447 56.5532 213.726 56.5485 214 56.5391C214.273 56.5202 214.528 56.506 214.764 56.4966C215 56.4777 215.194 56.473 215.345 56.4824C216.1 56.5296 216.78 56.6901 217.384 56.9639C217.988 57.2376 218.498 57.6011 218.913 58.0542C219.338 58.5073 219.659 59.0501 219.876 59.6826C220.103 60.3057 220.216 60.9948 220.216 61.75ZM235.509 61.75C235.509 63.0433 235.282 64.1619 234.829 65.106C234.385 66.0405 233.772 66.8146 232.988 67.4282C232.214 68.0324 231.303 68.4808 230.255 68.7734C229.217 69.0566 228.098 69.1982 226.899 69.1982C226.437 69.1982 225.927 69.1369 225.37 69.0142C224.823 68.8914 224.266 68.7404 223.699 68.561C223.133 68.3722 222.585 68.174 222.057 67.9663C221.537 67.7492 221.075 67.5462 220.669 67.3574L221.292 61.8066C222.094 62.2881 222.982 62.6562 223.954 62.9111C224.936 63.1566 225.899 63.2793 226.843 63.2793C227.022 63.2793 227.239 63.2746 227.494 63.2651C227.749 63.2463 227.99 63.2038 228.216 63.1377C228.452 63.0622 228.651 62.9536 228.811 62.812C228.972 62.6704 229.052 62.4674 229.052 62.2031C229.052 62.0238 228.995 61.8727 228.882 61.75C228.769 61.6178 228.622 61.514 228.443 61.4385C228.264 61.3535 228.061 61.2922 227.834 61.2544C227.607 61.2072 227.386 61.1742 227.168 61.1553C226.951 61.1364 226.748 61.127 226.56 61.127C226.371 61.127 226.22 61.127 226.106 61.127C225.295 61.127 224.554 60.9995 223.883 60.7446C223.222 60.4897 222.651 60.131 222.17 59.6685C221.698 59.1965 221.33 58.63 221.065 57.9692C220.801 57.299 220.669 56.5579 220.669 55.7461C220.669 54.6322 220.891 53.6362 221.334 52.7583C221.788 51.8709 222.387 51.1204 223.133 50.5068C223.888 49.8838 224.752 49.4071 225.724 49.0767C226.696 48.7463 227.702 48.5811 228.74 48.5811C229.203 48.5811 229.68 48.5999 230.17 48.6377C230.661 48.666 231.147 48.7227 231.629 48.8076C232.12 48.8926 232.597 49.0011 233.059 49.1333C233.522 49.2655 233.961 49.4307 234.376 49.6289L233.838 55.3779C233.196 55.1608 232.521 54.9814 231.813 54.8398C231.114 54.6888 230.43 54.6133 229.76 54.6133C229.637 54.6133 229.477 54.618 229.278 54.6274C229.09 54.6274 228.887 54.6416 228.669 54.6699C228.462 54.6888 228.249 54.7218 228.032 54.769C227.815 54.8162 227.622 54.8823 227.452 54.9673C227.282 55.0428 227.145 55.1466 227.041 55.2788C226.937 55.411 226.89 55.5667 226.899 55.7461C226.909 55.9538 226.984 56.1143 227.126 56.2275C227.277 56.3408 227.466 56.4258 227.692 56.4824C227.928 56.5296 228.183 56.5532 228.457 56.5532C228.74 56.5532 229.019 56.5485 229.292 56.5391C229.566 56.5202 229.821 56.506 230.057 56.4966C230.293 56.4777 230.487 56.473 230.638 56.4824C231.393 56.5296 232.073 56.6901 232.677 56.9639C233.281 57.2376 233.791 57.6011 234.206 58.0542C234.631 58.5073 234.952 59.0501 235.169 59.6826C235.396 60.3057 235.509 60.9948 235.509 61.75ZM253.931 58.1533C253.931 59.0124 253.832 59.8431 253.634 60.6455C253.436 61.4385 253.148 62.1842 252.77 62.8828C252.402 63.5814 251.949 64.2233 251.411 64.8086C250.882 65.3844 250.283 65.88 249.612 66.2954C248.951 66.7108 248.229 67.0365 247.446 67.2725C246.662 67.499 245.832 67.6123 244.954 67.6123C244.104 67.6123 243.292 67.5037 242.518 67.2866C241.753 67.0695 241.036 66.7674 240.366 66.3804C239.695 65.9839 239.087 65.5119 238.539 64.9644C238.001 64.4074 237.538 63.7938 237.151 63.1235C236.774 62.4438 236.476 61.717 236.259 60.9429C236.052 60.1688 235.948 59.3617 235.948 58.5215C235.948 57.7002 236.047 56.8978 236.245 56.1143C236.443 55.3213 236.727 54.5755 237.095 53.877C237.472 53.1784 237.925 52.5365 238.454 51.9512C238.983 51.3659 239.573 50.8608 240.224 50.436C240.885 50.0112 241.598 49.6808 242.362 49.4448C243.127 49.2088 243.934 49.0908 244.784 49.0908C246.153 49.0908 247.399 49.3032 248.522 49.728C249.655 50.1528 250.618 50.7617 251.411 51.5547C252.213 52.3382 252.831 53.2917 253.266 54.415C253.709 55.529 253.931 56.7751 253.931 58.1533ZM247.644 58.5215C247.644 58.1156 247.583 57.7238 247.46 57.3462C247.347 56.9591 247.177 56.6193 246.95 56.3267C246.724 56.0246 246.44 55.7839 246.101 55.6045C245.77 55.4157 245.388 55.3213 244.954 55.3213C244.51 55.3213 244.113 55.4015 243.764 55.562C243.415 55.7225 243.113 55.9443 242.858 56.2275C242.612 56.5013 242.424 56.827 242.292 57.2046C242.159 57.5728 242.093 57.9645 242.093 58.3799C242.093 58.7764 242.15 59.1729 242.263 59.5693C242.376 59.9658 242.546 60.3245 242.773 60.6455C243 60.9665 243.278 61.2261 243.608 61.4243C243.948 61.6226 244.34 61.7217 244.784 61.7217C245.227 61.7217 245.624 61.6367 245.973 61.4668C246.332 61.2874 246.634 61.0514 246.879 60.7588C247.125 60.4567 247.314 60.1121 247.446 59.7251C247.578 59.3381 247.644 58.9368 247.644 58.5215ZM279.419 59.3994C279.419 60.7493 279.377 62.0946 279.292 63.4351C279.207 64.7756 279.108 66.1208 278.995 67.4707L271.716 67.8105C271.933 66.168 272.127 64.5254 272.297 62.8828C272.476 61.2308 272.566 59.5788 272.566 57.9268C272.566 57.8229 272.561 57.6436 272.552 57.3887C272.542 57.1243 272.523 56.827 272.495 56.4966C272.476 56.1662 272.443 55.8263 272.396 55.4771C272.358 55.1183 272.302 54.7926 272.226 54.5C272.16 54.1979 272.075 53.9525 271.971 53.7637C271.867 53.5749 271.745 53.4805 271.603 53.4805C271.273 53.4805 271.013 53.6079 270.824 53.8628C270.635 54.1082 270.494 54.4056 270.399 54.7549C270.314 55.1042 270.263 55.4629 270.244 55.8311C270.225 56.1898 270.215 56.4824 270.215 56.709C270.215 57.1055 270.225 57.502 270.244 57.8984C270.263 58.2949 270.272 58.7008 270.272 59.1162C270.272 60.5794 270.234 62.0379 270.159 63.4917C270.093 64.9455 270.008 66.404 269.904 67.8672L263.192 68.1221C263.409 66.4795 263.598 64.8416 263.758 63.2085C263.928 61.5659 264.013 59.9186 264.013 58.2666C264.013 58.1628 264.008 57.974 263.999 57.7002C263.99 57.4264 263.971 57.1196 263.942 56.7798C263.924 56.4399 263.89 56.0859 263.843 55.7178C263.796 55.3496 263.735 55.0145 263.659 54.7124C263.593 54.4009 263.508 54.146 263.404 53.9478C263.3 53.7495 263.173 53.6504 263.022 53.6504C262.786 53.6504 262.588 53.7448 262.427 53.9336C262.267 54.113 262.135 54.349 262.031 54.6416C261.936 54.9342 261.861 55.2599 261.804 55.6187C261.757 55.9679 261.719 56.3125 261.691 56.6523C261.672 56.9922 261.658 57.3084 261.648 57.6011C261.648 57.8843 261.644 58.0967 261.634 58.2383L261.323 68.5752H254.186C254.337 66.9798 254.488 65.3797 254.639 63.7749C254.8 62.1701 254.937 60.57 255.05 58.9746C255.173 57.3698 255.272 55.765 255.347 54.1602C255.423 52.5553 255.46 50.9505 255.46 49.3457L262.201 49.0625L262.172 50.7051C262.38 50.4408 262.616 50.1764 262.88 49.9121C263.145 49.6383 263.423 49.3976 263.716 49.1899C264.018 48.9728 264.334 48.7982 264.665 48.666C265.004 48.5339 265.354 48.4678 265.712 48.4678C266.175 48.4678 266.59 48.5055 266.958 48.5811C267.327 48.6471 267.657 48.7651 267.95 48.9351C268.252 49.105 268.516 49.341 268.743 49.6431C268.969 49.9357 269.167 50.3086 269.337 50.7617C269.639 50.4313 269.942 50.1245 270.244 49.8413C270.555 49.5581 270.881 49.3174 271.221 49.1191C271.561 48.9115 271.929 48.751 272.325 48.6377C272.722 48.5244 273.161 48.4678 273.642 48.4678C274.558 48.4678 275.337 48.6471 275.979 49.0059C276.62 49.3551 277.154 49.8224 277.579 50.4077C278.013 50.993 278.348 51.6632 278.584 52.4185C278.829 53.1737 279.014 53.9572 279.136 54.769C279.259 55.5809 279.334 56.388 279.363 57.1904C279.401 57.9928 279.419 58.7292 279.419 59.3994ZM199.599 84.3779C199.599 85.2936 199.462 86.1055 199.188 86.8135C198.914 87.5215 198.537 88.1398 198.055 88.6685C197.583 89.1971 197.026 89.6455 196.384 90.0137C195.742 90.3818 195.053 90.6839 194.317 90.9199C193.59 91.1465 192.835 91.3164 192.051 91.4297C191.268 91.5335 190.498 91.5902 189.743 91.5996V98.1982H183.145C183.145 96.0365 183.149 93.8841 183.159 91.7412C183.168 89.5983 183.182 87.4365 183.201 85.2559C183.22 84.1042 183.225 82.9525 183.215 81.8008C183.206 80.6491 183.229 79.488 183.286 78.3174C184.494 77.9587 185.703 77.6896 186.911 77.5103C188.119 77.3309 189.366 77.2412 190.649 77.2412C191.376 77.2412 192.103 77.3026 192.83 77.4253C193.557 77.5386 194.251 77.7227 194.912 77.9775C195.582 78.2324 196.2 78.5534 196.767 78.9404C197.342 79.318 197.838 79.7712 198.253 80.2998C198.669 80.8285 198.994 81.4326 199.23 82.1123C199.476 82.7826 199.599 83.5378 199.599 84.3779ZM193.312 84.8594C193.312 84.2458 193.123 83.769 192.745 83.4292C192.377 83.0799 191.896 82.9053 191.301 82.9053C191.103 82.9053 190.895 82.9242 190.678 82.9619C190.47 82.9902 190.272 83.028 190.083 83.0752L189.913 87.21C190.045 87.2288 190.173 87.2383 190.295 87.2383C190.418 87.2383 190.546 87.2383 190.678 87.2383C191.018 87.2383 191.343 87.1816 191.655 87.0684C191.976 86.9551 192.259 86.7946 192.504 86.5869C192.75 86.3698 192.943 86.1196 193.085 85.8364C193.236 85.5438 193.312 85.2181 193.312 84.8594ZM216.732 96.7822L209.709 97.6885L208.859 94.4883H205.631L204.923 97.6885L197.701 96.9805L203.337 78.1191L211.21 77.7227L216.732 96.7822ZM208.35 90.1553L207.273 85.2275L206.226 90.1553H208.35ZM233.073 86.7568C233.073 88.0785 232.903 89.2632 232.563 90.311C232.224 91.3589 231.747 92.2887 231.133 93.1006C230.529 93.903 229.807 94.5874 228.967 95.1538C228.127 95.7202 227.206 96.1875 226.206 96.5557C225.205 96.9144 224.138 97.1787 223.005 97.3486C221.882 97.5186 220.726 97.6035 219.536 97.6035C219.092 97.6035 218.658 97.5941 218.233 97.5752C217.809 97.5469 217.374 97.5091 216.931 97.4619L217.327 79.0254C218.366 78.695 219.432 78.4637 220.527 78.3315C221.632 78.1899 222.727 78.1191 223.812 78.1191C225.162 78.1191 226.404 78.3079 227.537 78.6855C228.669 79.0632 229.646 79.6201 230.468 80.3564C231.289 81.0833 231.926 81.9849 232.379 83.061C232.842 84.1278 233.073 85.3597 233.073 86.7568ZM223.444 92.1943C224.011 92.1094 224.525 91.9395 224.988 91.6846C225.46 91.4202 225.866 91.0993 226.206 90.7217C226.545 90.3346 226.805 89.9004 226.984 89.4189C227.173 88.9281 227.268 88.4089 227.268 87.8613C227.268 87.3232 227.211 86.8229 227.098 86.3604C226.984 85.8883 226.8 85.4824 226.545 85.1426C226.291 84.7933 225.955 84.5195 225.54 84.3213C225.125 84.1136 224.615 84.0003 224.011 83.9814L223.444 92.1943ZM250.009 86.7568C250.009 88.0785 249.839 89.2632 249.499 90.311C249.159 91.3589 248.682 92.2887 248.069 93.1006C247.465 93.903 246.743 94.5874 245.902 95.1538C245.062 95.7202 244.142 96.1875 243.141 96.5557C242.14 96.9144 241.074 97.1787 239.941 97.3486C238.818 97.5186 237.661 97.6035 236.472 97.6035C236.028 97.6035 235.594 97.5941 235.169 97.5752C234.744 97.5469 234.31 97.5091 233.866 97.4619L234.263 79.0254C235.301 78.695 236.368 78.4637 237.463 78.3315C238.567 78.1899 239.662 78.1191 240.748 78.1191C242.098 78.1191 243.339 78.3079 244.472 78.6855C245.605 79.0632 246.582 79.6201 247.403 80.3564C248.225 81.0833 248.862 81.9849 249.315 83.061C249.778 84.1278 250.009 85.3597 250.009 86.7568ZM240.38 92.1943C240.946 92.1094 241.461 91.9395 241.923 91.6846C242.395 91.4202 242.801 91.0993 243.141 90.7217C243.481 90.3346 243.741 89.9004 243.92 89.4189C244.109 88.9281 244.203 88.4089 244.203 87.8613C244.203 87.3232 244.146 86.8229 244.033 86.3604C243.92 85.8883 243.736 85.4824 243.481 85.1426C243.226 84.7933 242.891 84.5195 242.476 84.3213C242.06 84.1136 241.55 84.0003 240.946 83.9814L240.38 92.1943ZM263.319 90.4951L262.725 96.7822L250.802 97.7168L251.255 77.4961H258.618L257.57 90.4951H263.319ZM279.788 86.5586C279.788 87.3799 279.731 88.2012 279.618 89.0225C278.003 89.1263 276.399 89.2962 274.803 89.5322C273.208 89.7588 271.612 89.9854 270.017 90.2119C270.263 90.8916 270.645 91.4344 271.164 91.8403C271.693 92.2463 272.32 92.4492 273.047 92.4492C273.425 92.4492 273.836 92.3784 274.279 92.2368C274.732 92.0952 275.181 91.9206 275.625 91.7129C276.068 91.4958 276.493 91.2645 276.899 91.019C277.305 90.7736 277.654 90.5518 277.947 90.3535L277.267 96.7822C276.899 97.0654 276.498 97.3062 276.063 97.5044C275.639 97.7026 275.195 97.8631 274.732 97.9858C274.27 98.1086 273.803 98.1982 273.331 98.2549C272.859 98.3115 272.396 98.3398 271.943 98.3398C271.008 98.3398 270.154 98.2124 269.38 97.9575C268.606 97.7026 267.903 97.3486 267.27 96.8955C266.647 96.4329 266.099 95.8901 265.627 95.2671C265.155 94.644 264.764 93.9644 264.452 93.228C264.141 92.4917 263.905 91.7129 263.744 90.8916C263.584 90.0703 263.503 89.2396 263.503 88.3994C263.503 87.5215 263.584 86.6436 263.744 85.7656C263.905 84.8877 264.145 84.0428 264.466 83.231C264.797 82.4191 265.207 81.6686 265.698 80.9795C266.199 80.2809 266.779 79.672 267.44 79.1528C268.101 78.6336 268.847 78.2277 269.677 77.9351C270.517 77.6424 271.443 77.4961 272.453 77.4961C273.293 77.4961 274.057 77.6141 274.747 77.8501C275.445 78.0767 276.063 78.3976 276.602 78.813C277.149 79.2189 277.621 79.7051 278.018 80.2715C278.424 80.8379 278.754 81.4609 279.009 82.1406C279.273 82.8109 279.467 83.5236 279.589 84.2788C279.722 85.0246 279.788 85.7845 279.788 86.5586ZM274.124 85.8223C274.124 85.5579 274.095 85.2889 274.039 85.0151C273.982 84.7319 273.888 84.4771 273.755 84.2505C273.633 84.0239 273.467 83.8398 273.26 83.6982C273.052 83.5472 272.792 83.4717 272.481 83.4717C272.103 83.4717 271.768 83.5755 271.476 83.7832C271.192 83.9814 270.947 84.2363 270.739 84.5479C270.532 84.8499 270.362 85.1803 270.229 85.5391C270.097 85.8978 269.998 86.2282 269.932 86.5303L274.124 86.1338V85.8223Z" fill="black"/>
<g filter="url(#filter0_d_3993_96)">
<rect x="192.045" y="212.677" width="198.33" height="20.2654" rx="10.1327" transform="rotate(-132.132 192.045 212.677)" fill="#FB2F98"/>
</g>
<defs>
<filter id="filter0_d_3993_96" x="31.0758" y="54.0797" width="171.819" height="178.518" filterUnits="userSpaceOnUse" color-interpolation-filters="sRGB">
<feFlood flood-opacity="0" result="BackgroundImageFix"/>
<feColorMatrix in="SourceAlpha" type="matrix" values="0 0 0 0 0 0 0 0 0 0 0 0 0 0 0 0 0 0 127 0" result="hardAlpha"/>
<feOffset dx="-19" dy="11"/>
<feGaussianBlur stdDeviation="6.55"/>
<feComposite in2="hardAlpha" operator="out"/>
<feColorMatrix type="matrix" values="0 0 0 0 0 0 0 0 0 0 0 0 0 0 0 0 0 0 0.28 0"/>
<feBlend mode="normal" in2="BackgroundImageFix" result="effect1_dropShadow_3993_96"/>
<feBlend mode="normal" in="SourceGraphic" in2="effect1_dropShadow_3993_96" result="shape"/>
</filter>
</defs>
</svg>
