<svg width="313" height="233" viewBox="0 0 313 233" fill="none" xmlns="http://www.w3.org/2000/svg">
<path d="M9.65516 34.47C4.9679 17.7359 18.362 1.4426 35.6867 2.8037L286.676 22.5225C300.975 23.646 311.4 36.5457 309.496 50.7628L288.94 204.317C287.278 216.731 276.686 226 264.161 226H82.263C71.0528 226 61.2132 218.538 58.1895 207.743L9.65516 34.47Z" fill="white"/>
<path d="M210.587 49.1475L205.404 68.8584L198.381 69.2549L192.009 49.3457L198.721 48.7227L201.439 60.334L204.073 48.7227L210.587 49.1475ZM218.701 49.0625L217.143 68.3486L211.167 68.6602V49.459L218.701 49.0625ZM236.967 59.0029C236.967 59.862 236.868 60.6927 236.67 61.4951C236.472 62.2881 236.184 63.0339 235.806 63.7324C235.438 64.431 234.985 65.0729 234.447 65.6582C233.918 66.234 233.319 66.7297 232.648 67.145C231.988 67.5604 231.265 67.8861 230.482 68.1221C229.698 68.3486 228.868 68.4619 227.99 68.4619C227.14 68.4619 226.328 68.3534 225.554 68.1362C224.79 67.9191 224.072 67.617 223.402 67.23C222.732 66.8335 222.123 66.3615 221.575 65.814C221.037 65.257 220.575 64.6434 220.188 63.9731C219.81 63.2935 219.513 62.5666 219.295 61.7925C219.088 61.0184 218.984 60.2113 218.984 59.3711C218.984 58.5498 219.083 57.7474 219.281 56.9639C219.479 56.1709 219.763 55.4251 220.131 54.7266C220.508 54.028 220.962 53.3861 221.49 52.8008C222.019 52.2155 222.609 51.7104 223.26 51.2856C223.921 50.8608 224.634 50.5304 225.398 50.2944C226.163 50.0584 226.97 49.9404 227.82 49.9404C229.189 49.9404 230.435 50.1528 231.558 50.5776C232.691 51.0024 233.654 51.6113 234.447 52.4043C235.249 53.1878 235.868 54.1413 236.302 55.2646C236.745 56.3786 236.967 57.6247 236.967 59.0029ZM230.68 59.3711C230.68 58.9652 230.619 58.5734 230.496 58.1958C230.383 57.8088 230.213 57.4689 229.986 57.1763C229.76 56.8742 229.477 56.6335 229.137 56.4541C228.806 56.2653 228.424 56.1709 227.99 56.1709C227.546 56.1709 227.15 56.2511 226.8 56.4116C226.451 56.5721 226.149 56.7939 225.894 57.0771C225.649 57.3509 225.46 57.6766 225.328 58.0542C225.195 58.4224 225.129 58.8141 225.129 59.2295C225.129 59.626 225.186 60.0225 225.299 60.4189C225.413 60.8154 225.583 61.1742 225.809 61.4951C226.036 61.8161 226.314 62.0757 226.645 62.2739C226.984 62.4722 227.376 62.5713 227.82 62.5713C228.264 62.5713 228.66 62.4863 229.009 62.3164C229.368 62.137 229.67 61.901 229.916 61.6084C230.161 61.3063 230.35 60.9618 230.482 60.5747C230.614 60.1877 230.68 59.7865 230.68 59.3711ZM250.405 60.9287L249.811 67.2158L237.888 68.1504C237.944 64.8558 238.006 61.5801 238.072 58.3232C238.147 55.0664 238.237 51.7907 238.341 48.4961H245.704C245.487 50.5635 245.279 52.6309 245.081 54.6982C244.883 56.7562 244.741 58.833 244.656 60.9287C245.1 60.9476 245.539 60.957 245.973 60.957C246.407 60.957 246.846 60.957 247.29 60.957C247.819 60.957 248.338 60.9523 248.848 60.9429C249.357 60.9334 249.877 60.9287 250.405 60.9287ZM264.48 48.5811C264.424 49.4684 264.372 50.3464 264.325 51.2148C264.278 52.0833 264.216 52.9613 264.141 53.8486L258.137 54.1602L257.995 55.9443H262.215L261.903 60.334L257.655 60.4756L257.514 62.543H261.025H263.518C263.461 63.5814 263.4 64.6151 263.333 65.644C263.277 66.6636 263.225 67.6878 263.178 68.7168L250.972 69L251.425 48.5811H264.48ZM279.943 48.751L279.802 54.7549L275.582 54.9248L274.506 68.3486L268.53 68.6602L268.559 55.2363L264.339 55.4629L264.509 48.7793L279.943 48.751ZM199.599 84.3779C199.599 85.2936 199.462 86.1055 199.188 86.8135C198.914 87.5215 198.537 88.1398 198.055 88.6685C197.583 89.1971 197.026 89.6455 196.384 90.0137C195.742 90.3818 195.053 90.6839 194.317 90.9199C193.59 91.1465 192.835 91.3164 192.051 91.4297C191.268 91.5335 190.498 91.5902 189.743 91.5996V98.1982H183.145C183.145 96.0365 183.149 93.8841 183.159 91.7412C183.168 89.5983 183.182 87.4365 183.201 85.2559C183.22 84.1042 183.225 82.9525 183.215 81.8008C183.206 80.6491 183.229 79.488 183.286 78.3174C184.494 77.9587 185.703 77.6896 186.911 77.5103C188.119 77.3309 189.366 77.2412 190.649 77.2412C191.376 77.2412 192.103 77.3026 192.83 77.4253C193.557 77.5386 194.251 77.7227 194.912 77.9775C195.582 78.2324 196.2 78.5534 196.767 78.9404C197.342 79.318 197.838 79.7712 198.253 80.2998C198.669 80.8285 198.994 81.4326 199.23 82.1123C199.476 82.7826 199.599 83.5378 199.599 84.3779ZM193.312 84.8594C193.312 84.2458 193.123 83.769 192.745 83.4292C192.377 83.0799 191.896 82.9053 191.301 82.9053C191.103 82.9053 190.895 82.9242 190.678 82.9619C190.47 82.9902 190.272 83.028 190.083 83.0752L189.913 87.21C190.045 87.2288 190.173 87.2383 190.295 87.2383C190.418 87.2383 190.546 87.2383 190.678 87.2383C191.018 87.2383 191.343 87.1816 191.655 87.0684C191.976 86.9551 192.259 86.7946 192.504 86.5869C192.75 86.3698 192.943 86.1196 193.085 85.8364C193.236 85.5438 193.312 85.2181 193.312 84.8594ZM216.732 96.7822L209.709 97.6885L208.859 94.4883H205.631L204.923 97.6885L197.701 96.9805L203.337 78.1191L211.21 77.7227L216.732 96.7822ZM208.35 90.1553L207.273 85.2275L206.226 90.1553H208.35ZM233.073 86.7568C233.073 88.0785 232.903 89.2632 232.563 90.311C232.224 91.3589 231.747 92.2887 231.133 93.1006C230.529 93.903 229.807 94.5874 228.967 95.1538C228.127 95.7202 227.206 96.1875 226.206 96.5557C225.205 96.9144 224.138 97.1787 223.005 97.3486C221.882 97.5186 220.726 97.6035 219.536 97.6035C219.092 97.6035 218.658 97.5941 218.233 97.5752C217.809 97.5469 217.374 97.5091 216.931 97.4619L217.327 79.0254C218.366 78.695 219.432 78.4637 220.527 78.3315C221.632 78.1899 222.727 78.1191 223.812 78.1191C225.162 78.1191 226.404 78.3079 227.537 78.6855C228.669 79.0632 229.646 79.6201 230.468 80.3564C231.289 81.0833 231.926 81.9849 232.379 83.061C232.842 84.1278 233.073 85.3597 233.073 86.7568ZM223.444 92.1943C224.011 92.1094 224.525 91.9395 224.988 91.6846C225.46 91.4202 225.866 91.0993 226.206 90.7217C226.545 90.3346 226.805 89.9004 226.984 89.4189C227.173 88.9281 227.268 88.4089 227.268 87.8613C227.268 87.3232 227.211 86.8229 227.098 86.3604C226.984 85.8883 226.8 85.4824 226.545 85.1426C226.291 84.7933 225.955 84.5195 225.54 84.3213C225.125 84.1136 224.615 84.0003 224.011 83.9814L223.444 92.1943ZM250.009 86.7568C250.009 88.0785 249.839 89.2632 249.499 90.311C249.159 91.3589 248.682 92.2887 248.069 93.1006C247.465 93.903 246.743 94.5874 245.902 95.1538C245.062 95.7202 244.142 96.1875 243.141 96.5557C242.14 96.9144 241.074 97.1787 239.941 97.3486C238.818 97.5186 237.661 97.6035 236.472 97.6035C236.028 97.6035 235.594 97.5941 235.169 97.5752C234.744 97.5469 234.31 97.5091 233.866 97.4619L234.263 79.0254C235.301 78.695 236.368 78.4637 237.463 78.3315C238.567 78.1899 239.662 78.1191 240.748 78.1191C242.098 78.1191 243.339 78.3079 244.472 78.6855C245.605 79.0632 246.582 79.6201 247.403 80.3564C248.225 81.0833 248.862 81.9849 249.315 83.061C249.778 84.1278 250.009 85.3597 250.009 86.7568ZM240.38 92.1943C240.946 92.1094 241.461 91.9395 241.923 91.6846C242.395 91.4202 242.801 91.0993 243.141 90.7217C243.481 90.3346 243.741 89.9004 243.92 89.4189C244.109 88.9281 244.203 88.4089 244.203 87.8613C244.203 87.3232 244.146 86.8229 244.033 86.3604C243.92 85.8883 243.736 85.4824 243.481 85.1426C243.226 84.7933 242.891 84.5195 242.476 84.3213C242.06 84.1136 241.55 84.0003 240.946 83.9814L240.38 92.1943ZM263.319 90.4951L262.725 96.7822L250.802 97.7168L251.255 77.4961H258.618L257.57 90.4951H263.319ZM279.788 86.5586C279.788 87.3799 279.731 88.2012 279.618 89.0225C278.003 89.1263 276.399 89.2962 274.803 89.5322C273.208 89.7588 271.612 89.9854 270.017 90.2119C270.263 90.8916 270.645 91.4344 271.164 91.8403C271.693 92.2463 272.32 92.4492 273.047 92.4492C273.425 92.4492 273.836 92.3784 274.279 92.2368C274.732 92.0952 275.181 91.9206 275.625 91.7129C276.068 91.4958 276.493 91.2645 276.899 91.019C277.305 90.7736 277.654 90.5518 277.947 90.3535L277.267 96.7822C276.899 97.0654 276.498 97.3062 276.063 97.5044C275.639 97.7026 275.195 97.8631 274.732 97.9858C274.27 98.1086 273.803 98.1982 273.331 98.2549C272.859 98.3115 272.396 98.3398 271.943 98.3398C271.008 98.3398 270.154 98.2124 269.38 97.9575C268.606 97.7026 267.903 97.3486 267.27 96.8955C266.647 96.4329 266.099 95.8901 265.627 95.2671C265.155 94.644 264.764 93.9644 264.452 93.228C264.141 92.4917 263.905 91.7129 263.744 90.8916C263.584 90.0703 263.503 89.2396 263.503 88.3994C263.503 87.5215 263.584 86.6436 263.744 85.7656C263.905 84.8877 264.145 84.0428 264.466 83.231C264.797 82.4191 265.207 81.6686 265.698 80.9795C266.199 80.2809 266.779 79.672 267.44 79.1528C268.101 78.6336 268.847 78.2277 269.677 77.9351C270.517 77.6424 271.443 77.4961 272.453 77.4961C273.293 77.4961 274.057 77.6141 274.747 77.8501C275.445 78.0767 276.063 78.3976 276.602 78.813C277.149 79.2189 277.621 79.7051 278.018 80.2715C278.424 80.8379 278.754 81.4609 279.009 82.1406C279.273 82.8109 279.467 83.5236 279.589 84.2788C279.722 85.0246 279.788 85.7845 279.788 86.5586ZM274.124 85.8223C274.124 85.5579 274.095 85.2889 274.039 85.0151C273.982 84.7319 273.888 84.4771 273.755 84.2505C273.633 84.0239 273.467 83.8398 273.26 83.6982C273.052 83.5472 272.792 83.4717 272.481 83.4717C272.103 83.4717 271.768 83.5755 271.476 83.7832C271.192 83.9814 270.947 84.2363 270.739 84.5479C270.532 84.8499 270.362 85.1803 270.229 85.5391C270.097 85.8978 269.998 86.2282 269.932 86.5303L274.124 86.1338V85.8223Z" fill="black"/>
<g filter="url(#filter0_d_3582_119)">
<rect x="192.045" y="212.677" width="198.33" height="20.2654" rx="10.1327" transform="rotate(-132.132 192.045 212.677)" fill="#7F00FF"/>
</g>
<defs>
<filter id="filter0_d_3582_119" x="31.0758" y="54.0797" width="171.819" height="178.518" filterUnits="userSpaceOnUse" color-interpolation-filters="sRGB">
<feFlood flood-opacity="0" result="BackgroundImageFix"/>
<feColorMatrix in="SourceAlpha" type="matrix" values="0 0 0 0 0 0 0 0 0 0 0 0 0 0 0 0 0 0 127 0" result="hardAlpha"/>
<feOffset dx="-19" dy="11"/>
<feGaussianBlur stdDeviation="6.55"/>
<feComposite in2="hardAlpha" operator="out"/>
<feColorMatrix type="matrix" values="0 0 0 0 0 0 0 0 0 0 0 0 0 0 0 0 0 0 0.28 0"/>
<feBlend mode="normal" in2="BackgroundImageFix" result="effect1_dropShadow_3582_119"/>
<feBlend mode="normal" in="SourceGraphic" in2="effect1_dropShadow_3582_119" result="shape"/>
</filter>
</defs>
</svg>
