<svg width="332" height="385" viewBox="0 0 332 385" fill="none" xmlns="http://www.w3.org/2000/svg">
<rect width="332" height="385" rx="24" fill="#300488"/>
<path d="M103.33 41.4526C103.33 41.0923 103.457 40.7847 103.712 40.5298C103.976 40.2661 104.288 40.1343 104.648 40.1343H104.661L117.832 40.0552H117.858C118.218 40.0552 118.526 40.187 118.781 40.4507C119.044 40.7056 119.176 41.0132 119.176 41.3735C119.176 41.7339 119.044 42.0459 118.781 42.3096C118.526 42.5645 118.218 42.6919 117.858 42.6919H117.845L112.598 42.7183L112.532 57.853V57.8662C112.532 58.2178 112.4 58.521 112.136 58.7759C111.881 59.0308 111.574 59.1582 111.213 59.1582C110.853 59.1582 110.541 59.0308 110.277 58.7759C110.022 58.521 109.895 58.2178 109.895 57.8662V57.8398L109.961 42.7314L104.661 42.771H104.648C104.288 42.771 103.976 42.6436 103.712 42.3887C103.457 42.125 103.33 41.813 103.33 41.4526ZM120.758 41.0439C120.758 40.6924 120.886 40.3936 121.141 40.1475C121.396 39.8926 121.708 39.7651 122.077 39.7651C122.437 39.7651 122.745 39.8926 123 40.1475C123.263 40.3936 123.395 40.6924 123.395 41.0439V46.792C123.729 46.0801 124.217 45.5352 124.858 45.1572C125.5 44.7705 126.12 44.5771 126.717 44.5771C128.097 44.5771 129.222 44.8584 130.092 45.4209C130.971 45.9834 131.617 46.7656 132.03 47.7676C132.443 48.7695 132.65 49.9253 132.65 51.2349V51.3535L132.637 58.0112V58.0244C132.637 58.376 132.505 58.6792 132.241 58.9341C131.986 59.1802 131.679 59.3032 131.318 59.3032C130.958 59.3032 130.646 59.1802 130.382 58.9341C130.127 58.6792 130 58.376 130 58.0244V58.0112L130.013 51.4194V51.3931C130.013 50.0396 129.789 49.0068 129.341 48.2949C128.893 47.583 128.018 47.2271 126.717 47.2271C125.619 47.2271 124.792 47.6094 124.239 48.374C123.694 49.1387 123.421 50.123 123.421 51.3271V58.0376C123.421 58.3892 123.29 58.6924 123.026 58.9473C122.771 59.1934 122.463 59.3164 122.103 59.3164C121.725 59.3164 121.404 59.189 121.141 58.9341C120.886 58.6704 120.758 58.3716 120.758 58.0376V41.0439ZM141.575 44.6035C142.744 44.6035 143.816 44.8936 144.792 45.4736C145.768 46.0537 146.55 46.8359 147.139 47.8203C147.736 48.7959 148.035 49.8813 148.035 51.0767C148.035 51.3228 148.022 51.5732 147.996 51.8281C147.96 52.1533 147.811 52.4302 147.547 52.6587C147.292 52.8784 147.002 52.9883 146.677 52.9883L137.462 53.0015C137.611 53.6343 137.893 54.2275 138.306 54.7812C138.719 55.335 139.22 55.7832 139.809 56.126C140.406 56.4688 141.057 56.6401 141.76 56.6401C142.516 56.6401 143.192 56.4556 143.79 56.0864C144.388 55.7173 144.854 55.291 145.188 54.8076C145.293 54.6406 145.451 54.5 145.662 54.3857C145.882 54.2715 146.088 54.2144 146.282 54.2144C146.642 54.2144 146.95 54.3462 147.205 54.6099C147.468 54.8735 147.6 55.1855 147.6 55.5459C147.6 55.8271 147.521 56.0776 147.363 56.2974C146.818 57.0972 146.066 57.7915 145.108 58.3804C144.159 58.9604 143.056 59.2505 141.799 59.2505C140.789 59.2505 139.848 59.0527 138.978 58.6572C138.117 58.2617 137.365 57.7212 136.724 57.0356C136.082 56.3501 135.581 55.5635 135.221 54.6758C134.869 53.7793 134.693 52.8345 134.693 51.8413C134.693 50.8833 134.869 49.9736 135.221 49.1123C135.572 48.2422 136.06 47.4688 136.684 46.792C137.317 46.1152 138.051 45.5835 138.886 45.1968C139.721 44.8013 140.617 44.6035 141.575 44.6035ZM145.319 50.3516C145.152 49.4902 144.722 48.7563 144.027 48.1499C143.333 47.5435 142.516 47.2402 141.575 47.2402C140.617 47.2402 139.769 47.5522 139.031 48.1763C138.301 48.8003 137.809 49.5298 137.554 50.3647L145.319 50.3516ZM156.934 49.7847C156.934 48.4927 157.163 47.249 157.62 46.0537C158.085 44.8584 158.74 43.7949 159.584 42.8633C160.437 41.9229 161.447 41.1802 162.616 40.6353C163.794 40.0903 165.095 39.8179 166.519 39.8179C167.828 39.8179 169.015 39.998 170.078 40.3584C171.15 40.7188 172.152 41.2285 173.084 41.8877C173.462 42.1426 173.651 42.4941 173.651 42.9424C173.651 43.2939 173.519 43.6016 173.255 43.8652C173 44.1201 172.693 44.2476 172.333 44.2476C172.051 44.2476 171.792 44.1641 171.555 43.9971C170.869 43.5312 170.096 43.1621 169.234 42.8896C168.373 42.6084 167.49 42.4678 166.584 42.4678C165.556 42.4678 164.611 42.6655 163.75 43.061C162.897 43.4478 162.155 43.9839 161.522 44.6694C160.898 45.3462 160.41 46.1196 160.059 46.9897C159.716 47.8599 159.544 48.7739 159.544 49.7319C159.544 51.0415 159.83 52.2061 160.401 53.2256C160.981 54.2451 161.786 55.0449 162.814 55.625C163.851 56.2051 165.055 56.4951 166.426 56.4951C167.182 56.4951 167.929 56.4204 168.667 56.271C169.415 56.1216 170.096 55.9502 170.711 55.7568L170.671 51.2612H166.65C166.29 51.2612 165.978 51.1338 165.714 50.8789C165.459 50.6152 165.332 50.3032 165.332 49.9429C165.332 49.5825 165.459 49.2749 165.714 49.02C165.978 48.7563 166.29 48.6245 166.65 48.6245H171.99C172.35 48.6245 172.658 48.752 172.913 49.0068C173.176 49.2617 173.308 49.5693 173.308 49.9297L173.361 56.6665V56.6797C173.361 56.9258 173.282 57.1631 173.124 57.3916C172.965 57.6201 172.768 57.7783 172.53 57.8662C171.687 58.2002 170.755 58.499 169.735 58.7627C168.716 59.0176 167.644 59.145 166.519 59.145C164.673 59.145 163.025 58.7451 161.575 57.9453C160.133 57.1455 159 56.0425 158.173 54.6362C157.347 53.23 156.934 51.6128 156.934 49.7847ZM182.853 44.498C183.503 44.498 184.136 44.6299 184.751 44.8936C185.375 45.1484 185.929 45.4736 186.413 45.8691C186.905 46.2559 187.27 46.6558 187.507 47.0688L187.652 45.8032C187.652 45.4429 187.757 45.1353 187.968 44.8804C188.179 44.6167 188.465 44.4849 188.825 44.4849C189.186 44.4849 189.493 44.6167 189.748 44.8804C190.012 45.1353 190.144 45.4429 190.144 45.8032V45.8296L190.117 58.0376C190.117 58.3979 189.985 58.71 189.722 58.9736C189.467 59.2285 189.159 59.356 188.799 59.356C188.438 59.356 188.153 59.2285 187.942 58.9736C187.731 58.71 187.625 58.3979 187.625 58.0376L187.48 56.9829C187.023 57.7651 186.355 58.3496 185.477 58.7363C184.598 59.1143 183.714 59.3032 182.827 59.3032C181.833 59.3032 180.902 59.1099 180.032 58.7231C179.162 58.3276 178.397 57.7871 177.738 57.1016C177.079 56.416 176.56 55.6294 176.182 54.7417C175.813 53.854 175.628 52.918 175.628 51.9336C175.628 50.958 175.809 50.0264 176.169 49.1387C176.538 48.2422 177.048 47.4468 177.698 46.7524C178.357 46.0493 179.122 45.5 179.992 45.1045C180.871 44.7002 181.825 44.498 182.853 44.498ZM187.401 51.9072C187.401 51.0459 187.199 50.2549 186.795 49.5342C186.399 48.8135 185.859 48.2334 185.173 47.7939C184.488 47.3545 183.706 47.1348 182.827 47.1348C181.965 47.1348 181.188 47.3545 180.493 47.7939C179.799 48.2334 179.25 48.8179 178.845 49.5474C178.441 50.2681 178.239 51.0503 178.239 51.894C178.239 52.7466 178.445 53.5376 178.858 54.2671C179.271 54.9878 179.825 55.5679 180.52 56.0073C181.223 56.4468 181.996 56.6665 182.84 56.6665C183.684 56.6665 184.448 56.4468 185.134 56.0073C185.828 55.5679 186.377 54.9878 186.782 54.2671C187.195 53.5376 187.401 52.751 187.401 51.9072ZM198.265 44.5508C199.117 44.5508 199.864 44.7573 200.506 45.1704C201.156 45.5835 201.688 46.0845 202.101 46.6733C202.593 46.1021 203.187 45.6055 203.881 45.1836C204.575 44.7529 205.349 44.5376 206.201 44.5376C207.326 44.5376 208.258 44.8408 208.996 45.4473C209.743 46.0449 210.297 46.8315 210.657 47.8071C211.018 48.7827 211.198 49.8374 211.198 50.9712L211.211 57.998C211.211 58.3496 211.083 58.6528 210.829 58.9077C210.574 59.1626 210.262 59.29 209.893 59.29C209.523 59.29 209.211 59.1626 208.957 58.9077C208.702 58.6528 208.574 58.3496 208.574 57.998L208.561 50.9976C208.561 50.3296 208.5 49.7056 208.376 49.1255C208.253 48.5366 208.029 48.062 207.704 47.7017C207.379 47.3413 206.909 47.1611 206.293 47.1611C205.643 47.1611 205.085 47.3413 204.619 47.7017C204.162 48.062 203.811 48.5366 203.564 49.1255C203.327 49.7056 203.208 50.334 203.208 51.0107L203.222 58.0376C203.222 58.3892 203.09 58.6924 202.826 58.9473C202.571 59.1934 202.264 59.3164 201.903 59.3164C201.534 59.3164 201.222 59.189 200.967 58.9341C200.712 58.6792 200.585 58.376 200.585 58.0244V51.0239C200.585 50.1978 200.444 49.499 200.163 48.9277C199.891 48.3564 199.535 47.9258 199.095 47.6357C198.665 47.3369 198.221 47.1875 197.764 47.1875C197.113 47.1875 196.529 47.4907 196.01 48.0972C195.492 48.7036 195.232 49.6484 195.232 50.9316V58.0376C195.232 58.3892 195.101 58.6924 194.837 58.9473C194.582 59.1934 194.274 59.3164 193.914 59.3164C193.554 59.3164 193.242 59.189 192.978 58.9341C192.723 58.6792 192.596 58.376 192.596 58.0244V45.8296C192.596 45.4692 192.662 45.166 192.793 44.9199C192.934 44.665 193.189 44.5376 193.558 44.5376C193.848 44.5376 194.116 44.6299 194.362 44.8145C194.608 44.999 194.806 45.3066 194.956 45.7373L195.206 46.4624C195.487 45.8823 195.918 45.4209 196.498 45.0781C197.087 44.7266 197.676 44.5508 198.265 44.5508ZM220.149 44.6035C221.318 44.6035 222.391 44.8936 223.366 45.4736C224.342 46.0537 225.124 46.8359 225.713 47.8203C226.311 48.7959 226.609 49.8813 226.609 51.0767C226.609 51.3228 226.596 51.5732 226.57 51.8281C226.535 52.1533 226.385 52.4302 226.122 52.6587C225.867 52.8784 225.577 52.9883 225.251 52.9883L216.036 53.0015C216.186 53.6343 216.467 54.2275 216.88 54.7812C217.293 55.335 217.794 55.7832 218.383 56.126C218.98 56.4688 219.631 56.6401 220.334 56.6401C221.09 56.6401 221.767 56.4556 222.364 56.0864C222.962 55.7173 223.428 55.291 223.762 54.8076C223.867 54.6406 224.025 54.5 224.236 54.3857C224.456 54.2715 224.663 54.2144 224.856 54.2144C225.216 54.2144 225.524 54.3462 225.779 54.6099C226.042 54.8735 226.174 55.1855 226.174 55.5459C226.174 55.8271 226.095 56.0776 225.937 56.2974C225.392 57.0972 224.641 57.7915 223.683 58.3804C222.733 58.9604 221.63 59.2505 220.374 59.2505C219.363 59.2505 218.422 59.0527 217.552 58.6572C216.691 58.2617 215.939 57.7212 215.298 57.0356C214.656 56.3501 214.155 55.5635 213.795 54.6758C213.443 53.7793 213.268 52.8345 213.268 51.8413C213.268 50.8833 213.443 49.9736 213.795 49.1123C214.146 48.2422 214.634 47.4688 215.258 46.792C215.891 46.1152 216.625 45.5835 217.46 45.1968C218.295 44.8013 219.191 44.6035 220.149 44.6035ZM223.894 50.3516C223.727 49.4902 223.296 48.7563 222.602 48.1499C221.907 47.5435 221.09 47.2402 220.149 47.2402C219.191 47.2402 218.343 47.5522 217.605 48.1763C216.875 48.8003 216.383 49.5298 216.128 50.3647L223.894 50.3516Z" fill="white"/>
<path d="M122.374 81.0684C122.187 81.0684 122.025 81.0023 121.889 80.8701C121.757 80.7334 121.69 80.5716 121.69 80.3848L121.684 71.833C121.684 71.6598 121.747 71.5026 121.875 71.3613C122.003 71.2201 122.155 71.1494 122.333 71.1494C122.543 71.1494 122.714 71.2155 122.846 71.3477C122.982 71.4753 123.051 71.637 123.051 71.833L123.058 80.3848C123.058 80.5716 122.989 80.7334 122.853 80.8701C122.72 81.0023 122.561 81.0684 122.374 81.0684ZM127.863 73.501C128.515 73.501 129.105 73.6445 129.634 73.9316C130.167 74.2142 130.561 74.597 130.816 75.0801C130.871 75.1758 130.898 75.2852 130.898 75.4082C130.898 75.5951 130.83 75.7568 130.693 75.8936C130.561 76.0257 130.402 76.0918 130.215 76.0918C130.101 76.0918 129.982 76.0553 129.859 75.9824C129.741 75.9049 129.657 75.8161 129.606 75.7158C129.456 75.4333 129.23 75.2214 128.93 75.0801C128.629 74.9388 128.271 74.8682 127.856 74.8682C127.615 74.8682 127.341 74.9001 127.036 74.9639C126.731 75.0277 126.466 75.1302 126.243 75.2715C126.02 75.4128 125.908 75.6042 125.908 75.8457C125.908 76.0234 125.999 76.1647 126.182 76.2695C126.368 76.3698 126.596 76.4473 126.865 76.502C127.139 76.5566 127.412 76.5977 127.686 76.625C127.959 76.6478 128.182 76.6683 128.355 76.6865C128.693 76.723 129.025 76.7799 129.354 76.8574C129.682 76.9303 129.982 77.0397 130.256 77.1855C130.529 77.3314 130.746 77.5296 130.905 77.7803C131.069 78.0309 131.151 78.3499 131.151 78.7373C131.151 79.2887 130.992 79.7399 130.673 80.0908C130.354 80.4417 129.946 80.7015 129.449 80.8701C128.952 81.0387 128.433 81.123 127.891 81.123C127.148 81.123 126.471 80.9772 125.86 80.6855C125.254 80.3893 124.805 79.9587 124.514 79.3936C124.459 79.2842 124.432 79.1771 124.432 79.0723C124.432 78.8854 124.498 78.7259 124.63 78.5938C124.767 78.457 124.928 78.3887 125.115 78.3887C125.234 78.3887 125.352 78.4274 125.471 78.5049C125.594 78.5778 125.68 78.6667 125.73 78.7715C125.908 79.1178 126.182 79.3685 126.551 79.5234C126.924 79.6784 127.369 79.7559 127.884 79.7559C128.157 79.7559 128.44 79.7262 128.731 79.667C129.028 79.6032 129.276 79.4961 129.477 79.3457C129.682 79.1953 129.784 78.9902 129.784 78.7305C129.784 78.5299 129.695 78.3864 129.518 78.2998C129.344 78.2087 129.135 78.1494 128.889 78.1221C128.647 78.0947 128.422 78.0697 128.212 78.0469C127.811 78.0059 127.396 77.9535 126.968 77.8896C126.539 77.8213 126.141 77.7142 125.771 77.5684C125.407 77.4225 125.111 77.2129 124.883 76.9395C124.655 76.666 124.541 76.3014 124.541 75.8457C124.541 75.4355 124.639 75.0824 124.835 74.7861C125.035 74.4899 125.3 74.2484 125.628 74.0615C125.956 73.8701 126.314 73.7288 126.701 73.6377C127.093 73.5465 127.48 73.501 127.863 73.501ZM135.909 74.2871C135.909 74.1549 135.962 74.0273 136.066 73.9043C136.176 73.7767 136.308 73.7129 136.463 73.7129L137.475 73.7061V73.6172C137.488 72.847 137.661 72.2432 137.994 71.8057C138.327 71.3682 138.867 71.1562 139.614 71.1699L140.366 71.1836C140.553 71.1836 140.713 71.252 140.845 71.3887C140.977 71.5208 141.043 71.6803 141.043 71.8672C141.043 72.054 140.977 72.2113 140.845 72.3389C140.713 72.4665 140.551 72.5303 140.359 72.5303L139.594 72.4209C139.357 72.4209 139.184 72.4574 139.074 72.5303C138.969 72.5986 138.901 72.7217 138.869 72.8994C138.842 73.0771 138.83 73.3301 138.835 73.6582L138.842 73.7197L140.223 73.7266C140.405 73.7266 140.558 73.7881 140.681 73.9111C140.808 74.0342 140.872 74.1823 140.872 74.3555C140.872 74.5013 140.813 74.6426 140.694 74.7793C140.576 74.9115 140.441 74.9775 140.291 74.9775L138.842 74.9912L138.855 80.501V80.5078C138.855 80.6901 138.787 80.8451 138.65 80.9727C138.518 81.0957 138.359 81.1572 138.172 81.1572C137.985 81.1572 137.823 81.0957 137.687 80.9727C137.554 80.8451 137.488 80.6901 137.488 80.5078V80.501L137.475 74.9775L136.559 74.9707C136.376 74.9707 136.221 74.9069 136.094 74.7793C135.971 74.6517 135.909 74.4876 135.909 74.2871ZM146.437 74.376C146.437 74.7406 146.261 74.9434 145.91 74.9844C145.783 74.998 145.621 74.957 145.425 74.8613C145.229 74.7611 145.031 74.7109 144.83 74.7109C144.434 74.7109 144.119 74.8135 143.887 75.0186C143.654 75.2191 143.488 75.4902 143.388 75.832C143.287 76.1738 143.237 76.5566 143.237 76.9805V80.5078C143.237 80.7083 143.176 80.8678 143.053 80.9863C142.934 81.1048 142.768 81.1641 142.554 81.1641C142.344 81.1641 142.178 81.1048 142.055 80.9863C141.932 80.8678 141.87 80.7061 141.87 80.501V74.2051C141.87 74 141.92 73.8314 142.021 73.6992C142.125 73.5671 142.267 73.501 142.444 73.501C142.549 73.501 142.67 73.5465 142.807 73.6377C142.948 73.7243 143.046 73.8747 143.101 74.0889L143.169 74.5811C143.228 74.4535 143.342 74.3053 143.511 74.1367C143.679 73.9681 143.88 73.8223 144.112 73.6992C144.345 73.5716 144.586 73.5078 144.837 73.5078C145.302 73.5078 145.685 73.5625 145.985 73.6719C146.286 73.7767 146.437 74.0114 146.437 74.376ZM150.244 73.5352C150.85 73.5352 151.406 73.6855 151.912 73.9863C152.418 74.2871 152.824 74.6927 153.129 75.2031C153.439 75.709 153.594 76.2718 153.594 76.8916C153.594 77.0192 153.587 77.1491 153.573 77.2812C153.555 77.4499 153.478 77.5934 153.341 77.7119C153.209 77.8258 153.058 77.8828 152.89 77.8828L148.111 77.8896C148.189 78.2178 148.335 78.5254 148.549 78.8125C148.763 79.0996 149.023 79.332 149.328 79.5098C149.638 79.6875 149.975 79.7764 150.34 79.7764C150.732 79.7764 151.083 79.6807 151.393 79.4893C151.702 79.2979 151.944 79.0768 152.117 78.8262C152.172 78.7396 152.254 78.6667 152.363 78.6074C152.477 78.5482 152.584 78.5186 152.685 78.5186C152.871 78.5186 153.031 78.5869 153.163 78.7236C153.3 78.8604 153.368 79.0221 153.368 79.209C153.368 79.3548 153.327 79.4847 153.245 79.5986C152.963 80.0133 152.573 80.3734 152.076 80.6787C151.584 80.9795 151.012 81.1299 150.36 81.1299C149.836 81.1299 149.349 81.0273 148.897 80.8223C148.451 80.6172 148.061 80.3369 147.729 79.9814C147.396 79.626 147.136 79.2181 146.949 78.7578C146.767 78.293 146.676 77.8031 146.676 77.2881C146.676 76.7913 146.767 76.3197 146.949 75.873C147.132 75.4219 147.384 75.0208 147.708 74.6699C148.036 74.319 148.417 74.0433 148.85 73.8428C149.283 73.6377 149.747 73.5352 150.244 73.5352ZM152.186 76.5156C152.099 76.069 151.876 75.6885 151.516 75.374C151.156 75.0596 150.732 74.9023 150.244 74.9023C149.747 74.9023 149.308 75.0641 148.925 75.3877C148.547 75.7113 148.291 76.0895 148.159 76.5225L152.186 76.5156ZM157.982 73.5352C158.589 73.5352 159.145 73.6855 159.65 73.9863C160.156 74.2871 160.562 74.6927 160.867 75.2031C161.177 75.709 161.332 76.2718 161.332 76.8916C161.332 77.0192 161.325 77.1491 161.312 77.2812C161.293 77.4499 161.216 77.5934 161.079 77.7119C160.947 77.8258 160.797 77.8828 160.628 77.8828L155.85 77.8896C155.927 78.2178 156.073 78.5254 156.287 78.8125C156.501 79.0996 156.761 79.332 157.066 79.5098C157.376 79.6875 157.714 79.7764 158.078 79.7764C158.47 79.7764 158.821 79.6807 159.131 79.4893C159.441 79.2979 159.682 79.0768 159.855 78.8262C159.91 78.7396 159.992 78.6667 160.102 78.6074C160.215 78.5482 160.323 78.5186 160.423 78.5186C160.61 78.5186 160.769 78.5869 160.901 78.7236C161.038 78.8604 161.106 79.0221 161.106 79.209C161.106 79.3548 161.065 79.4847 160.983 79.5986C160.701 80.0133 160.311 80.3734 159.814 80.6787C159.322 80.9795 158.75 81.1299 158.099 81.1299C157.575 81.1299 157.087 81.0273 156.636 80.8223C156.189 80.6172 155.799 80.3369 155.467 79.9814C155.134 79.626 154.874 79.2181 154.688 78.7578C154.505 78.293 154.414 77.8031 154.414 77.2881C154.414 76.7913 154.505 76.3197 154.688 75.873C154.87 75.4219 155.123 75.0208 155.446 74.6699C155.774 74.319 156.155 74.0433 156.588 73.8428C157.021 73.6377 157.486 73.5352 157.982 73.5352ZM159.924 76.5156C159.837 76.069 159.614 75.6885 159.254 75.374C158.894 75.0596 158.47 74.9023 157.982 74.9023C157.486 74.9023 157.046 75.0641 156.663 75.3877C156.285 75.7113 156.03 76.0895 155.897 76.5225L159.924 76.5156ZM167.279 72.291C167.279 72.1042 167.345 71.9447 167.478 71.8125C167.61 71.6758 167.771 71.6074 167.963 71.6074C168.15 71.6074 168.309 71.6758 168.441 71.8125C168.578 71.9447 168.646 72.1042 168.646 72.291V73.6514H169.562C169.74 73.6514 169.893 73.7152 170.021 73.8428C170.148 73.9704 170.212 74.123 170.212 74.3008C170.212 74.4785 170.148 74.6312 170.021 74.7588C169.893 74.8864 169.74 74.9502 169.562 74.9502H168.64L168.633 79.1816V79.1953C168.633 79.4186 168.658 79.5736 168.708 79.6602C168.758 79.7422 168.861 79.7832 169.016 79.7832C169.212 79.7832 169.385 79.7308 169.535 79.626C169.59 79.5895 169.656 79.5576 169.733 79.5303C169.811 79.4984 169.886 79.4824 169.959 79.4824C170.146 79.4824 170.305 79.5485 170.438 79.6807C170.574 79.8128 170.643 79.9723 170.643 80.1592C170.643 80.3825 170.551 80.5625 170.369 80.6992C170.196 80.8314 169.998 80.9408 169.774 81.0273C169.551 81.1139 169.312 81.1572 169.057 81.1572C168.482 81.1572 168.04 80.9818 167.73 80.6309C167.421 80.2754 167.266 79.8333 167.266 79.3047V79.2432L167.272 74.957H166.391C166.213 74.957 166.06 74.8932 165.933 74.7656C165.805 74.638 165.741 74.4854 165.741 74.3076C165.741 74.1299 165.805 73.9772 165.933 73.8496C166.06 73.722 166.213 73.6582 166.391 73.6582H167.279V72.291ZM174.895 73.5146C175.419 73.5146 175.906 73.6149 176.357 73.8154C176.813 74.016 177.212 74.2939 177.554 74.6494C177.896 75.0049 178.162 75.4128 178.354 75.873C178.549 76.3333 178.647 76.8232 178.647 77.3428C178.647 77.8532 178.549 78.3385 178.354 78.7988C178.158 79.2546 177.886 79.6579 177.54 80.0088C177.198 80.3551 176.799 80.6286 176.344 80.8291C175.893 81.0296 175.41 81.1299 174.895 81.1299C174.384 81.1299 173.901 81.0319 173.445 80.8359C172.994 80.64 172.595 80.3688 172.249 80.0225C171.907 79.6761 171.638 79.2751 171.442 78.8193C171.246 78.359 171.148 77.8669 171.148 77.3428C171.148 76.8232 171.246 76.3333 171.442 75.873C171.638 75.4128 171.907 75.0072 172.249 74.6562C172.595 74.3008 172.994 74.0228 173.445 73.8223C173.896 73.6172 174.38 73.5146 174.895 73.5146ZM172.529 77.3564C172.529 77.7985 172.636 78.2018 172.851 78.5664C173.069 78.9264 173.359 79.2135 173.719 79.4277C174.079 79.6419 174.473 79.749 174.901 79.749C175.339 79.749 175.735 79.6396 176.091 79.4209C176.451 79.1976 176.736 78.9036 176.945 78.5391C177.16 78.1745 177.267 77.7757 177.267 77.3428C177.267 76.9007 177.162 76.4951 176.952 76.126C176.743 75.7523 176.458 75.4538 176.098 75.2305C175.742 75.0072 175.341 74.8955 174.895 74.8955C174.443 74.8955 174.04 75.0094 173.685 75.2373C173.329 75.4606 173.047 75.7591 172.837 76.1328C172.632 76.502 172.529 76.9098 172.529 77.3564ZM190.747 77.3359C190.747 77.8509 190.651 78.3522 190.46 78.8398C190.273 79.3275 189.991 79.7581 189.612 80.1318C189.28 80.4554 188.897 80.7061 188.464 80.8838C188.031 81.0615 187.582 81.1504 187.117 81.1504C186.643 81.1504 186.222 81.0501 185.853 80.8496C185.488 80.6491 185.158 80.3779 184.861 80.0361V82.9141C184.861 83.1009 184.793 83.2604 184.656 83.3926C184.524 83.5293 184.365 83.5977 184.178 83.5977C183.991 83.5977 183.829 83.5293 183.692 83.3926C183.56 83.2604 183.494 83.1009 183.494 82.9141V74.1846C183.494 73.9977 183.56 73.8382 183.692 73.7061C183.829 73.5693 183.991 73.501 184.178 73.501C184.365 73.501 184.504 73.5693 184.595 73.7061C184.69 73.8382 184.752 73.9977 184.779 74.1846L184.861 74.7383C185.121 74.3646 185.463 74.0706 185.887 73.8564C186.315 73.6423 186.741 73.5352 187.165 73.5352C187.68 73.5352 188.154 73.6377 188.587 73.8428C189.024 74.0479 189.405 74.3281 189.729 74.6836C190.052 75.0345 190.303 75.4378 190.48 75.8936C190.658 76.3493 190.747 76.8301 190.747 77.3359ZM187.179 74.9023C186.882 74.9023 186.589 74.9684 186.297 75.1006C186.005 75.2282 185.757 75.4059 185.552 75.6338C185.347 75.8571 185.187 76.1237 185.073 76.4336C184.964 76.7389 184.909 77.0511 184.909 77.3701C184.909 77.8076 185.005 78.2109 185.196 78.5801C185.388 78.9492 185.652 79.2454 185.989 79.4688C186.326 79.6921 186.712 79.8037 187.145 79.8037C187.577 79.8037 187.963 79.6875 188.3 79.4551C188.637 79.2181 188.901 78.9128 189.093 78.5391C189.289 78.1608 189.387 77.7598 189.387 77.3359C189.387 76.9076 189.291 76.5088 189.1 76.1396C188.908 75.7705 188.646 75.472 188.313 75.2441C187.981 75.0163 187.603 74.9023 187.179 74.9023ZM192.395 71.0264C192.613 71.0264 192.789 71.0993 192.921 71.2451C193.053 71.3864 193.117 71.5413 193.112 71.71V80.5146C193.112 80.6969 193.039 80.8451 192.894 80.959C192.752 81.0684 192.611 81.123 192.47 81.123C192.274 81.123 192.103 81.0592 191.957 80.9316C191.816 80.804 191.745 80.64 191.745 80.4395V71.71C191.745 71.5368 191.807 71.3796 191.93 71.2383C192.057 71.097 192.212 71.0264 192.395 71.0264ZM198.021 73.4805C198.358 73.4805 198.686 73.5488 199.005 73.6855C199.328 73.8177 199.616 73.9863 199.866 74.1914C200.121 74.3919 200.311 74.5993 200.434 74.8135L200.509 74.1572C200.509 73.9704 200.563 73.8109 200.673 73.6787C200.782 73.542 200.93 73.4736 201.117 73.4736C201.304 73.4736 201.464 73.542 201.596 73.6787C201.732 73.8109 201.801 73.9704 201.801 74.1572V74.1709L201.787 80.501C201.787 80.6878 201.719 80.8496 201.582 80.9863C201.45 81.1185 201.29 81.1846 201.104 81.1846C200.917 81.1846 200.769 81.1185 200.659 80.9863C200.55 80.8496 200.495 80.6878 200.495 80.501L200.42 79.9541C200.183 80.3597 199.837 80.6628 199.381 80.8633C198.925 81.0592 198.467 81.1572 198.007 81.1572C197.492 81.1572 197.009 81.057 196.558 80.8564C196.106 80.6514 195.71 80.3711 195.368 80.0156C195.026 79.6602 194.757 79.2523 194.562 78.792C194.37 78.3317 194.274 77.8464 194.274 77.3359C194.274 76.8301 194.368 76.347 194.555 75.8867C194.746 75.4219 195.01 75.0094 195.348 74.6494C195.689 74.2848 196.086 74 196.537 73.7949C196.993 73.5853 197.487 73.4805 198.021 73.4805ZM200.379 77.3223C200.379 76.8757 200.274 76.4655 200.064 76.0918C199.859 75.7181 199.579 75.4173 199.224 75.1895C198.868 74.9616 198.463 74.8477 198.007 74.8477C197.56 74.8477 197.157 74.9616 196.797 75.1895C196.437 75.4173 196.152 75.7204 195.942 76.0986C195.733 76.4723 195.628 76.8779 195.628 77.3154C195.628 77.7575 195.735 78.1676 195.949 78.5459C196.163 78.9196 196.451 79.2204 196.811 79.4482C197.175 79.6761 197.576 79.79 198.014 79.79C198.451 79.79 198.848 79.6761 199.203 79.4482C199.563 79.2204 199.848 78.9196 200.058 78.5459C200.272 78.1676 200.379 77.7598 200.379 77.3223ZM203.339 73.4736C203.471 73.4736 203.594 73.5124 203.708 73.5898C203.826 73.6673 203.911 73.763 203.961 73.877L206.285 79.1611L208.274 73.9248C208.325 73.8018 208.407 73.6992 208.521 73.6172C208.639 73.5352 208.769 73.4941 208.91 73.4941C209.097 73.4941 209.257 73.5625 209.389 73.6992C209.525 73.8314 209.594 73.9909 209.594 74.1777C209.594 74.2734 209.576 74.3623 209.539 74.4443L207.023 81.0068C207.014 81.0661 206.998 81.1185 206.976 81.1641C206.953 81.2096 206.93 81.2507 206.907 81.2871L206.524 82.2441C206.429 82.4811 206.315 82.7318 206.183 82.9961C206.05 83.265 205.868 83.5179 205.636 83.7549C205.412 83.9873 205.139 84.1833 204.815 84.3428C204.496 84.5023 204.161 84.582 203.811 84.582C203.619 84.582 203.457 84.5114 203.325 84.3701C203.193 84.2334 203.127 84.0716 203.127 83.8848C203.127 83.7025 203.188 83.543 203.312 83.4062C203.439 83.2741 203.592 83.2057 203.77 83.2012C204.171 83.1738 204.48 83.0166 204.699 82.7295C204.918 82.4469 205.105 82.112 205.26 81.7246L205.588 80.8906L202.717 74.4512C202.676 74.3555 202.655 74.2575 202.655 74.1572C202.655 73.9704 202.721 73.8109 202.854 73.6787C202.99 73.542 203.152 73.4736 203.339 73.4736Z" fill="#F72585"/>
<path d="M87.3599 189C86.9995 189 86.6875 188.873 86.4238 188.618C86.1689 188.354 86.0415 188.042 86.0415 187.682L86.002 171.321C85.9932 171.242 85.9888 171.163 85.9888 171.083C85.9888 170.96 86.0151 170.842 86.0679 170.728C86.1294 170.613 86.1997 170.495 86.2788 170.372C86.4897 170.029 86.793 169.857 87.1885 169.857C87.8213 169.857 88.2563 170.104 88.4937 170.596L95.5469 182.105L102.073 170.583C102.336 170.143 102.692 169.923 103.141 169.923C103.519 169.923 103.848 170.046 104.129 170.292C104.411 170.539 104.551 170.855 104.551 171.242V187.734C104.551 188.095 104.419 188.407 104.156 188.67C103.901 188.925 103.593 189.053 103.233 189.053C102.873 189.053 102.561 188.925 102.297 188.67C102.042 188.407 101.915 188.095 101.915 187.734V175.948L96.7334 185.361C96.6367 185.52 96.4873 185.673 96.2852 185.823C96.083 185.963 95.8633 186.034 95.626 186.034C95.1162 186.034 94.7251 185.823 94.4526 185.401L88.6387 175.896L88.6782 187.668V187.682C88.6782 188.042 88.5464 188.354 88.2827 188.618C88.0278 188.873 87.7202 189 87.3599 189ZM113.424 174.564C114.435 174.564 115.375 174.757 116.245 175.144C117.124 175.531 117.893 176.067 118.552 176.752C119.211 177.438 119.726 178.225 120.095 179.112C120.473 180 120.662 180.945 120.662 181.947C120.662 182.931 120.473 183.867 120.095 184.755C119.717 185.634 119.194 186.412 118.526 187.088C117.867 187.756 117.098 188.284 116.219 188.67C115.349 189.057 114.417 189.25 113.424 189.25C112.439 189.25 111.508 189.062 110.629 188.684C109.759 188.306 108.99 187.783 108.322 187.115C107.663 186.447 107.144 185.673 106.766 184.794C106.388 183.907 106.199 182.958 106.199 181.947C106.199 180.945 106.388 180 106.766 179.112C107.144 178.225 107.663 177.442 108.322 176.766C108.99 176.08 109.759 175.544 110.629 175.157C111.499 174.762 112.431 174.564 113.424 174.564ZM108.862 181.973C108.862 182.826 109.069 183.604 109.482 184.307C109.904 185.001 110.462 185.555 111.156 185.968C111.851 186.381 112.611 186.587 113.437 186.587C114.281 186.587 115.045 186.376 115.731 185.955C116.425 185.524 116.975 184.957 117.379 184.254C117.792 183.551 117.999 182.782 117.999 181.947C117.999 181.094 117.796 180.312 117.392 179.6C116.988 178.879 116.438 178.304 115.744 177.873C115.059 177.442 114.285 177.227 113.424 177.227C112.554 177.227 111.776 177.447 111.09 177.886C110.405 178.317 109.86 178.893 109.456 179.613C109.06 180.325 108.862 181.112 108.862 181.973ZM131.367 176.225C131.367 176.928 131.028 177.319 130.352 177.398C130.105 177.425 129.793 177.346 129.416 177.161C129.038 176.968 128.655 176.871 128.269 176.871C127.504 176.871 126.897 177.069 126.449 177.464C126.001 177.851 125.68 178.374 125.487 179.033C125.293 179.692 125.197 180.431 125.197 181.248V188.051C125.197 188.438 125.078 188.745 124.841 188.974C124.612 189.202 124.292 189.316 123.878 189.316C123.474 189.316 123.153 189.202 122.916 188.974C122.679 188.745 122.56 188.433 122.56 188.038V175.896C122.56 175.5 122.657 175.175 122.85 174.92C123.052 174.665 123.325 174.538 123.667 174.538C123.87 174.538 124.103 174.625 124.366 174.801C124.639 174.968 124.828 175.258 124.933 175.671L125.065 176.621C125.179 176.375 125.399 176.089 125.724 175.764C126.049 175.438 126.436 175.157 126.884 174.92C127.333 174.674 127.798 174.551 128.282 174.551C129.178 174.551 129.917 174.656 130.497 174.867C131.077 175.069 131.367 175.522 131.367 176.225ZM138.71 174.604C139.879 174.604 140.951 174.894 141.927 175.474C142.902 176.054 143.685 176.836 144.273 177.82C144.871 178.796 145.17 179.881 145.17 181.077C145.17 181.323 145.157 181.573 145.13 181.828C145.095 182.153 144.946 182.43 144.682 182.659C144.427 182.878 144.137 182.988 143.812 182.988L134.597 183.001C134.746 183.634 135.027 184.228 135.44 184.781C135.854 185.335 136.354 185.783 136.943 186.126C137.541 186.469 138.191 186.64 138.895 186.64C139.65 186.64 140.327 186.456 140.925 186.086C141.522 185.717 141.988 185.291 142.322 184.808C142.428 184.641 142.586 184.5 142.797 184.386C143.017 184.271 143.223 184.214 143.417 184.214C143.777 184.214 144.084 184.346 144.339 184.61C144.603 184.874 144.735 185.186 144.735 185.546C144.735 185.827 144.656 186.078 144.498 186.297C143.953 187.097 143.201 187.792 142.243 188.38C141.294 188.96 140.191 189.25 138.934 189.25C137.923 189.25 136.983 189.053 136.113 188.657C135.251 188.262 134.5 187.721 133.858 187.036C133.217 186.35 132.716 185.563 132.355 184.676C132.004 183.779 131.828 182.834 131.828 181.841C131.828 180.883 132.004 179.974 132.355 179.112C132.707 178.242 133.195 177.469 133.819 176.792C134.452 176.115 135.186 175.583 136.021 175.197C136.855 174.801 137.752 174.604 138.71 174.604ZM142.454 180.352C142.287 179.49 141.856 178.756 141.162 178.15C140.468 177.543 139.65 177.24 138.71 177.24C137.752 177.24 136.904 177.552 136.166 178.176C135.436 178.8 134.944 179.53 134.689 180.365L142.454 180.352ZM156.64 172.204C156.64 171.844 156.767 171.536 157.022 171.281C157.277 171.018 157.589 170.886 157.958 170.886C158.318 170.886 158.626 171.018 158.881 171.281C159.145 171.536 159.276 171.844 159.276 172.204V174.828H161.043C161.386 174.828 161.68 174.951 161.926 175.197C162.172 175.443 162.295 175.737 162.295 176.08C162.295 176.423 162.172 176.717 161.926 176.963C161.68 177.209 161.386 177.333 161.043 177.333H159.263L159.25 185.493V185.52C159.25 185.95 159.298 186.249 159.395 186.416C159.492 186.574 159.689 186.653 159.988 186.653C160.366 186.653 160.7 186.552 160.99 186.35C161.096 186.28 161.223 186.218 161.373 186.166C161.522 186.104 161.667 186.073 161.808 186.073C162.168 186.073 162.476 186.201 162.73 186.456C162.994 186.71 163.126 187.018 163.126 187.378C163.126 187.809 162.95 188.156 162.599 188.42C162.265 188.675 161.882 188.886 161.452 189.053C161.021 189.22 160.56 189.303 160.067 189.303C158.96 189.303 158.107 188.965 157.51 188.288C156.912 187.603 156.613 186.75 156.613 185.73V185.612L156.626 177.346H154.926C154.583 177.346 154.289 177.223 154.042 176.977C153.796 176.73 153.673 176.436 153.673 176.093C153.673 175.75 153.796 175.456 154.042 175.21C154.289 174.964 154.583 174.841 154.926 174.841H156.64V172.204ZM164.695 171.044C164.695 170.692 164.822 170.394 165.077 170.147C165.332 169.893 165.644 169.765 166.013 169.765C166.374 169.765 166.681 169.893 166.936 170.147C167.2 170.394 167.332 170.692 167.332 171.044V176.792C167.666 176.08 168.153 175.535 168.795 175.157C169.437 174.771 170.056 174.577 170.654 174.577C172.034 174.577 173.159 174.858 174.029 175.421C174.908 175.983 175.554 176.766 175.967 177.768C176.38 178.77 176.586 179.925 176.586 181.235V181.354L176.573 188.011V188.024C176.573 188.376 176.441 188.679 176.178 188.934C175.923 189.18 175.615 189.303 175.255 189.303C174.895 189.303 174.583 189.18 174.319 188.934C174.064 188.679 173.937 188.376 173.937 188.024V188.011L173.95 181.419V181.393C173.95 180.04 173.726 179.007 173.277 178.295C172.829 177.583 171.955 177.227 170.654 177.227C169.555 177.227 168.729 177.609 168.175 178.374C167.63 179.139 167.358 180.123 167.358 181.327V188.038C167.358 188.389 167.226 188.692 166.962 188.947C166.708 189.193 166.4 189.316 166.04 189.316C165.662 189.316 165.341 189.189 165.077 188.934C164.822 188.67 164.695 188.372 164.695 188.038V171.044ZM186.052 174.498C186.703 174.498 187.335 174.63 187.951 174.894C188.575 175.148 189.128 175.474 189.612 175.869C190.104 176.256 190.469 176.656 190.706 177.069L190.851 175.803C190.851 175.443 190.957 175.135 191.167 174.88C191.378 174.617 191.664 174.485 192.024 174.485C192.385 174.485 192.692 174.617 192.947 174.88C193.211 175.135 193.343 175.443 193.343 175.803V175.83L193.316 188.038C193.316 188.398 193.185 188.71 192.921 188.974C192.666 189.229 192.358 189.356 191.998 189.356C191.638 189.356 191.352 189.229 191.141 188.974C190.93 188.71 190.825 188.398 190.825 188.038L190.68 186.983C190.223 187.765 189.555 188.35 188.676 188.736C187.797 189.114 186.914 189.303 186.026 189.303C185.033 189.303 184.101 189.11 183.231 188.723C182.361 188.328 181.596 187.787 180.937 187.102C180.278 186.416 179.759 185.629 179.381 184.742C179.012 183.854 178.828 182.918 178.828 181.934C178.828 180.958 179.008 180.026 179.368 179.139C179.737 178.242 180.247 177.447 180.897 176.752C181.557 176.049 182.321 175.5 183.191 175.104C184.07 174.7 185.024 174.498 186.052 174.498ZM190.601 181.907C190.601 181.046 190.398 180.255 189.994 179.534C189.599 178.813 189.058 178.233 188.373 177.794C187.687 177.354 186.905 177.135 186.026 177.135C185.165 177.135 184.387 177.354 183.692 177.794C182.998 178.233 182.449 178.818 182.044 179.547C181.64 180.268 181.438 181.05 181.438 181.894C181.438 182.747 181.645 183.538 182.058 184.267C182.471 184.988 183.024 185.568 183.719 186.007C184.422 186.447 185.195 186.667 186.039 186.667C186.883 186.667 187.647 186.447 188.333 186.007C189.027 185.568 189.577 184.988 189.981 184.267C190.394 183.538 190.601 182.751 190.601 181.907ZM198.55 176.647C199.025 176.181 199.592 175.72 200.251 175.263C200.919 174.806 201.692 174.577 202.571 174.577C203.723 174.577 204.681 174.885 205.445 175.5C206.21 176.106 206.772 176.814 207.133 177.623C207.414 178.264 207.581 178.901 207.634 179.534C207.695 180.158 207.726 180.747 207.726 181.301V187.958C207.726 188.319 207.594 188.631 207.331 188.895C207.076 189.149 206.768 189.277 206.408 189.277C206.047 189.277 205.735 189.149 205.472 188.895C205.217 188.631 205.089 188.319 205.089 187.958V181.301C205.089 180.782 205.063 180.303 205.01 179.864C204.966 179.424 204.87 179.038 204.72 178.704C204.553 178.317 204.294 177.974 203.942 177.675C203.591 177.368 203.143 177.214 202.598 177.214C201.297 177.214 200.295 177.71 199.592 178.704C198.897 179.697 198.555 181.037 198.563 182.725L198.577 187.985C198.577 188.345 198.445 188.657 198.181 188.921C197.926 189.176 197.619 189.303 197.258 189.303C196.889 189.303 196.577 189.176 196.322 188.921C196.067 188.657 195.94 188.341 195.94 187.972L195.914 175.856C195.914 175.496 196.01 175.188 196.204 174.933C196.406 174.669 196.687 174.538 197.047 174.538C197.408 174.538 197.685 174.669 197.878 174.933C198.071 175.188 198.221 175.496 198.326 175.856L198.55 176.647ZM218.998 189.04C218.638 189.04 218.326 188.912 218.062 188.657C217.807 188.394 217.68 188.082 217.68 187.721C217.68 187.273 217.816 186.812 218.088 186.337C218.361 185.854 218.699 185.388 219.104 184.939C219.508 184.482 219.917 184.065 220.33 183.687C220.743 183.309 221.09 182.997 221.371 182.751C221.925 182.268 222.522 181.819 223.164 181.406C223.806 180.984 224.412 180.545 224.983 180.088C225.563 179.622 226.034 179.095 226.394 178.506C226.763 177.908 226.948 177.201 226.948 176.383C226.948 175.742 226.803 175.166 226.513 174.656C226.223 174.146 225.832 173.742 225.339 173.443C224.847 173.136 224.293 172.982 223.678 172.982C222.914 172.982 222.254 173.224 221.701 173.707C221.156 174.19 220.817 174.74 220.686 175.355C220.624 175.636 220.466 175.882 220.211 176.093C219.965 176.304 219.688 176.41 219.38 176.41C219.02 176.41 218.708 176.282 218.444 176.027C218.189 175.772 218.062 175.469 218.062 175.118C218.062 174.467 218.225 173.856 218.55 173.285C218.875 172.705 219.306 172.195 219.842 171.756C220.387 171.316 220.993 170.974 221.661 170.728C222.329 170.473 223.01 170.345 223.705 170.345C224.847 170.345 225.858 170.613 226.737 171.149C227.625 171.677 228.319 172.393 228.82 173.298C229.33 174.204 229.584 175.214 229.584 176.331C229.584 177.491 229.36 178.488 228.912 179.323C228.464 180.158 227.897 180.888 227.211 181.512C226.526 182.127 225.818 182.685 225.089 183.186C224.359 183.687 223.709 184.184 223.138 184.676C222.505 185.238 221.947 185.814 221.463 186.403H229.176C229.536 186.403 229.844 186.535 230.099 186.798C230.362 187.053 230.494 187.361 230.494 187.721C230.494 188.082 230.362 188.394 230.099 188.657C229.844 188.912 229.536 189.04 229.176 189.04H218.998ZM233.065 171.044C233.065 170.692 233.192 170.394 233.447 170.147C233.702 169.893 234.014 169.765 234.383 169.765C234.744 169.765 235.051 169.893 235.306 170.147C235.57 170.394 235.702 170.692 235.702 171.044V176.792C236.036 176.08 236.523 175.535 237.165 175.157C237.807 174.771 238.426 174.577 239.024 174.577C240.404 174.577 241.529 174.858 242.399 175.421C243.278 175.983 243.924 176.766 244.337 177.768C244.75 178.77 244.957 179.925 244.957 181.235V181.354L244.943 188.011V188.024C244.943 188.376 244.812 188.679 244.548 188.934C244.293 189.18 243.985 189.303 243.625 189.303C243.265 189.303 242.953 189.18 242.689 188.934C242.434 188.679 242.307 188.376 242.307 188.024V188.011L242.32 181.419V181.393C242.32 180.04 242.096 179.007 241.647 178.295C241.199 177.583 240.325 177.227 239.024 177.227C237.925 177.227 237.099 177.609 236.545 178.374C236 179.139 235.728 180.123 235.728 181.327V188.038C235.728 188.389 235.596 188.692 235.333 188.947C235.078 189.193 234.77 189.316 234.41 189.316C234.032 189.316 233.711 189.189 233.447 188.934C233.192 188.67 233.065 188.372 233.065 188.038V171.044Z" fill="white"/>
<path d="M98.1562 201.464C98.2064 201.35 98.2907 201.254 98.4092 201.177C98.5322 201.095 98.6576 201.054 98.7852 201.054C98.9082 201.054 99.0312 201.095 99.1543 201.177C99.2819 201.254 99.3685 201.35 99.4141 201.464L103.174 210.187C103.215 210.278 103.235 210.371 103.235 210.467C103.235 210.654 103.167 210.815 103.03 210.952C102.898 211.084 102.739 211.15 102.552 211.15C102.424 211.15 102.299 211.109 102.176 211.027C102.053 210.945 101.966 210.847 101.916 210.733L100.747 208.02L96.8506 207.965L95.6543 210.74C95.6087 210.854 95.5244 210.952 95.4014 211.034C95.2783 211.121 95.153 211.164 95.0254 211.164C94.8385 211.164 94.6768 211.098 94.54 210.966C94.4079 210.829 94.3418 210.667 94.3418 210.48C94.3418 210.385 94.3623 210.291 94.4033 210.2L98.1562 201.464ZM98.7852 203.467L97.4385 206.604L100.152 206.639L98.7852 203.467ZM107.686 203.501C108.337 203.501 108.927 203.645 109.456 203.932C109.989 204.214 110.383 204.597 110.639 205.08C110.693 205.176 110.721 205.285 110.721 205.408C110.721 205.595 110.652 205.757 110.516 205.894C110.383 206.026 110.224 206.092 110.037 206.092C109.923 206.092 109.805 206.055 109.682 205.982C109.563 205.905 109.479 205.816 109.429 205.716C109.278 205.433 109.053 205.221 108.752 205.08C108.451 204.939 108.093 204.868 107.679 204.868C107.437 204.868 107.164 204.9 106.858 204.964C106.553 205.028 106.289 205.13 106.065 205.271C105.842 205.413 105.73 205.604 105.73 205.846C105.73 206.023 105.822 206.165 106.004 206.27C106.191 206.37 106.419 206.447 106.688 206.502C106.961 206.557 107.234 206.598 107.508 206.625C107.781 206.648 108.005 206.668 108.178 206.687C108.515 206.723 108.848 206.78 109.176 206.857C109.504 206.93 109.805 207.04 110.078 207.186C110.352 207.331 110.568 207.53 110.728 207.78C110.892 208.031 110.974 208.35 110.974 208.737C110.974 209.289 110.814 209.74 110.495 210.091C110.176 210.442 109.768 210.701 109.271 210.87C108.775 211.039 108.255 211.123 107.713 211.123C106.97 211.123 106.293 210.977 105.683 210.686C105.076 210.389 104.628 209.959 104.336 209.394C104.281 209.284 104.254 209.177 104.254 209.072C104.254 208.885 104.32 208.726 104.452 208.594C104.589 208.457 104.751 208.389 104.938 208.389C105.056 208.389 105.174 208.427 105.293 208.505C105.416 208.578 105.503 208.667 105.553 208.771C105.73 209.118 106.004 209.368 106.373 209.523C106.747 209.678 107.191 209.756 107.706 209.756C107.979 209.756 108.262 209.726 108.554 209.667C108.85 209.603 109.098 209.496 109.299 209.346C109.504 209.195 109.606 208.99 109.606 208.73C109.606 208.53 109.518 208.386 109.34 208.3C109.167 208.209 108.957 208.149 108.711 208.122C108.469 208.095 108.244 208.07 108.034 208.047C107.633 208.006 107.218 207.953 106.79 207.89C106.362 207.821 105.963 207.714 105.594 207.568C105.229 207.423 104.933 207.213 104.705 206.939C104.477 206.666 104.363 206.301 104.363 205.846C104.363 205.436 104.461 205.082 104.657 204.786C104.858 204.49 105.122 204.248 105.45 204.062C105.778 203.87 106.136 203.729 106.523 203.638C106.915 203.547 107.303 203.501 107.686 203.501ZM119.751 203.48C120.088 203.48 120.416 203.549 120.735 203.686C121.059 203.818 121.346 203.986 121.597 204.191C121.852 204.392 122.041 204.599 122.164 204.813L122.239 204.157C122.239 203.97 122.294 203.811 122.403 203.679C122.513 203.542 122.661 203.474 122.848 203.474C123.035 203.474 123.194 203.542 123.326 203.679C123.463 203.811 123.531 203.97 123.531 204.157V204.171L123.518 210.501C123.518 210.688 123.449 210.85 123.312 210.986C123.18 211.118 123.021 211.185 122.834 211.185C122.647 211.185 122.499 211.118 122.39 210.986C122.28 210.85 122.226 210.688 122.226 210.501L122.15 209.954C121.913 210.36 121.567 210.663 121.111 210.863C120.656 211.059 120.198 211.157 119.737 211.157C119.222 211.157 118.739 211.057 118.288 210.856C117.837 210.651 117.44 210.371 117.099 210.016C116.757 209.66 116.488 209.252 116.292 208.792C116.101 208.332 116.005 207.846 116.005 207.336C116.005 206.83 116.098 206.347 116.285 205.887C116.477 205.422 116.741 205.009 117.078 204.649C117.42 204.285 117.816 204 118.268 203.795C118.723 203.585 119.218 203.48 119.751 203.48ZM122.109 207.322C122.109 206.876 122.005 206.465 121.795 206.092C121.59 205.718 121.31 205.417 120.954 205.189C120.599 204.962 120.193 204.848 119.737 204.848C119.291 204.848 118.887 204.962 118.527 205.189C118.167 205.417 117.882 205.72 117.673 206.099C117.463 206.472 117.358 206.878 117.358 207.315C117.358 207.757 117.465 208.168 117.68 208.546C117.894 208.92 118.181 209.22 118.541 209.448C118.906 209.676 119.307 209.79 119.744 209.79C120.182 209.79 120.578 209.676 120.934 209.448C121.294 209.22 121.578 208.92 121.788 208.546C122.002 208.168 122.109 207.76 122.109 207.322ZM128.385 207.322C128.385 206.807 128.48 206.306 128.672 205.818C128.863 205.331 129.146 204.9 129.52 204.526C129.852 204.203 130.235 203.952 130.668 203.774C131.101 203.597 131.55 203.508 132.015 203.508C132.489 203.508 132.91 203.608 133.279 203.809C133.648 204.009 133.979 204.28 134.271 204.622V201.744C134.271 201.557 134.337 201.398 134.469 201.266C134.605 201.129 134.767 201.061 134.954 201.061C135.141 201.061 135.3 201.129 135.433 201.266C135.569 201.398 135.638 201.557 135.638 201.744V210.474C135.638 210.66 135.569 210.822 135.433 210.959C135.3 211.091 135.141 211.157 134.954 211.157C134.767 211.157 134.626 211.091 134.53 210.959C134.439 210.822 134.38 210.66 134.353 210.474L134.271 209.92C134.011 210.294 133.667 210.588 133.238 210.802C132.814 211.016 132.391 211.123 131.967 211.123C131.452 211.123 130.976 211.021 130.538 210.815C130.105 210.61 129.727 210.332 129.403 209.981C129.08 209.626 128.829 209.22 128.651 208.765C128.474 208.309 128.385 207.828 128.385 207.322ZM131.953 209.756C132.249 209.756 132.543 209.69 132.835 209.558C133.127 209.425 133.375 209.248 133.58 209.024C133.785 208.797 133.942 208.53 134.052 208.225C134.166 207.919 134.223 207.607 134.223 207.288C134.223 206.851 134.127 206.447 133.936 206.078C133.744 205.709 133.48 205.413 133.143 205.189C132.81 204.966 132.425 204.854 131.987 204.854C131.559 204.854 131.174 204.973 130.832 205.21C130.495 205.442 130.228 205.748 130.032 206.126C129.841 206.5 129.745 206.898 129.745 207.322C129.745 207.746 129.841 208.145 130.032 208.519C130.224 208.888 130.486 209.186 130.818 209.414C131.156 209.642 131.534 209.756 131.953 209.756ZM140.587 203.48C140.924 203.48 141.252 203.549 141.571 203.686C141.895 203.818 142.182 203.986 142.433 204.191C142.688 204.392 142.877 204.599 143 204.813L143.075 204.157C143.075 203.97 143.13 203.811 143.239 203.679C143.349 203.542 143.497 203.474 143.684 203.474C143.87 203.474 144.03 203.542 144.162 203.679C144.299 203.811 144.367 203.97 144.367 204.157V204.171L144.354 210.501C144.354 210.688 144.285 210.85 144.148 210.986C144.016 211.118 143.857 211.185 143.67 211.185C143.483 211.185 143.335 211.118 143.226 210.986C143.116 210.85 143.062 210.688 143.062 210.501L142.986 209.954C142.749 210.36 142.403 210.663 141.947 210.863C141.492 211.059 141.034 211.157 140.573 211.157C140.058 211.157 139.575 211.057 139.124 210.856C138.673 210.651 138.276 210.371 137.935 210.016C137.593 209.66 137.324 209.252 137.128 208.792C136.937 208.332 136.841 207.846 136.841 207.336C136.841 206.83 136.934 206.347 137.121 205.887C137.312 205.422 137.577 205.009 137.914 204.649C138.256 204.285 138.652 204 139.104 203.795C139.559 203.585 140.054 203.48 140.587 203.48ZM142.945 207.322C142.945 206.876 142.84 206.465 142.631 206.092C142.426 205.718 142.146 205.417 141.79 205.189C141.435 204.962 141.029 204.848 140.573 204.848C140.127 204.848 139.723 204.962 139.363 205.189C139.003 205.417 138.718 205.72 138.509 206.099C138.299 206.472 138.194 206.878 138.194 207.315C138.194 207.757 138.301 208.168 138.516 208.546C138.73 208.92 139.017 209.22 139.377 209.448C139.742 209.676 140.143 209.79 140.58 209.79C141.018 209.79 141.414 209.676 141.77 209.448C142.13 209.22 142.414 208.92 142.624 208.546C142.838 208.168 142.945 207.76 142.945 207.322ZM146.438 202.811C146.229 202.811 146.058 202.747 145.926 202.619C145.794 202.487 145.725 202.325 145.721 202.134L145.707 201.614C145.707 201.441 145.785 201.302 145.939 201.197C146.094 201.088 146.243 201.033 146.384 201.033C146.575 201.033 146.735 201.099 146.862 201.231C146.994 201.364 147.063 201.523 147.067 201.71L147.074 202.12C147.074 202.298 147.015 202.457 146.896 202.599C146.778 202.74 146.625 202.811 146.438 202.811ZM145.7 204.103C145.7 203.929 145.773 203.788 145.919 203.679C146.065 203.569 146.206 203.515 146.343 203.515C146.543 203.515 146.714 203.574 146.855 203.692C146.997 203.811 147.067 203.968 147.067 204.164V204.171L147.081 210.501C147.081 210.683 147.013 210.838 146.876 210.966C146.744 211.093 146.584 211.157 146.397 211.157C146.206 211.157 146.044 211.093 145.912 210.966C145.78 210.834 145.714 210.676 145.714 210.494L145.7 204.103ZM149.029 201.026C149.248 201.026 149.424 201.099 149.556 201.245C149.688 201.386 149.752 201.541 149.747 201.71V210.515C149.747 210.697 149.674 210.845 149.528 210.959C149.387 211.068 149.246 211.123 149.104 211.123C148.909 211.123 148.738 211.059 148.592 210.932C148.451 210.804 148.38 210.64 148.38 210.439V201.71C148.38 201.537 148.441 201.38 148.564 201.238C148.692 201.097 148.847 201.026 149.029 201.026ZM151.251 203.474C151.383 203.474 151.506 203.512 151.62 203.59C151.739 203.667 151.823 203.763 151.873 203.877L154.197 209.161L156.187 203.925C156.237 203.802 156.319 203.699 156.433 203.617C156.551 203.535 156.681 203.494 156.822 203.494C157.009 203.494 157.169 203.562 157.301 203.699C157.438 203.831 157.506 203.991 157.506 204.178C157.506 204.273 157.488 204.362 157.451 204.444L154.936 211.007C154.926 211.066 154.91 211.118 154.888 211.164C154.865 211.21 154.842 211.251 154.819 211.287L154.437 212.244C154.341 212.481 154.227 212.732 154.095 212.996C153.963 213.265 153.78 213.518 153.548 213.755C153.325 213.987 153.051 214.183 152.728 214.343C152.409 214.502 152.074 214.582 151.723 214.582C151.531 214.582 151.369 214.511 151.237 214.37C151.105 214.233 151.039 214.072 151.039 213.885C151.039 213.702 151.101 213.543 151.224 213.406C151.351 213.274 151.504 213.206 151.682 213.201C152.083 213.174 152.393 213.017 152.611 212.729C152.83 212.447 153.017 212.112 153.172 211.725L153.5 210.891L150.629 204.451C150.588 204.355 150.567 204.257 150.567 204.157C150.567 203.97 150.633 203.811 150.766 203.679C150.902 203.542 151.064 203.474 151.251 203.474ZM169.448 207.336C169.448 207.851 169.353 208.352 169.161 208.84C168.974 209.327 168.692 209.758 168.313 210.132C167.981 210.455 167.598 210.706 167.165 210.884C166.732 211.062 166.283 211.15 165.818 211.15C165.344 211.15 164.923 211.05 164.554 210.85C164.189 210.649 163.859 210.378 163.562 210.036V212.914C163.562 213.101 163.494 213.26 163.357 213.393C163.225 213.529 163.066 213.598 162.879 213.598C162.692 213.598 162.53 213.529 162.394 213.393C162.261 213.26 162.195 213.101 162.195 212.914V204.185C162.195 203.998 162.261 203.838 162.394 203.706C162.53 203.569 162.692 203.501 162.879 203.501C163.066 203.501 163.205 203.569 163.296 203.706C163.392 203.838 163.453 203.998 163.48 204.185L163.562 204.738C163.822 204.365 164.164 204.071 164.588 203.856C165.016 203.642 165.442 203.535 165.866 203.535C166.381 203.535 166.855 203.638 167.288 203.843C167.726 204.048 168.106 204.328 168.43 204.684C168.753 205.035 169.004 205.438 169.182 205.894C169.359 206.349 169.448 206.83 169.448 207.336ZM165.88 204.902C165.584 204.902 165.29 204.968 164.998 205.101C164.706 205.228 164.458 205.406 164.253 205.634C164.048 205.857 163.888 206.124 163.774 206.434C163.665 206.739 163.61 207.051 163.61 207.37C163.61 207.808 163.706 208.211 163.897 208.58C164.089 208.949 164.353 209.245 164.69 209.469C165.028 209.692 165.413 209.804 165.846 209.804C166.279 209.804 166.664 209.688 167.001 209.455C167.338 209.218 167.603 208.913 167.794 208.539C167.99 208.161 168.088 207.76 168.088 207.336C168.088 206.908 167.992 206.509 167.801 206.14C167.609 205.771 167.347 205.472 167.015 205.244C166.682 205.016 166.304 204.902 165.88 204.902ZM171.096 201.026C171.314 201.026 171.49 201.099 171.622 201.245C171.754 201.386 171.818 201.541 171.813 201.71V210.515C171.813 210.697 171.741 210.845 171.595 210.959C171.453 211.068 171.312 211.123 171.171 211.123C170.975 211.123 170.804 211.059 170.658 210.932C170.517 210.804 170.446 210.64 170.446 210.439V201.71C170.446 201.537 170.508 201.38 170.631 201.238C170.758 201.097 170.913 201.026 171.096 201.026ZM176.722 203.48C177.059 203.48 177.387 203.549 177.706 203.686C178.03 203.818 178.317 203.986 178.567 204.191C178.823 204.392 179.012 204.599 179.135 204.813L179.21 204.157C179.21 203.97 179.265 203.811 179.374 203.679C179.483 203.542 179.632 203.474 179.818 203.474C180.005 203.474 180.165 203.542 180.297 203.679C180.434 203.811 180.502 203.97 180.502 204.157V204.171L180.488 210.501C180.488 210.688 180.42 210.85 180.283 210.986C180.151 211.118 179.992 211.185 179.805 211.185C179.618 211.185 179.47 211.118 179.36 210.986C179.251 210.85 179.196 210.688 179.196 210.501L179.121 209.954C178.884 210.36 178.538 210.663 178.082 210.863C177.626 211.059 177.168 211.157 176.708 211.157C176.193 211.157 175.71 211.057 175.259 210.856C174.808 210.651 174.411 210.371 174.069 210.016C173.728 209.66 173.459 209.252 173.263 208.792C173.071 208.332 172.976 207.846 172.976 207.336C172.976 206.83 173.069 206.347 173.256 205.887C173.447 205.422 173.712 205.009 174.049 204.649C174.391 204.285 174.787 204 175.238 203.795C175.694 203.585 176.188 203.48 176.722 203.48ZM179.08 207.322C179.08 206.876 178.975 206.465 178.766 206.092C178.561 205.718 178.28 205.417 177.925 205.189C177.569 204.962 177.164 204.848 176.708 204.848C176.261 204.848 175.858 204.962 175.498 205.189C175.138 205.417 174.853 205.72 174.644 206.099C174.434 206.472 174.329 206.878 174.329 207.315C174.329 207.757 174.436 208.168 174.65 208.546C174.865 208.92 175.152 209.22 175.512 209.448C175.876 209.676 176.277 209.79 176.715 209.79C177.152 209.79 177.549 209.676 177.904 209.448C178.264 209.22 178.549 208.92 178.759 208.546C178.973 208.168 179.08 207.76 179.08 207.322ZM182.04 203.474C182.172 203.474 182.295 203.512 182.409 203.59C182.528 203.667 182.612 203.763 182.662 203.877L184.986 209.161L186.976 203.925C187.026 203.802 187.108 203.699 187.222 203.617C187.34 203.535 187.47 203.494 187.611 203.494C187.798 203.494 187.958 203.562 188.09 203.699C188.227 203.831 188.295 203.991 188.295 204.178C188.295 204.273 188.277 204.362 188.24 204.444L185.725 211.007C185.715 211.066 185.7 211.118 185.677 211.164C185.654 211.21 185.631 211.251 185.608 211.287L185.226 212.244C185.13 212.481 185.016 212.732 184.884 212.996C184.752 213.265 184.569 213.518 184.337 213.755C184.114 213.987 183.84 214.183 183.517 214.343C183.198 214.502 182.863 214.582 182.512 214.582C182.32 214.582 182.159 214.511 182.026 214.37C181.894 214.233 181.828 214.072 181.828 213.885C181.828 213.702 181.89 213.543 182.013 213.406C182.14 213.274 182.293 213.206 182.471 213.201C182.872 213.174 183.182 213.017 183.4 212.729C183.619 212.447 183.806 212.112 183.961 211.725L184.289 210.891L181.418 204.451C181.377 204.355 181.356 204.257 181.356 204.157C181.356 203.97 181.423 203.811 181.555 203.679C181.691 203.542 181.853 203.474 182.04 203.474ZM189.86 202.811C189.651 202.811 189.48 202.747 189.348 202.619C189.215 202.487 189.147 202.325 189.143 202.134L189.129 201.614C189.129 201.441 189.206 201.302 189.361 201.197C189.516 201.088 189.664 201.033 189.806 201.033C189.997 201.033 190.157 201.099 190.284 201.231C190.416 201.364 190.485 201.523 190.489 201.71L190.496 202.12C190.496 202.298 190.437 202.457 190.318 202.599C190.2 202.74 190.047 202.811 189.86 202.811ZM189.122 204.103C189.122 203.929 189.195 203.788 189.341 203.679C189.487 203.569 189.628 203.515 189.765 203.515C189.965 203.515 190.136 203.574 190.277 203.692C190.419 203.811 190.489 203.968 190.489 204.164V204.171L190.503 210.501C190.503 210.683 190.435 210.838 190.298 210.966C190.166 211.093 190.006 211.157 189.819 211.157C189.628 211.157 189.466 211.093 189.334 210.966C189.202 210.834 189.136 210.676 189.136 210.494L189.122 204.103ZM193.169 204.595C193.415 204.353 193.709 204.114 194.051 203.877C194.397 203.64 194.798 203.521 195.254 203.521C195.851 203.521 196.348 203.681 196.744 204C197.141 204.314 197.432 204.681 197.619 205.101C197.765 205.433 197.852 205.764 197.879 206.092C197.911 206.415 197.927 206.721 197.927 207.008V210.46C197.927 210.647 197.858 210.809 197.722 210.945C197.59 211.077 197.43 211.144 197.243 211.144C197.056 211.144 196.895 211.077 196.758 210.945C196.626 210.809 196.56 210.647 196.56 210.46V207.008C196.56 206.739 196.546 206.491 196.519 206.263C196.496 206.035 196.446 205.834 196.368 205.661C196.282 205.461 196.147 205.283 195.965 205.128C195.783 204.968 195.55 204.889 195.268 204.889C194.593 204.889 194.074 205.146 193.709 205.661C193.349 206.176 193.171 206.871 193.176 207.746L193.183 210.474C193.183 210.66 193.114 210.822 192.978 210.959C192.845 211.091 192.686 211.157 192.499 211.157C192.308 211.157 192.146 211.091 192.014 210.959C191.882 210.822 191.815 210.658 191.815 210.467L191.802 204.185C191.802 203.998 191.852 203.838 191.952 203.706C192.057 203.569 192.203 203.501 192.39 203.501C192.576 203.501 192.72 203.569 192.82 203.706C192.921 203.838 192.998 203.998 193.053 204.185L193.169 204.595ZM205.453 203.487C205.64 203.487 205.799 203.556 205.932 203.692C206.068 203.825 206.137 203.984 206.137 204.171V204.185L206.089 210.713C206.084 211.223 205.979 211.704 205.774 212.155C205.574 212.606 205.296 213.005 204.94 213.352C204.585 213.698 204.177 213.969 203.717 214.165C203.261 214.361 202.776 214.459 202.261 214.459C201.682 214.459 201.128 214.331 200.6 214.076C200.076 213.826 199.631 213.472 199.267 213.017C199.162 212.884 199.109 212.739 199.109 212.579C199.109 212.392 199.175 212.23 199.308 212.094C199.444 211.962 199.606 211.896 199.793 211.896C199.884 211.896 199.982 211.921 200.087 211.971C200.196 212.021 200.281 212.085 200.34 212.162C200.568 212.445 200.855 212.67 201.201 212.839C201.552 213.007 201.908 213.092 202.268 213.092C202.71 213.092 203.115 212.982 203.484 212.764C203.858 212.545 204.157 212.253 204.38 211.889C204.608 211.524 204.722 211.125 204.722 210.692V210.022C204.453 210.442 204.127 210.731 203.744 210.891C203.366 211.046 202.979 211.123 202.582 211.123C202.085 211.123 201.623 211.016 201.194 210.802C200.771 210.588 200.401 210.298 200.087 209.934C199.772 209.569 199.526 209.157 199.349 208.696C199.175 208.231 199.089 207.753 199.089 207.261C199.089 206.769 199.175 206.299 199.349 205.853C199.526 205.401 199.772 205 200.087 204.649C200.401 204.299 200.771 204.021 201.194 203.815C201.618 203.61 202.081 203.508 202.582 203.508C203.015 203.508 203.421 203.608 203.799 203.809C204.177 204.009 204.498 204.314 204.763 204.725L204.865 204.178C204.902 203.991 204.961 203.829 205.043 203.692C205.125 203.556 205.262 203.487 205.453 203.487ZM204.708 207.268C204.708 206.853 204.617 206.465 204.435 206.105C204.252 205.741 204.002 205.445 203.683 205.217C203.368 204.989 203.008 204.875 202.603 204.875C202.188 204.875 201.819 204.989 201.495 205.217C201.176 205.44 200.923 205.734 200.736 206.099C200.554 206.459 200.463 206.846 200.463 207.261C200.463 207.671 200.554 208.067 200.736 208.45C200.919 208.828 201.169 209.141 201.488 209.387C201.807 209.633 202.172 209.756 202.582 209.756C202.988 209.756 203.35 209.635 203.669 209.394C203.993 209.152 204.245 208.842 204.428 208.464C204.615 208.081 204.708 207.682 204.708 207.268ZM215.864 204.376C215.864 204.741 215.689 204.943 215.338 204.984C215.21 204.998 215.049 204.957 214.853 204.861C214.657 204.761 214.458 204.711 214.258 204.711C213.861 204.711 213.547 204.813 213.314 205.019C213.082 205.219 212.916 205.49 212.815 205.832C212.715 206.174 212.665 206.557 212.665 206.98V210.508C212.665 210.708 212.604 210.868 212.48 210.986C212.362 211.105 212.196 211.164 211.981 211.164C211.772 211.164 211.605 211.105 211.482 210.986C211.359 210.868 211.298 210.706 211.298 210.501V204.205C211.298 204 211.348 203.831 211.448 203.699C211.553 203.567 211.694 203.501 211.872 203.501C211.977 203.501 212.098 203.547 212.234 203.638C212.376 203.724 212.474 203.875 212.528 204.089L212.597 204.581C212.656 204.453 212.77 204.305 212.938 204.137C213.107 203.968 213.308 203.822 213.54 203.699C213.772 203.572 214.014 203.508 214.265 203.508C214.729 203.508 215.112 203.562 215.413 203.672C215.714 203.777 215.864 204.011 215.864 204.376ZM219.952 203.48C220.289 203.48 220.618 203.549 220.937 203.686C221.26 203.818 221.547 203.986 221.798 204.191C222.053 204.392 222.242 204.599 222.365 204.813L222.44 204.157C222.44 203.97 222.495 203.811 222.604 203.679C222.714 203.542 222.862 203.474 223.049 203.474C223.236 203.474 223.395 203.542 223.527 203.679C223.664 203.811 223.732 203.97 223.732 204.157V204.171L223.719 210.501C223.719 210.688 223.65 210.85 223.514 210.986C223.382 211.118 223.222 211.185 223.035 211.185C222.848 211.185 222.7 211.118 222.591 210.986C222.481 210.85 222.427 210.688 222.427 210.501L222.352 209.954C222.115 210.36 221.768 210.663 221.312 210.863C220.857 211.059 220.399 211.157 219.938 211.157C219.424 211.157 218.94 211.057 218.489 210.856C218.038 210.651 217.642 210.371 217.3 210.016C216.958 209.66 216.689 209.252 216.493 208.792C216.302 208.332 216.206 207.846 216.206 207.336C216.206 206.83 216.299 206.347 216.486 205.887C216.678 205.422 216.942 205.009 217.279 204.649C217.621 204.285 218.018 204 218.469 203.795C218.924 203.585 219.419 203.48 219.952 203.48ZM222.311 207.322C222.311 206.876 222.206 206.465 221.996 206.092C221.791 205.718 221.511 205.417 221.155 205.189C220.8 204.962 220.394 204.848 219.938 204.848C219.492 204.848 219.089 204.962 218.729 205.189C218.368 205.417 218.084 205.72 217.874 206.099C217.664 206.472 217.56 206.878 217.56 207.315C217.56 207.757 217.667 208.168 217.881 208.546C218.095 208.92 218.382 209.22 218.742 209.448C219.107 209.676 219.508 209.79 219.945 209.79C220.383 209.79 220.779 209.676 221.135 209.448C221.495 209.22 221.78 208.92 221.989 208.546C222.203 208.168 222.311 207.76 222.311 207.322ZM226.125 202.291C226.125 202.104 226.191 201.945 226.323 201.812C226.455 201.676 226.617 201.607 226.809 201.607C226.995 201.607 227.155 201.676 227.287 201.812C227.424 201.945 227.492 202.104 227.492 202.291V203.651H228.408C228.586 203.651 228.739 203.715 228.866 203.843C228.994 203.97 229.058 204.123 229.058 204.301C229.058 204.479 228.994 204.631 228.866 204.759C228.739 204.886 228.586 204.95 228.408 204.95H227.485L227.479 209.182V209.195C227.479 209.419 227.504 209.574 227.554 209.66C227.604 209.742 227.706 209.783 227.861 209.783C228.057 209.783 228.23 209.731 228.381 209.626C228.436 209.59 228.502 209.558 228.579 209.53C228.657 209.498 228.732 209.482 228.805 209.482C228.992 209.482 229.151 209.549 229.283 209.681C229.42 209.813 229.488 209.972 229.488 210.159C229.488 210.382 229.397 210.562 229.215 210.699C229.042 210.831 228.843 210.941 228.62 211.027C228.397 211.114 228.158 211.157 227.902 211.157C227.328 211.157 226.886 210.982 226.576 210.631C226.266 210.275 226.111 209.833 226.111 209.305V209.243L226.118 204.957H225.236C225.059 204.957 224.906 204.893 224.778 204.766C224.651 204.638 224.587 204.485 224.587 204.308C224.587 204.13 224.651 203.977 224.778 203.85C224.906 203.722 225.059 203.658 225.236 203.658H226.125V202.291ZM233.631 203.535C234.237 203.535 234.793 203.686 235.299 203.986C235.805 204.287 236.21 204.693 236.516 205.203C236.826 205.709 236.98 206.272 236.98 206.892C236.98 207.019 236.974 207.149 236.96 207.281C236.942 207.45 236.864 207.593 236.728 207.712C236.595 207.826 236.445 207.883 236.276 207.883L231.498 207.89C231.576 208.218 231.721 208.525 231.936 208.812C232.15 209.1 232.41 209.332 232.715 209.51C233.025 209.688 233.362 209.776 233.727 209.776C234.118 209.776 234.469 209.681 234.779 209.489C235.089 209.298 235.331 209.077 235.504 208.826C235.559 208.74 235.641 208.667 235.75 208.607C235.864 208.548 235.971 208.519 236.071 208.519C236.258 208.519 236.418 208.587 236.55 208.724C236.687 208.86 236.755 209.022 236.755 209.209C236.755 209.355 236.714 209.485 236.632 209.599C236.349 210.013 235.96 210.373 235.463 210.679C234.971 210.979 234.399 211.13 233.747 211.13C233.223 211.13 232.735 211.027 232.284 210.822C231.838 210.617 231.448 210.337 231.115 209.981C230.783 209.626 230.523 209.218 230.336 208.758C230.154 208.293 230.062 207.803 230.062 207.288C230.062 206.791 230.154 206.32 230.336 205.873C230.518 205.422 230.771 205.021 231.095 204.67C231.423 204.319 231.803 204.043 232.236 203.843C232.669 203.638 233.134 203.535 233.631 203.535ZM235.572 206.516C235.486 206.069 235.262 205.688 234.902 205.374C234.542 205.06 234.118 204.902 233.631 204.902C233.134 204.902 232.694 205.064 232.312 205.388C231.933 205.711 231.678 206.09 231.546 206.522L235.572 206.516Z" fill="#F72585"/>
<path d="M97.8877 299.871C99.2324 299.871 100.467 300.134 101.592 300.662C102.726 301.18 103.71 301.896 104.545 302.811C105.38 303.716 106.026 304.762 106.483 305.948C106.94 307.126 107.169 308.378 107.169 309.706C107.169 311.033 106.94 312.281 106.483 313.45C106.035 314.61 105.398 315.634 104.572 316.521C103.746 317.409 102.766 318.104 101.632 318.604C100.507 319.105 99.2632 319.356 97.9009 319.356C96.5122 319.356 95.251 319.105 94.1172 318.604C92.9834 318.095 92.0078 317.396 91.1904 316.508C90.3818 315.612 89.7578 314.579 89.3184 313.41C88.8789 312.232 88.6592 310.971 88.6592 309.626C88.6592 308.317 88.8877 307.078 89.3447 305.909C89.8105 304.74 90.4565 303.703 91.2827 302.797C92.1177 301.883 93.0933 301.167 94.2095 300.648C95.3345 300.13 96.5605 299.871 97.8877 299.871ZM97.9404 302.547C96.6396 302.547 95.4883 302.885 94.4863 303.562C93.4932 304.239 92.7109 305.135 92.1396 306.251C91.5771 307.359 91.2959 308.572 91.2959 309.89C91.2959 310.787 91.4673 311.644 91.8101 312.461C92.1528 313.278 92.6274 314.008 93.2339 314.649C93.8403 315.282 94.5391 315.783 95.3301 316.152C96.1299 316.513 96.9824 316.693 97.8877 316.693C98.793 316.693 99.6455 316.504 100.445 316.126C101.254 315.748 101.966 315.238 102.581 314.597C103.205 313.955 103.693 313.234 104.044 312.435C104.396 311.626 104.572 310.8 104.572 309.956C104.572 308.594 104.273 307.354 103.675 306.238C103.086 305.113 102.291 304.217 101.289 303.549C100.287 302.881 99.1709 302.547 97.9404 302.547ZM120.089 304.564C120.405 304.564 120.691 304.691 120.946 304.946C121.209 305.201 121.341 305.482 121.341 305.79C121.341 306.062 121.297 306.287 121.209 306.462L115.646 318.499C115.409 319 115.004 319.25 114.433 319.25C113.844 319.25 113.449 318.982 113.247 318.446L108.263 306.41C108.193 306.26 108.158 306.054 108.158 305.79C108.158 305.509 108.276 305.236 108.514 304.973C108.76 304.7 109.032 304.564 109.331 304.564C110.017 304.564 110.474 304.836 110.702 305.381L114.539 314.715L118.823 305.329C119.061 304.819 119.482 304.564 120.089 304.564ZM128.685 304.604C129.854 304.604 130.926 304.894 131.901 305.474C132.877 306.054 133.659 306.836 134.248 307.82C134.846 308.796 135.145 309.881 135.145 311.077C135.145 311.323 135.131 311.573 135.105 311.828C135.07 312.153 134.92 312.43 134.657 312.659C134.402 312.878 134.112 312.988 133.787 312.988L124.571 313.001C124.721 313.634 125.002 314.228 125.415 314.781C125.828 315.335 126.329 315.783 126.918 316.126C127.516 316.469 128.166 316.64 128.869 316.64C129.625 316.64 130.302 316.456 130.899 316.086C131.497 315.717 131.963 315.291 132.297 314.808C132.402 314.641 132.561 314.5 132.771 314.386C132.991 314.271 133.198 314.214 133.391 314.214C133.751 314.214 134.059 314.346 134.314 314.61C134.578 314.874 134.709 315.186 134.709 315.546C134.709 315.827 134.63 316.078 134.472 316.297C133.927 317.097 133.176 317.792 132.218 318.38C131.269 318.96 130.166 319.25 128.909 319.25C127.898 319.25 126.958 319.053 126.087 318.657C125.226 318.262 124.475 317.721 123.833 317.036C123.191 316.35 122.69 315.563 122.33 314.676C121.979 313.779 121.803 312.834 121.803 311.841C121.803 310.883 121.979 309.974 122.33 309.112C122.682 308.242 123.169 307.469 123.793 306.792C124.426 306.115 125.16 305.583 125.995 305.197C126.83 304.801 127.727 304.604 128.685 304.604ZM132.429 310.352C132.262 309.49 131.831 308.756 131.137 308.15C130.442 307.543 129.625 307.24 128.685 307.24C127.727 307.24 126.878 307.552 126.14 308.176C125.411 308.8 124.918 309.53 124.664 310.365L132.429 310.352ZM145.995 306.225C145.995 306.928 145.656 307.319 144.979 307.398C144.733 307.425 144.421 307.346 144.043 307.161C143.666 306.968 143.283 306.871 142.896 306.871C142.132 306.871 141.525 307.069 141.077 307.464C140.629 307.851 140.308 308.374 140.115 309.033C139.921 309.692 139.825 310.431 139.825 311.248V318.051C139.825 318.438 139.706 318.745 139.469 318.974C139.24 319.202 138.919 319.316 138.506 319.316C138.102 319.316 137.781 319.202 137.544 318.974C137.307 318.745 137.188 318.433 137.188 318.038V305.896C137.188 305.5 137.285 305.175 137.478 304.92C137.68 304.665 137.953 304.538 138.295 304.538C138.498 304.538 138.73 304.625 138.994 304.801C139.267 304.968 139.456 305.258 139.561 305.671L139.693 306.621C139.807 306.375 140.027 306.089 140.352 305.764C140.677 305.438 141.064 305.157 141.512 304.92C141.96 304.674 142.426 304.551 142.91 304.551C143.806 304.551 144.544 304.656 145.125 304.867C145.705 305.069 145.995 305.522 145.995 306.225ZM162.474 319.237C161.208 319.237 160.11 318.965 159.178 318.42C158.247 317.866 157.473 317.128 156.858 316.205C156.243 315.273 155.781 314.236 155.474 313.094C155.175 311.951 155.025 310.787 155.025 309.6C155.025 308.431 155.184 307.302 155.5 306.212C155.816 305.113 156.287 304.129 156.911 303.259C157.543 302.38 158.326 301.686 159.257 301.176C160.198 300.657 161.288 300.398 162.527 300.398C163.784 300.398 164.878 300.701 165.81 301.308C166.741 301.905 167.453 302.622 167.945 303.457C168.068 303.641 168.13 303.883 168.13 304.182C168.13 304.472 168.007 304.749 167.761 305.012C167.523 305.276 167.247 305.408 166.93 305.408C166.35 305.408 165.924 305.192 165.651 304.762C165.37 304.296 164.957 303.892 164.412 303.549C163.876 303.197 163.248 303.021 162.527 303.021C161.525 303.021 160.681 303.281 159.996 303.799C159.319 304.318 158.792 305.008 158.414 305.869C158.044 306.722 157.812 307.658 157.715 308.677C158.251 308.115 158.915 307.636 159.706 307.24C160.505 306.845 161.349 306.647 162.237 306.647C163.485 306.647 164.605 306.928 165.599 307.491C166.592 308.053 167.378 308.818 167.958 309.785C168.539 310.751 168.829 311.846 168.829 313.067C168.829 314.157 168.556 315.172 168.011 316.113C167.475 317.053 166.728 317.809 165.77 318.38C164.821 318.952 163.722 319.237 162.474 319.237ZM162.527 316.614C163.608 316.614 164.487 316.267 165.164 315.572C165.849 314.869 166.192 313.99 166.192 312.936C166.192 312.276 166.016 311.67 165.665 311.116C165.322 310.554 164.865 310.105 164.293 309.771C163.722 309.429 163.089 309.257 162.395 309.257C161.701 309.257 161.063 309.429 160.483 309.771C159.912 310.114 159.455 310.567 159.112 311.129C158.778 311.692 158.611 312.307 158.611 312.975C158.611 313.643 158.8 314.254 159.178 314.808C159.556 315.353 160.044 315.792 160.642 316.126C161.239 316.451 161.868 316.614 162.527 316.614ZM173.509 311.222C173.157 311.222 172.841 311.116 172.56 310.905C172.287 310.694 172.151 310.404 172.151 310.035L173.548 301.954C173.601 301.628 173.75 301.365 173.997 301.163C174.243 300.952 174.524 300.846 174.84 300.846H182.909C183.234 300.846 183.533 300.965 183.805 301.202C184.086 301.439 184.227 301.725 184.227 302.059C184.227 302.446 184.104 302.78 183.858 303.061C183.621 303.342 183.304 303.483 182.909 303.483H175.948L175.341 306.897C176.141 306.555 176.976 306.383 177.846 306.383C179.085 306.383 180.202 306.665 181.195 307.227C182.197 307.79 182.992 308.559 183.581 309.534C184.17 310.501 184.464 311.595 184.464 312.817C184.464 314.047 184.161 315.155 183.555 316.139C182.957 317.124 182.148 317.901 181.129 318.473C180.118 319.044 178.984 319.33 177.728 319.33C176.77 319.33 175.891 319.158 175.091 318.815C174.291 318.473 173.592 318.02 172.995 317.458C172.406 316.886 171.944 316.267 171.61 315.599C171.522 315.414 171.479 315.199 171.479 314.953C171.479 314.654 171.606 314.386 171.861 314.148C172.125 313.911 172.41 313.792 172.718 313.792C173.315 313.792 173.737 314.03 173.983 314.504C174.3 315.102 174.779 315.616 175.42 316.047C176.062 316.478 176.835 316.693 177.741 316.693C178.514 316.693 179.208 316.526 179.824 316.192C180.439 315.849 180.927 315.388 181.287 314.808C181.647 314.228 181.828 313.573 181.828 312.843C181.828 311.753 181.441 310.848 180.667 310.127C179.903 309.407 178.905 309.046 177.675 309.046C177.06 309.046 176.453 309.222 175.855 309.574C175.267 309.925 174.832 310.294 174.55 310.681C174.304 311.042 173.957 311.222 173.509 311.222ZM187.114 317.167C187.114 316.693 187.286 316.258 187.628 315.862C187.98 315.467 188.384 315.269 188.841 315.269C189.254 315.269 189.597 315.339 189.87 315.48C190.722 315.937 191.148 316.684 191.148 317.721C191.148 318.205 191.056 318.754 190.872 319.369C190.441 320.802 189.676 321.883 188.578 322.612C188.411 322.727 188.235 322.784 188.05 322.784C187.804 322.784 187.589 322.687 187.404 322.494C187.229 322.3 187.141 322.067 187.141 321.795C187.141 321.505 187.294 321.254 187.602 321.043C188.314 320.578 188.793 319.918 189.039 319.066H189.013C188.494 319.066 188.046 318.881 187.668 318.512C187.299 318.134 187.114 317.686 187.114 317.167ZM200.786 319.33C199.555 319.33 198.496 319.07 197.608 318.552C196.721 318.024 195.996 317.317 195.433 316.429C194.871 315.533 194.453 314.535 194.181 313.437C193.917 312.329 193.785 311.195 193.785 310.035C193.785 308.831 193.921 307.675 194.194 306.568C194.475 305.452 194.906 304.458 195.486 303.588C196.075 302.709 196.826 302.015 197.74 301.505C198.654 300.996 199.749 300.741 201.023 300.741C202.227 300.767 203.26 301.044 204.121 301.571C204.991 302.09 205.703 302.784 206.257 303.654C206.811 304.524 207.219 305.5 207.483 306.581C207.747 307.662 207.878 308.778 207.878 309.93C207.878 311.143 207.742 312.312 207.47 313.437C207.197 314.553 206.775 315.555 206.204 316.442C205.633 317.33 204.899 318.033 204.002 318.552C203.106 319.07 202.034 319.33 200.786 319.33ZM200.838 316.693C201.884 316.693 202.728 316.376 203.37 315.744C204.02 315.102 204.495 314.263 204.793 313.226C205.092 312.18 205.242 311.046 205.242 309.824C205.242 308.682 205.088 307.623 204.78 306.647C204.481 305.663 204.011 304.872 203.37 304.274C202.728 303.676 201.897 303.377 200.878 303.377C199.841 303.377 198.993 303.685 198.333 304.3C197.674 304.907 197.191 305.711 196.883 306.713C196.576 307.715 196.422 308.813 196.422 310.009C196.422 311.204 196.571 312.312 196.87 313.331C197.178 314.342 197.657 315.155 198.307 315.77C198.958 316.385 199.801 316.693 200.838 316.693ZM217.529 319.33C216.298 319.33 215.239 319.07 214.352 318.552C213.464 318.024 212.739 317.317 212.176 316.429C211.614 315.533 211.196 314.535 210.924 313.437C210.66 312.329 210.528 311.195 210.528 310.035C210.528 308.831 210.665 307.675 210.937 306.568C211.218 305.452 211.649 304.458 212.229 303.588C212.818 302.709 213.569 302.015 214.483 301.505C215.397 300.996 216.492 300.741 217.766 300.741C218.97 300.767 220.003 301.044 220.864 301.571C221.734 302.09 222.446 302.784 223 303.654C223.554 304.524 223.962 305.5 224.226 306.581C224.49 307.662 224.622 308.778 224.622 309.93C224.622 311.143 224.485 312.312 224.213 313.437C223.94 314.553 223.519 315.555 222.947 316.442C222.376 317.33 221.642 318.033 220.746 318.552C219.849 319.07 218.777 319.33 217.529 319.33ZM217.582 316.693C218.627 316.693 219.471 316.376 220.113 315.744C220.763 315.102 221.238 314.263 221.537 313.226C221.835 312.18 221.985 311.046 221.985 309.824C221.985 308.682 221.831 307.623 221.523 306.647C221.225 305.663 220.754 304.872 220.113 304.274C219.471 303.676 218.641 303.377 217.621 303.377C216.584 303.377 215.736 303.685 215.077 304.3C214.417 304.907 213.934 305.711 213.626 306.713C213.319 307.715 213.165 308.813 213.165 310.009C213.165 311.204 213.314 312.312 213.613 313.331C213.921 314.342 214.4 315.155 215.05 315.77C215.701 316.385 216.544 316.693 217.582 316.693ZM234.272 319.33C233.042 319.33 231.982 319.07 231.095 318.552C230.207 318.024 229.482 317.317 228.919 316.429C228.357 315.533 227.939 314.535 227.667 313.437C227.403 312.329 227.271 311.195 227.271 310.035C227.271 308.831 227.408 307.675 227.68 306.568C227.961 305.452 228.392 304.458 228.972 303.588C229.561 302.709 230.312 302.015 231.227 301.505C232.141 300.996 233.235 300.741 234.509 300.741C235.713 300.767 236.746 301.044 237.607 301.571C238.478 302.09 239.189 302.784 239.743 303.654C240.297 304.524 240.706 305.5 240.969 306.581C241.233 307.662 241.365 308.778 241.365 309.93C241.365 311.143 241.229 312.312 240.956 313.437C240.684 314.553 240.262 315.555 239.69 316.442C239.119 317.33 238.385 318.033 237.489 318.552C236.592 319.07 235.52 319.33 234.272 319.33ZM234.325 316.693C235.371 316.693 236.214 316.376 236.856 315.744C237.506 315.102 237.981 314.263 238.28 313.226C238.579 312.18 238.728 311.046 238.728 309.824C238.728 308.682 238.574 307.623 238.267 306.647C237.968 305.663 237.498 304.872 236.856 304.274C236.214 303.676 235.384 303.377 234.364 303.377C233.327 303.377 232.479 303.685 231.82 304.3C231.161 304.907 230.677 305.711 230.37 306.713C230.062 307.715 229.908 308.813 229.908 310.009C229.908 311.204 230.058 312.312 230.356 313.331C230.664 314.342 231.143 315.155 231.793 315.77C232.444 316.385 233.288 316.693 234.325 316.693Z" fill="white"/>
<path d="M118.156 331.464C118.206 331.35 118.291 331.254 118.409 331.177C118.532 331.095 118.658 331.054 118.785 331.054C118.908 331.054 119.031 331.095 119.154 331.177C119.282 331.254 119.368 331.35 119.414 331.464L123.174 340.187C123.215 340.278 123.235 340.371 123.235 340.467C123.235 340.654 123.167 340.815 123.03 340.952C122.898 341.084 122.739 341.15 122.552 341.15C122.424 341.15 122.299 341.109 122.176 341.027C122.053 340.945 121.966 340.847 121.916 340.733L120.747 338.02L116.851 337.965L115.654 340.74C115.609 340.854 115.524 340.952 115.401 341.034C115.278 341.121 115.153 341.164 115.025 341.164C114.839 341.164 114.677 341.098 114.54 340.966C114.408 340.829 114.342 340.667 114.342 340.48C114.342 340.385 114.362 340.291 114.403 340.2L118.156 331.464ZM118.785 333.467L117.438 336.604L120.152 336.639L118.785 333.467ZM123.639 337.315C123.639 336.81 123.728 336.329 123.905 335.873C124.083 335.417 124.334 335.012 124.657 334.656C124.981 334.301 125.357 334.021 125.785 333.815C126.218 333.61 126.688 333.508 127.193 333.508C127.695 333.508 128.148 333.606 128.554 333.802C128.964 333.993 129.315 334.248 129.606 334.567C129.903 334.882 130.124 335.226 130.27 335.6C130.301 335.677 130.317 335.764 130.317 335.859C130.317 336.046 130.249 336.208 130.112 336.345C129.98 336.477 129.821 336.543 129.634 336.543C129.506 336.543 129.381 336.5 129.258 336.413C129.135 336.326 129.048 336.222 128.998 336.099C128.87 335.771 128.647 335.486 128.328 335.244C128.014 334.998 127.635 334.875 127.193 334.875C126.779 334.875 126.405 334.991 126.072 335.224C125.744 335.451 125.484 335.75 125.293 336.119C125.102 336.488 125.006 336.887 125.006 337.315C125.006 337.748 125.104 338.156 125.3 338.539C125.496 338.917 125.765 339.225 126.106 339.462C126.448 339.694 126.833 339.811 127.262 339.811C127.681 339.811 128.043 339.706 128.349 339.496C128.654 339.282 128.884 339.034 129.039 338.751C129.094 338.651 129.18 338.566 129.299 338.498C129.417 338.425 129.534 338.389 129.647 338.389C129.834 338.389 129.994 338.457 130.126 338.594C130.263 338.726 130.331 338.885 130.331 339.072C130.331 339.186 130.301 339.298 130.242 339.407C129.982 339.886 129.595 340.3 129.08 340.651C128.565 341.002 127.959 341.178 127.262 341.178C126.742 341.178 126.261 341.075 125.819 340.87C125.382 340.66 124.999 340.376 124.671 340.016C124.347 339.656 124.094 339.245 123.912 338.785C123.73 338.32 123.639 337.83 123.639 337.315ZM132.443 332.291C132.443 332.104 132.509 331.945 132.642 331.812C132.774 331.676 132.936 331.607 133.127 331.607C133.314 331.607 133.473 331.676 133.605 331.812C133.742 331.945 133.811 332.104 133.811 332.291V333.651H134.727C134.904 333.651 135.057 333.715 135.185 333.843C135.312 333.97 135.376 334.123 135.376 334.301C135.376 334.479 135.312 334.631 135.185 334.759C135.057 334.886 134.904 334.95 134.727 334.95H133.804L133.797 339.182V339.195C133.797 339.419 133.822 339.574 133.872 339.66C133.922 339.742 134.025 339.783 134.18 339.783C134.376 339.783 134.549 339.731 134.699 339.626C134.754 339.59 134.82 339.558 134.897 339.53C134.975 339.498 135.05 339.482 135.123 339.482C135.31 339.482 135.469 339.549 135.602 339.681C135.738 339.813 135.807 339.972 135.807 340.159C135.807 340.382 135.715 340.562 135.533 340.699C135.36 340.831 135.162 340.941 134.938 341.027C134.715 341.114 134.476 341.157 134.221 341.157C133.646 341.157 133.204 340.982 132.895 340.631C132.585 340.275 132.43 339.833 132.43 339.305V339.243L132.437 334.957H131.555C131.377 334.957 131.224 334.893 131.097 334.766C130.969 334.638 130.905 334.485 130.905 334.308C130.905 334.13 130.969 333.977 131.097 333.85C131.224 333.722 131.377 333.658 131.555 333.658H132.443V332.291ZM137.358 332.811C137.149 332.811 136.978 332.747 136.846 332.619C136.714 332.487 136.645 332.325 136.641 332.134L136.627 331.614C136.627 331.441 136.704 331.302 136.859 331.197C137.014 331.088 137.162 331.033 137.304 331.033C137.495 331.033 137.655 331.099 137.782 331.231C137.914 331.364 137.983 331.523 137.987 331.71L137.994 332.12C137.994 332.298 137.935 332.457 137.816 332.599C137.698 332.74 137.545 332.811 137.358 332.811ZM136.62 334.103C136.62 333.929 136.693 333.788 136.839 333.679C136.985 333.569 137.126 333.515 137.263 333.515C137.463 333.515 137.634 333.574 137.775 333.692C137.917 333.811 137.987 333.968 137.987 334.164V334.171L138.001 340.501C138.001 340.683 137.933 340.838 137.796 340.966C137.664 341.093 137.504 341.157 137.317 341.157C137.126 341.157 136.964 341.093 136.832 340.966C136.7 340.834 136.634 340.676 136.634 340.494L136.62 334.103ZM145.008 333.515C145.172 333.515 145.32 333.581 145.452 333.713C145.589 333.845 145.657 333.991 145.657 334.15C145.657 334.292 145.634 334.408 145.589 334.499L142.704 340.74C142.581 341 142.371 341.13 142.075 341.13C141.77 341.13 141.565 340.991 141.46 340.713L138.876 334.472C138.84 334.394 138.821 334.287 138.821 334.15C138.821 334.005 138.883 333.863 139.006 333.727C139.133 333.585 139.275 333.515 139.43 333.515C139.785 333.515 140.022 333.656 140.141 333.938L142.13 338.778L144.352 333.911C144.475 333.647 144.693 333.515 145.008 333.515ZM149.465 333.535C150.071 333.535 150.627 333.686 151.133 333.986C151.639 334.287 152.044 334.693 152.35 335.203C152.66 335.709 152.814 336.272 152.814 336.892C152.814 337.019 152.808 337.149 152.794 337.281C152.776 337.45 152.698 337.593 152.562 337.712C152.429 337.826 152.279 337.883 152.11 337.883L147.332 337.89C147.41 338.218 147.555 338.525 147.77 338.812C147.984 339.1 148.243 339.332 148.549 339.51C148.859 339.688 149.196 339.776 149.561 339.776C149.952 339.776 150.303 339.681 150.613 339.489C150.923 339.298 151.165 339.077 151.338 338.826C151.393 338.74 151.475 338.667 151.584 338.607C151.698 338.548 151.805 338.519 151.905 338.519C152.092 338.519 152.252 338.587 152.384 338.724C152.521 338.86 152.589 339.022 152.589 339.209C152.589 339.355 152.548 339.485 152.466 339.599C152.183 340.013 151.794 340.373 151.297 340.679C150.805 340.979 150.233 341.13 149.581 341.13C149.057 341.13 148.569 341.027 148.118 340.822C147.672 340.617 147.282 340.337 146.949 339.981C146.617 339.626 146.357 339.218 146.17 338.758C145.988 338.293 145.896 337.803 145.896 337.288C145.896 336.791 145.988 336.32 146.17 335.873C146.352 335.422 146.605 335.021 146.929 334.67C147.257 334.319 147.637 334.043 148.07 333.843C148.503 333.638 148.968 333.535 149.465 333.535ZM151.406 336.516C151.32 336.069 151.096 335.688 150.736 335.374C150.376 335.06 149.952 334.902 149.465 334.902C148.968 334.902 148.528 335.064 148.146 335.388C147.767 335.711 147.512 336.09 147.38 336.522L151.406 336.516ZM161.312 333.48C161.649 333.48 161.977 333.549 162.296 333.686C162.619 333.818 162.907 333.986 163.157 334.191C163.412 334.392 163.602 334.599 163.725 334.813L163.8 334.157C163.8 333.97 163.854 333.811 163.964 333.679C164.073 333.542 164.221 333.474 164.408 333.474C164.595 333.474 164.755 333.542 164.887 333.679C165.023 333.811 165.092 333.97 165.092 334.157V334.171L165.078 340.501C165.078 340.688 165.01 340.85 164.873 340.986C164.741 341.118 164.581 341.185 164.395 341.185C164.208 341.185 164.06 341.118 163.95 340.986C163.841 340.85 163.786 340.688 163.786 340.501L163.711 339.954C163.474 340.36 163.128 340.663 162.672 340.863C162.216 341.059 161.758 341.157 161.298 341.157C160.783 341.157 160.3 341.057 159.849 340.856C159.397 340.651 159.001 340.371 158.659 340.016C158.317 339.66 158.049 339.252 157.853 338.792C157.661 338.332 157.565 337.846 157.565 337.336C157.565 336.83 157.659 336.347 157.846 335.887C158.037 335.422 158.301 335.009 158.639 334.649C158.98 334.285 159.377 334 159.828 333.795C160.284 333.585 160.778 333.48 161.312 333.48ZM163.67 337.322C163.67 336.876 163.565 336.465 163.355 336.092C163.15 335.718 162.87 335.417 162.515 335.189C162.159 334.962 161.754 334.848 161.298 334.848C160.851 334.848 160.448 334.962 160.088 335.189C159.728 335.417 159.443 335.72 159.233 336.099C159.024 336.472 158.919 336.878 158.919 337.315C158.919 337.757 159.026 338.168 159.24 338.546C159.454 338.92 159.742 339.22 160.102 339.448C160.466 339.676 160.867 339.79 161.305 339.79C161.742 339.79 162.139 339.676 162.494 339.448C162.854 339.22 163.139 338.92 163.349 338.546C163.563 338.168 163.67 337.76 163.67 337.322ZM166.186 337.315C166.186 336.81 166.274 336.329 166.452 335.873C166.63 335.417 166.881 335.012 167.204 334.656C167.528 334.301 167.904 334.021 168.332 333.815C168.765 333.61 169.234 333.508 169.74 333.508C170.242 333.508 170.695 333.606 171.101 333.802C171.511 333.993 171.862 334.248 172.153 334.567C172.45 334.882 172.671 335.226 172.816 335.6C172.848 335.677 172.864 335.764 172.864 335.859C172.864 336.046 172.796 336.208 172.659 336.345C172.527 336.477 172.368 336.543 172.181 336.543C172.053 336.543 171.928 336.5 171.805 336.413C171.682 336.326 171.595 336.222 171.545 336.099C171.417 335.771 171.194 335.486 170.875 335.244C170.561 334.998 170.182 334.875 169.74 334.875C169.326 334.875 168.952 334.991 168.619 335.224C168.291 335.451 168.031 335.75 167.84 336.119C167.648 336.488 167.553 336.887 167.553 337.315C167.553 337.748 167.651 338.156 167.847 338.539C168.043 338.917 168.312 339.225 168.653 339.462C168.995 339.694 169.38 339.811 169.809 339.811C170.228 339.811 170.59 339.706 170.896 339.496C171.201 339.282 171.431 339.034 171.586 338.751C171.641 338.651 171.727 338.566 171.846 338.498C171.964 338.425 172.08 338.389 172.194 338.389C172.381 338.389 172.541 338.457 172.673 338.594C172.81 338.726 172.878 338.885 172.878 339.072C172.878 339.186 172.848 339.298 172.789 339.407C172.529 339.886 172.142 340.3 171.627 340.651C171.112 341.002 170.506 341.178 169.809 341.178C169.289 341.178 168.808 341.075 168.366 340.87C167.929 340.66 167.546 340.376 167.218 340.016C166.894 339.656 166.641 339.245 166.459 338.785C166.277 338.32 166.186 337.83 166.186 337.315ZM173.691 337.315C173.691 336.81 173.78 336.329 173.958 335.873C174.136 335.417 174.386 335.012 174.71 334.656C175.034 334.301 175.41 334.021 175.838 333.815C176.271 333.61 176.74 333.508 177.246 333.508C177.747 333.508 178.201 333.606 178.606 333.802C179.017 333.993 179.368 334.248 179.659 334.567C179.955 334.882 180.176 335.226 180.322 335.6C180.354 335.677 180.37 335.764 180.37 335.859C180.37 336.046 180.302 336.208 180.165 336.345C180.033 336.477 179.873 336.543 179.687 336.543C179.559 336.543 179.434 336.5 179.311 336.413C179.188 336.326 179.101 336.222 179.051 336.099C178.923 335.771 178.7 335.486 178.381 335.244C178.066 334.998 177.688 334.875 177.246 334.875C176.831 334.875 176.458 334.991 176.125 335.224C175.797 335.451 175.537 335.75 175.346 336.119C175.154 336.488 175.059 336.887 175.059 337.315C175.059 337.748 175.157 338.156 175.353 338.539C175.549 338.917 175.817 339.225 176.159 339.462C176.501 339.694 176.886 339.811 177.314 339.811C177.734 339.811 178.096 339.706 178.401 339.496C178.707 339.282 178.937 339.034 179.092 338.751C179.146 338.651 179.233 338.566 179.352 338.498C179.47 338.425 179.586 338.389 179.7 338.389C179.887 338.389 180.047 338.457 180.179 338.594C180.315 338.726 180.384 338.885 180.384 339.072C180.384 339.186 180.354 339.298 180.295 339.407C180.035 339.886 179.648 340.3 179.133 340.651C178.618 341.002 178.012 341.178 177.314 341.178C176.795 341.178 176.314 341.075 175.872 340.87C175.435 340.66 175.052 340.376 174.724 340.016C174.4 339.656 174.147 339.245 173.965 338.785C173.783 338.32 173.691 337.83 173.691 337.315ZM184.875 333.515C185.399 333.515 185.887 333.615 186.338 333.815C186.794 334.016 187.192 334.294 187.534 334.649C187.876 335.005 188.143 335.413 188.334 335.873C188.53 336.333 188.628 336.823 188.628 337.343C188.628 337.853 188.53 338.339 188.334 338.799C188.138 339.255 187.867 339.658 187.521 340.009C187.179 340.355 186.78 340.629 186.324 340.829C185.873 341.03 185.39 341.13 184.875 341.13C184.365 341.13 183.882 341.032 183.426 340.836C182.975 340.64 182.576 340.369 182.229 340.022C181.888 339.676 181.619 339.275 181.423 338.819C181.227 338.359 181.129 337.867 181.129 337.343C181.129 336.823 181.227 336.333 181.423 335.873C181.619 335.413 181.888 335.007 182.229 334.656C182.576 334.301 182.975 334.023 183.426 333.822C183.877 333.617 184.36 333.515 184.875 333.515ZM182.51 337.356C182.51 337.799 182.617 338.202 182.831 338.566C183.05 338.926 183.339 339.214 183.699 339.428C184.059 339.642 184.453 339.749 184.882 339.749C185.319 339.749 185.716 339.64 186.071 339.421C186.431 339.198 186.716 338.904 186.926 338.539C187.14 338.174 187.247 337.776 187.247 337.343C187.247 336.901 187.142 336.495 186.933 336.126C186.723 335.752 186.438 335.454 186.078 335.23C185.723 335.007 185.322 334.896 184.875 334.896C184.424 334.896 184.021 335.009 183.665 335.237C183.31 335.461 183.027 335.759 182.817 336.133C182.612 336.502 182.51 336.91 182.51 337.356ZM194.377 340.077C194.131 340.314 193.837 340.553 193.495 340.795C193.153 341.032 192.752 341.15 192.292 341.15C191.695 341.15 191.198 340.993 190.802 340.679C190.405 340.36 190.114 339.991 189.927 339.571C189.781 339.239 189.692 338.91 189.66 338.587C189.633 338.259 189.619 337.951 189.619 337.664V334.212C189.619 334.025 189.685 333.866 189.817 333.733C189.954 333.597 190.116 333.528 190.303 333.528C190.49 333.528 190.649 333.597 190.781 333.733C190.918 333.866 190.986 334.025 190.986 334.212V337.664C190.986 337.928 190.998 338.177 191.021 338.409C191.048 338.637 191.1 338.838 191.178 339.011C191.269 339.211 191.406 339.391 191.588 339.551C191.77 339.706 192 339.783 192.278 339.783C192.953 339.783 193.47 339.526 193.83 339.011C194.195 338.496 194.375 337.801 194.37 336.926L194.363 334.198C194.363 334.011 194.429 333.852 194.562 333.72C194.698 333.583 194.86 333.515 195.047 333.515C195.238 333.515 195.4 333.583 195.532 333.72C195.664 333.852 195.73 334.014 195.73 334.205L195.744 340.487C195.744 340.674 195.692 340.836 195.587 340.973C195.487 341.105 195.343 341.171 195.156 341.171C194.969 341.171 194.826 341.105 194.726 340.973C194.625 340.836 194.548 340.674 194.493 340.487L194.377 340.077ZM198.403 334.595C198.649 334.353 198.943 334.114 199.285 333.877C199.632 333.64 200.033 333.521 200.488 333.521C201.085 333.521 201.582 333.681 201.979 334C202.375 334.314 202.667 334.681 202.854 335.101C202.999 335.433 203.086 335.764 203.113 336.092C203.145 336.415 203.161 336.721 203.161 337.008V340.46C203.161 340.647 203.093 340.809 202.956 340.945C202.824 341.077 202.664 341.144 202.478 341.144C202.291 341.144 202.129 341.077 201.992 340.945C201.86 340.809 201.794 340.647 201.794 340.46V337.008C201.794 336.739 201.78 336.491 201.753 336.263C201.73 336.035 201.68 335.834 201.603 335.661C201.516 335.461 201.382 335.283 201.199 335.128C201.017 334.968 200.785 334.889 200.502 334.889C199.827 334.889 199.308 335.146 198.943 335.661C198.583 336.176 198.406 336.871 198.41 337.746L198.417 340.474C198.417 340.66 198.349 340.822 198.212 340.959C198.08 341.091 197.92 341.157 197.733 341.157C197.542 341.157 197.38 341.091 197.248 340.959C197.116 340.822 197.05 340.658 197.05 340.467L197.036 334.185C197.036 333.998 197.086 333.838 197.187 333.706C197.291 333.569 197.437 333.501 197.624 333.501C197.811 333.501 197.954 333.569 198.055 333.706C198.155 333.838 198.232 333.998 198.287 334.185L198.403 334.595ZM205.52 332.291C205.52 332.104 205.586 331.945 205.718 331.812C205.85 331.676 206.012 331.607 206.203 331.607C206.39 331.607 206.549 331.676 206.682 331.812C206.818 331.945 206.887 332.104 206.887 332.291V333.651H207.803C207.98 333.651 208.133 333.715 208.261 333.843C208.388 333.97 208.452 334.123 208.452 334.301C208.452 334.479 208.388 334.631 208.261 334.759C208.133 334.886 207.98 334.95 207.803 334.95H206.88L206.873 339.182V339.195C206.873 339.419 206.898 339.574 206.948 339.66C206.998 339.742 207.101 339.783 207.256 339.783C207.452 339.783 207.625 339.731 207.775 339.626C207.83 339.59 207.896 339.558 207.974 339.53C208.051 339.498 208.126 339.482 208.199 339.482C208.386 339.482 208.546 339.549 208.678 339.681C208.814 339.813 208.883 339.972 208.883 340.159C208.883 340.382 208.792 340.562 208.609 340.699C208.436 340.831 208.238 340.941 208.015 341.027C207.791 341.114 207.552 341.157 207.297 341.157C206.723 341.157 206.281 340.982 205.971 340.631C205.661 340.275 205.506 339.833 205.506 339.305V339.243L205.513 334.957H204.631C204.453 334.957 204.3 334.893 204.173 334.766C204.045 334.638 203.981 334.485 203.981 334.308C203.981 334.13 204.045 333.977 204.173 333.85C204.3 333.722 204.453 333.658 204.631 333.658H205.52V332.291ZM213.162 333.501C213.814 333.501 214.404 333.645 214.933 333.932C215.466 334.214 215.86 334.597 216.115 335.08C216.17 335.176 216.197 335.285 216.197 335.408C216.197 335.595 216.129 335.757 215.992 335.894C215.86 336.026 215.701 336.092 215.514 336.092C215.4 336.092 215.281 336.055 215.158 335.982C215.04 335.905 214.955 335.816 214.905 335.716C214.755 335.433 214.529 335.221 214.229 335.08C213.928 334.939 213.57 334.868 213.155 334.868C212.914 334.868 212.64 334.9 212.335 334.964C212.03 335.028 211.765 335.13 211.542 335.271C211.319 335.413 211.207 335.604 211.207 335.846C211.207 336.023 211.298 336.165 211.48 336.27C211.667 336.37 211.895 336.447 212.164 336.502C212.438 336.557 212.711 336.598 212.984 336.625C213.258 336.648 213.481 336.668 213.654 336.687C213.992 336.723 214.324 336.78 214.652 336.857C214.98 336.93 215.281 337.04 215.555 337.186C215.828 337.331 216.045 337.53 216.204 337.78C216.368 338.031 216.45 338.35 216.45 338.737C216.45 339.289 216.291 339.74 215.972 340.091C215.653 340.442 215.245 340.701 214.748 340.87C214.251 341.039 213.732 341.123 213.189 341.123C212.447 341.123 211.77 340.977 211.159 340.686C210.553 340.389 210.104 339.959 209.812 339.394C209.758 339.284 209.73 339.177 209.73 339.072C209.73 338.885 209.797 338.726 209.929 338.594C210.065 338.457 210.227 338.389 210.414 338.389C210.533 338.389 210.651 338.427 210.77 338.505C210.893 338.578 210.979 338.667 211.029 338.771C211.207 339.118 211.48 339.368 211.85 339.523C212.223 339.678 212.668 339.756 213.183 339.756C213.456 339.756 213.739 339.726 214.03 339.667C214.326 339.603 214.575 339.496 214.775 339.346C214.98 339.195 215.083 338.99 215.083 338.73C215.083 338.53 214.994 338.386 214.816 338.3C214.643 338.209 214.434 338.149 214.188 338.122C213.946 338.095 213.72 338.07 213.511 338.047C213.11 338.006 212.695 337.953 212.267 337.89C211.838 337.821 211.439 337.714 211.07 337.568C210.706 337.423 210.41 337.213 210.182 336.939C209.954 336.666 209.84 336.301 209.84 335.846C209.84 335.436 209.938 335.082 210.134 334.786C210.334 334.49 210.599 334.248 210.927 334.062C211.255 333.87 211.613 333.729 212 333.638C212.392 333.547 212.779 333.501 213.162 333.501Z" fill="#F72585"/>
<rect x="218" y="127" width="2" height="104" rx="1" transform="rotate(90 218 127)" fill="white"/>
<rect x="218" y="257" width="2" height="104" rx="1" transform="rotate(90 218 257)" fill="white"/>
</svg>
