<svg width="1071" height="176" viewBox="0 0 1071 176" fill="none" xmlns="http://www.w3.org/2000/svg">
<rect width="1071" height="176" rx="24" fill="#300488"/>
<path d="M116.33 65.4526C116.33 65.0923 116.457 64.7847 116.712 64.5298C116.976 64.2661 117.288 64.1343 117.648 64.1343H117.661L130.832 64.0552H130.858C131.218 64.0552 131.526 64.187 131.781 64.4507C132.044 64.7056 132.176 65.0132 132.176 65.3735C132.176 65.7339 132.044 66.0459 131.781 66.3096C131.526 66.5645 131.218 66.6919 130.858 66.6919H130.845L125.598 66.7183L125.532 81.853V81.8662C125.532 82.2178 125.4 82.521 125.136 82.7759C124.881 83.0308 124.574 83.1582 124.213 83.1582C123.853 83.1582 123.541 83.0308 123.277 82.7759C123.022 82.521 122.895 82.2178 122.895 81.8662V81.8398L122.961 66.7314L117.661 66.771H117.648C117.288 66.771 116.976 66.6436 116.712 66.3887C116.457 66.125 116.33 65.813 116.33 65.4526ZM133.758 65.0439C133.758 64.6924 133.886 64.3936 134.141 64.1475C134.396 63.8926 134.708 63.7651 135.077 63.7651C135.437 63.7651 135.745 63.8926 136 64.1475C136.263 64.3936 136.395 64.6924 136.395 65.0439V70.792C136.729 70.0801 137.217 69.5352 137.858 69.1572C138.5 68.7705 139.12 68.5771 139.717 68.5771C141.097 68.5771 142.222 68.8584 143.092 69.4209C143.971 69.9834 144.617 70.7656 145.03 71.7676C145.443 72.7695 145.65 73.9253 145.65 75.2349V75.3535L145.637 82.0112V82.0244C145.637 82.376 145.505 82.6792 145.241 82.9341C144.986 83.1802 144.679 83.3032 144.318 83.3032C143.958 83.3032 143.646 83.1802 143.382 82.9341C143.127 82.6792 143 82.376 143 82.0244V82.0112L143.013 75.4194V75.3931C143.013 74.0396 142.789 73.0068 142.341 72.2949C141.893 71.583 141.018 71.2271 139.717 71.2271C138.619 71.2271 137.792 71.6094 137.239 72.374C136.694 73.1387 136.421 74.123 136.421 75.3271V82.0376C136.421 82.3892 136.29 82.6924 136.026 82.9473C135.771 83.1934 135.463 83.3164 135.103 83.3164C134.725 83.3164 134.404 83.189 134.141 82.9341C133.886 82.6704 133.758 82.3716 133.758 82.0376V65.0439ZM154.575 68.6035C155.744 68.6035 156.816 68.8936 157.792 69.4736C158.768 70.0537 159.55 70.8359 160.139 71.8203C160.736 72.7959 161.035 73.8813 161.035 75.0767C161.035 75.3228 161.022 75.5732 160.996 75.8281C160.96 76.1533 160.811 76.4302 160.547 76.6587C160.292 76.8784 160.002 76.9883 159.677 76.9883L150.462 77.0015C150.611 77.6343 150.893 78.2275 151.306 78.7812C151.719 79.335 152.22 79.7832 152.809 80.126C153.406 80.4688 154.057 80.6401 154.76 80.6401C155.516 80.6401 156.192 80.4556 156.79 80.0864C157.388 79.7173 157.854 79.291 158.188 78.8076C158.293 78.6406 158.451 78.5 158.662 78.3857C158.882 78.2715 159.088 78.2144 159.282 78.2144C159.642 78.2144 159.95 78.3462 160.205 78.6099C160.468 78.8735 160.6 79.1855 160.6 79.5459C160.6 79.8271 160.521 80.0776 160.363 80.2974C159.818 81.0972 159.066 81.7915 158.108 82.3804C157.159 82.9604 156.056 83.2505 154.799 83.2505C153.789 83.2505 152.848 83.0527 151.978 82.6572C151.117 82.2617 150.365 81.7212 149.724 81.0356C149.082 80.3501 148.581 79.5635 148.221 78.6758C147.869 77.7793 147.693 76.8345 147.693 75.8413C147.693 74.8833 147.869 73.9736 148.221 73.1123C148.572 72.2422 149.06 71.4688 149.684 70.792C150.317 70.1152 151.051 69.5835 151.886 69.1968C152.721 68.8013 153.617 68.6035 154.575 68.6035ZM158.319 74.3516C158.152 73.4902 157.722 72.7563 157.027 72.1499C156.333 71.5435 155.516 71.2402 154.575 71.2402C153.617 71.2402 152.769 71.5522 152.031 72.1763C151.301 72.8003 150.809 73.5298 150.554 74.3647L158.319 74.3516ZM169.934 73.7847C169.934 72.4927 170.163 71.249 170.62 70.0537C171.085 68.8584 171.74 67.7949 172.584 66.8633C173.437 65.9229 174.447 65.1802 175.616 64.6353C176.794 64.0903 178.095 63.8179 179.519 63.8179C180.828 63.8179 182.015 63.998 183.078 64.3584C184.15 64.7188 185.152 65.2285 186.084 65.8877C186.462 66.1426 186.651 66.4941 186.651 66.9424C186.651 67.2939 186.519 67.6016 186.255 67.8652C186 68.1201 185.693 68.2476 185.333 68.2476C185.051 68.2476 184.792 68.1641 184.555 67.9971C183.869 67.5312 183.096 67.1621 182.234 66.8896C181.373 66.6084 180.49 66.4678 179.584 66.4678C178.556 66.4678 177.611 66.6655 176.75 67.061C175.897 67.4478 175.155 67.9839 174.522 68.6694C173.898 69.3462 173.41 70.1196 173.059 70.9897C172.716 71.8599 172.544 72.7739 172.544 73.7319C172.544 75.0415 172.83 76.2061 173.401 77.2256C173.981 78.2451 174.786 79.0449 175.814 79.625C176.851 80.2051 178.055 80.4951 179.426 80.4951C180.182 80.4951 180.929 80.4204 181.667 80.271C182.415 80.1216 183.096 79.9502 183.711 79.7568L183.671 75.2612H179.65C179.29 75.2612 178.978 75.1338 178.714 74.8789C178.459 74.6152 178.332 74.3032 178.332 73.9429C178.332 73.5825 178.459 73.2749 178.714 73.02C178.978 72.7563 179.29 72.6245 179.65 72.6245H184.99C185.35 72.6245 185.658 72.752 185.913 73.0068C186.176 73.2617 186.308 73.5693 186.308 73.9297L186.361 80.6665V80.6797C186.361 80.9258 186.282 81.1631 186.124 81.3916C185.965 81.6201 185.768 81.7783 185.53 81.8662C184.687 82.2002 183.755 82.499 182.735 82.7627C181.716 83.0176 180.644 83.145 179.519 83.145C177.673 83.145 176.025 82.7451 174.575 81.9453C173.133 81.1455 172 80.0425 171.173 78.6362C170.347 77.23 169.934 75.6128 169.934 73.7847ZM195.853 68.498C196.503 68.498 197.136 68.6299 197.751 68.8936C198.375 69.1484 198.929 69.4736 199.413 69.8691C199.905 70.2559 200.27 70.6558 200.507 71.0688L200.652 69.8032C200.652 69.4429 200.757 69.1353 200.968 68.8804C201.179 68.6167 201.465 68.4849 201.825 68.4849C202.186 68.4849 202.493 68.6167 202.748 68.8804C203.012 69.1353 203.144 69.4429 203.144 69.8032V69.8296L203.117 82.0376C203.117 82.3979 202.985 82.71 202.722 82.9736C202.467 83.2285 202.159 83.356 201.799 83.356C201.438 83.356 201.153 83.2285 200.942 82.9736C200.731 82.71 200.625 82.3979 200.625 82.0376L200.48 80.9829C200.023 81.7651 199.355 82.3496 198.477 82.7363C197.598 83.1143 196.714 83.3032 195.827 83.3032C194.833 83.3032 193.902 83.1099 193.032 82.7231C192.162 82.3276 191.397 81.7871 190.738 81.1016C190.079 80.416 189.56 79.6294 189.182 78.7417C188.813 77.854 188.628 76.918 188.628 75.9336C188.628 74.958 188.809 74.0264 189.169 73.1387C189.538 72.2422 190.048 71.4468 190.698 70.7524C191.357 70.0493 192.122 69.5 192.992 69.1045C193.871 68.7002 194.825 68.498 195.853 68.498ZM200.401 75.9072C200.401 75.0459 200.199 74.2549 199.795 73.5342C199.399 72.8135 198.859 72.2334 198.173 71.7939C197.488 71.3545 196.706 71.1348 195.827 71.1348C194.965 71.1348 194.188 71.3545 193.493 71.7939C192.799 72.2334 192.25 72.8179 191.845 73.5474C191.441 74.2681 191.239 75.0503 191.239 75.894C191.239 76.7466 191.445 77.5376 191.858 78.2671C192.271 78.9878 192.825 79.5679 193.52 80.0073C194.223 80.4468 194.996 80.6665 195.84 80.6665C196.684 80.6665 197.448 80.4468 198.134 80.0073C198.828 79.5679 199.377 78.9878 199.782 78.2671C200.195 77.5376 200.401 76.751 200.401 75.9072ZM211.265 68.5508C212.117 68.5508 212.864 68.7573 213.506 69.1704C214.156 69.5835 214.688 70.0845 215.101 70.6733C215.593 70.1021 216.187 69.6055 216.881 69.1836C217.575 68.7529 218.349 68.5376 219.201 68.5376C220.326 68.5376 221.258 68.8408 221.996 69.4473C222.743 70.0449 223.297 70.8315 223.657 71.8071C224.018 72.7827 224.198 73.8374 224.198 74.9712L224.211 81.998C224.211 82.3496 224.083 82.6528 223.829 82.9077C223.574 83.1626 223.262 83.29 222.893 83.29C222.523 83.29 222.211 83.1626 221.957 82.9077C221.702 82.6528 221.574 82.3496 221.574 81.998L221.561 74.9976C221.561 74.3296 221.5 73.7056 221.376 73.1255C221.253 72.5366 221.029 72.062 220.704 71.7017C220.379 71.3413 219.909 71.1611 219.293 71.1611C218.643 71.1611 218.085 71.3413 217.619 71.7017C217.162 72.062 216.811 72.5366 216.564 73.1255C216.327 73.7056 216.208 74.334 216.208 75.0107L216.222 82.0376C216.222 82.3892 216.09 82.6924 215.826 82.9473C215.571 83.1934 215.264 83.3164 214.903 83.3164C214.534 83.3164 214.222 83.189 213.967 82.9341C213.712 82.6792 213.585 82.376 213.585 82.0244V75.0239C213.585 74.1978 213.444 73.499 213.163 72.9277C212.891 72.3564 212.535 71.9258 212.095 71.6357C211.665 71.3369 211.221 71.1875 210.764 71.1875C210.113 71.1875 209.529 71.4907 209.01 72.0972C208.492 72.7036 208.232 73.6484 208.232 74.9316V82.0376C208.232 82.3892 208.101 82.6924 207.837 82.9473C207.582 83.1934 207.274 83.3164 206.914 83.3164C206.554 83.3164 206.242 83.189 205.978 82.9341C205.723 82.6792 205.596 82.376 205.596 82.0244V69.8296C205.596 69.4692 205.662 69.166 205.793 68.9199C205.934 68.665 206.189 68.5376 206.558 68.5376C206.848 68.5376 207.116 68.6299 207.362 68.8145C207.608 68.999 207.806 69.3066 207.956 69.7373L208.206 70.4624C208.487 69.8823 208.918 69.4209 209.498 69.0781C210.087 68.7266 210.676 68.5508 211.265 68.5508ZM233.149 68.6035C234.318 68.6035 235.391 68.8936 236.366 69.4736C237.342 70.0537 238.124 70.8359 238.713 71.8203C239.311 72.7959 239.609 73.8813 239.609 75.0767C239.609 75.3228 239.596 75.5732 239.57 75.8281C239.535 76.1533 239.385 76.4302 239.122 76.6587C238.867 76.8784 238.577 76.9883 238.251 76.9883L229.036 77.0015C229.186 77.6343 229.467 78.2275 229.88 78.7812C230.293 79.335 230.794 79.7832 231.383 80.126C231.98 80.4688 232.631 80.6401 233.334 80.6401C234.09 80.6401 234.767 80.4556 235.364 80.0864C235.962 79.7173 236.428 79.291 236.762 78.8076C236.867 78.6406 237.025 78.5 237.236 78.3857C237.456 78.2715 237.663 78.2144 237.856 78.2144C238.216 78.2144 238.524 78.3462 238.779 78.6099C239.042 78.8735 239.174 79.1855 239.174 79.5459C239.174 79.8271 239.095 80.0776 238.937 80.2974C238.392 81.0972 237.641 81.7915 236.683 82.3804C235.733 82.9604 234.63 83.2505 233.374 83.2505C232.363 83.2505 231.422 83.0527 230.552 82.6572C229.691 82.2617 228.939 81.7212 228.298 81.0356C227.656 80.3501 227.155 79.5635 226.795 78.6758C226.443 77.7793 226.268 76.8345 226.268 75.8413C226.268 74.8833 226.443 73.9736 226.795 73.1123C227.146 72.2422 227.634 71.4688 228.258 70.792C228.891 70.1152 229.625 69.5835 230.46 69.1968C231.295 68.8013 232.191 68.6035 233.149 68.6035ZM236.894 74.3516C236.727 73.4902 236.296 72.7563 235.602 72.1499C234.907 71.5435 234.09 71.2402 233.149 71.2402C232.191 71.2402 231.343 71.5522 230.605 72.1763C229.875 72.8003 229.383 73.5298 229.128 74.3647L236.894 74.3516Z" fill="white"/>
<path d="M135.374 105.068C135.187 105.068 135.025 105.002 134.889 104.87C134.757 104.733 134.69 104.572 134.69 104.385L134.684 95.833C134.684 95.6598 134.747 95.5026 134.875 95.3613C135.003 95.2201 135.155 95.1494 135.333 95.1494C135.543 95.1494 135.714 95.2155 135.846 95.3477C135.982 95.4753 136.051 95.637 136.051 95.833L136.058 104.385C136.058 104.572 135.989 104.733 135.853 104.87C135.72 105.002 135.561 105.068 135.374 105.068ZM140.863 97.501C141.515 97.501 142.105 97.6445 142.634 97.9316C143.167 98.2142 143.561 98.597 143.816 99.0801C143.871 99.1758 143.898 99.2852 143.898 99.4082C143.898 99.5951 143.83 99.7568 143.693 99.8936C143.561 100.026 143.402 100.092 143.215 100.092C143.101 100.092 142.982 100.055 142.859 99.9824C142.741 99.9049 142.657 99.8161 142.606 99.7158C142.456 99.4333 142.23 99.2214 141.93 99.0801C141.629 98.9388 141.271 98.8682 140.856 98.8682C140.615 98.8682 140.341 98.9001 140.036 98.9639C139.731 99.0277 139.466 99.1302 139.243 99.2715C139.02 99.4128 138.908 99.6042 138.908 99.8457C138.908 100.023 138.999 100.165 139.182 100.27C139.368 100.37 139.596 100.447 139.865 100.502C140.139 100.557 140.412 100.598 140.686 100.625C140.959 100.648 141.182 100.668 141.355 100.687C141.693 100.723 142.025 100.78 142.354 100.857C142.682 100.93 142.982 101.04 143.256 101.186C143.529 101.331 143.746 101.53 143.905 101.78C144.069 102.031 144.151 102.35 144.151 102.737C144.151 103.289 143.992 103.74 143.673 104.091C143.354 104.442 142.946 104.701 142.449 104.87C141.952 105.039 141.433 105.123 140.891 105.123C140.148 105.123 139.471 104.977 138.86 104.686C138.254 104.389 137.805 103.959 137.514 103.394C137.459 103.284 137.432 103.177 137.432 103.072C137.432 102.885 137.498 102.726 137.63 102.594C137.767 102.457 137.928 102.389 138.115 102.389C138.234 102.389 138.352 102.427 138.471 102.505C138.594 102.578 138.68 102.667 138.73 102.771C138.908 103.118 139.182 103.368 139.551 103.523C139.924 103.678 140.369 103.756 140.884 103.756C141.157 103.756 141.44 103.726 141.731 103.667C142.028 103.603 142.276 103.496 142.477 103.346C142.682 103.195 142.784 102.99 142.784 102.73C142.784 102.53 142.695 102.386 142.518 102.3C142.344 102.209 142.135 102.149 141.889 102.122C141.647 102.095 141.422 102.07 141.212 102.047C140.811 102.006 140.396 101.953 139.968 101.89C139.539 101.821 139.141 101.714 138.771 101.568C138.407 101.423 138.111 101.213 137.883 100.939C137.655 100.666 137.541 100.301 137.541 99.8457C137.541 99.4355 137.639 99.0824 137.835 98.7861C138.035 98.4899 138.3 98.2484 138.628 98.0615C138.956 97.8701 139.314 97.7288 139.701 97.6377C140.093 97.5465 140.48 97.501 140.863 97.501ZM148.909 98.2871C148.909 98.1549 148.962 98.0273 149.066 97.9043C149.176 97.7767 149.308 97.7129 149.463 97.7129L150.475 97.7061V97.6172C150.488 96.847 150.661 96.2432 150.994 95.8057C151.327 95.3682 151.867 95.1562 152.614 95.1699L153.366 95.1836C153.553 95.1836 153.713 95.252 153.845 95.3887C153.977 95.5208 154.043 95.6803 154.043 95.8672C154.043 96.054 153.977 96.2113 153.845 96.3389C153.713 96.4665 153.551 96.5303 153.359 96.5303L152.594 96.4209C152.357 96.4209 152.184 96.4574 152.074 96.5303C151.969 96.5986 151.901 96.7217 151.869 96.8994C151.842 97.0771 151.83 97.3301 151.835 97.6582L151.842 97.7197L153.223 97.7266C153.405 97.7266 153.558 97.7881 153.681 97.9111C153.808 98.0342 153.872 98.1823 153.872 98.3555C153.872 98.5013 153.813 98.6426 153.694 98.7793C153.576 98.9115 153.441 98.9775 153.291 98.9775L151.842 98.9912L151.855 104.501V104.508C151.855 104.69 151.787 104.845 151.65 104.973C151.518 105.096 151.359 105.157 151.172 105.157C150.985 105.157 150.823 105.096 150.687 104.973C150.554 104.845 150.488 104.69 150.488 104.508V104.501L150.475 98.9775L149.559 98.9707C149.376 98.9707 149.221 98.9069 149.094 98.7793C148.971 98.6517 148.909 98.4876 148.909 98.2871ZM159.437 98.376C159.437 98.7406 159.261 98.9434 158.91 98.9844C158.783 98.998 158.621 98.957 158.425 98.8613C158.229 98.7611 158.031 98.7109 157.83 98.7109C157.434 98.7109 157.119 98.8135 156.887 99.0186C156.654 99.2191 156.488 99.4902 156.388 99.832C156.287 100.174 156.237 100.557 156.237 100.98V104.508C156.237 104.708 156.176 104.868 156.053 104.986C155.934 105.105 155.768 105.164 155.554 105.164C155.344 105.164 155.178 105.105 155.055 104.986C154.932 104.868 154.87 104.706 154.87 104.501V98.2051C154.87 98 154.92 97.8314 155.021 97.6992C155.125 97.5671 155.267 97.501 155.444 97.501C155.549 97.501 155.67 97.5465 155.807 97.6377C155.948 97.7243 156.046 97.8747 156.101 98.0889L156.169 98.5811C156.228 98.4535 156.342 98.3053 156.511 98.1367C156.679 97.9681 156.88 97.8223 157.112 97.6992C157.345 97.5716 157.586 97.5078 157.837 97.5078C158.302 97.5078 158.685 97.5625 158.985 97.6719C159.286 97.7767 159.437 98.0114 159.437 98.376ZM163.244 97.5352C163.85 97.5352 164.406 97.6855 164.912 97.9863C165.418 98.2871 165.824 98.6927 166.129 99.2031C166.439 99.709 166.594 100.272 166.594 100.892C166.594 101.019 166.587 101.149 166.573 101.281C166.555 101.45 166.478 101.593 166.341 101.712C166.209 101.826 166.058 101.883 165.89 101.883L161.111 101.89C161.189 102.218 161.335 102.525 161.549 102.812C161.763 103.1 162.023 103.332 162.328 103.51C162.638 103.688 162.975 103.776 163.34 103.776C163.732 103.776 164.083 103.681 164.393 103.489C164.702 103.298 164.944 103.077 165.117 102.826C165.172 102.74 165.254 102.667 165.363 102.607C165.477 102.548 165.584 102.519 165.685 102.519C165.871 102.519 166.031 102.587 166.163 102.724C166.3 102.86 166.368 103.022 166.368 103.209C166.368 103.355 166.327 103.485 166.245 103.599C165.963 104.013 165.573 104.373 165.076 104.679C164.584 104.979 164.012 105.13 163.36 105.13C162.836 105.13 162.349 105.027 161.897 104.822C161.451 104.617 161.061 104.337 160.729 103.981C160.396 103.626 160.136 103.218 159.949 102.758C159.767 102.293 159.676 101.803 159.676 101.288C159.676 100.791 159.767 100.32 159.949 99.873C160.132 99.4219 160.384 99.0208 160.708 98.6699C161.036 98.319 161.417 98.0433 161.85 97.8428C162.283 97.6377 162.747 97.5352 163.244 97.5352ZM165.186 100.516C165.099 100.069 164.876 99.6885 164.516 99.374C164.156 99.0596 163.732 98.9023 163.244 98.9023C162.747 98.9023 162.308 99.0641 161.925 99.3877C161.547 99.7113 161.291 100.09 161.159 100.522L165.186 100.516ZM170.982 97.5352C171.589 97.5352 172.145 97.6855 172.65 97.9863C173.156 98.2871 173.562 98.6927 173.867 99.2031C174.177 99.709 174.332 100.272 174.332 100.892C174.332 101.019 174.325 101.149 174.312 101.281C174.293 101.45 174.216 101.593 174.079 101.712C173.947 101.826 173.797 101.883 173.628 101.883L168.85 101.89C168.927 102.218 169.073 102.525 169.287 102.812C169.501 103.1 169.761 103.332 170.066 103.51C170.376 103.688 170.714 103.776 171.078 103.776C171.47 103.776 171.821 103.681 172.131 103.489C172.441 103.298 172.682 103.077 172.855 102.826C172.91 102.74 172.992 102.667 173.102 102.607C173.215 102.548 173.323 102.519 173.423 102.519C173.61 102.519 173.769 102.587 173.901 102.724C174.038 102.86 174.106 103.022 174.106 103.209C174.106 103.355 174.065 103.485 173.983 103.599C173.701 104.013 173.311 104.373 172.814 104.679C172.322 104.979 171.75 105.13 171.099 105.13C170.575 105.13 170.087 105.027 169.636 104.822C169.189 104.617 168.799 104.337 168.467 103.981C168.134 103.626 167.874 103.218 167.688 102.758C167.505 102.293 167.414 101.803 167.414 101.288C167.414 100.791 167.505 100.32 167.688 99.873C167.87 99.4219 168.123 99.0208 168.446 98.6699C168.774 98.319 169.155 98.0433 169.588 97.8428C170.021 97.6377 170.486 97.5352 170.982 97.5352ZM172.924 100.516C172.837 100.069 172.614 99.6885 172.254 99.374C171.894 99.0596 171.47 98.9023 170.982 98.9023C170.486 98.9023 170.046 99.0641 169.663 99.3877C169.285 99.7113 169.03 100.09 168.897 100.522L172.924 100.516ZM180.279 96.291C180.279 96.1042 180.345 95.9447 180.478 95.8125C180.61 95.6758 180.771 95.6074 180.963 95.6074C181.15 95.6074 181.309 95.6758 181.441 95.8125C181.578 95.9447 181.646 96.1042 181.646 96.291V97.6514H182.562C182.74 97.6514 182.893 97.7152 183.021 97.8428C183.148 97.9704 183.212 98.123 183.212 98.3008C183.212 98.4785 183.148 98.6312 183.021 98.7588C182.893 98.8864 182.74 98.9502 182.562 98.9502H181.64L181.633 103.182V103.195C181.633 103.419 181.658 103.574 181.708 103.66C181.758 103.742 181.861 103.783 182.016 103.783C182.212 103.783 182.385 103.731 182.535 103.626C182.59 103.59 182.656 103.558 182.733 103.53C182.811 103.498 182.886 103.482 182.959 103.482C183.146 103.482 183.305 103.549 183.438 103.681C183.574 103.813 183.643 103.972 183.643 104.159C183.643 104.382 183.551 104.562 183.369 104.699C183.196 104.831 182.998 104.941 182.774 105.027C182.551 105.114 182.312 105.157 182.057 105.157C181.482 105.157 181.04 104.982 180.73 104.631C180.421 104.275 180.266 103.833 180.266 103.305V103.243L180.272 98.957H179.391C179.213 98.957 179.06 98.8932 178.933 98.7656C178.805 98.638 178.741 98.4854 178.741 98.3076C178.741 98.1299 178.805 97.9772 178.933 97.8496C179.06 97.722 179.213 97.6582 179.391 97.6582H180.279V96.291ZM187.895 97.5146C188.419 97.5146 188.906 97.6149 189.357 97.8154C189.813 98.016 190.212 98.2939 190.554 98.6494C190.896 99.0049 191.162 99.4128 191.354 99.873C191.549 100.333 191.647 100.823 191.647 101.343C191.647 101.853 191.549 102.339 191.354 102.799C191.158 103.255 190.886 103.658 190.54 104.009C190.198 104.355 189.799 104.629 189.344 104.829C188.893 105.03 188.41 105.13 187.895 105.13C187.384 105.13 186.901 105.032 186.445 104.836C185.994 104.64 185.595 104.369 185.249 104.022C184.907 103.676 184.638 103.275 184.442 102.819C184.246 102.359 184.148 101.867 184.148 101.343C184.148 100.823 184.246 100.333 184.442 99.873C184.638 99.4128 184.907 99.0072 185.249 98.6562C185.595 98.3008 185.994 98.0228 186.445 97.8223C186.896 97.6172 187.38 97.5146 187.895 97.5146ZM185.529 101.356C185.529 101.799 185.636 102.202 185.851 102.566C186.069 102.926 186.359 103.214 186.719 103.428C187.079 103.642 187.473 103.749 187.901 103.749C188.339 103.749 188.735 103.64 189.091 103.421C189.451 103.198 189.736 102.904 189.945 102.539C190.16 102.174 190.267 101.776 190.267 101.343C190.267 100.901 190.162 100.495 189.952 100.126C189.743 99.7523 189.458 99.4538 189.098 99.2305C188.742 99.0072 188.341 98.8955 187.895 98.8955C187.443 98.8955 187.04 99.0094 186.685 99.2373C186.329 99.4606 186.047 99.7591 185.837 100.133C185.632 100.502 185.529 100.91 185.529 101.356ZM203.747 101.336C203.747 101.851 203.651 102.352 203.46 102.84C203.273 103.327 202.991 103.758 202.612 104.132C202.28 104.455 201.897 104.706 201.464 104.884C201.031 105.062 200.582 105.15 200.117 105.15C199.643 105.15 199.222 105.05 198.853 104.85C198.488 104.649 198.158 104.378 197.861 104.036V106.914C197.861 107.101 197.793 107.26 197.656 107.393C197.524 107.529 197.365 107.598 197.178 107.598C196.991 107.598 196.829 107.529 196.692 107.393C196.56 107.26 196.494 107.101 196.494 106.914V98.1846C196.494 97.9977 196.56 97.8382 196.692 97.7061C196.829 97.5693 196.991 97.501 197.178 97.501C197.365 97.501 197.504 97.5693 197.595 97.7061C197.69 97.8382 197.752 97.9977 197.779 98.1846L197.861 98.7383C198.121 98.3646 198.463 98.0706 198.887 97.8564C199.315 97.6423 199.741 97.5352 200.165 97.5352C200.68 97.5352 201.154 97.6377 201.587 97.8428C202.024 98.0479 202.405 98.3281 202.729 98.6836C203.052 99.0345 203.303 99.4378 203.48 99.8936C203.658 100.349 203.747 100.83 203.747 101.336ZM200.179 98.9023C199.882 98.9023 199.589 98.9684 199.297 99.1006C199.005 99.2282 198.757 99.4059 198.552 99.6338C198.347 99.8571 198.187 100.124 198.073 100.434C197.964 100.739 197.909 101.051 197.909 101.37C197.909 101.808 198.005 102.211 198.196 102.58C198.388 102.949 198.652 103.245 198.989 103.469C199.326 103.692 199.712 103.804 200.145 103.804C200.577 103.804 200.963 103.688 201.3 103.455C201.637 103.218 201.901 102.913 202.093 102.539C202.289 102.161 202.387 101.76 202.387 101.336C202.387 100.908 202.291 100.509 202.1 100.14C201.908 99.7705 201.646 99.472 201.313 99.2441C200.981 99.0163 200.603 98.9023 200.179 98.9023ZM205.395 95.0264C205.613 95.0264 205.789 95.0993 205.921 95.2451C206.053 95.3864 206.117 95.5413 206.112 95.71V104.515C206.112 104.697 206.039 104.845 205.894 104.959C205.752 105.068 205.611 105.123 205.47 105.123C205.274 105.123 205.103 105.059 204.957 104.932C204.816 104.804 204.745 104.64 204.745 104.439V95.71C204.745 95.5368 204.807 95.3796 204.93 95.2383C205.057 95.097 205.212 95.0264 205.395 95.0264ZM211.021 97.4805C211.358 97.4805 211.686 97.5488 212.005 97.6855C212.328 97.8177 212.616 97.9863 212.866 98.1914C213.121 98.3919 213.311 98.5993 213.434 98.8135L213.509 98.1572C213.509 97.9704 213.563 97.8109 213.673 97.6787C213.782 97.542 213.93 97.4736 214.117 97.4736C214.304 97.4736 214.464 97.542 214.596 97.6787C214.732 97.8109 214.801 97.9704 214.801 98.1572V98.1709L214.787 104.501C214.787 104.688 214.719 104.85 214.582 104.986C214.45 105.118 214.29 105.185 214.104 105.185C213.917 105.185 213.769 105.118 213.659 104.986C213.55 104.85 213.495 104.688 213.495 104.501L213.42 103.954C213.183 104.36 212.837 104.663 212.381 104.863C211.925 105.059 211.467 105.157 211.007 105.157C210.492 105.157 210.009 105.057 209.558 104.856C209.106 104.651 208.71 104.371 208.368 104.016C208.026 103.66 207.757 103.252 207.562 102.792C207.37 102.332 207.274 101.846 207.274 101.336C207.274 100.83 207.368 100.347 207.555 99.8867C207.746 99.4219 208.01 99.0094 208.348 98.6494C208.689 98.2848 209.086 98 209.537 97.7949C209.993 97.5853 210.487 97.4805 211.021 97.4805ZM213.379 101.322C213.379 100.876 213.274 100.465 213.064 100.092C212.859 99.7181 212.579 99.4173 212.224 99.1895C211.868 98.9616 211.463 98.8477 211.007 98.8477C210.56 98.8477 210.157 98.9616 209.797 99.1895C209.437 99.4173 209.152 99.7204 208.942 100.099C208.733 100.472 208.628 100.878 208.628 101.315C208.628 101.757 208.735 102.168 208.949 102.546C209.163 102.92 209.451 103.22 209.811 103.448C210.175 103.676 210.576 103.79 211.014 103.79C211.451 103.79 211.848 103.676 212.203 103.448C212.563 103.22 212.848 102.92 213.058 102.546C213.272 102.168 213.379 101.76 213.379 101.322ZM216.339 97.4736C216.471 97.4736 216.594 97.5124 216.708 97.5898C216.826 97.6673 216.911 97.763 216.961 97.877L219.285 103.161L221.274 97.9248C221.325 97.8018 221.407 97.6992 221.521 97.6172C221.639 97.5352 221.769 97.4941 221.91 97.4941C222.097 97.4941 222.257 97.5625 222.389 97.6992C222.525 97.8314 222.594 97.9909 222.594 98.1777C222.594 98.2734 222.576 98.3623 222.539 98.4443L220.023 105.007C220.014 105.066 219.998 105.118 219.976 105.164C219.953 105.21 219.93 105.251 219.907 105.287L219.524 106.244C219.429 106.481 219.315 106.732 219.183 106.996C219.05 107.265 218.868 107.518 218.636 107.755C218.412 107.987 218.139 108.183 217.815 108.343C217.496 108.502 217.161 108.582 216.811 108.582C216.619 108.582 216.457 108.511 216.325 108.37C216.193 108.233 216.127 108.072 216.127 107.885C216.127 107.702 216.188 107.543 216.312 107.406C216.439 107.274 216.592 107.206 216.77 107.201C217.171 107.174 217.48 107.017 217.699 106.729C217.918 106.447 218.105 106.112 218.26 105.725L218.588 104.891L215.717 98.4512C215.676 98.3555 215.655 98.2575 215.655 98.1572C215.655 97.9704 215.721 97.8109 215.854 97.6787C215.99 97.542 216.152 97.4736 216.339 97.4736Z" fill="#F72585"/>
<rect x="340" y="35" width="2" height="104" rx="1" fill="white"/>
<path d="M443.36 83C443 83 442.688 82.8726 442.424 82.6177C442.169 82.354 442.042 82.042 442.042 81.6816L442.002 65.3208C441.993 65.2417 441.989 65.1626 441.989 65.0835C441.989 64.9604 442.015 64.8418 442.068 64.7275C442.129 64.6133 442.2 64.4946 442.279 64.3716C442.49 64.0288 442.793 63.8574 443.188 63.8574C443.821 63.8574 444.256 64.1035 444.494 64.5957L451.547 76.105L458.073 64.5825C458.336 64.1431 458.692 63.9233 459.141 63.9233C459.519 63.9233 459.848 64.0464 460.129 64.2925C460.411 64.5386 460.551 64.855 460.551 65.2417V81.7344C460.551 82.0947 460.419 82.4067 460.156 82.6704C459.901 82.9253 459.593 83.0527 459.233 83.0527C458.873 83.0527 458.561 82.9253 458.297 82.6704C458.042 82.4067 457.915 82.0947 457.915 81.7344V69.9482L452.733 79.3613C452.637 79.5195 452.487 79.6733 452.285 79.8228C452.083 79.9634 451.863 80.0337 451.626 80.0337C451.116 80.0337 450.725 79.8228 450.453 79.4009L444.639 69.8955L444.678 81.6685V81.6816C444.678 82.042 444.546 82.354 444.283 82.6177C444.028 82.8726 443.72 83 443.36 83ZM469.424 68.564C470.435 68.564 471.375 68.7573 472.245 69.144C473.124 69.5308 473.893 70.0669 474.552 70.7524C475.211 71.438 475.726 72.2246 476.095 73.1123C476.473 74 476.662 74.9448 476.662 75.9468C476.662 76.9312 476.473 77.8672 476.095 78.7549C475.717 79.6338 475.194 80.4116 474.526 81.0884C473.867 81.7563 473.098 82.2837 472.219 82.6704C471.349 83.0571 470.417 83.2505 469.424 83.2505C468.439 83.2505 467.508 83.0615 466.629 82.6836C465.759 82.3057 464.99 81.7827 464.322 81.1147C463.663 80.4468 463.144 79.6733 462.766 78.7944C462.388 77.9067 462.199 76.9575 462.199 75.9468C462.199 74.9448 462.388 74 462.766 73.1123C463.144 72.2246 463.663 71.4424 464.322 70.7656C464.99 70.0801 465.759 69.5439 466.629 69.1572C467.499 68.7617 468.431 68.564 469.424 68.564ZM464.862 75.9731C464.862 76.8257 465.069 77.6035 465.482 78.3066C465.904 79.001 466.462 79.5547 467.156 79.9678C467.851 80.3809 468.611 80.5874 469.437 80.5874C470.281 80.5874 471.045 80.3765 471.731 79.9546C472.425 79.5239 472.975 78.957 473.379 78.2539C473.792 77.5508 473.999 76.7817 473.999 75.9468C473.999 75.0942 473.796 74.312 473.392 73.6001C472.988 72.8794 472.438 72.3037 471.744 71.873C471.059 71.4424 470.285 71.2271 469.424 71.2271C468.554 71.2271 467.776 71.4468 467.09 71.8862C466.405 72.3169 465.86 72.8926 465.456 73.6133C465.06 74.3252 464.862 75.1118 464.862 75.9731ZM487.367 70.2251C487.367 70.9282 487.028 71.3193 486.352 71.3984C486.105 71.4248 485.793 71.3457 485.416 71.1611C485.038 70.9678 484.655 70.8711 484.269 70.8711C483.504 70.8711 482.897 71.0688 482.449 71.4644C482.001 71.8511 481.68 72.374 481.487 73.0332C481.293 73.6924 481.197 74.4307 481.197 75.248V82.0508C481.197 82.4375 481.078 82.7451 480.841 82.9736C480.612 83.2021 480.292 83.3164 479.878 83.3164C479.474 83.3164 479.153 83.2021 478.916 82.9736C478.679 82.7451 478.56 82.4331 478.56 82.0376V69.8955C478.56 69.5 478.657 69.1748 478.85 68.9199C479.052 68.665 479.325 68.5376 479.667 68.5376C479.87 68.5376 480.103 68.6255 480.366 68.8013C480.639 68.9683 480.828 69.2583 480.933 69.6714L481.065 70.6206C481.179 70.3745 481.399 70.0889 481.724 69.7637C482.049 69.4385 482.436 69.1572 482.884 68.9199C483.333 68.6738 483.798 68.5508 484.282 68.5508C485.178 68.5508 485.917 68.6562 486.497 68.8672C487.077 69.0693 487.367 69.522 487.367 70.2251ZM494.71 68.6035C495.879 68.6035 496.951 68.8936 497.927 69.4736C498.902 70.0537 499.685 70.8359 500.273 71.8203C500.871 72.7959 501.17 73.8813 501.17 75.0767C501.17 75.3228 501.157 75.5732 501.13 75.8281C501.095 76.1533 500.946 76.4302 500.682 76.6587C500.427 76.8784 500.137 76.9883 499.812 76.9883L490.597 77.0015C490.746 77.6343 491.027 78.2275 491.44 78.7812C491.854 79.335 492.354 79.7832 492.943 80.126C493.541 80.4688 494.191 80.6401 494.895 80.6401C495.65 80.6401 496.327 80.4556 496.925 80.0864C497.522 79.7173 497.988 79.291 498.322 78.8076C498.428 78.6406 498.586 78.5 498.797 78.3857C499.017 78.2715 499.223 78.2144 499.417 78.2144C499.777 78.2144 500.084 78.3462 500.339 78.6099C500.603 78.8735 500.735 79.1855 500.735 79.5459C500.735 79.8271 500.656 80.0776 500.498 80.2974C499.953 81.0972 499.201 81.7915 498.243 82.3804C497.294 82.9604 496.191 83.2505 494.934 83.2505C493.923 83.2505 492.983 83.0527 492.113 82.6572C491.251 82.2617 490.5 81.7212 489.858 81.0356C489.217 80.3501 488.716 79.5635 488.355 78.6758C488.004 77.7793 487.828 76.8345 487.828 75.8413C487.828 74.8833 488.004 73.9736 488.355 73.1123C488.707 72.2422 489.195 71.4688 489.819 70.792C490.452 70.1152 491.186 69.5835 492.021 69.1968C492.855 68.8013 493.752 68.6035 494.71 68.6035ZM498.454 74.3516C498.287 73.4902 497.856 72.7563 497.162 72.1499C496.468 71.5435 495.65 71.2402 494.71 71.2402C493.752 71.2402 492.904 71.5522 492.166 72.1763C491.436 72.8003 490.944 73.5298 490.689 74.3647L498.454 74.3516ZM512.64 66.2041C512.64 65.8438 512.767 65.5361 513.022 65.2812C513.277 65.0176 513.589 64.8857 513.958 64.8857C514.318 64.8857 514.626 65.0176 514.881 65.2812C515.145 65.5361 515.276 65.8438 515.276 66.2041V68.8276H517.043C517.386 68.8276 517.68 68.9507 517.926 69.1968C518.172 69.4429 518.295 69.7373 518.295 70.0801C518.295 70.4229 518.172 70.7173 517.926 70.9634C517.68 71.2095 517.386 71.3325 517.043 71.3325H515.263L515.25 79.4932V79.5195C515.25 79.9502 515.298 80.249 515.395 80.416C515.492 80.5742 515.689 80.6533 515.988 80.6533C516.366 80.6533 516.7 80.5522 516.99 80.3501C517.096 80.2798 517.223 80.2183 517.373 80.1655C517.522 80.104 517.667 80.0732 517.808 80.0732C518.168 80.0732 518.476 80.2007 518.73 80.4556C518.994 80.7104 519.126 81.0181 519.126 81.3784C519.126 81.8091 518.95 82.1562 518.599 82.4199C518.265 82.6748 517.882 82.8857 517.452 83.0527C517.021 83.2197 516.56 83.3032 516.067 83.3032C514.96 83.3032 514.107 82.9648 513.51 82.2881C512.912 81.6025 512.613 80.75 512.613 79.7305V79.6118L512.626 71.3457H510.926C510.583 71.3457 510.289 71.2227 510.042 70.9766C509.796 70.7305 509.673 70.436 509.673 70.0933C509.673 69.7505 509.796 69.4561 510.042 69.21C510.289 68.9639 510.583 68.8408 510.926 68.8408H512.64V66.2041ZM520.695 65.0439C520.695 64.6924 520.822 64.3936 521.077 64.1475C521.332 63.8926 521.644 63.7651 522.013 63.7651C522.374 63.7651 522.681 63.8926 522.936 64.1475C523.2 64.3936 523.332 64.6924 523.332 65.0439V70.792C523.666 70.0801 524.153 69.5352 524.795 69.1572C525.437 68.7705 526.056 68.5771 526.654 68.5771C528.034 68.5771 529.159 68.8584 530.029 69.4209C530.908 69.9834 531.554 70.7656 531.967 71.7676C532.38 72.7695 532.586 73.9253 532.586 75.2349V75.3535L532.573 82.0112V82.0244C532.573 82.376 532.441 82.6792 532.178 82.9341C531.923 83.1802 531.615 83.3032 531.255 83.3032C530.895 83.3032 530.583 83.1802 530.319 82.9341C530.064 82.6792 529.937 82.376 529.937 82.0244V82.0112L529.95 75.4194V75.3931C529.95 74.0396 529.726 73.0068 529.277 72.2949C528.829 71.583 527.955 71.2271 526.654 71.2271C525.555 71.2271 524.729 71.6094 524.175 72.374C523.63 73.1387 523.358 74.123 523.358 75.3271V82.0376C523.358 82.3892 523.226 82.6924 522.962 82.9473C522.708 83.1934 522.4 83.3164 522.04 83.3164C521.662 83.3164 521.341 83.189 521.077 82.9341C520.822 82.6704 520.695 82.3716 520.695 82.0376V65.0439ZM542.052 68.498C542.703 68.498 543.335 68.6299 543.951 68.8936C544.575 69.1484 545.128 69.4736 545.612 69.8691C546.104 70.2559 546.469 70.6558 546.706 71.0688L546.851 69.8032C546.851 69.4429 546.957 69.1353 547.167 68.8804C547.378 68.6167 547.664 68.4849 548.024 68.4849C548.385 68.4849 548.692 68.6167 548.947 68.8804C549.211 69.1353 549.343 69.4429 549.343 69.8032V69.8296L549.316 82.0376C549.316 82.3979 549.185 82.71 548.921 82.9736C548.666 83.2285 548.358 83.356 547.998 83.356C547.638 83.356 547.352 83.2285 547.141 82.9736C546.93 82.71 546.825 82.3979 546.825 82.0376L546.68 80.9829C546.223 81.7651 545.555 82.3496 544.676 82.7363C543.797 83.1143 542.914 83.3032 542.026 83.3032C541.033 83.3032 540.101 83.1099 539.231 82.7231C538.361 82.3276 537.596 81.7871 536.937 81.1016C536.278 80.416 535.759 79.6294 535.381 78.7417C535.012 77.854 534.828 76.918 534.828 75.9336C534.828 74.958 535.008 74.0264 535.368 73.1387C535.737 72.2422 536.247 71.4468 536.897 70.7524C537.557 70.0493 538.321 69.5 539.191 69.1045C540.07 68.7002 541.024 68.498 542.052 68.498ZM546.601 75.9072C546.601 75.0459 546.398 74.2549 545.994 73.5342C545.599 72.8135 545.058 72.2334 544.373 71.7939C543.687 71.3545 542.905 71.1348 542.026 71.1348C541.165 71.1348 540.387 71.3545 539.692 71.7939C538.998 72.2334 538.449 72.8179 538.044 73.5474C537.64 74.2681 537.438 75.0503 537.438 75.894C537.438 76.7466 537.645 77.5376 538.058 78.2671C538.471 78.9878 539.024 79.5679 539.719 80.0073C540.422 80.4468 541.195 80.6665 542.039 80.6665C542.883 80.6665 543.647 80.4468 544.333 80.0073C545.027 79.5679 545.577 78.9878 545.981 78.2671C546.394 77.5376 546.601 76.751 546.601 75.9072ZM554.55 70.647C555.025 70.1812 555.592 69.7197 556.251 69.2627C556.919 68.8057 557.692 68.5771 558.571 68.5771C559.723 68.5771 560.681 68.8848 561.445 69.5C562.21 70.1064 562.772 70.814 563.133 71.6226C563.414 72.2642 563.581 72.9014 563.634 73.5342C563.695 74.1582 563.726 74.7471 563.726 75.3008V81.9585C563.726 82.3188 563.594 82.6309 563.331 82.8945C563.076 83.1494 562.768 83.2769 562.408 83.2769C562.047 83.2769 561.735 83.1494 561.472 82.8945C561.217 82.6309 561.089 82.3188 561.089 81.9585V75.3008C561.089 74.7822 561.063 74.3032 561.01 73.8638C560.966 73.4243 560.87 73.0376 560.72 72.7036C560.553 72.3169 560.294 71.9741 559.942 71.6753C559.591 71.3677 559.143 71.2139 558.598 71.2139C557.297 71.2139 556.295 71.7104 555.592 72.7036C554.897 73.6968 554.555 75.0371 554.563 76.7246L554.577 81.9849C554.577 82.3452 554.445 82.6572 554.181 82.9209C553.926 83.1758 553.619 83.3032 553.258 83.3032C552.889 83.3032 552.577 83.1758 552.322 82.9209C552.067 82.6572 551.94 82.3408 551.94 81.9717L551.914 69.856C551.914 69.4956 552.01 69.188 552.204 68.9331C552.406 68.6694 552.687 68.5376 553.047 68.5376C553.408 68.5376 553.685 68.6694 553.878 68.9331C554.071 69.188 554.221 69.4956 554.326 69.856L554.55 70.647ZM574.998 83.0396C574.638 83.0396 574.326 82.9121 574.062 82.6572C573.807 82.3936 573.68 82.0815 573.68 81.7212C573.68 81.2729 573.816 80.8115 574.088 80.3369C574.361 79.8535 574.699 79.3877 575.104 78.9395C575.508 78.4824 575.917 78.0649 576.33 77.687C576.743 77.3091 577.09 76.9971 577.371 76.751C577.925 76.2676 578.522 75.8193 579.164 75.4062C579.806 74.9844 580.412 74.5449 580.983 74.0879C581.563 73.6221 582.034 73.0947 582.394 72.5059C582.763 71.9082 582.948 71.2007 582.948 70.3833C582.948 69.7417 582.803 69.166 582.513 68.6562C582.223 68.1465 581.832 67.7422 581.339 67.4434C580.847 67.1357 580.293 66.9819 579.678 66.9819C578.914 66.9819 578.254 67.2236 577.701 67.707C577.156 68.1904 576.817 68.7397 576.686 69.355C576.624 69.6362 576.466 69.8823 576.211 70.0933C575.965 70.3042 575.688 70.4097 575.38 70.4097C575.02 70.4097 574.708 70.2822 574.444 70.0273C574.189 69.7725 574.062 69.4692 574.062 69.1177C574.062 68.4673 574.225 67.8564 574.55 67.2852C574.875 66.7051 575.306 66.1953 575.842 65.7559C576.387 65.3164 576.993 64.9736 577.661 64.7275C578.329 64.4727 579.01 64.3452 579.705 64.3452C580.847 64.3452 581.858 64.6133 582.737 65.1494C583.625 65.6768 584.319 66.3931 584.82 67.2983C585.33 68.2036 585.584 69.2144 585.584 70.3306C585.584 71.4907 585.36 72.4883 584.912 73.3232C584.464 74.1582 583.897 74.8877 583.211 75.5117C582.526 76.127 581.818 76.6851 581.089 77.186C580.359 77.687 579.709 78.1836 579.138 78.6758C578.505 79.2383 577.947 79.814 577.463 80.4028H585.176C585.536 80.4028 585.844 80.5347 586.099 80.7983C586.362 81.0532 586.494 81.3608 586.494 81.7212C586.494 82.0815 586.362 82.3936 586.099 82.6572C585.844 82.9121 585.536 83.0396 585.176 83.0396H574.998ZM589.065 65.0439C589.065 64.6924 589.192 64.3936 589.447 64.1475C589.702 63.8926 590.014 63.7651 590.383 63.7651C590.744 63.7651 591.051 63.8926 591.306 64.1475C591.57 64.3936 591.702 64.6924 591.702 65.0439V70.792C592.036 70.0801 592.523 69.5352 593.165 69.1572C593.807 68.7705 594.426 68.5771 595.024 68.5771C596.404 68.5771 597.529 68.8584 598.399 69.4209C599.278 69.9834 599.924 70.7656 600.337 71.7676C600.75 72.7695 600.957 73.9253 600.957 75.2349V75.3535L600.943 82.0112V82.0244C600.943 82.376 600.812 82.6792 600.548 82.9341C600.293 83.1802 599.985 83.3032 599.625 83.3032C599.265 83.3032 598.953 83.1802 598.689 82.9341C598.434 82.6792 598.307 82.376 598.307 82.0244V82.0112L598.32 75.4194V75.3931C598.32 74.0396 598.096 73.0068 597.647 72.2949C597.199 71.583 596.325 71.2271 595.024 71.2271C593.925 71.2271 593.099 71.6094 592.545 72.374C592 73.1387 591.728 74.123 591.728 75.3271V82.0376C591.728 82.3892 591.596 82.6924 591.333 82.9473C591.078 83.1934 590.77 83.3164 590.41 83.3164C590.032 83.3164 589.711 83.189 589.447 82.9341C589.192 82.6704 589.065 82.3716 589.065 82.0376V65.0439Z" fill="white"/>
<path d="M454.156 95.4639C454.206 95.3499 454.291 95.2542 454.409 95.1768C454.532 95.0947 454.658 95.0537 454.785 95.0537C454.908 95.0537 455.031 95.0947 455.154 95.1768C455.282 95.2542 455.368 95.3499 455.414 95.4639L459.174 104.187C459.215 104.278 459.235 104.371 459.235 104.467C459.235 104.654 459.167 104.815 459.03 104.952C458.898 105.084 458.739 105.15 458.552 105.15C458.424 105.15 458.299 105.109 458.176 105.027C458.053 104.945 457.966 104.847 457.916 104.733L456.747 102.02L452.851 101.965L451.654 104.74C451.609 104.854 451.524 104.952 451.401 105.034C451.278 105.121 451.153 105.164 451.025 105.164C450.839 105.164 450.677 105.098 450.54 104.966C450.408 104.829 450.342 104.667 450.342 104.48C450.342 104.385 450.362 104.291 450.403 104.2L454.156 95.4639ZM454.785 97.4668L453.438 100.604L456.152 100.639L454.785 97.4668ZM463.686 97.501C464.337 97.501 464.927 97.6445 465.456 97.9316C465.989 98.2142 466.383 98.597 466.639 99.0801C466.693 99.1758 466.721 99.2852 466.721 99.4082C466.721 99.5951 466.652 99.7568 466.516 99.8936C466.383 100.026 466.224 100.092 466.037 100.092C465.923 100.092 465.805 100.055 465.682 99.9824C465.563 99.9049 465.479 99.8161 465.429 99.7158C465.278 99.4333 465.053 99.2214 464.752 99.0801C464.451 98.9388 464.093 98.8682 463.679 98.8682C463.437 98.8682 463.164 98.9001 462.858 98.9639C462.553 99.0277 462.289 99.1302 462.065 99.2715C461.842 99.4128 461.73 99.6042 461.73 99.8457C461.73 100.023 461.822 100.165 462.004 100.27C462.191 100.37 462.419 100.447 462.688 100.502C462.961 100.557 463.234 100.598 463.508 100.625C463.781 100.648 464.005 100.668 464.178 100.687C464.515 100.723 464.848 100.78 465.176 100.857C465.504 100.93 465.805 101.04 466.078 101.186C466.352 101.331 466.568 101.53 466.728 101.78C466.892 102.031 466.974 102.35 466.974 102.737C466.974 103.289 466.814 103.74 466.495 104.091C466.176 104.442 465.768 104.701 465.271 104.87C464.775 105.039 464.255 105.123 463.713 105.123C462.97 105.123 462.293 104.977 461.683 104.686C461.076 104.389 460.628 103.959 460.336 103.394C460.281 103.284 460.254 103.177 460.254 103.072C460.254 102.885 460.32 102.726 460.452 102.594C460.589 102.457 460.751 102.389 460.938 102.389C461.056 102.389 461.174 102.427 461.293 102.505C461.416 102.578 461.503 102.667 461.553 102.771C461.73 103.118 462.004 103.368 462.373 103.523C462.747 103.678 463.191 103.756 463.706 103.756C463.979 103.756 464.262 103.726 464.554 103.667C464.85 103.603 465.098 103.496 465.299 103.346C465.504 103.195 465.606 102.99 465.606 102.73C465.606 102.53 465.518 102.386 465.34 102.3C465.167 102.209 464.957 102.149 464.711 102.122C464.469 102.095 464.244 102.07 464.034 102.047C463.633 102.006 463.218 101.953 462.79 101.89C462.362 101.821 461.963 101.714 461.594 101.568C461.229 101.423 460.933 101.213 460.705 100.939C460.477 100.666 460.363 100.301 460.363 99.8457C460.363 99.4355 460.461 99.0824 460.657 98.7861C460.858 98.4899 461.122 98.2484 461.45 98.0615C461.778 97.8701 462.136 97.7288 462.523 97.6377C462.915 97.5465 463.303 97.501 463.686 97.501ZM475.751 97.4805C476.088 97.4805 476.416 97.5488 476.735 97.6855C477.059 97.8177 477.346 97.9863 477.597 98.1914C477.852 98.3919 478.041 98.5993 478.164 98.8135L478.239 98.1572C478.239 97.9704 478.294 97.8109 478.403 97.6787C478.513 97.542 478.661 97.4736 478.848 97.4736C479.035 97.4736 479.194 97.542 479.326 97.6787C479.463 97.8109 479.531 97.9704 479.531 98.1572V98.1709L479.518 104.501C479.518 104.688 479.449 104.85 479.312 104.986C479.18 105.118 479.021 105.185 478.834 105.185C478.647 105.185 478.499 105.118 478.39 104.986C478.28 104.85 478.226 104.688 478.226 104.501L478.15 103.954C477.913 104.36 477.567 104.663 477.111 104.863C476.656 105.059 476.198 105.157 475.737 105.157C475.222 105.157 474.739 105.057 474.288 104.856C473.837 104.651 473.44 104.371 473.099 104.016C472.757 103.66 472.488 103.252 472.292 102.792C472.101 102.332 472.005 101.846 472.005 101.336C472.005 100.83 472.098 100.347 472.285 99.8867C472.477 99.4219 472.741 99.0094 473.078 98.6494C473.42 98.2848 473.816 98 474.268 97.7949C474.723 97.5853 475.218 97.4805 475.751 97.4805ZM478.109 101.322C478.109 100.876 478.005 100.465 477.795 100.092C477.59 99.7181 477.31 99.4173 476.954 99.1895C476.599 98.9616 476.193 98.8477 475.737 98.8477C475.291 98.8477 474.887 98.9616 474.527 99.1895C474.167 99.4173 473.882 99.7204 473.673 100.099C473.463 100.472 473.358 100.878 473.358 101.315C473.358 101.757 473.465 102.168 473.68 102.546C473.894 102.92 474.181 103.22 474.541 103.448C474.906 103.676 475.307 103.79 475.744 103.79C476.182 103.79 476.578 103.676 476.934 103.448C477.294 103.22 477.578 102.92 477.788 102.546C478.002 102.168 478.109 101.76 478.109 101.322ZM484.385 101.322C484.385 100.807 484.48 100.306 484.672 99.8184C484.863 99.3307 485.146 98.9001 485.52 98.5264C485.852 98.2028 486.235 97.9521 486.668 97.7744C487.101 97.5967 487.55 97.5078 488.015 97.5078C488.489 97.5078 488.91 97.6081 489.279 97.8086C489.648 98.0091 489.979 98.2803 490.271 98.6221V95.7441C490.271 95.5573 490.337 95.3978 490.469 95.2656C490.605 95.1289 490.767 95.0605 490.954 95.0605C491.141 95.0605 491.3 95.1289 491.433 95.2656C491.569 95.3978 491.638 95.5573 491.638 95.7441V104.474C491.638 104.66 491.569 104.822 491.433 104.959C491.3 105.091 491.141 105.157 490.954 105.157C490.767 105.157 490.626 105.091 490.53 104.959C490.439 104.822 490.38 104.66 490.353 104.474L490.271 103.92C490.011 104.294 489.667 104.588 489.238 104.802C488.814 105.016 488.391 105.123 487.967 105.123C487.452 105.123 486.976 105.021 486.538 104.815C486.105 104.61 485.727 104.332 485.403 103.981C485.08 103.626 484.829 103.22 484.651 102.765C484.474 102.309 484.385 101.828 484.385 101.322ZM487.953 103.756C488.249 103.756 488.543 103.69 488.835 103.558C489.127 103.425 489.375 103.248 489.58 103.024C489.785 102.797 489.942 102.53 490.052 102.225C490.166 101.919 490.223 101.607 490.223 101.288C490.223 100.851 490.127 100.447 489.936 100.078C489.744 99.709 489.48 99.4128 489.143 99.1895C488.81 98.9661 488.425 98.8545 487.987 98.8545C487.559 98.8545 487.174 98.973 486.832 99.21C486.495 99.4424 486.228 99.7477 486.032 100.126C485.841 100.5 485.745 100.898 485.745 101.322C485.745 101.746 485.841 102.145 486.032 102.519C486.224 102.888 486.486 103.186 486.818 103.414C487.156 103.642 487.534 103.756 487.953 103.756ZM496.587 97.4805C496.924 97.4805 497.252 97.5488 497.571 97.6855C497.895 97.8177 498.182 97.9863 498.433 98.1914C498.688 98.3919 498.877 98.5993 499 98.8135L499.075 98.1572C499.075 97.9704 499.13 97.8109 499.239 97.6787C499.349 97.542 499.497 97.4736 499.684 97.4736C499.87 97.4736 500.03 97.542 500.162 97.6787C500.299 97.8109 500.367 97.9704 500.367 98.1572V98.1709L500.354 104.501C500.354 104.688 500.285 104.85 500.148 104.986C500.016 105.118 499.857 105.185 499.67 105.185C499.483 105.185 499.335 105.118 499.226 104.986C499.116 104.85 499.062 104.688 499.062 104.501L498.986 103.954C498.749 104.36 498.403 104.663 497.947 104.863C497.492 105.059 497.034 105.157 496.573 105.157C496.058 105.157 495.575 105.057 495.124 104.856C494.673 104.651 494.276 104.371 493.935 104.016C493.593 103.66 493.324 103.252 493.128 102.792C492.937 102.332 492.841 101.846 492.841 101.336C492.841 100.83 492.934 100.347 493.121 99.8867C493.312 99.4219 493.577 99.0094 493.914 98.6494C494.256 98.2848 494.652 98 495.104 97.7949C495.559 97.5853 496.054 97.4805 496.587 97.4805ZM498.945 101.322C498.945 100.876 498.84 100.465 498.631 100.092C498.426 99.7181 498.146 99.4173 497.79 99.1895C497.435 98.9616 497.029 98.8477 496.573 98.8477C496.127 98.8477 495.723 98.9616 495.363 99.1895C495.003 99.4173 494.718 99.7204 494.509 100.099C494.299 100.472 494.194 100.878 494.194 101.315C494.194 101.757 494.301 102.168 494.516 102.546C494.73 102.92 495.017 103.22 495.377 103.448C495.742 103.676 496.143 103.79 496.58 103.79C497.018 103.79 497.414 103.676 497.77 103.448C498.13 103.22 498.414 102.92 498.624 102.546C498.838 102.168 498.945 101.76 498.945 101.322ZM502.438 96.8105C502.229 96.8105 502.058 96.7467 501.926 96.6191C501.794 96.487 501.725 96.3252 501.721 96.1338L501.707 95.6143C501.707 95.4411 501.785 95.3021 501.939 95.1973C502.094 95.0879 502.243 95.0332 502.384 95.0332C502.575 95.0332 502.735 95.0993 502.862 95.2314C502.994 95.3636 503.063 95.5231 503.067 95.71L503.074 96.1201C503.074 96.2979 503.015 96.4574 502.896 96.5986C502.778 96.7399 502.625 96.8105 502.438 96.8105ZM501.7 98.1025C501.7 97.9294 501.773 97.7881 501.919 97.6787C502.065 97.5693 502.206 97.5146 502.343 97.5146C502.543 97.5146 502.714 97.5739 502.855 97.6924C502.997 97.8109 503.067 97.9681 503.067 98.1641V98.1709L503.081 104.501C503.081 104.683 503.013 104.838 502.876 104.966C502.744 105.093 502.584 105.157 502.397 105.157C502.206 105.157 502.044 105.093 501.912 104.966C501.78 104.834 501.714 104.676 501.714 104.494L501.7 98.1025ZM505.029 95.0264C505.248 95.0264 505.424 95.0993 505.556 95.2451C505.688 95.3864 505.752 95.5413 505.747 95.71V104.515C505.747 104.697 505.674 104.845 505.528 104.959C505.387 105.068 505.246 105.123 505.104 105.123C504.909 105.123 504.738 105.059 504.592 104.932C504.451 104.804 504.38 104.64 504.38 104.439V95.71C504.38 95.5368 504.441 95.3796 504.564 95.2383C504.692 95.097 504.847 95.0264 505.029 95.0264ZM507.251 97.4736C507.383 97.4736 507.506 97.5124 507.62 97.5898C507.739 97.6673 507.823 97.763 507.873 97.877L510.197 103.161L512.187 97.9248C512.237 97.8018 512.319 97.6992 512.433 97.6172C512.551 97.5352 512.681 97.4941 512.822 97.4941C513.009 97.4941 513.169 97.5625 513.301 97.6992C513.438 97.8314 513.506 97.9909 513.506 98.1777C513.506 98.2734 513.488 98.3623 513.451 98.4443L510.936 105.007C510.926 105.066 510.91 105.118 510.888 105.164C510.865 105.21 510.842 105.251 510.819 105.287L510.437 106.244C510.341 106.481 510.227 106.732 510.095 106.996C509.963 107.265 509.78 107.518 509.548 107.755C509.325 107.987 509.051 108.183 508.728 108.343C508.409 108.502 508.074 108.582 507.723 108.582C507.531 108.582 507.369 108.511 507.237 108.37C507.105 108.233 507.039 108.072 507.039 107.885C507.039 107.702 507.101 107.543 507.224 107.406C507.351 107.274 507.504 107.206 507.682 107.201C508.083 107.174 508.393 107.017 508.611 106.729C508.83 106.447 509.017 106.112 509.172 105.725L509.5 104.891L506.629 98.4512C506.588 98.3555 506.567 98.2575 506.567 98.1572C506.567 97.9704 506.633 97.8109 506.766 97.6787C506.902 97.542 507.064 97.4736 507.251 97.4736ZM525.448 101.336C525.448 101.851 525.353 102.352 525.161 102.84C524.974 103.327 524.692 103.758 524.313 104.132C523.981 104.455 523.598 104.706 523.165 104.884C522.732 105.062 522.283 105.15 521.818 105.15C521.344 105.15 520.923 105.05 520.554 104.85C520.189 104.649 519.859 104.378 519.562 104.036V106.914C519.562 107.101 519.494 107.26 519.357 107.393C519.225 107.529 519.066 107.598 518.879 107.598C518.692 107.598 518.53 107.529 518.394 107.393C518.261 107.26 518.195 107.101 518.195 106.914V98.1846C518.195 97.9977 518.261 97.8382 518.394 97.7061C518.53 97.5693 518.692 97.501 518.879 97.501C519.066 97.501 519.205 97.5693 519.296 97.7061C519.392 97.8382 519.453 97.9977 519.48 98.1846L519.562 98.7383C519.822 98.3646 520.164 98.0706 520.588 97.8564C521.016 97.6423 521.442 97.5352 521.866 97.5352C522.381 97.5352 522.855 97.6377 523.288 97.8428C523.726 98.0479 524.106 98.3281 524.43 98.6836C524.753 99.0345 525.004 99.4378 525.182 99.8936C525.359 100.349 525.448 100.83 525.448 101.336ZM521.88 98.9023C521.584 98.9023 521.29 98.9684 520.998 99.1006C520.706 99.2282 520.458 99.4059 520.253 99.6338C520.048 99.8571 519.888 100.124 519.774 100.434C519.665 100.739 519.61 101.051 519.61 101.37C519.61 101.808 519.706 102.211 519.897 102.58C520.089 102.949 520.353 103.245 520.69 103.469C521.028 103.692 521.413 103.804 521.846 103.804C522.279 103.804 522.664 103.688 523.001 103.455C523.338 103.218 523.603 102.913 523.794 102.539C523.99 102.161 524.088 101.76 524.088 101.336C524.088 100.908 523.992 100.509 523.801 100.14C523.609 99.7705 523.347 99.472 523.015 99.2441C522.682 99.0163 522.304 98.9023 521.88 98.9023ZM527.096 95.0264C527.314 95.0264 527.49 95.0993 527.622 95.2451C527.754 95.3864 527.818 95.5413 527.813 95.71V104.515C527.813 104.697 527.741 104.845 527.595 104.959C527.453 105.068 527.312 105.123 527.171 105.123C526.975 105.123 526.804 105.059 526.658 104.932C526.517 104.804 526.446 104.64 526.446 104.439V95.71C526.446 95.5368 526.508 95.3796 526.631 95.2383C526.758 95.097 526.913 95.0264 527.096 95.0264ZM532.722 97.4805C533.059 97.4805 533.387 97.5488 533.706 97.6855C534.03 97.8177 534.317 97.9863 534.567 98.1914C534.823 98.3919 535.012 98.5993 535.135 98.8135L535.21 98.1572C535.21 97.9704 535.265 97.8109 535.374 97.6787C535.483 97.542 535.632 97.4736 535.818 97.4736C536.005 97.4736 536.165 97.542 536.297 97.6787C536.434 97.8109 536.502 97.9704 536.502 98.1572V98.1709L536.488 104.501C536.488 104.688 536.42 104.85 536.283 104.986C536.151 105.118 535.992 105.185 535.805 105.185C535.618 105.185 535.47 105.118 535.36 104.986C535.251 104.85 535.196 104.688 535.196 104.501L535.121 103.954C534.884 104.36 534.538 104.663 534.082 104.863C533.626 105.059 533.168 105.157 532.708 105.157C532.193 105.157 531.71 105.057 531.259 104.856C530.808 104.651 530.411 104.371 530.069 104.016C529.728 103.66 529.459 103.252 529.263 102.792C529.071 102.332 528.976 101.846 528.976 101.336C528.976 100.83 529.069 100.347 529.256 99.8867C529.447 99.4219 529.712 99.0094 530.049 98.6494C530.391 98.2848 530.787 98 531.238 97.7949C531.694 97.5853 532.188 97.4805 532.722 97.4805ZM535.08 101.322C535.08 100.876 534.975 100.465 534.766 100.092C534.561 99.7181 534.28 99.4173 533.925 99.1895C533.569 98.9616 533.164 98.8477 532.708 98.8477C532.261 98.8477 531.858 98.9616 531.498 99.1895C531.138 99.4173 530.853 99.7204 530.644 100.099C530.434 100.472 530.329 100.878 530.329 101.315C530.329 101.757 530.436 102.168 530.65 102.546C530.865 102.92 531.152 103.22 531.512 103.448C531.876 103.676 532.277 103.79 532.715 103.79C533.152 103.79 533.549 103.676 533.904 103.448C534.264 103.22 534.549 102.92 534.759 102.546C534.973 102.168 535.08 101.76 535.08 101.322ZM538.04 97.4736C538.172 97.4736 538.295 97.5124 538.409 97.5898C538.528 97.6673 538.612 97.763 538.662 97.877L540.986 103.161L542.976 97.9248C543.026 97.8018 543.108 97.6992 543.222 97.6172C543.34 97.5352 543.47 97.4941 543.611 97.4941C543.798 97.4941 543.958 97.5625 544.09 97.6992C544.227 97.8314 544.295 97.9909 544.295 98.1777C544.295 98.2734 544.277 98.3623 544.24 98.4443L541.725 105.007C541.715 105.066 541.7 105.118 541.677 105.164C541.654 105.21 541.631 105.251 541.608 105.287L541.226 106.244C541.13 106.481 541.016 106.732 540.884 106.996C540.752 107.265 540.569 107.518 540.337 107.755C540.114 107.987 539.84 108.183 539.517 108.343C539.198 108.502 538.863 108.582 538.512 108.582C538.32 108.582 538.159 108.511 538.026 108.37C537.894 108.233 537.828 108.072 537.828 107.885C537.828 107.702 537.89 107.543 538.013 107.406C538.14 107.274 538.293 107.206 538.471 107.201C538.872 107.174 539.182 107.017 539.4 106.729C539.619 106.447 539.806 106.112 539.961 105.725L540.289 104.891L537.418 98.4512C537.377 98.3555 537.356 98.2575 537.356 98.1572C537.356 97.9704 537.423 97.8109 537.555 97.6787C537.691 97.542 537.853 97.4736 538.04 97.4736ZM545.86 96.8105C545.651 96.8105 545.48 96.7467 545.348 96.6191C545.215 96.487 545.147 96.3252 545.143 96.1338L545.129 95.6143C545.129 95.4411 545.206 95.3021 545.361 95.1973C545.516 95.0879 545.664 95.0332 545.806 95.0332C545.997 95.0332 546.157 95.0993 546.284 95.2314C546.416 95.3636 546.485 95.5231 546.489 95.71L546.496 96.1201C546.496 96.2979 546.437 96.4574 546.318 96.5986C546.2 96.7399 546.047 96.8105 545.86 96.8105ZM545.122 98.1025C545.122 97.9294 545.195 97.7881 545.341 97.6787C545.487 97.5693 545.628 97.5146 545.765 97.5146C545.965 97.5146 546.136 97.5739 546.277 97.6924C546.419 97.8109 546.489 97.9681 546.489 98.1641V98.1709L546.503 104.501C546.503 104.683 546.435 104.838 546.298 104.966C546.166 105.093 546.006 105.157 545.819 105.157C545.628 105.157 545.466 105.093 545.334 104.966C545.202 104.834 545.136 104.676 545.136 104.494L545.122 98.1025ZM549.169 98.5947C549.415 98.3532 549.709 98.1139 550.051 97.877C550.397 97.64 550.798 97.5215 551.254 97.5215C551.851 97.5215 552.348 97.681 552.744 98C553.141 98.3145 553.432 98.6813 553.619 99.1006C553.765 99.4333 553.852 99.7637 553.879 100.092C553.911 100.415 553.927 100.721 553.927 101.008V104.46C553.927 104.647 553.858 104.809 553.722 104.945C553.59 105.077 553.43 105.144 553.243 105.144C553.056 105.144 552.895 105.077 552.758 104.945C552.626 104.809 552.56 104.647 552.56 104.46V101.008C552.56 100.739 552.546 100.491 552.519 100.263C552.496 100.035 552.446 99.8343 552.368 99.6611C552.282 99.4606 552.147 99.2829 551.965 99.1279C551.783 98.9684 551.55 98.8887 551.268 98.8887C550.593 98.8887 550.074 99.1462 549.709 99.6611C549.349 100.176 549.171 100.871 549.176 101.746L549.183 104.474C549.183 104.66 549.114 104.822 548.978 104.959C548.845 105.091 548.686 105.157 548.499 105.157C548.308 105.157 548.146 105.091 548.014 104.959C547.882 104.822 547.815 104.658 547.815 104.467L547.802 98.1846C547.802 97.9977 547.852 97.8382 547.952 97.7061C548.057 97.5693 548.203 97.501 548.39 97.501C548.576 97.501 548.72 97.5693 548.82 97.7061C548.921 97.8382 548.998 97.9977 549.053 98.1846L549.169 98.5947ZM561.453 97.4873C561.64 97.4873 561.799 97.5557 561.932 97.6924C562.068 97.8245 562.137 97.984 562.137 98.1709V98.1846L562.089 104.713C562.084 105.223 561.979 105.704 561.774 106.155C561.574 106.606 561.296 107.005 560.94 107.352C560.585 107.698 560.177 107.969 559.717 108.165C559.261 108.361 558.776 108.459 558.261 108.459C557.682 108.459 557.128 108.331 556.6 108.076C556.076 107.826 555.631 107.472 555.267 107.017C555.162 106.884 555.109 106.739 555.109 106.579C555.109 106.392 555.175 106.23 555.308 106.094C555.444 105.962 555.606 105.896 555.793 105.896C555.884 105.896 555.982 105.921 556.087 105.971C556.196 106.021 556.281 106.085 556.34 106.162C556.568 106.445 556.855 106.67 557.201 106.839C557.552 107.007 557.908 107.092 558.268 107.092C558.71 107.092 559.115 106.982 559.484 106.764C559.858 106.545 560.157 106.253 560.38 105.889C560.608 105.524 560.722 105.125 560.722 104.692V104.022C560.453 104.442 560.127 104.731 559.744 104.891C559.366 105.046 558.979 105.123 558.582 105.123C558.085 105.123 557.623 105.016 557.194 104.802C556.771 104.588 556.401 104.298 556.087 103.934C555.772 103.569 555.526 103.157 555.349 102.696C555.175 102.231 555.089 101.753 555.089 101.261C555.089 100.769 555.175 100.299 555.349 99.8525C555.526 99.4014 555.772 99.0003 556.087 98.6494C556.401 98.2985 556.771 98.0205 557.194 97.8154C557.618 97.6104 558.081 97.5078 558.582 97.5078C559.015 97.5078 559.421 97.6081 559.799 97.8086C560.177 98.0091 560.498 98.3145 560.763 98.7246L560.865 98.1777C560.902 97.9909 560.961 97.8291 561.043 97.6924C561.125 97.5557 561.262 97.4873 561.453 97.4873ZM560.708 101.268C560.708 100.853 560.617 100.465 560.435 100.105C560.252 99.7409 560.002 99.4447 559.683 99.2168C559.368 98.9889 559.008 98.875 558.603 98.875C558.188 98.875 557.819 98.9889 557.495 99.2168C557.176 99.4401 556.923 99.734 556.736 100.099C556.554 100.459 556.463 100.846 556.463 101.261C556.463 101.671 556.554 102.067 556.736 102.45C556.919 102.828 557.169 103.141 557.488 103.387C557.807 103.633 558.172 103.756 558.582 103.756C558.988 103.756 559.35 103.635 559.669 103.394C559.993 103.152 560.245 102.842 560.428 102.464C560.615 102.081 560.708 101.682 560.708 101.268ZM571.864 98.376C571.864 98.7406 571.689 98.9434 571.338 98.9844C571.21 98.998 571.049 98.957 570.853 98.8613C570.657 98.7611 570.458 98.7109 570.258 98.7109C569.861 98.7109 569.547 98.8135 569.314 99.0186C569.082 99.2191 568.916 99.4902 568.815 99.832C568.715 100.174 568.665 100.557 568.665 100.98V104.508C568.665 104.708 568.604 104.868 568.48 104.986C568.362 105.105 568.196 105.164 567.981 105.164C567.772 105.164 567.605 105.105 567.482 104.986C567.359 104.868 567.298 104.706 567.298 104.501V98.2051C567.298 98 567.348 97.8314 567.448 97.6992C567.553 97.5671 567.694 97.501 567.872 97.501C567.977 97.501 568.098 97.5465 568.234 97.6377C568.376 97.7243 568.474 97.8747 568.528 98.0889L568.597 98.5811C568.656 98.4535 568.77 98.3053 568.938 98.1367C569.107 97.9681 569.308 97.8223 569.54 97.6992C569.772 97.5716 570.014 97.5078 570.265 97.5078C570.729 97.5078 571.112 97.5625 571.413 97.6719C571.714 97.7767 571.864 98.0114 571.864 98.376ZM575.952 97.4805C576.289 97.4805 576.618 97.5488 576.937 97.6855C577.26 97.8177 577.547 97.9863 577.798 98.1914C578.053 98.3919 578.242 98.5993 578.365 98.8135L578.44 98.1572C578.44 97.9704 578.495 97.8109 578.604 97.6787C578.714 97.542 578.862 97.4736 579.049 97.4736C579.236 97.4736 579.395 97.542 579.527 97.6787C579.664 97.8109 579.732 97.9704 579.732 98.1572V98.1709L579.719 104.501C579.719 104.688 579.65 104.85 579.514 104.986C579.382 105.118 579.222 105.185 579.035 105.185C578.848 105.185 578.7 105.118 578.591 104.986C578.481 104.85 578.427 104.688 578.427 104.501L578.352 103.954C578.115 104.36 577.768 104.663 577.312 104.863C576.857 105.059 576.399 105.157 575.938 105.157C575.424 105.157 574.94 105.057 574.489 104.856C574.038 104.651 573.642 104.371 573.3 104.016C572.958 103.66 572.689 103.252 572.493 102.792C572.302 102.332 572.206 101.846 572.206 101.336C572.206 100.83 572.299 100.347 572.486 99.8867C572.678 99.4219 572.942 99.0094 573.279 98.6494C573.621 98.2848 574.018 98 574.469 97.7949C574.924 97.5853 575.419 97.4805 575.952 97.4805ZM578.311 101.322C578.311 100.876 578.206 100.465 577.996 100.092C577.791 99.7181 577.511 99.4173 577.155 99.1895C576.8 98.9616 576.394 98.8477 575.938 98.8477C575.492 98.8477 575.089 98.9616 574.729 99.1895C574.368 99.4173 574.084 99.7204 573.874 100.099C573.664 100.472 573.56 100.878 573.56 101.315C573.56 101.757 573.667 102.168 573.881 102.546C574.095 102.92 574.382 103.22 574.742 103.448C575.107 103.676 575.508 103.79 575.945 103.79C576.383 103.79 576.779 103.676 577.135 103.448C577.495 103.22 577.78 102.92 577.989 102.546C578.203 102.168 578.311 101.76 578.311 101.322ZM582.125 96.291C582.125 96.1042 582.191 95.9447 582.323 95.8125C582.455 95.6758 582.617 95.6074 582.809 95.6074C582.995 95.6074 583.155 95.6758 583.287 95.8125C583.424 95.9447 583.492 96.1042 583.492 96.291V97.6514H584.408C584.586 97.6514 584.739 97.7152 584.866 97.8428C584.994 97.9704 585.058 98.123 585.058 98.3008C585.058 98.4785 584.994 98.6312 584.866 98.7588C584.739 98.8864 584.586 98.9502 584.408 98.9502H583.485L583.479 103.182V103.195C583.479 103.419 583.504 103.574 583.554 103.66C583.604 103.742 583.706 103.783 583.861 103.783C584.057 103.783 584.23 103.731 584.381 103.626C584.436 103.59 584.502 103.558 584.579 103.53C584.657 103.498 584.732 103.482 584.805 103.482C584.992 103.482 585.151 103.549 585.283 103.681C585.42 103.813 585.488 103.972 585.488 104.159C585.488 104.382 585.397 104.562 585.215 104.699C585.042 104.831 584.843 104.941 584.62 105.027C584.397 105.114 584.158 105.157 583.902 105.157C583.328 105.157 582.886 104.982 582.576 104.631C582.266 104.275 582.111 103.833 582.111 103.305V103.243L582.118 98.957H581.236C581.059 98.957 580.906 98.8932 580.778 98.7656C580.651 98.638 580.587 98.4854 580.587 98.3076C580.587 98.1299 580.651 97.9772 580.778 97.8496C580.906 97.722 581.059 97.6582 581.236 97.6582H582.125V96.291ZM589.631 97.5352C590.237 97.5352 590.793 97.6855 591.299 97.9863C591.805 98.2871 592.21 98.6927 592.516 99.2031C592.826 99.709 592.98 100.272 592.98 100.892C592.98 101.019 592.974 101.149 592.96 101.281C592.942 101.45 592.864 101.593 592.728 101.712C592.595 101.826 592.445 101.883 592.276 101.883L587.498 101.89C587.576 102.218 587.721 102.525 587.936 102.812C588.15 103.1 588.41 103.332 588.715 103.51C589.025 103.688 589.362 103.776 589.727 103.776C590.118 103.776 590.469 103.681 590.779 103.489C591.089 103.298 591.331 103.077 591.504 102.826C591.559 102.74 591.641 102.667 591.75 102.607C591.864 102.548 591.971 102.519 592.071 102.519C592.258 102.519 592.418 102.587 592.55 102.724C592.687 102.86 592.755 103.022 592.755 103.209C592.755 103.355 592.714 103.485 592.632 103.599C592.349 104.013 591.96 104.373 591.463 104.679C590.971 104.979 590.399 105.13 589.747 105.13C589.223 105.13 588.735 105.027 588.284 104.822C587.838 104.617 587.448 104.337 587.115 103.981C586.783 103.626 586.523 103.218 586.336 102.758C586.154 102.293 586.062 101.803 586.062 101.288C586.062 100.791 586.154 100.32 586.336 99.873C586.518 99.4219 586.771 99.0208 587.095 98.6699C587.423 98.319 587.803 98.0433 588.236 97.8428C588.669 97.6377 589.134 97.5352 589.631 97.5352ZM591.572 100.516C591.486 100.069 591.262 99.6885 590.902 99.374C590.542 99.0596 590.118 98.9023 589.631 98.9023C589.134 98.9023 588.694 99.0641 588.312 99.3877C587.933 99.7113 587.678 100.09 587.546 100.522L591.572 100.516Z" fill="#F72585"/>
<path d="M702 35.75C702 35.3358 702.336 35 702.75 35C703.164 35 703.5 35.3358 703.5 35.75V138.25C703.5 138.664 703.164 139 702.75 139C702.336 139 702 138.664 702 138.25V35.75Z" fill="white"/>
<path d="M812.388 63.8706C813.732 63.8706 814.967 64.1343 816.092 64.6616C817.226 65.1802 818.21 65.8965 819.045 66.8105C819.88 67.7158 820.526 68.7617 820.983 69.9482C821.44 71.126 821.669 72.3784 821.669 73.7056C821.669 75.0327 821.44 76.2808 820.983 77.4497C820.535 78.6099 819.898 79.6338 819.072 80.5215C818.246 81.4092 817.266 82.1035 816.132 82.6045C815.007 83.1055 813.763 83.356 812.401 83.356C811.012 83.356 809.751 83.1055 808.617 82.6045C807.483 82.0947 806.508 81.396 805.69 80.5083C804.882 79.6118 804.258 78.5791 803.818 77.4102C803.379 76.2324 803.159 74.9712 803.159 73.6265C803.159 72.3169 803.388 71.0776 803.845 69.9087C804.311 68.7397 804.957 67.7026 805.783 66.7974C806.618 65.8833 807.593 65.167 808.709 64.6484C809.834 64.1299 811.061 63.8706 812.388 63.8706ZM812.44 66.5469C811.14 66.5469 809.988 66.8853 808.986 67.562C807.993 68.2388 807.211 69.1353 806.64 70.2515C806.077 71.3589 805.796 72.5718 805.796 73.8901C805.796 74.7866 805.967 75.6436 806.31 76.4609C806.653 77.2783 807.127 78.0078 807.734 78.6494C808.34 79.2822 809.039 79.7832 809.83 80.1523C810.63 80.5127 811.482 80.6929 812.388 80.6929C813.293 80.6929 814.146 80.5039 814.945 80.126C815.754 79.748 816.466 79.2383 817.081 78.5967C817.705 77.9551 818.193 77.2344 818.544 76.4346C818.896 75.626 819.072 74.7998 819.072 73.9561C819.072 72.5938 818.773 71.3545 818.175 70.2383C817.586 69.1133 816.791 68.2168 815.789 67.5488C814.787 66.8809 813.671 66.5469 812.44 66.5469ZM834.589 68.564C834.905 68.564 835.191 68.6914 835.446 68.9463C835.709 69.2012 835.841 69.4824 835.841 69.79C835.841 70.0625 835.797 70.2866 835.709 70.4624L830.146 82.499C829.909 83 829.504 83.2505 828.933 83.2505C828.344 83.2505 827.949 82.9824 827.747 82.4463L822.763 70.4097C822.693 70.2603 822.658 70.0537 822.658 69.79C822.658 69.5088 822.776 69.2363 823.014 68.9727C823.26 68.7002 823.532 68.564 823.831 68.564C824.517 68.564 824.974 68.8364 825.202 69.3813L829.039 78.7153L833.323 69.3286C833.561 68.8188 833.982 68.564 834.589 68.564ZM843.185 68.6035C844.354 68.6035 845.426 68.8936 846.401 69.4736C847.377 70.0537 848.159 70.8359 848.748 71.8203C849.346 72.7959 849.645 73.8813 849.645 75.0767C849.645 75.3228 849.631 75.5732 849.605 75.8281C849.57 76.1533 849.42 76.4302 849.157 76.6587C848.902 76.8784 848.612 76.9883 848.287 76.9883L839.071 77.0015C839.221 77.6343 839.502 78.2275 839.915 78.7812C840.328 79.335 840.829 79.7832 841.418 80.126C842.016 80.4688 842.666 80.6401 843.369 80.6401C844.125 80.6401 844.802 80.4556 845.399 80.0864C845.997 79.7173 846.463 79.291 846.797 78.8076C846.902 78.6406 847.061 78.5 847.271 78.3857C847.491 78.2715 847.698 78.2144 847.891 78.2144C848.251 78.2144 848.559 78.3462 848.814 78.6099C849.078 78.8735 849.209 79.1855 849.209 79.5459C849.209 79.8271 849.13 80.0776 848.972 80.2974C848.427 81.0972 847.676 81.7915 846.718 82.3804C845.769 82.9604 844.666 83.2505 843.409 83.2505C842.398 83.2505 841.458 83.0527 840.587 82.6572C839.726 82.2617 838.975 81.7212 838.333 81.0356C837.691 80.3501 837.19 79.5635 836.83 78.6758C836.479 77.7793 836.303 76.8345 836.303 75.8413C836.303 74.8833 836.479 73.9736 836.83 73.1123C837.182 72.2422 837.669 71.4688 838.293 70.792C838.926 70.1152 839.66 69.5835 840.495 69.1968C841.33 68.8013 842.227 68.6035 843.185 68.6035ZM846.929 74.3516C846.762 73.4902 846.331 72.7563 845.637 72.1499C844.942 71.5435 844.125 71.2402 843.185 71.2402C842.227 71.2402 841.378 71.5522 840.64 72.1763C839.911 72.8003 839.418 73.5298 839.164 74.3647L846.929 74.3516ZM860.495 70.2251C860.495 70.9282 860.156 71.3193 859.479 71.3984C859.233 71.4248 858.921 71.3457 858.543 71.1611C858.166 70.9678 857.783 70.8711 857.396 70.8711C856.632 70.8711 856.025 71.0688 855.577 71.4644C855.129 71.8511 854.808 72.374 854.615 73.0332C854.421 73.6924 854.325 74.4307 854.325 75.248V82.0508C854.325 82.4375 854.206 82.7451 853.969 82.9736C853.74 83.2021 853.419 83.3164 853.006 83.3164C852.602 83.3164 852.281 83.2021 852.044 82.9736C851.807 82.7451 851.688 82.4331 851.688 82.0376V69.8955C851.688 69.5 851.785 69.1748 851.978 68.9199C852.18 68.665 852.453 68.5376 852.795 68.5376C852.998 68.5376 853.23 68.6255 853.494 68.8013C853.767 68.9683 853.956 69.2583 854.061 69.6714L854.193 70.6206C854.307 70.3745 854.527 70.0889 854.852 69.7637C855.177 69.4385 855.564 69.1572 856.012 68.9199C856.46 68.6738 856.926 68.5508 857.41 68.5508C858.306 68.5508 859.044 68.6562 859.625 68.8672C860.205 69.0693 860.495 69.522 860.495 70.2251ZM876.974 83.2373C875.708 83.2373 874.61 82.9648 873.678 82.4199C872.747 81.8662 871.973 81.1279 871.358 80.2051C870.743 79.2734 870.281 78.2363 869.974 77.0938C869.675 75.9512 869.525 74.7866 869.525 73.6001C869.525 72.4312 869.684 71.3018 870 70.2119C870.316 69.1133 870.787 68.1289 871.411 67.2588C872.043 66.3799 872.826 65.6855 873.757 65.1758C874.698 64.6572 875.788 64.3979 877.027 64.3979C878.284 64.3979 879.378 64.7012 880.31 65.3076C881.241 65.9053 881.953 66.6216 882.445 67.4565C882.568 67.6411 882.63 67.8828 882.63 68.1816C882.63 68.4717 882.507 68.7485 882.261 69.0122C882.023 69.2759 881.747 69.4077 881.43 69.4077C880.85 69.4077 880.424 69.1924 880.151 68.7617C879.87 68.2959 879.457 67.8916 878.912 67.5488C878.376 67.1973 877.748 67.0215 877.027 67.0215C876.025 67.0215 875.181 67.2808 874.496 67.7993C873.819 68.3179 873.292 69.0078 872.914 69.8691C872.544 70.7217 872.312 71.6577 872.215 72.6772C872.751 72.1147 873.415 71.6357 874.206 71.2402C875.005 70.8447 875.849 70.647 876.737 70.647C877.985 70.647 879.105 70.9282 880.099 71.4907C881.092 72.0532 881.878 72.8179 882.458 73.7847C883.039 74.7515 883.329 75.8457 883.329 77.0674C883.329 78.1572 883.056 79.1724 882.511 80.1128C881.975 81.0532 881.228 81.8091 880.27 82.3804C879.321 82.9517 878.222 83.2373 876.974 83.2373ZM877.027 80.6138C878.108 80.6138 878.987 80.2666 879.664 79.5723C880.349 78.8691 880.692 77.9902 880.692 76.9355C880.692 76.2764 880.516 75.6699 880.165 75.1162C879.822 74.5537 879.365 74.1055 878.793 73.7715C878.222 73.4287 877.589 73.2573 876.895 73.2573C876.201 73.2573 875.563 73.4287 874.983 73.7715C874.412 74.1143 873.955 74.5669 873.612 75.1294C873.278 75.6919 873.111 76.3071 873.111 76.9751C873.111 77.6431 873.3 78.2539 873.678 78.8076C874.056 79.3525 874.544 79.792 875.142 80.126C875.739 80.4512 876.368 80.6138 877.027 80.6138ZM888.009 75.2217C887.657 75.2217 887.341 75.1162 887.06 74.9053C886.787 74.6943 886.651 74.4043 886.651 74.0352L888.048 65.9536C888.101 65.6284 888.25 65.3647 888.497 65.1626C888.743 64.9517 889.024 64.8462 889.34 64.8462H897.409C897.734 64.8462 898.033 64.9648 898.305 65.2021C898.586 65.4395 898.727 65.7251 898.727 66.0591C898.727 66.4458 898.604 66.7798 898.358 67.061C898.121 67.3423 897.804 67.4829 897.409 67.4829H890.448L889.841 70.8975C890.641 70.5547 891.476 70.3833 892.346 70.3833C893.585 70.3833 894.702 70.6646 895.695 71.2271C896.697 71.7896 897.492 72.5586 898.081 73.5342C898.67 74.501 898.964 75.5952 898.964 76.8169C898.964 78.0474 898.661 79.1548 898.055 80.1392C897.457 81.1235 896.648 81.9014 895.629 82.4727C894.618 83.0439 893.484 83.3296 892.228 83.3296C891.27 83.3296 890.391 83.1582 889.591 82.8154C888.791 82.4727 888.092 82.02 887.495 81.4575C886.906 80.8862 886.444 80.2666 886.11 79.5986C886.022 79.4141 885.979 79.1987 885.979 78.9526C885.979 78.6538 886.106 78.3857 886.361 78.1484C886.625 77.9111 886.91 77.7925 887.218 77.7925C887.815 77.7925 888.237 78.0298 888.483 78.5044C888.8 79.1021 889.279 79.6162 889.92 80.0469C890.562 80.4775 891.335 80.6929 892.241 80.6929C893.014 80.6929 893.708 80.5259 894.324 80.1919C894.939 79.8491 895.427 79.3877 895.787 78.8076C896.147 78.2275 896.328 77.5728 896.328 76.8433C896.328 75.7534 895.941 74.8481 895.167 74.1274C894.403 73.4067 893.405 73.0464 892.175 73.0464C891.56 73.0464 890.953 73.2222 890.355 73.5737C889.767 73.9253 889.332 74.2944 889.05 74.6812C888.804 75.0415 888.457 75.2217 888.009 75.2217ZM901.614 81.1675C901.614 80.6929 901.786 80.2578 902.128 79.8623C902.48 79.4668 902.884 79.269 903.341 79.269C903.754 79.269 904.097 79.3394 904.37 79.48C905.222 79.937 905.648 80.6841 905.648 81.7212C905.648 82.2046 905.556 82.7539 905.372 83.3691C904.941 84.8018 904.176 85.8828 903.078 86.6123C902.911 86.7266 902.735 86.7837 902.55 86.7837C902.304 86.7837 902.089 86.687 901.904 86.4937C901.729 86.3003 901.641 86.0674 901.641 85.7949C901.641 85.5049 901.794 85.2544 902.102 85.0435C902.814 84.5776 903.293 83.9185 903.539 83.0659H903.513C902.994 83.0659 902.546 82.8813 902.168 82.5122C901.799 82.1343 901.614 81.686 901.614 81.1675ZM915.286 83.3296C914.055 83.3296 912.996 83.0703 912.108 82.5518C911.221 82.0244 910.496 81.3169 909.933 80.4292C909.371 79.5327 908.953 78.5352 908.681 77.4365C908.417 76.3291 908.285 75.1953 908.285 74.0352C908.285 72.8311 908.421 71.6753 908.694 70.5679C908.975 69.4517 909.406 68.4585 909.986 67.5884C910.575 66.7095 911.326 66.0151 912.24 65.5054C913.154 64.9956 914.249 64.7407 915.523 64.7407C916.727 64.7671 917.76 65.0439 918.621 65.5713C919.491 66.0898 920.203 66.7842 920.757 67.6543C921.311 68.5244 921.719 69.5 921.983 70.5811C922.247 71.6621 922.378 72.7783 922.378 73.9297C922.378 75.1426 922.242 76.3115 921.97 77.4365C921.697 78.5527 921.275 79.5547 920.704 80.4424C920.133 81.3301 919.399 82.0332 918.502 82.5518C917.606 83.0703 916.534 83.3296 915.286 83.3296ZM915.338 80.6929C916.384 80.6929 917.228 80.3765 917.87 79.7437C918.52 79.1021 918.995 78.2627 919.293 77.2256C919.592 76.1797 919.742 75.0459 919.742 73.8242C919.742 72.6816 919.588 71.6226 919.28 70.647C918.981 69.6626 918.511 68.8716 917.87 68.2739C917.228 67.6763 916.397 67.3774 915.378 67.3774C914.341 67.3774 913.493 67.6851 912.833 68.3003C912.174 68.9067 911.691 69.7109 911.383 70.7129C911.076 71.7148 910.922 72.8135 910.922 74.0088C910.922 75.2041 911.071 76.3115 911.37 77.3311C911.678 78.3418 912.157 79.1548 912.807 79.77C913.458 80.3853 914.301 80.6929 915.338 80.6929ZM932.029 83.3296C930.798 83.3296 929.739 83.0703 928.852 82.5518C927.964 82.0244 927.239 81.3169 926.676 80.4292C926.114 79.5327 925.696 78.5352 925.424 77.4365C925.16 76.3291 925.028 75.1953 925.028 74.0352C925.028 72.8311 925.165 71.6753 925.437 70.5679C925.718 69.4517 926.149 68.4585 926.729 67.5884C927.318 66.7095 928.069 66.0151 928.983 65.5054C929.897 64.9956 930.992 64.7407 932.266 64.7407C933.47 64.7671 934.503 65.0439 935.364 65.5713C936.234 66.0898 936.946 66.7842 937.5 67.6543C938.054 68.5244 938.462 69.5 938.726 70.5811C938.99 71.6621 939.122 72.7783 939.122 73.9297C939.122 75.1426 938.985 76.3115 938.713 77.4365C938.44 78.5527 938.019 79.5547 937.447 80.4424C936.876 81.3301 936.142 82.0332 935.246 82.5518C934.349 83.0703 933.277 83.3296 932.029 83.3296ZM932.082 80.6929C933.127 80.6929 933.971 80.3765 934.613 79.7437C935.263 79.1021 935.738 78.2627 936.037 77.2256C936.335 76.1797 936.485 75.0459 936.485 73.8242C936.485 72.6816 936.331 71.6226 936.023 70.647C935.725 69.6626 935.254 68.8716 934.613 68.2739C933.971 67.6763 933.141 67.3774 932.121 67.3774C931.084 67.3774 930.236 67.6851 929.577 68.3003C928.917 68.9067 928.434 69.7109 928.126 70.7129C927.819 71.7148 927.665 72.8135 927.665 74.0088C927.665 75.2041 927.814 76.3115 928.113 77.3311C928.421 78.3418 928.9 79.1548 929.55 79.77C930.201 80.3853 931.044 80.6929 932.082 80.6929ZM948.772 83.3296C947.542 83.3296 946.482 83.0703 945.595 82.5518C944.707 82.0244 943.982 81.3169 943.419 80.4292C942.857 79.5327 942.439 78.5352 942.167 77.4365C941.903 76.3291 941.771 75.1953 941.771 74.0352C941.771 72.8311 941.908 71.6753 942.18 70.5679C942.461 69.4517 942.892 68.4585 943.472 67.5884C944.061 66.7095 944.812 66.0151 945.727 65.5054C946.641 64.9956 947.735 64.7407 949.009 64.7407C950.213 64.7671 951.246 65.0439 952.107 65.5713C952.978 66.0898 953.689 66.7842 954.243 67.6543C954.797 68.5244 955.206 69.5 955.469 70.5811C955.733 71.6621 955.865 72.7783 955.865 73.9297C955.865 75.1426 955.729 76.3115 955.456 77.4365C955.184 78.5527 954.762 79.5547 954.19 80.4424C953.619 81.3301 952.885 82.0332 951.989 82.5518C951.092 83.0703 950.02 83.3296 948.772 83.3296ZM948.825 80.6929C949.871 80.6929 950.714 80.3765 951.356 79.7437C952.006 79.1021 952.481 78.2627 952.78 77.2256C953.079 76.1797 953.228 75.0459 953.228 73.8242C953.228 72.6816 953.074 71.6226 952.767 70.647C952.468 69.6626 951.998 68.8716 951.356 68.2739C950.714 67.6763 949.884 67.3774 948.864 67.3774C947.827 67.3774 946.979 67.6851 946.32 68.3003C945.661 68.9067 945.177 69.7109 944.87 70.7129C944.562 71.7148 944.408 72.8135 944.408 74.0088C944.408 75.2041 944.558 76.3115 944.856 77.3311C945.164 78.3418 945.643 79.1548 946.293 79.77C946.944 80.3853 947.788 80.6929 948.825 80.6929Z" fill="white"/>
<path d="M832.656 95.4639C832.706 95.3499 832.791 95.2542 832.909 95.1768C833.032 95.0947 833.158 95.0537 833.285 95.0537C833.408 95.0537 833.531 95.0947 833.654 95.1768C833.782 95.2542 833.868 95.3499 833.914 95.4639L837.674 104.187C837.715 104.278 837.735 104.371 837.735 104.467C837.735 104.654 837.667 104.815 837.53 104.952C837.398 105.084 837.239 105.15 837.052 105.15C836.924 105.15 836.799 105.109 836.676 105.027C836.553 104.945 836.466 104.847 836.416 104.733L835.247 102.02L831.351 101.965L830.154 104.74C830.109 104.854 830.024 104.952 829.901 105.034C829.778 105.121 829.653 105.164 829.525 105.164C829.339 105.164 829.177 105.098 829.04 104.966C828.908 104.829 828.842 104.667 828.842 104.48C828.842 104.385 828.862 104.291 828.903 104.2L832.656 95.4639ZM833.285 97.4668L831.938 100.604L834.652 100.639L833.285 97.4668ZM838.139 101.315C838.139 100.81 838.228 100.329 838.405 99.873C838.583 99.4173 838.834 99.0117 839.157 98.6562C839.481 98.3008 839.857 98.0205 840.285 97.8154C840.718 97.6104 841.188 97.5078 841.693 97.5078C842.195 97.5078 842.648 97.6058 843.054 97.8018C843.464 97.9932 843.815 98.2484 844.106 98.5674C844.403 98.8818 844.624 99.2259 844.77 99.5996C844.801 99.6771 844.817 99.7637 844.817 99.8594C844.817 100.046 844.749 100.208 844.612 100.345C844.48 100.477 844.321 100.543 844.134 100.543C844.006 100.543 843.881 100.5 843.758 100.413C843.635 100.326 843.548 100.222 843.498 100.099C843.37 99.7705 843.147 99.4857 842.828 99.2441C842.514 98.998 842.135 98.875 841.693 98.875C841.279 98.875 840.905 98.9912 840.572 99.2236C840.244 99.4515 839.984 99.75 839.793 100.119C839.602 100.488 839.506 100.887 839.506 101.315C839.506 101.748 839.604 102.156 839.8 102.539C839.996 102.917 840.265 103.225 840.606 103.462C840.948 103.694 841.333 103.811 841.762 103.811C842.181 103.811 842.543 103.706 842.849 103.496C843.154 103.282 843.384 103.034 843.539 102.751C843.594 102.651 843.68 102.566 843.799 102.498C843.917 102.425 844.034 102.389 844.147 102.389C844.334 102.389 844.494 102.457 844.626 102.594C844.763 102.726 844.831 102.885 844.831 103.072C844.831 103.186 844.801 103.298 844.742 103.407C844.482 103.886 844.095 104.3 843.58 104.651C843.065 105.002 842.459 105.178 841.762 105.178C841.242 105.178 840.761 105.075 840.319 104.87C839.882 104.66 839.499 104.376 839.171 104.016C838.847 103.656 838.594 103.245 838.412 102.785C838.23 102.32 838.139 101.83 838.139 101.315ZM846.943 96.291C846.943 96.1042 847.009 95.9447 847.142 95.8125C847.274 95.6758 847.436 95.6074 847.627 95.6074C847.814 95.6074 847.973 95.6758 848.105 95.8125C848.242 95.9447 848.311 96.1042 848.311 96.291V97.6514H849.227C849.404 97.6514 849.557 97.7152 849.685 97.8428C849.812 97.9704 849.876 98.123 849.876 98.3008C849.876 98.4785 849.812 98.6312 849.685 98.7588C849.557 98.8864 849.404 98.9502 849.227 98.9502H848.304L848.297 103.182V103.195C848.297 103.419 848.322 103.574 848.372 103.66C848.422 103.742 848.525 103.783 848.68 103.783C848.876 103.783 849.049 103.731 849.199 103.626C849.254 103.59 849.32 103.558 849.397 103.53C849.475 103.498 849.55 103.482 849.623 103.482C849.81 103.482 849.969 103.549 850.102 103.681C850.238 103.813 850.307 103.972 850.307 104.159C850.307 104.382 850.215 104.562 850.033 104.699C849.86 104.831 849.662 104.941 849.438 105.027C849.215 105.114 848.976 105.157 848.721 105.157C848.146 105.157 847.704 104.982 847.395 104.631C847.085 104.275 846.93 103.833 846.93 103.305V103.243L846.937 98.957H846.055C845.877 98.957 845.724 98.8932 845.597 98.7656C845.469 98.638 845.405 98.4854 845.405 98.3076C845.405 98.1299 845.469 97.9772 845.597 97.8496C845.724 97.722 845.877 97.6582 846.055 97.6582H846.943V96.291ZM851.858 96.8105C851.649 96.8105 851.478 96.7467 851.346 96.6191C851.214 96.487 851.145 96.3252 851.141 96.1338L851.127 95.6143C851.127 95.4411 851.204 95.3021 851.359 95.1973C851.514 95.0879 851.662 95.0332 851.804 95.0332C851.995 95.0332 852.155 95.0993 852.282 95.2314C852.414 95.3636 852.483 95.5231 852.487 95.71L852.494 96.1201C852.494 96.2979 852.435 96.4574 852.316 96.5986C852.198 96.7399 852.045 96.8105 851.858 96.8105ZM851.12 98.1025C851.12 97.9294 851.193 97.7881 851.339 97.6787C851.485 97.5693 851.626 97.5146 851.763 97.5146C851.963 97.5146 852.134 97.5739 852.275 97.6924C852.417 97.8109 852.487 97.9681 852.487 98.1641V98.1709L852.501 104.501C852.501 104.683 852.433 104.838 852.296 104.966C852.164 105.093 852.004 105.157 851.817 105.157C851.626 105.157 851.464 105.093 851.332 104.966C851.2 104.834 851.134 104.676 851.134 104.494L851.12 98.1025ZM859.508 97.5146C859.672 97.5146 859.82 97.5807 859.952 97.7129C860.089 97.8451 860.157 97.9909 860.157 98.1504C860.157 98.2917 860.134 98.4079 860.089 98.499L857.204 104.74C857.081 105 856.871 105.13 856.575 105.13C856.27 105.13 856.065 104.991 855.96 104.713L853.376 98.4717C853.34 98.3942 853.321 98.2871 853.321 98.1504C853.321 98.0046 853.383 97.8633 853.506 97.7266C853.633 97.5853 853.775 97.5146 853.93 97.5146C854.285 97.5146 854.522 97.6559 854.641 97.9385L856.63 102.778L858.852 97.9111C858.975 97.6468 859.193 97.5146 859.508 97.5146ZM863.965 97.5352C864.571 97.5352 865.127 97.6855 865.633 97.9863C866.139 98.2871 866.544 98.6927 866.85 99.2031C867.16 99.709 867.314 100.272 867.314 100.892C867.314 101.019 867.308 101.149 867.294 101.281C867.276 101.45 867.198 101.593 867.062 101.712C866.929 101.826 866.779 101.883 866.61 101.883L861.832 101.89C861.91 102.218 862.055 102.525 862.27 102.812C862.484 103.1 862.743 103.332 863.049 103.51C863.359 103.688 863.696 103.776 864.061 103.776C864.452 103.776 864.803 103.681 865.113 103.489C865.423 103.298 865.665 103.077 865.838 102.826C865.893 102.74 865.975 102.667 866.084 102.607C866.198 102.548 866.305 102.519 866.405 102.519C866.592 102.519 866.752 102.587 866.884 102.724C867.021 102.86 867.089 103.022 867.089 103.209C867.089 103.355 867.048 103.485 866.966 103.599C866.683 104.013 866.294 104.373 865.797 104.679C865.305 104.979 864.733 105.13 864.081 105.13C863.557 105.13 863.069 105.027 862.618 104.822C862.172 104.617 861.782 104.337 861.449 103.981C861.117 103.626 860.857 103.218 860.67 102.758C860.488 102.293 860.396 101.803 860.396 101.288C860.396 100.791 860.488 100.32 860.67 99.873C860.852 99.4219 861.105 99.0208 861.429 98.6699C861.757 98.319 862.137 98.0433 862.57 97.8428C863.003 97.6377 863.468 97.5352 863.965 97.5352ZM865.906 100.516C865.82 100.069 865.596 99.6885 865.236 99.374C864.876 99.0596 864.452 98.9023 863.965 98.9023C863.468 98.9023 863.028 99.0641 862.646 99.3877C862.267 99.7113 862.012 100.09 861.88 100.522L865.906 100.516ZM875.812 97.4805C876.149 97.4805 876.477 97.5488 876.796 97.6855C877.119 97.8177 877.407 97.9863 877.657 98.1914C877.912 98.3919 878.102 98.5993 878.225 98.8135L878.3 98.1572C878.3 97.9704 878.354 97.8109 878.464 97.6787C878.573 97.542 878.721 97.4736 878.908 97.4736C879.095 97.4736 879.255 97.542 879.387 97.6787C879.523 97.8109 879.592 97.9704 879.592 98.1572V98.1709L879.578 104.501C879.578 104.688 879.51 104.85 879.373 104.986C879.241 105.118 879.081 105.185 878.895 105.185C878.708 105.185 878.56 105.118 878.45 104.986C878.341 104.85 878.286 104.688 878.286 104.501L878.211 103.954C877.974 104.36 877.628 104.663 877.172 104.863C876.716 105.059 876.258 105.157 875.798 105.157C875.283 105.157 874.8 105.057 874.349 104.856C873.897 104.651 873.501 104.371 873.159 104.016C872.817 103.66 872.549 103.252 872.353 102.792C872.161 102.332 872.065 101.846 872.065 101.336C872.065 100.83 872.159 100.347 872.346 99.8867C872.537 99.4219 872.801 99.0094 873.139 98.6494C873.48 98.2848 873.877 98 874.328 97.7949C874.784 97.5853 875.278 97.4805 875.812 97.4805ZM878.17 101.322C878.17 100.876 878.065 100.465 877.855 100.092C877.65 99.7181 877.37 99.4173 877.015 99.1895C876.659 98.9616 876.254 98.8477 875.798 98.8477C875.351 98.8477 874.948 98.9616 874.588 99.1895C874.228 99.4173 873.943 99.7204 873.733 100.099C873.524 100.472 873.419 100.878 873.419 101.315C873.419 101.757 873.526 102.168 873.74 102.546C873.954 102.92 874.242 103.22 874.602 103.448C874.966 103.676 875.367 103.79 875.805 103.79C876.242 103.79 876.639 103.676 876.994 103.448C877.354 103.22 877.639 102.92 877.849 102.546C878.063 102.168 878.17 101.76 878.17 101.322ZM880.686 101.315C880.686 100.81 880.774 100.329 880.952 99.873C881.13 99.4173 881.381 99.0117 881.704 98.6562C882.028 98.3008 882.404 98.0205 882.832 97.8154C883.265 97.6104 883.734 97.5078 884.24 97.5078C884.742 97.5078 885.195 97.6058 885.601 97.8018C886.011 97.9932 886.362 98.2484 886.653 98.5674C886.95 98.8818 887.171 99.2259 887.316 99.5996C887.348 99.6771 887.364 99.7637 887.364 99.8594C887.364 100.046 887.296 100.208 887.159 100.345C887.027 100.477 886.868 100.543 886.681 100.543C886.553 100.543 886.428 100.5 886.305 100.413C886.182 100.326 886.095 100.222 886.045 100.099C885.917 99.7705 885.694 99.4857 885.375 99.2441C885.061 98.998 884.682 98.875 884.24 98.875C883.826 98.875 883.452 98.9912 883.119 99.2236C882.791 99.4515 882.531 99.75 882.34 100.119C882.148 100.488 882.053 100.887 882.053 101.315C882.053 101.748 882.151 102.156 882.347 102.539C882.543 102.917 882.812 103.225 883.153 103.462C883.495 103.694 883.88 103.811 884.309 103.811C884.728 103.811 885.09 103.706 885.396 103.496C885.701 103.282 885.931 103.034 886.086 102.751C886.141 102.651 886.227 102.566 886.346 102.498C886.464 102.425 886.58 102.389 886.694 102.389C886.881 102.389 887.041 102.457 887.173 102.594C887.31 102.726 887.378 102.885 887.378 103.072C887.378 103.186 887.348 103.298 887.289 103.407C887.029 103.886 886.642 104.3 886.127 104.651C885.612 105.002 885.006 105.178 884.309 105.178C883.789 105.178 883.308 105.075 882.866 104.87C882.429 104.66 882.046 104.376 881.718 104.016C881.394 103.656 881.141 103.245 880.959 102.785C880.777 102.32 880.686 101.83 880.686 101.315ZM888.191 101.315C888.191 100.81 888.28 100.329 888.458 99.873C888.636 99.4173 888.886 99.0117 889.21 98.6562C889.534 98.3008 889.91 98.0205 890.338 97.8154C890.771 97.6104 891.24 97.5078 891.746 97.5078C892.247 97.5078 892.701 97.6058 893.106 97.8018C893.517 97.9932 893.868 98.2484 894.159 98.5674C894.455 98.8818 894.676 99.2259 894.822 99.5996C894.854 99.6771 894.87 99.7637 894.87 99.8594C894.87 100.046 894.802 100.208 894.665 100.345C894.533 100.477 894.373 100.543 894.187 100.543C894.059 100.543 893.934 100.5 893.811 100.413C893.688 100.326 893.601 100.222 893.551 100.099C893.423 99.7705 893.2 99.4857 892.881 99.2441C892.566 98.998 892.188 98.875 891.746 98.875C891.331 98.875 890.958 98.9912 890.625 99.2236C890.297 99.4515 890.037 99.75 889.846 100.119C889.654 100.488 889.559 100.887 889.559 101.315C889.559 101.748 889.657 102.156 889.853 102.539C890.049 102.917 890.317 103.225 890.659 103.462C891.001 103.694 891.386 103.811 891.814 103.811C892.234 103.811 892.596 103.706 892.901 103.496C893.207 103.282 893.437 103.034 893.592 102.751C893.646 102.651 893.733 102.566 893.852 102.498C893.97 102.425 894.086 102.389 894.2 102.389C894.387 102.389 894.547 102.457 894.679 102.594C894.815 102.726 894.884 102.885 894.884 103.072C894.884 103.186 894.854 103.298 894.795 103.407C894.535 103.886 894.148 104.3 893.633 104.651C893.118 105.002 892.512 105.178 891.814 105.178C891.295 105.178 890.814 105.075 890.372 104.87C889.935 104.66 889.552 104.376 889.224 104.016C888.9 103.656 888.647 103.245 888.465 102.785C888.283 102.32 888.191 101.83 888.191 101.315ZM899.375 97.5146C899.899 97.5146 900.387 97.6149 900.838 97.8154C901.294 98.016 901.692 98.2939 902.034 98.6494C902.376 99.0049 902.643 99.4128 902.834 99.873C903.03 100.333 903.128 100.823 903.128 101.343C903.128 101.853 903.03 102.339 902.834 102.799C902.638 103.255 902.367 103.658 902.021 104.009C901.679 104.355 901.28 104.629 900.824 104.829C900.373 105.03 899.89 105.13 899.375 105.13C898.865 105.13 898.382 105.032 897.926 104.836C897.475 104.64 897.076 104.369 896.729 104.022C896.388 103.676 896.119 103.275 895.923 102.819C895.727 102.359 895.629 101.867 895.629 101.343C895.629 100.823 895.727 100.333 895.923 99.873C896.119 99.4128 896.388 99.0072 896.729 98.6562C897.076 98.3008 897.475 98.0228 897.926 97.8223C898.377 97.6172 898.86 97.5146 899.375 97.5146ZM897.01 101.356C897.01 101.799 897.117 102.202 897.331 102.566C897.55 102.926 897.839 103.214 898.199 103.428C898.559 103.642 898.953 103.749 899.382 103.749C899.819 103.749 900.216 103.64 900.571 103.421C900.931 103.198 901.216 102.904 901.426 102.539C901.64 102.174 901.747 101.776 901.747 101.343C901.747 100.901 901.642 100.495 901.433 100.126C901.223 99.7523 900.938 99.4538 900.578 99.2305C900.223 99.0072 899.822 98.8955 899.375 98.8955C898.924 98.8955 898.521 99.0094 898.165 99.2373C897.81 99.4606 897.527 99.7591 897.317 100.133C897.112 100.502 897.01 100.91 897.01 101.356ZM908.877 104.077C908.631 104.314 908.337 104.553 907.995 104.795C907.653 105.032 907.252 105.15 906.792 105.15C906.195 105.15 905.698 104.993 905.302 104.679C904.905 104.36 904.614 103.991 904.427 103.571C904.281 103.239 904.192 102.91 904.16 102.587C904.133 102.259 904.119 101.951 904.119 101.664V98.2119C904.119 98.0251 904.185 97.8656 904.317 97.7334C904.454 97.5967 904.616 97.5283 904.803 97.5283C904.99 97.5283 905.149 97.5967 905.281 97.7334C905.418 97.8656 905.486 98.0251 905.486 98.2119V101.664C905.486 101.928 905.498 102.177 905.521 102.409C905.548 102.637 905.6 102.838 905.678 103.011C905.769 103.211 905.906 103.391 906.088 103.551C906.27 103.706 906.5 103.783 906.778 103.783C907.453 103.783 907.97 103.526 908.33 103.011C908.695 102.496 908.875 101.801 908.87 100.926L908.863 98.1982C908.863 98.0114 908.929 97.8519 909.062 97.7197C909.198 97.583 909.36 97.5146 909.547 97.5146C909.738 97.5146 909.9 97.583 910.032 97.7197C910.164 97.8519 910.23 98.0137 910.23 98.2051L910.244 104.487C910.244 104.674 910.192 104.836 910.087 104.973C909.987 105.105 909.843 105.171 909.656 105.171C909.469 105.171 909.326 105.105 909.226 104.973C909.125 104.836 909.048 104.674 908.993 104.487L908.877 104.077ZM912.903 98.5947C913.149 98.3532 913.443 98.1139 913.785 97.877C914.132 97.64 914.533 97.5215 914.988 97.5215C915.585 97.5215 916.082 97.681 916.479 98C916.875 98.3145 917.167 98.6813 917.354 99.1006C917.499 99.4333 917.586 99.7637 917.613 100.092C917.645 100.415 917.661 100.721 917.661 101.008V104.46C917.661 104.647 917.593 104.809 917.456 104.945C917.324 105.077 917.164 105.144 916.978 105.144C916.791 105.144 916.629 105.077 916.492 104.945C916.36 104.809 916.294 104.647 916.294 104.46V101.008C916.294 100.739 916.28 100.491 916.253 100.263C916.23 100.035 916.18 99.8343 916.103 99.6611C916.016 99.4606 915.882 99.2829 915.699 99.1279C915.517 98.9684 915.285 98.8887 915.002 98.8887C914.327 98.8887 913.808 99.1462 913.443 99.6611C913.083 100.176 912.906 100.871 912.91 101.746L912.917 104.474C912.917 104.66 912.849 104.822 912.712 104.959C912.58 105.091 912.42 105.157 912.233 105.157C912.042 105.157 911.88 105.091 911.748 104.959C911.616 104.822 911.55 104.658 911.55 104.467L911.536 98.1846C911.536 97.9977 911.586 97.8382 911.687 97.7061C911.791 97.5693 911.937 97.501 912.124 97.501C912.311 97.501 912.454 97.5693 912.555 97.7061C912.655 97.8382 912.732 97.9977 912.787 98.1846L912.903 98.5947ZM920.02 96.291C920.02 96.1042 920.086 95.9447 920.218 95.8125C920.35 95.6758 920.512 95.6074 920.703 95.6074C920.89 95.6074 921.049 95.6758 921.182 95.8125C921.318 95.9447 921.387 96.1042 921.387 96.291V97.6514H922.303C922.48 97.6514 922.633 97.7152 922.761 97.8428C922.888 97.9704 922.952 98.123 922.952 98.3008C922.952 98.4785 922.888 98.6312 922.761 98.7588C922.633 98.8864 922.48 98.9502 922.303 98.9502H921.38L921.373 103.182V103.195C921.373 103.419 921.398 103.574 921.448 103.66C921.498 103.742 921.601 103.783 921.756 103.783C921.952 103.783 922.125 103.731 922.275 103.626C922.33 103.59 922.396 103.558 922.474 103.53C922.551 103.498 922.626 103.482 922.699 103.482C922.886 103.482 923.046 103.549 923.178 103.681C923.314 103.813 923.383 103.972 923.383 104.159C923.383 104.382 923.292 104.562 923.109 104.699C922.936 104.831 922.738 104.941 922.515 105.027C922.291 105.114 922.052 105.157 921.797 105.157C921.223 105.157 920.781 104.982 920.471 104.631C920.161 104.275 920.006 103.833 920.006 103.305V103.243L920.013 98.957H919.131C918.953 98.957 918.8 98.8932 918.673 98.7656C918.545 98.638 918.481 98.4854 918.481 98.3076C918.481 98.1299 918.545 97.9772 918.673 97.8496C918.8 97.722 918.953 97.6582 919.131 97.6582H920.02V96.291ZM927.662 97.501C928.314 97.501 928.904 97.6445 929.433 97.9316C929.966 98.2142 930.36 98.597 930.615 99.0801C930.67 99.1758 930.697 99.2852 930.697 99.4082C930.697 99.5951 930.629 99.7568 930.492 99.8936C930.36 100.026 930.201 100.092 930.014 100.092C929.9 100.092 929.781 100.055 929.658 99.9824C929.54 99.9049 929.455 99.8161 929.405 99.7158C929.255 99.4333 929.029 99.2214 928.729 99.0801C928.428 98.9388 928.07 98.8682 927.655 98.8682C927.414 98.8682 927.14 98.9001 926.835 98.9639C926.53 99.0277 926.265 99.1302 926.042 99.2715C925.819 99.4128 925.707 99.6042 925.707 99.8457C925.707 100.023 925.798 100.165 925.98 100.27C926.167 100.37 926.395 100.447 926.664 100.502C926.938 100.557 927.211 100.598 927.484 100.625C927.758 100.648 927.981 100.668 928.154 100.687C928.492 100.723 928.824 100.78 929.152 100.857C929.48 100.93 929.781 101.04 930.055 101.186C930.328 101.331 930.545 101.53 930.704 101.78C930.868 102.031 930.95 102.35 930.95 102.737C930.95 103.289 930.791 103.74 930.472 104.091C930.153 104.442 929.745 104.701 929.248 104.87C928.751 105.039 928.232 105.123 927.689 105.123C926.947 105.123 926.27 104.977 925.659 104.686C925.053 104.389 924.604 103.959 924.312 103.394C924.258 103.284 924.23 103.177 924.23 103.072C924.23 102.885 924.297 102.726 924.429 102.594C924.565 102.457 924.727 102.389 924.914 102.389C925.033 102.389 925.151 102.427 925.27 102.505C925.393 102.578 925.479 102.667 925.529 102.771C925.707 103.118 925.98 103.368 926.35 103.523C926.723 103.678 927.168 103.756 927.683 103.756C927.956 103.756 928.239 103.726 928.53 103.667C928.826 103.603 929.075 103.496 929.275 103.346C929.48 103.195 929.583 102.99 929.583 102.73C929.583 102.53 929.494 102.386 929.316 102.3C929.143 102.209 928.934 102.149 928.688 102.122C928.446 102.095 928.22 102.07 928.011 102.047C927.61 102.006 927.195 101.953 926.767 101.89C926.338 101.821 925.939 101.714 925.57 101.568C925.206 101.423 924.91 101.213 924.682 100.939C924.454 100.666 924.34 100.301 924.34 99.8457C924.34 99.4355 924.438 99.0824 924.634 98.7861C924.834 98.4899 925.099 98.2484 925.427 98.0615C925.755 97.8701 926.113 97.7288 926.5 97.6377C926.892 97.5465 927.279 97.501 927.662 97.501Z" fill="#F72585"/>
</svg>
