<svg width="20" height="20" viewBox="0 0 20 20" fill="none" xmlns="http://www.w3.org/2000/svg">
<path d="M12.633 0.25H7.367C6.275 0.25 5.409 0.25 4.712 0.307C3.998 0.365 3.395 0.487 2.843 0.767C1.94936 1.22284 1.22298 1.94992 0.768 2.844C0.487 3.394 0.364999 3.998 0.306999 4.712C0.249999 5.409 0.25 6.275 0.25 7.367V12.633C0.25 13.725 0.249999 14.591 0.306999 15.288C0.364999 16.002 0.487 16.605 0.767 17.157C1.22258 18.0505 1.94929 18.7768 2.843 19.232C3.395 19.513 3.998 19.635 4.712 19.693C5.409 19.75 6.275 19.75 7.367 19.75H12.633C13.725 19.75 14.591 19.75 15.288 19.693C16.002 19.635 16.605 19.513 17.156 19.233C18.0499 18.7776 18.7766 18.0509 19.232 17.157C19.513 16.605 19.635 16.002 19.693 15.288C19.75 14.591 19.75 13.725 19.75 12.633V7.367C19.75 6.275 19.75 5.409 19.693 4.712C19.635 3.998 19.513 3.395 19.233 2.844C18.7773 1.94999 18.0502 1.22324 17.156 0.768C16.606 0.487 16.002 0.365 15.288 0.307C14.591 0.25 13.725 0.25 12.633 0.25ZM6.25 18.247C5.77757 18.2474 5.30527 18.2311 4.834 18.198C4.214 18.148 3.829 18.051 3.524 17.896C2.91263 17.5844 2.41556 17.0874 2.104 16.476C1.949 16.171 1.853 15.786 1.802 15.166C1.751 14.536 1.75 13.732 1.75 12.6V7.4C1.75 6.268 1.75 5.463 1.802 4.834C1.852 4.214 1.949 3.829 2.104 3.524C2.41556 2.91263 2.91263 2.41556 3.524 2.104C3.829 1.949 4.214 1.853 4.834 1.802C5.30526 1.76861 5.77756 1.75194 6.25 1.752V18.247ZM14.53 6.47C14.6705 6.61063 14.7493 6.80125 14.7493 7C14.7493 7.19875 14.6705 7.38937 14.53 7.53L12.06 10L14.53 12.47C14.6037 12.5387 14.6628 12.6215 14.7038 12.7135C14.7448 12.8055 14.7668 12.9048 14.7686 13.0055C14.7704 13.1062 14.7518 13.2062 14.7141 13.2996C14.6764 13.393 14.6203 13.4778 14.549 13.549C14.4778 13.6203 14.393 13.6764 14.2996 13.7141C14.2062 13.7518 14.1062 13.7704 14.0055 13.7686C13.9048 13.7668 13.8055 13.7448 13.7135 13.7038C13.6215 13.6628 13.5387 13.6037 13.47 13.53L10.47 10.53C10.3295 10.3894 10.2507 10.1988 10.2507 10C10.2507 9.80125 10.3295 9.61063 10.47 9.47L13.47 6.47C13.6106 6.32955 13.8012 6.25066 14 6.25066C14.1988 6.25066 14.3894 6.32955 14.53 6.47Z" fill="white"/>
</svg>
