<svg width="38" height="38" viewBox="0 0 38 38" fill="none" xmlns="http://www.w3.org/2000/svg">
<path opacity="0.5" d="M14.3323 7.125C14.25 8.04017 14.25 9.18967 14.25 10.6432V27.3568C14.25 28.8103 14.25 29.9598 14.3323 30.875H12.6667C8.93475 30.875 7.068 30.875 5.909 29.716C4.75 28.5554 4.75 26.6903 4.75 22.9583V15.0417C4.75 11.3098 4.75 9.443 5.909 8.284C7.068 7.125 8.93475 7.125 12.6667 7.125H14.3323Z" fill="white"/>
<path fill-rule="evenodd" clip-rule="evenodd" d="M15.3694 3.8144C14.25 4.80715 14.25 6.62323 14.25 10.2538V27.7465C14.25 31.3771 14.25 33.1932 15.3694 34.1859C16.4888 35.1787 18.2004 34.881 21.6236 34.2841L25.3128 33.6412C29.1033 32.9794 30.9985 32.6485 32.1243 31.2583C33.25 29.8666 33.25 27.8557 33.25 23.8325V14.1678C33.25 10.1461 33.25 8.13532 32.1258 6.74357C30.9985 5.3534 29.1017 5.02248 25.3112 4.36223L21.6252 3.71782C18.202 3.1209 16.4904 2.82323 15.371 3.81598M20.1891 17.3456C20.1891 16.6584 19.6571 16.1027 19.0016 16.1027C18.3461 16.1027 17.8141 16.6584 17.8141 17.344V20.6595C17.8141 21.3451 18.3461 21.9008 19.0016 21.9008C19.6571 21.9008 20.1891 21.3451 20.1891 20.6595V17.3456Z" fill="white"/>
</svg>
