<svg width="90" height="71" viewBox="0 0 90 71" fill="none" xmlns="http://www.w3.org/2000/svg">
<path fill-rule="evenodd" clip-rule="evenodd" d="M0.540129 4.38307C1.07795 3.08555 1.98877 1.97657 3.15739 1.19638C4.32601 0.416186 5.69994 -0.000159383 7.10538 4.57697e-08H54.4737C63.8959 4.57697e-08 72.9321 3.74017 79.5946 10.3977C86.2571 17.0553 90 26.0848 90 35.5C90 44.9152 86.2571 53.9447 79.5946 60.6023C72.9321 67.2598 63.8959 71 54.4737 71H11.8422C9.95779 71 8.15054 70.252 6.81805 68.9205C5.48555 67.5889 4.73696 65.783 4.73696 63.9C4.73696 62.017 5.48555 60.2111 6.81805 58.8795C8.15054 57.548 9.95779 56.8 11.8422 56.8H54.4737C60.127 56.8 65.5488 54.5559 69.5463 50.5614C73.5437 46.5668 75.7895 41.1491 75.7895 35.5C75.7895 29.8509 73.5437 24.4332 69.5463 20.4386C65.5488 16.4441 60.127 14.2 54.4737 14.2H24.2575L28.7101 18.6493C30.0037 19.989 30.7191 21.7828 30.702 23.6444C30.685 25.506 29.9369 27.2865 28.6189 28.6022C27.3009 29.918 25.5184 30.6639 23.6554 30.6792C21.7924 30.6945 19.998 29.978 18.6585 28.684L2.0796 12.1173C1.08669 11.1246 0.410516 9.86001 0.13651 8.48341C-0.137496 7.10681 0.0029589 5.67994 0.540129 4.38307Z" fill="white"/>
</svg>
