<svg width="33" height="33" viewBox="0 0 33 33" fill="none" xmlns="http://www.w3.org/2000/svg">
<path d="M27.225 11.55C30.4095 11.55 33 8.9595 33 5.775C33 2.5905 30.4095 0 27.225 0C24.0405 0 21.45 2.5905 21.45 5.775C21.45 8.9595 24.0405 11.55 27.225 11.55ZM29.7 24.75V14.5035C28.875 14.7345 28.05 14.85 27.225 14.85H26.4V24.75C26.4 27.489 24.189 29.7 21.45 29.7H8.25C5.511 29.7 3.3 27.489 3.3 24.75V11.55C3.3 8.811 5.511 6.6 8.25 6.6H18.15V5.775C18.15 4.95 18.2655 4.125 18.4965 3.3H8.25C3.696 3.3 0 6.996 0 11.55V24.75C0 29.304 3.696 33 8.25 33H21.45C26.004 33 29.7 29.304 29.7 24.75Z" fill="white"/>
</svg>
