<svg width="20" height="20" viewBox="0 0 20 20" fill="none" xmlns="http://www.w3.org/2000/svg">
<path d="M7.367 0.25H12.633C13.725 0.25 14.591 0.25 15.288 0.307C16.002 0.365 16.605 0.487 17.157 0.767C18.0506 1.22284 18.777 1.94992 19.232 2.844C19.513 3.394 19.635 3.998 19.693 4.712C19.75 5.409 19.75 6.275 19.75 7.367V12.633C19.75 13.725 19.75 14.591 19.693 15.288C19.635 16.002 19.513 16.605 19.233 17.157C18.7774 18.0505 18.0507 18.7768 17.157 19.232C16.605 19.513 16.002 19.635 15.288 19.693C14.591 19.75 13.725 19.75 12.633 19.75H7.367C6.275 19.75 5.409 19.75 4.712 19.693C3.998 19.635 3.395 19.513 2.844 19.233C1.95014 18.7776 1.22341 18.0509 0.768 17.157C0.487 16.605 0.365 16.002 0.307 15.288C0.25 14.591 0.25 13.725 0.25 12.633V7.367C0.25 6.275 0.25 5.409 0.307 4.712C0.365 3.998 0.487 3.395 0.767 2.844C1.22267 1.94999 1.94977 1.22324 2.844 0.768C3.394 0.487 3.998 0.365 4.712 0.307C5.409 0.25 6.275 0.25 7.367 0.25ZM13.75 18.247C14.2224 18.2474 14.6947 18.2311 15.166 18.198C15.786 18.148 16.171 18.051 16.476 17.896C17.0874 17.5844 17.5844 17.0874 17.896 16.476C18.051 16.171 18.147 15.786 18.198 15.166C18.249 14.536 18.25 13.732 18.25 12.6V7.4C18.25 6.268 18.25 5.463 18.198 4.834C18.148 4.214 18.051 3.829 17.896 3.524C17.5844 2.91263 17.0874 2.41556 16.476 2.104C16.171 1.949 15.786 1.853 15.166 1.802C14.6947 1.76861 14.2224 1.75194 13.75 1.752V18.247ZM5.47 6.47C5.32955 6.61063 5.25066 6.80125 5.25066 7C5.25066 7.19875 5.32955 7.38937 5.47 7.53L7.94 10L5.47 12.47C5.39631 12.5387 5.33721 12.6215 5.29622 12.7135C5.25523 12.8055 5.23319 12.9048 5.23141 13.0055C5.22963 13.1062 5.24816 13.2062 5.28588 13.2996C5.3236 13.393 5.37974 13.4778 5.45096 13.549C5.52218 13.6203 5.60701 13.6764 5.7004 13.7141C5.79379 13.7518 5.89382 13.7704 5.99452 13.7686C6.09523 13.7668 6.19454 13.7448 6.28654 13.7038C6.37854 13.6628 6.46134 13.6037 6.53 13.53L9.53 10.53C9.67045 10.3894 9.74934 10.1988 9.74934 10C9.74934 9.80125 9.67045 9.61063 9.53 9.47L6.53 6.47C6.38937 6.32955 6.19875 6.25066 6 6.25066C5.80125 6.25066 5.61063 6.32955 5.47 6.47Z" fill="white"/>
</svg>
