<svg width="36" height="37" viewBox="0 0 36 37" fill="none" xmlns="http://www.w3.org/2000/svg">
<path d="M3.91667 16.5417H11.75C13.9042 16.5417 15.6667 14.7792 15.6667 12.625V4.79167C15.6667 2.6375 13.9042 0.875 11.75 0.875H3.91667C1.7625 0.875 0 2.6375 0 4.79167V12.625C0 14.7792 1.7625 16.5417 3.91667 16.5417ZM3.91667 36.125H11.75C13.9042 36.125 15.6667 34.3625 15.6667 32.2083V24.375C15.6667 22.2208 13.9042 20.4583 11.75 20.4583H3.91667C1.7625 20.4583 0 22.2208 0 24.375V32.2083C0 34.3625 1.7625 36.125 3.91667 36.125ZM19.5833 4.79167V12.625C19.5833 14.7792 21.3458 16.5417 23.5 16.5417H31.3333C33.4875 16.5417 35.25 14.7792 35.25 12.625V4.79167C35.25 2.6375 33.4875 0.875 31.3333 0.875H23.5C21.3458 0.875 19.5833 2.6375 19.5833 4.79167ZM23.5 36.125H31.3333C33.4875 36.125 35.25 34.3625 35.25 32.2083V24.375C35.25 22.2208 33.4875 20.4583 31.3333 20.4583H23.5C21.3458 20.4583 19.5833 22.2208 19.5833 24.375V32.2083C19.5833 34.3625 21.3458 36.125 23.5 36.125Z" fill="white"/>
</svg>
