<svg width="31" height="29" viewBox="0 0 31 29" fill="none" xmlns="http://www.w3.org/2000/svg">
<path d="M25.7917 19.2292H5.375C4.21468 19.2292 3.10188 19.6901 2.28141 20.5106C1.46094 21.331 1 22.4438 1 23.6042C1 24.7645 1.46094 25.8773 2.28141 26.6978C3.10188 27.5182 4.21468 27.9792 5.375 27.9792H25.7917C26.952 27.9792 28.0648 27.5182 28.8853 26.6978C29.7057 25.8773 30.1667 24.7645 30.1667 23.6042C30.1667 22.4438 29.7057 21.331 28.8853 20.5106C28.0648 19.6901 26.952 19.2292 25.7917 19.2292ZM24.3333 13.3958C25.8804 13.3958 27.3642 12.7813 28.4581 11.6873C29.5521 10.5933 30.1667 9.1096 30.1667 7.5625C30.1667 6.0154 29.5521 4.53167 28.4581 3.43771C27.3642 2.34375 25.8804 1.72917 24.3333 1.72917C22.7862 1.72917 21.3025 2.34375 20.2085 3.43771C19.1146 4.53167 18.5 6.0154 18.5 7.5625C18.5 9.1096 19.1146 10.5933 20.2085 11.6873C21.3025 12.7813 22.7862 13.3958 24.3333 13.3958ZM1 7.5625L7.5625 1L14.125 7.5625L7.5625 14.125L1 7.5625Z" fill="white" stroke="white" stroke-linecap="round" stroke-linejoin="round"/>
</svg>
