<svg width="29" height="29" viewBox="0 0 29 29" fill="none" xmlns="http://www.w3.org/2000/svg">
<path fill-rule="evenodd" clip-rule="evenodd" d="M5.78288 7.22859C5.78288 5.31145 6.54446 3.47283 7.90008 2.11721C9.25571 0.761582 11.0943 0 13.0115 0C14.9286 0 16.7672 0.761582 18.1229 2.11721C19.4785 3.47283 20.2401 5.31145 20.2401 7.22859C20.2401 9.14574 19.4785 10.9844 18.1229 12.34C16.7672 13.6956 14.9286 14.4572 13.0115 14.4572C11.0943 14.4572 9.25571 13.6956 7.90008 12.34C6.54446 10.9844 5.78288 9.14574 5.78288 7.22859ZM4.07982 18.3202C6.39731 16.9062 9.54897 15.9029 13.0115 15.9029C13.6582 15.9029 14.2924 15.9366 14.914 16.0041C15.1624 16.0307 15.3996 16.1213 15.6025 16.2668C15.8055 16.4124 15.9672 16.6081 16.0721 16.8348C16.1769 17.0615 16.2212 17.3115 16.2007 17.5604C16.1802 17.8093 16.0955 18.0486 15.955 18.2551C14.9758 19.6925 14.4537 21.3923 14.4572 23.1315C14.4572 24.4616 14.7565 25.7193 15.2885 26.8427C15.3921 27.0615 15.4392 27.3029 15.4253 27.5446C15.4114 27.7864 15.3369 28.0208 15.2089 28.2263C15.0808 28.4318 14.9031 28.6018 14.6922 28.7208C14.4813 28.8397 14.2439 28.9038 14.0018 28.9072C13.6741 28.912 13.344 28.9144 13.0115 28.9144C9.78896 28.9144 6.74428 28.712 4.46293 28.1077C3.32805 27.807 2.25966 27.3761 1.45006 26.7256C0.592745 26.0374 0 25.076 0 23.8544C0 22.7166 0.517568 21.6525 1.22019 20.762C1.93437 19.8584 2.9218 19.0271 4.07982 18.3187V18.3202ZM22.4086 20.2401C21.8335 20.2401 21.2819 20.4685 20.8752 20.8752C20.4685 21.2819 20.2401 21.8335 20.2401 22.4086C20.2401 22.9838 20.4685 23.5354 20.8752 23.9421C21.2819 24.3487 21.8335 24.5772 22.4086 24.5772C22.9838 24.5772 23.5354 24.3487 23.9421 23.9421C24.3487 23.5354 24.5772 22.9838 24.5772 22.4086C24.5772 21.8335 24.3487 21.2819 23.9421 20.8752C23.5354 20.4685 22.9838 20.2401 22.4086 20.2401ZM17.3486 22.4086C17.3492 21.6388 17.5254 20.8792 17.8639 20.1877C18.2024 19.4963 18.6942 18.8912 19.3018 18.4185C19.9095 17.9458 20.617 17.618 21.3705 17.46C22.124 17.3021 22.9036 17.3181 23.6499 17.507C24.3962 17.6958 25.0897 18.0525 25.6773 18.5498C26.265 19.0471 26.7315 19.672 27.0412 20.3768C27.3509 21.0816 27.4957 21.8478 27.4645 22.6171C27.4334 23.3863 27.2271 24.1383 26.8615 24.8158L28.0672 26.0229C28.2053 26.1563 28.3154 26.3158 28.3912 26.4922C28.4669 26.6686 28.5068 26.8583 28.5085 27.0503C28.5102 27.2422 28.4736 27.4326 28.4009 27.6103C28.3282 27.7879 28.2209 27.9494 28.0851 28.0851C27.9494 28.2209 27.788 28.3282 27.6103 28.4009C27.4326 28.4736 27.2422 28.5102 27.0503 28.5085C26.8583 28.5068 26.6686 28.4669 26.4922 28.3912C26.3158 28.3154 26.1563 28.2053 26.0229 28.0672L24.8158 26.86C24.0449 27.2769 23.1791 27.4864 22.3029 27.4681C21.4268 27.4498 20.5704 27.2043 19.8177 26.7556C19.0649 26.3068 18.4417 25.6703 18.0088 24.9083C17.576 24.1463 17.3485 23.285 17.3486 22.4086Z" fill="white"/>
</svg>
