<svg width="32" height="39" viewBox="0 0 32 39" fill="none" xmlns="http://www.w3.org/2000/svg">
<path d="M31.65 8.3268C31.6608 8.26474 31.6608 8.20136 31.65 8.1393C31.6565 8.08323 31.6565 8.02662 31.65 7.97055C31.59 7.85368 31.5125 7.74624 31.42 7.6518L25.4017 1.78305C25.0646 1.44871 24.6598 1.18688 24.2134 1.0143C23.7769 0.813347 23.2957 0.723076 22.8142 0.751796H9.16754C8.68803 0.748327 8.21255 0.837534 7.76837 1.0143C7.3219 1.18688 6.91716 1.44871 6.58004 1.78305L0.580873 7.6518C0.320786 7.91388 0.170367 8.26169 0.159206 8.6268V31.408C0.156685 32.3059 0.335281 33.1954 0.684762 34.0256C1.03424 34.8558 1.54774 35.6104 2.19584 36.2462C2.84393 36.8819 3.61388 37.3863 4.46158 37.7305C5.30928 38.0746 6.21807 38.2518 7.13587 38.2518H24.865C26.7171 38.2468 28.4916 37.5236 29.7995 36.2407C31.1073 34.9578 31.8417 33.2199 31.8417 31.408V8.60992C31.7889 8.50941 31.7246 8.41318 31.65 8.3268ZM24.1942 15.9787L23.5042 17.2912C22.8839 18.5036 21.9322 19.5239 20.7547 20.2389C19.5772 20.9539 18.2201 21.3354 16.8342 21.3412H14.9175C13.5608 21.3196 12.2357 20.9372 11.0842 20.2349C9.90251 19.521 8.9521 18.4937 8.34337 17.2724L7.65337 15.9787C7.52992 15.7587 7.45285 15.5168 7.42671 15.2672C7.40057 15.0176 7.42591 14.7655 7.50121 14.5256C7.57652 14.2858 7.70026 14.0632 7.86511 13.871C8.02997 13.6788 8.23257 13.5209 8.46093 13.4067C8.68929 13.2925 8.93876 13.2243 9.19456 13.2061C9.45036 13.1879 9.70728 13.2201 9.95012 13.3009C10.193 13.3816 10.4168 13.5092 10.6083 13.6761C10.7998 13.843 10.9551 14.0457 11.065 14.2724L11.755 15.6037C12.0568 16.1976 12.5211 16.6979 13.0965 17.0489C13.6718 17.3998 14.3354 17.5875 15.0134 17.5912H16.93C17.608 17.5875 18.2716 17.3998 18.847 17.0489C19.4223 16.6979 19.8867 16.1976 20.1884 15.6037L20.8784 14.2724C20.9844 14.0395 21.1378 13.8302 21.3293 13.6572C21.5207 13.4843 21.7462 13.3513 21.9919 13.2663C22.2376 13.1814 22.4984 13.1463 22.7585 13.1633C23.0185 13.1802 23.2723 13.2488 23.5043 13.3649C23.7364 13.4809 23.9418 13.642 24.1081 13.8383C24.2744 14.0346 24.3981 14.2619 24.4716 14.5065C24.5452 14.7511 24.567 15.0078 24.5358 15.2609C24.5045 15.514 24.4209 15.7582 24.29 15.9787H24.1942ZM4.91254 7.20367L8.45837 3.73492C8.53082 3.66974 8.61541 3.61881 8.70754 3.58492C8.80943 3.57345 8.91232 3.57345 9.0142 3.58492H22.9675C23.0597 3.61881 23.1443 3.66974 23.2167 3.73492L26.7817 7.20367H4.91254Z" fill="white"/>
</svg>
