<svg width="353" height="324" viewBox="0 0 353 324" fill="none" xmlns="http://www.w3.org/2000/svg">
<path d="M75.1304 70.4347C75.1304 61.1851 76.9522 52.0261 80.4919 43.4805C84.0316 34.935 89.2197 27.1703 95.7602 20.6299C102.301 14.0894 110.065 8.9012 118.611 5.36153C127.156 1.82185 136.315 0 145.565 0C154.815 0 163.974 1.82185 172.519 5.36153C181.065 8.9012 188.829 14.0894 195.37 20.6299C201.91 27.1703 207.099 34.935 210.638 43.4805C214.178 52.0261 216 61.1851 216 70.4347C216 89.1152 208.579 107.031 195.37 120.24C182.161 133.449 164.246 140.869 145.565 140.869C126.885 140.869 108.969 133.449 95.7602 120.24C82.5511 107.031 75.1304 89.1152 75.1304 70.4347ZM0 248.869C0 230.189 7.42078 212.274 20.6299 199.064C33.8389 185.855 51.7543 178.435 70.4347 178.435H76.8208C80.3269 178.447 83.7328 178.986 87.0385 180.05L103.304 185.365C121.258 191.231 140.236 193.297 159.032 191.432C159.733 191.374 160.436 191.494 161.077 191.784C161.718 192.073 162.274 192.521 162.693 193.085C163.113 193.649 163.381 194.311 163.474 195.008C163.566 195.704 163.479 196.413 163.221 197.067C157.756 210.539 154.95 224.94 154.956 239.478C154.956 262.994 162.169 284.838 174.49 302.907C176.199 305.424 174.547 308.974 171.485 309.068C122.211 310.777 72.8877 307.631 24.2295 299.676C17.4713 298.564 11.3268 295.09 6.88985 289.873C2.45292 284.655 0.0114419 278.032 0 271.183V248.869Z" fill="white"/>
<path fill-rule="evenodd" clip-rule="evenodd" d="M183.13 239.478C183.13 257.735 188.915 274.639 198.757 288.444C206.549 299.46 216.876 308.441 228.866 314.629C240.856 320.817 254.159 324.031 267.652 324C284.369 324 300.71 319.043 314.61 309.755C328.509 300.468 339.343 287.267 345.74 271.823C352.137 256.379 353.811 239.384 350.55 222.989C347.288 206.593 339.238 191.533 327.418 179.712C315.597 167.892 300.537 159.842 284.141 156.58C267.746 153.319 250.751 154.993 235.307 161.39C219.863 167.787 206.662 178.621 197.375 192.52C188.087 206.42 183.13 222.761 183.13 239.478ZM267.652 295.826C257.586 295.831 247.701 293.14 239.027 288.031L316.205 210.853C321.253 219.412 323.948 229.154 324.016 239.091C324.084 249.028 321.524 258.805 316.594 267.433C311.664 276.061 304.54 283.231 295.945 288.218C287.35 293.204 277.589 295.829 267.652 295.826ZM219.099 268.103L296.277 190.925C285.514 184.565 272.941 181.964 260.538 183.533C248.135 185.102 236.606 190.751 227.766 199.592C218.925 208.432 213.276 219.961 211.707 232.364C210.138 244.767 212.739 257.34 219.099 268.103Z" fill="white"/>
</svg>
