<svg width="159" height="181" viewBox="0 0 159 181" fill="none" xmlns="http://www.w3.org/2000/svg">
<path d="M86.5282 82.9485L86.2222 83.6442L82.8712 91.5448L80.576 96.9097V96.9252L79.7651 98.8423L73.3845 113.855L45.9494 178.373L45.6893 178.961L45.5515 179.224V179.239L45.0313 179.394L43.0727 179.919L29.4394 153.435V153.419H29.4241L22.6609 155.043L19.1722 155.878L16.9842 156.388L8.35428 158.444L7.31379 158.692L2.70813 159.774L0.244629 160.377L31.505 90.6016L39.3699 73.038L43.7001 63.3904L45.0925 64.0243L45.5056 64.2098L49.8359 66.2043L56.1553 69.08L57.8843 69.884L60.2866 70.9662L74.2872 77.3671L76.6742 78.4493H76.6895L78.1431 79.1142H78.1584L79.5356 79.7481L79.5509 79.7635H79.5662L82.2133 80.9695L84.4626 81.9899L86.5282 82.9485Z" fill="#13589C"/>
<path d="M86.5282 82.933V82.9485L86.2222 83.6442L82.8865 91.6375L80.6219 97.0334V97.0489L79.8263 98.966L78.2044 102.847L76.7966 106.171L73.614 113.638L45.9494 178.373L45.6893 178.961L45.5668 179.239H45.5515L45.0313 179.394L43.0727 179.919L29.4394 153.435L29.4241 153.419L22.6609 155.012L19.2028 155.816L17.0148 156.326L8.40018 158.336L2.73873 159.681H2.70813L0.244629 160.377L31.505 90.6016L39.3699 73.038L43.6848 63.3904H43.7001L45.0925 64.0243L45.5056 64.2098L49.8359 66.2043L56.1553 69.08L57.8843 69.884L60.2866 70.9662L74.2872 77.3671L76.6742 78.4493H76.6895L78.1431 79.1142H78.1584L79.5356 79.7481L79.5509 79.7635H79.5662L82.2133 80.9695H82.2286L84.4779 81.9899L86.5282 82.933Z" fill="url(#paint0_linear_3161_81)"/>
<path d="M89.007 82.2375L88.548 83.2888L88.1655 84.1237L87.6452 85.2678V85.2833L83.8352 93.7713V93.7868L81.4941 98.9971V99.028L80.6679 100.883L79.7192 102.971L75.9551 111.412L45.9494 178.374L45.6893 178.961L45.5516 179.224L43.1952 174.153L39.1404 166.469L38.1305 164.536L36.4933 161.444V161.428L31.9182 152.724L29.4394 153.435L22.4926 155.383L19.0499 156.141L16.8924 156.605L8.33902 158.46L7.31383 158.692L2.73877 159.681L33.5095 90.9883H33.5248L40.4104 75.5892L45.5057 64.21L46.1789 62.6948L50.5245 64.6893L56.8286 67.565L58.5576 68.3535L60.9752 69.4513L74.9605 75.8366L77.3781 76.9498L78.8164 77.5992H78.8317L81.54 78.8515H81.5553L84.2025 80.0575H84.2178L85.1358 80.4749L85.6408 80.7068L87.8441 81.7118L88.7316 82.1138L89.007 82.2375Z" fill="url(#paint1_linear_3161_81)"/>
<path d="M56.8286 67.5652L56.1554 69.0804L17.0149 156.326L16.9843 156.388L16.8925 156.605L8.35437 158.476V158.445L8.40027 158.352L49.836 66.2046L50.5245 64.6895L56.8286 67.5652Z" fill="white"/>
<path d="M85.1357 80.4902L43.1951 174.153L39.1403 166.469L78.8316 77.6145L85.1357 80.4902Z" fill="white"/>
<path d="M77.3627 76.9498L38.1304 164.551L36.4932 161.444L74.9604 75.8521L77.3627 76.9498Z" fill="white"/>
<path d="M60.9751 69.4515L60.2866 70.9667L22.6609 155.012V155.028L22.4926 155.399L19.0498 156.141L19.1722 155.878L19.1875 155.816L57.8843 69.8689L58.5576 68.3538L60.9751 69.4515Z" fill="white"/>
<path style="mix-blend-mode:multiply" opacity="0.5" d="M88.9765 81.1862L88.7317 82.1138L88.4563 83.1033L88.1656 84.1238L87.6453 85.2679V85.2833L83.8353 93.7714V93.7869L81.4942 98.9972V99.0281L80.668 100.883L79.7193 102.971L75.9552 111.397V111.412L45.9495 178.374L45.6894 178.961L45.567 179.239H45.5517L45.0314 179.394L43.0729 179.92L29.4395 153.435L22.4927 155.383L19.05 156.141L16.8925 156.605L8.3391 158.46L7.31392 158.692L2.70825 159.774V158.63L33.0506 90.8957L45.0926 64.0245L46.1484 61.6436L82.703 78.3259L85.0747 79.4082L85.3655 79.5319L87.2628 80.4131L88.9765 81.1862Z" fill="url(#paint2_linear_3161_81)"/>
<path d="M158.857 157.547L158.383 160.191L128.576 151.78L115.937 180.631L87.3239 115.911L80.6679 100.883L79.8263 98.9658L79.7651 98.8422L78.3574 95.6417L74.5933 87.1228L73.7058 85.1283L73.614 84.8964L73.8588 84.7727L74.9758 84.2625H74.9911L76.0775 83.7677L78.8623 82.4999L82.2133 80.9693H82.2286H82.2439L84.2025 80.0571H84.2178L85.1664 79.6242L85.3654 79.5314L86.6353 78.9594L89.0376 77.8617L103.023 71.4763L105.441 70.3786L107.17 69.5901L113.474 66.7143L116.442 65.3538L121.721 76.8412L125.225 84.448L125.317 84.6336L126.709 87.6948L158.857 157.547Z" fill="url(#paint3_linear_3161_81)"/>
<path d="M158.857 157.548L152.874 155.862H152.859L144.183 153.42L141.781 152.739L138.476 151.812L129.05 149.152L124.659 158.584L123.19 161.753L122.302 163.686L119.747 169.128L118.416 171.988L118.4 172.004L116.029 177.09L92.9851 124.971L88.2418 114.242L83.2689 103.032L81.4939 99.028V99.0125L80.6218 97.049V97.0335L80.5759 96.9253V96.9098L79.1834 93.7867L75.4193 85.2677V85.2523L74.9756 84.2628L74.5319 83.2733V83.2578L74.0881 82.2528H74.1034L75.2204 81.7426L75.2357 81.7272L77.4391 80.7377L77.9746 80.4903L79.5507 79.7636H79.566L81.5398 78.8514H81.5551L82.7027 78.3258L84.2787 77.5991L85.7324 76.9497L88.15 75.8365L102.135 69.4512L104.538 68.3689V68.3534L106.282 67.5649L112.571 64.7047L116.932 62.7102L122.899 76.1612L123.282 77.058L158.857 157.548Z" fill="url(#paint4_linear_3161_81)"/>
<path d="M152.874 155.863H152.859L144.183 153.42L116.304 90.2773L107.17 69.5906L106.282 67.5652L112.571 64.6895V64.7049L113.474 66.7148L123.236 88.7931L152.874 155.863Z" fill="white"/>
<path d="M122.287 163.686L119.747 169.128L118.416 171.988L90.7972 109.526L83.8351 93.7713L82.8864 91.6377L82.8711 91.5449L81.5399 88.5455L78.8622 82.5002L77.9747 80.4903L79.5508 79.7637H79.5661L81.5399 78.8515H81.5552L82.7028 78.3258L84.2788 77.5991L85.0745 79.4081L85.1663 79.6245L85.6406 80.7068L87.6451 85.2678L99.8708 112.927L122.287 163.686Z" fill="white"/>
<path d="M124.659 158.584L123.19 161.753L101.631 112.927L88.548 83.2888L88.4562 83.1033L87.8441 81.7118L87.2627 80.4131L86.6353 78.9598L85.7325 76.9499L88.1501 75.8367L89.0376 77.8621L103.145 109.835L124.659 158.584Z" fill="white"/>
<path d="M141.796 152.724L138.476 151.812L116.534 102.074L103.023 71.4769L102.135 69.4515L104.538 68.3538V68.3692L105.44 70.3791L115.509 93.1995L141.796 152.724Z" fill="white"/>
<path style="mix-blend-mode:multiply" opacity="0.5" d="M158.857 157.548L152.874 155.862H152.859L144.183 153.42L141.781 152.739L138.476 151.812L131.544 149.864L129.05 149.152L124.659 158.584L123.19 161.753L122.287 163.686L119.747 169.128L118.416 171.988L118.401 172.004L116.029 177.09V177.106L92.9853 124.971L88.242 114.242L83.2691 103.032L81.4941 98.997L80.622 97.049V97.0335L80.5761 96.9253V96.9098L79.1989 93.7712L75.4195 85.2523L74.9911 84.2628L74.5321 83.2578L74.1036 82.2528L75.2206 81.7426L75.2359 81.7272L77.4393 80.7377L77.9748 80.4903L79.5509 79.7636H79.5662L81.54 78.8514H81.5553L82.7029 78.3258L84.2789 77.5991L85.7326 76.9497L88.1502 75.8365L102.135 69.4512L104.538 68.3689V68.3534L106.282 67.5649L112.571 64.7047V64.6892L116.932 62.7102L122.884 76.1767L158.857 157.548Z" fill="url(#paint5_linear_3161_81)"/>
<path opacity="0.2" d="M126.74 87.6798L126.709 87.6952L124.797 88.4683L123.236 88.793L116.304 90.2772L115.172 90.5091L115.509 93.1993L116.626 102.028L116.534 102.074L114.698 102.801L104.675 101.718L103.145 109.835L102.64 112.526L101.631 112.927L100.697 113.299L99.8709 112.927L91.1033 108.954L90.7972 109.526L88.2419 114.242L87.3239 115.911L80.6678 100.883L79.7191 102.971L75.955 111.397V111.412L73.614 113.639L73.3844 113.855L68.7023 118.308L68.0902 118.555L66.759 119.096L63.1479 112.727L62.1227 110.964L60.914 108.815L59.9347 109.294L52.0698 113.02L50.1266 113.793L47.6937 102.089L46.2707 102.275L43.1186 102.677L40.9612 102.955L36.1719 103.574L35.9424 103.589L36.8145 95.1474L37.1359 92.1325L37.1971 91.6842L33.5248 90.9884H33.5095L33.0504 90.8957L31.505 90.6019L39.3698 73.0383L43.6848 63.3906H43.7001L45.0925 64.0245L46.1483 61.6436L82.7029 78.3259L84.2789 77.5992L85.7325 76.9499L88.1501 75.8367L102.135 69.4513L104.538 68.3536L106.282 67.5651L112.571 64.6894L116.932 62.7104L122.899 76.1614L122.884 76.1768L121.966 76.7025L121.721 76.8417L121.69 76.8571L121.813 77.1663L125.225 84.4484L125.317 84.634L126.74 87.6798Z" fill="black"/>
<path d="M119.762 70.9045L126.74 80.9696L124.797 81.7427L113.198 84.2164L116.641 95.3174L114.698 96.0904L102.916 94.8226L102.64 105.8L100.697 106.573L89.8944 101.687L86.115 111.412L84.1871 112.185L75.3889 104.161L68.7023 111.582L66.759 112.355L60.8527 101.981L52.0698 106.31L50.1266 107.083L47.6937 95.3638L36.1719 96.848L35.9423 96.8789L37.1358 85.4069L37.197 84.974L25.5528 82.7476L25.6905 82.4384L30.388 71.8013L30.2044 71.7085L20.0138 66.0498L27.9551 57.1598L27.695 56.8815L19.8455 48.4398L20.1056 48.2697L30.0973 42.4719L29.8984 42.039L25.0479 31.6492L26.9911 30.8607L36.6462 29.1755L35.162 17.3015L37.0899 16.5284L46.9439 18.5693L49.1626 6.81895L51.0906 6.03044L59.9653 11.6891L65.6726 1.19116L67.6006 0.433578L74.4708 9.23085L83.1007 1.02109L85.0287 0.248047L89.007 11.4108L99.6107 6.69526L102.166 18.0127L113.917 16.513L112.663 28.4024L124.307 30.6443L119.456 41.5751L129.846 47.3421L121.905 56.2167L130.014 64.9521L119.762 70.9045Z" fill="url(#paint6_linear_3161_81)"/>
<g style="mix-blend-mode:soft-light">
<path d="M47.0815 83.5362L39.232 95.0391L36.1564 96.848L35.9269 96.879L37.1357 85.4224L40.7009 83.397L28.7659 81.1243L25.6751 82.4539L30.3726 71.8168L30.1889 71.724L33.5093 70.6572L23.487 64.8903L19.983 66.0653L27.9244 57.1907L27.6489 56.9124L31.0917 55.9538L31.7956 52.7998L23.1657 47.4503L20.0748 48.3007L30.0665 42.4874L29.8676 42.0545L32.6524 41.2041C32.6524 41.2041 38.3904 51.4547 38.0844 51.8567C37.7784 52.2587 47.0356 83.5671 47.0356 83.5671L47.0815 83.5362Z" fill="white"/>
</g>
<path d="M115.141 83.5052L116.641 95.3174L104.859 94.0496L102.64 105.8L91.8224 100.914L86.1151 111.412L77.3322 103.388L68.7023 111.582L62.796 101.208L52.0699 106.31L49.637 94.5907L37.8703 96.1059L39.125 84.2009L27.4961 81.9591L32.2548 71.1983L32.3313 71.0282L32.163 70.9355L21.9418 65.2768L29.6689 56.6186L29.8831 56.3867L29.6536 56.1548L21.7734 47.6667L31.658 41.9153L32.0406 41.6834L31.8416 41.2814L27.848 32.6851L27.695 32.3604L26.9912 30.8607L37.9621 28.5261L38.5742 28.387L38.4977 27.7376L38.4518 27.3511L37.2583 17.9354L37.09 16.5284L43.8378 17.2551L48.367 17.7344L48.8719 17.7962L48.9637 17.3169L51.0906 6.03044L61.9085 10.9316L67.6006 0.433578L76.3988 8.44235L85.0287 0.248047L90.935 10.6223L101.646 5.53569L104.094 17.2396L115.861 15.7399L114.606 27.6448L126.22 29.8712L121.461 40.6784L121.4 40.8021L121.522 40.8794L131.789 46.569L124.047 55.2117L123.833 55.4436L124.062 55.6755L131.958 64.1636L121.966 69.9923L121.675 70.147L121.813 70.4407L126.74 80.9696L115.203 83.4279H115.187L115.141 83.4434V83.5052Z" fill="url(#paint7_radial_3161_81)"/>
<path d="M119.839 56.2166C119.839 63.8079 118.248 70.8272 115.371 76.9806C115.142 77.4908 114.897 77.9701 114.637 78.4649C114.346 79.0369 114.04 79.5935 113.719 80.1347C113.688 80.181 113.673 80.2274 113.627 80.2738C113.351 80.7531 113.076 81.2169 112.785 81.6808C112.51 82.1291 112.219 82.562 111.928 83.0104C111.301 83.9381 110.643 84.8503 109.924 85.7006C109.664 86.0407 109.388 86.3654 109.113 86.6901C107.109 89.0402 104.859 91.1583 102.38 92.9982C102.059 93.2455 101.753 93.462 101.416 93.7094C94.4238 98.6105 85.8092 101.424 76.2 101.424C71.6556 101.424 67.2335 100.79 63.0563 99.5845C62.9798 99.5536 62.9033 99.5381 62.8268 99.5072C48.6884 95.4255 37.1819 84.9894 32.2549 71.1982C32.2243 71.1055 32.1784 71.0127 32.1631 70.9354C30.6024 66.4827 29.7302 61.6743 29.6843 56.634C29.6843 56.4794 29.6843 56.3248 29.6843 56.1702V56.0774C29.6843 51.1454 30.3729 46.3834 31.6888 41.9307C31.7347 41.7297 31.8112 41.5132 31.8724 41.2968C32.362 39.6888 32.9282 38.1428 33.5708 36.6276C33.6779 36.3802 33.7851 36.1328 33.8922 35.8855C33.9687 35.6999 34.0452 35.5144 34.137 35.3289C34.4736 34.5713 34.8408 33.8446 35.2234 33.1025C36.0496 31.51 36.983 29.9794 37.9929 28.5415C38.1612 28.2632 38.3448 28.0158 38.5284 27.753C38.5284 27.753 38.559 27.7221 38.559 27.7066C38.6202 27.6139 38.6967 27.5211 38.7733 27.4438C39.5077 26.4079 40.2881 25.4184 41.1296 24.4598C41.4816 24.0578 41.8335 23.6559 42.1854 23.2693C42.369 23.0838 42.5221 22.9137 42.6751 22.7591C43.1953 22.2025 43.7461 21.6769 44.3123 21.1512C44.7101 20.7647 45.1233 20.3781 45.5517 20.0225C46.4545 19.234 47.3878 18.4919 48.3365 17.7962C48.3365 17.7962 48.3671 17.7652 48.3824 17.7652C48.5813 17.6261 48.7803 17.4869 48.9792 17.3478C53.8909 13.8691 59.537 11.4262 65.7646 10.2512V10.2048C65.7646 10.2048 73.7365 8.96796 81.0505 10.0966C83.5599 10.4831 85.9928 11.1479 88.0126 12.2457C88.747 12.6477 89.4203 12.5858 89.9711 12.3694C97.6065 15.2451 104.293 20.1771 109.388 26.4697C109.419 26.5007 109.434 26.5316 109.48 26.5625C109.679 26.7944 109.847 27.0263 110.031 27.2582C110.031 27.2582 110.046 27.2892 110.062 27.3046C112.755 30.8143 114.973 34.7104 116.626 38.9158C118.707 44.2962 119.854 50.125 119.854 56.263L119.839 56.2166Z" fill="url(#paint8_linear_3161_81)"/>
<path d="M124.062 55.6753C124.062 55.5207 124.062 55.3506 124.062 55.2115C123.986 50.1867 123.098 45.3783 121.537 40.8792C121.537 40.8173 121.507 40.74 121.476 40.6782C116.259 25.7893 103.696 14.41 88.1961 10.9932C85.5949 10.483 83.2079 10.1892 81.0351 10.0501C73.9048 9.57077 69.1614 10.6994 67.3711 11.2096V11.2869C61.0823 12.8639 55.3138 15.7397 50.3562 19.6513C48.9944 20.7181 47.6785 21.8777 46.4391 23.0991C45.3374 24.1814 44.3122 25.31 43.3329 26.5005C41.0989 29.1907 39.171 32.1283 37.595 35.2823C34.4582 41.544 32.7139 48.6096 32.7139 56.1082C32.7139 76.0837 45.2609 93.0753 62.842 99.5225C62.9185 99.5534 62.995 99.5844 63.0562 99.6153C67.8455 101.331 73.002 102.275 78.388 102.275C87.4004 102.275 95.8314 99.6307 102.901 95.0698C105.854 93.1681 108.562 90.9572 110.98 88.437C112.081 87.3238 113.076 86.1797 114.025 84.9738C114.407 84.5099 114.759 84.0152 115.126 83.5204C115.157 83.5204 115.157 83.4895 115.172 83.4586C115.83 82.5773 116.457 81.6497 117.039 80.7066C119.028 77.5371 120.635 74.0893 121.798 70.4714C121.843 70.3323 121.889 70.1622 121.951 70.023C123.312 65.6321 124.062 60.9784 124.062 56.1391C124.062 56 124.062 55.8608 124.062 55.7217V55.6753Z" fill="url(#paint9_linear_3161_81)"/>
<path d="M78.3726 99.1674C54.8699 99.1674 35.7434 79.8412 35.7434 56.0932C35.7434 32.3452 54.8699 13.019 78.3726 13.019C101.875 13.019 121.002 32.3452 121.002 56.0932C121.002 79.8412 101.875 99.1674 78.3726 99.1674Z" fill="url(#paint10_radial_3161_81)"/>
<path style="mix-blend-mode:multiply" opacity="0.3" d="M78.3726 99.1674C54.8699 99.1674 35.7434 79.8412 35.7434 56.0932C35.7434 32.3452 54.8699 13.019 78.3726 13.019C101.875 13.019 121.002 32.3452 121.002 56.0932C121.002 79.8412 101.875 99.1674 78.3726 99.1674Z" fill="url(#paint11_linear_3161_81)"/>
<path style="mix-blend-mode:multiply" opacity="0.3" d="M121.017 56.0926C121.017 79.8406 101.891 99.1668 78.3879 99.1668C60.8833 99.1668 45.8116 88.4523 39.2474 73.1769C36.9981 67.9511 35.7434 62.1687 35.7434 56.0926C35.7434 32.3291 54.8699 13.0029 78.3879 13.0029C85.2735 13.0029 91.7765 14.6573 97.545 17.5948C111.454 24.6914 121.032 39.2711 121.032 56.0771L121.017 56.0926Z" fill="url(#paint12_linear_3161_81)"/>
<path d="M68.779 80.4751V74.3216H71.6097V36.8443H68.2281V30.1807H85.7174V74.3371H88.5482V80.4906H68.779V80.4751Z" fill="#FF9D09"/>
<g style="mix-blend-mode:color-burn" opacity="0.3">
<path d="M85.7021 74.3371V30.1807H68.2281V32.5153H83.6824V76.6717H86.5131V80.4596H88.5329V74.3216H85.6868L85.7021 74.3371Z" fill="#767676"/>
</g>
<g style="mix-blend-mode:color-burn" opacity="0.2">
<path d="M83.6824 32.5154L85.7021 30.2891V74.1208L83.6824 76.6873V32.5154Z" fill="#767676"/>
</g>
<g style="mix-blend-mode:color-burn" opacity="0.2">
<path d="M88.5328 74.3374V80.4754H86.5131V76.9658L88.5328 74.3374Z" fill="#767676"/>
</g>
<g style="mix-blend-mode:color-burn" opacity="0.6">
<path d="M121.017 56.0932C121.017 79.2383 102.855 98.1934 80.1782 99.1365C101.967 97.2348 118.186 78.728 118.186 56.2169C118.186 32.4689 99.9933 13.1427 76.4753 13.1427C75.8327 13.1427 75.19 13.1427 74.5474 13.1891C75.8174 13.0654 77.0874 13.019 78.388 13.019C101.906 13.019 121.032 32.3452 121.032 56.0932H121.017Z" fill="#767676"/>
</g>
<path d="M113.076 74.7543C113.076 74.7543 111.867 77.8001 110.214 78.6196C109.434 79.0061 108.638 79.1607 107.98 79.0989C107.261 79.0061 106.71 78.666 106.496 78.063C106.083 76.9343 107.078 75.3264 108.73 74.507C109.113 74.3214 109.526 74.2287 109.97 74.1977C111.469 74.105 113.091 74.7389 113.091 74.7389L113.076 74.7543Z" fill="#E78B00"/>
<path d="M104.262 77.321C103.956 77.5683 103.589 77.6302 103.176 77.5374C102.396 77.3673 101.508 76.6252 100.82 75.4966C99.9321 74.0278 100.039 71.3994 100.085 70.6573C100.085 70.5336 100.085 70.4563 100.085 70.4563C100.085 70.4563 102.855 71.183 103.91 72.9146C104.951 74.6308 105.104 76.6098 104.247 77.321H104.262Z" fill="#E78B00"/>
<path d="M108.608 82.7473C108.608 82.7473 106.971 85.4994 105.211 85.9787C104.675 86.1178 104.17 86.1642 103.711 86.1333C102.625 86.056 101.799 85.5148 101.63 84.6645C101.386 83.474 102.61 82.098 104.369 81.6187C104.507 81.5723 104.645 81.5568 104.782 81.5414C106.481 81.3558 108.623 82.7319 108.623 82.7319L108.608 82.7473Z" fill="#E78B00"/>
<path d="M98.7997 83.7987C98.6161 83.8451 98.4172 83.8451 98.2183 83.7678C97.3767 83.5049 96.5504 82.2372 96.2291 80.5674C95.9231 78.9904 96.6575 76.8877 96.9942 76.0064C97.1013 75.7436 97.1778 75.5735 97.1778 75.5735C97.1778 75.5735 99.5036 77.5061 99.9167 79.5624C100.33 81.6187 99.8249 83.5049 98.815 83.7987H98.7997Z" fill="#E78B00"/>
<path d="M116.396 64.3644C116.396 64.3644 115.677 67.6112 114.162 68.7708C113.229 69.4975 112.219 69.8067 111.469 69.6985C111.01 69.6366 110.628 69.4047 110.413 69.0182C109.847 67.9823 110.597 66.2043 112.081 65.0447C112.785 64.4881 113.795 64.3181 114.667 64.2717C115.616 64.2253 116.396 64.3644 116.396 64.3644Z" fill="#E78B00"/>
<path d="M108.638 68.9255C108.332 69.4357 107.72 69.6522 107.017 69.5439C106.343 69.4512 105.594 69.111 104.89 68.508C103.436 67.2712 102.809 63.9935 102.809 63.9935C102.809 63.9935 103.023 63.9625 103.36 63.9471C103.405 63.9471 103.421 63.9471 103.482 63.9471C104.4 63.9161 106.098 64.0089 107.108 64.8593C108.562 66.0961 109.251 67.9051 108.638 68.91V68.9255Z" fill="#E78B00"/>
<path d="M112.724 47.2805C112.066 49.1203 110.811 50.2954 109.863 49.9862C109.863 49.9862 109.756 49.9552 109.725 49.9243C108.761 49.445 108.547 47.466 109.235 45.5334C109.725 44.1574 111.148 43.0442 111.959 42.5031C112.296 42.2711 112.51 42.1475 112.51 42.1475C112.51 42.1475 113.428 45.3324 112.724 47.265V47.2805Z" fill="#E78B00"/>
<path d="M108.363 50.821C108.088 51.5786 107.246 51.9496 106.221 51.8414C105.716 51.8105 105.18 51.6559 104.63 51.3776C102.977 50.5581 101.768 47.5123 101.768 47.5123C101.768 47.5123 102.962 47.033 104.247 46.9557C104.89 46.9248 105.563 46.9712 106.114 47.265C107.766 48.0844 108.776 49.6769 108.363 50.8055V50.821Z" fill="#E78B00"/>
<path d="M114.805 58.1956C113.887 59.5253 112.663 60.2365 111.806 60.02C111.607 59.9736 111.439 59.8809 111.286 59.7417C110.475 58.9687 110.75 57.0051 111.867 55.3663C112.663 54.2222 114.269 53.6192 115.172 53.3563C115.555 53.2327 115.815 53.1863 115.815 53.1863C115.815 53.1863 115.937 56.5413 114.805 58.1802V58.1956Z" fill="#E78B00"/>
<path d="M108.914 59.6803C108.623 60.3297 107.889 60.5925 107.032 60.4997C106.45 60.4379 105.792 60.1905 105.165 59.7731C103.589 58.7526 102.656 55.5831 102.656 55.5831C102.656 55.5831 103.39 55.3822 104.339 55.3203H104.385C105.242 55.2894 106.251 55.3822 107.001 55.8614C108.577 56.8973 109.434 58.598 108.929 59.6803H108.914Z" fill="#E78B00"/>
<path d="M108.883 37.2153C108.531 39.0242 107.537 40.292 106.634 40.0446C106.603 40.0446 106.573 40.0446 106.542 40.0137C105.716 39.689 105.318 38.0966 105.639 36.3495C105.884 35.0971 106.925 33.8912 107.552 33.2728C107.827 33.0099 108.011 32.8398 108.011 32.8398C108.011 32.8398 109.22 35.4064 108.868 37.2153H108.883Z" fill="#E78B00"/>
<path d="M106.022 42.4566C105.838 43.3533 104.813 43.8635 103.574 43.7553C103.359 43.7399 103.115 43.6935 102.885 43.6316C101.355 43.2296 99.9014 40.8332 99.9014 40.8332C99.9014 40.8332 101.324 39.9055 102.686 39.7664C103.008 39.7355 103.314 39.7509 103.604 39.8282C105.134 40.2302 106.221 41.4207 106.022 42.4721V42.4566Z" fill="#E78B00"/>
<path d="M103.987 30.196C103.895 31.8039 103.191 33.0563 102.396 32.9944C102.304 32.9944 102.212 32.9635 102.12 32.9171C101.477 32.6079 101.034 31.4019 101.126 29.9795C101.187 28.8818 101.921 27.7068 102.38 27.0574C102.594 26.7637 102.747 26.5781 102.747 26.5781C102.747 26.5781 104.079 28.588 103.987 30.1805V30.196Z" fill="#E78B00"/>
<path d="M102.457 35.5301C102.411 36.4732 101.263 37.138 99.9015 37.0298C99.8709 37.0298 99.8556 37.0298 99.8403 37.0298C98.4938 36.8752 97.0249 35.1126 97.0249 35.1126C97.0249 35.1126 98.3714 33.8603 99.6261 33.6593C99.7791 33.6439 99.9321 33.6284 100.07 33.6439C101.432 33.7521 102.503 34.587 102.442 35.5146L102.457 35.5301Z" fill="#E78B00"/>
<path d="M99.7791 30.6752C99.5343 31.1545 98.9834 31.3555 98.3102 31.2318C97.8664 31.1699 97.3768 30.9689 96.9178 30.6443C95.7396 29.8248 95.0969 27.382 95.0969 27.382C95.0969 27.382 95.5254 27.2892 96.1221 27.2583C96.826 27.2119 97.744 27.2583 98.3867 27.7221C99.5649 28.557 100.177 29.8712 99.7638 30.6752H99.7791Z" fill="#E78B00"/>
<path d="M112.418 74.7546C112.418 74.7546 111.209 77.8004 109.557 78.6198C109.021 78.8827 108.486 79.0527 107.981 79.0991C107.261 79.0063 106.711 78.6662 106.496 78.0632C106.083 76.9346 107.078 75.3266 108.73 74.5072C109.113 74.3217 109.526 74.2289 109.97 74.198C111.24 74.2598 112.433 74.7391 112.433 74.7391L112.418 74.7546Z" fill="#FF9D09"/>
<path d="M103.604 77.3209C103.467 77.4291 103.329 77.5064 103.176 77.5373C102.396 77.3673 101.508 76.6251 100.82 75.4965C99.9321 74.0277 100.039 71.3994 100.085 70.6572C100.957 70.9819 102.533 71.7086 103.268 72.9145C104.308 74.6307 104.461 76.6097 103.604 77.3209Z" fill="#FF9D09"/>
<path d="M107.95 82.7477C107.95 82.7477 106.313 85.4997 104.568 85.979C104.278 86.0563 103.987 86.1027 103.712 86.1336C102.625 86.0563 101.799 85.5152 101.631 84.6649C101.386 83.4744 102.61 82.0983 104.37 81.6191C104.507 81.5727 104.645 81.5572 104.783 81.5417C106.328 81.6809 107.965 82.7322 107.965 82.7322L107.95 82.7477Z" fill="#FF9D09"/>
<path d="M98.2185 83.7836C97.3769 83.5208 96.5507 82.253 96.2293 80.5832C95.9233 79.0062 96.6578 76.9035 96.9944 76.0222C97.6983 76.687 98.9683 78.1094 99.259 79.5782C99.6568 81.6036 99.1825 83.4435 98.2185 83.7991V83.7836Z" fill="#FF9D09"/>
<path d="M115.754 64.365C115.754 64.365 115.019 67.6118 113.52 68.7714C112.831 69.297 112.112 69.6062 111.469 69.699C111.01 69.6372 110.628 69.4052 110.413 69.0187C109.847 67.9828 110.597 66.2048 112.081 65.0453C112.785 64.4887 113.795 64.3186 114.667 64.2722C115.31 64.2722 115.738 64.365 115.738 64.365H115.754Z" fill="#FF9D09"/>
<path d="M107.981 68.9259C107.766 69.2815 107.43 69.4671 107.017 69.5444C106.343 69.4516 105.594 69.1115 104.89 68.5085C103.436 67.2716 102.809 63.9939 102.809 63.9939C102.809 63.9939 103.023 63.963 103.36 63.9475C103.405 63.9475 103.421 63.9475 103.482 63.9475C104.415 63.9939 105.655 64.1794 106.466 64.8597C107.919 66.0966 108.608 67.9055 107.996 68.9105L107.981 68.9259Z" fill="#FF9D09"/>
<path d="M112.081 47.2804C111.561 48.7182 110.689 49.7541 109.878 49.986C109.878 49.986 109.771 49.9551 109.74 49.9242C108.776 49.4449 108.562 47.4659 109.251 45.5333C109.74 44.1573 111.163 43.0441 111.974 42.5029C112.173 43.3842 112.648 45.7188 112.097 47.2804H112.081Z" fill="#FF9D09"/>
<path d="M107.705 50.821C107.491 51.4086 106.94 51.7642 106.221 51.8415C105.716 51.8105 105.18 51.6559 104.63 51.3776C102.977 50.5582 101.768 47.5124 101.768 47.5124C101.768 47.5124 102.962 47.0331 104.247 46.9558C104.676 46.9713 105.089 47.064 105.456 47.265C107.108 48.0845 108.118 49.6769 107.705 50.8056V50.821Z" fill="#FF9D09"/>
<path d="M114.147 58.196C113.443 59.2164 112.556 59.8657 111.806 60.0204C111.607 59.974 111.439 59.8812 111.286 59.7421C110.475 58.969 110.75 57.0055 111.867 55.3666C112.663 54.2225 114.269 53.6195 115.172 53.3567C115.172 54.037 115.141 56.7581 114.162 58.1805L114.147 58.196Z" fill="#FF9D09"/>
<path d="M108.271 59.6801C108.042 60.1439 107.598 60.4222 107.032 60.4995C106.451 60.4376 105.793 60.1903 105.165 59.7728C103.589 58.7524 102.656 55.5829 102.656 55.5829C102.656 55.5829 103.39 55.3819 104.339 55.3201H104.385C105.073 55.351 105.777 55.4901 106.343 55.8612C107.919 56.8971 108.776 58.5978 108.271 59.6801Z" fill="#FF9D09"/>
<path d="M108.241 37.2154C107.965 38.6533 107.277 39.751 106.558 40.0293C105.731 39.7046 105.333 38.1121 105.655 36.3651C105.9 35.1127 106.94 33.9068 107.567 33.2883C107.889 34.0923 108.501 35.8703 108.241 37.2309V37.2154Z" fill="#FF9D09"/>
<path d="M105.364 42.4566C105.226 43.1832 104.507 43.6625 103.574 43.7553C103.36 43.7398 103.115 43.6934 102.885 43.6316C101.355 43.2296 99.9016 40.8332 99.9016 40.8332C99.9016 40.8332 101.325 39.9055 102.686 39.7664C102.778 39.7664 102.87 39.7973 102.962 39.8282C104.492 40.2302 105.578 41.4207 105.364 42.472V42.4566Z" fill="#FF9D09"/>
<path d="M103.329 30.1962C103.268 31.5413 102.748 32.639 102.12 32.9173C101.478 32.6081 101.034 31.4021 101.126 29.9797C101.187 28.882 101.921 27.707 102.38 27.0576C102.763 27.7534 103.39 29.0675 103.329 30.1962Z" fill="#FF9D09"/>
<path d="M101.814 35.5302C101.784 36.3342 100.942 36.9371 99.8557 37.0299C98.5092 36.8753 97.0403 35.1128 97.0403 35.1128C97.0403 35.1128 98.3868 33.8604 99.6415 33.6594C100.896 33.8295 101.86 34.6335 101.814 35.5147V35.5302Z" fill="#FF9D09"/>
<path d="M99.1365 30.6754C98.9682 30.9846 98.6928 31.1856 98.3256 31.232C97.8818 31.1702 97.3922 30.9692 96.9331 30.6445C95.755 29.8251 95.1123 27.3822 95.1123 27.3822C95.1123 27.3822 95.5407 27.2895 96.1375 27.2585C96.6883 27.2895 97.3004 27.3977 97.7441 27.7224C98.907 28.5573 99.5344 29.8714 99.1212 30.6754H99.1365Z" fill="#FF9D09"/>
<path d="M50.0655 77.4907C49.6523 78.6812 47.9845 78.944 46.3167 78.0627C46.2554 78.0318 46.1942 78.0009 46.133 77.9545C44.5723 76.965 43.4553 74.012 43.4553 74.012C43.4553 74.012 45.8576 73.007 47.5254 73.6409C47.6173 73.6718 47.7244 73.7182 47.8162 73.7646C49.4687 74.6304 50.4786 76.3002 50.0655 77.4907Z" fill="#E78B00"/>
<path d="M55.727 74.7852C54.6865 76.5941 53.1411 77.4445 52.2842 76.7024C52.2689 76.6869 52.2383 76.656 52.223 76.6405C51.4426 75.8211 51.611 73.8266 52.6361 72.0795C53.3706 70.7963 54.9772 70.0387 55.8494 69.6985C56.2166 69.5594 56.4614 69.4976 56.4614 69.4976C56.4614 69.4976 56.7828 72.9917 55.727 74.8007V74.7852Z" fill="#E78B00"/>
<path d="M54.9311 84.4022C54.7016 85.6545 53.0797 86.273 51.3353 85.7782C51.0752 85.7009 50.8151 85.5618 50.555 85.3917C49.132 84.464 47.9385 82.3923 47.9385 82.3923C47.9385 82.3923 50.4479 80.707 52.1922 81.2018C52.3758 81.2482 52.5441 81.31 52.7125 81.3873C54.1814 81.9903 55.1454 83.2581 54.9311 84.4022Z" fill="#E78B00"/>
<path d="M60.3479 80.1192C59.9348 82.2837 58.7872 83.7989 57.762 83.5051C57.5937 83.4587 57.4407 83.3505 57.2877 83.2114C56.5991 82.5311 56.3084 80.8613 56.645 79.0678C56.9511 77.4599 58.3282 75.9138 59.0167 75.249C59.2462 75.0171 59.3992 74.8779 59.3992 74.8779C59.3992 74.8779 60.7611 77.9701 60.3632 80.1192H60.3479Z" fill="#E78B00"/>
<path d="M46.1331 67.9824C45.6434 68.9255 44.2969 68.9564 42.9657 68.1524C42.9657 68.1524 42.9657 68.1524 42.9351 68.1524C42.7515 68.0442 42.5526 67.9051 42.369 67.7505C40.8695 66.529 40.135 63.1276 40.135 63.1276C40.135 63.1276 42.0783 62.772 43.5931 63.3596C43.9144 63.4832 44.1898 63.6224 44.45 63.8388C45.9495 65.0603 46.6992 66.9156 46.1178 67.9978L46.1331 67.9824Z" fill="#E78B00"/>
<path d="M53.7532 62.7412C53.7532 62.7412 53.1258 66.1736 51.6722 67.4723C50.3869 68.6164 48.9333 68.8947 48.1835 68.2299C48.0764 68.1526 47.9999 68.0443 47.9234 67.9207C47.3113 66.8693 47.9999 64.9676 49.4535 63.6689C50.4481 62.7876 52.1159 62.6794 53.0493 62.7103C53.4777 62.7103 53.7532 62.7412 53.7532 62.7412Z" fill="#E78B00"/>
<path d="M46.8371 47.9913C46.4239 48.2077 45.9343 48.0995 45.46 47.7439C44.8326 47.2801 44.2206 46.3679 43.8227 45.2083C43.1801 43.3375 43.8839 40.4309 44.0064 39.9052C44.0217 39.8588 44.0217 39.8279 44.0217 39.8279C44.0217 39.8279 46.6076 41.3276 47.3114 43.3684C48 45.4093 47.7858 47.4656 46.8371 47.9758V47.9913Z" fill="#E78B00"/>
<path d="M54.8088 45.4402C54.8088 45.4402 53.5847 48.6251 51.9321 49.4909C50.6621 50.1558 49.3768 50.1558 48.673 49.5837C48.4588 49.4136 48.2905 49.1817 48.1986 48.9034C47.7855 47.7129 48.7954 46.0432 50.4632 45.1773C51.5955 44.5898 53.2328 44.93 54.1355 45.2083C54.5487 45.3319 54.8088 45.4402 54.8088 45.4402Z" fill="#E78B00"/>
<path d="M45.2609 58.273C44.7713 58.7523 44.0215 58.7059 43.2412 58.1957C42.7209 57.871 42.1854 57.3454 41.7417 56.6496C40.6094 54.9335 40.7318 51.4238 40.7318 51.4238C40.7318 51.4238 41.5733 51.5784 42.5373 52.0268C43.3177 52.3824 44.1745 52.9235 44.6948 53.6966C45.8271 55.4128 46.0872 57.4691 45.2762 58.2885L45.2609 58.273Z" fill="#E78B00"/>
<path d="M53.906 53.9131C53.906 53.9131 52.9727 57.2217 51.3966 58.304C50.1113 59.1698 48.7495 59.3089 48.0151 58.6905C47.8468 58.5668 47.7244 58.3967 47.6325 58.1958C47.1123 57.0671 47.9845 55.2736 49.5605 54.2068C50.6469 53.4647 52.2994 53.6039 53.2328 53.7585C53.6459 53.8358 53.9214 53.9131 53.9214 53.9131H53.906Z" fill="#E78B00"/>
<path d="M49.9125 37.6327C49.5912 37.7255 49.2546 37.6018 48.9332 37.3235C48.3824 36.8442 47.8774 35.8547 47.6632 34.6488C47.3725 33.0872 48.1529 30.9691 48.4283 30.2888C48.4895 30.1496 48.5201 30.0569 48.5201 30.0569C48.5201 30.0569 50.5552 31.8349 50.8918 33.7366C51.2437 35.6228 50.8 37.3544 49.8972 37.6173L49.9125 37.6327Z" fill="#E78B00"/>
<path d="M56.6602 38.4363C56.6602 38.4363 55.2066 40.941 53.6765 41.3739C52.6666 41.6522 51.718 41.513 51.1212 41.0647C50.8152 40.8328 50.601 40.5235 50.5398 40.137C50.3408 39.0393 51.4119 37.7869 52.9574 37.3695C53.753 37.1531 54.7476 37.4623 55.4974 37.787C56.1859 38.0962 56.6755 38.4363 56.6755 38.4363H56.6602Z" fill="#E78B00"/>
<path d="M54.1662 30.2113C53.9061 30.2268 53.6766 30.1186 53.4623 29.8867C52.988 29.4074 52.6361 28.4333 52.5749 27.2738C52.5137 25.9905 53.2787 24.4444 53.646 23.7951C53.7684 23.6095 53.8296 23.4858 53.8296 23.4858C53.8296 23.4858 55.375 25.3566 55.4515 27.0419C55.5433 28.7271 54.9619 30.1495 54.1662 30.2113Z" fill="#E78B00"/>
<path d="M59.5369 32.438C59.5369 32.438 58.0221 34.3397 56.645 34.4479C55.9105 34.5097 55.222 34.3242 54.7477 33.9841C54.3651 33.7058 54.105 33.3192 54.0897 32.8709C54.0438 31.8968 55.0996 31.0156 56.4614 30.9073C56.798 30.8764 57.1805 30.9692 57.5325 31.1083C58.5883 31.5258 59.5369 32.438 59.5369 32.438Z" fill="#E78B00"/>
<path d="M61.4649 24.3359C61.4649 24.3359 60.8222 26.887 59.644 27.7528C58.6341 28.4949 57.5172 28.6186 56.9816 28.062C56.9051 27.9847 56.8439 27.8919 56.7827 27.7837C56.3696 26.9488 56.9969 25.5573 58.1598 24.6915C58.8943 24.1349 60.0265 24.1504 60.761 24.2122C61.1741 24.2586 61.4649 24.3205 61.4649 24.3205V24.3359Z" fill="#E78B00"/>
<path d="M49.4228 77.1819C49.0556 78.2641 47.6326 78.5734 46.133 77.9704C44.5723 76.9809 43.4553 74.0278 43.4553 74.0278C43.4553 74.0278 45.8576 73.0229 47.5254 73.6568C48.9638 74.5535 49.8053 76.0842 49.4228 77.1973V77.1819Z" fill="#FF9D09"/>
<path d="M55.0841 74.461C54.2425 75.9144 53.0796 76.7492 52.2228 76.6256C51.4424 75.8061 51.6107 73.8117 52.6359 72.0646C53.3704 70.7813 54.977 70.0237 55.8491 69.6836C55.8798 70.7349 55.8797 73.085 55.0994 74.461H55.0841Z" fill="#FF9D09"/>
<path d="M54.2885 84.0775C54.059 85.3299 52.437 85.9483 50.6927 85.4535C50.6468 85.4381 50.6009 85.4226 50.555 85.3917C49.132 84.464 47.9385 82.3923 47.9385 82.3923C47.9385 82.3923 50.4479 80.707 52.1922 81.2018C52.3758 81.2482 52.5441 81.31 52.7125 81.3873C53.8141 82.0521 54.4721 83.1189 54.2885 84.0775Z" fill="#FF9D09"/>
<path d="M59.7053 79.7948C59.3227 81.8356 58.267 83.3044 57.2877 83.2117C56.5991 82.5314 56.3084 80.8616 56.645 79.0681C56.9511 77.4602 58.3282 75.9141 59.0167 75.2493C59.3992 76.2697 59.996 78.2796 59.7053 79.8102V79.7948Z" fill="#FF9D09"/>
<path d="M45.4904 67.6732C45.0772 68.4617 44.052 68.6163 42.9504 68.1524C42.9504 68.1524 42.9504 68.1524 42.9198 68.1524C42.7361 68.0442 42.5372 67.9051 42.3536 67.7505C40.8541 66.529 40.1196 63.1276 40.1196 63.1276C40.1196 63.1276 42.0629 62.772 43.5777 63.3596C43.6542 63.4059 43.7307 63.4523 43.7919 63.5142C45.2914 64.7356 46.0412 66.5909 45.4751 67.6886L45.4904 67.6732Z" fill="#FF9D09"/>
<path d="M53.049 62.6949C52.8654 63.5453 52.2381 66.0654 51.0293 67.1322C50.05 67.998 48.9789 68.3691 48.1833 68.2145C48.0762 68.1372 47.9996 68.029 47.9231 67.9053C47.3111 66.8539 47.9996 64.9522 49.4533 63.6535C50.4478 62.7722 52.1157 62.664 53.049 62.6949Z" fill="#FF9D09"/>
<path d="M46.1942 47.6669C45.9647 47.7906 45.7045 47.8061 45.4597 47.7442C44.8324 47.2804 44.2203 46.3682 43.8225 45.2086C43.1798 43.3378 43.8837 40.4312 44.0061 39.9055C44.8171 40.493 46.1942 41.6371 46.6685 43.0441C47.3724 45.0849 47.1582 47.1567 46.1942 47.6515V47.6669Z" fill="#FF9D09"/>
<path d="M54.1202 45.2083C53.906 45.734 52.7737 48.3933 51.2895 49.1663C50.3408 49.6611 49.3921 49.7848 48.673 49.5683C48.4588 49.3983 48.2905 49.1663 48.1986 48.888C47.7855 47.6976 48.7954 46.0278 50.4632 45.162C51.5955 44.5744 53.2327 44.9146 54.1355 45.1929L54.1202 45.2083Z" fill="#FF9D09"/>
<path d="M44.6183 57.9483C44.2664 58.3039 43.7767 58.3658 43.2412 58.1957C42.7209 57.871 42.1854 57.3454 41.7417 56.6496C40.6094 54.9335 40.7318 51.4238 40.7318 51.4238C40.7318 51.4238 41.5733 51.5784 42.5373 52.0268C43.1188 52.3515 43.6696 52.7999 44.0521 53.3719C45.1844 55.0881 45.4599 57.1444 44.6336 57.9638L44.6183 57.9483Z" fill="#FF9D09"/>
<path d="M53.2175 53.7738C53.0033 54.4696 52.1158 57.067 50.754 57.9947C49.79 58.6595 48.7801 58.8914 48.0151 58.7059C47.8468 58.5822 47.7244 58.4121 47.6325 58.2111C47.1123 57.0825 47.9845 55.289 49.5605 54.2222C50.6469 53.4801 52.2994 53.6192 53.2328 53.7738H53.2175Z" fill="#FF9D09"/>
<path d="M49.2696 37.3079C49.1625 37.3388 49.0401 37.3543 48.933 37.3079C48.3821 36.8286 47.8772 35.8391 47.663 34.6332C47.3723 33.0716 48.1526 30.9535 48.428 30.2732C49.0554 30.938 50.0347 32.1594 50.2642 33.4118C50.6161 35.298 50.1724 37.0451 49.2696 37.2925V37.3079Z" fill="#FF9D09"/>
<path d="M56.0327 38.1117C56.0327 38.1117 54.5791 40.6164 53.049 41.0338C52.3604 41.2194 51.6872 41.2194 51.1363 41.0493C50.8303 40.8174 50.6161 40.5082 50.5549 40.1216C50.356 39.0239 51.4271 37.7716 52.9725 37.3541C53.7681 37.1377 54.7627 37.4469 55.5125 37.7716C55.8491 37.9726 56.048 38.1117 56.048 38.1117H56.0327Z" fill="#FF9D09"/>
<path d="M53.5234 29.8868H53.4468C52.9725 29.4075 52.6206 28.4334 52.5594 27.2739C52.4982 25.9906 53.2632 24.4445 53.6305 23.7952C54.1048 24.4909 54.7475 25.635 54.7934 26.7173C54.8852 28.4025 54.319 29.8095 53.5234 29.8713V29.8868Z" fill="#FF9D09"/>
<path d="M58.8941 32.1287C58.8941 32.1287 57.3793 34.0304 56.0175 34.1386C55.5585 34.1695 55.13 34.1231 54.7628 33.9994C54.3803 33.7211 54.1201 33.3346 54.1048 32.8862C54.0589 31.9122 55.1147 31.0309 56.4765 30.9227C56.8132 30.8918 57.1957 30.9845 57.5476 31.1237C58.3127 31.5721 58.9094 32.1441 58.9094 32.1441L58.8941 32.1287Z" fill="#FF9D09"/>
<path d="M60.761 24.2282C60.5774 24.8466 59.9806 26.7174 59.0014 27.4286C58.2975 27.9388 57.5478 28.1553 56.9816 28.0625C56.9051 27.9852 56.8439 27.8924 56.7827 27.7842C56.3696 26.9493 56.9969 25.5578 58.1598 24.692C58.8943 24.1354 60.0265 24.1509 60.761 24.2127V24.2282Z" fill="#FF9D09"/>
<g style="mix-blend-mode:color-burn" opacity="0.2">
<path d="M121.017 56.0927C121.017 79.8407 101.891 99.1668 78.388 99.1668C77.2251 99.1668 76.0775 99.1205 74.9299 99.0277C58.9095 97.729 45.3679 87.4474 39.2474 73.177C102.503 88.0968 98.8457 29.4225 97.7134 19.0173C97.7134 19.0173 98.0194 18.0742 97.9888 17.8423C105.747 21.8003 111.714 27.8764 115.876 35.576C119.166 41.6831 121.032 48.6714 121.032 56.0927H121.017Z" fill="#A6A6A6"/>
</g>
<g style="mix-blend-mode:color-burn" opacity="0.2">
<path d="M121.017 56.0926C121.017 79.8406 101.891 99.1668 78.3879 99.1668C77.225 99.1668 76.0774 99.1204 74.9298 99.0276C103.849 88.9007 112.617 57.7778 115.264 40.1987L117.207 38.3125C119.594 43.7857 121.017 48.6713 121.017 56.108V56.0926Z" fill="#767676"/>
</g>
<path style="mix-blend-mode:soft-light" opacity="0.8" d="M110.995 88.3905C108.577 90.9107 105.869 93.1371 102.916 95.0233L102.411 92.9824L102.136 91.8383L103.91 89.0245L85.7326 72.2957L83.7128 74.8622L71.6402 68.2449V66.7452L38.8191 40.0133L37.5797 35.2668L34.5959 36.2717L33.8615 35.8852L27.8328 32.7002C27.8328 32.7002 27.8022 32.5456 27.6798 32.3756L26.9912 30.8913L37.9622 28.5567C38.1305 28.2784 38.3141 28.031 38.4977 27.7682L38.4518 27.3817L38.7426 27.459L39.2016 27.5672L43.3482 26.5159L43.593 31.2469V31.2778L71.6249 54.562L71.6708 56.1081L83.6975 64.0087L85.7173 62.4316L98.6621 77.135L103.803 81.866L106.695 84.5099L107.047 84.8191L107.522 85.2674H109.771L109.954 85.7622L111.01 88.4524L110.995 88.3905Z" fill="url(#paint13_linear_3161_81)"/>
<path style="mix-blend-mode:soft-light" opacity="0.8" d="M117.069 80.676C116.488 81.6191 115.861 82.5313 115.203 83.4281C115.203 83.4281 115.172 83.4744 115.157 83.5054C114.805 84.0001 114.438 84.4794 114.055 84.9432L112.816 81.681L112.77 81.5418H110.368L85.7173 58.7679L83.6975 60.0047L71.6249 50.4808V48.3008L46.9287 27.0884L46.4696 23.084L43.5624 23.2077L42.1853 23.2541C42.2771 23.1613 39.5994 20.3474 37.2889 17.9355L37.1206 16.5286L43.8684 17.2552C44.6641 18.8168 45.368 20.1464 45.5516 20.0073L46.4544 19.9454L50.3868 19.6362L50.3562 23.5015L71.6402 41.6526V44.8685L83.6975 53.6658L85.7173 52.8463L112.326 76.347L113.106 77.0736L115.386 76.9963H115.677L117.085 80.7069L117.069 80.676Z" fill="url(#paint14_linear_3161_81)"/>
<defs>
<linearGradient id="paint0_linear_3161_81" x1="0.244629" y1="121.663" x2="86.5282" y2="121.663" gradientUnits="userSpaceOnUse">
<stop stop-color="#721500"/>
<stop offset="1" stop-color="#921D00"/>
</linearGradient>
<linearGradient id="paint1_linear_3161_81" x1="73.7976" y1="82.0365" x2="17.6041" y2="158.756" gradientUnits="userSpaceOnUse">
<stop stop-color="#A51500"/>
<stop offset="1" stop-color="#DD1D00"/>
</linearGradient>
<linearGradient id="paint2_linear_3161_81" x1="45.8424" y1="82.0056" x2="45.8424" y2="176.472" gradientUnits="userSpaceOnUse">
<stop stop-color="#888888"/>
<stop offset="0.08" stop-color="#ACACAC"/>
<stop offset="0.15" stop-color="#CACACA"/>
<stop offset="0.23" stop-color="#E1E1E1"/>
<stop offset="0.31" stop-color="#F2F2F2"/>
<stop offset="0.4" stop-color="#FBFBFB"/>
<stop offset="0.52" stop-color="white"/>
<stop offset="0.6" stop-color="#F9F9F9"/>
<stop offset="0.69" stop-color="#EBEBEB"/>
<stop offset="0.79" stop-color="#D2D2D2"/>
<stop offset="0.89" stop-color="#B0B0B0"/>
<stop offset="1" stop-color="#858585"/>
</linearGradient>
<linearGradient id="paint3_linear_3161_81" x1="73.614" y1="122.992" x2="158.857" y2="122.992" gradientUnits="userSpaceOnUse">
<stop stop-color="#721500"/>
<stop offset="1" stop-color="#921D00"/>
</linearGradient>
<linearGradient id="paint4_linear_3161_81" x1="98.2641" y1="74.7079" x2="133.606" y2="160.631" gradientUnits="userSpaceOnUse">
<stop stop-color="#A51500"/>
<stop offset="1" stop-color="#DD1D00"/>
</linearGradient>
<linearGradient id="paint5_linear_3161_81" x1="116.473" y1="82.392" x2="116.473" y2="173.766" gradientUnits="userSpaceOnUse">
<stop stop-color="#888888"/>
<stop offset="0.08" stop-color="#ACACAC"/>
<stop offset="0.15" stop-color="#CACACA"/>
<stop offset="0.23" stop-color="#E1E1E1"/>
<stop offset="0.31" stop-color="#F2F2F2"/>
<stop offset="0.4" stop-color="#FBFBFB"/>
<stop offset="0.52" stop-color="white"/>
<stop offset="0.6" stop-color="#F9F9F9"/>
<stop offset="0.69" stop-color="#EBEBEB"/>
<stop offset="0.79" stop-color="#D2D2D2"/>
<stop offset="0.89" stop-color="#B0B0B0"/>
<stop offset="1" stop-color="#858585"/>
</linearGradient>
<linearGradient id="paint6_linear_3161_81" x1="19.8455" y1="56.3094" x2="130.014" y2="56.3094" gradientUnits="userSpaceOnUse">
<stop stop-color="#FFD945"/>
<stop offset="1" stop-color="#FF9D09"/>
</linearGradient>
<radialGradient id="paint7_radial_3161_81" cx="0" cy="0" r="1" gradientUnits="userSpaceOnUse" gradientTransform="translate(76.6742 52.7689) scale(72.5125 73.2694)">
<stop stop-color="#FFDA45"/>
<stop offset="1" stop-color="#FF9D09"/>
</radialGradient>
<linearGradient id="paint8_linear_3161_81" x1="29.6537" y1="55.5054" x2="119.839" y2="55.5054" gradientUnits="userSpaceOnUse">
<stop stop-color="#FFD945"/>
<stop offset="1" stop-color="#FF9D09"/>
</linearGradient>
<linearGradient id="paint9_linear_3161_81" x1="32.6986" y1="56.0927" x2="124.062" y2="56.0927" gradientUnits="userSpaceOnUse">
<stop stop-color="#FF9D09"/>
<stop offset="1" stop-color="#FFE373"/>
</linearGradient>
<radialGradient id="paint10_radial_3161_81" cx="0" cy="0" r="1" gradientUnits="userSpaceOnUse" gradientTransform="translate(78.3726 56.0778) scale(42.6292 43.0742)">
<stop stop-color="#FFDF10"/>
<stop offset="1" stop-color="#FFC441"/>
</radialGradient>
<linearGradient id="paint11_linear_3161_81" x1="45.3679" y1="83.1808" x2="111.582" y2="29.9569" gradientUnits="userSpaceOnUse">
<stop stop-color="white"/>
<stop offset="0.43" stop-color="white"/>
<stop offset="0.5" stop-color="white"/>
<stop offset="0.55" stop-color="white"/>
<stop offset="1" stop-color="white"/>
</linearGradient>
<linearGradient id="paint12_linear_3161_81" x1="82.5039" y1="13.2039" x2="74.0695" y2="99.1035" gradientUnits="userSpaceOnUse">
<stop stop-color="white"/>
<stop offset="0.5" stop-color="white"/>
<stop offset="0.55" stop-color="white"/>
<stop offset="1" stop-color="white"/>
</linearGradient>
<linearGradient id="paint13_linear_3161_81" x1="105.027" y1="91.591" x2="36.8427" y2="30.6217" gradientUnits="userSpaceOnUse">
<stop stop-color="white"/>
<stop offset="1" stop-color="white"/>
</linearGradient>
<linearGradient id="paint14_linear_3161_81" x1="103.742" y1="74.4298" x2="55.0428" y2="27.6866" gradientUnits="userSpaceOnUse">
<stop stop-color="white"/>
<stop offset="1" stop-color="white"/>
</linearGradient>
</defs>
</svg>
