<svg width="149" height="170" viewBox="0 0 149 170" fill="none" xmlns="http://www.w3.org/2000/svg">
<path d="M81.1516 77.9339V77.9484L80.8809 78.6002L77.7753 86.0885L75.6669 91.1435V91.158L74.9261 92.954L73.4018 96.5895L72.1055 99.7036L69.1423 106.699L43.3857 167.345L43.1436 167.895L43.0296 168.156H43.0153L42.531 168.301L40.7075 168.793L28.0144 143.982L28.0002 143.967L21.7177 145.459L18.4839 146.212L16.4468 146.69L8.42631 148.573L3.15533 149.833H3.14109H3.12684L0.833252 150.485L29.9376 85.1181L37.26 68.6641L41.2773 59.626H41.2916L42.588 60.2198L42.9726 60.3936L47.0042 62.2621L52.8877 64.9561L54.4975 65.7093L56.7341 66.7232L69.7691 72.7196L71.9915 73.7335H72.0057L73.3591 74.3564H73.3733L74.6555 74.9502L74.6697 74.9647H74.684L77.1485 76.0944H77.1627L79.2569 77.0504L81.1516 77.9339Z" fill="#003D14"/>
<path d="M83.4735 77.2823L83.0461 78.2672L82.6899 79.0494L82.2056 80.1212V80.1357L78.6583 88.0875V88.102L76.4787 92.9831V93.0121L75.7095 94.7502L74.8262 96.7056L71.3075 104.614L43.3855 167.345L43.1433 167.895L43.0151 168.141L40.8213 163.391L37.0461 156.192L36.1059 154.381L34.5816 151.485V151.47L30.322 143.316L28.0142 143.982L21.5466 145.807L18.3412 146.517L16.3326 146.951L8.36911 148.689L7.41464 148.906L3.14087 149.833H3.15512L31.8036 85.4804H31.8179L38.2285 71.0541L42.9724 60.3938L43.5992 58.9744L47.645 60.8428L53.5143 63.5369L55.1241 64.2756L57.375 65.3039L70.3957 71.2859L72.6323 72.3288L73.9857 72.9371H73.9999L76.5215 74.1103H76.5357L79.0002 75.2401H79.0145L79.8692 75.6311L80.3394 75.8484L82.3908 76.7899L83.217 77.1665L83.4735 77.2823Z" fill="url(#paint0_linear_3161_305)"/>
<path d="M53.5143 63.5371L52.8875 64.9565L16.4465 146.691L16.418 146.748L16.3325 146.951L8.3833 148.704V148.675L8.42604 148.588L47.0039 62.2625L47.645 60.843L53.5143 63.5371Z" fill="white"/>
<path d="M79.8695 75.6457L40.8215 163.391L37.0464 156.192L74.0002 72.9517L79.8695 75.6457Z" fill="white"/>
<path d="M72.6326 72.3287L36.1061 154.396L34.5818 151.485L70.396 71.3003L72.6326 72.3287Z" fill="white"/>
<path d="M57.375 65.304L56.734 66.7235L21.7033 145.459V145.474L21.5466 145.821L18.3413 146.517L18.4553 146.27L18.4695 146.212L54.4974 65.6951L55.1242 64.2756L57.375 65.304Z" fill="white"/>
<g style="mix-blend-mode:multiply" opacity="0.5">
<path d="M83.4453 76.2975L83.2174 77.1665L82.9609 78.0935L82.6903 79.0495L82.2059 80.1213V80.1358L78.6587 88.0876V88.102L76.4791 92.9832V93.0122L75.7098 94.7503L74.8265 96.7056L71.322 104.599L71.3078 104.614L43.3858 167.345L43.1437 167.895L43.0297 168.156H43.0155L42.5311 168.301L40.7076 168.793L28.0145 143.982L21.5469 145.807L18.3416 146.517L16.3329 146.951L8.36944 148.689L7.41497 148.906L3.12695 149.92V148.849L31.3766 85.3935L42.5881 60.2201L43.571 57.9895L77.6045 73.6179L79.8126 74.6318L80.0833 74.7477L81.8498 75.5733L83.4453 76.2975Z" fill="#BABABA"/>
</g>
<path d="M148.506 147.835L148.064 150.311L120.313 142.432L108.546 169.459L81.9064 108.829L75.7094 94.7501L74.9259 92.9541L74.8689 92.8382L73.5583 89.84L70.0538 81.8593L69.2276 79.9908L69.1421 79.7735L69.37 79.6577L70.41 79.1797H70.4242L71.4357 78.7162L74.0284 77.5285L77.1483 76.0946H77.1625L79.0002 75.24H79.0145L79.8977 74.8344L80.0829 74.7475L81.2511 74.2116L83.5019 73.1833L96.5227 67.2013L98.7735 66.1729L100.383 65.4342L106.253 62.7402L109.016 61.4656L113.931 72.2273L117.193 79.3535L117.279 79.5273L118.575 82.3952L148.506 147.835Z" fill="#003D14"/>
<path d="M148.506 147.835L142.936 146.256H142.922L134.844 143.967L132.608 143.33L129.53 142.461L120.755 139.97L116.666 148.805L115.299 151.774L114.473 153.585L112.093 158.683L110.854 161.363L110.84 161.377L108.632 166.142L87.1774 117.316L82.7612 107.264L78.1313 96.7634L76.4788 93.012V92.9975L75.6667 91.1581V91.1436L75.624 91.0422V91.0277L74.3276 88.1019L70.8231 80.1211V80.1067L70.41 79.1797L69.9969 78.2527V78.2382L69.5837 77.2967H69.598L70.6379 76.8188L70.6522 76.8043L72.7036 75.8773L73.2022 75.6455L74.6695 74.9648H74.6838L76.5215 74.1102H76.5357L77.6042 73.6178L79.0715 72.937L80.4249 72.3287L82.6757 71.2858L95.6965 65.3039L97.9331 64.29V64.2755L99.5571 63.5368L105.412 60.8572L109.458 58.9888H109.472L115.028 71.59L115.384 72.4301L148.506 147.835Z" fill="url(#paint1_linear_3161_305)"/>
<path d="M142.936 146.256H142.922L134.844 143.968L108.888 84.8143L100.383 65.4345L99.5571 63.5371L105.412 60.843V60.8575L106.253 62.7404L115.327 83.4238L142.936 146.256Z" fill="white"/>
<path d="M114.458 153.584L112.094 158.683L110.854 161.362L85.1403 102.847L78.6584 88.0872L77.7752 86.0884L77.761 86.0015L76.5216 83.1915L74.0285 77.5282L73.2023 75.6453L74.6696 74.9646H74.6838L76.5216 74.11H76.5358L77.6043 73.6175L79.0716 72.9368L79.8124 74.6314L79.8978 74.8342L80.3395 75.8481L82.2057 80.1209L93.5881 106.033L114.458 153.584Z" fill="white"/>
<path d="M116.666 148.805L115.299 151.775L95.2263 106.034L83.046 78.2675L82.9606 78.0937L82.3907 76.7901L81.8494 75.5734L81.2511 74.2119L80.4248 72.329L82.6757 71.2861L83.5019 73.1836L96.6366 103.137L116.666 148.805Z" fill="white"/>
<path d="M132.622 143.316L129.531 142.461L109.088 95.8656L96.5228 67.2014L95.6965 65.304L97.9331 64.2756V64.2901L98.7737 66.1731L108.147 87.5517L132.622 143.316Z" fill="white"/>
<path style="mix-blend-mode:multiply" opacity="0.5" d="M148.506 147.835L142.936 146.256H142.922L134.844 143.967L132.607 143.33L129.53 142.461L123.077 140.636L120.755 139.97L116.666 148.805L115.299 151.774L114.458 153.585L112.093 158.683L110.854 161.363L110.84 161.377L108.632 166.142L108.617 166.157L87.1773 117.316L82.7611 107.264L78.1312 96.7634L76.4787 92.9831L75.6666 91.1581V91.1436L75.6239 91.0422V91.0277L74.3418 88.0874L70.823 80.1067L70.4242 79.1797L69.9968 78.2382L69.5979 77.2967L70.6378 76.8188L70.6521 76.8043L72.7035 75.8773L73.2021 75.6455L74.6694 74.9648H74.6837L76.5214 74.1102H76.5356L77.6041 73.6178L79.0714 72.937L80.4248 72.3287L82.6756 71.2858L95.6964 65.3039L97.933 64.29V64.2755L99.557 63.5368L105.412 60.8572V60.8427L109.458 58.9888L115.014 71.6045L148.506 147.835Z" fill="url(#paint2_linear_3161_305)"/>
<path opacity="0.2" d="M118.604 82.3808L118.575 82.3953L116.795 83.1195L115.327 83.4237L108.888 84.8141L107.834 85.0314L108.147 87.5516L109.187 95.8221L109.088 95.8655L107.392 96.5463L98.0614 95.5324L96.6368 103.137L96.1667 105.657L95.2264 106.033L94.3574 106.381L93.5881 106.033L85.4253 102.311L85.1403 102.847L82.7613 107.265L81.9065 108.829L75.7096 94.7503L74.8263 96.7056L71.3218 104.599L71.3076 104.614L69.1422 106.7L68.9285 106.902L64.5693 111.074L63.9994 111.306L62.76 111.813L59.3838 105.845L58.4435 104.194L57.3181 102.181L56.4064 102.63L49.084 106.12L47.2747 106.845L45.0097 95.88L43.6848 96.0538L40.7501 96.4304L38.7557 96.6911H38.7415L34.2825 97.2705L34.0688 97.285L34.8808 89.3767L35.18 86.5522L35.237 86.1322L31.818 85.4804H31.8037L31.3763 85.3935L29.9375 85.1183L37.2599 68.6643L41.2772 59.6262H41.2915L42.5879 60.2201L43.5708 57.9895L77.6043 73.6179L79.0716 72.9371L80.4249 72.3288L82.6758 71.2859L95.6965 65.304L97.9332 64.2756L99.5572 63.5369L105.412 60.8429L109.458 58.9889H109.472L115.028 71.5901L115.014 71.6046L114.159 72.0971L113.931 72.2274L113.903 72.2419L114.017 72.5316L117.194 79.3536L117.279 79.5274L118.604 82.3808Z" fill="black"/>
<path d="M113.276 68.3601L118.604 76.0946L116.795 76.8188L107.834 78.7452L107.563 78.8032L105.996 79.1363L106.295 80.1357L106.367 80.3385L109.202 89.5359L108.888 89.6663L107.392 90.2601L103.802 89.869L98.0612 89.2462L96.6651 89.1014L96.423 89.0724V89.2752L96.309 93.7798L96.1665 99.3562L94.3573 100.08L85.4251 96.0103L84.2997 95.5034L80.781 104.614L78.986 105.338L71.336 98.3133L70.7946 97.8208L64.5692 104.773L62.7599 105.497L57.318 95.8944L57.261 95.7786L49.0839 99.8341L47.2746 100.558L45.0096 89.5794L34.2824 90.9698L34.0687 90.9988L35.1941 80.2516L35.2369 79.846L24.3957 77.7603L24.524 77.4706L28.8975 67.5055L28.7265 67.4186L19.2387 62.1174L26.6324 53.789L26.3902 53.5283L19.082 45.62L19.3242 45.4607L28.6268 40.0291L28.4416 39.6235L23.9256 29.8902L25.7349 29.1515L31.7039 28.1087L34.724 27.5727L34.6813 27.2396L33.5986 18.5057L33.3422 16.4489L35.1371 15.7247L36.4335 15.9999L44.3115 17.6366L44.397 17.2021L44.4825 16.7241L46.3772 6.61418L48.1721 5.88997L56.4348 11.1912L57.1043 9.96002L61.7485 1.35643L63.5435 0.64671L69.9399 8.88819L71.2077 7.67152L77.9603 1.19711L79.7695 0.4729L83.388 10.6987L83.4735 10.9305L83.7726 10.8001L85.2399 10.1338L87.3911 9.17787L93.3459 6.51279L95.3973 15.6668L95.7249 17.1152L97.3205 16.9124L106.666 15.7102L105.74 24.5021L105.498 26.8485L107.962 27.3265L116.339 28.9487L113.005 36.5239L111.837 39.189L114.401 40.623L121.496 44.5916L116.054 50.7039L114.102 52.9055L116.054 55.0202L121.652 61.089L114.273 65.4053L112.108 66.6654L113.276 68.3601Z" fill="#A3472B"/>
<g style="mix-blend-mode:soft-light">
<path d="M44.4398 78.4991L37.1316 89.2753L34.2682 90.97L34.0545 90.999L35.1799 80.2662L38.4992 78.3688L27.3874 76.2396L24.5098 77.4853L28.8833 67.5202L28.7123 67.4333L31.8037 66.4339L22.4584 61.0313L19.196 62.1321L26.5897 53.8182L26.3475 53.5574L29.5528 52.6594L30.2081 49.7047L22.1734 44.6931L19.2958 45.4898L28.5983 40.0437L28.4131 39.6382L31.0059 38.8416C31.0059 38.8416 36.3481 48.4445 36.0632 48.8211C35.7783 49.1977 44.397 78.5281 44.397 78.5281L44.4398 78.4991Z" fill="white"/>
</g>
<path d="M107.805 78.47L107.834 78.7452L108.261 82.12L109.201 89.5359L108.703 89.478L102.777 88.8262L98.2321 88.3337L98.0612 89.2462L97.064 94.5474L96.1665 99.3562L86.0946 94.7792L85.4251 96.0103L80.7809 104.614L72.6038 97.0966L71.3359 98.3133L64.5691 104.773L59.0702 95.0544L57.3179 95.8944L49.0838 99.8341L46.8187 88.8552L35.8636 90.2746L35.8921 90.0139L37.0175 79.2087L37.0318 79.1218L26.2049 77.0216L26.3616 76.674L30.6354 66.9406L30.7066 66.7813L30.5499 66.6944L21.1619 61.4656L21.0337 61.3932L28.2278 53.2821L28.4273 53.0648L28.3418 52.9779L28.2278 52.8476L20.9767 45.0116L20.877 44.8958L30.0798 39.5077L30.4359 39.2904L30.322 39.0442L30.2507 38.9138L26.5326 30.8606L26.3901 30.5565L25.7348 29.1515L31.5186 27.9204L34.6812 27.2396L35.9491 26.9644L36.5189 26.834L36.4477 26.2257L36.405 25.8636L35.7639 20.7073L35.308 17.0428L35.1371 15.7247L36.291 15.8551L41.4338 16.4055L43.8698 16.6662L44.4824 16.7241L45.6363 16.8545L46.1064 16.9124L46.1919 16.4634L48.1721 5.88997L57.1043 9.96002L58.2439 10.4814L63.5434 0.64671L71.2077 7.67152L71.7348 8.1495L79.7695 0.4729L85.2399 10.1338L85.2684 10.1918L87.391 9.17787L95.2405 5.42648L97.5198 16.391L108.475 14.986L107.307 26.1388L118.119 28.2245L113.689 38.3489L113.632 38.4648L113.746 38.5372L123.305 43.8674L116.096 51.964L115.897 52.1813L116.111 52.3986L123.462 60.3504L114.159 65.8109L113.888 65.9557L114.017 66.2309L118.604 76.0946L107.862 78.3976H107.848L107.805 78.4121V78.47Z" fill="url(#paint3_linear_3161_305)"/>
<path d="M112.179 52.9056C112.179 60.0173 110.697 66.5931 108.019 72.3578C107.805 72.8358 107.577 73.2848 107.335 73.7483C107.065 74.2842 106.78 74.8056 106.48 75.3126C106.452 75.356 106.438 75.3995 106.395 75.443C106.153 75.892 105.882 76.3265 105.611 76.761C105.355 77.181 105.084 77.5866 104.799 78.0066C104.215 78.8757 103.603 79.7303 102.933 80.5269C102.691 80.8455 102.435 81.1497 102.178 81.4539C100.312 83.6555 98.2179 85.6398 95.91 87.3634C95.6109 87.5952 95.3117 87.7979 95.0125 88.0297C88.5022 92.6212 80.4817 95.2573 71.5353 95.2573C67.3043 95.2573 63.1872 94.6634 59.2981 93.5337C59.2268 93.5047 59.1556 93.4902 59.0844 93.4612C45.9212 89.6374 35.2083 79.8606 30.6211 66.9408C30.5926 66.8539 30.5499 66.767 30.5356 66.6945C29.0825 62.5231 28.2705 58.0185 28.2278 53.2967C28.2278 53.1519 28.2278 53.007 28.2278 52.8622V52.7753C28.2278 48.1548 28.8689 43.6937 30.094 39.5223C30.1367 39.334 30.208 39.1312 30.2649 38.9284C30.7208 37.4221 31.2479 35.9737 31.8462 34.5542C31.946 34.3225 32.0314 34.0907 32.1454 33.859C32.2166 33.6852 32.2879 33.5113 32.3733 33.3375C32.6867 32.6278 33.0287 31.9471 33.3848 31.2518C34.1541 29.76 35.0231 28.326 35.9633 26.979C36.12 26.7183 36.291 26.4865 36.4619 26.2403C36.4619 26.2403 36.4904 26.2113 36.4904 26.1969C36.5474 26.1099 36.6186 26.023 36.6898 25.9506C37.3736 24.9802 38.1144 24.0532 38.8837 23.1552C39.2114 22.7786 39.539 22.402 39.8667 22.0399C40.0376 21.8661 40.1801 21.7068 40.3225 21.5619C40.8069 21.0405 41.3198 20.548 41.8469 20.0556C42.2173 19.6935 42.6161 19.3314 43.0008 18.9982C43.8413 18.2595 44.696 17.5643 45.5935 16.9125C45.5935 16.9125 45.622 16.8835 45.6363 16.8835C45.8215 16.7532 45.9924 16.6228 46.1919 16.4925C50.7648 13.2335 56.0215 10.945 61.8196 9.84425V9.8008C61.8196 9.8008 69.2417 8.64206 76.0512 9.69941C78.3876 10.0615 80.6527 10.6843 82.5331 11.7127C83.2169 12.0893 83.8438 12.0314 84.3566 11.8286C91.4653 14.5226 97.6908 19.1431 102.435 25.0381C102.463 25.0671 102.477 25.0961 102.52 25.125C102.705 25.3423 102.862 25.5595 103.033 25.7768C103.033 25.7768 103.061 25.8058 103.061 25.8203C105.569 29.1082 107.634 32.7582 109.173 36.6979C111.11 41.7383 112.179 47.1989 112.179 52.9491V52.9056Z" fill="#A3472B"/>
<path d="M116.097 51.9642C116.097 51.5442 116.097 51.1241 116.054 50.7041C115.912 47.2134 115.342 43.8386 114.401 40.6231C114.202 39.9134 113.988 39.2182 113.746 38.5374C113.746 38.4795 113.718 38.407 113.689 38.3491C113.475 37.7408 113.248 37.1324 113.005 36.5241C111.695 33.2362 109.999 30.1511 107.962 27.3267C107.264 26.3562 106.523 25.4148 105.74 24.5023C103.29 21.6054 100.455 19.0562 97.3206 16.9126C96.6938 16.478 96.0527 16.058 95.3974 15.6669C91.836 13.4798 87.9326 11.8286 83.7728 10.8003C83.6446 10.7568 83.5164 10.7278 83.3882 10.6989C83.1602 10.6409 82.9323 10.5975 82.7043 10.5395C80.2968 10.076 78.0744 9.78637 76.0515 9.65601C69.4129 9.207 64.9967 10.2643 63.3299 10.7423V10.8147C57.4749 12.2921 52.1042 14.9862 47.4885 18.6362C47.1751 18.8824 46.8617 19.1431 46.5625 19.4038C45.6223 20.186 44.7106 20.9971 43.8416 21.8661C43.5566 22.1413 43.286 22.4165 43.0295 22.7062C42.303 23.4594 41.6192 24.256 40.9496 25.0527C40.8072 25.2265 40.679 25.3858 40.5365 25.5596C38.8128 27.7033 37.3027 30.0207 36.0206 32.4975C35.8781 32.7582 35.7356 33.0189 35.6074 33.2941C34.3253 35.8868 33.2853 38.6243 32.5161 41.4777C32.4306 41.8543 32.3309 42.2309 32.2454 42.6074C31.4761 45.8664 31.063 49.2846 31.063 52.7898C31.063 64.015 35.2655 74.2263 42.1605 81.9029C46.7477 87.0448 52.56 91.0424 59.1131 93.4613C59.1844 93.5047 59.2556 93.5192 59.3126 93.5482C63.7858 95.1415 68.5867 96.0395 73.587 96.0395C80.7954 96.0395 87.6049 94.2 93.5597 90.97C94.5427 90.4631 95.4972 89.8982 96.4231 89.2899C96.5086 89.2319 96.5941 89.174 96.6653 89.116C97.9617 88.276 99.1868 87.3635 100.369 86.393C101.338 85.5964 102.264 84.7563 103.147 83.8438C103.418 83.6121 103.674 83.3514 103.931 83.0762C104.8 82.1926 105.597 81.2946 106.353 80.3531C106.381 80.3242 106.395 80.2952 106.41 80.2662C106.538 80.1214 106.652 79.9766 106.766 79.8317C107.036 79.5131 107.293 79.1654 107.549 78.8178C107.62 78.7019 107.706 78.6006 107.791 78.4847C107.791 78.4847 107.82 78.4412 107.834 78.4123C108.447 77.5867 109.031 76.7176 109.572 75.8341C111.039 73.4877 112.279 70.9964 113.262 68.3747C113.532 67.665 113.775 66.9698 114.003 66.2456C114.045 66.1007 114.102 65.9559 114.145 65.8255C114.188 65.6952 114.231 65.5503 114.259 65.42C115.256 62.1031 115.869 58.6269 116.04 55.0348C116.082 54.2962 116.097 53.5575 116.097 52.8043V52.4132C116.097 52.2684 116.097 52.109 116.097 51.9787V51.9642Z" fill="#E36B3C"/>
<path d="M73.5726 93.1427C51.6909 93.1427 33.8835 75.0375 33.8835 52.7898C33.8835 30.5422 51.6909 12.437 73.5726 12.437C95.4543 12.437 113.262 30.5422 113.262 52.7898C113.262 75.0375 95.4543 93.1427 73.5726 93.1427Z" fill="#BA5131"/>
<path style="mix-blend-mode:multiply" opacity="0.3" d="M73.5726 93.1427C51.6909 93.1427 33.8835 75.0375 33.8835 52.7898C33.8835 30.5422 51.6909 12.437 73.5726 12.437C95.4543 12.437 113.262 30.5422 113.262 52.7898C113.262 75.0375 95.4543 93.1427 73.5726 93.1427Z" fill="url(#paint4_linear_3161_305)"/>
<path d="M113.276 52.7899C113.276 75.0376 95.4684 93.1428 73.5724 93.1428C57.2751 93.1428 43.2429 83.1052 37.1314 68.7949C35.0373 63.8993 33.8691 58.4822 33.8691 52.7899C33.8691 30.5278 51.6765 12.4226 73.5724 12.4226C79.9831 12.4226 86.0376 13.9724 91.4083 16.7244C104.358 23.3726 113.276 37.0312 113.276 52.7754V52.7899Z" fill="url(#paint5_linear_3161_305)"/>
<path d="M87.391 51.0805C86.0804 49.7624 84.2854 48.7051 81.9776 48.0533C81.5075 47.9229 81.0089 47.8071 80.5102 47.7202V47.3291C81.6072 47.0104 82.6471 46.6194 83.5874 46.1414C84.6985 45.562 85.6815 44.8813 86.5078 44.0702C88.203 42.419 89.2002 40.2753 89.2002 37.7116C89.2002 34.5251 87.2201 31.9324 85.0404 30.4406C82.348 28.6156 78.8435 28.0217 74.0426 28.0217C69.2417 28.0217 64.4694 28.8763 61.4065 30.1074C61.378 30.4406 59.9392 31.6283 59.9249 31.9614C59.9249 32.1642 59.8964 32.3525 59.8964 32.5553C59.8964 32.7001 59.8964 32.8305 59.8964 32.9753C59.9677 35.5825 60.9791 37.7406 60.8652 40.5071C61.8054 40.6519 62.5604 41.2747 63.3439 41.8686C64.0847 42.4479 64.854 42.9839 65.78 43.0708C66.0222 43.0708 67.0336 41.2168 67.2616 41.2168L67.404 40.594L68.4155 36.1763L68.6007 35.3652C68.6719 35.1045 68.7289 34.9741 68.9283 34.8582C68.9711 34.8148 69.0138 34.7858 69.0565 34.7424C69.8971 34.163 71.1792 33.8733 72.5041 33.8733C74.356 33.8733 75.8946 34.0761 77.1055 35.4376C77.9887 36.3501 78.3164 37.7116 78.3164 38.8848C78.3164 40.7533 77.7893 42.361 76.2792 43.5632C75.3105 44.3309 73.9571 44.9537 72.0767 45.3448C70.4811 45.6924 68.5295 45.8807 66.1219 45.8952C66.1219 45.9386 66.0792 46.011 66.0222 46.0979C65.6945 46.547 64.6403 47.5174 64.6403 47.7491C64.6403 49.3714 66.0792 50.197 66.2786 51.7468C66.2786 51.8047 66.3071 51.8771 66.3071 51.9351H69.8828C70.5809 51.9351 71.2504 51.9785 71.8915 52.0654C75.9373 52.5868 78.701 54.7595 78.701 58.5688C78.701 58.6992 78.701 58.844 78.701 58.9743C78.644 59.9738 78.4019 60.9297 77.9317 61.7553C77.7323 62.1319 77.4759 62.4795 77.1767 62.7982C77.077 62.8996 76.9773 63.0009 76.8633 63.1023C76.7778 63.1748 76.6923 63.2472 76.6069 63.3196C75.396 64.29 73.5583 64.797 71.1792 64.797C70.2817 64.797 69.0708 64.5363 68.4297 64.2176C68.2303 64.0873 68.0451 63.9569 67.9739 63.6382L66.5065 57.5259C66.5065 57.5259 66.3641 57.5549 66.2928 57.5549C64.6688 57.7866 63.002 58.0618 61.4492 58.337C60.9079 58.4384 60.3808 58.5253 59.8679 58.6267C59.8964 58.9599 58.3579 60.162 58.3864 60.4952C58.7425 63.87 60.7369 66.4337 61.2071 69.8664C61.9194 70.0258 62.7029 70.1416 63.5149 70.2285C63.5149 70.2285 63.5244 70.2285 63.5434 70.2285C65.723 70.5037 68.1448 70.5762 69.8971 70.5762C71.108 70.5762 72.2619 70.5327 73.3731 70.4603C77.1767 70.214 80.3678 69.5188 82.7184 68.4325C83.5019 68.0704 84.1999 67.6504 84.784 67.2013C85.1687 66.9117 85.539 66.622 85.9094 66.3033C85.9807 66.2454 86.0377 66.2019 86.0946 66.144C86.4223 65.8543 86.7215 65.5646 87.0349 65.246C87.8184 64.4494 88.4879 63.5513 88.9866 62.5374C89.7273 61.1325 90.1547 59.4958 90.1547 57.5259C90.1547 55.2374 89.2572 52.92 87.391 51.0805Z" fill="#691C0A"/>
<path d="M86.3084 53.3542C84.7129 51.5727 82.3053 50.1822 79.0288 49.5739V49.1828C80.083 48.8786 81.0659 48.502 81.9777 48.053C83.9436 47.0826 85.5106 45.7356 86.5079 44.0699C87.2914 42.7663 87.7188 41.2599 87.7188 39.5653C87.7188 36.3788 85.7386 33.7861 83.559 32.2943C80.8807 30.4693 77.362 29.8899 72.5754 29.8899C67.7888 29.8899 62.9879 30.73 59.925 31.9611C59.925 32.1639 59.8965 32.3522 59.8965 32.555C59.8965 32.6708 59.868 32.8012 59.868 32.9171C59.7113 35.0752 59.6116 37.2768 59.5261 39.4784C59.4834 40.4488 59.4407 41.4048 59.4122 42.3607C60.4949 42.5346 61.6345 42.6794 62.7742 42.7808C63.7857 42.8967 64.8114 42.9836 65.7943 43.0705L66.5636 39.7391L67.1477 37.2334C67.2047 36.9726 67.2759 36.8423 67.4611 36.7119C67.7318 36.4947 68.0594 36.3209 68.4298 36.176C69.1849 35.8863 70.0966 35.7415 71.0368 35.7415C72.8888 35.7415 74.4273 35.9298 75.6382 37.2913C76.5357 38.2038 76.8491 39.5653 76.8491 40.7385C76.8491 41.7669 76.6924 42.7228 76.2936 43.5629C75.7522 44.7361 74.755 45.7066 73.1452 46.4163C71.7634 47.0246 69.9399 47.4447 67.5466 47.633C66.6633 47.7054 65.6946 47.7344 64.6547 47.7488C64.6547 48.502 64.6547 49.2987 64.6832 50.1098C64.7116 51.3409 64.7686 52.6155 64.8399 53.7887H68.4156C73.5299 53.7887 77.2338 56.0048 77.2338 60.4225C77.2338 61.1612 77.1341 61.8709 76.9204 62.5372C76.8349 62.8124 76.7352 63.0731 76.607 63.3193C76.3078 63.9421 75.9089 64.4925 75.3818 64.9705C74.1709 66.0713 72.2477 66.6507 69.6977 66.6507H69.6122C68.729 66.6507 67.5751 66.3899 66.9483 66.0713C66.7488 65.9409 66.5636 65.8106 66.4924 65.4919L65.8513 62.8124L65.0251 59.3796C65.0251 59.3796 64.9681 59.3941 64.9396 59.3941C64.2273 59.4955 63.515 59.6114 62.8027 59.7128C61.2784 59.959 59.7683 60.2342 58.3865 60.4949C58.7426 63.8842 59.1415 67.3314 59.6116 70.7931C59.6401 71.0973 59.6828 71.4159 59.7256 71.7201C62.3468 72.314 65.9938 72.4443 68.4156 72.4443C70.8374 72.4443 72.9458 72.2995 74.9117 72.0243C78.5444 71.4884 81.4363 70.5034 83.3025 69.0695C83.3025 69.0695 83.312 69.0695 83.331 69.0695C84.3425 68.3019 85.2827 67.4763 86.109 66.5203C86.4366 66.1292 86.75 65.7092 87.035 65.2602C87.6618 64.2897 88.1319 63.2034 88.4026 61.9433C88.5735 61.1612 88.6732 60.3066 88.6732 59.3941C88.6732 57.2794 87.904 55.1358 86.3084 53.3687V53.3542Z" fill="#96280F"/>
<g style="mix-blend-mode:color-burn" opacity="0.6">
<path d="M113.276 52.7898C113.276 74.4726 96.366 92.2302 75.2536 93.1137C95.5397 91.3322 110.64 73.9946 110.64 52.9057C110.64 30.6581 93.702 12.5529 71.8061 12.5529C71.2078 12.5529 70.6094 12.5529 70.0111 12.5963C71.1935 12.4805 72.3759 12.437 73.5868 12.437C95.4828 12.437 113.276 30.5422 113.276 52.7898Z" fill="#767676"/>
</g>
<path d="M105.882 70.2721C105.882 70.2721 104.757 73.1254 103.218 73.8931C102.492 74.2552 101.751 74.4 101.138 74.3421C100.469 74.2552 99.9559 73.9365 99.7564 73.3717C99.3718 72.3143 100.298 70.808 101.836 70.0403C102.192 69.8665 102.577 69.7796 102.99 69.7506C104.386 69.6637 105.896 70.2576 105.896 70.2576L105.882 70.2721Z" fill="#691C0A"/>
<path d="M97.6766 72.6763C97.406 72.9081 97.0498 72.966 96.6652 72.8791C95.9529 72.7198 95.1124 72.0245 94.4713 70.9672C93.6451 69.5912 93.7448 67.1289 93.7875 66.4337C93.7875 66.3178 93.8018 66.2454 93.8018 66.2454C93.8018 66.2454 96.3803 66.9261 97.3632 68.5483C98.332 70.1561 98.4744 72.01 97.6766 72.6763Z" fill="#691C0A"/>
<path d="M101.723 77.7601C101.723 77.7601 100.198 80.3383 98.5742 80.7873C98.0756 80.9177 97.6055 80.9611 97.1638 80.9322C96.1524 80.8597 95.3831 80.3528 95.2264 79.5562C94.9985 78.4409 96.1381 77.1518 97.7764 76.7028C97.8904 76.6593 98.0186 76.6449 98.1468 76.6304C99.7281 76.4566 101.723 77.7457 101.723 77.7457V77.7601Z" fill="#691C0A"/>
<path d="M92.5907 78.7449C92.4197 78.7883 92.2345 78.7883 92.0493 78.7159C91.2658 78.4697 90.4965 77.282 90.1974 75.7177C89.9125 74.2403 90.5963 72.2705 90.9239 71.4449C91.0236 71.1986 91.0949 71.0393 91.0949 71.0393C91.0949 71.0393 93.2603 72.8498 93.6449 74.7762C94.0295 76.7026 93.5737 78.4697 92.6192 78.7449H92.5907Z" fill="#691C0A"/>
<path d="M108.974 60.5386C108.974 60.5386 108.304 63.5803 106.894 64.6666C106.025 65.3474 105.085 65.6371 104.387 65.5357C103.945 65.4777 103.603 65.2605 103.404 64.8984C102.862 63.9279 103.56 62.2623 104.956 61.1759C105.612 60.6545 106.552 60.4952 107.364 60.4517C108.261 60.4083 108.974 60.5386 108.974 60.5386Z" fill="#691C0A"/>
<path d="M101.751 64.8116C101.452 65.2896 100.896 65.4923 100.241 65.3909C99.6139 65.304 98.9159 64.9854 98.2606 64.4205C96.9072 63.2618 96.3231 60.1911 96.3231 60.1911C96.3231 60.1911 96.5226 60.1622 96.836 60.1477C96.8787 60.1477 96.893 60.1477 96.9357 60.1477C97.7904 60.1187 99.3717 60.2056 100.312 61.0023C101.665 62.161 102.306 63.8556 101.737 64.7971L101.751 64.8116Z" fill="#691C0A"/>
<path d="M105.555 44.5336C104.942 46.2572 103.774 47.358 102.891 47.0683C102.891 47.0683 102.791 47.0393 102.748 47.0104C101.851 46.5614 101.651 44.7074 102.307 42.8969C102.762 41.6078 104.087 40.5649 104.842 40.058C105.156 39.8407 105.355 39.7249 105.355 39.7249C105.355 39.7249 106.21 42.7086 105.555 44.5191V44.5336Z" fill="#691C0A"/>
<path d="M101.494 47.8507C101.238 48.5604 100.455 48.908 99.5001 48.8066C99.0299 48.7777 98.5313 48.6328 98.0185 48.3721C96.4799 47.6044 95.3545 44.7511 95.3545 44.7511C95.3545 44.7511 96.4657 44.3021 97.6623 44.2296C98.2607 44.2007 98.8875 44.2441 99.4003 44.5193C100.939 45.287 101.879 46.7788 101.494 47.8362V47.8507Z" fill="#691C0A"/>
<path d="M107.492 54.7598C106.637 56.0054 105.498 56.6717 104.7 56.4689C104.515 56.4254 104.358 56.3385 104.216 56.2082C103.461 55.484 103.717 53.6445 104.757 52.1092C105.498 51.0373 106.993 50.4724 107.834 50.2262C108.19 50.1103 108.432 50.0669 108.432 50.0669C108.432 50.0669 108.546 53.21 107.492 54.7453V54.7598Z" fill="#691C0A"/>
<path d="M102.007 56.1501C101.737 56.7584 101.053 57.0047 100.255 56.9178C99.7136 56.8598 99.1011 56.6281 98.517 56.237C97.0497 55.2811 96.1807 52.3118 96.1807 52.3118C96.1807 52.3118 96.8645 52.1235 97.7477 52.0656H97.8047C98.6167 52.0366 99.5427 52.1235 100.241 52.5725C101.708 53.543 102.506 55.1362 102.036 56.1501H102.007Z" fill="#691C0A"/>
<path d="M101.979 35.1046C101.665 36.7993 100.725 37.987 99.8847 37.7552C99.8562 37.7552 99.8277 37.7552 99.7992 37.7263C99.03 37.4221 98.6596 35.9302 98.9587 34.2935C99.1867 33.1203 100.155 31.9905 100.739 31.4112C100.996 31.1649 101.181 31.0056 101.181 31.0056C101.181 31.0056 102.307 33.41 101.979 35.1046Z" fill="#691C0A"/>
<path d="M99.3148 40.0147C99.1439 40.8548 98.1894 41.3328 97.0355 41.2314C96.836 41.2169 96.6081 41.1734 96.3944 41.1155C94.9698 40.7389 93.6165 38.4939 93.6165 38.4939C93.6165 38.4939 94.9413 37.6248 96.2092 37.4945C96.5084 37.4655 96.7933 37.48 97.064 37.5524C98.4886 37.929 99.5 39.0443 99.3148 40.0292V40.0147Z" fill="#691C0A"/>
<path d="M97.4202 28.5287C97.3347 30.035 96.6794 31.2083 95.9386 31.1503C95.8532 31.1503 95.7677 31.1214 95.6822 31.0779C95.0839 30.7882 94.6708 29.6585 94.742 28.3259C94.799 27.2975 95.4828 26.1967 95.9102 25.5884C96.1096 25.3132 96.2521 25.1394 96.2521 25.1394C96.2521 25.1394 97.4914 27.0223 97.406 28.5142L97.4202 28.5287Z" fill="#691C0A"/>
<path d="M95.9955 33.526C95.9528 34.4095 94.8843 35.0323 93.6165 34.931C93.6022 34.931 93.588 34.931 93.5595 34.931C92.3058 34.7861 90.9382 33.1349 90.9382 33.1349C90.9382 33.1349 92.1919 31.9617 93.36 31.7734C93.5025 31.7589 93.6449 31.7444 93.7732 31.7589C95.041 31.8603 96.0383 32.6425 95.9813 33.5115L95.9955 33.526Z" fill="#691C0A"/>
<path d="M93.5026 28.9777C93.2746 29.4267 92.7618 29.615 92.1349 29.4991C91.7218 29.4412 91.2659 29.2529 90.8386 28.9487C89.7559 28.1811 89.1433 25.8926 89.1433 25.8926C89.1433 25.8926 89.5422 25.8057 90.0978 25.7767C90.7531 25.7332 91.6078 25.7767 92.2062 26.2112C93.3031 26.9934 93.8729 28.2245 93.4883 28.9777H93.5026Z" fill="#691C0A"/>
<path d="M105.27 70.2719C105.27 70.2719 104.144 73.1253 102.606 73.8929C102.107 74.1392 101.608 74.2985 101.138 74.342C100.469 74.2551 99.9559 73.9364 99.7564 73.3715C99.3718 72.3142 100.298 70.8078 101.836 70.0402C102.192 69.8664 102.577 69.7795 102.99 69.7505C104.173 69.8084 105.284 70.2574 105.284 70.2574L105.27 70.2719Z" fill="#96280F"/>
<path d="M97.0641 72.6765C96.9501 72.7779 96.8076 72.8503 96.6652 72.8793C95.9529 72.72 95.1124 72.0247 94.4713 70.9674C93.6451 69.5914 93.7448 67.1291 93.7875 66.4338C94.5995 66.738 96.0669 67.4188 96.7507 68.5485C97.7194 70.1563 97.8618 72.0102 97.0783 72.6765H97.0641Z" fill="#96280F"/>
<path d="M101.11 77.7606C101.11 77.7606 99.5854 80.3388 97.9614 80.7878C97.6907 80.8602 97.42 80.9037 97.1636 80.9326C96.1521 80.8602 95.3829 80.3533 95.2262 79.5567C94.9982 78.4414 96.1379 77.1523 97.7762 76.7033C97.8901 76.6598 98.0183 76.6453 98.1466 76.6309C99.5854 76.7612 101.11 77.7461 101.11 77.7461V77.7606Z" fill="#96280F"/>
<path d="M92.0493 78.731C91.2658 78.4848 90.4965 77.2971 90.1974 75.7328C89.9125 74.2554 90.5963 72.2856 90.9239 71.46C91.5792 72.0828 92.7616 73.4153 93.0323 74.7913C93.4027 76.6887 92.9753 78.4124 92.0636 78.7455L92.0493 78.731Z" fill="#96280F"/>
<path d="M108.375 60.5388C108.375 60.5388 107.691 63.5805 106.295 64.6668C105.654 65.1593 104.985 65.4489 104.386 65.5358C103.945 65.4779 103.603 65.2606 103.403 64.8985C102.862 63.9281 103.56 62.2624 104.956 61.1761C105.612 60.6547 106.552 60.4954 107.364 60.4519C107.962 60.4519 108.375 60.5388 108.375 60.5388Z" fill="#96280F"/>
<path d="M101.138 64.8118C100.939 65.145 100.625 65.3188 100.241 65.3912C99.6139 65.3043 98.9159 64.9857 98.2606 64.4208C96.9072 63.262 96.3231 60.1914 96.3231 60.1914C96.3231 60.1914 96.5226 60.1624 96.836 60.1479C96.8787 60.1479 96.893 60.1479 96.9357 60.1479C97.8047 60.1914 98.9586 60.3652 99.7137 61.0025C101.067 62.1612 101.708 63.8559 101.138 64.7974V64.8118Z" fill="#96280F"/>
<path d="M104.956 44.5337C104.472 45.8807 103.66 46.8512 102.905 47.0684C102.905 47.0684 102.805 47.0395 102.762 47.0105C101.865 46.5615 101.665 44.7075 102.321 42.897C102.776 41.6079 104.101 40.5651 104.856 40.0581C105.042 40.8837 105.483 43.0708 104.97 44.5337H104.956Z" fill="#96280F"/>
<path d="M100.882 47.8505C100.682 48.4009 100.17 48.7341 99.5001 48.8065C99.0299 48.7775 98.5313 48.6327 98.0185 48.372C96.4799 47.6043 95.3545 44.7509 95.3545 44.7509C95.3545 44.7509 96.4657 44.3019 97.6623 44.2295C98.0612 44.244 98.4459 44.3309 98.7878 44.5192C100.326 45.2868 101.267 46.7787 100.882 47.836V47.8505Z" fill="#96280F"/>
<path d="M106.879 54.7599C106.224 55.7158 105.398 56.3241 104.7 56.469C104.514 56.4255 104.358 56.3386 104.215 56.2083C103.46 55.4841 103.717 53.6446 104.757 52.1093C105.497 51.0374 106.993 50.4725 107.834 50.2263C107.834 50.8636 107.805 53.4128 106.894 54.7454L106.879 54.7599Z" fill="#96280F"/>
<path d="M101.409 56.15C101.195 56.5845 100.782 56.8452 100.255 56.9176C99.7136 56.8597 99.1011 56.6279 98.517 56.2369C97.0497 55.2809 96.1807 52.3117 96.1807 52.3117C96.1807 52.3117 96.8645 52.1234 97.7477 52.0654H97.8047C98.4458 52.0944 99.1011 52.2248 99.6282 52.5724C101.095 53.5428 101.893 55.1361 101.423 56.15H101.409Z" fill="#96280F"/>
<path d="M101.38 35.1045C101.124 36.4515 100.483 37.4799 99.8133 37.7406C99.044 37.4365 98.6736 35.9446 98.9728 34.3079C99.2007 33.1347 100.169 32.0049 100.753 31.4255C101.053 32.1787 101.622 33.8444 101.38 35.119V35.1045Z" fill="#96280F"/>
<path d="M98.7022 40.0149C98.574 40.6956 97.9045 41.1446 97.0355 41.2315C96.836 41.2171 96.6081 41.1736 96.3944 41.1157C94.9698 40.7391 93.6165 38.494 93.6165 38.494C93.6165 38.494 94.9413 37.625 96.2092 37.4946C96.2947 37.4946 96.3802 37.5236 96.4656 37.5526C97.8902 37.9292 98.9017 39.0444 98.7022 40.0294V40.0149Z" fill="#96280F"/>
<path d="M96.8076 28.5289C96.7364 29.789 96.2663 30.8174 95.6822 31.0781C95.0839 30.7884 94.6708 29.6587 94.742 28.3261C94.799 27.2978 95.4828 26.197 95.9102 25.5886C96.2663 26.2404 96.8504 27.4716 96.7934 28.5289H96.8076Z" fill="#96280F"/>
<path d="M95.383 33.5258C95.3402 34.2789 94.5709 34.8438 93.5595 34.9307C92.3058 34.7859 90.9382 33.1347 90.9382 33.1347C90.9382 33.1347 92.1919 31.9615 93.36 31.7732C94.5282 31.9325 95.4257 32.6857 95.383 33.5113V33.5258Z" fill="#96280F"/>
<path d="M92.9041 28.9776C92.7474 29.2673 92.491 29.4556 92.1491 29.499C91.736 29.4411 91.2801 29.2528 90.8527 28.9486C89.77 28.181 89.1575 25.8925 89.1575 25.8925C89.1575 25.8925 89.5564 25.8056 90.1119 25.7766C90.6248 25.8056 91.1946 25.907 91.6078 26.2111C92.6905 26.9933 93.2745 28.2244 92.8899 28.9776H92.9041Z" fill="#96280F"/>
<path d="M47.2177 72.836C46.8331 73.9513 45.2803 74.1975 43.7275 73.3719C43.6705 73.343 43.6135 73.314 43.5565 73.2705C42.1034 72.3436 41.0635 69.5771 41.0635 69.5771C41.0635 69.5771 43.3001 68.6356 44.8529 69.2295C44.9384 69.2584 45.0381 69.3019 45.1236 69.3453C46.6621 70.1564 47.6023 71.7207 47.2177 72.836Z" fill="#691C0A"/>
<path d="M52.4886 70.3012C51.5199 71.9959 50.0811 72.7925 49.2833 72.0973C49.2691 72.0828 49.2406 72.0538 49.2263 72.0393C48.4998 71.2717 48.6565 69.4032 49.611 67.7665C50.2948 66.5643 51.7906 65.8546 52.6026 65.5359C52.9445 65.4056 53.1724 65.3477 53.1724 65.3477C53.1724 65.3477 53.4574 68.6211 52.4886 70.3157V70.3012Z" fill="#691C0A"/>
<path d="M51.7478 79.3102C51.5198 80.4834 50.024 81.0628 48.3857 80.5993C48.1436 80.5269 47.9014 80.3965 47.6592 80.2372C46.3343 79.3682 45.2231 77.4273 45.2231 77.4273C45.2231 77.4273 47.5595 75.8485 49.1835 76.312C49.3545 76.3555 49.5112 76.4134 49.6679 76.4858C51.0355 77.0507 51.933 78.2384 51.7335 79.3102H51.7478Z" fill="#691C0A"/>
<path d="M56.791 75.2978C56.4064 77.3256 55.338 78.745 54.3835 78.4698C54.2268 78.4264 54.0843 78.325 53.9419 78.1946C53.2865 77.5573 53.0301 75.9931 53.3435 74.3129C53.6284 72.8065 54.9106 71.3581 55.5516 70.7353C55.7653 70.518 55.9078 70.3877 55.9078 70.3877C55.9078 70.3877 57.1757 73.2845 56.8053 75.2978H56.791Z" fill="#691C0A"/>
<path d="M43.5565 63.928C43.0864 64.8115 41.847 64.8405 40.6076 64.0873C40.6076 64.0873 40.6076 64.0873 40.5933 64.0873C40.4224 63.9859 40.2372 63.8555 40.0662 63.7107C38.6701 62.5664 37.9863 59.3799 37.9863 59.3799C37.9863 59.3799 39.7956 59.0468 41.2059 59.5972C41.5051 59.7131 41.7615 59.8434 42.0037 60.0462C43.3998 61.1905 44.0978 62.9285 43.5565 63.9424V63.928Z" fill="#691C0A"/>
<path d="M50.651 59.018C50.651 59.018 50.0669 62.2335 48.7135 63.4502C47.5169 64.522 46.1635 64.7827 45.4655 64.1599C45.3657 64.0875 45.2945 63.9861 45.2233 63.8702C44.6534 62.8853 45.2945 61.1038 46.6479 59.8871C47.5738 59.0615 49.1266 58.9601 49.9956 58.9891C50.3945 58.9891 50.651 59.018 50.651 59.018Z" fill="#691C0A"/>
<path d="M44.2118 45.2004C43.8129 45.4031 43.3713 45.3018 42.9297 44.9686C42.3456 44.5341 41.7758 43.6795 41.4054 42.5932C40.807 40.8406 41.4623 38.1176 41.5906 37.6252C41.5906 37.5817 41.6048 37.5527 41.6048 37.5527C41.6048 37.5527 44.0124 38.9577 44.6677 40.8696C45.3087 42.7815 45.1093 44.7079 44.226 45.1859L44.2118 45.2004Z" fill="#691C0A"/>
<path d="M51.6336 42.8101C51.6336 42.8101 50.4939 45.7939 48.9554 46.605C47.773 47.2278 46.5906 47.2278 45.921 46.6919C45.7216 46.5326 45.5649 46.3153 45.4794 46.0546C45.109 44.9393 46.035 43.375 47.5878 42.5639C48.642 42.0135 50.1663 42.3322 51.0068 42.5929C51.3914 42.7088 51.6336 42.8101 51.6336 42.8101Z" fill="#691C0A"/>
<path d="M42.7443 54.832C42.2884 55.281 41.5904 55.2376 40.8638 54.7596C40.3795 54.4554 39.8809 53.963 39.4677 53.3112C38.3993 51.7034 38.5275 48.4155 38.5275 48.4155C38.5275 48.4155 39.311 48.5604 40.2085 48.9804C40.9351 49.3135 41.7328 49.8205 42.2172 50.5447C43.2714 52.1524 43.5136 54.0788 42.7585 54.8465L42.7443 54.832Z" fill="#691C0A"/>
<path d="M50.7933 50.7476C50.7933 50.7476 49.9243 53.8472 48.4569 54.8611C47.2603 55.6722 45.9924 55.8026 45.3086 55.2232C45.1519 55.1073 45.0379 54.948 44.9524 54.7597C44.4823 53.7024 45.2801 52.0222 46.7474 51.0228C47.7589 50.3276 49.2974 50.4579 50.1664 50.6028C50.5511 50.6752 50.8075 50.7476 50.8075 50.7476H50.7933Z" fill="#691C0A"/>
<path d="M47.0752 35.4959C46.7761 35.5828 46.4627 35.4669 46.1635 35.2062C45.6507 34.7572 45.1805 33.8302 44.9811 32.7005C44.7104 31.2376 45.437 29.2532 45.6934 28.6159C45.7504 28.4856 45.7789 28.3987 45.7789 28.3987C45.7789 28.3987 47.6736 30.0644 47.987 31.8459C48.3146 33.613 47.9015 35.2352 47.061 35.4814L47.0752 35.4959Z" fill="#691C0A"/>
<path d="M53.3574 36.2491C53.3574 36.2491 52.0041 38.5956 50.5795 39.0011C49.6393 39.2618 48.756 39.1315 48.2004 38.7114C47.9155 38.4942 47.7161 38.2045 47.6591 37.8424C47.4739 36.814 48.4711 35.6408 49.9099 35.2497C50.6507 35.0469 51.5767 35.3366 52.2748 35.6408C52.9158 35.9305 53.3717 36.2491 53.3717 36.2491H53.3574Z" fill="#691C0A"/>
<path d="M51.0356 28.5433C50.7934 28.5578 50.5797 28.4564 50.3803 28.2391C49.9386 27.7901 49.611 26.8776 49.554 25.7913C49.497 24.5891 50.2093 23.1407 50.5512 22.5324C50.6509 22.3585 50.7222 22.2427 50.7222 22.2427C50.7222 22.2427 52.161 23.9953 52.2322 25.574C52.3177 27.1528 51.7764 28.4853 51.0356 28.5433Z" fill="#691C0A"/>
<path d="M56.0358 30.629C56.0358 30.629 54.6254 32.4105 53.3433 32.5119C52.6453 32.5698 52.0184 32.396 51.5768 32.0774C51.2207 31.8167 50.9785 31.4546 50.9642 31.0345C50.9215 30.122 51.9045 29.2964 53.1724 29.195C53.5 29.1661 53.8419 29.253 54.1696 29.3833C55.1525 29.7744 56.0358 30.629 56.0358 30.629Z" fill="#691C0A"/>
<path d="M57.8308 23.0396C57.8308 23.0396 57.2325 25.4295 56.1355 26.2406C55.1953 26.9358 54.1553 27.0517 53.6567 26.5303C53.5855 26.4579 53.5285 26.371 53.4715 26.2696C53.0869 25.4874 53.671 24.1839 54.7537 23.3727C55.4375 22.8513 56.4917 22.8658 57.1755 22.9237C57.5601 22.9672 57.8308 23.0251 57.8308 23.0251V23.0396Z" fill="#691C0A"/>
<path d="M46.6196 72.5463C46.2777 73.5601 44.9528 73.8498 43.5568 73.2849C42.1037 72.358 41.0637 69.5915 41.0637 69.5915C41.0637 69.5915 43.3003 68.65 44.8531 69.2439C46.1922 70.084 46.9758 71.5179 46.6196 72.5607V72.5463Z" fill="#96280F"/>
<path d="M51.8903 69.9971C51.1068 71.3586 50.0241 72.1407 49.2263 72.0249C48.4998 71.2572 48.6565 69.3888 49.611 67.752C50.2948 66.5499 51.7906 65.8401 52.6026 65.5215C52.6453 66.5064 52.6311 68.708 51.9046 69.9971H51.8903Z" fill="#96280F"/>
<path d="M51.1496 79.0061C50.9217 80.1793 49.4258 80.7586 47.8018 80.2951C47.7591 80.2807 47.7163 80.2662 47.6736 80.2372C46.3487 79.3682 45.2375 77.4273 45.2375 77.4273C45.2375 77.4273 47.5739 75.8485 49.1979 76.312C49.3689 76.3555 49.5256 76.4134 49.6823 76.4858C50.708 77.1086 51.3205 78.108 51.1496 79.0061Z" fill="#96280F"/>
<path d="M56.1927 74.9937C55.8366 76.9056 54.8536 78.2816 53.9419 78.1947C53.2865 77.5574 53.0301 75.9931 53.3435 74.3129C53.6284 72.8066 54.9106 71.3582 55.5516 70.7354C55.9078 71.6913 56.4634 73.5742 56.1927 75.0082V74.9937Z" fill="#96280F"/>
<path d="M42.9582 63.6383C42.5736 64.377 41.6191 64.5218 40.5934 64.0873C40.5934 64.0873 40.5934 64.0873 40.5792 64.0873C40.4082 63.9859 40.223 63.8555 40.0521 63.7107C38.656 62.5664 37.9722 59.3799 37.9722 59.3799C37.9722 59.3799 39.7814 59.0468 41.1917 59.5972C41.263 59.6406 41.3342 59.6841 41.3912 59.742C42.7873 60.8863 43.4853 62.6244 42.9582 63.6528V63.6383Z" fill="#96280F"/>
<path d="M49.9956 58.9742C49.8247 59.7708 49.2406 62.1317 48.1152 63.1311C47.2035 63.9423 46.2062 64.2899 45.4655 64.145C45.3657 64.0726 45.2945 63.9712 45.2233 63.8553C44.6534 62.8704 45.2945 61.0889 46.6479 59.8722C47.5738 59.0466 49.1266 58.9452 49.9956 58.9742Z" fill="#96280F"/>
<path d="M43.6135 44.896C43.3998 45.0119 43.1719 45.0264 42.9297 44.9685C42.3456 44.5339 41.7758 43.6794 41.4054 42.5931C40.807 40.8405 41.4623 38.1175 41.5906 37.625C42.3456 38.1754 43.6277 39.2472 44.0693 40.5653C44.7247 42.4772 44.5252 44.4181 43.6277 44.8816L43.6135 44.896Z" fill="#96280F"/>
<path d="M50.9928 42.593C50.7933 43.0854 49.7392 45.5767 48.3573 46.3009C47.4741 46.7644 46.5908 46.8803 45.9213 46.6775C45.7218 46.5182 45.5651 46.3009 45.4796 46.0402C45.1092 44.9249 46.0352 43.3606 47.588 42.5495C48.6422 41.9991 50.1665 42.3178 51.007 42.5785L50.9928 42.593Z" fill="#96280F"/>
<path d="M42.1462 54.5278C41.8186 54.861 41.3627 54.9189 40.8641 54.7596C40.3797 54.4554 39.8811 53.963 39.468 53.3112C38.3995 51.7034 38.5278 48.4155 38.5278 48.4155C38.5278 48.4155 39.3113 48.5604 40.2088 48.9804C40.7501 49.2846 41.263 49.7046 41.6191 50.2405C42.6733 51.8483 42.9297 53.7747 42.1605 54.5423L42.1462 54.5278Z" fill="#96280F"/>
<path d="M50.1524 50.6172C49.953 51.269 49.1267 53.7023 47.8589 54.5713C46.9614 55.1942 46.0211 55.4114 45.3088 55.2376C45.1521 55.1217 45.0382 54.9624 44.9527 54.7741C44.4826 53.7168 45.2803 52.0366 46.7477 51.0372C47.7591 50.342 49.2977 50.4723 50.1667 50.6172H50.1524Z" fill="#96280F"/>
<path d="M46.477 35.1914C46.363 35.2203 46.2633 35.2348 46.1493 35.1914C45.6365 34.7424 45.1664 33.8154 44.9669 32.6856C44.6963 31.2227 45.4228 29.2384 45.6792 28.6011C46.2633 29.2239 47.175 30.3681 47.3887 31.5414C47.7164 33.3084 47.3033 34.9451 46.4628 35.1769L46.477 35.1914Z" fill="#96280F"/>
<path d="M52.7594 35.9445C52.7594 35.9445 51.406 38.291 49.9814 38.682C49.3261 38.8559 48.7135 38.8559 48.2007 38.6965C47.9158 38.4793 47.7163 38.1896 47.6593 37.8275C47.4741 36.7991 48.4714 35.6259 49.9102 35.2348C50.651 35.032 51.577 35.3217 52.275 35.6259C52.5884 35.8142 52.7736 35.9445 52.7736 35.9445H52.7594Z" fill="#96280F"/>
<path d="M50.4373 28.2392H50.3661C49.9245 27.7902 49.5968 26.8777 49.5398 25.7914C49.4829 24.5892 50.1952 23.1408 50.5371 22.5325C50.9644 23.1843 51.577 24.2561 51.6198 25.27C51.7052 26.8487 51.1781 28.1668 50.4373 28.2247V28.2392Z" fill="#96280F"/>
<path d="M55.4376 30.3392C55.4376 30.3392 54.0273 32.1208 52.7594 32.2221C52.332 32.2511 51.9331 32.2077 51.5912 32.0918C51.2351 31.8311 50.9929 31.469 50.9786 31.0489C50.9359 30.1364 51.9189 29.3108 53.1867 29.2094C53.5144 29.1805 53.8563 29.2674 54.184 29.3977C54.8963 29.8178 55.4518 30.3537 55.4518 30.3537L55.4376 30.3392Z" fill="#96280F"/>
<path d="M57.1755 22.9382C57.0045 23.5176 56.4489 25.2702 55.5372 25.9364C54.8819 26.4144 54.1838 26.6172 53.6567 26.5303C53.5855 26.4579 53.5285 26.371 53.4715 26.2696C53.0869 25.4874 53.671 24.1839 54.7537 23.3727C55.4375 22.8513 56.4917 22.8658 57.1755 22.9237V22.9382Z" fill="#96280F"/>
<g style="mix-blend-mode:color-burn" opacity="0.2">
<path d="M113.276 52.7896C113.276 75.0372 95.4685 93.1424 73.5726 93.1424C72.4899 93.1424 71.4215 93.099 70.353 93.0121C55.4376 91.7954 42.8299 82.1634 37.1316 68.7946C96.0241 82.7718 92.6193 27.8044 91.5651 18.0566C91.5651 18.0566 91.8501 17.1731 91.8073 16.9558C99.0442 20.6638 104.6 26.356 108.461 33.5691C111.524 39.2904 113.262 45.8372 113.262 52.7896H113.276Z" fill="#A6A6A6"/>
</g>
<g style="mix-blend-mode:color-burn" opacity="0.2">
<path d="M113.276 52.7898C113.276 75.0375 95.4684 93.1427 73.5725 93.1427C72.4898 93.1427 71.4213 93.0992 70.3529 93.0123C97.2776 83.5252 105.441 54.3686 107.891 37.9001L109.714 36.1331C111.937 41.2604 113.262 45.8374 113.262 52.8043L113.276 52.7898Z" fill="#767676"/>
</g>
<g style="mix-blend-mode:soft-light" opacity="0.4">
<path d="M103.803 89.869L98.0616 89.2462L97.0644 94.5474L93.5457 90.9698L92.3348 89.7531L91.423 88.8261V88.8117L70.9374 67.9835L69.6126 66.6509L65.8516 62.8126L61.4497 58.337L49.5116 46.2138L49.07 45.7648L46.6054 43.2445L44.8247 41.4485V41.434L44.0982 40.7098L41.4769 38.0592V38.0447L38.1434 34.641L36.0207 32.4973L33.8839 30.3102L31.7042 28.1086L31.519 27.9203L34.6816 27.2396L33.5989 18.5056L35.7643 20.7072L38.528 23.5171L45.1666 30.2667L47.5172 32.6421L48.1155 33.2505L50.0387 35.2203L51.9334 37.1467L52.3893 37.6102L64.6835 50.11L66.4785 51.935L68.3162 53.789L77.1771 62.7981L78.0461 63.6962L82.7188 68.4325L83.3314 69.0553L90.2834 76.138L90.2976 76.1525L91.8647 77.7313L92.5057 78.3976L92.7764 78.6583L103.803 89.869Z" fill="white"/>
</g>
<g style="mix-blend-mode:soft-light" opacity="0.4">
<path d="M109.202 89.5361L108.888 89.6664L108.703 89.4781L103.147 83.8293L101.537 82.1926L99.6142 80.2373L99.3436 79.9621L96.6226 77.1956L94.1723 74.7043L93.2891 73.8063L90.9243 71.4019L86.1091 66.5063L85.9097 66.3035L80.8239 61.1327L78.7013 58.9745L36.2913 15.8552L41.434 16.4056L43.8701 16.6663L44.3972 17.2023L44.7391 17.5354L46.5625 19.4038L50.238 23.1408L51.4489 24.3574L52.1754 25.0961L59.8682 32.9175L59.911 32.9755L66.5638 39.7396L67.4185 40.5942L72.0912 45.3449L88.4027 61.9293L88.9868 62.5376L93.7592 67.3753L96.879 70.5474L99.8279 73.5456L100.341 74.0815L100.369 74.1105L103.147 76.9204L104.572 78.3688L106.296 80.1359L106.424 80.2517L108.262 82.1202L109.202 89.5361Z" fill="white"/>
</g>
<defs>
<linearGradient id="paint0_linear_3161_305" x1="69.313" y1="77.094" x2="16.5721" y2="148.654" gradientUnits="userSpaceOnUse">
<stop stop-color="#003D14"/>
<stop offset="1" stop-color="#238500"/>
</linearGradient>
<linearGradient id="paint1_linear_3161_305" x1="93.2034" y1="65.7239" x2="119.294" y2="140.37" gradientUnits="userSpaceOnUse">
<stop stop-color="#003D14"/>
<stop offset="1" stop-color="#238500"/>
</linearGradient>
<linearGradient id="paint2_linear_3161_305" x1="109.045" y1="77.4271" x2="109.045" y2="163.028" gradientUnits="userSpaceOnUse">
<stop stop-color="#888888"/>
<stop offset="0.08" stop-color="#ACACAC"/>
<stop offset="0.15" stop-color="#CACACA"/>
<stop offset="0.23" stop-color="#E1E1E1"/>
<stop offset="0.31" stop-color="#F2F2F2"/>
<stop offset="0.4" stop-color="#FBFBFB"/>
<stop offset="0.52" stop-color="white"/>
<stop offset="0.6" stop-color="#F9F9F9"/>
<stop offset="0.69" stop-color="#EBEBEB"/>
<stop offset="0.79" stop-color="#D2D2D2"/>
<stop offset="0.89" stop-color="#B0B0B0"/>
<stop offset="1" stop-color="#858585"/>
</linearGradient>
<linearGradient id="paint3_linear_3161_305" x1="20.877" y1="52.6158" x2="123.462" y2="52.6158" gradientUnits="userSpaceOnUse">
<stop stop-color="#BA5131"/>
<stop offset="0.46" stop-color="#B75030"/>
<stop offset="0.68" stop-color="#B04C2E"/>
<stop offset="0.85" stop-color="#A3462A"/>
<stop offset="1" stop-color="#913F26"/>
</linearGradient>
<linearGradient id="paint4_linear_3161_305" x1="42.8442" y1="78.1661" x2="104.791" y2="28.68" gradientUnits="userSpaceOnUse">
<stop stop-color="white"/>
<stop offset="0.43" stop-color="white"/>
<stop offset="0.5" stop-color="white"/>
<stop offset="0.55" stop-color="white"/>
<stop offset="1" stop-color="white"/>
</linearGradient>
<linearGradient id="paint5_linear_3161_305" x1="77.4188" y1="12.6109" x2="69.4691" y2="93.0739" gradientUnits="userSpaceOnUse">
<stop stop-color="#BA5131"/>
<stop offset="0.46" stop-color="#B75030"/>
<stop offset="0.68" stop-color="#B04C2E"/>
<stop offset="0.85" stop-color="#A3462A"/>
<stop offset="1" stop-color="#913F26"/>
</linearGradient>
</defs>
</svg>
