<svg width="71" height="50" viewBox="0 0 71 50" fill="none" xmlns="http://www.w3.org/2000/svg">
<path d="M21.3 25C28.167 25 33.725 19.4085 33.725 12.5C33.725 5.59152 28.167 0 21.3 0C14.433 0 8.875 5.59152 8.875 12.5C8.875 19.4085 14.433 25 21.3 25ZM29.82 28.5714H28.8992C26.5917 29.6875 24.0291 30.3571 21.3 30.3571C18.5709 30.3571 16.0194 29.6875 13.7008 28.5714H12.78C5.72437 28.5714 0 34.3304 0 41.4286V44.6429C0 47.6004 2.38516 50 5.325 50H37.275C40.2148 50 42.6 47.6004 42.6 44.6429V41.4286C42.6 34.3304 36.8756 28.5714 29.82 28.5714ZM53.25 25C59.1297 25 63.9 20.2009 63.9 14.2857C63.9 8.37054 59.1297 3.57143 53.25 3.57143C47.3703 3.57143 42.6 8.37054 42.6 14.2857C42.6 20.2009 47.3703 25 53.25 25ZM58.575 28.5714H58.1534C56.6114 29.1071 54.9806 29.4643 53.25 29.4643C51.5194 29.4643 49.8886 29.1071 48.3466 28.5714H47.925C45.6619 28.5714 43.5762 29.2299 41.7458 30.2902C44.4527 33.2254 46.15 37.1205 46.15 41.4286V45.7143C46.15 45.9598 46.0945 46.1942 46.0834 46.4286H65.675C68.6148 46.4286 71 44.029 71 41.0714C71 34.1629 65.442 28.5714 58.575 28.5714Z" fill="white"/>
</svg>
