<svg width="701" height="439" viewBox="0 0 701 439" fill="none" xmlns="http://www.w3.org/2000/svg">
<g filter="url(#filter0_d_3200_1140)">
<rect x="39" y="64" width="650" height="359.109" rx="53" fill="url(#paint0_linear_3200_1140)"/>
</g>
<g filter="url(#filter1_d_3200_1140)">
<path style="mix-blend-mode:screen" opacity="0.2" fill-rule="evenodd" clip-rule="evenodd" d="M15.1187 201.519C32.5227 226.753 65.6983 230.323 81.7465 211.424C97.1307 193.329 91.9288 144.99 91.9288 144.99C91.9288 144.99 49.5947 185.858 33.1038 160.623C17.4429 136.662 76.351 116.768 105.376 121.969C135.508 127.393 89.6323 207.827 143.726 224.595C206.397 244.019 393.829 149.639 359.989 93.6083C346.321 70.9748 268.044 121.997 270.451 58.4959C271.337 35.1153 301.801 51.0252 305.702 57.6935C307.141 60.1561 306.726 36.6094 295.935 36.0837C265.969 34.6173 238.161 95.3515 263.091 108.024C283.29 118.289 351.384 75.3465 347.594 110.099C345.767 126.673 231.244 226.615 181.716 206.61C151.971 194.601 132.769 133.895 119.1 115.744C106.566 99.1145 86.6993 81.8212 68.2716 96.5966C46.6065 113.973 -0.514489 178.83 15.1187 201.491V201.519ZM37.6416 168.039C52.3063 183.146 84.4028 154.951 83.296 157.857C63.2357 211.673 32.9101 209.238 27.1549 178.996C24.6093 165.659 27.2102 157.275 37.6416 168.039Z" fill="url(#paint1_radial_3200_1140)"/>
<path fill-rule="evenodd" clip-rule="evenodd" d="M290.4 330.292L295.989 320.524L57.0918 318.283L62.9854 335.549L90.2397 380.429L123.36 391.662L147.598 382.974L166.109 383.583L168.627 391.413L197.956 395.785L216.218 383.306L221.005 371.851L232.986 374.452L260.517 360.894L269.841 369.029L301.108 352.621L317.073 326.584L290.4 330.292Z" fill="url(#paint2_linear_3200_1140)"/>
<path fill-rule="evenodd" clip-rule="evenodd" d="M123.36 391.663L116.857 326.64L58.9456 323.707L62.9853 335.55L90.2396 380.429L123.36 391.663Z" fill="url(#paint3_linear_3200_1140)"/>
<path fill-rule="evenodd" clip-rule="evenodd" d="M46.301 326.999L57.0644 357.989L71.6462 357.684L84.6507 355.471L94.6117 330.126L46.301 326.999Z" fill="url(#paint4_linear_3200_1140)"/>
<path fill-rule="evenodd" clip-rule="evenodd" d="M164.034 375.338L166.358 333.751L213.673 333.336L206.977 368.504L200.917 381.896L164.034 375.338Z" fill="url(#paint5_linear_3200_1140)"/>
<path style="mix-blend-mode:screen" opacity="0.6" fill-rule="evenodd" clip-rule="evenodd" d="M224.463 348.968L259.908 339.201L274.019 342.411L246.267 357.048L224.463 348.968Z" fill="url(#paint6_linear_3200_1140)"/>
<g style="mix-blend-mode:multiply" opacity="0.5">
<path fill-rule="evenodd" clip-rule="evenodd" d="M90.2395 380.431L121.755 375.754L116.857 326.641L125.822 327.112L129.419 352.623L141.981 358.406L164.449 367.786L164.034 375.339L192.893 380.458L206.976 368.505L213.672 333.337L269.011 320.277L295.989 320.526L293.139 325.479L272.11 332.839L266.742 340.753L274.019 342.413L269.841 369.031L260.517 360.896L232.986 374.454L246.267 357.05L224.463 348.97L221.005 371.853L216.218 383.308L197.956 395.787L168.627 391.415L166.109 383.585L147.598 382.976L123.36 391.664L90.2395 380.431Z" fill="#311565"/>
</g>
<g style="mix-blend-mode:multiply" opacity="0.5">
<path fill-rule="evenodd" clip-rule="evenodd" d="M147.598 382.976L141.981 358.405L164.448 367.785L164.033 375.339L166.108 383.584L147.598 382.976Z" fill="#311565"/>
</g>
<path fill-rule="evenodd" clip-rule="evenodd" d="M272.11 332.838C272.664 332.645 284.313 334.305 284.313 334.305L317.073 326.613L296.266 324.427L272.138 332.838H272.11Z" fill="url(#paint7_linear_3200_1140)"/>
<g style="mix-blend-mode:multiply" opacity="0.5">
<path fill-rule="evenodd" clip-rule="evenodd" d="M57.0632 357.989L72.4198 351.791L73.9139 328.798L94.6106 330.126L84.6496 355.471L71.645 357.685L57.0632 357.989Z" fill="#311565"/>
</g>
<g style="mix-blend-mode:multiply" opacity="0.5">
<path fill-rule="evenodd" clip-rule="evenodd" d="M84.6496 355.471L72.4198 351.791L57.0632 357.989L71.645 357.685L84.6496 355.471Z" fill="#311565"/>
</g>
<path fill-rule="evenodd" clip-rule="evenodd" d="M217.685 388.064C218.376 387.926 230.606 382.89 230.606 382.89L248.342 380.704L240.18 396.088L226.677 404.666L219.843 404.998L217.685 388.064Z" fill="url(#paint8_linear_3200_1140)"/>
<g style="mix-blend-mode:multiply" opacity="0.5">
<path fill-rule="evenodd" clip-rule="evenodd" d="M217.685 388.067L231.243 389.201L248.342 380.734L240.152 396.119L226.649 404.696L219.843 405L217.685 388.067Z" fill="#311565"/>
</g>
<g style="mix-blend-mode:multiply" opacity="0.5">
<path fill-rule="evenodd" clip-rule="evenodd" d="M231.242 389.201L226.649 404.696L240.152 396.119L248.342 380.734L231.242 389.201Z" fill="#311565"/>
</g>
<g style="mix-blend-mode:multiply" opacity="0.5">
<path fill-rule="evenodd" clip-rule="evenodd" d="M236.5 382.172L225.598 388.73L217.685 388.065L230.606 382.891L236.5 382.172Z" fill="#311565"/>
</g>
<g style="mix-blend-mode:multiply" opacity="0.5">
<path fill-rule="evenodd" clip-rule="evenodd" d="M260.517 360.894L274.019 342.411L246.267 357.048L232.986 374.452L260.517 360.894Z" fill="#311565"/>
</g>
<g style="mix-blend-mode:multiply" opacity="0.5">
<path fill-rule="evenodd" clip-rule="evenodd" d="M51.3644 341.609L73.1679 340.087L88.22 345.04L118.38 342.107L129.088 350.297L165.03 357.132L165.86 342.218L212.538 341.609L223.08 358.1C223.08 358.1 231.52 351.625 231.907 351.764C232.294 351.902 263.699 340.087 263.699 340.087L266.743 340.779L272.11 332.838L293.139 325.506L299.448 314.659L43.6724 316.181L51.3644 341.637V341.609Z" fill="#311565"/>
</g>
<g style="mix-blend-mode:multiply" opacity="0.5">
<path fill-rule="evenodd" clip-rule="evenodd" d="M284.313 334.277L269.842 369.03L301.108 352.622L317.073 326.585L284.313 334.277Z" fill="#311565"/>
</g>
<g style="mix-blend-mode:screen" opacity="0.6">
<path style="mix-blend-mode:screen" opacity="0.6" fill-rule="evenodd" clip-rule="evenodd" d="M296.266 324.398L293.139 325.477L299.475 314.631L43.6724 316.153L46.965 327.054L46.301 326.999L57.0643 357.989L71.6461 357.684L75.9901 356.937L90.2399 380.429L123.36 391.662L147.598 382.974L166.109 383.583L168.627 391.413L197.957 395.785L216.218 383.306L221.005 371.851L232.986 374.452L260.517 360.894L269.842 369.029L301.108 352.621L317.073 326.584L296.266 324.398Z" fill="url(#paint9_linear_3200_1140)"/>
<path style="mix-blend-mode:multiply" opacity="0.5" fill-rule="evenodd" clip-rule="evenodd" d="M236.5 382.172L230.606 382.892L217.685 388.066L219.843 404.999L226.649 404.695L240.152 396.118L248.342 380.733L236.5 382.172Z" fill="url(#paint10_linear_3200_1140)"/>
</g>
<path fill-rule="evenodd" clip-rule="evenodd" d="M66.6942 212.145C66.6942 212.145 77.1255 251.657 91.5136 300.023L96.66 297.394C96.66 297.394 75.3823 237.158 71.2043 211.536C71.2043 211.536 80.3074 211.674 79.8094 210.512C79.173 209.046 68.382 197.784 65.8364 196.65C63.2908 195.488 57.0653 210.761 58.421 211.647C60.3302 212.864 66.7219 212.145 66.7219 212.145H66.6942Z" fill="#19264D"/>
<path fill-rule="evenodd" clip-rule="evenodd" d="M162.264 210.429C162.264 210.429 161.129 248.807 161.074 298.75L166.193 297.643C166.193 297.643 163.287 234.861 166.11 210.346C166.11 210.346 172.308 211.896 172.169 210.734C171.976 209.267 165.916 198.836 164.145 197.646C162.374 196.456 155.9 208.327 156.702 209.212C157.864 210.485 162.291 210.457 162.291 210.457L162.264 210.429Z" fill="#19264D"/>
<path fill-rule="evenodd" clip-rule="evenodd" d="M53.6614 247.228L148.844 240.394L195.218 244.046L195.411 242.109L149.619 238.125C149.619 238.125 101.336 241.888 49.5386 244.517L53.6614 247.228Z" fill="#19264D"/>
<path d="M282.183 63.7816C282.183 63.7816 255.925 43.3063 238.438 42.6699C220.923 42.0612 211.239 51.1368 211.239 51.1368L208.361 105.396C208.361 105.396 193.309 109.408 180.498 119.065C180.498 119.065 167.023 113.033 165.501 113.227C163.979 113.42 147.793 125.872 147.323 129.137C146.852 132.402 144.473 171.36 147.323 175.234C150.173 179.107 158.003 178.001 169.956 180.076C181.937 182.151 183.154 182.4 183.154 182.4C183.154 182.4 185.008 191.171 187.692 196.041C190.376 200.911 195.412 206.5 195.412 206.5C195.412 206.5 191.926 221.193 190.542 234.059C189.159 246.925 188.412 253.123 188.412 253.123L170.426 255.281L192.396 265.546L233.098 269.725L239.295 204.812C239.295 204.812 204.017 203.124 202.163 176.341C200.309 149.557 200.752 131.987 221.974 121.998C243.225 112.009 269.842 88.5734 269.842 88.5734L282.211 63.754L282.183 63.7816Z" fill="#1BACE0"/>
<path fill-rule="evenodd" clip-rule="evenodd" d="M305.259 198.365L292.725 200.164L266.079 199.527L280.661 191.974L305.259 198.365Z" fill="url(#paint11_linear_3200_1140)"/>
<path d="M190.265 262.751L197.321 204.728C197.321 204.728 187.581 197.839 183.957 183.589L148.955 177.474C148.955 177.474 144.998 154.619 149.425 128.804L166.746 114.443L181.632 121.25C181.632 121.25 189.573 112.756 209.495 106.558L213.369 51.8553C213.369 51.8553 226.733 42.6137 237.441 44.1909L230.137 107.166L196.408 149.528L218.073 201.159L214.006 265.601L190.265 262.779V262.751Z" fill="url(#paint12_linear_3200_1140)"/>
<path d="M290.374 135.416L279.693 141.144L278.033 147.452L275.156 152.156L287.745 153.318L290.374 135.416Z" fill="url(#paint13_linear_3200_1140)"/>
<path fill-rule="evenodd" clip-rule="evenodd" d="M312.535 157.164L296.653 151.63C296.653 151.63 292.669 138.902 290.372 135.416L286.194 148.393L275.043 149.306L274.352 150.44C278.751 159.295 280.19 169.034 276.87 176.311C273.549 183.616 267.324 188.347 259.936 190.561C255.841 191.806 251.359 192.276 246.793 192C245.88 191.944 244.939 191.861 243.998 191.723C242.615 191.557 241.232 191.308 239.848 190.976C238.271 190.616 236.749 190.146 235.283 189.62C234.01 189.15 232.765 188.624 231.575 188.015C219.677 182.066 212.372 169.975 216.108 155.947C216.993 152.626 218.155 149.417 219.594 146.428C219.594 146.428 219.594 137.214 222.97 135.167C226.373 133.119 227.757 134.752 227.757 134.752C230.302 132.317 233.124 130.38 236.251 129.163C237.496 128.692 238.797 128.305 240.125 128.056C240.9 127.918 241.674 127.807 242.477 127.752C243.916 127.641 245.382 127.696 246.904 127.89C248.038 128.028 249.2 128.277 250.39 128.609C251.691 128.969 252.991 129.439 254.347 130.048C258.995 132.123 263.312 135.471 266.964 139.566L267.988 139.428C273.549 128.499 279.332 118.067 279.332 118.067L279.83 118.261C278.198 116.435 276.704 114.913 275.403 113.502L284.589 65.6892C284.589 65.6892 272.526 55.2855 254.098 48.5619C251.331 47.5381 248.398 46.625 245.354 45.8226H245.327C243.888 45.4352 242.421 45.1032 240.955 44.7988C239.82 44.5498 238.658 44.3285 237.469 44.1348L227.618 104.233C227.618 104.233 201.913 110.763 190.541 125.289L166.746 114.415C166.746 114.415 163.259 145.709 164.228 171.303L195.605 175.564C195.605 175.564 202.024 191.308 211.515 201.463L201.969 262.612L247.291 264.161L259.493 212.06C259.493 212.06 274.435 206.581 283.123 194.96L305.231 198.364C305.231 198.364 314.417 176.892 312.508 157.164H312.535Z" fill="url(#paint14_radial_3200_1140)"/>
<path style="mix-blend-mode:screen" opacity="0.6" d="M250.39 128.61C249.2 128.278 248.038 128.029 246.904 127.891C248.591 99.5294 250.943 71.0853 254.098 48.5625L259.465 51.7445C259.465 51.7445 254.374 79.3308 250.39 128.61Z" fill="url(#paint15_linear_3200_1140)"/>
<path style="mix-blend-mode:screen" opacity="0.6" d="M247.319 264.19L242.56 261.755C242.56 261.755 242.698 231.762 243.999 191.752C244.939 191.863 245.852 191.973 246.793 192.029C244.773 248.668 247.319 264.218 247.319 264.218V264.19Z" fill="url(#paint16_linear_3200_1140)"/>
<path style="mix-blend-mode:screen" opacity="0.6" d="M235.919 99.5851C235.919 99.5851 237.413 64.3344 240.927 44.7998L245.299 45.8236H245.326C245.326 45.8236 237.828 72.8842 238.409 103.293C238.63 115.44 239.433 122.744 240.125 128.057C238.796 128.306 237.496 128.666 236.251 129.164C236.943 106.724 235.891 99.5851 235.891 99.5851H235.919Z" fill="url(#paint17_linear_3200_1140)"/>
<path style="mix-blend-mode:screen" opacity="0.6" d="M234.563 262.613L218.072 260.399C218.072 260.399 226.179 230.959 231.575 188.044C232.765 188.653 234.01 189.178 235.283 189.649C232.848 216.156 231.298 246.924 234.536 262.613H234.563Z" fill="url(#paint18_linear_3200_1140)"/>
<path d="M266.965 139.54L259.577 140.564C252.688 132.54 244.276 127.78 242.367 127.78C242.395 127.78 242.45 127.78 242.478 127.78C246.656 127.089 251.581 128.61 256.202 130.686C260.518 132.595 264.53 135.666 267.989 139.429L266.965 139.568V139.54Z" fill="url(#paint19_linear_3200_1140)"/>
<path d="M278.309 176.146C274.74 184.004 267.878 188.735 259.937 190.589C258.996 190.81 258.028 191.004 257.059 191.142C257.059 191.142 271.558 182.067 268.93 160.208C268.902 159.959 268.874 159.71 268.819 159.433L274.353 150.441L275.044 149.334C279.942 158.437 281.713 168.647 278.309 176.146Z" fill="url(#paint20_linear_3200_1140)"/>
<path style="mix-blend-mode:soft-light" opacity="0.3" fill-rule="evenodd" clip-rule="evenodd" d="M168.683 119.839C165.086 129.108 164.034 165.742 168.046 168.15C174.576 172.106 208.748 162.588 212.705 150.829C216.717 138.848 170.758 114.471 168.71 119.811L168.683 119.839ZM172.086 130.381C172.805 123.768 177.98 123.768 182.739 134.089C187.498 144.409 171.034 140.204 172.086 130.381ZM184.592 131.626C183.984 127.918 188.715 129.163 190.514 131.626C192.312 134.089 185.229 135.527 184.592 131.626Z" fill="url(#paint21_linear_3200_1140)"/>
<g style="mix-blend-mode:soft-light" opacity="0.5">
<path fill-rule="evenodd" clip-rule="evenodd" d="M161.405 172.189C152.606 175.149 146.685 175.122 151.361 176.976C155.982 178.829 173.552 181.209 180.995 182.288C188.355 183.367 196.102 177.059 194.193 176.173C189.545 174.015 161.405 172.161 161.405 172.161V172.189Z" fill="#7A369E"/>
</g>
<path style="mix-blend-mode:soft-light" opacity="0.3" fill-rule="evenodd" clip-rule="evenodd" d="M278.115 65.3581C273.356 61.5951 249.699 46.6813 242.892 50.721C236.279 54.6501 228.504 107.692 230.884 112.507C233.236 117.266 265.609 117.155 271.613 105.202C277.728 93.0551 282.847 69.0935 278.115 65.3581ZM266.301 77.9753C266.494 79.6355 262.593 82.5684 262.593 79.3588C262.593 77.4219 266.107 76.3428 266.301 77.9753ZM261.763 101.909C258.47 99.6404 257.225 99.2254 257.059 93.6638C256.893 88.1023 267.131 87.6872 268.542 94.9089C269.981 102.131 264.806 104.012 261.763 101.937V101.909ZM267.988 74.6827C267.407 68.8998 275.376 69.9512 276.206 76.3428C277.036 82.7344 269.178 86.4145 267.988 74.6827Z" fill="url(#paint22_linear_3200_1140)"/>
<path d="M190.513 125.29C198.87 121.001 223.661 105.396 223.661 105.396C223.661 105.396 204.708 111.981 198.206 117.93C191.731 123.851 190.513 125.29 190.513 125.29Z" fill="#09AC61"/>
<path d="M235.311 189.621C235.311 189.621 239.212 194.768 251.138 194.242C262.925 193.744 271.917 184.641 271.917 184.641C271.917 184.641 257.059 196.289 235.283 189.621H235.311Z" fill="#09AC61"/>
<path d="M165.999 122.025C165.999 122.025 161.461 139.042 161.295 146.291C161.129 153.458 164.062 162.478 164.062 162.478C164.062 162.478 166.524 152.932 166.552 144.216C166.58 135.362 165.999 122.025 165.999 122.025Z" fill="#15524F"/>
<path d="M211.018 204.84C211.018 204.84 204.709 220.279 204.405 223.849C204.1 227.39 205.899 237.656 205.899 237.656C205.899 237.656 210.935 226.035 211.765 218.592C212.595 211.065 210.99 204.84 210.99 204.84H211.018Z" fill="#15524F"/>
<path style="mix-blend-mode:screen" opacity="0.6" fill-rule="evenodd" clip-rule="evenodd" d="M197.68 171.054C198.815 180.185 214.918 201.214 218.571 203.012C222.195 204.811 230.551 194.767 223.634 186.051C216.551 177.114 196.905 164.773 197.68 171.054Z" fill="url(#paint23_linear_3200_1140)"/>
<path style="mix-blend-mode:multiply" opacity="0.7" d="M252.797 240.836C254.734 238.152 230.302 230.46 227.092 231.567C219.179 234.306 204.376 245.208 204.376 245.208L201.996 262.64L247.319 264.189L252.77 240.836H252.797Z" fill="url(#paint24_linear_3200_1140)"/>
<path style="mix-blend-mode:screen" opacity="0.6" fill-rule="evenodd" clip-rule="evenodd" d="M312.536 157.164L296.654 151.631C296.654 151.631 292.669 138.903 290.373 135.416L279.692 141.144L278.032 147.425L277.008 149.14L275.072 149.306L274.38 150.441L268.846 159.433C268.874 159.682 268.929 159.931 268.957 160.208C271.308 179.687 260.075 188.984 257.584 190.81C251.636 192.083 244.082 192.332 235.338 189.648C234.066 189.178 232.82 188.652 231.631 188.043C219.733 182.095 212.428 170.003 216.163 155.975C217.049 152.654 218.211 149.445 219.65 146.456C219.65 146.456 219.65 137.243 223.026 135.195C226.429 133.147 227.812 134.78 227.812 134.78C230.358 132.345 233.18 130.408 236.307 129.191C237.552 128.72 238.852 128.333 240.181 128.084C240.955 127.946 241.73 127.835 242.532 127.78C242.505 127.78 242.449 127.78 242.422 127.78C244.331 127.78 252.742 132.539 259.632 140.563L267.02 139.539L268.044 139.401C273.605 128.471 279.388 118.04 279.388 118.04L279.886 118.234C278.253 116.408 276.759 114.886 275.459 113.475L284.645 65.662C284.645 65.662 280.439 62.0373 273.218 57.6932C264.613 52.353 252.189 46.0167 240.042 44.6056C239.212 44.4396 238.354 44.2736 237.524 44.1352C226.816 42.5581 213.452 51.7996 213.452 51.7996L209.578 106.502C189.629 112.7 181.715 121.194 181.715 121.194L173.58 117.487L166.829 114.388L149.508 128.748C145.081 154.564 149.038 177.418 149.038 177.418L184.039 183.533C187.664 197.783 197.404 204.673 197.404 204.673L190.348 262.695L214.088 265.518L214.254 263L247.402 264.134L259.604 212.033C259.604 212.033 270.395 208.076 278.945 199.775L292.835 200.107L305.37 198.309C305.37 198.309 314.556 176.837 312.647 157.109L312.536 157.164Z" fill="url(#paint25_linear_3200_1140)"/>
<path d="M98.873 214.554C98.873 214.554 111.131 221.499 127.704 225.594L132.989 255.643L96.6318 256.777C96.6318 256.777 101.778 237.021 98.873 214.581V214.554Z" fill="url(#paint26_radial_3200_1140)"/>
<path d="M98.8721 214.553C95.8561 214.885 119.79 227.779 127.703 225.593C127.703 225.593 108.446 213.502 98.8721 214.553Z" fill="#F6D8B6"/>
<path d="M112.735 220.668L113.731 221.222C113.731 221.222 112.79 216.269 113.288 211.122C113.786 205.948 119.21 203.181 119.21 203.181C119.21 203.181 119.348 200.387 116.443 199.723C116.443 199.723 112.541 205.589 112.292 212.174C112.043 218.51 112.763 220.696 112.763 220.696L112.735 220.668Z" fill="url(#paint27_linear_3200_1140)"/>
<g style="mix-blend-mode:multiply" opacity="0.5">
<path d="M99.4538 237.852C98.181 248.947 117.716 255.034 125.657 251.299C127.76 250.303 129.171 233.701 129.171 233.701L133.017 255.643L96.6592 256.777C96.6592 256.777 97.4063 254.896 98.3194 248.117C99.2601 241.255 99.4538 237.852 99.4538 237.852Z" fill="#E5A3E5"/>
</g>
<path d="M112.208 222.328C112.208 222.328 111.434 229.744 115.695 230.823C119.956 231.902 122.584 226.174 122.474 225.842C122.363 225.51 116.636 224.265 112.208 222.328Z" fill="white"/>
<path d="M113.178 212.865C102.415 204.675 118.02 200.33 115.945 191.338C115.945 191.338 121.175 206.113 119.21 207.137C112.459 210.706 113.178 212.865 113.178 212.865Z" fill="url(#paint28_linear_3200_1140)"/>
<path d="M326.095 269.753C326.317 269.338 328.641 265.021 328.475 261.59C328.309 258.132 327.119 256.748 327.119 256.748C327.119 256.748 325.791 257.412 325.265 259.183C325.265 259.183 327.368 259.681 327.396 263.306C327.396 266.93 325.487 269.725 325.487 269.725H326.123L326.095 269.753Z" fill="url(#paint29_linear_3200_1140)"/>
<path d="M329.415 293.549C323.107 294.905 316.687 293.383 316.687 293.383C318.403 286.66 318.514 280.019 318.375 276.035C318.292 273.71 318.098 272.299 318.098 272.299C324.02 267.319 333.289 267.374 333.289 267.374C333.289 268.398 333.289 269.477 333.206 270.611C333.206 270.611 333.206 270.639 333.206 270.667C332.625 280.628 329.388 293.549 329.388 293.549H329.415Z" fill="url(#paint30_radial_3200_1140)"/>
<g style="mix-blend-mode:multiply" opacity="0.5">
<path d="M329.415 293.549C323.107 294.904 316.687 293.383 316.687 293.383C318.403 286.659 318.514 280.018 318.375 276.034C318.375 276.034 319.067 283.975 319.15 290.477C319.15 291.695 326.842 292.027 328.225 290.062C329.609 288.098 332.625 280.184 333.234 270.666C332.653 280.627 329.415 293.549 329.415 293.549Z" fill="#E5A3E5"/>
</g>
<path fill-rule="evenodd" clip-rule="evenodd" d="M222.002 254.424L61.2988 257.163L68.8526 307.936L215.196 302.818L304.429 292.303L307.639 269.863L222.002 254.424Z" fill="url(#paint31_linear_3200_1140)"/>
<path fill-rule="evenodd" clip-rule="evenodd" d="M25.4668 311.175L44.0606 336.022L101.142 335.496L115.281 331.733L115.696 338.457L226.042 337.239L267.905 325.148L276.483 326.171L315.054 320.167L324.489 309.57L304.927 308.601L328.806 305.558L338.628 294.186L332.375 292.442L167.798 292.276L118.187 294.103L117.606 303.289L107.672 301.988C107.672 301.988 27.542 310.842 25.4668 311.147V311.175Z" fill="url(#paint32_linear_3200_1140)"/>
<path fill-rule="evenodd" clip-rule="evenodd" d="M278.281 320.249L324.516 309.596L275.071 307.161L234.895 311.92L269.62 314.743L269.012 320.276L278.281 320.249Z" fill="url(#paint33_linear_3200_1140)"/>
<path fill-rule="evenodd" clip-rule="evenodd" d="M25.4668 311.172C25.4668 311.172 78.6196 316.18 102.222 316.18L161.794 306.579L107.672 302.014L25.4668 311.172Z" fill="url(#paint34_linear_3200_1140)"/>
<path fill-rule="evenodd" clip-rule="evenodd" d="M114.313 316.182C114.313 316.182 226.65 323.154 227.536 323.154C228.421 323.154 270.7 314.881 269.621 314.743C268.542 314.605 171.339 306.802 171.339 306.802L114.34 316.209L114.313 316.182Z" fill="url(#paint35_linear_3200_1140)"/>
<path style="mix-blend-mode:multiply" opacity="0.7" fill-rule="evenodd" clip-rule="evenodd" d="M267.934 325.174L269.621 314.743L227.536 323.155L189.602 320.83L166.332 337.902L226.07 337.266L267.934 325.174Z" fill="url(#paint36_linear_3200_1140)"/>
<path d="M123.083 300.548L201.858 286.243L253.71 289.619L184.537 304.671L123.083 300.548Z" fill="url(#paint37_linear_3200_1140)"/>
<path d="M253.71 289.619L184.537 304.671L123.083 300.549L123.581 303.343L161.82 306.553V308.351L171.311 306.774L220.866 310.759L223.274 297.865L253.461 292.386L253.71 289.619Z" fill="#076249"/>
<path d="M223.274 297.865L277.811 301.02L299.531 302.624L338.656 294.213L332.375 292.47L253.462 292.387L223.274 297.865Z" fill="url(#paint38_linear_3200_1140)"/>
<path style="mix-blend-mode:multiply" opacity="0.7" d="M223.275 297.864L299.532 302.623L300.334 308.406L274.464 307.161L234.896 311.92L220.868 310.758L223.275 297.864Z" fill="url(#paint39_linear_3200_1140)"/>
<path d="M321.114 284.112L309.078 279.575L281.298 277.97L274.713 293.935C274.713 293.935 305.066 296.564 305.675 296.564L320.644 293.409L321.087 284.112H321.114Z" fill="url(#paint40_linear_3200_1140)"/>
<path style="mix-blend-mode:multiply" opacity="0.7" fill-rule="evenodd" clip-rule="evenodd" d="M222.003 254.424L217.99 287.295L253.739 289.619L253.49 292.386L266.578 294.627L307.778 300.881L338.656 294.24L332.403 292.497H320.837L321.142 284.141L309.106 279.603L305.702 296.592L283.484 294.71C283.484 294.71 285.227 278.219 285.504 278.219C285.78 278.219 306.283 279.437 306.283 279.437L307.639 269.863L222.003 254.424Z" fill="url(#paint41_linear_3200_1140)"/>
<path style="mix-blend-mode:multiply" opacity="0.7" d="M101.142 335.468L102.221 316.154C103.494 315.546 161.793 306.553 161.793 306.553L123.554 303.343L123.056 300.521L184.51 304.644L253.711 289.592L253.462 292.359L223.247 297.837L234.868 311.893L220.839 310.759L171.284 306.774L114.285 316.182L115.253 331.732L101.114 335.495L101.142 335.468Z" fill="url(#paint42_linear_3200_1140)"/>
<path style="mix-blend-mode:multiply" opacity="0.7" d="M272.222 325.673L267.933 325.174L226.069 337.266L227.536 323.155L269.621 314.743L269.012 320.277L272.222 325.673Z" fill="url(#paint43_linear_3200_1140)"/>
<path style="mix-blend-mode:multiply" opacity="0.7" d="M278.282 320.249L276.483 326.198L315.082 320.194L324.517 309.597L278.282 320.249Z" fill="url(#paint44_linear_3200_1140)"/>
<path style="mix-blend-mode:multiply" opacity="0.7" fill-rule="evenodd" clip-rule="evenodd" d="M182.131 255.062L197.847 286.964L182.767 289.704L200.503 301.186L184.538 304.673L184.123 307.799L171.312 306.776L161.821 308.353V306.554L106.732 301.933L88.7466 304.119L104.297 256.445L182.131 255.062Z" fill="url(#paint45_linear_3200_1140)"/>
<path style="mix-blend-mode:multiply" opacity="0.7" d="M258.443 327.885L248.178 319.114L192.867 321.051L169.043 337.874L166.332 337.902L189.602 320.83L249.783 318.284L261.957 326.889L258.443 327.885Z" fill="url(#paint46_linear_3200_1140)"/>
<path d="M176.624 332.506C176.624 332.506 186.834 327.47 187.027 327.111C187.249 326.751 190.431 322.767 190.431 322.767L182.241 327.664L176.624 332.534V332.506Z" fill="url(#paint47_linear_3200_1140)"/>
<path style="mix-blend-mode:multiply" opacity="0.15" d="M102.221 316.181L101.142 335.494L77.0974 335.715C77.0974 335.715 60.7171 314.106 61.6025 314.189C62.4879 314.244 102.249 316.209 102.249 316.209L102.221 316.181Z" fill="url(#paint48_linear_3200_1140)"/>
<path style="mix-blend-mode:multiply" opacity="0.15" d="M114.313 316.182L115.724 338.455L133.792 338.262L179.944 320.443L114.313 316.182Z" fill="url(#paint49_linear_3200_1140)"/>
<path d="M171.312 306.774L114.313 316.182L149.259 318.34C149.259 318.34 122.171 316.182 124.716 315.601C127.262 315.02 171.312 306.774 171.312 306.774Z" fill="#83FFEA"/>
<g style="mix-blend-mode:soft-light" opacity="0.52">
<path fill-rule="evenodd" clip-rule="evenodd" d="M87.0029 265.105C87.0029 274.098 95.11 271.663 94.612 267.844C94.114 264.026 87.0029 261.121 87.0029 265.105Z" fill="#0E3E47"/>
</g>
<g style="mix-blend-mode:soft-light" opacity="0.52">
<path fill-rule="evenodd" clip-rule="evenodd" d="M93.6158 259.487C92.8134 260.76 94.0308 263.167 95.3589 262.171C96.687 261.175 95.2483 256.858 93.6158 259.487Z" fill="#0E3E47"/>
</g>
<path d="M80.2802 277.886C79.3395 274.842 78.4817 270.304 79.5332 268.202C79.5332 268.202 81.4147 267.593 82.2724 269.972C82.2724 269.972 79.9758 270.802 79.9758 273.874C79.9758 276.945 81.2763 278.522 81.2763 278.522L80.2802 277.886Z" fill="url(#paint50_linear_3200_1140)"/>
<path d="M92.1221 307.52L73.1133 306.883C73.1133 306.883 73.6113 297.061 73.6113 287.377C73.6113 284.195 73.5283 281.04 73.39 278.246C73.39 278.246 78.3151 274.981 88.3867 280.293C88.3867 280.293 88.3867 283.835 88.7464 288.622C89.1615 294.405 90.1023 302.014 92.1498 307.464L92.1221 307.52Z" fill="url(#paint51_radial_3200_1140)"/>
<g style="mix-blend-mode:multiply" opacity="0.5">
<path d="M92.1221 307.519L73.1133 306.883C73.1133 306.883 73.6113 297.06 73.6113 287.376C74.9671 296.369 76.4613 301.681 77.4297 302.068C78.4258 302.456 88.0547 303.064 88.3867 301.792C88.7188 300.519 88.7187 288.649 88.7187 288.649C89.1338 294.432 90.0746 302.041 92.1221 307.492V307.519Z" fill="#E5A3E5"/>
</g>
<path d="M78.1493 310.592C64.9511 311.975 44.033 310.481 44.033 310.481C44.8354 297.892 44.1714 287.709 43.0369 279.962C41.1831 267.262 38.1394 261.175 38.1394 261.175C56.6779 259.072 68.299 253.233 68.299 253.233C68.631 256.886 69.2398 261.534 70.0145 266.57C72.9752 285.828 78.1216 310.592 78.1216 310.592H78.1493Z" fill="url(#paint52_radial_3200_1140)"/>
<path d="M38.1119 261.175C38.1119 261.175 42.373 252.238 68.2715 253.234C68.2715 253.234 63.5953 258.574 52.3062 260.4C40.9618 262.254 38.0842 261.175 38.0842 261.175H38.1119Z" fill="#F6D8B6"/>
<path d="M53.2738 257.301C53.2738 257.301 50.3686 251.823 49.2341 246.317C48.072 240.755 50.0919 236.328 50.0919 236.328C50.0919 236.328 48.9021 233.146 45.0837 234.889C45.0837 234.889 46.3289 242.277 48.9851 249.748C51.586 257.108 52.5545 258.187 52.5545 258.187L53.3015 257.301H53.2738Z" fill="url(#paint53_linear_3200_1140)"/>
<g style="mix-blend-mode:multiply" opacity="0.5">
<path d="M78.1498 310.591C64.9515 311.975 44.0334 310.481 44.0334 310.481C44.8358 297.891 44.1718 287.709 43.0374 279.961C46.413 292.828 46.8834 303.923 47.7688 305.611C48.6265 307.299 64.5917 307.022 68.4101 302.733C72.1731 298.527 70.0979 267.565 70.0426 266.569C73.0032 285.827 78.1498 310.591 78.1498 310.591Z" fill="#E5A3E5"/>
</g>
<mask id="mask0_3200_1140" style="mask-type:luminance" maskUnits="userSpaceOnUse" x="47" y="223" width="165" height="86">
<path d="M194.665 308.654L171.312 306.772L161.821 308.35V306.551L143.393 305.002L107.672 302.013L47.7129 308.599L56.069 223.709L192.562 231.954L211.709 271.66L194.665 308.654Z" fill="white"/>
</mask>
<g mask="url(#mask0_3200_1140)">
<path d="M197.458 301.709C197.016 303.314 192.616 307.824 189.739 309.18C189.739 309.18 179.999 314.354 162.125 317.065L197.458 301.709Z" fill="#680000"/>
<path fill-rule="evenodd" clip-rule="evenodd" d="M187.331 291.001C188.438 292.163 189.351 293.464 190.098 294.792L190.458 295.428C195.494 298.638 197.652 301.764 197.569 301.875C195.189 304.504 191.399 304.199 191.399 304.199C187.94 308.682 171.2 315.129 164.698 316.54C163.121 316.9 162.18 317.066 162.18 317.066C158.832 313.884 159.192 309.816 159.219 309.595C156.535 305.527 152.025 306.662 152.025 306.662C152.025 306.662 136.669 314.99 133.238 317.038C129.807 319.085 119.735 317.702 113.565 316.595C107.339 315.461 94.4176 296.258 94.1132 293.74C93.8089 291.222 104.96 263.276 130.858 252.458C163.563 238.789 173.22 259.154 173.22 259.154C174.437 268.672 178.643 278.799 178.643 278.799C178.643 278.799 180.635 277.249 183.734 276.779C186.833 276.309 190.652 282.728 190.264 284.471C189.988 285.799 185.284 288.898 187.331 291.029V291.001Z" fill="url(#paint54_linear_3200_1140)"/>
<path d="M136.392 301.652C142.866 303.838 149.618 300.518 154.598 298.83C159.579 297.115 162.733 287.126 162.899 284.442C163.065 281.73 160.187 269.805 154.266 266.734C148.262 263.635 134.842 265.765 128.976 275.615C123.194 285.327 129.723 296.506 131.328 298.581C132.933 300.656 136.42 301.68 136.42 301.68L136.392 301.652Z" fill="url(#paint55_linear_3200_1140)"/>
<path d="M178.616 278.771L176.513 280.569C176.513 280.569 168.157 275.783 165.971 267.786C163.757 259.651 167.105 257.521 168.101 256.94C173.303 253.869 178.975 270.055 178.616 278.771Z" fill="url(#paint56_linear_3200_1140)"/>
<path d="M168.987 298.222C167.908 298.416 173.553 286.822 177.426 285.3C181.3 283.778 183.099 292.245 183.099 292.245C183.099 292.245 173.719 297.309 168.987 298.222Z" fill="url(#paint57_linear_3200_1140)"/>
<path d="M126.901 285.966C129.197 265.463 154.238 266.736 156.673 281.511C158.001 289.48 154.875 303.011 139.629 302.319C127.15 301.738 126.901 285.966 126.901 285.966Z" fill="url(#paint58_linear_3200_1140)"/>
<path d="M174.023 263.885C170.288 258.656 163.675 261.007 166.635 269.668C168.461 275.008 176.513 280.542 176.513 280.542L178.616 278.743C178.616 278.743 176.735 267.648 174.023 263.885Z" fill="url(#paint59_linear_3200_1140)"/>
<path d="M168.987 298.223C168.129 298.389 170.868 290.807 174.659 287.598C174.659 287.598 179.003 286.657 181.327 293.187C181.327 293.187 172.528 297.614 168.987 298.223Z" fill="#680000"/>
<path opacity="0.5" d="M96.8808 293.961C100.561 304.365 113.814 318.061 120.206 314.271C126.625 310.452 132.021 301.377 124.799 292.191C117.384 282.755 93.1454 283.447 96.8808 293.961Z" fill="#E26680"/>
<path opacity="0.5" d="M151.998 306.634C144.334 308.266 161.461 293.159 161.932 303.065C162.07 306.108 159.165 309.539 159.165 309.539C159.165 309.539 157.006 305.555 151.971 306.606L151.998 306.634Z" fill="#E26680"/>
<path opacity="0.5" d="M190.431 295.428C188.687 296.59 188.798 299.579 188.798 299.579C188.798 299.579 187.525 298.693 183.735 299.634C179.944 300.575 179.308 302.429 179.308 302.429C179.308 302.429 176.928 300.907 173.22 302.595C169.54 304.283 169.513 305.721 169.513 305.721C169.513 305.721 163.84 305.721 162.152 308.571C160.907 310.702 164.394 316.153 164.394 316.153L164.67 316.512C163.093 316.872 162.152 317.038 162.152 317.038C158.805 313.856 159.164 309.789 159.192 309.567C168.793 300.271 188.715 297.697 190.099 294.792L190.265 295.124L190.431 295.456V295.428Z" fill="#E26680"/>
<path opacity="0.5" d="M190.236 284.444C185.255 284.832 182.903 282.507 181.824 284.085C180.745 285.662 186.998 290.587 186.998 290.587C186.998 290.587 185.975 289.535 187.413 288.152C188.852 286.796 190.236 284.417 190.236 284.417V284.444Z" fill="#E26680"/>
<path d="M163.037 308.157C161.626 309.097 166.247 314.963 168.349 314.52C170.452 314.078 173.026 314.52 172.555 311.781C172.085 309.014 171.006 302.816 163.037 308.157Z" fill="#F7DAD2"/>
<path d="M173.275 303.342C171.172 304.671 174.465 311.56 177.177 311.699C179.888 311.837 181.548 310.094 181.244 308.876C180.94 307.659 181.106 298.417 173.275 303.342Z" fill="#F7DAD2"/>
<path d="M190.43 302.594C188.908 298.25 184.73 298.637 182.489 299.993C180.275 301.376 183.291 307.463 185.394 307.38C187.497 307.27 191.37 305.361 190.402 302.594H190.43Z" fill="#F7DAD2"/>
<path d="M108.198 270.912C104.601 275.754 157.919 256.441 162.153 252.401C167.078 247.725 129.586 242.081 108.198 270.912Z" fill="#F7DAD2"/>
<path d="M164.477 284.167C161.24 291.998 158.832 298.638 160.852 298.86C162.845 299.081 175.462 285.523 175.019 284.721C172.999 280.985 164.92 283.088 164.477 284.167Z" fill="#F7DAD2"/>
<path opacity="0.5" d="M109.111 308.377C108.364 312.112 115.779 314.409 118.684 313.883C121.59 313.357 131.329 303.645 126.459 296.036C125.214 294.072 122.669 301.1 117.052 302.594C111.407 304.088 109.692 305.527 109.111 308.377Z" fill="#E26680"/>
<g style="mix-blend-mode:soft-light" opacity="0.5">
<path d="M138.771 269.917C146.076 270.608 148.76 270.996 154.709 274.759C160.575 278.467 160.658 275.202 158.416 270.83C156.092 266.32 150.06 263.857 142.175 266.181C134.233 268.506 136.17 269.668 138.799 269.917H138.771Z" fill="#722E8C"/>
</g>
<path d="M189.628 296.258C188.383 298.444 192.617 303.508 193.806 303.563C194.969 303.618 197.597 302.207 197.459 301.709C197.348 301.211 192.119 295.954 190.486 295.871C189.933 295.871 189.877 295.788 189.628 296.258Z" fill="#F7DAD2"/>
<path d="M139.326 251.905C134.014 256.692 153.576 257.328 151.86 249.581C151.86 249.581 143.947 247.727 139.326 251.905Z" fill="white"/>
<path style="mix-blend-mode:color-dodge" d="M153.797 284.943C155.512 293.88 149.425 302.181 140.156 303.619C130.831 305.058 121.617 299.082 119.625 290.089C117.578 280.958 123.72 272.298 133.349 270.914C142.923 269.531 152.081 275.867 153.824 284.943H153.797Z" fill="url(#paint60_radial_3200_1140)"/>
<path style="mix-blend-mode:color-dodge" d="M185.062 270.47C186.224 277.83 181.133 284.637 173.69 285.771C166.219 286.906 159.025 281.925 157.642 274.51C156.231 266.984 161.349 259.9 169.069 258.821C176.734 257.742 183.872 262.999 185.062 270.47Z" fill="url(#paint61_radial_3200_1140)"/>
</g>
<path d="M196.02 30.744C194.803 41.0093 185.146 49.8358 174.051 48.895C162.734 47.9543 151.943 37.3569 153.161 26.6766C154.378 15.9685 164.948 6.75463 176.347 8.1381C187.526 9.4939 197.238 20.451 196.02 30.744Z" fill="#98FFEE"/>
<g style="mix-blend-mode:multiply" opacity="0.2">
<path d="M182.518 40.5388C182.103 43.9974 178.783 46.543 175.047 46.211C171.284 45.879 168.545 42.78 168.96 39.266C169.375 35.752 172.751 33.2064 176.514 33.5661C180.249 33.9258 182.933 37.0524 182.518 40.5111V40.5388Z" fill="#594275"/>
</g>
<g style="mix-blend-mode:multiply" opacity="0.2">
<path d="M162.32 33.3994C162.099 35.364 160.494 36.8304 158.723 36.6644C156.952 36.4984 155.707 34.7552 155.928 32.7907C156.15 30.7985 157.754 29.3597 159.525 29.5257C161.296 29.6917 162.514 31.4349 162.292 33.3994H162.32Z" fill="#594275"/>
</g>
<g style="mix-blend-mode:multiply" opacity="0.5">
<path d="M44.337 303.758L44.1709 309.098L25.4941 311.173L61.6304 314.161C61.6304 314.161 75.714 312.28 78.1766 310.592C78.1766 310.592 59.5828 311.063 50.1199 309.015C45.1948 307.936 44.3647 303.785 44.3647 303.785L44.337 303.758Z" fill="#311565"/>
</g>
<g style="mix-blend-mode:multiply" opacity="0.5">
<path d="M92.1213 307.521L77.8162 309.043L76.7925 303.979C76.7925 303.979 78.9784 305.529 82.6031 306.304C86.0894 307.078 92.1213 307.493 92.1213 307.493V307.521Z" fill="#311565"/>
</g>
<path style="mix-blend-mode:screen" opacity="0.86" fill-rule="evenodd" clip-rule="evenodd" d="M257.226 313.884L312.786 236.742L267.961 222.326L243.529 312.528L257.226 313.884Z" fill="url(#paint62_linear_3200_1140)"/>
</g>
<g filter="url(#filter2_d_3200_1140)">
<path d="M393.643 286.697L373.984 359.314L347.344 360.818L323.174 290.672L348.633 288.309L358.945 329.129L368.936 285.086L393.643 286.697ZM449.019 333.426C449.019 338.331 448.159 342.628 446.44 346.316C444.757 349.969 442.43 353.012 439.458 355.447C436.522 357.882 433.066 359.708 429.092 360.926C425.153 362.143 420.91 362.752 416.362 362.752C414.608 362.752 412.674 362.519 410.562 362.054C408.485 361.588 406.372 361.015 404.224 360.335C402.075 359.619 399.998 358.867 397.993 358.079C396.024 357.256 394.269 356.486 392.729 355.77L395.093 333.641C398.136 335.467 401.502 336.863 405.19 337.83C408.914 338.761 412.567 339.227 416.147 339.227C416.828 339.227 417.651 339.209 418.618 339.173C419.585 339.101 420.498 338.94 421.357 338.689C422.253 338.403 423.005 337.991 423.613 337.454C424.222 336.917 424.526 336.147 424.526 335.145C424.526 334.464 424.312 333.891 423.882 333.426C423.452 332.924 422.897 332.531 422.217 332.244C421.536 331.922 420.767 331.689 419.907 331.546C419.048 331.367 418.206 331.242 417.383 331.17C416.559 331.098 415.789 331.062 415.073 331.062C414.357 331.062 413.784 331.062 413.354 331.062C410.275 331.062 407.464 330.525 404.922 329.451C402.415 328.377 400.249 326.891 398.423 324.993C396.632 323.06 395.236 320.786 394.233 318.172C393.231 315.522 392.729 312.658 392.729 309.578C392.729 305.353 393.571 301.575 395.254 298.245C396.973 294.879 399.246 292.033 402.075 289.705C404.94 287.342 408.216 285.534 411.904 284.28C415.592 283.027 419.406 282.4 423.345 282.4C425.099 282.4 426.908 282.472 428.77 282.615C430.632 282.723 432.476 282.938 434.302 283.26C436.164 283.582 437.972 283.994 439.727 284.495C441.481 284.996 443.146 285.623 444.722 286.375L442.681 308.182C440.246 307.358 437.686 306.678 435 306.141C432.35 305.568 429.754 305.281 427.212 305.281C426.746 305.281 426.138 305.299 425.386 305.335C424.67 305.335 423.9 305.389 423.076 305.496C422.288 305.568 421.483 305.693 420.659 305.872C419.836 306.051 419.102 306.302 418.457 306.624C417.812 306.91 417.293 307.304 416.899 307.806C416.506 308.307 416.326 308.898 416.362 309.578C416.398 310.366 416.685 311.01 417.222 311.512C417.795 311.977 418.511 312.353 419.37 312.64C420.265 312.89 421.232 313.069 422.271 313.177C423.345 313.284 424.401 313.356 425.439 313.392C426.478 313.392 427.445 313.392 428.34 313.392C429.235 313.356 429.969 313.374 430.542 313.445C433.407 313.624 435.985 314.233 438.276 315.271C440.568 316.31 442.502 317.688 444.077 319.407C445.688 321.126 446.906 323.185 447.729 325.584C448.589 327.947 449.019 330.561 449.019 333.426ZM536.46 342.879C536.46 345.851 535.905 348.411 534.795 350.56C533.721 352.708 532.271 354.534 530.444 356.038C528.618 357.542 526.506 358.777 524.106 359.744C521.743 360.675 519.272 361.409 516.694 361.946C514.116 362.483 511.52 362.841 508.906 363.021C506.328 363.2 503.911 363.289 501.655 363.289C499.435 363.289 497.126 363.2 494.727 363.021C492.363 362.877 490 362.609 487.637 362.215C485.273 361.821 482.946 361.302 480.654 360.657C478.363 359.977 476.196 359.135 474.155 358.133L474.048 288.953C476.053 288.13 478.184 287.396 480.439 286.751C482.695 286.071 484.987 285.516 487.314 285.086C489.678 284.62 492.023 284.28 494.351 284.065C496.678 283.815 498.934 283.689 501.118 283.689C503.66 283.689 506.221 283.851 508.799 284.173C511.413 284.495 513.919 285.032 516.318 285.784C518.717 286.536 520.955 287.521 523.032 288.738C525.109 289.92 526.917 291.388 528.457 293.143C530.033 294.897 531.25 296.938 532.109 299.266C533.005 301.593 533.452 304.279 533.452 307.322C533.452 309.327 533.166 311.207 532.593 312.962C532.02 314.716 531.196 316.292 530.122 317.688C529.048 319.085 527.741 320.285 526.201 321.287C524.661 322.254 522.925 322.97 520.991 323.436C523.319 324.044 525.431 324.939 527.329 326.121C529.263 327.303 530.892 328.735 532.217 330.418C533.577 332.101 534.616 333.999 535.332 336.111C536.084 338.224 536.46 340.48 536.46 342.879ZM509.175 312.264C509.175 311.225 508.96 310.348 508.53 309.632C508.101 308.88 507.563 308.271 506.919 307.806C506.31 307.34 505.63 307 504.878 306.785C504.162 306.57 503.517 306.463 502.944 306.463C502.228 306.463 501.53 306.57 500.85 306.785C500.169 307 499.507 307.251 498.862 307.537L498.54 319.461C499.364 319.461 500.384 319.389 501.602 319.246C502.819 319.103 503.983 318.799 505.093 318.333C506.239 317.832 507.205 317.116 507.993 316.185C508.781 315.218 509.175 313.911 509.175 312.264ZM501.548 329.773C500.509 329.773 499.507 329.881 498.54 330.096L498.325 342.342C498.862 342.449 499.382 342.557 499.883 342.664C500.42 342.736 500.939 342.771 501.44 342.771C502.192 342.771 503.016 342.7 503.911 342.557C504.806 342.378 505.648 342.055 506.436 341.59C507.223 341.089 507.868 340.426 508.369 339.603C508.906 338.779 509.175 337.687 509.175 336.326C509.175 334.965 508.906 333.855 508.369 332.996C507.868 332.137 507.241 331.474 506.489 331.009C505.737 330.507 504.914 330.185 504.019 330.042C503.123 329.863 502.3 329.773 501.548 329.773ZM604.673 324.08C604.673 327.339 604.297 330.49 603.545 333.533C602.793 336.541 601.701 339.37 600.269 342.02C598.872 344.669 597.153 347.104 595.112 349.324C593.107 351.508 590.833 353.388 588.291 354.964C585.785 356.539 583.045 357.775 580.073 358.67C577.101 359.529 573.95 359.959 570.62 359.959C567.397 359.959 564.318 359.547 561.382 358.724C558.481 357.9 555.76 356.754 553.218 355.286C550.675 353.782 548.366 351.992 546.289 349.915C544.248 347.802 542.493 345.475 541.025 342.933C539.593 340.354 538.465 337.597 537.642 334.661C536.854 331.725 536.46 328.663 536.46 325.477C536.46 322.361 536.836 319.318 537.588 316.346C538.34 313.338 539.414 310.509 540.811 307.859C542.243 305.21 543.962 302.775 545.967 300.555C547.972 298.335 550.21 296.419 552.681 294.808C555.187 293.196 557.891 291.943 560.791 291.048C563.691 290.153 566.753 289.705 569.976 289.705C575.168 289.705 579.894 290.511 584.155 292.122C588.452 293.733 592.104 296.043 595.112 299.051C598.156 302.023 600.501 305.639 602.148 309.9C603.831 314.126 604.673 318.852 604.673 324.08ZM580.825 325.477C580.825 323.937 580.592 322.451 580.127 321.019C579.697 319.55 579.053 318.261 578.193 317.151C577.334 316.006 576.26 315.092 574.971 314.412C573.717 313.696 572.267 313.338 570.62 313.338C568.937 313.338 567.433 313.642 566.108 314.251C564.784 314.86 563.638 315.701 562.671 316.775C561.74 317.814 561.024 319.049 560.522 320.481C560.021 321.878 559.771 323.364 559.771 324.939C559.771 326.443 559.985 327.947 560.415 329.451C560.845 330.955 561.489 332.316 562.349 333.533C563.208 334.751 564.264 335.735 565.518 336.487C566.807 337.239 568.293 337.615 569.976 337.615C571.659 337.615 573.162 337.293 574.487 336.648C575.848 335.968 576.994 335.073 577.925 333.963C578.856 332.817 579.572 331.51 580.073 330.042C580.575 328.574 580.825 327.052 580.825 325.477ZM664.453 285.193L663.916 307.967L647.91 308.611L643.828 359.529L621.162 360.711L621.27 309.793L605.264 310.652L605.908 285.301L664.453 285.193Z" fill="white"/>
</g>
<defs>
<filter id="filter0_d_3200_1140" x="27.9" y="56.9" width="672.2" height="381.309" filterUnits="userSpaceOnUse" color-interpolation-filters="sRGB">
<feFlood flood-opacity="0" result="BackgroundImageFix"/>
<feColorMatrix in="SourceAlpha" type="matrix" values="0 0 0 0 0 0 0 0 0 0 0 0 0 0 0 0 0 0 127 0" result="hardAlpha"/>
<feOffset dy="4"/>
<feGaussianBlur stdDeviation="5.55"/>
<feComposite in2="hardAlpha" operator="out"/>
<feColorMatrix type="matrix" values="0 0 0 0 0 0 0 0 0 0 0 0 0 0 0 0 0 0 0.6 0"/>
<feBlend mode="normal" in2="BackgroundImageFix" result="effect1_dropShadow_3200_1140"/>
<feBlend mode="normal" in="SourceGraphic" in2="effect1_dropShadow_3200_1140" result="shape"/>
</filter>
<filter id="filter1_d_3200_1140" x="0.3" y="0.3" width="377.441" height="422.4" filterUnits="userSpaceOnUse" color-interpolation-filters="sRGB">
<feFlood flood-opacity="0" result="BackgroundImageFix"/>
<feColorMatrix in="SourceAlpha" type="matrix" values="0 0 0 0 0 0 0 0 0 0 0 0 0 0 0 0 0 0 127 0" result="hardAlpha"/>
<feOffset dx="1" dy="5"/>
<feGaussianBlur stdDeviation="6.35"/>
<feComposite in2="hardAlpha" operator="out"/>
<feColorMatrix type="matrix" values="0 0 0 0 0 0 0 0 0 0 0 0 0 0 0 0 0 0 0.28 0"/>
<feBlend mode="normal" in2="BackgroundImageFix" result="effect1_dropShadow_3200_1140"/>
<feBlend mode="normal" in="SourceGraphic" in2="effect1_dropShadow_3200_1140" result="shape"/>
</filter>
<filter id="filter2_d_3200_1140" x="320.174" y="280.4" width="357.279" height="96.8887" filterUnits="userSpaceOnUse" color-interpolation-filters="sRGB">
<feFlood flood-opacity="0" result="BackgroundImageFix"/>
<feColorMatrix in="SourceAlpha" type="matrix" values="0 0 0 0 0 0 0 0 0 0 0 0 0 0 0 0 0 0 127 0" result="hardAlpha"/>
<feOffset dx="5" dy="6"/>
<feGaussianBlur stdDeviation="4"/>
<feComposite in2="hardAlpha" operator="out"/>
<feColorMatrix type="matrix" values="0 0 0 0 0 0 0 0 0 0 0 0 0 0 0 0 0 0 0.28 0"/>
<feBlend mode="normal" in2="BackgroundImageFix" result="effect1_dropShadow_3200_1140"/>
<feBlend mode="normal" in="SourceGraphic" in2="effect1_dropShadow_3200_1140" result="shape"/>
</filter>
<linearGradient id="paint0_linear_3200_1140" x1="364" y1="64" x2="364" y2="423.109" gradientUnits="userSpaceOnUse">
<stop stop-color="#4A0B48"/>
<stop offset="1" stop-color="#059CA0"/>
</linearGradient>
<radialGradient id="paint1_radial_3200_1140" cx="0" cy="0" r="1" gradientUnits="userSpaceOnUse" gradientTransform="translate(165.098 120.453) scale(202.257 195.733)">
<stop stop-color="#00FFFF"/>
<stop offset="0.18" stop-color="#00C2C2"/>
<stop offset="0.41" stop-color="#007E7E"/>
<stop offset="0.61" stop-color="#004747"/>
<stop offset="0.78" stop-color="#002020"/>
<stop offset="0.92" stop-color="#000808"/>
<stop offset="1"/>
</radialGradient>
<linearGradient id="paint2_linear_3200_1140" x1="179.944" y1="391.192" x2="186.806" y2="325.201" gradientUnits="userSpaceOnUse">
<stop stop-color="#74095C"/>
<stop offset="1" stop-color="#8B0012"/>
</linearGradient>
<linearGradient id="paint3_linear_3200_1140" x1="58.9456" y1="357.685" x2="123.36" y2="357.685" gradientUnits="userSpaceOnUse">
<stop stop-color="#AE282F"/>
<stop offset="1" stop-color="#961037"/>
</linearGradient>
<linearGradient id="paint4_linear_3200_1140" x1="46.301" y1="342.494" x2="94.6117" y2="342.494" gradientUnits="userSpaceOnUse">
<stop stop-color="#AE282F"/>
<stop offset="1" stop-color="#961037"/>
</linearGradient>
<linearGradient id="paint5_linear_3200_1140" x1="188.853" y1="337.403" x2="188.853" y2="386.544" gradientUnits="userSpaceOnUse">
<stop stop-color="#AE282F"/>
<stop offset="1" stop-color="#961037"/>
</linearGradient>
<linearGradient id="paint6_linear_3200_1140" x1="256.145" y1="369.803" x2="249.366" y2="346.146" gradientUnits="userSpaceOnUse">
<stop stop-color="#354EEB"/>
<stop offset="0.03" stop-color="#334BE2"/>
<stop offset="0.71" stop-color="#0E1541"/>
<stop offset="1"/>
</linearGradient>
<linearGradient id="paint7_linear_3200_1140" x1="272.11" y1="329.352" x2="317.073" y2="329.352" gradientUnits="userSpaceOnUse">
<stop stop-color="#AE282F"/>
<stop offset="1" stop-color="#961037"/>
</linearGradient>
<linearGradient id="paint8_linear_3200_1140" x1="232.239" y1="391.8" x2="238.492" y2="331.563" gradientUnits="userSpaceOnUse">
<stop stop-color="#74095C"/>
<stop offset="1" stop-color="#8B0012"/>
</linearGradient>
<linearGradient id="paint9_linear_3200_1140" x1="108.723" y1="413.023" x2="163.37" y2="345.51" gradientUnits="userSpaceOnUse">
<stop stop-color="#4757F7"/>
<stop offset="1"/>
</linearGradient>
<linearGradient id="paint10_linear_3200_1140" x1="230.108" y1="394.928" x2="248.398" y2="328.549" gradientUnits="userSpaceOnUse">
<stop stop-color="#4757F7"/>
<stop offset="1"/>
</linearGradient>
<linearGradient id="paint11_linear_3200_1140" x1="266.079" y1="196.069" x2="305.259" y2="196.069" gradientUnits="userSpaceOnUse">
<stop stop-color="#002E45"/>
<stop offset="0.33" stop-color="#054540"/>
<stop offset="0.53" stop-color="#074F3F"/>
<stop offset="1" stop-color="#0B8141"/>
</linearGradient>
<linearGradient id="paint12_linear_3200_1140" x1="199.119" y1="77.5324" x2="175.6" y2="239.094" gradientUnits="userSpaceOnUse">
<stop stop-color="#002134"/>
<stop offset="1" stop-color="#04382D"/>
</linearGradient>
<linearGradient id="paint13_linear_3200_1140" x1="286.473" y1="142.389" x2="271.365" y2="169.007" gradientUnits="userSpaceOnUse">
<stop stop-color="#002134"/>
<stop offset="1" stop-color="#004F59"/>
</linearGradient>
<radialGradient id="paint14_radial_3200_1140" cx="0" cy="0" r="1" gradientUnits="userSpaceOnUse" gradientTransform="translate(214.099 226.188) scale(140.599 140.599)">
<stop stop-color="#55C9BF"/>
<stop offset="0.35" stop-color="#0B8141"/>
<stop offset="0.98" stop-color="#074F3F"/>
</radialGradient>
<linearGradient id="paint15_linear_3200_1140" x1="290.815" y1="120.143" x2="197.486" y2="44.9376" gradientUnits="userSpaceOnUse">
<stop stop-color="#3D56FD"/>
<stop offset="0.1" stop-color="#364DE2"/>
<stop offset="0.73" stop-color="#0F1641"/>
<stop offset="1"/>
</linearGradient>
<linearGradient id="paint16_linear_3200_1140" x1="220.48" y1="207.385" x2="127.179" y2="132.18" gradientUnits="userSpaceOnUse">
<stop stop-color="#3D56FD"/>
<stop offset="0.1" stop-color="#364DE2"/>
<stop offset="0.73" stop-color="#0F1641"/>
<stop offset="1"/>
</linearGradient>
<linearGradient id="paint17_linear_3200_1140" x1="287.052" y1="124.792" x2="193.751" y2="49.5865" gradientUnits="userSpaceOnUse">
<stop stop-color="#3D56FD"/>
<stop offset="0.1" stop-color="#364DE2"/>
<stop offset="0.73" stop-color="#0F1641"/>
<stop offset="1"/>
</linearGradient>
<linearGradient id="paint18_linear_3200_1140" x1="214.309" y1="215.049" x2="121.008" y2="139.844" gradientUnits="userSpaceOnUse">
<stop stop-color="#3D56FD"/>
<stop offset="0.1" stop-color="#364DE2"/>
<stop offset="0.73" stop-color="#0F1641"/>
<stop offset="1"/>
</linearGradient>
<linearGradient id="paint19_linear_3200_1140" x1="255.51" y1="133.038" x2="250.64" y2="141.615" gradientUnits="userSpaceOnUse">
<stop stop-color="#002134"/>
<stop offset="1" stop-color="#004F59"/>
</linearGradient>
<linearGradient id="paint20_linear_3200_1140" x1="273.799" y1="167.457" x2="242.837" y2="221.994" gradientUnits="userSpaceOnUse">
<stop stop-color="#002134"/>
<stop offset="1" stop-color="#004F59"/>
</linearGradient>
<linearGradient id="paint21_linear_3200_1140" x1="247.762" y1="245.541" x2="136.337" y2="74.6826" gradientUnits="userSpaceOnUse">
<stop stop-color="#4757F7"/>
<stop offset="1"/>
</linearGradient>
<linearGradient id="paint22_linear_3200_1140" x1="324.185" y1="195.681" x2="212.788" y2="24.8226" gradientUnits="userSpaceOnUse">
<stop stop-color="#3D56FD"/>
<stop offset="0.1" stop-color="#364DE2"/>
<stop offset="0.73" stop-color="#0F1641"/>
<stop offset="1"/>
</linearGradient>
<linearGradient id="paint23_linear_3200_1140" x1="251.442" y1="243.133" x2="140.017" y2="72.2747" gradientUnits="userSpaceOnUse">
<stop stop-color="#3D56FD"/>
<stop offset="0.1" stop-color="#364DE2"/>
<stop offset="0.73" stop-color="#0F1641"/>
<stop offset="1"/>
</linearGradient>
<linearGradient id="paint24_linear_3200_1140" x1="229.97" y1="233.559" x2="225.377" y2="265.6" gradientUnits="userSpaceOnUse">
<stop stop-color="#C079B1"/>
<stop offset="1" stop-color="#90426D"/>
</linearGradient>
<linearGradient id="paint25_linear_3200_1140" x1="230.054" y1="284.914" x2="230.054" y2="77.0617" gradientUnits="userSpaceOnUse">
<stop stop-color="#3D56FD"/>
<stop offset="0.1" stop-color="#364DE2"/>
<stop offset="0.73" stop-color="#0F1641"/>
<stop offset="1"/>
</linearGradient>
<radialGradient id="paint26_radial_3200_1140" cx="0" cy="0" r="1" gradientUnits="userSpaceOnUse" gradientTransform="translate(120.865 233.114) scale(25.251 25.251)">
<stop stop-color="#F7E789"/>
<stop offset="1" stop-color="#F79A6F"/>
</radialGradient>
<linearGradient id="paint27_linear_3200_1140" x1="112.209" y1="210.486" x2="119.21" y2="210.486" gradientUnits="userSpaceOnUse">
<stop stop-color="#8E6160"/>
<stop offset="1" stop-color="#1F0A0F"/>
</linearGradient>
<linearGradient id="paint28_linear_3200_1140" x1="121.119" y1="209.738" x2="115.862" y2="203.817" gradientUnits="userSpaceOnUse">
<stop stop-color="#FDBB01"/>
<stop offset="0.23" stop-color="#FDBF01"/>
<stop offset="0.48" stop-color="#FDCD01"/>
<stop offset="0.75" stop-color="#FEE301"/>
<stop offset="1" stop-color="#FFFF01"/>
</linearGradient>
<linearGradient id="paint29_linear_3200_1140" x1="327.313" y1="269.421" x2="326.317" y2="258.325" gradientUnits="userSpaceOnUse">
<stop stop-color="#1F0A0F"/>
<stop offset="1" stop-color="#8E6160"/>
</linearGradient>
<radialGradient id="paint30_radial_3200_1140" cx="0" cy="0" r="1" gradientUnits="userSpaceOnUse" gradientTransform="translate(326.958 274.85) scale(14.4932 14.4932)">
<stop stop-color="#F7E789"/>
<stop offset="1" stop-color="#F79A6F"/>
</radialGradient>
<linearGradient id="paint31_linear_3200_1140" x1="307.639" y1="281.18" x2="61.2988" y2="281.18" gradientUnits="userSpaceOnUse">
<stop stop-color="#002E45"/>
<stop offset="0.33" stop-color="#054540"/>
<stop offset="0.53" stop-color="#074F3F"/>
<stop offset="1" stop-color="#0B8141"/>
</linearGradient>
<linearGradient id="paint32_linear_3200_1140" x1="338.656" y1="315.38" x2="25.4668" y2="315.38" gradientUnits="userSpaceOnUse">
<stop stop-color="#002E45"/>
<stop offset="0.33" stop-color="#054540"/>
<stop offset="0.53" stop-color="#074F3F"/>
<stop offset="1" stop-color="#0B8141"/>
</linearGradient>
<linearGradient id="paint33_linear_3200_1140" x1="330.327" y1="313.719" x2="246.544" y2="313.719" gradientUnits="userSpaceOnUse">
<stop stop-color="#002E45"/>
<stop offset="0.33" stop-color="#054540"/>
<stop offset="0.53" stop-color="#074F3F"/>
<stop offset="1" stop-color="#0B8141"/>
</linearGradient>
<linearGradient id="paint34_linear_3200_1140" x1="25.4668" y1="309.097" x2="161.821" y2="309.097" gradientUnits="userSpaceOnUse">
<stop stop-color="#0BBDAE"/>
<stop offset="1" stop-color="#00B48F"/>
</linearGradient>
<linearGradient id="paint35_linear_3200_1140" x1="114.313" y1="314.964" x2="269.649" y2="314.964" gradientUnits="userSpaceOnUse">
<stop stop-color="#0BBDAE"/>
<stop offset="1" stop-color="#00B48F"/>
</linearGradient>
<linearGradient id="paint36_linear_3200_1140" x1="216.635" y1="318.728" x2="221.67" y2="347.227" gradientUnits="userSpaceOnUse">
<stop stop-color="#C079B1"/>
<stop offset="1" stop-color="#90426D"/>
</linearGradient>
<linearGradient id="paint37_linear_3200_1140" x1="123.083" y1="295.457" x2="253.71" y2="295.457" gradientUnits="userSpaceOnUse">
<stop stop-color="#0BBDAE"/>
<stop offset="1" stop-color="#00B48F"/>
</linearGradient>
<linearGradient id="paint38_linear_3200_1140" x1="223.274" y1="297.506" x2="338.656" y2="297.506" gradientUnits="userSpaceOnUse">
<stop stop-color="#0BBDAE"/>
<stop offset="1" stop-color="#00B48F"/>
</linearGradient>
<linearGradient id="paint39_linear_3200_1140" x1="260.601" y1="286.188" x2="260.601" y2="310.564" gradientUnits="userSpaceOnUse">
<stop stop-color="#C079B1"/>
<stop offset="1" stop-color="#90426D"/>
</linearGradient>
<linearGradient id="paint40_linear_3200_1140" x1="317.268" y1="287.267" x2="275.073" y2="287.267" gradientUnits="userSpaceOnUse">
<stop stop-color="#002E45"/>
<stop offset="0.33" stop-color="#054540"/>
<stop offset="0.53" stop-color="#074F3F"/>
<stop offset="1" stop-color="#0B8141"/>
</linearGradient>
<linearGradient id="paint41_linear_3200_1140" x1="278.31" y1="263.914" x2="278.31" y2="294.959" gradientUnits="userSpaceOnUse">
<stop stop-color="#C079B1"/>
<stop offset="1" stop-color="#90426D"/>
</linearGradient>
<linearGradient id="paint42_linear_3200_1140" x1="101.142" y1="312.557" x2="253.711" y2="312.557" gradientUnits="userSpaceOnUse">
<stop stop-color="#C079B1"/>
<stop offset="1" stop-color="#90426D"/>
</linearGradient>
<linearGradient id="paint43_linear_3200_1140" x1="249.146" y1="296.039" x2="249.146" y2="335.108" gradientUnits="userSpaceOnUse">
<stop stop-color="#C079B1"/>
<stop offset="1" stop-color="#90426D"/>
</linearGradient>
<linearGradient id="paint44_linear_3200_1140" x1="300.5" y1="295.817" x2="300.5" y2="324.621" gradientUnits="userSpaceOnUse">
<stop stop-color="#C079B1"/>
<stop offset="1" stop-color="#90426D"/>
</linearGradient>
<linearGradient id="paint45_linear_3200_1140" x1="88.7466" y1="281.707" x2="200.503" y2="281.707" gradientUnits="userSpaceOnUse">
<stop stop-color="#C079B1"/>
<stop offset="1" stop-color="#90426D"/>
</linearGradient>
<linearGradient id="paint46_linear_3200_1140" x1="202.994" y1="355.555" x2="226.374" y2="306.995" gradientUnits="userSpaceOnUse">
<stop stop-color="#C57CBB"/>
<stop offset="1" stop-color="#954577"/>
</linearGradient>
<linearGradient id="paint47_linear_3200_1140" x1="180.331" y1="334.305" x2="186.751" y2="320.968" gradientUnits="userSpaceOnUse">
<stop stop-color="#0A3D48"/>
<stop offset="1" stop-color="#006B6D"/>
</linearGradient>
<linearGradient id="paint48_linear_3200_1140" x1="76.2949" y1="335.328" x2="88.6631" y2="309.651" gradientUnits="userSpaceOnUse">
<stop stop-color="#C57CBB"/>
<stop offset="1" stop-color="#954577"/>
</linearGradient>
<linearGradient id="paint49_linear_3200_1140" x1="133.349" y1="346.95" x2="152.469" y2="307.217" gradientUnits="userSpaceOnUse">
<stop stop-color="#C57CBB"/>
<stop offset="1" stop-color="#954577"/>
</linearGradient>
<linearGradient id="paint50_linear_3200_1140" x1="79.0351" y1="273.32" x2="82.2724" y2="273.32" gradientUnits="userSpaceOnUse">
<stop stop-color="#8E6160"/>
<stop offset="1" stop-color="#1F0A0F"/>
</linearGradient>
<radialGradient id="paint51_radial_3200_1140" cx="0" cy="0" r="1" gradientUnits="userSpaceOnUse" gradientTransform="translate(83.8103 286.552) scale(15.7881 15.7881)">
<stop stop-color="#F7E789"/>
<stop offset="1" stop-color="#F79A6F"/>
</radialGradient>
<radialGradient id="paint52_radial_3200_1140" cx="0" cy="0" r="1" gradientUnits="userSpaceOnUse" gradientTransform="translate(51.9354 278.235) scale(31.7257 31.7257)">
<stop stop-color="#F7E789"/>
<stop offset="1" stop-color="#F79A6F"/>
</radialGradient>
<linearGradient id="paint53_linear_3200_1140" x1="50.6453" y1="258.463" x2="48.7084" y2="242.332" gradientUnits="userSpaceOnUse">
<stop stop-color="#1F0A0F"/>
<stop offset="1" stop-color="#8E6160"/>
</linearGradient>
<linearGradient id="paint54_linear_3200_1140" x1="137.434" y1="249.525" x2="149.567" y2="319.256" gradientUnits="userSpaceOnUse">
<stop stop-color="#F5CEB3"/>
<stop offset="1" stop-color="#F7B0B8"/>
</linearGradient>
<linearGradient id="paint55_linear_3200_1140" x1="126.788" y1="286.96" x2="162.471" y2="280.751" gradientUnits="userSpaceOnUse">
<stop stop-color="#F16D73"/>
<stop offset="1" stop-color="#E3786E"/>
</linearGradient>
<linearGradient id="paint56_linear_3200_1140" x1="166.223" y1="269.708" x2="177.317" y2="267.778" gradientUnits="userSpaceOnUse">
<stop stop-color="#F16D73"/>
<stop offset="1" stop-color="#E3786E"/>
</linearGradient>
<linearGradient id="paint57_linear_3200_1140" x1="167.942" y1="292.663" x2="182.772" y2="290.083" gradientUnits="userSpaceOnUse">
<stop stop-color="#F16D73"/>
<stop offset="1" stop-color="#E3786E"/>
</linearGradient>
<linearGradient id="paint58_linear_3200_1140" x1="126.901" y1="286.437" x2="156.95" y2="286.437" gradientUnits="userSpaceOnUse">
<stop stop-color="#023536"/>
<stop offset="1" stop-color="#00635B"/>
</linearGradient>
<linearGradient id="paint59_linear_3200_1140" x1="165.888" y1="270.83" x2="178.616" y2="270.83" gradientUnits="userSpaceOnUse">
<stop stop-color="#023536"/>
<stop offset="1" stop-color="#00635B"/>
</linearGradient>
<radialGradient id="paint60_radial_3200_1140" cx="0" cy="0" r="1" gradientUnits="userSpaceOnUse" gradientTransform="translate(136.772 287.28) rotate(-9.87) scale(16.9835 16.9834)">
<stop stop-color="#00FFFF"/>
<stop offset="0.12" stop-color="#00D0D0"/>
<stop offset="0.3" stop-color="#009292"/>
<stop offset="0.48" stop-color="#005D5D"/>
<stop offset="0.64" stop-color="#003535"/>
<stop offset="0.78" stop-color="#001818"/>
<stop offset="0.91" stop-color="#000606"/>
<stop offset="1"/>
</radialGradient>
<radialGradient id="paint61_radial_3200_1140" cx="0" cy="0" r="1" gradientUnits="userSpaceOnUse" gradientTransform="translate(171.423 272.302) rotate(-9.86999) scale(13.7461 13.7461)">
<stop stop-color="#00FFFF"/>
<stop offset="0.12" stop-color="#00D0D0"/>
<stop offset="0.3" stop-color="#009292"/>
<stop offset="0.48" stop-color="#005D5D"/>
<stop offset="0.64" stop-color="#003535"/>
<stop offset="0.78" stop-color="#001818"/>
<stop offset="0.91" stop-color="#000606"/>
<stop offset="1"/>
</radialGradient>
<linearGradient id="paint62_linear_3200_1140" x1="270.811" y1="315.738" x2="286.389" y2="228.607" gradientUnits="userSpaceOnUse">
<stop stop-color="#006633"/>
<stop offset="0.23" stop-color="#004723"/>
<stop offset="0.57" stop-color="#002010"/>
<stop offset="0.83" stop-color="#000804"/>
<stop offset="1"/>
</linearGradient>
</defs>
</svg>
